M48
; DRILL file {KiCad (5.1.10)-1} date 12/02/21 15:39:56
; FORMAT={-:-/ absolute / inch / decimal}
; #@! TF.CreationDate,2021-12-02T15:39:56+11:00
; #@! TF.GenerationSoftware,Kicad,Pcbnew,(5.1.10)-1
; #@! TF.FileFunction,Plated,1,2,PTH
FMAT,2
INCH
T1C0.0157
T2C0.0354
T3C0.0394
T4C0.0433
T5C0.1260
%
G90
G05
T1
X6.175Y-2.25
X6.175Y-3.775
X6.7Y-3.6
X6.9Y-4.4
T2
X6.3Y-2.2
X6.4Y-2.2
X6.5Y-2.2
T3
X6.05Y-3.0
X6.05Y-3.1
X6.05Y-3.2
X6.05Y-3.3
X6.05Y-3.4
X6.05Y-3.5
X6.05Y-3.6
X6.3Y-2.7
X6.3Y-2.8
X6.3Y-2.9
X6.3Y-3.0
X6.3Y-3.1
X6.3Y-3.2
X6.3Y-3.3
X6.3Y-3.4
X6.3Y-3.5
X6.3Y-3.6
X6.3Y-3.7
X6.3Y-3.8
X6.3Y-3.9
X6.3Y-4.0
X6.3Y-4.1
X6.35Y-4.6
X6.4045Y-4.4882
X6.4591Y-4.6
X6.5136Y-4.4882
X6.5681Y-4.6
X6.6226Y-4.4882
X6.6772Y-4.6
X6.7317Y-4.4882
X6.7862Y-4.6
X6.9Y-2.7
X6.9Y-2.8
X6.9Y-2.9
X6.9Y-3.0
X6.9Y-3.1
X6.9Y-3.2
X6.9Y-3.3
X6.9Y-3.4
X6.9Y-3.5
X6.9Y-3.6
X6.9Y-3.7
X6.9Y-3.8
X6.9Y-3.9
X6.9Y-4.0
X6.9Y-4.1
T4
X6.7228Y-2.05
X6.7228Y-2.3059
X6.9Y-2.05
X6.9Y-2.3059
T5
X6.076Y-4.5441
X7.0602Y-4.5441
T0
M30
