%TF.GenerationSoftware,KiCad,Pcbnew,(5.1.10)-1*%
%TF.CreationDate,2021-12-02T15:39:48+11:00*%
%TF.ProjectId,bkm10iRduino_shield,626b6d31-3069-4526-9475-696e6f5f7368,rev?*%
%TF.SameCoordinates,Original*%
%TF.FileFunction,Copper,L1,Top*%
%TF.FilePolarity,Positive*%
%FSLAX46Y46*%
G04 Gerber Fmt 4.6, Leading zero omitted, Abs format (unit mm)*
G04 Created by KiCad (PCBNEW (5.1.10)-1) date 2021-12-02 15:39:48*
%MOMM*%
%LPD*%
G01*
G04 APERTURE LIST*
%TA.AperFunction,ComponentPad*%
%ADD10C,4.000000*%
%TD*%
%TA.AperFunction,ComponentPad*%
%ADD11C,1.600000*%
%TD*%
%TA.AperFunction,ComponentPad*%
%ADD12R,1.600000X1.600000*%
%TD*%
%TA.AperFunction,ComponentPad*%
%ADD13O,1.600000X1.600000*%
%TD*%
%TA.AperFunction,ComponentPad*%
%ADD14O,1.700000X1.700000*%
%TD*%
%TA.AperFunction,ComponentPad*%
%ADD15R,1.700000X1.700000*%
%TD*%
%TA.AperFunction,ComponentPad*%
%ADD16C,2.000000*%
%TD*%
%TA.AperFunction,ComponentPad*%
%ADD17C,1.800000*%
%TD*%
%TA.AperFunction,ViaPad*%
%ADD18C,0.800000*%
%TD*%
%TA.AperFunction,Conductor*%
%ADD19C,0.250000*%
%TD*%
%TA.AperFunction,Conductor*%
%ADD20C,0.200000*%
%TD*%
%TA.AperFunction,Conductor*%
%ADD21C,0.254000*%
%TD*%
%TA.AperFunction,Conductor*%
%ADD22C,0.100000*%
%TD*%
G04 APERTURE END LIST*
%TO.P,C4,2*%
%TO.N,VCC*%
%TA.AperFunction,SMDPad,CuDef*%
G36*
G01*
X169529999Y-88872500D02*
X170830001Y-88872500D01*
G75*
G02*
X171080000Y-89122499I0J-249999D01*
G01*
X171080000Y-89947501D01*
G75*
G02*
X170830001Y-90197500I-249999J0D01*
G01*
X169529999Y-90197500D01*
G75*
G02*
X169280000Y-89947501I0J249999D01*
G01*
X169280000Y-89122499D01*
G75*
G02*
X169529999Y-88872500I249999J0D01*
G01*
G37*
%TD.AperFunction*%
%TO.P,C4,1*%
%TO.N,GND*%
%TA.AperFunction,SMDPad,CuDef*%
G36*
G01*
X169529999Y-85747500D02*
X170830001Y-85747500D01*
G75*
G02*
X171080000Y-85997499I0J-249999D01*
G01*
X171080000Y-86822501D01*
G75*
G02*
X170830001Y-87072500I-249999J0D01*
G01*
X169529999Y-87072500D01*
G75*
G02*
X169280000Y-86822501I0J249999D01*
G01*
X169280000Y-85997499D01*
G75*
G02*
X169529999Y-85747500I249999J0D01*
G01*
G37*
%TD.AperFunction*%
%TD*%
%TO.P,C3,2*%
%TO.N,VCC*%
%TA.AperFunction,SMDPad,CuDef*%
G36*
G01*
X158485000Y-58404999D02*
X158485000Y-59705001D01*
G75*
G02*
X158235001Y-59955000I-249999J0D01*
G01*
X157409999Y-59955000D01*
G75*
G02*
X157160000Y-59705001I0J249999D01*
G01*
X157160000Y-58404999D01*
G75*
G02*
X157409999Y-58155000I249999J0D01*
G01*
X158235001Y-58155000D01*
G75*
G02*
X158485000Y-58404999I0J-249999D01*
G01*
G37*
%TD.AperFunction*%
%TO.P,C3,1*%
%TO.N,GND*%
%TA.AperFunction,SMDPad,CuDef*%
G36*
G01*
X161610000Y-58404999D02*
X161610000Y-59705001D01*
G75*
G02*
X161360001Y-59955000I-249999J0D01*
G01*
X160534999Y-59955000D01*
G75*
G02*
X160285000Y-59705001I0J249999D01*
G01*
X160285000Y-58404999D01*
G75*
G02*
X160534999Y-58155000I249999J0D01*
G01*
X161360001Y-58155000D01*
G75*
G02*
X161610000Y-58404999I0J-249999D01*
G01*
G37*
%TD.AperFunction*%
%TD*%
%TO.P,C2,2*%
%TO.N,GND*%
%TA.AperFunction,SMDPad,CuDef*%
G36*
G01*
X175910001Y-107685000D02*
X174609999Y-107685000D01*
G75*
G02*
X174360000Y-107435001I0J249999D01*
G01*
X174360000Y-106609999D01*
G75*
G02*
X174609999Y-106360000I249999J0D01*
G01*
X175910001Y-106360000D01*
G75*
G02*
X176160000Y-106609999I0J-249999D01*
G01*
X176160000Y-107435001D01*
G75*
G02*
X175910001Y-107685000I-249999J0D01*
G01*
G37*
%TD.AperFunction*%
%TO.P,C2,1*%
%TO.N,VCC*%
%TA.AperFunction,SMDPad,CuDef*%
G36*
G01*
X175910001Y-110810000D02*
X174609999Y-110810000D01*
G75*
G02*
X174360000Y-110560001I0J249999D01*
G01*
X174360000Y-109734999D01*
G75*
G02*
X174609999Y-109485000I249999J0D01*
G01*
X175910001Y-109485000D01*
G75*
G02*
X176160000Y-109734999I0J-249999D01*
G01*
X176160000Y-110560001D01*
G75*
G02*
X175910001Y-110810000I-249999J0D01*
G01*
G37*
%TD.AperFunction*%
%TD*%
%TO.P,C1,1*%
%TO.N,VCC*%
%TA.AperFunction,SMDPad,CuDef*%
G36*
G01*
X155895000Y-95234999D02*
X155895000Y-96535001D01*
G75*
G02*
X155645001Y-96785000I-249999J0D01*
G01*
X154819999Y-96785000D01*
G75*
G02*
X154570000Y-96535001I0J249999D01*
G01*
X154570000Y-95234999D01*
G75*
G02*
X154819999Y-94985000I249999J0D01*
G01*
X155645001Y-94985000D01*
G75*
G02*
X155895000Y-95234999I0J-249999D01*
G01*
G37*
%TD.AperFunction*%
%TO.P,C1,2*%
%TO.N,GND*%
%TA.AperFunction,SMDPad,CuDef*%
G36*
G01*
X152770000Y-95234999D02*
X152770000Y-96535001D01*
G75*
G02*
X152520001Y-96785000I-249999J0D01*
G01*
X151694999Y-96785000D01*
G75*
G02*
X151445000Y-96535001I0J249999D01*
G01*
X151445000Y-95234999D01*
G75*
G02*
X151694999Y-94985000I249999J0D01*
G01*
X152520001Y-94985000D01*
G75*
G02*
X152770000Y-95234999I0J-249999D01*
G01*
G37*
%TD.AperFunction*%
%TD*%
%TO.P,U2,14*%
%TO.N,VCC*%
%TA.AperFunction,SMDPad,CuDef*%
G36*
G01*
X169140000Y-92860000D02*
X169140000Y-92560000D01*
G75*
G02*
X169290000Y-92410000I150000J0D01*
G01*
X170940000Y-92410000D01*
G75*
G02*
X171090000Y-92560000I0J-150000D01*
G01*
X171090000Y-92860000D01*
G75*
G02*
X170940000Y-93010000I-150000J0D01*
G01*
X169290000Y-93010000D01*
G75*
G02*
X169140000Y-92860000I0J150000D01*
G01*
G37*
%TD.AperFunction*%
%TO.P,U2,13*%
%TA.AperFunction,SMDPad,CuDef*%
G36*
G01*
X169140000Y-94130000D02*
X169140000Y-93830000D01*
G75*
G02*
X169290000Y-93680000I150000J0D01*
G01*
X170940000Y-93680000D01*
G75*
G02*
X171090000Y-93830000I0J-150000D01*
G01*
X171090000Y-94130000D01*
G75*
G02*
X170940000Y-94280000I-150000J0D01*
G01*
X169290000Y-94280000D01*
G75*
G02*
X169140000Y-94130000I0J150000D01*
G01*
G37*
%TD.AperFunction*%
%TO.P,U2,12*%
%TO.N,AB-*%
%TA.AperFunction,SMDPad,CuDef*%
G36*
G01*
X169140000Y-95400000D02*
X169140000Y-95100000D01*
G75*
G02*
X169290000Y-94950000I150000J0D01*
G01*
X170940000Y-94950000D01*
G75*
G02*
X171090000Y-95100000I0J-150000D01*
G01*
X171090000Y-95400000D01*
G75*
G02*
X170940000Y-95550000I-150000J0D01*
G01*
X169290000Y-95550000D01*
G75*
G02*
X169140000Y-95400000I0J150000D01*
G01*
G37*
%TD.AperFunction*%
%TO.P,U2,11*%
%TO.N,AB+*%
%TA.AperFunction,SMDPad,CuDef*%
G36*
G01*
X169140000Y-96670000D02*
X169140000Y-96370000D01*
G75*
G02*
X169290000Y-96220000I150000J0D01*
G01*
X170940000Y-96220000D01*
G75*
G02*
X171090000Y-96370000I0J-150000D01*
G01*
X171090000Y-96670000D01*
G75*
G02*
X170940000Y-96820000I-150000J0D01*
G01*
X169290000Y-96820000D01*
G75*
G02*
X169140000Y-96670000I0J150000D01*
G01*
G37*
%TD.AperFunction*%
%TO.P,U2,10*%
%TO.N,YZ-*%
%TA.AperFunction,SMDPad,CuDef*%
G36*
G01*
X169140000Y-97940000D02*
X169140000Y-97640000D01*
G75*
G02*
X169290000Y-97490000I150000J0D01*
G01*
X170940000Y-97490000D01*
G75*
G02*
X171090000Y-97640000I0J-150000D01*
G01*
X171090000Y-97940000D01*
G75*
G02*
X170940000Y-98090000I-150000J0D01*
G01*
X169290000Y-98090000D01*
G75*
G02*
X169140000Y-97940000I0J150000D01*
G01*
G37*
%TD.AperFunction*%
%TO.P,U2,9*%
%TO.N,YZ+*%
%TA.AperFunction,SMDPad,CuDef*%
G36*
G01*
X169140000Y-99210000D02*
X169140000Y-98910000D01*
G75*
G02*
X169290000Y-98760000I150000J0D01*
G01*
X170940000Y-98760000D01*
G75*
G02*
X171090000Y-98910000I0J-150000D01*
G01*
X171090000Y-99210000D01*
G75*
G02*
X170940000Y-99360000I-150000J0D01*
G01*
X169290000Y-99360000D01*
G75*
G02*
X169140000Y-99210000I0J150000D01*
G01*
G37*
%TD.AperFunction*%
%TO.P,U2,8*%
%TO.N,Net-(U2-Pad8)*%
%TA.AperFunction,SMDPad,CuDef*%
G36*
G01*
X169140000Y-100480000D02*
X169140000Y-100180000D01*
G75*
G02*
X169290000Y-100030000I150000J0D01*
G01*
X170940000Y-100030000D01*
G75*
G02*
X171090000Y-100180000I0J-150000D01*
G01*
X171090000Y-100480000D01*
G75*
G02*
X170940000Y-100630000I-150000J0D01*
G01*
X169290000Y-100630000D01*
G75*
G02*
X169140000Y-100480000I0J150000D01*
G01*
G37*
%TD.AperFunction*%
%TO.P,U2,7*%
%TO.N,GND*%
%TA.AperFunction,SMDPad,CuDef*%
G36*
G01*
X164190000Y-100480000D02*
X164190000Y-100180000D01*
G75*
G02*
X164340000Y-100030000I150000J0D01*
G01*
X165990000Y-100030000D01*
G75*
G02*
X166140000Y-100180000I0J-150000D01*
G01*
X166140000Y-100480000D01*
G75*
G02*
X165990000Y-100630000I-150000J0D01*
G01*
X164340000Y-100630000D01*
G75*
G02*
X164190000Y-100480000I0J150000D01*
G01*
G37*
%TD.AperFunction*%
%TO.P,U2,6*%
%TA.AperFunction,SMDPad,CuDef*%
G36*
G01*
X164190000Y-99210000D02*
X164190000Y-98910000D01*
G75*
G02*
X164340000Y-98760000I150000J0D01*
G01*
X165990000Y-98760000D01*
G75*
G02*
X166140000Y-98910000I0J-150000D01*
G01*
X166140000Y-99210000D01*
G75*
G02*
X165990000Y-99360000I-150000J0D01*
G01*
X164340000Y-99360000D01*
G75*
G02*
X164190000Y-99210000I0J150000D01*
G01*
G37*
%TD.AperFunction*%
%TO.P,U2,5*%
%TO.N,RS485_TX*%
%TA.AperFunction,SMDPad,CuDef*%
G36*
G01*
X164190000Y-97940000D02*
X164190000Y-97640000D01*
G75*
G02*
X164340000Y-97490000I150000J0D01*
G01*
X165990000Y-97490000D01*
G75*
G02*
X166140000Y-97640000I0J-150000D01*
G01*
X166140000Y-97940000D01*
G75*
G02*
X165990000Y-98090000I-150000J0D01*
G01*
X164340000Y-98090000D01*
G75*
G02*
X164190000Y-97940000I0J150000D01*
G01*
G37*
%TD.AperFunction*%
%TO.P,U2,4*%
%TO.N,RS485_TX_ENABLE*%
%TA.AperFunction,SMDPad,CuDef*%
G36*
G01*
X164190000Y-96670000D02*
X164190000Y-96370000D01*
G75*
G02*
X164340000Y-96220000I150000J0D01*
G01*
X165990000Y-96220000D01*
G75*
G02*
X166140000Y-96370000I0J-150000D01*
G01*
X166140000Y-96670000D01*
G75*
G02*
X165990000Y-96820000I-150000J0D01*
G01*
X164340000Y-96820000D01*
G75*
G02*
X164190000Y-96670000I0J150000D01*
G01*
G37*
%TD.AperFunction*%
%TO.P,U2,3*%
%TO.N,RS485_RX_ENABLE*%
%TA.AperFunction,SMDPad,CuDef*%
G36*
G01*
X164190000Y-95400000D02*
X164190000Y-95100000D01*
G75*
G02*
X164340000Y-94950000I150000J0D01*
G01*
X165990000Y-94950000D01*
G75*
G02*
X166140000Y-95100000I0J-150000D01*
G01*
X166140000Y-95400000D01*
G75*
G02*
X165990000Y-95550000I-150000J0D01*
G01*
X164340000Y-95550000D01*
G75*
G02*
X164190000Y-95400000I0J150000D01*
G01*
G37*
%TD.AperFunction*%
%TO.P,U2,2*%
%TO.N,RS485_RX*%
%TA.AperFunction,SMDPad,CuDef*%
G36*
G01*
X164190000Y-94130000D02*
X164190000Y-93830000D01*
G75*
G02*
X164340000Y-93680000I150000J0D01*
G01*
X165990000Y-93680000D01*
G75*
G02*
X166140000Y-93830000I0J-150000D01*
G01*
X166140000Y-94130000D01*
G75*
G02*
X165990000Y-94280000I-150000J0D01*
G01*
X164340000Y-94280000D01*
G75*
G02*
X164190000Y-94130000I0J150000D01*
G01*
G37*
%TD.AperFunction*%
%TO.P,U2,1*%
%TO.N,Net-(U2-Pad1)*%
%TA.AperFunction,SMDPad,CuDef*%
G36*
G01*
X164190000Y-92860000D02*
X164190000Y-92560000D01*
G75*
G02*
X164340000Y-92410000I150000J0D01*
G01*
X165990000Y-92410000D01*
G75*
G02*
X166140000Y-92560000I0J-150000D01*
G01*
X166140000Y-92860000D01*
G75*
G02*
X165990000Y-93010000I-150000J0D01*
G01*
X164340000Y-93010000D01*
G75*
G02*
X164190000Y-92860000I0J150000D01*
G01*
G37*
%TD.AperFunction*%
%TD*%
D10*
%TO.P,J1,0*%
%TO.N,N/C*%
X179330000Y-115420000D03*
X154330000Y-115420000D03*
D11*
%TO.P,J1,9*%
%TO.N,GND*%
X170985000Y-114000000D03*
%TO.P,J1,8*%
%TO.N,AB-*%
X168215000Y-114000000D03*
%TO.P,J1,7*%
%TO.N,YZ+*%
X165445000Y-114000000D03*
%TO.P,J1,6*%
%TO.N,GND*%
X162675000Y-114000000D03*
%TO.P,J1,5*%
%TO.N,VCC*%
X172370000Y-116840000D03*
%TO.P,J1,4*%
%TO.N,GND*%
X169600000Y-116840000D03*
%TO.P,J1,3*%
%TO.N,AB+*%
X166830000Y-116840000D03*
%TO.P,J1,2*%
%TO.N,YZ-*%
X164060000Y-116840000D03*
D12*
%TO.P,J1,1*%
%TO.N,GND*%
X161290000Y-116840000D03*
%TD*%
D13*
%TO.P,A1,16*%
%TO.N,SCK*%
X175260000Y-68580000D03*
%TO.P,A1,15*%
%TO.N,Net-(A1-Pad15)*%
X160020000Y-68580000D03*
%TO.P,A1,30*%
%TO.N,VCC*%
X175260000Y-104140000D03*
%TO.P,A1,14*%
%TO.N,MOSI*%
X160020000Y-71120000D03*
%TO.P,A1,29*%
%TO.N,GND*%
X175260000Y-101600000D03*
%TO.P,A1,13*%
%TO.N,DC*%
X160020000Y-73660000D03*
%TO.P,A1,28*%
%TO.N,Net-(A1-Pad28)*%
X175260000Y-99060000D03*
%TO.P,A1,12*%
%TO.N,CS*%
X160020000Y-76200000D03*
%TO.P,A1,27*%
%TO.N,Net-(A1-Pad27)*%
X175260000Y-96520000D03*
%TO.P,A1,11*%
%TO.N,RES*%
X160020000Y-78740000D03*
%TO.P,A1,26*%
%TO.N,Net-(A1-Pad26)*%
X175260000Y-93980000D03*
%TO.P,A1,10*%
%TO.N,IR_OUT*%
X160020000Y-81280000D03*
%TO.P,A1,25*%
%TO.N,Net-(A1-Pad25)*%
X175260000Y-91440000D03*
%TO.P,A1,9*%
%TO.N,Net-(A1-Pad9)*%
X160020000Y-83820000D03*
%TO.P,A1,24*%
%TO.N,Net-(A1-Pad24)*%
X175260000Y-88900000D03*
%TO.P,A1,8*%
%TO.N,Net-(A1-Pad8)*%
X160020000Y-86360000D03*
%TO.P,A1,23*%
%TO.N,Net-(A1-Pad23)*%
X175260000Y-86360000D03*
%TO.P,A1,7*%
%TO.N,LEARN_BUTTON_IN*%
X160020000Y-88900000D03*
%TO.P,A1,22*%
%TO.N,Net-(A1-Pad22)*%
X175260000Y-83820000D03*
%TO.P,A1,6*%
%TO.N,RS485_TX_ENABLE*%
X160020000Y-91440000D03*
%TO.P,A1,21*%
%TO.N,Net-(A1-Pad21)*%
X175260000Y-81280000D03*
%TO.P,A1,5*%
%TO.N,RS485_RX_ENABLE*%
X160020000Y-93980000D03*
%TO.P,A1,20*%
%TO.N,Net-(A1-Pad20)*%
X175260000Y-78740000D03*
%TO.P,A1,4*%
%TO.N,GND*%
X160020000Y-96520000D03*
%TO.P,A1,19*%
%TO.N,Net-(A1-Pad19)*%
X175260000Y-76200000D03*
%TO.P,A1,3*%
%TO.N,Net-(A1-Pad3)*%
X160020000Y-99060000D03*
%TO.P,A1,18*%
%TO.N,Net-(A1-Pad18)*%
X175260000Y-73660000D03*
%TO.P,A1,2*%
%TO.N,RS485_RX*%
X160020000Y-101600000D03*
%TO.P,A1,17*%
%TO.N,Net-(A1-Pad17)*%
X175260000Y-71120000D03*
D12*
%TO.P,A1,1*%
%TO.N,RS485_TX*%
X160020000Y-104140000D03*
%TD*%
%TO.P,R1,2*%
%TO.N,YZ-*%
%TA.AperFunction,SMDPad,CuDef*%
G36*
G01*
X166995001Y-103875000D02*
X165744999Y-103875000D01*
G75*
G02*
X165495000Y-103625001I0J249999D01*
G01*
X165495000Y-102824999D01*
G75*
G02*
X165744999Y-102575000I249999J0D01*
G01*
X166995001Y-102575000D01*
G75*
G02*
X167245000Y-102824999I0J-249999D01*
G01*
X167245000Y-103625001D01*
G75*
G02*
X166995001Y-103875000I-249999J0D01*
G01*
G37*
%TD.AperFunction*%
%TO.P,R1,1*%
%TO.N,YZ+*%
%TA.AperFunction,SMDPad,CuDef*%
G36*
G01*
X166995001Y-106975000D02*
X165744999Y-106975000D01*
G75*
G02*
X165495000Y-106725001I0J249999D01*
G01*
X165495000Y-105924999D01*
G75*
G02*
X165744999Y-105675000I249999J0D01*
G01*
X166995001Y-105675000D01*
G75*
G02*
X167245000Y-105924999I0J-249999D01*
G01*
X167245000Y-106725001D01*
G75*
G02*
X166995001Y-106975000I-249999J0D01*
G01*
G37*
%TD.AperFunction*%
%TD*%
D14*
%TO.P,D5,7*%
%TO.N,GND*%
X153670000Y-91440000D03*
%TO.P,D5,6*%
%TO.N,VCC*%
X153670000Y-88900000D03*
%TO.P,D5,5*%
%TO.N,SCK*%
X153670000Y-86360000D03*
%TO.P,D5,4*%
%TO.N,MOSI*%
X153670000Y-83820000D03*
%TO.P,D5,3*%
%TO.N,RES*%
X153670000Y-81280000D03*
%TO.P,D5,2*%
%TO.N,DC*%
X153670000Y-78740000D03*
D15*
%TO.P,D5,1*%
%TO.N,CS*%
X153670000Y-76200000D03*
%TD*%
D16*
%TO.P,SW1,1*%
%TO.N,GND*%
X175260000Y-58570000D03*
%TO.P,SW1,2*%
%TO.N,LEARN_BUTTON_IN*%
X170760000Y-58570000D03*
%TO.P,SW1,1*%
%TO.N,GND*%
X175260000Y-52070000D03*
%TO.P,SW1,2*%
%TO.N,LEARN_BUTTON_IN*%
X170760000Y-52070000D03*
%TD*%
D17*
%TO.P,U1,3*%
%TO.N,VCC*%
X160020000Y-55880000D03*
%TO.P,U1,2*%
%TO.N,GND*%
X162560000Y-55880000D03*
%TO.P,U1,1*%
%TO.N,IR_OUT*%
%TA.AperFunction,ComponentPad*%
G36*
G01*
X166000000Y-55228400D02*
X166000000Y-56531600D01*
G75*
G02*
X165751600Y-56780000I-248400J0D01*
G01*
X164448400Y-56780000D01*
G75*
G02*
X164200000Y-56531600I0J248400D01*
G01*
X164200000Y-55228400D01*
G75*
G02*
X164448400Y-54980000I248400J0D01*
G01*
X165751600Y-54980000D01*
G75*
G02*
X166000000Y-55228400I0J-248400D01*
G01*
G37*
%TD.AperFunction*%
%TD*%
D18*
%TO.N,VCC*%
X156845000Y-95885000D03*
X175260000Y-111760000D03*
X170180000Y-91440000D03*
X156845000Y-57150000D03*
%TD*%
D19*
%TO.N,VCC*%
X170180000Y-92645000D02*
X170115000Y-92710000D01*
X170115000Y-92710000D02*
X170115000Y-93980000D01*
X170180000Y-90170000D02*
X170180000Y-92645000D01*
X156845000Y-95885000D02*
X155232500Y-95885000D01*
X175260000Y-111760000D02*
X175260000Y-110147500D01*
X156845000Y-58077500D02*
X157822500Y-59055000D01*
X156845000Y-57150000D02*
X156845000Y-58077500D01*
%TO.N,GND*%
X157077500Y-60960000D02*
X158750000Y-60960000D01*
%TO.N,IR_OUT*%
X158894999Y-68039999D02*
X158894999Y-80154999D01*
X162560000Y-64374998D02*
X158894999Y-68039999D01*
X162560000Y-59320000D02*
X162560000Y-64374998D01*
X165100000Y-56780000D02*
X162560000Y-59320000D01*
X158894999Y-80154999D02*
X160020000Y-81280000D01*
X165100000Y-55880000D02*
X165100000Y-56780000D01*
%TO.N,RS485_TX_ENABLE*%
X166465010Y-94903242D02*
X166186758Y-94624990D01*
X166465010Y-96194990D02*
X166465010Y-94903242D01*
X166140000Y-96520000D02*
X166465010Y-96194990D01*
X165165000Y-96520000D02*
X166140000Y-96520000D01*
X160978232Y-91440000D02*
X160020000Y-91440000D01*
X164163222Y-94624990D02*
X160978232Y-91440000D01*
X166186758Y-94624990D02*
X164163222Y-94624990D01*
%TO.N,RS485_TX*%
X161145001Y-103014999D02*
X160020000Y-104140000D01*
X161145001Y-100834999D02*
X161145001Y-103014999D01*
X164190000Y-97790000D02*
X161145001Y-100834999D01*
X165165000Y-97790000D02*
X164190000Y-97790000D01*
%TO.N,LEARN_BUTTON_IN*%
X170760000Y-52070000D02*
X170760000Y-58570000D01*
X161145001Y-87774999D02*
X160020000Y-88900000D01*
X161145001Y-69994999D02*
X161145001Y-87774999D01*
X161145001Y-69454999D02*
X161145001Y-69994999D01*
X170760000Y-58570000D02*
X169691238Y-58570000D01*
X169345787Y-58570000D02*
X161145001Y-66770786D01*
X161145001Y-66770786D02*
X161145001Y-68435001D01*
X170760000Y-58570000D02*
X169345787Y-58570000D01*
X161145001Y-68435001D02*
X161145001Y-69994999D01*
X161145001Y-67116237D02*
X161145001Y-68435001D01*
%TO.N,RS485_RX_ENABLE*%
X161290000Y-95250000D02*
X160020000Y-93980000D01*
X165165000Y-95250000D02*
X161290000Y-95250000D01*
%TO.N,RS485_RX*%
X164163222Y-97145010D02*
X160020000Y-101288232D01*
X166186758Y-97145010D02*
X164163222Y-97145010D01*
X166915020Y-96416748D02*
X166186758Y-97145010D01*
X160020000Y-101288232D02*
X160020000Y-101600000D01*
X166915020Y-94716842D02*
X166915020Y-96416748D01*
X166178178Y-93980000D02*
X166915020Y-94716842D01*
X165165000Y-93980000D02*
X166178178Y-93980000D01*
D20*
%TO.N,AB+*%
X170115000Y-96520000D02*
X170115000Y-96739999D01*
X170115000Y-96739999D02*
X171312794Y-96739999D01*
X171312794Y-96739999D02*
X172690002Y-98117207D01*
X169884999Y-113958003D02*
X168743001Y-115100001D01*
X172690002Y-98117207D02*
X172690002Y-110666996D01*
X172690002Y-110666996D02*
X169884999Y-113471999D01*
X169884999Y-113471999D02*
X169884999Y-113958003D01*
X168743001Y-115100001D02*
X168569999Y-115100001D01*
X168569999Y-115100001D02*
X166830000Y-116840000D01*
%TO.N,AB-*%
X169435008Y-113598595D02*
X169033603Y-114000000D01*
X172240011Y-110480604D02*
X169435008Y-113285607D01*
X171126402Y-97189990D02*
X172240011Y-98303599D01*
X169435008Y-113285607D02*
X169435008Y-113598595D01*
X168839990Y-96856402D02*
X169173578Y-97189990D01*
X169173578Y-97189990D02*
X171126402Y-97189990D01*
X168839990Y-96183598D02*
X168839990Y-96856402D01*
X169033603Y-114000000D02*
X168215000Y-114000000D01*
X172240011Y-98303599D02*
X172240011Y-110480604D01*
X170115000Y-95250000D02*
X169665000Y-95700000D01*
X169323588Y-95700000D02*
X168839990Y-96183598D01*
X169665000Y-95700000D02*
X169323588Y-95700000D01*
%TO.N,YZ+*%
X170115000Y-99060000D02*
X170115000Y-99729990D01*
X170115000Y-99729990D02*
X169103598Y-99729990D01*
X169103598Y-99729990D02*
X168839990Y-99993598D01*
X168839990Y-100666402D02*
X170115000Y-101941412D01*
X170115000Y-102580000D02*
X169151802Y-103543198D01*
X169151802Y-103543198D02*
X166370000Y-106325000D01*
X170115000Y-101941412D02*
X170115000Y-102580000D01*
X168839990Y-99993598D02*
X168839990Y-100666402D01*
X166370000Y-106325000D02*
X166370000Y-113893603D01*
X166263603Y-114000000D02*
X165445000Y-114000000D01*
X166370000Y-113893603D02*
X166263603Y-114000000D01*
%TO.N,YZ-*%
X169665000Y-102393603D02*
X168833603Y-103225000D01*
X168833603Y-103225000D02*
X166370000Y-103225000D01*
X169665000Y-102127795D02*
X169665000Y-102393603D01*
X170115000Y-97790000D02*
X169665000Y-98240000D01*
X169323588Y-98240000D02*
X168389999Y-99173589D01*
X169665000Y-98240000D02*
X169323588Y-98240000D01*
X168389999Y-100852794D02*
X169665000Y-102127795D01*
X168389999Y-99173589D02*
X168389999Y-100852794D01*
X165194990Y-106952824D02*
X165920009Y-107677843D01*
X166370000Y-103225000D02*
X166820000Y-103675000D01*
X164344999Y-116133379D02*
X164555810Y-116344190D01*
X166820000Y-103675000D02*
X166820000Y-104072166D01*
X164555810Y-116344190D02*
X164060000Y-116840000D01*
X166820000Y-104072166D02*
X165194990Y-105697176D01*
X165194990Y-105697176D02*
X165194990Y-106952824D01*
X165920009Y-107677843D02*
X165920009Y-112899999D01*
X165920009Y-112899999D02*
X164916999Y-112899999D01*
X164916999Y-112899999D02*
X164344999Y-113471999D01*
X164344999Y-113471999D02*
X164344999Y-116133379D01*
%TD*%
D21*
%TO.N,GND*%
X152366353Y-50215000D02*
X181643647Y-50215000D01*
X181737956Y-50205711D01*
X181974545Y-50228909D01*
X182325208Y-50334780D01*
X182648625Y-50506744D01*
X182932484Y-50738254D01*
X183165965Y-51020486D01*
X183340183Y-51342695D01*
X183448502Y-51692614D01*
X183474496Y-51939937D01*
X183465000Y-52036354D01*
X183465001Y-120683647D01*
X183474289Y-120777951D01*
X183451091Y-121014545D01*
X183345220Y-121365206D01*
X183173257Y-121688623D01*
X182941748Y-121972482D01*
X182659514Y-122205965D01*
X182337304Y-122380184D01*
X181987385Y-122488502D01*
X181740064Y-122514496D01*
X181643647Y-122505000D01*
X152366353Y-122505000D01*
X152272044Y-122514289D01*
X152035455Y-122491091D01*
X151684794Y-122385220D01*
X151361377Y-122213257D01*
X151077518Y-121981748D01*
X150844035Y-121699514D01*
X150669816Y-121377304D01*
X150561498Y-121027385D01*
X150535504Y-120780064D01*
X150545000Y-120683647D01*
X150545000Y-115160475D01*
X151695000Y-115160475D01*
X151695000Y-115679525D01*
X151796261Y-116188601D01*
X151994893Y-116668141D01*
X152283262Y-117099715D01*
X152650285Y-117466738D01*
X153081859Y-117755107D01*
X153561399Y-117953739D01*
X154070475Y-118055000D01*
X154589525Y-118055000D01*
X155098601Y-117953739D01*
X155578141Y-117755107D01*
X155750410Y-117640000D01*
X159851928Y-117640000D01*
X159864188Y-117764482D01*
X159900498Y-117884180D01*
X159959463Y-117994494D01*
X160038815Y-118091185D01*
X160135506Y-118170537D01*
X160245820Y-118229502D01*
X160365518Y-118265812D01*
X160490000Y-118278072D01*
X161004250Y-118275000D01*
X161163000Y-118116250D01*
X161163000Y-116967000D01*
X160013750Y-116967000D01*
X159855000Y-117125750D01*
X159851928Y-117640000D01*
X155750410Y-117640000D01*
X156009715Y-117466738D01*
X156376738Y-117099715D01*
X156665107Y-116668141D01*
X156863739Y-116188601D01*
X156893297Y-116040000D01*
X159851928Y-116040000D01*
X159855000Y-116554250D01*
X160013750Y-116713000D01*
X161163000Y-116713000D01*
X161163000Y-115563750D01*
X161417000Y-115563750D01*
X161417000Y-116713000D01*
X161437000Y-116713000D01*
X161437000Y-116967000D01*
X161417000Y-116967000D01*
X161417000Y-118116250D01*
X161575750Y-118275000D01*
X162090000Y-118278072D01*
X162214482Y-118265812D01*
X162334180Y-118229502D01*
X162444494Y-118170537D01*
X162541185Y-118091185D01*
X162620537Y-117994494D01*
X162679502Y-117884180D01*
X162715812Y-117764482D01*
X162728072Y-117640000D01*
X162726461Y-117370387D01*
X162788320Y-117519727D01*
X162945363Y-117754759D01*
X163145241Y-117954637D01*
X163380273Y-118111680D01*
X163641426Y-118219853D01*
X163918665Y-118275000D01*
X164201335Y-118275000D01*
X164478574Y-118219853D01*
X164739727Y-118111680D01*
X164974759Y-117954637D01*
X165174637Y-117754759D01*
X165331680Y-117519727D01*
X165439853Y-117258574D01*
X165445000Y-117232699D01*
X165450147Y-117258574D01*
X165558320Y-117519727D01*
X165715363Y-117754759D01*
X165915241Y-117954637D01*
X166150273Y-118111680D01*
X166411426Y-118219853D01*
X166688665Y-118275000D01*
X166971335Y-118275000D01*
X167248574Y-118219853D01*
X167509727Y-118111680D01*
X167744759Y-117954637D01*
X167866694Y-117832702D01*
X168786903Y-117832702D01*
X168858486Y-118076671D01*
X169113996Y-118197571D01*
X169388184Y-118266300D01*
X169670512Y-118280217D01*
X169950130Y-118238787D01*
X170216292Y-118143603D01*
X170341514Y-118076671D01*
X170413097Y-117832702D01*
X169600000Y-117019605D01*
X168786903Y-117832702D01*
X167866694Y-117832702D01*
X167944637Y-117754759D01*
X168101680Y-117519727D01*
X168209853Y-117258574D01*
X168215513Y-117230118D01*
X168296397Y-117456292D01*
X168363329Y-117581514D01*
X168607298Y-117653097D01*
X169420395Y-116840000D01*
X169779605Y-116840000D01*
X170592702Y-117653097D01*
X170836671Y-117581514D01*
X170957571Y-117326004D01*
X170983212Y-117223711D01*
X170990147Y-117258574D01*
X171098320Y-117519727D01*
X171255363Y-117754759D01*
X171455241Y-117954637D01*
X171690273Y-118111680D01*
X171951426Y-118219853D01*
X172228665Y-118275000D01*
X172511335Y-118275000D01*
X172788574Y-118219853D01*
X173049727Y-118111680D01*
X173284759Y-117954637D01*
X173484637Y-117754759D01*
X173641680Y-117519727D01*
X173749853Y-117258574D01*
X173805000Y-116981335D01*
X173805000Y-116698665D01*
X173749853Y-116421426D01*
X173641680Y-116160273D01*
X173484637Y-115925241D01*
X173284759Y-115725363D01*
X173049727Y-115568320D01*
X172788574Y-115460147D01*
X172511335Y-115405000D01*
X172228665Y-115405000D01*
X171951426Y-115460147D01*
X171690273Y-115568320D01*
X171455241Y-115725363D01*
X171255363Y-115925241D01*
X171098320Y-116160273D01*
X170990147Y-116421426D01*
X170984487Y-116449882D01*
X170903603Y-116223708D01*
X170836671Y-116098486D01*
X170592702Y-116026903D01*
X169779605Y-116840000D01*
X169420395Y-116840000D01*
X169406253Y-116825858D01*
X169585858Y-116646253D01*
X169600000Y-116660395D01*
X170413097Y-115847298D01*
X170341514Y-115603329D01*
X170086004Y-115482429D01*
X169811816Y-115413700D01*
X169529488Y-115399783D01*
X169474521Y-115407927D01*
X169889746Y-114992702D01*
X170171903Y-114992702D01*
X170243486Y-115236671D01*
X170498996Y-115357571D01*
X170773184Y-115426300D01*
X171055512Y-115440217D01*
X171335130Y-115398787D01*
X171601292Y-115303603D01*
X171726514Y-115236671D01*
X171748870Y-115160475D01*
X176695000Y-115160475D01*
X176695000Y-115679525D01*
X176796261Y-116188601D01*
X176994893Y-116668141D01*
X177283262Y-117099715D01*
X177650285Y-117466738D01*
X178081859Y-117755107D01*
X178561399Y-117953739D01*
X179070475Y-118055000D01*
X179589525Y-118055000D01*
X180098601Y-117953739D01*
X180578141Y-117755107D01*
X181009715Y-117466738D01*
X181376738Y-117099715D01*
X181665107Y-116668141D01*
X181863739Y-116188601D01*
X181965000Y-115679525D01*
X181965000Y-115160475D01*
X181863739Y-114651399D01*
X181665107Y-114171859D01*
X181376738Y-113740285D01*
X181009715Y-113373262D01*
X180578141Y-113084893D01*
X180098601Y-112886261D01*
X179589525Y-112785000D01*
X179070475Y-112785000D01*
X178561399Y-112886261D01*
X178081859Y-113084893D01*
X177650285Y-113373262D01*
X177283262Y-113740285D01*
X176994893Y-114171859D01*
X176796261Y-114651399D01*
X176695000Y-115160475D01*
X171748870Y-115160475D01*
X171798097Y-114992702D01*
X170985000Y-114179605D01*
X170171903Y-114992702D01*
X169889746Y-114992702D01*
X170379192Y-114503257D01*
X170407237Y-114480241D01*
X170499086Y-114368323D01*
X170567336Y-114240636D01*
X170568458Y-114236937D01*
X170805395Y-114000000D01*
X171164605Y-114000000D01*
X171977702Y-114813097D01*
X172221671Y-114741514D01*
X172342571Y-114486004D01*
X172411300Y-114211816D01*
X172425217Y-113929488D01*
X172383787Y-113649870D01*
X172288603Y-113383708D01*
X172221671Y-113258486D01*
X171977702Y-113186903D01*
X171164605Y-114000000D01*
X170805395Y-114000000D01*
X170791253Y-113985858D01*
X170970858Y-113806253D01*
X170985000Y-113820395D01*
X171798097Y-113007298D01*
X171726514Y-112763329D01*
X171663114Y-112733330D01*
X173184195Y-111212250D01*
X173212240Y-111189234D01*
X173304089Y-111077316D01*
X173372339Y-110949629D01*
X173414367Y-110811081D01*
X173425002Y-110703101D01*
X173425002Y-110703092D01*
X173428557Y-110666997D01*
X173425002Y-110630902D01*
X173425002Y-109734999D01*
X173721928Y-109734999D01*
X173721928Y-110560001D01*
X173738992Y-110733255D01*
X173789528Y-110899851D01*
X173871595Y-111053387D01*
X173982038Y-111187962D01*
X174116613Y-111298405D01*
X174270149Y-111380472D01*
X174293940Y-111387689D01*
X174264774Y-111458102D01*
X174225000Y-111658061D01*
X174225000Y-111861939D01*
X174264774Y-112061898D01*
X174342795Y-112250256D01*
X174456063Y-112419774D01*
X174600226Y-112563937D01*
X174769744Y-112677205D01*
X174958102Y-112755226D01*
X175158061Y-112795000D01*
X175361939Y-112795000D01*
X175561898Y-112755226D01*
X175750256Y-112677205D01*
X175919774Y-112563937D01*
X176063937Y-112419774D01*
X176177205Y-112250256D01*
X176255226Y-112061898D01*
X176295000Y-111861939D01*
X176295000Y-111658061D01*
X176255226Y-111458102D01*
X176226060Y-111387689D01*
X176249851Y-111380472D01*
X176403387Y-111298405D01*
X176537962Y-111187962D01*
X176648405Y-111053387D01*
X176730472Y-110899851D01*
X176781008Y-110733255D01*
X176798072Y-110560001D01*
X176798072Y-109734999D01*
X176781008Y-109561745D01*
X176730472Y-109395149D01*
X176648405Y-109241613D01*
X176537962Y-109107038D01*
X176403387Y-108996595D01*
X176249851Y-108914528D01*
X176083255Y-108863992D01*
X175910001Y-108846928D01*
X174609999Y-108846928D01*
X174436745Y-108863992D01*
X174270149Y-108914528D01*
X174116613Y-108996595D01*
X173982038Y-109107038D01*
X173871595Y-109241613D01*
X173789528Y-109395149D01*
X173738992Y-109561745D01*
X173721928Y-109734999D01*
X173425002Y-109734999D01*
X173425002Y-107685000D01*
X173721928Y-107685000D01*
X173734188Y-107809482D01*
X173770498Y-107929180D01*
X173829463Y-108039494D01*
X173908815Y-108136185D01*
X174005506Y-108215537D01*
X174115820Y-108274502D01*
X174235518Y-108310812D01*
X174360000Y-108323072D01*
X174974250Y-108320000D01*
X175133000Y-108161250D01*
X175133000Y-107149500D01*
X175387000Y-107149500D01*
X175387000Y-108161250D01*
X175545750Y-108320000D01*
X176160000Y-108323072D01*
X176284482Y-108310812D01*
X176404180Y-108274502D01*
X176514494Y-108215537D01*
X176611185Y-108136185D01*
X176690537Y-108039494D01*
X176749502Y-107929180D01*
X176785812Y-107809482D01*
X176798072Y-107685000D01*
X176795000Y-107308250D01*
X176636250Y-107149500D01*
X175387000Y-107149500D01*
X175133000Y-107149500D01*
X173883750Y-107149500D01*
X173725000Y-107308250D01*
X173721928Y-107685000D01*
X173425002Y-107685000D01*
X173425002Y-106360000D01*
X173721928Y-106360000D01*
X173725000Y-106736750D01*
X173883750Y-106895500D01*
X175133000Y-106895500D01*
X175133000Y-105883750D01*
X175387000Y-105883750D01*
X175387000Y-106895500D01*
X176636250Y-106895500D01*
X176795000Y-106736750D01*
X176798072Y-106360000D01*
X176785812Y-106235518D01*
X176749502Y-106115820D01*
X176690537Y-106005506D01*
X176611185Y-105908815D01*
X176514494Y-105829463D01*
X176404180Y-105770498D01*
X176284482Y-105734188D01*
X176160000Y-105721928D01*
X175545750Y-105725000D01*
X175387000Y-105883750D01*
X175133000Y-105883750D01*
X174974250Y-105725000D01*
X174360000Y-105721928D01*
X174235518Y-105734188D01*
X174115820Y-105770498D01*
X174005506Y-105829463D01*
X173908815Y-105908815D01*
X173829463Y-106005506D01*
X173770498Y-106115820D01*
X173734188Y-106235518D01*
X173721928Y-106360000D01*
X173425002Y-106360000D01*
X173425002Y-103998665D01*
X173825000Y-103998665D01*
X173825000Y-104281335D01*
X173880147Y-104558574D01*
X173988320Y-104819727D01*
X174145363Y-105054759D01*
X174345241Y-105254637D01*
X174580273Y-105411680D01*
X174841426Y-105519853D01*
X175118665Y-105575000D01*
X175401335Y-105575000D01*
X175678574Y-105519853D01*
X175939727Y-105411680D01*
X176174759Y-105254637D01*
X176374637Y-105054759D01*
X176531680Y-104819727D01*
X176639853Y-104558574D01*
X176695000Y-104281335D01*
X176695000Y-103998665D01*
X176639853Y-103721426D01*
X176531680Y-103460273D01*
X176374637Y-103225241D01*
X176174759Y-103025363D01*
X175939727Y-102868320D01*
X175929135Y-102863933D01*
X176115131Y-102752385D01*
X176323519Y-102563414D01*
X176491037Y-102337420D01*
X176611246Y-102083087D01*
X176651904Y-101949039D01*
X176529915Y-101727000D01*
X175387000Y-101727000D01*
X175387000Y-101747000D01*
X175133000Y-101747000D01*
X175133000Y-101727000D01*
X173990085Y-101727000D01*
X173868096Y-101949039D01*
X173908754Y-102083087D01*
X174028963Y-102337420D01*
X174196481Y-102563414D01*
X174404869Y-102752385D01*
X174590865Y-102863933D01*
X174580273Y-102868320D01*
X174345241Y-103025363D01*
X174145363Y-103225241D01*
X173988320Y-103460273D01*
X173880147Y-103721426D01*
X173825000Y-103998665D01*
X173425002Y-103998665D01*
X173425002Y-98153301D01*
X173428557Y-98117206D01*
X173425002Y-98081111D01*
X173425002Y-98081102D01*
X173414367Y-97973122D01*
X173372339Y-97834574D01*
X173304089Y-97706887D01*
X173250028Y-97641014D01*
X173235255Y-97623013D01*
X173235252Y-97623010D01*
X173212239Y-97594969D01*
X173184199Y-97571957D01*
X171858052Y-96245811D01*
X171835032Y-96217761D01*
X171723114Y-96125912D01*
X171678250Y-96101932D01*
X171668084Y-96068418D01*
X171595258Y-95932171D01*
X171556546Y-95885000D01*
X171595258Y-95837829D01*
X171668084Y-95701582D01*
X171712929Y-95553745D01*
X171728072Y-95400000D01*
X171728072Y-95100000D01*
X171712929Y-94946255D01*
X171668084Y-94798418D01*
X171595258Y-94662171D01*
X171556546Y-94615000D01*
X171595258Y-94567829D01*
X171668084Y-94431582D01*
X171712929Y-94283745D01*
X171728072Y-94130000D01*
X171728072Y-93830000D01*
X171712929Y-93676255D01*
X171668084Y-93528418D01*
X171595258Y-93392171D01*
X171556546Y-93345000D01*
X171595258Y-93297829D01*
X171668084Y-93161582D01*
X171712929Y-93013745D01*
X171728072Y-92860000D01*
X171728072Y-92560000D01*
X171712929Y-92406255D01*
X171668084Y-92258418D01*
X171595258Y-92122171D01*
X171497251Y-92002749D01*
X171377829Y-91904742D01*
X171241582Y-91831916D01*
X171149508Y-91803986D01*
X171175226Y-91741898D01*
X171215000Y-91541939D01*
X171215000Y-91338061D01*
X171175226Y-91138102D01*
X171097205Y-90949744D01*
X171008461Y-90816929D01*
X171169851Y-90767972D01*
X171323387Y-90685905D01*
X171457962Y-90575462D01*
X171568405Y-90440887D01*
X171650472Y-90287351D01*
X171701008Y-90120755D01*
X171718072Y-89947501D01*
X171718072Y-89122499D01*
X171701008Y-88949245D01*
X171650472Y-88782649D01*
X171568405Y-88629113D01*
X171457962Y-88494538D01*
X171323387Y-88384095D01*
X171169851Y-88302028D01*
X171003255Y-88251492D01*
X170830001Y-88234428D01*
X169529999Y-88234428D01*
X169356745Y-88251492D01*
X169190149Y-88302028D01*
X169036613Y-88384095D01*
X168902038Y-88494538D01*
X168791595Y-88629113D01*
X168709528Y-88782649D01*
X168658992Y-88949245D01*
X168641928Y-89122499D01*
X168641928Y-89947501D01*
X168658992Y-90120755D01*
X168709528Y-90287351D01*
X168791595Y-90440887D01*
X168902038Y-90575462D01*
X169036613Y-90685905D01*
X169190149Y-90767972D01*
X169351539Y-90816929D01*
X169262795Y-90949744D01*
X169184774Y-91138102D01*
X169145000Y-91338061D01*
X169145000Y-91541939D01*
X169184774Y-91741898D01*
X169200850Y-91780709D01*
X169136255Y-91787071D01*
X168988418Y-91831916D01*
X168852171Y-91904742D01*
X168732749Y-92002749D01*
X168634742Y-92122171D01*
X168561916Y-92258418D01*
X168517071Y-92406255D01*
X168501928Y-92560000D01*
X168501928Y-92860000D01*
X168517071Y-93013745D01*
X168561916Y-93161582D01*
X168634742Y-93297829D01*
X168673454Y-93345000D01*
X168634742Y-93392171D01*
X168561916Y-93528418D01*
X168517071Y-93676255D01*
X168501928Y-93830000D01*
X168501928Y-94130000D01*
X168517071Y-94283745D01*
X168561916Y-94431582D01*
X168634742Y-94567829D01*
X168673454Y-94615000D01*
X168634742Y-94662171D01*
X168561916Y-94798418D01*
X168517071Y-94946255D01*
X168501928Y-95100000D01*
X168501928Y-95400000D01*
X168509300Y-95474842D01*
X168345798Y-95638344D01*
X168317752Y-95661361D01*
X168225903Y-95773279D01*
X168157653Y-95900966D01*
X168140579Y-95957251D01*
X168115625Y-96039513D01*
X168101434Y-96183598D01*
X168104990Y-96219703D01*
X168104990Y-96820297D01*
X168101434Y-96856402D01*
X168104990Y-96892507D01*
X168115625Y-97000487D01*
X168157654Y-97139035D01*
X168225904Y-97266722D01*
X168317753Y-97378640D01*
X168345798Y-97401656D01*
X168509300Y-97565158D01*
X168501928Y-97640000D01*
X168501928Y-97940000D01*
X168509299Y-98014842D01*
X167895807Y-98628335D01*
X167867761Y-98651352D01*
X167775912Y-98763270D01*
X167707662Y-98890957D01*
X167685394Y-98964365D01*
X167665634Y-99029504D01*
X167651443Y-99173589D01*
X167654999Y-99209694D01*
X167655000Y-100816679D01*
X167651443Y-100852794D01*
X167665634Y-100996879D01*
X167689855Y-101076722D01*
X167707663Y-101135427D01*
X167775913Y-101263114D01*
X167867762Y-101375032D01*
X167895807Y-101398048D01*
X168758457Y-102260699D01*
X168529157Y-102490000D01*
X167816944Y-102490000D01*
X167815472Y-102485149D01*
X167733405Y-102331613D01*
X167622962Y-102197038D01*
X167488387Y-102086595D01*
X167334851Y-102004528D01*
X167168255Y-101953992D01*
X166995001Y-101936928D01*
X165744999Y-101936928D01*
X165571745Y-101953992D01*
X165405149Y-102004528D01*
X165251613Y-102086595D01*
X165117038Y-102197038D01*
X165006595Y-102331613D01*
X164924528Y-102485149D01*
X164873992Y-102651745D01*
X164856928Y-102824999D01*
X164856928Y-103625001D01*
X164873992Y-103798255D01*
X164924528Y-103964851D01*
X165006595Y-104118387D01*
X165117038Y-104252962D01*
X165251613Y-104363405D01*
X165405149Y-104445472D01*
X165406759Y-104445960D01*
X164700798Y-105151922D01*
X164672752Y-105174939D01*
X164580903Y-105286857D01*
X164512653Y-105414544D01*
X164495668Y-105470537D01*
X164470625Y-105553091D01*
X164456434Y-105697176D01*
X164459990Y-105733282D01*
X164459991Y-106916709D01*
X164456434Y-106952824D01*
X164470625Y-107096909D01*
X164496938Y-107183649D01*
X164512654Y-107235457D01*
X164580904Y-107363144D01*
X164672753Y-107475062D01*
X164700798Y-107498078D01*
X165185009Y-107982290D01*
X165185010Y-112164999D01*
X164953095Y-112164999D01*
X164916998Y-112161444D01*
X164880901Y-112164999D01*
X164880894Y-112164999D01*
X164787131Y-112174234D01*
X164772913Y-112175634D01*
X164744428Y-112184275D01*
X164634366Y-112217662D01*
X164506679Y-112285912D01*
X164394761Y-112377761D01*
X164371745Y-112405806D01*
X163850807Y-112926745D01*
X163822761Y-112949762D01*
X163730912Y-113061680D01*
X163662662Y-113189367D01*
X163661540Y-113193065D01*
X162854605Y-114000000D01*
X162868748Y-114014143D01*
X162689143Y-114193748D01*
X162675000Y-114179605D01*
X161861903Y-114992702D01*
X161933486Y-115236671D01*
X162188996Y-115357571D01*
X162463184Y-115426300D01*
X162745512Y-115440217D01*
X163025130Y-115398787D01*
X163291292Y-115303603D01*
X163416514Y-115236671D01*
X163488097Y-114992704D01*
X163604370Y-115108977D01*
X163609999Y-115103348D01*
X163610000Y-115473164D01*
X163380273Y-115568320D01*
X163145241Y-115725363D01*
X162945363Y-115925241D01*
X162788320Y-116160273D01*
X162726461Y-116309613D01*
X162728072Y-116040000D01*
X162715812Y-115915518D01*
X162679502Y-115795820D01*
X162620537Y-115685506D01*
X162541185Y-115588815D01*
X162444494Y-115509463D01*
X162334180Y-115450498D01*
X162214482Y-115414188D01*
X162090000Y-115401928D01*
X161575750Y-115405000D01*
X161417000Y-115563750D01*
X161163000Y-115563750D01*
X161004250Y-115405000D01*
X160490000Y-115401928D01*
X160365518Y-115414188D01*
X160245820Y-115450498D01*
X160135506Y-115509463D01*
X160038815Y-115588815D01*
X159959463Y-115685506D01*
X159900498Y-115795820D01*
X159864188Y-115915518D01*
X159851928Y-116040000D01*
X156893297Y-116040000D01*
X156965000Y-115679525D01*
X156965000Y-115160475D01*
X156863739Y-114651399D01*
X156665107Y-114171859D01*
X156597389Y-114070512D01*
X161234783Y-114070512D01*
X161276213Y-114350130D01*
X161371397Y-114616292D01*
X161438329Y-114741514D01*
X161682298Y-114813097D01*
X162495395Y-114000000D01*
X161682298Y-113186903D01*
X161438329Y-113258486D01*
X161317429Y-113513996D01*
X161248700Y-113788184D01*
X161234783Y-114070512D01*
X156597389Y-114070512D01*
X156376738Y-113740285D01*
X156009715Y-113373262D01*
X155578141Y-113084893D01*
X155390811Y-113007298D01*
X161861903Y-113007298D01*
X162675000Y-113820395D01*
X163488097Y-113007298D01*
X163416514Y-112763329D01*
X163161004Y-112642429D01*
X162886816Y-112573700D01*
X162604488Y-112559783D01*
X162324870Y-112601213D01*
X162058708Y-112696397D01*
X161933486Y-112763329D01*
X161861903Y-113007298D01*
X155390811Y-113007298D01*
X155098601Y-112886261D01*
X154589525Y-112785000D01*
X154070475Y-112785000D01*
X153561399Y-112886261D01*
X153081859Y-113084893D01*
X152650285Y-113373262D01*
X152283262Y-113740285D01*
X151994893Y-114171859D01*
X151796261Y-114651399D01*
X151695000Y-115160475D01*
X150545000Y-115160475D01*
X150545000Y-96785000D01*
X150806928Y-96785000D01*
X150819188Y-96909482D01*
X150855498Y-97029180D01*
X150914463Y-97139494D01*
X150993815Y-97236185D01*
X151090506Y-97315537D01*
X151200820Y-97374502D01*
X151320518Y-97410812D01*
X151445000Y-97423072D01*
X151821750Y-97420000D01*
X151980500Y-97261250D01*
X151980500Y-96012000D01*
X152234500Y-96012000D01*
X152234500Y-97261250D01*
X152393250Y-97420000D01*
X152770000Y-97423072D01*
X152894482Y-97410812D01*
X153014180Y-97374502D01*
X153124494Y-97315537D01*
X153221185Y-97236185D01*
X153300537Y-97139494D01*
X153359502Y-97029180D01*
X153395812Y-96909482D01*
X153408072Y-96785000D01*
X153405000Y-96170750D01*
X153246250Y-96012000D01*
X152234500Y-96012000D01*
X151980500Y-96012000D01*
X150968750Y-96012000D01*
X150810000Y-96170750D01*
X150806928Y-96785000D01*
X150545000Y-96785000D01*
X150545000Y-94985000D01*
X150806928Y-94985000D01*
X150810000Y-95599250D01*
X150968750Y-95758000D01*
X151980500Y-95758000D01*
X151980500Y-94508750D01*
X152234500Y-94508750D01*
X152234500Y-95758000D01*
X153246250Y-95758000D01*
X153405000Y-95599250D01*
X153406821Y-95234999D01*
X153931928Y-95234999D01*
X153931928Y-96535001D01*
X153948992Y-96708255D01*
X153999528Y-96874851D01*
X154081595Y-97028387D01*
X154192038Y-97162962D01*
X154326613Y-97273405D01*
X154480149Y-97355472D01*
X154646745Y-97406008D01*
X154819999Y-97423072D01*
X155645001Y-97423072D01*
X155818255Y-97406008D01*
X155984851Y-97355472D01*
X156138387Y-97273405D01*
X156272962Y-97162962D01*
X156383405Y-97028387D01*
X156465472Y-96874851D01*
X156472689Y-96851060D01*
X156543102Y-96880226D01*
X156743061Y-96920000D01*
X156946939Y-96920000D01*
X157146898Y-96880226D01*
X157335256Y-96802205D01*
X157504774Y-96688937D01*
X157648937Y-96544774D01*
X157762205Y-96375256D01*
X157840226Y-96186898D01*
X157880000Y-95986939D01*
X157880000Y-95783061D01*
X157840226Y-95583102D01*
X157762205Y-95394744D01*
X157648937Y-95225226D01*
X157504774Y-95081063D01*
X157335256Y-94967795D01*
X157146898Y-94889774D01*
X156946939Y-94850000D01*
X156743061Y-94850000D01*
X156543102Y-94889774D01*
X156472689Y-94918940D01*
X156465472Y-94895149D01*
X156383405Y-94741613D01*
X156272962Y-94607038D01*
X156138387Y-94496595D01*
X155984851Y-94414528D01*
X155818255Y-94363992D01*
X155645001Y-94346928D01*
X154819999Y-94346928D01*
X154646745Y-94363992D01*
X154480149Y-94414528D01*
X154326613Y-94496595D01*
X154192038Y-94607038D01*
X154081595Y-94741613D01*
X153999528Y-94895149D01*
X153948992Y-95061745D01*
X153931928Y-95234999D01*
X153406821Y-95234999D01*
X153408072Y-94985000D01*
X153395812Y-94860518D01*
X153359502Y-94740820D01*
X153300537Y-94630506D01*
X153221185Y-94533815D01*
X153124494Y-94454463D01*
X153014180Y-94395498D01*
X152894482Y-94359188D01*
X152770000Y-94346928D01*
X152393250Y-94350000D01*
X152234500Y-94508750D01*
X151980500Y-94508750D01*
X151821750Y-94350000D01*
X151445000Y-94346928D01*
X151320518Y-94359188D01*
X151200820Y-94395498D01*
X151090506Y-94454463D01*
X150993815Y-94533815D01*
X150914463Y-94630506D01*
X150855498Y-94740820D01*
X150819188Y-94860518D01*
X150806928Y-94985000D01*
X150545000Y-94985000D01*
X150545000Y-91796890D01*
X152228524Y-91796890D01*
X152273175Y-91944099D01*
X152398359Y-92206920D01*
X152572412Y-92440269D01*
X152788645Y-92635178D01*
X153038748Y-92784157D01*
X153313109Y-92881481D01*
X153543000Y-92760814D01*
X153543000Y-91567000D01*
X153797000Y-91567000D01*
X153797000Y-92760814D01*
X154026891Y-92881481D01*
X154301252Y-92784157D01*
X154551355Y-92635178D01*
X154767588Y-92440269D01*
X154941641Y-92206920D01*
X155066825Y-91944099D01*
X155111476Y-91796890D01*
X154990155Y-91567000D01*
X153797000Y-91567000D01*
X153543000Y-91567000D01*
X152349845Y-91567000D01*
X152228524Y-91796890D01*
X150545000Y-91796890D01*
X150545000Y-75350000D01*
X152181928Y-75350000D01*
X152181928Y-77050000D01*
X152194188Y-77174482D01*
X152230498Y-77294180D01*
X152289463Y-77404494D01*
X152368815Y-77501185D01*
X152465506Y-77580537D01*
X152575820Y-77639502D01*
X152648380Y-77661513D01*
X152516525Y-77793368D01*
X152354010Y-78036589D01*
X152242068Y-78306842D01*
X152185000Y-78593740D01*
X152185000Y-78886260D01*
X152242068Y-79173158D01*
X152354010Y-79443411D01*
X152516525Y-79686632D01*
X152723368Y-79893475D01*
X152897760Y-80010000D01*
X152723368Y-80126525D01*
X152516525Y-80333368D01*
X152354010Y-80576589D01*
X152242068Y-80846842D01*
X152185000Y-81133740D01*
X152185000Y-81426260D01*
X152242068Y-81713158D01*
X152354010Y-81983411D01*
X152516525Y-82226632D01*
X152723368Y-82433475D01*
X152897760Y-82550000D01*
X152723368Y-82666525D01*
X152516525Y-82873368D01*
X152354010Y-83116589D01*
X152242068Y-83386842D01*
X152185000Y-83673740D01*
X152185000Y-83966260D01*
X152242068Y-84253158D01*
X152354010Y-84523411D01*
X152516525Y-84766632D01*
X152723368Y-84973475D01*
X152897760Y-85090000D01*
X152723368Y-85206525D01*
X152516525Y-85413368D01*
X152354010Y-85656589D01*
X152242068Y-85926842D01*
X152185000Y-86213740D01*
X152185000Y-86506260D01*
X152242068Y-86793158D01*
X152354010Y-87063411D01*
X152516525Y-87306632D01*
X152723368Y-87513475D01*
X152897760Y-87630000D01*
X152723368Y-87746525D01*
X152516525Y-87953368D01*
X152354010Y-88196589D01*
X152242068Y-88466842D01*
X152185000Y-88753740D01*
X152185000Y-89046260D01*
X152242068Y-89333158D01*
X152354010Y-89603411D01*
X152516525Y-89846632D01*
X152723368Y-90053475D01*
X152905534Y-90175195D01*
X152788645Y-90244822D01*
X152572412Y-90439731D01*
X152398359Y-90673080D01*
X152273175Y-90935901D01*
X152228524Y-91083110D01*
X152349845Y-91313000D01*
X153543000Y-91313000D01*
X153543000Y-91293000D01*
X153797000Y-91293000D01*
X153797000Y-91313000D01*
X154990155Y-91313000D01*
X155111476Y-91083110D01*
X155066825Y-90935901D01*
X154941641Y-90673080D01*
X154767588Y-90439731D01*
X154551355Y-90244822D01*
X154434466Y-90175195D01*
X154616632Y-90053475D01*
X154823475Y-89846632D01*
X154985990Y-89603411D01*
X155097932Y-89333158D01*
X155155000Y-89046260D01*
X155155000Y-88753740D01*
X155097932Y-88466842D01*
X154985990Y-88196589D01*
X154823475Y-87953368D01*
X154616632Y-87746525D01*
X154442240Y-87630000D01*
X154616632Y-87513475D01*
X154823475Y-87306632D01*
X154985990Y-87063411D01*
X155097932Y-86793158D01*
X155155000Y-86506260D01*
X155155000Y-86213740D01*
X155097932Y-85926842D01*
X154985990Y-85656589D01*
X154823475Y-85413368D01*
X154616632Y-85206525D01*
X154442240Y-85090000D01*
X154616632Y-84973475D01*
X154823475Y-84766632D01*
X154985990Y-84523411D01*
X155097932Y-84253158D01*
X155155000Y-83966260D01*
X155155000Y-83673740D01*
X155097932Y-83386842D01*
X154985990Y-83116589D01*
X154823475Y-82873368D01*
X154616632Y-82666525D01*
X154442240Y-82550000D01*
X154616632Y-82433475D01*
X154823475Y-82226632D01*
X154985990Y-81983411D01*
X155097932Y-81713158D01*
X155155000Y-81426260D01*
X155155000Y-81133740D01*
X155097932Y-80846842D01*
X154985990Y-80576589D01*
X154823475Y-80333368D01*
X154616632Y-80126525D01*
X154442240Y-80010000D01*
X154616632Y-79893475D01*
X154823475Y-79686632D01*
X154985990Y-79443411D01*
X155097932Y-79173158D01*
X155155000Y-78886260D01*
X155155000Y-78593740D01*
X155097932Y-78306842D01*
X154985990Y-78036589D01*
X154823475Y-77793368D01*
X154691620Y-77661513D01*
X154764180Y-77639502D01*
X154874494Y-77580537D01*
X154971185Y-77501185D01*
X155050537Y-77404494D01*
X155109502Y-77294180D01*
X155145812Y-77174482D01*
X155158072Y-77050000D01*
X155158072Y-75350000D01*
X155145812Y-75225518D01*
X155109502Y-75105820D01*
X155050537Y-74995506D01*
X154971185Y-74898815D01*
X154874494Y-74819463D01*
X154764180Y-74760498D01*
X154644482Y-74724188D01*
X154520000Y-74711928D01*
X152820000Y-74711928D01*
X152695518Y-74724188D01*
X152575820Y-74760498D01*
X152465506Y-74819463D01*
X152368815Y-74898815D01*
X152289463Y-74995506D01*
X152230498Y-75105820D01*
X152194188Y-75225518D01*
X152181928Y-75350000D01*
X150545000Y-75350000D01*
X150545000Y-68039999D01*
X158131323Y-68039999D01*
X158134999Y-68077321D01*
X158135000Y-80117667D01*
X158131323Y-80154999D01*
X158145997Y-80303984D01*
X158189453Y-80447245D01*
X158260025Y-80579275D01*
X158331200Y-80666001D01*
X158354999Y-80695000D01*
X158383997Y-80718798D01*
X158621312Y-80956113D01*
X158585000Y-81138665D01*
X158585000Y-81421335D01*
X158640147Y-81698574D01*
X158748320Y-81959727D01*
X158905363Y-82194759D01*
X159105241Y-82394637D01*
X159337759Y-82550000D01*
X159105241Y-82705363D01*
X158905363Y-82905241D01*
X158748320Y-83140273D01*
X158640147Y-83401426D01*
X158585000Y-83678665D01*
X158585000Y-83961335D01*
X158640147Y-84238574D01*
X158748320Y-84499727D01*
X158905363Y-84734759D01*
X159105241Y-84934637D01*
X159337759Y-85090000D01*
X159105241Y-85245363D01*
X158905363Y-85445241D01*
X158748320Y-85680273D01*
X158640147Y-85941426D01*
X158585000Y-86218665D01*
X158585000Y-86501335D01*
X158640147Y-86778574D01*
X158748320Y-87039727D01*
X158905363Y-87274759D01*
X159105241Y-87474637D01*
X159337759Y-87630000D01*
X159105241Y-87785363D01*
X158905363Y-87985241D01*
X158748320Y-88220273D01*
X158640147Y-88481426D01*
X158585000Y-88758665D01*
X158585000Y-89041335D01*
X158640147Y-89318574D01*
X158748320Y-89579727D01*
X158905363Y-89814759D01*
X159105241Y-90014637D01*
X159337759Y-90170000D01*
X159105241Y-90325363D01*
X158905363Y-90525241D01*
X158748320Y-90760273D01*
X158640147Y-91021426D01*
X158585000Y-91298665D01*
X158585000Y-91581335D01*
X158640147Y-91858574D01*
X158748320Y-92119727D01*
X158905363Y-92354759D01*
X159105241Y-92554637D01*
X159337759Y-92710000D01*
X159105241Y-92865363D01*
X158905363Y-93065241D01*
X158748320Y-93300273D01*
X158640147Y-93561426D01*
X158585000Y-93838665D01*
X158585000Y-94121335D01*
X158640147Y-94398574D01*
X158748320Y-94659727D01*
X158905363Y-94894759D01*
X159105241Y-95094637D01*
X159340273Y-95251680D01*
X159350865Y-95256067D01*
X159164869Y-95367615D01*
X158956481Y-95556586D01*
X158788963Y-95782580D01*
X158668754Y-96036913D01*
X158628096Y-96170961D01*
X158750085Y-96393000D01*
X159893000Y-96393000D01*
X159893000Y-96373000D01*
X160147000Y-96373000D01*
X160147000Y-96393000D01*
X161289915Y-96393000D01*
X161411904Y-96170961D01*
X161371246Y-96036913D01*
X161358526Y-96010000D01*
X163643141Y-96010000D01*
X163611916Y-96068418D01*
X163567071Y-96216255D01*
X163551928Y-96370000D01*
X163551928Y-96670000D01*
X163552959Y-96680471D01*
X161431733Y-98801697D01*
X161399853Y-98641426D01*
X161291680Y-98380273D01*
X161134637Y-98145241D01*
X160934759Y-97945363D01*
X160699727Y-97788320D01*
X160689135Y-97783933D01*
X160875131Y-97672385D01*
X161083519Y-97483414D01*
X161251037Y-97257420D01*
X161371246Y-97003087D01*
X161411904Y-96869039D01*
X161289915Y-96647000D01*
X160147000Y-96647000D01*
X160147000Y-96667000D01*
X159893000Y-96667000D01*
X159893000Y-96647000D01*
X158750085Y-96647000D01*
X158628096Y-96869039D01*
X158668754Y-97003087D01*
X158788963Y-97257420D01*
X158956481Y-97483414D01*
X159164869Y-97672385D01*
X159350865Y-97783933D01*
X159340273Y-97788320D01*
X159105241Y-97945363D01*
X158905363Y-98145241D01*
X158748320Y-98380273D01*
X158640147Y-98641426D01*
X158585000Y-98918665D01*
X158585000Y-99201335D01*
X158640147Y-99478574D01*
X158748320Y-99739727D01*
X158905363Y-99974759D01*
X159105241Y-100174637D01*
X159337759Y-100330000D01*
X159105241Y-100485363D01*
X158905363Y-100685241D01*
X158748320Y-100920273D01*
X158640147Y-101181426D01*
X158585000Y-101458665D01*
X158585000Y-101741335D01*
X158640147Y-102018574D01*
X158748320Y-102279727D01*
X158905363Y-102514759D01*
X159103961Y-102713357D01*
X159095518Y-102714188D01*
X158975820Y-102750498D01*
X158865506Y-102809463D01*
X158768815Y-102888815D01*
X158689463Y-102985506D01*
X158630498Y-103095820D01*
X158594188Y-103215518D01*
X158581928Y-103340000D01*
X158581928Y-104940000D01*
X158594188Y-105064482D01*
X158630498Y-105184180D01*
X158689463Y-105294494D01*
X158768815Y-105391185D01*
X158865506Y-105470537D01*
X158975820Y-105529502D01*
X159095518Y-105565812D01*
X159220000Y-105578072D01*
X160820000Y-105578072D01*
X160944482Y-105565812D01*
X161064180Y-105529502D01*
X161174494Y-105470537D01*
X161271185Y-105391185D01*
X161350537Y-105294494D01*
X161409502Y-105184180D01*
X161445812Y-105064482D01*
X161458072Y-104940000D01*
X161458072Y-103776730D01*
X161656004Y-103578798D01*
X161685002Y-103555000D01*
X161779975Y-103439275D01*
X161850547Y-103307246D01*
X161894004Y-103163985D01*
X161905001Y-103052332D01*
X161905001Y-103052324D01*
X161908677Y-103014999D01*
X161905001Y-102977674D01*
X161905001Y-101149800D01*
X162424801Y-100630000D01*
X163551928Y-100630000D01*
X163564188Y-100754482D01*
X163600498Y-100874180D01*
X163659463Y-100984494D01*
X163738815Y-101081185D01*
X163835506Y-101160537D01*
X163945820Y-101219502D01*
X164065518Y-101255812D01*
X164190000Y-101268072D01*
X164879250Y-101265000D01*
X165038000Y-101106250D01*
X165038000Y-100457000D01*
X165292000Y-100457000D01*
X165292000Y-101106250D01*
X165450750Y-101265000D01*
X166140000Y-101268072D01*
X166264482Y-101255812D01*
X166384180Y-101219502D01*
X166494494Y-101160537D01*
X166591185Y-101081185D01*
X166670537Y-100984494D01*
X166729502Y-100874180D01*
X166765812Y-100754482D01*
X166778072Y-100630000D01*
X166775000Y-100615750D01*
X166616250Y-100457000D01*
X165292000Y-100457000D01*
X165038000Y-100457000D01*
X163713750Y-100457000D01*
X163555000Y-100615750D01*
X163551928Y-100630000D01*
X162424801Y-100630000D01*
X163565615Y-99489187D01*
X163600498Y-99604180D01*
X163649043Y-99695000D01*
X163600498Y-99785820D01*
X163564188Y-99905518D01*
X163551928Y-100030000D01*
X163555000Y-100044250D01*
X163713750Y-100203000D01*
X165038000Y-100203000D01*
X165038000Y-99187000D01*
X165292000Y-99187000D01*
X165292000Y-100203000D01*
X166616250Y-100203000D01*
X166775000Y-100044250D01*
X166778072Y-100030000D01*
X166765812Y-99905518D01*
X166729502Y-99785820D01*
X166680957Y-99695000D01*
X166729502Y-99604180D01*
X166765812Y-99484482D01*
X166778072Y-99360000D01*
X166775000Y-99345750D01*
X166616250Y-99187000D01*
X165292000Y-99187000D01*
X165038000Y-99187000D01*
X165018000Y-99187000D01*
X165018000Y-98933000D01*
X165038000Y-98933000D01*
X165038000Y-98913000D01*
X165292000Y-98913000D01*
X165292000Y-98933000D01*
X166616250Y-98933000D01*
X166775000Y-98774250D01*
X166778072Y-98760000D01*
X166765812Y-98635518D01*
X166729502Y-98515820D01*
X166670537Y-98405506D01*
X166646270Y-98375936D01*
X166718084Y-98241582D01*
X166762929Y-98093745D01*
X166778072Y-97940000D01*
X166778072Y-97640000D01*
X166777041Y-97629528D01*
X167426022Y-96980547D01*
X167455021Y-96956749D01*
X167485180Y-96920000D01*
X167549994Y-96841025D01*
X167620566Y-96708995D01*
X167621525Y-96705835D01*
X167664023Y-96565734D01*
X167675020Y-96454081D01*
X167675020Y-96454071D01*
X167678696Y-96416748D01*
X167675020Y-96379426D01*
X167675020Y-94754165D01*
X167678696Y-94716842D01*
X167675020Y-94679519D01*
X167675020Y-94679509D01*
X167664023Y-94567856D01*
X167620566Y-94424595D01*
X167571470Y-94332744D01*
X167549994Y-94292565D01*
X167478819Y-94205839D01*
X167455021Y-94176841D01*
X167426024Y-94153044D01*
X166741981Y-93469002D01*
X166718179Y-93439999D01*
X166615052Y-93355365D01*
X166606546Y-93345000D01*
X166645258Y-93297829D01*
X166718084Y-93161582D01*
X166762929Y-93013745D01*
X166778072Y-92860000D01*
X166778072Y-92560000D01*
X166762929Y-92406255D01*
X166718084Y-92258418D01*
X166645258Y-92122171D01*
X166547251Y-92002749D01*
X166427829Y-91904742D01*
X166291582Y-91831916D01*
X166143745Y-91787071D01*
X165990000Y-91771928D01*
X164340000Y-91771928D01*
X164186255Y-91787071D01*
X164038418Y-91831916D01*
X163902171Y-91904742D01*
X163782749Y-92002749D01*
X163684742Y-92122171D01*
X163611916Y-92258418D01*
X163567071Y-92406255D01*
X163551928Y-92560000D01*
X163551928Y-92860000D01*
X163560548Y-92947514D01*
X161542036Y-90929003D01*
X161518233Y-90899999D01*
X161402508Y-90805026D01*
X161276623Y-90737738D01*
X161134637Y-90525241D01*
X160934759Y-90325363D01*
X160702241Y-90170000D01*
X160934759Y-90014637D01*
X161134637Y-89814759D01*
X161291680Y-89579727D01*
X161399853Y-89318574D01*
X161455000Y-89041335D01*
X161455000Y-88758665D01*
X161418688Y-88576114D01*
X161656004Y-88338798D01*
X161685002Y-88315000D01*
X161779975Y-88199275D01*
X161850547Y-88067246D01*
X161894004Y-87923985D01*
X161905001Y-87812332D01*
X161905001Y-87812324D01*
X161908677Y-87774999D01*
X161905001Y-87737674D01*
X161905001Y-87072500D01*
X168641928Y-87072500D01*
X168654188Y-87196982D01*
X168690498Y-87316680D01*
X168749463Y-87426994D01*
X168828815Y-87523685D01*
X168925506Y-87603037D01*
X169035820Y-87662002D01*
X169155518Y-87698312D01*
X169280000Y-87710572D01*
X169894250Y-87707500D01*
X170053000Y-87548750D01*
X170053000Y-86537000D01*
X170307000Y-86537000D01*
X170307000Y-87548750D01*
X170465750Y-87707500D01*
X171080000Y-87710572D01*
X171204482Y-87698312D01*
X171324180Y-87662002D01*
X171434494Y-87603037D01*
X171531185Y-87523685D01*
X171610537Y-87426994D01*
X171669502Y-87316680D01*
X171705812Y-87196982D01*
X171718072Y-87072500D01*
X171715000Y-86695750D01*
X171556250Y-86537000D01*
X170307000Y-86537000D01*
X170053000Y-86537000D01*
X168803750Y-86537000D01*
X168645000Y-86695750D01*
X168641928Y-87072500D01*
X161905001Y-87072500D01*
X161905001Y-85747500D01*
X168641928Y-85747500D01*
X168645000Y-86124250D01*
X168803750Y-86283000D01*
X170053000Y-86283000D01*
X170053000Y-85271250D01*
X170307000Y-85271250D01*
X170307000Y-86283000D01*
X171556250Y-86283000D01*
X171715000Y-86124250D01*
X171718072Y-85747500D01*
X171705812Y-85623018D01*
X171669502Y-85503320D01*
X171610537Y-85393006D01*
X171531185Y-85296315D01*
X171434494Y-85216963D01*
X171324180Y-85157998D01*
X171204482Y-85121688D01*
X171080000Y-85109428D01*
X170465750Y-85112500D01*
X170307000Y-85271250D01*
X170053000Y-85271250D01*
X169894250Y-85112500D01*
X169280000Y-85109428D01*
X169155518Y-85121688D01*
X169035820Y-85157998D01*
X168925506Y-85216963D01*
X168828815Y-85296315D01*
X168749463Y-85393006D01*
X168690498Y-85503320D01*
X168654188Y-85623018D01*
X168641928Y-85747500D01*
X161905001Y-85747500D01*
X161905001Y-68438665D01*
X173825000Y-68438665D01*
X173825000Y-68721335D01*
X173880147Y-68998574D01*
X173988320Y-69259727D01*
X174145363Y-69494759D01*
X174345241Y-69694637D01*
X174577759Y-69850000D01*
X174345241Y-70005363D01*
X174145363Y-70205241D01*
X173988320Y-70440273D01*
X173880147Y-70701426D01*
X173825000Y-70978665D01*
X173825000Y-71261335D01*
X173880147Y-71538574D01*
X173988320Y-71799727D01*
X174145363Y-72034759D01*
X174345241Y-72234637D01*
X174577759Y-72390000D01*
X174345241Y-72545363D01*
X174145363Y-72745241D01*
X173988320Y-72980273D01*
X173880147Y-73241426D01*
X173825000Y-73518665D01*
X173825000Y-73801335D01*
X173880147Y-74078574D01*
X173988320Y-74339727D01*
X174145363Y-74574759D01*
X174345241Y-74774637D01*
X174577759Y-74930000D01*
X174345241Y-75085363D01*
X174145363Y-75285241D01*
X173988320Y-75520273D01*
X173880147Y-75781426D01*
X173825000Y-76058665D01*
X173825000Y-76341335D01*
X173880147Y-76618574D01*
X173988320Y-76879727D01*
X174145363Y-77114759D01*
X174345241Y-77314637D01*
X174577759Y-77470000D01*
X174345241Y-77625363D01*
X174145363Y-77825241D01*
X173988320Y-78060273D01*
X173880147Y-78321426D01*
X173825000Y-78598665D01*
X173825000Y-78881335D01*
X173880147Y-79158574D01*
X173988320Y-79419727D01*
X174145363Y-79654759D01*
X174345241Y-79854637D01*
X174577759Y-80010000D01*
X174345241Y-80165363D01*
X174145363Y-80365241D01*
X173988320Y-80600273D01*
X173880147Y-80861426D01*
X173825000Y-81138665D01*
X173825000Y-81421335D01*
X173880147Y-81698574D01*
X173988320Y-81959727D01*
X174145363Y-82194759D01*
X174345241Y-82394637D01*
X174577759Y-82550000D01*
X174345241Y-82705363D01*
X174145363Y-82905241D01*
X173988320Y-83140273D01*
X173880147Y-83401426D01*
X173825000Y-83678665D01*
X173825000Y-83961335D01*
X173880147Y-84238574D01*
X173988320Y-84499727D01*
X174145363Y-84734759D01*
X174345241Y-84934637D01*
X174577759Y-85090000D01*
X174345241Y-85245363D01*
X174145363Y-85445241D01*
X173988320Y-85680273D01*
X173880147Y-85941426D01*
X173825000Y-86218665D01*
X173825000Y-86501335D01*
X173880147Y-86778574D01*
X173988320Y-87039727D01*
X174145363Y-87274759D01*
X174345241Y-87474637D01*
X174577759Y-87630000D01*
X174345241Y-87785363D01*
X174145363Y-87985241D01*
X173988320Y-88220273D01*
X173880147Y-88481426D01*
X173825000Y-88758665D01*
X173825000Y-89041335D01*
X173880147Y-89318574D01*
X173988320Y-89579727D01*
X174145363Y-89814759D01*
X174345241Y-90014637D01*
X174577759Y-90170000D01*
X174345241Y-90325363D01*
X174145363Y-90525241D01*
X173988320Y-90760273D01*
X173880147Y-91021426D01*
X173825000Y-91298665D01*
X173825000Y-91581335D01*
X173880147Y-91858574D01*
X173988320Y-92119727D01*
X174145363Y-92354759D01*
X174345241Y-92554637D01*
X174577759Y-92710000D01*
X174345241Y-92865363D01*
X174145363Y-93065241D01*
X173988320Y-93300273D01*
X173880147Y-93561426D01*
X173825000Y-93838665D01*
X173825000Y-94121335D01*
X173880147Y-94398574D01*
X173988320Y-94659727D01*
X174145363Y-94894759D01*
X174345241Y-95094637D01*
X174577759Y-95250000D01*
X174345241Y-95405363D01*
X174145363Y-95605241D01*
X173988320Y-95840273D01*
X173880147Y-96101426D01*
X173825000Y-96378665D01*
X173825000Y-96661335D01*
X173880147Y-96938574D01*
X173988320Y-97199727D01*
X174145363Y-97434759D01*
X174345241Y-97634637D01*
X174577759Y-97790000D01*
X174345241Y-97945363D01*
X174145363Y-98145241D01*
X173988320Y-98380273D01*
X173880147Y-98641426D01*
X173825000Y-98918665D01*
X173825000Y-99201335D01*
X173880147Y-99478574D01*
X173988320Y-99739727D01*
X174145363Y-99974759D01*
X174345241Y-100174637D01*
X174580273Y-100331680D01*
X174590865Y-100336067D01*
X174404869Y-100447615D01*
X174196481Y-100636586D01*
X174028963Y-100862580D01*
X173908754Y-101116913D01*
X173868096Y-101250961D01*
X173990085Y-101473000D01*
X175133000Y-101473000D01*
X175133000Y-101453000D01*
X175387000Y-101453000D01*
X175387000Y-101473000D01*
X176529915Y-101473000D01*
X176651904Y-101250961D01*
X176611246Y-101116913D01*
X176491037Y-100862580D01*
X176323519Y-100636586D01*
X176115131Y-100447615D01*
X175929135Y-100336067D01*
X175939727Y-100331680D01*
X176174759Y-100174637D01*
X176374637Y-99974759D01*
X176531680Y-99739727D01*
X176639853Y-99478574D01*
X176695000Y-99201335D01*
X176695000Y-98918665D01*
X176639853Y-98641426D01*
X176531680Y-98380273D01*
X176374637Y-98145241D01*
X176174759Y-97945363D01*
X175942241Y-97790000D01*
X176174759Y-97634637D01*
X176374637Y-97434759D01*
X176531680Y-97199727D01*
X176639853Y-96938574D01*
X176695000Y-96661335D01*
X176695000Y-96378665D01*
X176639853Y-96101426D01*
X176531680Y-95840273D01*
X176374637Y-95605241D01*
X176174759Y-95405363D01*
X175942241Y-95250000D01*
X176174759Y-95094637D01*
X176374637Y-94894759D01*
X176531680Y-94659727D01*
X176639853Y-94398574D01*
X176695000Y-94121335D01*
X176695000Y-93838665D01*
X176639853Y-93561426D01*
X176531680Y-93300273D01*
X176374637Y-93065241D01*
X176174759Y-92865363D01*
X175942241Y-92710000D01*
X176174759Y-92554637D01*
X176374637Y-92354759D01*
X176531680Y-92119727D01*
X176639853Y-91858574D01*
X176695000Y-91581335D01*
X176695000Y-91298665D01*
X176639853Y-91021426D01*
X176531680Y-90760273D01*
X176374637Y-90525241D01*
X176174759Y-90325363D01*
X175942241Y-90170000D01*
X176174759Y-90014637D01*
X176374637Y-89814759D01*
X176531680Y-89579727D01*
X176639853Y-89318574D01*
X176695000Y-89041335D01*
X176695000Y-88758665D01*
X176639853Y-88481426D01*
X176531680Y-88220273D01*
X176374637Y-87985241D01*
X176174759Y-87785363D01*
X175942241Y-87630000D01*
X176174759Y-87474637D01*
X176374637Y-87274759D01*
X176531680Y-87039727D01*
X176639853Y-86778574D01*
X176695000Y-86501335D01*
X176695000Y-86218665D01*
X176639853Y-85941426D01*
X176531680Y-85680273D01*
X176374637Y-85445241D01*
X176174759Y-85245363D01*
X175942241Y-85090000D01*
X176174759Y-84934637D01*
X176374637Y-84734759D01*
X176531680Y-84499727D01*
X176639853Y-84238574D01*
X176695000Y-83961335D01*
X176695000Y-83678665D01*
X176639853Y-83401426D01*
X176531680Y-83140273D01*
X176374637Y-82905241D01*
X176174759Y-82705363D01*
X175942241Y-82550000D01*
X176174759Y-82394637D01*
X176374637Y-82194759D01*
X176531680Y-81959727D01*
X176639853Y-81698574D01*
X176695000Y-81421335D01*
X176695000Y-81138665D01*
X176639853Y-80861426D01*
X176531680Y-80600273D01*
X176374637Y-80365241D01*
X176174759Y-80165363D01*
X175942241Y-80010000D01*
X176174759Y-79854637D01*
X176374637Y-79654759D01*
X176531680Y-79419727D01*
X176639853Y-79158574D01*
X176695000Y-78881335D01*
X176695000Y-78598665D01*
X176639853Y-78321426D01*
X176531680Y-78060273D01*
X176374637Y-77825241D01*
X176174759Y-77625363D01*
X175942241Y-77470000D01*
X176174759Y-77314637D01*
X176374637Y-77114759D01*
X176531680Y-76879727D01*
X176639853Y-76618574D01*
X176695000Y-76341335D01*
X176695000Y-76058665D01*
X176639853Y-75781426D01*
X176531680Y-75520273D01*
X176374637Y-75285241D01*
X176174759Y-75085363D01*
X175942241Y-74930000D01*
X176174759Y-74774637D01*
X176374637Y-74574759D01*
X176531680Y-74339727D01*
X176639853Y-74078574D01*
X176695000Y-73801335D01*
X176695000Y-73518665D01*
X176639853Y-73241426D01*
X176531680Y-72980273D01*
X176374637Y-72745241D01*
X176174759Y-72545363D01*
X175942241Y-72390000D01*
X176174759Y-72234637D01*
X176374637Y-72034759D01*
X176531680Y-71799727D01*
X176639853Y-71538574D01*
X176695000Y-71261335D01*
X176695000Y-70978665D01*
X176639853Y-70701426D01*
X176531680Y-70440273D01*
X176374637Y-70205241D01*
X176174759Y-70005363D01*
X175942241Y-69850000D01*
X176174759Y-69694637D01*
X176374637Y-69494759D01*
X176531680Y-69259727D01*
X176639853Y-68998574D01*
X176695000Y-68721335D01*
X176695000Y-68438665D01*
X176639853Y-68161426D01*
X176531680Y-67900273D01*
X176374637Y-67665241D01*
X176174759Y-67465363D01*
X175939727Y-67308320D01*
X175678574Y-67200147D01*
X175401335Y-67145000D01*
X175118665Y-67145000D01*
X174841426Y-67200147D01*
X174580273Y-67308320D01*
X174345241Y-67465363D01*
X174145363Y-67665241D01*
X173988320Y-67900273D01*
X173880147Y-68161426D01*
X173825000Y-68438665D01*
X161905001Y-68438665D01*
X161905001Y-67085587D01*
X169445282Y-59545307D01*
X169490013Y-59612252D01*
X169717748Y-59839987D01*
X169985537Y-60018918D01*
X170283088Y-60142168D01*
X170598967Y-60205000D01*
X170921033Y-60205000D01*
X171236912Y-60142168D01*
X171534463Y-60018918D01*
X171802252Y-59839987D01*
X171936826Y-59705413D01*
X174304192Y-59705413D01*
X174399956Y-59969814D01*
X174689571Y-60110704D01*
X175001108Y-60192384D01*
X175322595Y-60211718D01*
X175641675Y-60167961D01*
X175946088Y-60062795D01*
X176120044Y-59969814D01*
X176215808Y-59705413D01*
X175260000Y-58749605D01*
X174304192Y-59705413D01*
X171936826Y-59705413D01*
X172029987Y-59612252D01*
X172208918Y-59344463D01*
X172332168Y-59046912D01*
X172395000Y-58731033D01*
X172395000Y-58632595D01*
X173618282Y-58632595D01*
X173662039Y-58951675D01*
X173767205Y-59256088D01*
X173860186Y-59430044D01*
X174124587Y-59525808D01*
X175080395Y-58570000D01*
X175439605Y-58570000D01*
X176395413Y-59525808D01*
X176659814Y-59430044D01*
X176800704Y-59140429D01*
X176882384Y-58828892D01*
X176901718Y-58507405D01*
X176857961Y-58188325D01*
X176752795Y-57883912D01*
X176659814Y-57709956D01*
X176395413Y-57614192D01*
X175439605Y-58570000D01*
X175080395Y-58570000D01*
X174124587Y-57614192D01*
X173860186Y-57709956D01*
X173719296Y-57999571D01*
X173637616Y-58311108D01*
X173618282Y-58632595D01*
X172395000Y-58632595D01*
X172395000Y-58408967D01*
X172332168Y-58093088D01*
X172208918Y-57795537D01*
X172029987Y-57527748D01*
X171936826Y-57434587D01*
X174304192Y-57434587D01*
X175260000Y-58390395D01*
X176215808Y-57434587D01*
X176120044Y-57170186D01*
X175830429Y-57029296D01*
X175518892Y-56947616D01*
X175197405Y-56928282D01*
X174878325Y-56972039D01*
X174573912Y-57077205D01*
X174399956Y-57170186D01*
X174304192Y-57434587D01*
X171936826Y-57434587D01*
X171802252Y-57300013D01*
X171534463Y-57121082D01*
X171520000Y-57115091D01*
X171520000Y-53524909D01*
X171534463Y-53518918D01*
X171802252Y-53339987D01*
X171936826Y-53205413D01*
X174304192Y-53205413D01*
X174399956Y-53469814D01*
X174689571Y-53610704D01*
X175001108Y-53692384D01*
X175322595Y-53711718D01*
X175641675Y-53667961D01*
X175946088Y-53562795D01*
X176120044Y-53469814D01*
X176215808Y-53205413D01*
X176130267Y-53119872D01*
X178105000Y-53119872D01*
X178105000Y-53560128D01*
X178190890Y-53991925D01*
X178359369Y-54398669D01*
X178603962Y-54764729D01*
X178915271Y-55076038D01*
X179281331Y-55320631D01*
X179688075Y-55489110D01*
X180119872Y-55575000D01*
X180560128Y-55575000D01*
X180991925Y-55489110D01*
X181398669Y-55320631D01*
X181764729Y-55076038D01*
X182076038Y-54764729D01*
X182320631Y-54398669D01*
X182489110Y-53991925D01*
X182575000Y-53560128D01*
X182575000Y-53119872D01*
X182489110Y-52688075D01*
X182320631Y-52281331D01*
X182076038Y-51915271D01*
X181764729Y-51603962D01*
X181398669Y-51359369D01*
X180991925Y-51190890D01*
X180560128Y-51105000D01*
X180119872Y-51105000D01*
X179688075Y-51190890D01*
X179281331Y-51359369D01*
X178915271Y-51603962D01*
X178603962Y-51915271D01*
X178359369Y-52281331D01*
X178190890Y-52688075D01*
X178105000Y-53119872D01*
X176130267Y-53119872D01*
X175260000Y-52249605D01*
X174304192Y-53205413D01*
X171936826Y-53205413D01*
X172029987Y-53112252D01*
X172208918Y-52844463D01*
X172332168Y-52546912D01*
X172395000Y-52231033D01*
X172395000Y-52132595D01*
X173618282Y-52132595D01*
X173662039Y-52451675D01*
X173767205Y-52756088D01*
X173860186Y-52930044D01*
X174124587Y-53025808D01*
X175080395Y-52070000D01*
X175439605Y-52070000D01*
X176395413Y-53025808D01*
X176659814Y-52930044D01*
X176800704Y-52640429D01*
X176882384Y-52328892D01*
X176901718Y-52007405D01*
X176857961Y-51688325D01*
X176752795Y-51383912D01*
X176659814Y-51209956D01*
X176395413Y-51114192D01*
X175439605Y-52070000D01*
X175080395Y-52070000D01*
X174124587Y-51114192D01*
X173860186Y-51209956D01*
X173719296Y-51499571D01*
X173637616Y-51811108D01*
X173618282Y-52132595D01*
X172395000Y-52132595D01*
X172395000Y-51908967D01*
X172332168Y-51593088D01*
X172208918Y-51295537D01*
X172029987Y-51027748D01*
X171936826Y-50934587D01*
X174304192Y-50934587D01*
X175260000Y-51890395D01*
X176215808Y-50934587D01*
X176120044Y-50670186D01*
X175830429Y-50529296D01*
X175518892Y-50447616D01*
X175197405Y-50428282D01*
X174878325Y-50472039D01*
X174573912Y-50577205D01*
X174399956Y-50670186D01*
X174304192Y-50934587D01*
X171936826Y-50934587D01*
X171802252Y-50800013D01*
X171534463Y-50621082D01*
X171236912Y-50497832D01*
X170921033Y-50435000D01*
X170598967Y-50435000D01*
X170283088Y-50497832D01*
X169985537Y-50621082D01*
X169717748Y-50800013D01*
X169490013Y-51027748D01*
X169311082Y-51295537D01*
X169187832Y-51593088D01*
X169125000Y-51908967D01*
X169125000Y-52231033D01*
X169187832Y-52546912D01*
X169311082Y-52844463D01*
X169490013Y-53112252D01*
X169717748Y-53339987D01*
X169985537Y-53518918D01*
X170000000Y-53524909D01*
X170000001Y-57115091D01*
X169985537Y-57121082D01*
X169717748Y-57300013D01*
X169490013Y-57527748D01*
X169311082Y-57795537D01*
X169304948Y-57810345D01*
X169196801Y-57820997D01*
X169053540Y-57864454D01*
X168921511Y-57935026D01*
X168805786Y-58029999D01*
X168781988Y-58058997D01*
X163320000Y-63520986D01*
X163320000Y-59634801D01*
X165536731Y-57418072D01*
X165751600Y-57418072D01*
X165924542Y-57401039D01*
X166090838Y-57350593D01*
X166244097Y-57268675D01*
X166378430Y-57158430D01*
X166488675Y-57024097D01*
X166570593Y-56870838D01*
X166621039Y-56704542D01*
X166638072Y-56531600D01*
X166638072Y-55228400D01*
X166621039Y-55055458D01*
X166570593Y-54889162D01*
X166488675Y-54735903D01*
X166378430Y-54601570D01*
X166244097Y-54491325D01*
X166090838Y-54409407D01*
X165924542Y-54358961D01*
X165751600Y-54341928D01*
X164448400Y-54341928D01*
X164275458Y-54358961D01*
X164109162Y-54409407D01*
X163955903Y-54491325D01*
X163821570Y-54601570D01*
X163711325Y-54735903D01*
X163629407Y-54889162D01*
X163585412Y-55034193D01*
X162739605Y-55880000D01*
X163585412Y-56725807D01*
X163629407Y-56870838D01*
X163711325Y-57024097D01*
X163742777Y-57062421D01*
X162246051Y-58559148D01*
X162248072Y-58155000D01*
X162235812Y-58030518D01*
X162199502Y-57910820D01*
X162140537Y-57800506D01*
X162061185Y-57703815D01*
X161964494Y-57624463D01*
X161854180Y-57565498D01*
X161734482Y-57529188D01*
X161610000Y-57516928D01*
X161233250Y-57520000D01*
X161074500Y-57678750D01*
X161074500Y-58928000D01*
X161094500Y-58928000D01*
X161094500Y-59182000D01*
X161074500Y-59182000D01*
X161074500Y-60431250D01*
X161233250Y-60590000D01*
X161610000Y-60593072D01*
X161734482Y-60580812D01*
X161800000Y-60560937D01*
X161800001Y-64060195D01*
X158384002Y-67476195D01*
X158354998Y-67499998D01*
X158299870Y-67567173D01*
X158260025Y-67615723D01*
X158222462Y-67685998D01*
X158189453Y-67747753D01*
X158145996Y-67891014D01*
X158134999Y-68002667D01*
X158134999Y-68002677D01*
X158131323Y-68039999D01*
X150545000Y-68039999D01*
X150545000Y-57048061D01*
X155810000Y-57048061D01*
X155810000Y-57251939D01*
X155849774Y-57451898D01*
X155927795Y-57640256D01*
X156041063Y-57809774D01*
X156085001Y-57853712D01*
X156085001Y-58040168D01*
X156081324Y-58077500D01*
X156085001Y-58114833D01*
X156095998Y-58226486D01*
X156109180Y-58269942D01*
X156139454Y-58369746D01*
X156210026Y-58501776D01*
X156266017Y-58570000D01*
X156305000Y-58617501D01*
X156333998Y-58641299D01*
X156521928Y-58829229D01*
X156521928Y-59705001D01*
X156538992Y-59878255D01*
X156589528Y-60044851D01*
X156671595Y-60198387D01*
X156782038Y-60332962D01*
X156916613Y-60443405D01*
X157070149Y-60525472D01*
X157236745Y-60576008D01*
X157409999Y-60593072D01*
X158235001Y-60593072D01*
X158408255Y-60576008D01*
X158574851Y-60525472D01*
X158728387Y-60443405D01*
X158862962Y-60332962D01*
X158973405Y-60198387D01*
X159055472Y-60044851D01*
X159082727Y-59955000D01*
X159646928Y-59955000D01*
X159659188Y-60079482D01*
X159695498Y-60199180D01*
X159754463Y-60309494D01*
X159833815Y-60406185D01*
X159930506Y-60485537D01*
X160040820Y-60544502D01*
X160160518Y-60580812D01*
X160285000Y-60593072D01*
X160661750Y-60590000D01*
X160820500Y-60431250D01*
X160820500Y-59182000D01*
X159808750Y-59182000D01*
X159650000Y-59340750D01*
X159646928Y-59955000D01*
X159082727Y-59955000D01*
X159106008Y-59878255D01*
X159123072Y-59705001D01*
X159123072Y-58404999D01*
X159106008Y-58231745D01*
X159082728Y-58155000D01*
X159646928Y-58155000D01*
X159650000Y-58769250D01*
X159808750Y-58928000D01*
X160820500Y-58928000D01*
X160820500Y-57678750D01*
X160661750Y-57520000D01*
X160285000Y-57516928D01*
X160160518Y-57529188D01*
X160040820Y-57565498D01*
X159930506Y-57624463D01*
X159833815Y-57703815D01*
X159754463Y-57800506D01*
X159695498Y-57910820D01*
X159659188Y-58030518D01*
X159646928Y-58155000D01*
X159082728Y-58155000D01*
X159055472Y-58065149D01*
X158973405Y-57911613D01*
X158862962Y-57777038D01*
X158728387Y-57666595D01*
X158574851Y-57584528D01*
X158408255Y-57533992D01*
X158235001Y-57516928D01*
X157813289Y-57516928D01*
X157840226Y-57451898D01*
X157880000Y-57251939D01*
X157880000Y-57048061D01*
X157840226Y-56848102D01*
X157762205Y-56659744D01*
X157648937Y-56490226D01*
X157504774Y-56346063D01*
X157335256Y-56232795D01*
X157146898Y-56154774D01*
X156946939Y-56115000D01*
X156743061Y-56115000D01*
X156543102Y-56154774D01*
X156354744Y-56232795D01*
X156185226Y-56346063D01*
X156041063Y-56490226D01*
X155927795Y-56659744D01*
X155849774Y-56848102D01*
X155810000Y-57048061D01*
X150545000Y-57048061D01*
X150545000Y-55728816D01*
X158485000Y-55728816D01*
X158485000Y-56031184D01*
X158543989Y-56327743D01*
X158659701Y-56607095D01*
X158827688Y-56858505D01*
X159041495Y-57072312D01*
X159292905Y-57240299D01*
X159572257Y-57356011D01*
X159868816Y-57415000D01*
X160171184Y-57415000D01*
X160467743Y-57356011D01*
X160747095Y-57240299D01*
X160998505Y-57072312D01*
X161126737Y-56944080D01*
X161675525Y-56944080D01*
X161759208Y-57198261D01*
X162031775Y-57329158D01*
X162324642Y-57404365D01*
X162626553Y-57420991D01*
X162925907Y-57378397D01*
X163211199Y-57278222D01*
X163360792Y-57198261D01*
X163444475Y-56944080D01*
X162560000Y-56059605D01*
X161675525Y-56944080D01*
X161126737Y-56944080D01*
X161212312Y-56858505D01*
X161314951Y-56704895D01*
X161495920Y-56764475D01*
X162380395Y-55880000D01*
X161495920Y-54995525D01*
X161314951Y-55055105D01*
X161212312Y-54901495D01*
X161126737Y-54815920D01*
X161675525Y-54815920D01*
X162560000Y-55700395D01*
X163444475Y-54815920D01*
X163360792Y-54561739D01*
X163088225Y-54430842D01*
X162795358Y-54355635D01*
X162493447Y-54339009D01*
X162194093Y-54381603D01*
X161908801Y-54481778D01*
X161759208Y-54561739D01*
X161675525Y-54815920D01*
X161126737Y-54815920D01*
X160998505Y-54687688D01*
X160747095Y-54519701D01*
X160467743Y-54403989D01*
X160171184Y-54345000D01*
X159868816Y-54345000D01*
X159572257Y-54403989D01*
X159292905Y-54519701D01*
X159041495Y-54687688D01*
X158827688Y-54901495D01*
X158659701Y-55152905D01*
X158543989Y-55432257D01*
X158485000Y-55728816D01*
X150545000Y-55728816D01*
X150545000Y-53119872D01*
X151435000Y-53119872D01*
X151435000Y-53560128D01*
X151520890Y-53991925D01*
X151689369Y-54398669D01*
X151933962Y-54764729D01*
X152245271Y-55076038D01*
X152611331Y-55320631D01*
X153018075Y-55489110D01*
X153449872Y-55575000D01*
X153890128Y-55575000D01*
X154321925Y-55489110D01*
X154728669Y-55320631D01*
X155094729Y-55076038D01*
X155406038Y-54764729D01*
X155650631Y-54398669D01*
X155819110Y-53991925D01*
X155905000Y-53560128D01*
X155905000Y-53119872D01*
X155819110Y-52688075D01*
X155650631Y-52281331D01*
X155406038Y-51915271D01*
X155094729Y-51603962D01*
X154728669Y-51359369D01*
X154321925Y-51190890D01*
X153890128Y-51105000D01*
X153449872Y-51105000D01*
X153018075Y-51190890D01*
X152611331Y-51359369D01*
X152245271Y-51603962D01*
X151933962Y-51915271D01*
X151689369Y-52281331D01*
X151520890Y-52688075D01*
X151435000Y-53119872D01*
X150545000Y-53119872D01*
X150545000Y-52036353D01*
X150535711Y-51942044D01*
X150558909Y-51705455D01*
X150664780Y-51354792D01*
X150836744Y-51031375D01*
X151068254Y-50747516D01*
X151350486Y-50514035D01*
X151672695Y-50339817D01*
X152022614Y-50231498D01*
X152269936Y-50205504D01*
X152366353Y-50215000D01*
%TA.AperFunction,Conductor*%
D22*
G36*
X152366353Y-50215000D02*
G01*
X181643647Y-50215000D01*
X181737956Y-50205711D01*
X181974545Y-50228909D01*
X182325208Y-50334780D01*
X182648625Y-50506744D01*
X182932484Y-50738254D01*
X183165965Y-51020486D01*
X183340183Y-51342695D01*
X183448502Y-51692614D01*
X183474496Y-51939937D01*
X183465000Y-52036354D01*
X183465001Y-120683647D01*
X183474289Y-120777951D01*
X183451091Y-121014545D01*
X183345220Y-121365206D01*
X183173257Y-121688623D01*
X182941748Y-121972482D01*
X182659514Y-122205965D01*
X182337304Y-122380184D01*
X181987385Y-122488502D01*
X181740064Y-122514496D01*
X181643647Y-122505000D01*
X152366353Y-122505000D01*
X152272044Y-122514289D01*
X152035455Y-122491091D01*
X151684794Y-122385220D01*
X151361377Y-122213257D01*
X151077518Y-121981748D01*
X150844035Y-121699514D01*
X150669816Y-121377304D01*
X150561498Y-121027385D01*
X150535504Y-120780064D01*
X150545000Y-120683647D01*
X150545000Y-115160475D01*
X151695000Y-115160475D01*
X151695000Y-115679525D01*
X151796261Y-116188601D01*
X151994893Y-116668141D01*
X152283262Y-117099715D01*
X152650285Y-117466738D01*
X153081859Y-117755107D01*
X153561399Y-117953739D01*
X154070475Y-118055000D01*
X154589525Y-118055000D01*
X155098601Y-117953739D01*
X155578141Y-117755107D01*
X155750410Y-117640000D01*
X159851928Y-117640000D01*
X159864188Y-117764482D01*
X159900498Y-117884180D01*
X159959463Y-117994494D01*
X160038815Y-118091185D01*
X160135506Y-118170537D01*
X160245820Y-118229502D01*
X160365518Y-118265812D01*
X160490000Y-118278072D01*
X161004250Y-118275000D01*
X161163000Y-118116250D01*
X161163000Y-116967000D01*
X160013750Y-116967000D01*
X159855000Y-117125750D01*
X159851928Y-117640000D01*
X155750410Y-117640000D01*
X156009715Y-117466738D01*
X156376738Y-117099715D01*
X156665107Y-116668141D01*
X156863739Y-116188601D01*
X156893297Y-116040000D01*
X159851928Y-116040000D01*
X159855000Y-116554250D01*
X160013750Y-116713000D01*
X161163000Y-116713000D01*
X161163000Y-115563750D01*
X161417000Y-115563750D01*
X161417000Y-116713000D01*
X161437000Y-116713000D01*
X161437000Y-116967000D01*
X161417000Y-116967000D01*
X161417000Y-118116250D01*
X161575750Y-118275000D01*
X162090000Y-118278072D01*
X162214482Y-118265812D01*
X162334180Y-118229502D01*
X162444494Y-118170537D01*
X162541185Y-118091185D01*
X162620537Y-117994494D01*
X162679502Y-117884180D01*
X162715812Y-117764482D01*
X162728072Y-117640000D01*
X162726461Y-117370387D01*
X162788320Y-117519727D01*
X162945363Y-117754759D01*
X163145241Y-117954637D01*
X163380273Y-118111680D01*
X163641426Y-118219853D01*
X163918665Y-118275000D01*
X164201335Y-118275000D01*
X164478574Y-118219853D01*
X164739727Y-118111680D01*
X164974759Y-117954637D01*
X165174637Y-117754759D01*
X165331680Y-117519727D01*
X165439853Y-117258574D01*
X165445000Y-117232699D01*
X165450147Y-117258574D01*
X165558320Y-117519727D01*
X165715363Y-117754759D01*
X165915241Y-117954637D01*
X166150273Y-118111680D01*
X166411426Y-118219853D01*
X166688665Y-118275000D01*
X166971335Y-118275000D01*
X167248574Y-118219853D01*
X167509727Y-118111680D01*
X167744759Y-117954637D01*
X167866694Y-117832702D01*
X168786903Y-117832702D01*
X168858486Y-118076671D01*
X169113996Y-118197571D01*
X169388184Y-118266300D01*
X169670512Y-118280217D01*
X169950130Y-118238787D01*
X170216292Y-118143603D01*
X170341514Y-118076671D01*
X170413097Y-117832702D01*
X169600000Y-117019605D01*
X168786903Y-117832702D01*
X167866694Y-117832702D01*
X167944637Y-117754759D01*
X168101680Y-117519727D01*
X168209853Y-117258574D01*
X168215513Y-117230118D01*
X168296397Y-117456292D01*
X168363329Y-117581514D01*
X168607298Y-117653097D01*
X169420395Y-116840000D01*
X169779605Y-116840000D01*
X170592702Y-117653097D01*
X170836671Y-117581514D01*
X170957571Y-117326004D01*
X170983212Y-117223711D01*
X170990147Y-117258574D01*
X171098320Y-117519727D01*
X171255363Y-117754759D01*
X171455241Y-117954637D01*
X171690273Y-118111680D01*
X171951426Y-118219853D01*
X172228665Y-118275000D01*
X172511335Y-118275000D01*
X172788574Y-118219853D01*
X173049727Y-118111680D01*
X173284759Y-117954637D01*
X173484637Y-117754759D01*
X173641680Y-117519727D01*
X173749853Y-117258574D01*
X173805000Y-116981335D01*
X173805000Y-116698665D01*
X173749853Y-116421426D01*
X173641680Y-116160273D01*
X173484637Y-115925241D01*
X173284759Y-115725363D01*
X173049727Y-115568320D01*
X172788574Y-115460147D01*
X172511335Y-115405000D01*
X172228665Y-115405000D01*
X171951426Y-115460147D01*
X171690273Y-115568320D01*
X171455241Y-115725363D01*
X171255363Y-115925241D01*
X171098320Y-116160273D01*
X170990147Y-116421426D01*
X170984487Y-116449882D01*
X170903603Y-116223708D01*
X170836671Y-116098486D01*
X170592702Y-116026903D01*
X169779605Y-116840000D01*
X169420395Y-116840000D01*
X169406253Y-116825858D01*
X169585858Y-116646253D01*
X169600000Y-116660395D01*
X170413097Y-115847298D01*
X170341514Y-115603329D01*
X170086004Y-115482429D01*
X169811816Y-115413700D01*
X169529488Y-115399783D01*
X169474521Y-115407927D01*
X169889746Y-114992702D01*
X170171903Y-114992702D01*
X170243486Y-115236671D01*
X170498996Y-115357571D01*
X170773184Y-115426300D01*
X171055512Y-115440217D01*
X171335130Y-115398787D01*
X171601292Y-115303603D01*
X171726514Y-115236671D01*
X171748870Y-115160475D01*
X176695000Y-115160475D01*
X176695000Y-115679525D01*
X176796261Y-116188601D01*
X176994893Y-116668141D01*
X177283262Y-117099715D01*
X177650285Y-117466738D01*
X178081859Y-117755107D01*
X178561399Y-117953739D01*
X179070475Y-118055000D01*
X179589525Y-118055000D01*
X180098601Y-117953739D01*
X180578141Y-117755107D01*
X181009715Y-117466738D01*
X181376738Y-117099715D01*
X181665107Y-116668141D01*
X181863739Y-116188601D01*
X181965000Y-115679525D01*
X181965000Y-115160475D01*
X181863739Y-114651399D01*
X181665107Y-114171859D01*
X181376738Y-113740285D01*
X181009715Y-113373262D01*
X180578141Y-113084893D01*
X180098601Y-112886261D01*
X179589525Y-112785000D01*
X179070475Y-112785000D01*
X178561399Y-112886261D01*
X178081859Y-113084893D01*
X177650285Y-113373262D01*
X177283262Y-113740285D01*
X176994893Y-114171859D01*
X176796261Y-114651399D01*
X176695000Y-115160475D01*
X171748870Y-115160475D01*
X171798097Y-114992702D01*
X170985000Y-114179605D01*
X170171903Y-114992702D01*
X169889746Y-114992702D01*
X170379192Y-114503257D01*
X170407237Y-114480241D01*
X170499086Y-114368323D01*
X170567336Y-114240636D01*
X170568458Y-114236937D01*
X170805395Y-114000000D01*
X171164605Y-114000000D01*
X171977702Y-114813097D01*
X172221671Y-114741514D01*
X172342571Y-114486004D01*
X172411300Y-114211816D01*
X172425217Y-113929488D01*
X172383787Y-113649870D01*
X172288603Y-113383708D01*
X172221671Y-113258486D01*
X171977702Y-113186903D01*
X171164605Y-114000000D01*
X170805395Y-114000000D01*
X170791253Y-113985858D01*
X170970858Y-113806253D01*
X170985000Y-113820395D01*
X171798097Y-113007298D01*
X171726514Y-112763329D01*
X171663114Y-112733330D01*
X173184195Y-111212250D01*
X173212240Y-111189234D01*
X173304089Y-111077316D01*
X173372339Y-110949629D01*
X173414367Y-110811081D01*
X173425002Y-110703101D01*
X173425002Y-110703092D01*
X173428557Y-110666997D01*
X173425002Y-110630902D01*
X173425002Y-109734999D01*
X173721928Y-109734999D01*
X173721928Y-110560001D01*
X173738992Y-110733255D01*
X173789528Y-110899851D01*
X173871595Y-111053387D01*
X173982038Y-111187962D01*
X174116613Y-111298405D01*
X174270149Y-111380472D01*
X174293940Y-111387689D01*
X174264774Y-111458102D01*
X174225000Y-111658061D01*
X174225000Y-111861939D01*
X174264774Y-112061898D01*
X174342795Y-112250256D01*
X174456063Y-112419774D01*
X174600226Y-112563937D01*
X174769744Y-112677205D01*
X174958102Y-112755226D01*
X175158061Y-112795000D01*
X175361939Y-112795000D01*
X175561898Y-112755226D01*
X175750256Y-112677205D01*
X175919774Y-112563937D01*
X176063937Y-112419774D01*
X176177205Y-112250256D01*
X176255226Y-112061898D01*
X176295000Y-111861939D01*
X176295000Y-111658061D01*
X176255226Y-111458102D01*
X176226060Y-111387689D01*
X176249851Y-111380472D01*
X176403387Y-111298405D01*
X176537962Y-111187962D01*
X176648405Y-111053387D01*
X176730472Y-110899851D01*
X176781008Y-110733255D01*
X176798072Y-110560001D01*
X176798072Y-109734999D01*
X176781008Y-109561745D01*
X176730472Y-109395149D01*
X176648405Y-109241613D01*
X176537962Y-109107038D01*
X176403387Y-108996595D01*
X176249851Y-108914528D01*
X176083255Y-108863992D01*
X175910001Y-108846928D01*
X174609999Y-108846928D01*
X174436745Y-108863992D01*
X174270149Y-108914528D01*
X174116613Y-108996595D01*
X173982038Y-109107038D01*
X173871595Y-109241613D01*
X173789528Y-109395149D01*
X173738992Y-109561745D01*
X173721928Y-109734999D01*
X173425002Y-109734999D01*
X173425002Y-107685000D01*
X173721928Y-107685000D01*
X173734188Y-107809482D01*
X173770498Y-107929180D01*
X173829463Y-108039494D01*
X173908815Y-108136185D01*
X174005506Y-108215537D01*
X174115820Y-108274502D01*
X174235518Y-108310812D01*
X174360000Y-108323072D01*
X174974250Y-108320000D01*
X175133000Y-108161250D01*
X175133000Y-107149500D01*
X175387000Y-107149500D01*
X175387000Y-108161250D01*
X175545750Y-108320000D01*
X176160000Y-108323072D01*
X176284482Y-108310812D01*
X176404180Y-108274502D01*
X176514494Y-108215537D01*
X176611185Y-108136185D01*
X176690537Y-108039494D01*
X176749502Y-107929180D01*
X176785812Y-107809482D01*
X176798072Y-107685000D01*
X176795000Y-107308250D01*
X176636250Y-107149500D01*
X175387000Y-107149500D01*
X175133000Y-107149500D01*
X173883750Y-107149500D01*
X173725000Y-107308250D01*
X173721928Y-107685000D01*
X173425002Y-107685000D01*
X173425002Y-106360000D01*
X173721928Y-106360000D01*
X173725000Y-106736750D01*
X173883750Y-106895500D01*
X175133000Y-106895500D01*
X175133000Y-105883750D01*
X175387000Y-105883750D01*
X175387000Y-106895500D01*
X176636250Y-106895500D01*
X176795000Y-106736750D01*
X176798072Y-106360000D01*
X176785812Y-106235518D01*
X176749502Y-106115820D01*
X176690537Y-106005506D01*
X176611185Y-105908815D01*
X176514494Y-105829463D01*
X176404180Y-105770498D01*
X176284482Y-105734188D01*
X176160000Y-105721928D01*
X175545750Y-105725000D01*
X175387000Y-105883750D01*
X175133000Y-105883750D01*
X174974250Y-105725000D01*
X174360000Y-105721928D01*
X174235518Y-105734188D01*
X174115820Y-105770498D01*
X174005506Y-105829463D01*
X173908815Y-105908815D01*
X173829463Y-106005506D01*
X173770498Y-106115820D01*
X173734188Y-106235518D01*
X173721928Y-106360000D01*
X173425002Y-106360000D01*
X173425002Y-103998665D01*
X173825000Y-103998665D01*
X173825000Y-104281335D01*
X173880147Y-104558574D01*
X173988320Y-104819727D01*
X174145363Y-105054759D01*
X174345241Y-105254637D01*
X174580273Y-105411680D01*
X174841426Y-105519853D01*
X175118665Y-105575000D01*
X175401335Y-105575000D01*
X175678574Y-105519853D01*
X175939727Y-105411680D01*
X176174759Y-105254637D01*
X176374637Y-105054759D01*
X176531680Y-104819727D01*
X176639853Y-104558574D01*
X176695000Y-104281335D01*
X176695000Y-103998665D01*
X176639853Y-103721426D01*
X176531680Y-103460273D01*
X176374637Y-103225241D01*
X176174759Y-103025363D01*
X175939727Y-102868320D01*
X175929135Y-102863933D01*
X176115131Y-102752385D01*
X176323519Y-102563414D01*
X176491037Y-102337420D01*
X176611246Y-102083087D01*
X176651904Y-101949039D01*
X176529915Y-101727000D01*
X175387000Y-101727000D01*
X175387000Y-101747000D01*
X175133000Y-101747000D01*
X175133000Y-101727000D01*
X173990085Y-101727000D01*
X173868096Y-101949039D01*
X173908754Y-102083087D01*
X174028963Y-102337420D01*
X174196481Y-102563414D01*
X174404869Y-102752385D01*
X174590865Y-102863933D01*
X174580273Y-102868320D01*
X174345241Y-103025363D01*
X174145363Y-103225241D01*
X173988320Y-103460273D01*
X173880147Y-103721426D01*
X173825000Y-103998665D01*
X173425002Y-103998665D01*
X173425002Y-98153301D01*
X173428557Y-98117206D01*
X173425002Y-98081111D01*
X173425002Y-98081102D01*
X173414367Y-97973122D01*
X173372339Y-97834574D01*
X173304089Y-97706887D01*
X173250028Y-97641014D01*
X173235255Y-97623013D01*
X173235252Y-97623010D01*
X173212239Y-97594969D01*
X173184199Y-97571957D01*
X171858052Y-96245811D01*
X171835032Y-96217761D01*
X171723114Y-96125912D01*
X171678250Y-96101932D01*
X171668084Y-96068418D01*
X171595258Y-95932171D01*
X171556546Y-95885000D01*
X171595258Y-95837829D01*
X171668084Y-95701582D01*
X171712929Y-95553745D01*
X171728072Y-95400000D01*
X171728072Y-95100000D01*
X171712929Y-94946255D01*
X171668084Y-94798418D01*
X171595258Y-94662171D01*
X171556546Y-94615000D01*
X171595258Y-94567829D01*
X171668084Y-94431582D01*
X171712929Y-94283745D01*
X171728072Y-94130000D01*
X171728072Y-93830000D01*
X171712929Y-93676255D01*
X171668084Y-93528418D01*
X171595258Y-93392171D01*
X171556546Y-93345000D01*
X171595258Y-93297829D01*
X171668084Y-93161582D01*
X171712929Y-93013745D01*
X171728072Y-92860000D01*
X171728072Y-92560000D01*
X171712929Y-92406255D01*
X171668084Y-92258418D01*
X171595258Y-92122171D01*
X171497251Y-92002749D01*
X171377829Y-91904742D01*
X171241582Y-91831916D01*
X171149508Y-91803986D01*
X171175226Y-91741898D01*
X171215000Y-91541939D01*
X171215000Y-91338061D01*
X171175226Y-91138102D01*
X171097205Y-90949744D01*
X171008461Y-90816929D01*
X171169851Y-90767972D01*
X171323387Y-90685905D01*
X171457962Y-90575462D01*
X171568405Y-90440887D01*
X171650472Y-90287351D01*
X171701008Y-90120755D01*
X171718072Y-89947501D01*
X171718072Y-89122499D01*
X171701008Y-88949245D01*
X171650472Y-88782649D01*
X171568405Y-88629113D01*
X171457962Y-88494538D01*
X171323387Y-88384095D01*
X171169851Y-88302028D01*
X171003255Y-88251492D01*
X170830001Y-88234428D01*
X169529999Y-88234428D01*
X169356745Y-88251492D01*
X169190149Y-88302028D01*
X169036613Y-88384095D01*
X168902038Y-88494538D01*
X168791595Y-88629113D01*
X168709528Y-88782649D01*
X168658992Y-88949245D01*
X168641928Y-89122499D01*
X168641928Y-89947501D01*
X168658992Y-90120755D01*
X168709528Y-90287351D01*
X168791595Y-90440887D01*
X168902038Y-90575462D01*
X169036613Y-90685905D01*
X169190149Y-90767972D01*
X169351539Y-90816929D01*
X169262795Y-90949744D01*
X169184774Y-91138102D01*
X169145000Y-91338061D01*
X169145000Y-91541939D01*
X169184774Y-91741898D01*
X169200850Y-91780709D01*
X169136255Y-91787071D01*
X168988418Y-91831916D01*
X168852171Y-91904742D01*
X168732749Y-92002749D01*
X168634742Y-92122171D01*
X168561916Y-92258418D01*
X168517071Y-92406255D01*
X168501928Y-92560000D01*
X168501928Y-92860000D01*
X168517071Y-93013745D01*
X168561916Y-93161582D01*
X168634742Y-93297829D01*
X168673454Y-93345000D01*
X168634742Y-93392171D01*
X168561916Y-93528418D01*
X168517071Y-93676255D01*
X168501928Y-93830000D01*
X168501928Y-94130000D01*
X168517071Y-94283745D01*
X168561916Y-94431582D01*
X168634742Y-94567829D01*
X168673454Y-94615000D01*
X168634742Y-94662171D01*
X168561916Y-94798418D01*
X168517071Y-94946255D01*
X168501928Y-95100000D01*
X168501928Y-95400000D01*
X168509300Y-95474842D01*
X168345798Y-95638344D01*
X168317752Y-95661361D01*
X168225903Y-95773279D01*
X168157653Y-95900966D01*
X168140579Y-95957251D01*
X168115625Y-96039513D01*
X168101434Y-96183598D01*
X168104990Y-96219703D01*
X168104990Y-96820297D01*
X168101434Y-96856402D01*
X168104990Y-96892507D01*
X168115625Y-97000487D01*
X168157654Y-97139035D01*
X168225904Y-97266722D01*
X168317753Y-97378640D01*
X168345798Y-97401656D01*
X168509300Y-97565158D01*
X168501928Y-97640000D01*
X168501928Y-97940000D01*
X168509299Y-98014842D01*
X167895807Y-98628335D01*
X167867761Y-98651352D01*
X167775912Y-98763270D01*
X167707662Y-98890957D01*
X167685394Y-98964365D01*
X167665634Y-99029504D01*
X167651443Y-99173589D01*
X167654999Y-99209694D01*
X167655000Y-100816679D01*
X167651443Y-100852794D01*
X167665634Y-100996879D01*
X167689855Y-101076722D01*
X167707663Y-101135427D01*
X167775913Y-101263114D01*
X167867762Y-101375032D01*
X167895807Y-101398048D01*
X168758457Y-102260699D01*
X168529157Y-102490000D01*
X167816944Y-102490000D01*
X167815472Y-102485149D01*
X167733405Y-102331613D01*
X167622962Y-102197038D01*
X167488387Y-102086595D01*
X167334851Y-102004528D01*
X167168255Y-101953992D01*
X166995001Y-101936928D01*
X165744999Y-101936928D01*
X165571745Y-101953992D01*
X165405149Y-102004528D01*
X165251613Y-102086595D01*
X165117038Y-102197038D01*
X165006595Y-102331613D01*
X164924528Y-102485149D01*
X164873992Y-102651745D01*
X164856928Y-102824999D01*
X164856928Y-103625001D01*
X164873992Y-103798255D01*
X164924528Y-103964851D01*
X165006595Y-104118387D01*
X165117038Y-104252962D01*
X165251613Y-104363405D01*
X165405149Y-104445472D01*
X165406759Y-104445960D01*
X164700798Y-105151922D01*
X164672752Y-105174939D01*
X164580903Y-105286857D01*
X164512653Y-105414544D01*
X164495668Y-105470537D01*
X164470625Y-105553091D01*
X164456434Y-105697176D01*
X164459990Y-105733282D01*
X164459991Y-106916709D01*
X164456434Y-106952824D01*
X164470625Y-107096909D01*
X164496938Y-107183649D01*
X164512654Y-107235457D01*
X164580904Y-107363144D01*
X164672753Y-107475062D01*
X164700798Y-107498078D01*
X165185009Y-107982290D01*
X165185010Y-112164999D01*
X164953095Y-112164999D01*
X164916998Y-112161444D01*
X164880901Y-112164999D01*
X164880894Y-112164999D01*
X164787131Y-112174234D01*
X164772913Y-112175634D01*
X164744428Y-112184275D01*
X164634366Y-112217662D01*
X164506679Y-112285912D01*
X164394761Y-112377761D01*
X164371745Y-112405806D01*
X163850807Y-112926745D01*
X163822761Y-112949762D01*
X163730912Y-113061680D01*
X163662662Y-113189367D01*
X163661540Y-113193065D01*
X162854605Y-114000000D01*
X162868748Y-114014143D01*
X162689143Y-114193748D01*
X162675000Y-114179605D01*
X161861903Y-114992702D01*
X161933486Y-115236671D01*
X162188996Y-115357571D01*
X162463184Y-115426300D01*
X162745512Y-115440217D01*
X163025130Y-115398787D01*
X163291292Y-115303603D01*
X163416514Y-115236671D01*
X163488097Y-114992704D01*
X163604370Y-115108977D01*
X163609999Y-115103348D01*
X163610000Y-115473164D01*
X163380273Y-115568320D01*
X163145241Y-115725363D01*
X162945363Y-115925241D01*
X162788320Y-116160273D01*
X162726461Y-116309613D01*
X162728072Y-116040000D01*
X162715812Y-115915518D01*
X162679502Y-115795820D01*
X162620537Y-115685506D01*
X162541185Y-115588815D01*
X162444494Y-115509463D01*
X162334180Y-115450498D01*
X162214482Y-115414188D01*
X162090000Y-115401928D01*
X161575750Y-115405000D01*
X161417000Y-115563750D01*
X161163000Y-115563750D01*
X161004250Y-115405000D01*
X160490000Y-115401928D01*
X160365518Y-115414188D01*
X160245820Y-115450498D01*
X160135506Y-115509463D01*
X160038815Y-115588815D01*
X159959463Y-115685506D01*
X159900498Y-115795820D01*
X159864188Y-115915518D01*
X159851928Y-116040000D01*
X156893297Y-116040000D01*
X156965000Y-115679525D01*
X156965000Y-115160475D01*
X156863739Y-114651399D01*
X156665107Y-114171859D01*
X156597389Y-114070512D01*
X161234783Y-114070512D01*
X161276213Y-114350130D01*
X161371397Y-114616292D01*
X161438329Y-114741514D01*
X161682298Y-114813097D01*
X162495395Y-114000000D01*
X161682298Y-113186903D01*
X161438329Y-113258486D01*
X161317429Y-113513996D01*
X161248700Y-113788184D01*
X161234783Y-114070512D01*
X156597389Y-114070512D01*
X156376738Y-113740285D01*
X156009715Y-113373262D01*
X155578141Y-113084893D01*
X155390811Y-113007298D01*
X161861903Y-113007298D01*
X162675000Y-113820395D01*
X163488097Y-113007298D01*
X163416514Y-112763329D01*
X163161004Y-112642429D01*
X162886816Y-112573700D01*
X162604488Y-112559783D01*
X162324870Y-112601213D01*
X162058708Y-112696397D01*
X161933486Y-112763329D01*
X161861903Y-113007298D01*
X155390811Y-113007298D01*
X155098601Y-112886261D01*
X154589525Y-112785000D01*
X154070475Y-112785000D01*
X153561399Y-112886261D01*
X153081859Y-113084893D01*
X152650285Y-113373262D01*
X152283262Y-113740285D01*
X151994893Y-114171859D01*
X151796261Y-114651399D01*
X151695000Y-115160475D01*
X150545000Y-115160475D01*
X150545000Y-96785000D01*
X150806928Y-96785000D01*
X150819188Y-96909482D01*
X150855498Y-97029180D01*
X150914463Y-97139494D01*
X150993815Y-97236185D01*
X151090506Y-97315537D01*
X151200820Y-97374502D01*
X151320518Y-97410812D01*
X151445000Y-97423072D01*
X151821750Y-97420000D01*
X151980500Y-97261250D01*
X151980500Y-96012000D01*
X152234500Y-96012000D01*
X152234500Y-97261250D01*
X152393250Y-97420000D01*
X152770000Y-97423072D01*
X152894482Y-97410812D01*
X153014180Y-97374502D01*
X153124494Y-97315537D01*
X153221185Y-97236185D01*
X153300537Y-97139494D01*
X153359502Y-97029180D01*
X153395812Y-96909482D01*
X153408072Y-96785000D01*
X153405000Y-96170750D01*
X153246250Y-96012000D01*
X152234500Y-96012000D01*
X151980500Y-96012000D01*
X150968750Y-96012000D01*
X150810000Y-96170750D01*
X150806928Y-96785000D01*
X150545000Y-96785000D01*
X150545000Y-94985000D01*
X150806928Y-94985000D01*
X150810000Y-95599250D01*
X150968750Y-95758000D01*
X151980500Y-95758000D01*
X151980500Y-94508750D01*
X152234500Y-94508750D01*
X152234500Y-95758000D01*
X153246250Y-95758000D01*
X153405000Y-95599250D01*
X153406821Y-95234999D01*
X153931928Y-95234999D01*
X153931928Y-96535001D01*
X153948992Y-96708255D01*
X153999528Y-96874851D01*
X154081595Y-97028387D01*
X154192038Y-97162962D01*
X154326613Y-97273405D01*
X154480149Y-97355472D01*
X154646745Y-97406008D01*
X154819999Y-97423072D01*
X155645001Y-97423072D01*
X155818255Y-97406008D01*
X155984851Y-97355472D01*
X156138387Y-97273405D01*
X156272962Y-97162962D01*
X156383405Y-97028387D01*
X156465472Y-96874851D01*
X156472689Y-96851060D01*
X156543102Y-96880226D01*
X156743061Y-96920000D01*
X156946939Y-96920000D01*
X157146898Y-96880226D01*
X157335256Y-96802205D01*
X157504774Y-96688937D01*
X157648937Y-96544774D01*
X157762205Y-96375256D01*
X157840226Y-96186898D01*
X157880000Y-95986939D01*
X157880000Y-95783061D01*
X157840226Y-95583102D01*
X157762205Y-95394744D01*
X157648937Y-95225226D01*
X157504774Y-95081063D01*
X157335256Y-94967795D01*
X157146898Y-94889774D01*
X156946939Y-94850000D01*
X156743061Y-94850000D01*
X156543102Y-94889774D01*
X156472689Y-94918940D01*
X156465472Y-94895149D01*
X156383405Y-94741613D01*
X156272962Y-94607038D01*
X156138387Y-94496595D01*
X155984851Y-94414528D01*
X155818255Y-94363992D01*
X155645001Y-94346928D01*
X154819999Y-94346928D01*
X154646745Y-94363992D01*
X154480149Y-94414528D01*
X154326613Y-94496595D01*
X154192038Y-94607038D01*
X154081595Y-94741613D01*
X153999528Y-94895149D01*
X153948992Y-95061745D01*
X153931928Y-95234999D01*
X153406821Y-95234999D01*
X153408072Y-94985000D01*
X153395812Y-94860518D01*
X153359502Y-94740820D01*
X153300537Y-94630506D01*
X153221185Y-94533815D01*
X153124494Y-94454463D01*
X153014180Y-94395498D01*
X152894482Y-94359188D01*
X152770000Y-94346928D01*
X152393250Y-94350000D01*
X152234500Y-94508750D01*
X151980500Y-94508750D01*
X151821750Y-94350000D01*
X151445000Y-94346928D01*
X151320518Y-94359188D01*
X151200820Y-94395498D01*
X151090506Y-94454463D01*
X150993815Y-94533815D01*
X150914463Y-94630506D01*
X150855498Y-94740820D01*
X150819188Y-94860518D01*
X150806928Y-94985000D01*
X150545000Y-94985000D01*
X150545000Y-91796890D01*
X152228524Y-91796890D01*
X152273175Y-91944099D01*
X152398359Y-92206920D01*
X152572412Y-92440269D01*
X152788645Y-92635178D01*
X153038748Y-92784157D01*
X153313109Y-92881481D01*
X153543000Y-92760814D01*
X153543000Y-91567000D01*
X153797000Y-91567000D01*
X153797000Y-92760814D01*
X154026891Y-92881481D01*
X154301252Y-92784157D01*
X154551355Y-92635178D01*
X154767588Y-92440269D01*
X154941641Y-92206920D01*
X155066825Y-91944099D01*
X155111476Y-91796890D01*
X154990155Y-91567000D01*
X153797000Y-91567000D01*
X153543000Y-91567000D01*
X152349845Y-91567000D01*
X152228524Y-91796890D01*
X150545000Y-91796890D01*
X150545000Y-75350000D01*
X152181928Y-75350000D01*
X152181928Y-77050000D01*
X152194188Y-77174482D01*
X152230498Y-77294180D01*
X152289463Y-77404494D01*
X152368815Y-77501185D01*
X152465506Y-77580537D01*
X152575820Y-77639502D01*
X152648380Y-77661513D01*
X152516525Y-77793368D01*
X152354010Y-78036589D01*
X152242068Y-78306842D01*
X152185000Y-78593740D01*
X152185000Y-78886260D01*
X152242068Y-79173158D01*
X152354010Y-79443411D01*
X152516525Y-79686632D01*
X152723368Y-79893475D01*
X152897760Y-80010000D01*
X152723368Y-80126525D01*
X152516525Y-80333368D01*
X152354010Y-80576589D01*
X152242068Y-80846842D01*
X152185000Y-81133740D01*
X152185000Y-81426260D01*
X152242068Y-81713158D01*
X152354010Y-81983411D01*
X152516525Y-82226632D01*
X152723368Y-82433475D01*
X152897760Y-82550000D01*
X152723368Y-82666525D01*
X152516525Y-82873368D01*
X152354010Y-83116589D01*
X152242068Y-83386842D01*
X152185000Y-83673740D01*
X152185000Y-83966260D01*
X152242068Y-84253158D01*
X152354010Y-84523411D01*
X152516525Y-84766632D01*
X152723368Y-84973475D01*
X152897760Y-85090000D01*
X152723368Y-85206525D01*
X152516525Y-85413368D01*
X152354010Y-85656589D01*
X152242068Y-85926842D01*
X152185000Y-86213740D01*
X152185000Y-86506260D01*
X152242068Y-86793158D01*
X152354010Y-87063411D01*
X152516525Y-87306632D01*
X152723368Y-87513475D01*
X152897760Y-87630000D01*
X152723368Y-87746525D01*
X152516525Y-87953368D01*
X152354010Y-88196589D01*
X152242068Y-88466842D01*
X152185000Y-88753740D01*
X152185000Y-89046260D01*
X152242068Y-89333158D01*
X152354010Y-89603411D01*
X152516525Y-89846632D01*
X152723368Y-90053475D01*
X152905534Y-90175195D01*
X152788645Y-90244822D01*
X152572412Y-90439731D01*
X152398359Y-90673080D01*
X152273175Y-90935901D01*
X152228524Y-91083110D01*
X152349845Y-91313000D01*
X153543000Y-91313000D01*
X153543000Y-91293000D01*
X153797000Y-91293000D01*
X153797000Y-91313000D01*
X154990155Y-91313000D01*
X155111476Y-91083110D01*
X155066825Y-90935901D01*
X154941641Y-90673080D01*
X154767588Y-90439731D01*
X154551355Y-90244822D01*
X154434466Y-90175195D01*
X154616632Y-90053475D01*
X154823475Y-89846632D01*
X154985990Y-89603411D01*
X155097932Y-89333158D01*
X155155000Y-89046260D01*
X155155000Y-88753740D01*
X155097932Y-88466842D01*
X154985990Y-88196589D01*
X154823475Y-87953368D01*
X154616632Y-87746525D01*
X154442240Y-87630000D01*
X154616632Y-87513475D01*
X154823475Y-87306632D01*
X154985990Y-87063411D01*
X155097932Y-86793158D01*
X155155000Y-86506260D01*
X155155000Y-86213740D01*
X155097932Y-85926842D01*
X154985990Y-85656589D01*
X154823475Y-85413368D01*
X154616632Y-85206525D01*
X154442240Y-85090000D01*
X154616632Y-84973475D01*
X154823475Y-84766632D01*
X154985990Y-84523411D01*
X155097932Y-84253158D01*
X155155000Y-83966260D01*
X155155000Y-83673740D01*
X155097932Y-83386842D01*
X154985990Y-83116589D01*
X154823475Y-82873368D01*
X154616632Y-82666525D01*
X154442240Y-82550000D01*
X154616632Y-82433475D01*
X154823475Y-82226632D01*
X154985990Y-81983411D01*
X155097932Y-81713158D01*
X155155000Y-81426260D01*
X155155000Y-81133740D01*
X155097932Y-80846842D01*
X154985990Y-80576589D01*
X154823475Y-80333368D01*
X154616632Y-80126525D01*
X154442240Y-80010000D01*
X154616632Y-79893475D01*
X154823475Y-79686632D01*
X154985990Y-79443411D01*
X155097932Y-79173158D01*
X155155000Y-78886260D01*
X155155000Y-78593740D01*
X155097932Y-78306842D01*
X154985990Y-78036589D01*
X154823475Y-77793368D01*
X154691620Y-77661513D01*
X154764180Y-77639502D01*
X154874494Y-77580537D01*
X154971185Y-77501185D01*
X155050537Y-77404494D01*
X155109502Y-77294180D01*
X155145812Y-77174482D01*
X155158072Y-77050000D01*
X155158072Y-75350000D01*
X155145812Y-75225518D01*
X155109502Y-75105820D01*
X155050537Y-74995506D01*
X154971185Y-74898815D01*
X154874494Y-74819463D01*
X154764180Y-74760498D01*
X154644482Y-74724188D01*
X154520000Y-74711928D01*
X152820000Y-74711928D01*
X152695518Y-74724188D01*
X152575820Y-74760498D01*
X152465506Y-74819463D01*
X152368815Y-74898815D01*
X152289463Y-74995506D01*
X152230498Y-75105820D01*
X152194188Y-75225518D01*
X152181928Y-75350000D01*
X150545000Y-75350000D01*
X150545000Y-68039999D01*
X158131323Y-68039999D01*
X158134999Y-68077321D01*
X158135000Y-80117667D01*
X158131323Y-80154999D01*
X158145997Y-80303984D01*
X158189453Y-80447245D01*
X158260025Y-80579275D01*
X158331200Y-80666001D01*
X158354999Y-80695000D01*
X158383997Y-80718798D01*
X158621312Y-80956113D01*
X158585000Y-81138665D01*
X158585000Y-81421335D01*
X158640147Y-81698574D01*
X158748320Y-81959727D01*
X158905363Y-82194759D01*
X159105241Y-82394637D01*
X159337759Y-82550000D01*
X159105241Y-82705363D01*
X158905363Y-82905241D01*
X158748320Y-83140273D01*
X158640147Y-83401426D01*
X158585000Y-83678665D01*
X158585000Y-83961335D01*
X158640147Y-84238574D01*
X158748320Y-84499727D01*
X158905363Y-84734759D01*
X159105241Y-84934637D01*
X159337759Y-85090000D01*
X159105241Y-85245363D01*
X158905363Y-85445241D01*
X158748320Y-85680273D01*
X158640147Y-85941426D01*
X158585000Y-86218665D01*
X158585000Y-86501335D01*
X158640147Y-86778574D01*
X158748320Y-87039727D01*
X158905363Y-87274759D01*
X159105241Y-87474637D01*
X159337759Y-87630000D01*
X159105241Y-87785363D01*
X158905363Y-87985241D01*
X158748320Y-88220273D01*
X158640147Y-88481426D01*
X158585000Y-88758665D01*
X158585000Y-89041335D01*
X158640147Y-89318574D01*
X158748320Y-89579727D01*
X158905363Y-89814759D01*
X159105241Y-90014637D01*
X159337759Y-90170000D01*
X159105241Y-90325363D01*
X158905363Y-90525241D01*
X158748320Y-90760273D01*
X158640147Y-91021426D01*
X158585000Y-91298665D01*
X158585000Y-91581335D01*
X158640147Y-91858574D01*
X158748320Y-92119727D01*
X158905363Y-92354759D01*
X159105241Y-92554637D01*
X159337759Y-92710000D01*
X159105241Y-92865363D01*
X158905363Y-93065241D01*
X158748320Y-93300273D01*
X158640147Y-93561426D01*
X158585000Y-93838665D01*
X158585000Y-94121335D01*
X158640147Y-94398574D01*
X158748320Y-94659727D01*
X158905363Y-94894759D01*
X159105241Y-95094637D01*
X159340273Y-95251680D01*
X159350865Y-95256067D01*
X159164869Y-95367615D01*
X158956481Y-95556586D01*
X158788963Y-95782580D01*
X158668754Y-96036913D01*
X158628096Y-96170961D01*
X158750085Y-96393000D01*
X159893000Y-96393000D01*
X159893000Y-96373000D01*
X160147000Y-96373000D01*
X160147000Y-96393000D01*
X161289915Y-96393000D01*
X161411904Y-96170961D01*
X161371246Y-96036913D01*
X161358526Y-96010000D01*
X163643141Y-96010000D01*
X163611916Y-96068418D01*
X163567071Y-96216255D01*
X163551928Y-96370000D01*
X163551928Y-96670000D01*
X163552959Y-96680471D01*
X161431733Y-98801697D01*
X161399853Y-98641426D01*
X161291680Y-98380273D01*
X161134637Y-98145241D01*
X160934759Y-97945363D01*
X160699727Y-97788320D01*
X160689135Y-97783933D01*
X160875131Y-97672385D01*
X161083519Y-97483414D01*
X161251037Y-97257420D01*
X161371246Y-97003087D01*
X161411904Y-96869039D01*
X161289915Y-96647000D01*
X160147000Y-96647000D01*
X160147000Y-96667000D01*
X159893000Y-96667000D01*
X159893000Y-96647000D01*
X158750085Y-96647000D01*
X158628096Y-96869039D01*
X158668754Y-97003087D01*
X158788963Y-97257420D01*
X158956481Y-97483414D01*
X159164869Y-97672385D01*
X159350865Y-97783933D01*
X159340273Y-97788320D01*
X159105241Y-97945363D01*
X158905363Y-98145241D01*
X158748320Y-98380273D01*
X158640147Y-98641426D01*
X158585000Y-98918665D01*
X158585000Y-99201335D01*
X158640147Y-99478574D01*
X158748320Y-99739727D01*
X158905363Y-99974759D01*
X159105241Y-100174637D01*
X159337759Y-100330000D01*
X159105241Y-100485363D01*
X158905363Y-100685241D01*
X158748320Y-100920273D01*
X158640147Y-101181426D01*
X158585000Y-101458665D01*
X158585000Y-101741335D01*
X158640147Y-102018574D01*
X158748320Y-102279727D01*
X158905363Y-102514759D01*
X159103961Y-102713357D01*
X159095518Y-102714188D01*
X158975820Y-102750498D01*
X158865506Y-102809463D01*
X158768815Y-102888815D01*
X158689463Y-102985506D01*
X158630498Y-103095820D01*
X158594188Y-103215518D01*
X158581928Y-103340000D01*
X158581928Y-104940000D01*
X158594188Y-105064482D01*
X158630498Y-105184180D01*
X158689463Y-105294494D01*
X158768815Y-105391185D01*
X158865506Y-105470537D01*
X158975820Y-105529502D01*
X159095518Y-105565812D01*
X159220000Y-105578072D01*
X160820000Y-105578072D01*
X160944482Y-105565812D01*
X161064180Y-105529502D01*
X161174494Y-105470537D01*
X161271185Y-105391185D01*
X161350537Y-105294494D01*
X161409502Y-105184180D01*
X161445812Y-105064482D01*
X161458072Y-104940000D01*
X161458072Y-103776730D01*
X161656004Y-103578798D01*
X161685002Y-103555000D01*
X161779975Y-103439275D01*
X161850547Y-103307246D01*
X161894004Y-103163985D01*
X161905001Y-103052332D01*
X161905001Y-103052324D01*
X161908677Y-103014999D01*
X161905001Y-102977674D01*
X161905001Y-101149800D01*
X162424801Y-100630000D01*
X163551928Y-100630000D01*
X163564188Y-100754482D01*
X163600498Y-100874180D01*
X163659463Y-100984494D01*
X163738815Y-101081185D01*
X163835506Y-101160537D01*
X163945820Y-101219502D01*
X164065518Y-101255812D01*
X164190000Y-101268072D01*
X164879250Y-101265000D01*
X165038000Y-101106250D01*
X165038000Y-100457000D01*
X165292000Y-100457000D01*
X165292000Y-101106250D01*
X165450750Y-101265000D01*
X166140000Y-101268072D01*
X166264482Y-101255812D01*
X166384180Y-101219502D01*
X166494494Y-101160537D01*
X166591185Y-101081185D01*
X166670537Y-100984494D01*
X166729502Y-100874180D01*
X166765812Y-100754482D01*
X166778072Y-100630000D01*
X166775000Y-100615750D01*
X166616250Y-100457000D01*
X165292000Y-100457000D01*
X165038000Y-100457000D01*
X163713750Y-100457000D01*
X163555000Y-100615750D01*
X163551928Y-100630000D01*
X162424801Y-100630000D01*
X163565615Y-99489187D01*
X163600498Y-99604180D01*
X163649043Y-99695000D01*
X163600498Y-99785820D01*
X163564188Y-99905518D01*
X163551928Y-100030000D01*
X163555000Y-100044250D01*
X163713750Y-100203000D01*
X165038000Y-100203000D01*
X165038000Y-99187000D01*
X165292000Y-99187000D01*
X165292000Y-100203000D01*
X166616250Y-100203000D01*
X166775000Y-100044250D01*
X166778072Y-100030000D01*
X166765812Y-99905518D01*
X166729502Y-99785820D01*
X166680957Y-99695000D01*
X166729502Y-99604180D01*
X166765812Y-99484482D01*
X166778072Y-99360000D01*
X166775000Y-99345750D01*
X166616250Y-99187000D01*
X165292000Y-99187000D01*
X165038000Y-99187000D01*
X165018000Y-99187000D01*
X165018000Y-98933000D01*
X165038000Y-98933000D01*
X165038000Y-98913000D01*
X165292000Y-98913000D01*
X165292000Y-98933000D01*
X166616250Y-98933000D01*
X166775000Y-98774250D01*
X166778072Y-98760000D01*
X166765812Y-98635518D01*
X166729502Y-98515820D01*
X166670537Y-98405506D01*
X166646270Y-98375936D01*
X166718084Y-98241582D01*
X166762929Y-98093745D01*
X166778072Y-97940000D01*
X166778072Y-97640000D01*
X166777041Y-97629528D01*
X167426022Y-96980547D01*
X167455021Y-96956749D01*
X167485180Y-96920000D01*
X167549994Y-96841025D01*
X167620566Y-96708995D01*
X167621525Y-96705835D01*
X167664023Y-96565734D01*
X167675020Y-96454081D01*
X167675020Y-96454071D01*
X167678696Y-96416748D01*
X167675020Y-96379426D01*
X167675020Y-94754165D01*
X167678696Y-94716842D01*
X167675020Y-94679519D01*
X167675020Y-94679509D01*
X167664023Y-94567856D01*
X167620566Y-94424595D01*
X167571470Y-94332744D01*
X167549994Y-94292565D01*
X167478819Y-94205839D01*
X167455021Y-94176841D01*
X167426024Y-94153044D01*
X166741981Y-93469002D01*
X166718179Y-93439999D01*
X166615052Y-93355365D01*
X166606546Y-93345000D01*
X166645258Y-93297829D01*
X166718084Y-93161582D01*
X166762929Y-93013745D01*
X166778072Y-92860000D01*
X166778072Y-92560000D01*
X166762929Y-92406255D01*
X166718084Y-92258418D01*
X166645258Y-92122171D01*
X166547251Y-92002749D01*
X166427829Y-91904742D01*
X166291582Y-91831916D01*
X166143745Y-91787071D01*
X165990000Y-91771928D01*
X164340000Y-91771928D01*
X164186255Y-91787071D01*
X164038418Y-91831916D01*
X163902171Y-91904742D01*
X163782749Y-92002749D01*
X163684742Y-92122171D01*
X163611916Y-92258418D01*
X163567071Y-92406255D01*
X163551928Y-92560000D01*
X163551928Y-92860000D01*
X163560548Y-92947514D01*
X161542036Y-90929003D01*
X161518233Y-90899999D01*
X161402508Y-90805026D01*
X161276623Y-90737738D01*
X161134637Y-90525241D01*
X160934759Y-90325363D01*
X160702241Y-90170000D01*
X160934759Y-90014637D01*
X161134637Y-89814759D01*
X161291680Y-89579727D01*
X161399853Y-89318574D01*
X161455000Y-89041335D01*
X161455000Y-88758665D01*
X161418688Y-88576114D01*
X161656004Y-88338798D01*
X161685002Y-88315000D01*
X161779975Y-88199275D01*
X161850547Y-88067246D01*
X161894004Y-87923985D01*
X161905001Y-87812332D01*
X161905001Y-87812324D01*
X161908677Y-87774999D01*
X161905001Y-87737674D01*
X161905001Y-87072500D01*
X168641928Y-87072500D01*
X168654188Y-87196982D01*
X168690498Y-87316680D01*
X168749463Y-87426994D01*
X168828815Y-87523685D01*
X168925506Y-87603037D01*
X169035820Y-87662002D01*
X169155518Y-87698312D01*
X169280000Y-87710572D01*
X169894250Y-87707500D01*
X170053000Y-87548750D01*
X170053000Y-86537000D01*
X170307000Y-86537000D01*
X170307000Y-87548750D01*
X170465750Y-87707500D01*
X171080000Y-87710572D01*
X171204482Y-87698312D01*
X171324180Y-87662002D01*
X171434494Y-87603037D01*
X171531185Y-87523685D01*
X171610537Y-87426994D01*
X171669502Y-87316680D01*
X171705812Y-87196982D01*
X171718072Y-87072500D01*
X171715000Y-86695750D01*
X171556250Y-86537000D01*
X170307000Y-86537000D01*
X170053000Y-86537000D01*
X168803750Y-86537000D01*
X168645000Y-86695750D01*
X168641928Y-87072500D01*
X161905001Y-87072500D01*
X161905001Y-85747500D01*
X168641928Y-85747500D01*
X168645000Y-86124250D01*
X168803750Y-86283000D01*
X170053000Y-86283000D01*
X170053000Y-85271250D01*
X170307000Y-85271250D01*
X170307000Y-86283000D01*
X171556250Y-86283000D01*
X171715000Y-86124250D01*
X171718072Y-85747500D01*
X171705812Y-85623018D01*
X171669502Y-85503320D01*
X171610537Y-85393006D01*
X171531185Y-85296315D01*
X171434494Y-85216963D01*
X171324180Y-85157998D01*
X171204482Y-85121688D01*
X171080000Y-85109428D01*
X170465750Y-85112500D01*
X170307000Y-85271250D01*
X170053000Y-85271250D01*
X169894250Y-85112500D01*
X169280000Y-85109428D01*
X169155518Y-85121688D01*
X169035820Y-85157998D01*
X168925506Y-85216963D01*
X168828815Y-85296315D01*
X168749463Y-85393006D01*
X168690498Y-85503320D01*
X168654188Y-85623018D01*
X168641928Y-85747500D01*
X161905001Y-85747500D01*
X161905001Y-68438665D01*
X173825000Y-68438665D01*
X173825000Y-68721335D01*
X173880147Y-68998574D01*
X173988320Y-69259727D01*
X174145363Y-69494759D01*
X174345241Y-69694637D01*
X174577759Y-69850000D01*
X174345241Y-70005363D01*
X174145363Y-70205241D01*
X173988320Y-70440273D01*
X173880147Y-70701426D01*
X173825000Y-70978665D01*
X173825000Y-71261335D01*
X173880147Y-71538574D01*
X173988320Y-71799727D01*
X174145363Y-72034759D01*
X174345241Y-72234637D01*
X174577759Y-72390000D01*
X174345241Y-72545363D01*
X174145363Y-72745241D01*
X173988320Y-72980273D01*
X173880147Y-73241426D01*
X173825000Y-73518665D01*
X173825000Y-73801335D01*
X173880147Y-74078574D01*
X173988320Y-74339727D01*
X174145363Y-74574759D01*
X174345241Y-74774637D01*
X174577759Y-74930000D01*
X174345241Y-75085363D01*
X174145363Y-75285241D01*
X173988320Y-75520273D01*
X173880147Y-75781426D01*
X173825000Y-76058665D01*
X173825000Y-76341335D01*
X173880147Y-76618574D01*
X173988320Y-76879727D01*
X174145363Y-77114759D01*
X174345241Y-77314637D01*
X174577759Y-77470000D01*
X174345241Y-77625363D01*
X174145363Y-77825241D01*
X173988320Y-78060273D01*
X173880147Y-78321426D01*
X173825000Y-78598665D01*
X173825000Y-78881335D01*
X173880147Y-79158574D01*
X173988320Y-79419727D01*
X174145363Y-79654759D01*
X174345241Y-79854637D01*
X174577759Y-80010000D01*
X174345241Y-80165363D01*
X174145363Y-80365241D01*
X173988320Y-80600273D01*
X173880147Y-80861426D01*
X173825000Y-81138665D01*
X173825000Y-81421335D01*
X173880147Y-81698574D01*
X173988320Y-81959727D01*
X174145363Y-82194759D01*
X174345241Y-82394637D01*
X174577759Y-82550000D01*
X174345241Y-82705363D01*
X174145363Y-82905241D01*
X173988320Y-83140273D01*
X173880147Y-83401426D01*
X173825000Y-83678665D01*
X173825000Y-83961335D01*
X173880147Y-84238574D01*
X173988320Y-84499727D01*
X174145363Y-84734759D01*
X174345241Y-84934637D01*
X174577759Y-85090000D01*
X174345241Y-85245363D01*
X174145363Y-85445241D01*
X173988320Y-85680273D01*
X173880147Y-85941426D01*
X173825000Y-86218665D01*
X173825000Y-86501335D01*
X173880147Y-86778574D01*
X173988320Y-87039727D01*
X174145363Y-87274759D01*
X174345241Y-87474637D01*
X174577759Y-87630000D01*
X174345241Y-87785363D01*
X174145363Y-87985241D01*
X173988320Y-88220273D01*
X173880147Y-88481426D01*
X173825000Y-88758665D01*
X173825000Y-89041335D01*
X173880147Y-89318574D01*
X173988320Y-89579727D01*
X174145363Y-89814759D01*
X174345241Y-90014637D01*
X174577759Y-90170000D01*
X174345241Y-90325363D01*
X174145363Y-90525241D01*
X173988320Y-90760273D01*
X173880147Y-91021426D01*
X173825000Y-91298665D01*
X173825000Y-91581335D01*
X173880147Y-91858574D01*
X173988320Y-92119727D01*
X174145363Y-92354759D01*
X174345241Y-92554637D01*
X174577759Y-92710000D01*
X174345241Y-92865363D01*
X174145363Y-93065241D01*
X173988320Y-93300273D01*
X173880147Y-93561426D01*
X173825000Y-93838665D01*
X173825000Y-94121335D01*
X173880147Y-94398574D01*
X173988320Y-94659727D01*
X174145363Y-94894759D01*
X174345241Y-95094637D01*
X174577759Y-95250000D01*
X174345241Y-95405363D01*
X174145363Y-95605241D01*
X173988320Y-95840273D01*
X173880147Y-96101426D01*
X173825000Y-96378665D01*
X173825000Y-96661335D01*
X173880147Y-96938574D01*
X173988320Y-97199727D01*
X174145363Y-97434759D01*
X174345241Y-97634637D01*
X174577759Y-97790000D01*
X174345241Y-97945363D01*
X174145363Y-98145241D01*
X173988320Y-98380273D01*
X173880147Y-98641426D01*
X173825000Y-98918665D01*
X173825000Y-99201335D01*
X173880147Y-99478574D01*
X173988320Y-99739727D01*
X174145363Y-99974759D01*
X174345241Y-100174637D01*
X174580273Y-100331680D01*
X174590865Y-100336067D01*
X174404869Y-100447615D01*
X174196481Y-100636586D01*
X174028963Y-100862580D01*
X173908754Y-101116913D01*
X173868096Y-101250961D01*
X173990085Y-101473000D01*
X175133000Y-101473000D01*
X175133000Y-101453000D01*
X175387000Y-101453000D01*
X175387000Y-101473000D01*
X176529915Y-101473000D01*
X176651904Y-101250961D01*
X176611246Y-101116913D01*
X176491037Y-100862580D01*
X176323519Y-100636586D01*
X176115131Y-100447615D01*
X175929135Y-100336067D01*
X175939727Y-100331680D01*
X176174759Y-100174637D01*
X176374637Y-99974759D01*
X176531680Y-99739727D01*
X176639853Y-99478574D01*
X176695000Y-99201335D01*
X176695000Y-98918665D01*
X176639853Y-98641426D01*
X176531680Y-98380273D01*
X176374637Y-98145241D01*
X176174759Y-97945363D01*
X175942241Y-97790000D01*
X176174759Y-97634637D01*
X176374637Y-97434759D01*
X176531680Y-97199727D01*
X176639853Y-96938574D01*
X176695000Y-96661335D01*
X176695000Y-96378665D01*
X176639853Y-96101426D01*
X176531680Y-95840273D01*
X176374637Y-95605241D01*
X176174759Y-95405363D01*
X175942241Y-95250000D01*
X176174759Y-95094637D01*
X176374637Y-94894759D01*
X176531680Y-94659727D01*
X176639853Y-94398574D01*
X176695000Y-94121335D01*
X176695000Y-93838665D01*
X176639853Y-93561426D01*
X176531680Y-93300273D01*
X176374637Y-93065241D01*
X176174759Y-92865363D01*
X175942241Y-92710000D01*
X176174759Y-92554637D01*
X176374637Y-92354759D01*
X176531680Y-92119727D01*
X176639853Y-91858574D01*
X176695000Y-91581335D01*
X176695000Y-91298665D01*
X176639853Y-91021426D01*
X176531680Y-90760273D01*
X176374637Y-90525241D01*
X176174759Y-90325363D01*
X175942241Y-90170000D01*
X176174759Y-90014637D01*
X176374637Y-89814759D01*
X176531680Y-89579727D01*
X176639853Y-89318574D01*
X176695000Y-89041335D01*
X176695000Y-88758665D01*
X176639853Y-88481426D01*
X176531680Y-88220273D01*
X176374637Y-87985241D01*
X176174759Y-87785363D01*
X175942241Y-87630000D01*
X176174759Y-87474637D01*
X176374637Y-87274759D01*
X176531680Y-87039727D01*
X176639853Y-86778574D01*
X176695000Y-86501335D01*
X176695000Y-86218665D01*
X176639853Y-85941426D01*
X176531680Y-85680273D01*
X176374637Y-85445241D01*
X176174759Y-85245363D01*
X175942241Y-85090000D01*
X176174759Y-84934637D01*
X176374637Y-84734759D01*
X176531680Y-84499727D01*
X176639853Y-84238574D01*
X176695000Y-83961335D01*
X176695000Y-83678665D01*
X176639853Y-83401426D01*
X176531680Y-83140273D01*
X176374637Y-82905241D01*
X176174759Y-82705363D01*
X175942241Y-82550000D01*
X176174759Y-82394637D01*
X176374637Y-82194759D01*
X176531680Y-81959727D01*
X176639853Y-81698574D01*
X176695000Y-81421335D01*
X176695000Y-81138665D01*
X176639853Y-80861426D01*
X176531680Y-80600273D01*
X176374637Y-80365241D01*
X176174759Y-80165363D01*
X175942241Y-80010000D01*
X176174759Y-79854637D01*
X176374637Y-79654759D01*
X176531680Y-79419727D01*
X176639853Y-79158574D01*
X176695000Y-78881335D01*
X176695000Y-78598665D01*
X176639853Y-78321426D01*
X176531680Y-78060273D01*
X176374637Y-77825241D01*
X176174759Y-77625363D01*
X175942241Y-77470000D01*
X176174759Y-77314637D01*
X176374637Y-77114759D01*
X176531680Y-76879727D01*
X176639853Y-76618574D01*
X176695000Y-76341335D01*
X176695000Y-76058665D01*
X176639853Y-75781426D01*
X176531680Y-75520273D01*
X176374637Y-75285241D01*
X176174759Y-75085363D01*
X175942241Y-74930000D01*
X176174759Y-74774637D01*
X176374637Y-74574759D01*
X176531680Y-74339727D01*
X176639853Y-74078574D01*
X176695000Y-73801335D01*
X176695000Y-73518665D01*
X176639853Y-73241426D01*
X176531680Y-72980273D01*
X176374637Y-72745241D01*
X176174759Y-72545363D01*
X175942241Y-72390000D01*
X176174759Y-72234637D01*
X176374637Y-72034759D01*
X176531680Y-71799727D01*
X176639853Y-71538574D01*
X176695000Y-71261335D01*
X176695000Y-70978665D01*
X176639853Y-70701426D01*
X176531680Y-70440273D01*
X176374637Y-70205241D01*
X176174759Y-70005363D01*
X175942241Y-69850000D01*
X176174759Y-69694637D01*
X176374637Y-69494759D01*
X176531680Y-69259727D01*
X176639853Y-68998574D01*
X176695000Y-68721335D01*
X176695000Y-68438665D01*
X176639853Y-68161426D01*
X176531680Y-67900273D01*
X176374637Y-67665241D01*
X176174759Y-67465363D01*
X175939727Y-67308320D01*
X175678574Y-67200147D01*
X175401335Y-67145000D01*
X175118665Y-67145000D01*
X174841426Y-67200147D01*
X174580273Y-67308320D01*
X174345241Y-67465363D01*
X174145363Y-67665241D01*
X173988320Y-67900273D01*
X173880147Y-68161426D01*
X173825000Y-68438665D01*
X161905001Y-68438665D01*
X161905001Y-67085587D01*
X169445282Y-59545307D01*
X169490013Y-59612252D01*
X169717748Y-59839987D01*
X169985537Y-60018918D01*
X170283088Y-60142168D01*
X170598967Y-60205000D01*
X170921033Y-60205000D01*
X171236912Y-60142168D01*
X171534463Y-60018918D01*
X171802252Y-59839987D01*
X171936826Y-59705413D01*
X174304192Y-59705413D01*
X174399956Y-59969814D01*
X174689571Y-60110704D01*
X175001108Y-60192384D01*
X175322595Y-60211718D01*
X175641675Y-60167961D01*
X175946088Y-60062795D01*
X176120044Y-59969814D01*
X176215808Y-59705413D01*
X175260000Y-58749605D01*
X174304192Y-59705413D01*
X171936826Y-59705413D01*
X172029987Y-59612252D01*
X172208918Y-59344463D01*
X172332168Y-59046912D01*
X172395000Y-58731033D01*
X172395000Y-58632595D01*
X173618282Y-58632595D01*
X173662039Y-58951675D01*
X173767205Y-59256088D01*
X173860186Y-59430044D01*
X174124587Y-59525808D01*
X175080395Y-58570000D01*
X175439605Y-58570000D01*
X176395413Y-59525808D01*
X176659814Y-59430044D01*
X176800704Y-59140429D01*
X176882384Y-58828892D01*
X176901718Y-58507405D01*
X176857961Y-58188325D01*
X176752795Y-57883912D01*
X176659814Y-57709956D01*
X176395413Y-57614192D01*
X175439605Y-58570000D01*
X175080395Y-58570000D01*
X174124587Y-57614192D01*
X173860186Y-57709956D01*
X173719296Y-57999571D01*
X173637616Y-58311108D01*
X173618282Y-58632595D01*
X172395000Y-58632595D01*
X172395000Y-58408967D01*
X172332168Y-58093088D01*
X172208918Y-57795537D01*
X172029987Y-57527748D01*
X171936826Y-57434587D01*
X174304192Y-57434587D01*
X175260000Y-58390395D01*
X176215808Y-57434587D01*
X176120044Y-57170186D01*
X175830429Y-57029296D01*
X175518892Y-56947616D01*
X175197405Y-56928282D01*
X174878325Y-56972039D01*
X174573912Y-57077205D01*
X174399956Y-57170186D01*
X174304192Y-57434587D01*
X171936826Y-57434587D01*
X171802252Y-57300013D01*
X171534463Y-57121082D01*
X171520000Y-57115091D01*
X171520000Y-53524909D01*
X171534463Y-53518918D01*
X171802252Y-53339987D01*
X171936826Y-53205413D01*
X174304192Y-53205413D01*
X174399956Y-53469814D01*
X174689571Y-53610704D01*
X175001108Y-53692384D01*
X175322595Y-53711718D01*
X175641675Y-53667961D01*
X175946088Y-53562795D01*
X176120044Y-53469814D01*
X176215808Y-53205413D01*
X176130267Y-53119872D01*
X178105000Y-53119872D01*
X178105000Y-53560128D01*
X178190890Y-53991925D01*
X178359369Y-54398669D01*
X178603962Y-54764729D01*
X178915271Y-55076038D01*
X179281331Y-55320631D01*
X179688075Y-55489110D01*
X180119872Y-55575000D01*
X180560128Y-55575000D01*
X180991925Y-55489110D01*
X181398669Y-55320631D01*
X181764729Y-55076038D01*
X182076038Y-54764729D01*
X182320631Y-54398669D01*
X182489110Y-53991925D01*
X182575000Y-53560128D01*
X182575000Y-53119872D01*
X182489110Y-52688075D01*
X182320631Y-52281331D01*
X182076038Y-51915271D01*
X181764729Y-51603962D01*
X181398669Y-51359369D01*
X180991925Y-51190890D01*
X180560128Y-51105000D01*
X180119872Y-51105000D01*
X179688075Y-51190890D01*
X179281331Y-51359369D01*
X178915271Y-51603962D01*
X178603962Y-51915271D01*
X178359369Y-52281331D01*
X178190890Y-52688075D01*
X178105000Y-53119872D01*
X176130267Y-53119872D01*
X175260000Y-52249605D01*
X174304192Y-53205413D01*
X171936826Y-53205413D01*
X172029987Y-53112252D01*
X172208918Y-52844463D01*
X172332168Y-52546912D01*
X172395000Y-52231033D01*
X172395000Y-52132595D01*
X173618282Y-52132595D01*
X173662039Y-52451675D01*
X173767205Y-52756088D01*
X173860186Y-52930044D01*
X174124587Y-53025808D01*
X175080395Y-52070000D01*
X175439605Y-52070000D01*
X176395413Y-53025808D01*
X176659814Y-52930044D01*
X176800704Y-52640429D01*
X176882384Y-52328892D01*
X176901718Y-52007405D01*
X176857961Y-51688325D01*
X176752795Y-51383912D01*
X176659814Y-51209956D01*
X176395413Y-51114192D01*
X175439605Y-52070000D01*
X175080395Y-52070000D01*
X174124587Y-51114192D01*
X173860186Y-51209956D01*
X173719296Y-51499571D01*
X173637616Y-51811108D01*
X173618282Y-52132595D01*
X172395000Y-52132595D01*
X172395000Y-51908967D01*
X172332168Y-51593088D01*
X172208918Y-51295537D01*
X172029987Y-51027748D01*
X171936826Y-50934587D01*
X174304192Y-50934587D01*
X175260000Y-51890395D01*
X176215808Y-50934587D01*
X176120044Y-50670186D01*
X175830429Y-50529296D01*
X175518892Y-50447616D01*
X175197405Y-50428282D01*
X174878325Y-50472039D01*
X174573912Y-50577205D01*
X174399956Y-50670186D01*
X174304192Y-50934587D01*
X171936826Y-50934587D01*
X171802252Y-50800013D01*
X171534463Y-50621082D01*
X171236912Y-50497832D01*
X170921033Y-50435000D01*
X170598967Y-50435000D01*
X170283088Y-50497832D01*
X169985537Y-50621082D01*
X169717748Y-50800013D01*
X169490013Y-51027748D01*
X169311082Y-51295537D01*
X169187832Y-51593088D01*
X169125000Y-51908967D01*
X169125000Y-52231033D01*
X169187832Y-52546912D01*
X169311082Y-52844463D01*
X169490013Y-53112252D01*
X169717748Y-53339987D01*
X169985537Y-53518918D01*
X170000000Y-53524909D01*
X170000001Y-57115091D01*
X169985537Y-57121082D01*
X169717748Y-57300013D01*
X169490013Y-57527748D01*
X169311082Y-57795537D01*
X169304948Y-57810345D01*
X169196801Y-57820997D01*
X169053540Y-57864454D01*
X168921511Y-57935026D01*
X168805786Y-58029999D01*
X168781988Y-58058997D01*
X163320000Y-63520986D01*
X163320000Y-59634801D01*
X165536731Y-57418072D01*
X165751600Y-57418072D01*
X165924542Y-57401039D01*
X166090838Y-57350593D01*
X166244097Y-57268675D01*
X166378430Y-57158430D01*
X166488675Y-57024097D01*
X166570593Y-56870838D01*
X166621039Y-56704542D01*
X166638072Y-56531600D01*
X166638072Y-55228400D01*
X166621039Y-55055458D01*
X166570593Y-54889162D01*
X166488675Y-54735903D01*
X166378430Y-54601570D01*
X166244097Y-54491325D01*
X166090838Y-54409407D01*
X165924542Y-54358961D01*
X165751600Y-54341928D01*
X164448400Y-54341928D01*
X164275458Y-54358961D01*
X164109162Y-54409407D01*
X163955903Y-54491325D01*
X163821570Y-54601570D01*
X163711325Y-54735903D01*
X163629407Y-54889162D01*
X163585412Y-55034193D01*
X162739605Y-55880000D01*
X163585412Y-56725807D01*
X163629407Y-56870838D01*
X163711325Y-57024097D01*
X163742777Y-57062421D01*
X162246051Y-58559148D01*
X162248072Y-58155000D01*
X162235812Y-58030518D01*
X162199502Y-57910820D01*
X162140537Y-57800506D01*
X162061185Y-57703815D01*
X161964494Y-57624463D01*
X161854180Y-57565498D01*
X161734482Y-57529188D01*
X161610000Y-57516928D01*
X161233250Y-57520000D01*
X161074500Y-57678750D01*
X161074500Y-58928000D01*
X161094500Y-58928000D01*
X161094500Y-59182000D01*
X161074500Y-59182000D01*
X161074500Y-60431250D01*
X161233250Y-60590000D01*
X161610000Y-60593072D01*
X161734482Y-60580812D01*
X161800000Y-60560937D01*
X161800001Y-64060195D01*
X158384002Y-67476195D01*
X158354998Y-67499998D01*
X158299870Y-67567173D01*
X158260025Y-67615723D01*
X158222462Y-67685998D01*
X158189453Y-67747753D01*
X158145996Y-67891014D01*
X158134999Y-68002667D01*
X158134999Y-68002677D01*
X158131323Y-68039999D01*
X150545000Y-68039999D01*
X150545000Y-57048061D01*
X155810000Y-57048061D01*
X155810000Y-57251939D01*
X155849774Y-57451898D01*
X155927795Y-57640256D01*
X156041063Y-57809774D01*
X156085001Y-57853712D01*
X156085001Y-58040168D01*
X156081324Y-58077500D01*
X156085001Y-58114833D01*
X156095998Y-58226486D01*
X156109180Y-58269942D01*
X156139454Y-58369746D01*
X156210026Y-58501776D01*
X156266017Y-58570000D01*
X156305000Y-58617501D01*
X156333998Y-58641299D01*
X156521928Y-58829229D01*
X156521928Y-59705001D01*
X156538992Y-59878255D01*
X156589528Y-60044851D01*
X156671595Y-60198387D01*
X156782038Y-60332962D01*
X156916613Y-60443405D01*
X157070149Y-60525472D01*
X157236745Y-60576008D01*
X157409999Y-60593072D01*
X158235001Y-60593072D01*
X158408255Y-60576008D01*
X158574851Y-60525472D01*
X158728387Y-60443405D01*
X158862962Y-60332962D01*
X158973405Y-60198387D01*
X159055472Y-60044851D01*
X159082727Y-59955000D01*
X159646928Y-59955000D01*
X159659188Y-60079482D01*
X159695498Y-60199180D01*
X159754463Y-60309494D01*
X159833815Y-60406185D01*
X159930506Y-60485537D01*
X160040820Y-60544502D01*
X160160518Y-60580812D01*
X160285000Y-60593072D01*
X160661750Y-60590000D01*
X160820500Y-60431250D01*
X160820500Y-59182000D01*
X159808750Y-59182000D01*
X159650000Y-59340750D01*
X159646928Y-59955000D01*
X159082727Y-59955000D01*
X159106008Y-59878255D01*
X159123072Y-59705001D01*
X159123072Y-58404999D01*
X159106008Y-58231745D01*
X159082728Y-58155000D01*
X159646928Y-58155000D01*
X159650000Y-58769250D01*
X159808750Y-58928000D01*
X160820500Y-58928000D01*
X160820500Y-57678750D01*
X160661750Y-57520000D01*
X160285000Y-57516928D01*
X160160518Y-57529188D01*
X160040820Y-57565498D01*
X159930506Y-57624463D01*
X159833815Y-57703815D01*
X159754463Y-57800506D01*
X159695498Y-57910820D01*
X159659188Y-58030518D01*
X159646928Y-58155000D01*
X159082728Y-58155000D01*
X159055472Y-58065149D01*
X158973405Y-57911613D01*
X158862962Y-57777038D01*
X158728387Y-57666595D01*
X158574851Y-57584528D01*
X158408255Y-57533992D01*
X158235001Y-57516928D01*
X157813289Y-57516928D01*
X157840226Y-57451898D01*
X157880000Y-57251939D01*
X157880000Y-57048061D01*
X157840226Y-56848102D01*
X157762205Y-56659744D01*
X157648937Y-56490226D01*
X157504774Y-56346063D01*
X157335256Y-56232795D01*
X157146898Y-56154774D01*
X156946939Y-56115000D01*
X156743061Y-56115000D01*
X156543102Y-56154774D01*
X156354744Y-56232795D01*
X156185226Y-56346063D01*
X156041063Y-56490226D01*
X155927795Y-56659744D01*
X155849774Y-56848102D01*
X155810000Y-57048061D01*
X150545000Y-57048061D01*
X150545000Y-55728816D01*
X158485000Y-55728816D01*
X158485000Y-56031184D01*
X158543989Y-56327743D01*
X158659701Y-56607095D01*
X158827688Y-56858505D01*
X159041495Y-57072312D01*
X159292905Y-57240299D01*
X159572257Y-57356011D01*
X159868816Y-57415000D01*
X160171184Y-57415000D01*
X160467743Y-57356011D01*
X160747095Y-57240299D01*
X160998505Y-57072312D01*
X161126737Y-56944080D01*
X161675525Y-56944080D01*
X161759208Y-57198261D01*
X162031775Y-57329158D01*
X162324642Y-57404365D01*
X162626553Y-57420991D01*
X162925907Y-57378397D01*
X163211199Y-57278222D01*
X163360792Y-57198261D01*
X163444475Y-56944080D01*
X162560000Y-56059605D01*
X161675525Y-56944080D01*
X161126737Y-56944080D01*
X161212312Y-56858505D01*
X161314951Y-56704895D01*
X161495920Y-56764475D01*
X162380395Y-55880000D01*
X161495920Y-54995525D01*
X161314951Y-55055105D01*
X161212312Y-54901495D01*
X161126737Y-54815920D01*
X161675525Y-54815920D01*
X162560000Y-55700395D01*
X163444475Y-54815920D01*
X163360792Y-54561739D01*
X163088225Y-54430842D01*
X162795358Y-54355635D01*
X162493447Y-54339009D01*
X162194093Y-54381603D01*
X161908801Y-54481778D01*
X161759208Y-54561739D01*
X161675525Y-54815920D01*
X161126737Y-54815920D01*
X160998505Y-54687688D01*
X160747095Y-54519701D01*
X160467743Y-54403989D01*
X160171184Y-54345000D01*
X159868816Y-54345000D01*
X159572257Y-54403989D01*
X159292905Y-54519701D01*
X159041495Y-54687688D01*
X158827688Y-54901495D01*
X158659701Y-55152905D01*
X158543989Y-55432257D01*
X158485000Y-55728816D01*
X150545000Y-55728816D01*
X150545000Y-53119872D01*
X151435000Y-53119872D01*
X151435000Y-53560128D01*
X151520890Y-53991925D01*
X151689369Y-54398669D01*
X151933962Y-54764729D01*
X152245271Y-55076038D01*
X152611331Y-55320631D01*
X153018075Y-55489110D01*
X153449872Y-55575000D01*
X153890128Y-55575000D01*
X154321925Y-55489110D01*
X154728669Y-55320631D01*
X155094729Y-55076038D01*
X155406038Y-54764729D01*
X155650631Y-54398669D01*
X155819110Y-53991925D01*
X155905000Y-53560128D01*
X155905000Y-53119872D01*
X155819110Y-52688075D01*
X155650631Y-52281331D01*
X155406038Y-51915271D01*
X155094729Y-51603962D01*
X154728669Y-51359369D01*
X154321925Y-51190890D01*
X153890128Y-51105000D01*
X153449872Y-51105000D01*
X153018075Y-51190890D01*
X152611331Y-51359369D01*
X152245271Y-51603962D01*
X151933962Y-51915271D01*
X151689369Y-52281331D01*
X151520890Y-52688075D01*
X151435000Y-53119872D01*
X150545000Y-53119872D01*
X150545000Y-52036353D01*
X150535711Y-51942044D01*
X150558909Y-51705455D01*
X150664780Y-51354792D01*
X150836744Y-51031375D01*
X151068254Y-50747516D01*
X151350486Y-50514035D01*
X151672695Y-50339817D01*
X152022614Y-50231498D01*
X152269936Y-50205504D01*
X152366353Y-50215000D01*
G37*
%TD.AperFunction*%
%TD*%
M02*
