%TF.GenerationSoftware,KiCad,Pcbnew,(5.1.10-1-10_14)*%
%TF.CreationDate,2021-11-08T14:23:05+11:00*%
%TF.ProjectId,bkm10iRduino_shield,626b6d31-3069-4526-9475-696e6f5f7368,rev?*%
%TF.SameCoordinates,Original*%
%TF.FileFunction,Paste,Top*%
%TF.FilePolarity,Positive*%
%FSLAX46Y46*%
G04 Gerber Fmt 4.6, Leading zero omitted, Abs format (unit mm)*
G04 Created by KiCad (PCBNEW (5.1.10-1-10_14)) date 2021-11-08 14:23:05*
%MOMM*%
%LPD*%
G01*
G04 APERTURE LIST*
%ADD10R,1.600000X2.200000*%
G04 APERTURE END LIST*
%TO.C,R1*%
G36*
G01*
X168540000Y-116195000D02*
X168540000Y-114945000D01*
G75*
G02*
X168790000Y-114695000I250000J0D01*
G01*
X169590000Y-114695000D01*
G75*
G02*
X169840000Y-114945000I0J-250000D01*
G01*
X169840000Y-116195000D01*
G75*
G02*
X169590000Y-116445000I-250000J0D01*
G01*
X168790000Y-116445000D01*
G75*
G02*
X168540000Y-116195000I0J250000D01*
G01*
G37*
G36*
G01*
X165440000Y-116195000D02*
X165440000Y-114945000D01*
G75*
G02*
X165690000Y-114695000I250000J0D01*
G01*
X166490000Y-114695000D01*
G75*
G02*
X166740000Y-114945000I0J-250000D01*
G01*
X166740000Y-116195000D01*
G75*
G02*
X166490000Y-116445000I-250000J0D01*
G01*
X165690000Y-116445000D01*
G75*
G02*
X165440000Y-116195000I0J250000D01*
G01*
G37*
%TD*%
%TO.C,D4*%
G36*
G01*
X169555000Y-121642500D02*
X170805000Y-121642500D01*
G75*
G02*
X171055000Y-121892500I0J-250000D01*
G01*
X171055000Y-122817500D01*
G75*
G02*
X170805000Y-123067500I-250000J0D01*
G01*
X169555000Y-123067500D01*
G75*
G02*
X169305000Y-122817500I0J250000D01*
G01*
X169305000Y-121892500D01*
G75*
G02*
X169555000Y-121642500I250000J0D01*
G01*
G37*
G36*
G01*
X169555000Y-118667500D02*
X170805000Y-118667500D01*
G75*
G02*
X171055000Y-118917500I0J-250000D01*
G01*
X171055000Y-119842500D01*
G75*
G02*
X170805000Y-120092500I-250000J0D01*
G01*
X169555000Y-120092500D01*
G75*
G02*
X169305000Y-119842500I0J250000D01*
G01*
X169305000Y-118917500D01*
G75*
G02*
X169555000Y-118667500I250000J0D01*
G01*
G37*
%TD*%
%TO.C,D3*%
G36*
G01*
X164475000Y-121642500D02*
X165725000Y-121642500D01*
G75*
G02*
X165975000Y-121892500I0J-250000D01*
G01*
X165975000Y-122817500D01*
G75*
G02*
X165725000Y-123067500I-250000J0D01*
G01*
X164475000Y-123067500D01*
G75*
G02*
X164225000Y-122817500I0J250000D01*
G01*
X164225000Y-121892500D01*
G75*
G02*
X164475000Y-121642500I250000J0D01*
G01*
G37*
G36*
G01*
X164475000Y-118667500D02*
X165725000Y-118667500D01*
G75*
G02*
X165975000Y-118917500I0J-250000D01*
G01*
X165975000Y-119842500D01*
G75*
G02*
X165725000Y-120092500I-250000J0D01*
G01*
X164475000Y-120092500D01*
G75*
G02*
X164225000Y-119842500I0J250000D01*
G01*
X164225000Y-118917500D01*
G75*
G02*
X164475000Y-118667500I250000J0D01*
G01*
G37*
%TD*%
D10*
%TO.C,C1*%
X173990000Y-122150000D03*
X173990000Y-119150000D03*
%TD*%
M02*
