%TF.GenerationSoftware,KiCad,Pcbnew,(5.1.10)-1*%
%TF.CreationDate,2021-11-11T11:19:20+11:00*%
%TF.ProjectId,bkm10iRduino_shield,626b6d31-3069-4526-9475-696e6f5f7368,rev?*%
%TF.SameCoordinates,Original*%
%TF.FileFunction,Copper,L4,Bot*%
%TF.FilePolarity,Positive*%
%FSLAX46Y46*%
G04 Gerber Fmt 4.6, Leading zero omitted, Abs format (unit mm)*
G04 Created by KiCad (PCBNEW (5.1.10)-1) date 2021-11-11 11:19:20*
%MOMM*%
%LPD*%
G01*
G04 APERTURE LIST*
%TA.AperFunction,ComponentPad*%
%ADD10C,4.000000*%
%TD*%
%TA.AperFunction,ComponentPad*%
%ADD11C,1.600000*%
%TD*%
%TA.AperFunction,ComponentPad*%
%ADD12R,1.600000X1.600000*%
%TD*%
%TA.AperFunction,ComponentPad*%
%ADD13O,1.600000X1.600000*%
%TD*%
%TA.AperFunction,ComponentPad*%
%ADD14O,1.700000X1.700000*%
%TD*%
%TA.AperFunction,ComponentPad*%
%ADD15R,1.700000X1.700000*%
%TD*%
%TA.AperFunction,ComponentPad*%
%ADD16C,2.000000*%
%TD*%
%TA.AperFunction,ComponentPad*%
%ADD17C,1.800000*%
%TD*%
%TA.AperFunction,ViaPad*%
%ADD18C,0.800000*%
%TD*%
%TA.AperFunction,Conductor*%
%ADD19C,0.250000*%
%TD*%
%TA.AperFunction,NonConductor*%
%ADD20C,0.254000*%
%TD*%
%TA.AperFunction,NonConductor*%
%ADD21C,0.100000*%
%TD*%
G04 APERTURE END LIST*
D10*
%TO.P,J1,0*%
%TO.N,N/C*%
X179330000Y-115420000D03*
X154330000Y-115420000D03*
D11*
%TO.P,J1,9*%
%TO.N,GND*%
X170985000Y-114000000D03*
%TO.P,J1,8*%
%TO.N,YZ-*%
X168215000Y-114000000D03*
%TO.P,J1,7*%
%TO.N,AB+*%
X165445000Y-114000000D03*
%TO.P,J1,6*%
%TO.N,GND*%
X162675000Y-114000000D03*
%TO.P,J1,5*%
%TO.N,VCC*%
X172370000Y-116840000D03*
%TO.P,J1,4*%
%TO.N,GND*%
X169600000Y-116840000D03*
%TO.P,J1,3*%
%TO.N,YZ+*%
X166830000Y-116840000D03*
%TO.P,J1,2*%
%TO.N,AB-*%
X164060000Y-116840000D03*
D12*
%TO.P,J1,1*%
%TO.N,GND*%
X161290000Y-116840000D03*
%TD*%
D13*
%TO.P,A1,16*%
%TO.N,SCK*%
X175260000Y-68580000D03*
%TO.P,A1,15*%
%TO.N,Net-(A1-Pad15)*%
X160020000Y-68580000D03*
%TO.P,A1,30*%
%TO.N,VCC*%
X175260000Y-104140000D03*
%TO.P,A1,14*%
%TO.N,MOSI*%
X160020000Y-71120000D03*
%TO.P,A1,29*%
%TO.N,GND*%
X175260000Y-101600000D03*
%TO.P,A1,13*%
%TO.N,DC*%
X160020000Y-73660000D03*
%TO.P,A1,28*%
%TO.N,Net-(A1-Pad28)*%
X175260000Y-99060000D03*
%TO.P,A1,12*%
%TO.N,CS*%
X160020000Y-76200000D03*
%TO.P,A1,27*%
%TO.N,Net-(A1-Pad27)*%
X175260000Y-96520000D03*
%TO.P,A1,11*%
%TO.N,RES*%
X160020000Y-78740000D03*
%TO.P,A1,26*%
%TO.N,Net-(A1-Pad26)*%
X175260000Y-93980000D03*
%TO.P,A1,10*%
%TO.N,IR_OUT*%
X160020000Y-81280000D03*
%TO.P,A1,25*%
%TO.N,Net-(A1-Pad25)*%
X175260000Y-91440000D03*
%TO.P,A1,9*%
%TO.N,Net-(A1-Pad9)*%
X160020000Y-83820000D03*
%TO.P,A1,24*%
%TO.N,Net-(A1-Pad24)*%
X175260000Y-88900000D03*
%TO.P,A1,8*%
%TO.N,Net-(A1-Pad8)*%
X160020000Y-86360000D03*
%TO.P,A1,23*%
%TO.N,Net-(A1-Pad23)*%
X175260000Y-86360000D03*
%TO.P,A1,7*%
%TO.N,LEARN_BUTTON_IN*%
X160020000Y-88900000D03*
%TO.P,A1,22*%
%TO.N,Net-(A1-Pad22)*%
X175260000Y-83820000D03*
%TO.P,A1,6*%
%TO.N,RS485_TX_ENABLE*%
X160020000Y-91440000D03*
%TO.P,A1,21*%
%TO.N,Net-(A1-Pad21)*%
X175260000Y-81280000D03*
%TO.P,A1,5*%
%TO.N,RS485_RX_ENABLE*%
X160020000Y-93980000D03*
%TO.P,A1,20*%
%TO.N,Net-(A1-Pad20)*%
X175260000Y-78740000D03*
%TO.P,A1,4*%
%TO.N,GND*%
X160020000Y-96520000D03*
%TO.P,A1,19*%
%TO.N,Net-(A1-Pad19)*%
X175260000Y-76200000D03*
%TO.P,A1,3*%
%TO.N,Net-(A1-Pad3)*%
X160020000Y-99060000D03*
%TO.P,A1,18*%
%TO.N,Net-(A1-Pad18)*%
X175260000Y-73660000D03*
%TO.P,A1,2*%
%TO.N,RS485_RX*%
X160020000Y-101600000D03*
%TO.P,A1,17*%
%TO.N,Net-(A1-Pad17)*%
X175260000Y-71120000D03*
D12*
%TO.P,A1,1*%
%TO.N,RS485_TX*%
X160020000Y-104140000D03*
%TD*%
D14*
%TO.P,D5,7*%
%TO.N,GND*%
X153670000Y-85090000D03*
%TO.P,D5,6*%
%TO.N,VCC*%
X153670000Y-82550000D03*
%TO.P,D5,5*%
%TO.N,SCK*%
X153670000Y-80010000D03*
%TO.P,D5,4*%
%TO.N,MOSI*%
X153670000Y-77470000D03*
%TO.P,D5,3*%
%TO.N,RES*%
X153670000Y-74930000D03*
%TO.P,D5,2*%
%TO.N,DC*%
X153670000Y-72390000D03*
D15*
%TO.P,D5,1*%
%TO.N,CS*%
X153670000Y-69850000D03*
%TD*%
D16*
%TO.P,SW1,1*%
%TO.N,GND*%
X175260000Y-58570000D03*
%TO.P,SW1,2*%
%TO.N,LEARN_BUTTON_IN*%
X170760000Y-58570000D03*
%TO.P,SW1,1*%
%TO.N,GND*%
X175260000Y-52070000D03*
%TO.P,SW1,2*%
%TO.N,LEARN_BUTTON_IN*%
X170760000Y-52070000D03*
%TD*%
D17*
%TO.P,U1,3*%
%TO.N,VCC*%
X160020000Y-55880000D03*
%TO.P,U1,2*%
%TO.N,GND*%
X162560000Y-55880000D03*
%TO.P,U1,1*%
%TO.N,IR_OUT*%
%TA.AperFunction,ComponentPad*%
G36*
G01*
X166000000Y-55228400D02*
X166000000Y-56531600D01*
G75*
G02*
X165751600Y-56780000I-248400J0D01*
G01*
X164448400Y-56780000D01*
G75*
G02*
X164200000Y-56531600I0J248400D01*
G01*
X164200000Y-55228400D01*
G75*
G02*
X164448400Y-54980000I248400J0D01*
G01*
X165751600Y-54980000D01*
G75*
G02*
X166000000Y-55228400I0J-248400D01*
G01*
G37*
%TD.AperFunction*%
%TD*%
D18*
%TO.N,VCC*%
X180340000Y-100330000D03*
X170180000Y-97790000D03*
X154940000Y-107950000D03*
X156210000Y-58420000D03*
%TO.N,GND*%
X161290000Y-58420000D03*
X154940000Y-100330000D03*
X170180000Y-88900000D03*
X180340000Y-107950000D03*
%TO.N,AB+*%
X172720000Y-101600000D03*
%TO.N,AB-*%
X172720000Y-100330000D03*
%TD*%
D19*
%TO.N,SCK*%
X175260000Y-69454998D02*
X175260000Y-68580000D01*
X164704998Y-80010000D02*
X175260000Y-69454998D01*
X153670000Y-80010000D02*
X164704998Y-80010000D01*
%TO.N,MOSI*%
X161145001Y-72245001D02*
X160020000Y-71120000D01*
X161145001Y-76740001D02*
X161145001Y-72245001D01*
X160415002Y-77470000D02*
X161145001Y-76740001D01*
X153670000Y-77470000D02*
X160415002Y-77470000D01*
%TO.N,DC*%
X158750000Y-72390000D02*
X160020000Y-73660000D01*
X153670000Y-72390000D02*
X158750000Y-72390000D01*
%TO.N,CS*%
X157574999Y-73754999D02*
X160020000Y-76200000D01*
X153295997Y-73754999D02*
X157574999Y-73754999D01*
X152494999Y-72954001D02*
X153295997Y-73754999D01*
X152494999Y-71025001D02*
X152494999Y-72954001D01*
X153670000Y-69850000D02*
X152494999Y-71025001D01*
%TO.N,RES*%
X153200998Y-78740000D02*
X160020000Y-78740000D01*
X152494999Y-78034001D02*
X153200998Y-78740000D01*
X152494999Y-76105001D02*
X152494999Y-78034001D01*
X153670000Y-74930000D02*
X152494999Y-76105001D01*
%TO.N,AB+*%
X165445000Y-108875000D02*
X172720000Y-101600000D01*
X165445000Y-114000000D02*
X165445000Y-108875000D01*
%TO.N,AB-*%
X164994990Y-108055010D02*
X172720000Y-100330000D01*
X164994990Y-112785008D02*
X164994990Y-108055010D01*
X164060000Y-113719998D02*
X164994990Y-112785008D01*
X164060000Y-116840000D02*
X164060000Y-113719998D01*
%TD*%
D20*
X152366353Y-50215000D02*
X181643647Y-50215000D01*
X181737956Y-50205711D01*
X181974545Y-50228909D01*
X182325208Y-50334780D01*
X182648625Y-50506744D01*
X182932484Y-50738254D01*
X183165965Y-51020486D01*
X183340183Y-51342695D01*
X183448502Y-51692614D01*
X183474496Y-51939937D01*
X183465000Y-52036354D01*
X183465001Y-120683647D01*
X183474289Y-120777951D01*
X183451091Y-121014545D01*
X183345220Y-121365206D01*
X183173257Y-121688623D01*
X182941748Y-121972482D01*
X182659514Y-122205965D01*
X182337304Y-122380184D01*
X181987385Y-122488502D01*
X181740064Y-122514496D01*
X181643647Y-122505000D01*
X152366353Y-122505000D01*
X152272044Y-122514289D01*
X152035455Y-122491091D01*
X151684794Y-122385220D01*
X151361377Y-122213257D01*
X151077518Y-121981748D01*
X150844035Y-121699514D01*
X150669816Y-121377304D01*
X150561498Y-121027385D01*
X150535504Y-120780064D01*
X150545000Y-120683647D01*
X150545000Y-115160475D01*
X151695000Y-115160475D01*
X151695000Y-115679525D01*
X151796261Y-116188601D01*
X151994893Y-116668141D01*
X152283262Y-117099715D01*
X152650285Y-117466738D01*
X153081859Y-117755107D01*
X153561399Y-117953739D01*
X154070475Y-118055000D01*
X154589525Y-118055000D01*
X155098601Y-117953739D01*
X155578141Y-117755107D01*
X156009715Y-117466738D01*
X156376738Y-117099715D01*
X156665107Y-116668141D01*
X156863739Y-116188601D01*
X156893297Y-116040000D01*
X159851928Y-116040000D01*
X159851928Y-117640000D01*
X159864188Y-117764482D01*
X159900498Y-117884180D01*
X159959463Y-117994494D01*
X160038815Y-118091185D01*
X160135506Y-118170537D01*
X160245820Y-118229502D01*
X160365518Y-118265812D01*
X160490000Y-118278072D01*
X162090000Y-118278072D01*
X162214482Y-118265812D01*
X162334180Y-118229502D01*
X162444494Y-118170537D01*
X162541185Y-118091185D01*
X162620537Y-117994494D01*
X162679502Y-117884180D01*
X162715812Y-117764482D01*
X162728072Y-117640000D01*
X162728072Y-117374275D01*
X162788320Y-117519727D01*
X162945363Y-117754759D01*
X163145241Y-117954637D01*
X163380273Y-118111680D01*
X163641426Y-118219853D01*
X163918665Y-118275000D01*
X164201335Y-118275000D01*
X164478574Y-118219853D01*
X164739727Y-118111680D01*
X164974759Y-117954637D01*
X165174637Y-117754759D01*
X165331680Y-117519727D01*
X165439853Y-117258574D01*
X165445000Y-117232699D01*
X165450147Y-117258574D01*
X165558320Y-117519727D01*
X165715363Y-117754759D01*
X165915241Y-117954637D01*
X166150273Y-118111680D01*
X166411426Y-118219853D01*
X166688665Y-118275000D01*
X166971335Y-118275000D01*
X167248574Y-118219853D01*
X167509727Y-118111680D01*
X167744759Y-117954637D01*
X167944637Y-117754759D01*
X168101680Y-117519727D01*
X168209853Y-117258574D01*
X168215000Y-117232699D01*
X168220147Y-117258574D01*
X168328320Y-117519727D01*
X168485363Y-117754759D01*
X168685241Y-117954637D01*
X168920273Y-118111680D01*
X169181426Y-118219853D01*
X169458665Y-118275000D01*
X169741335Y-118275000D01*
X170018574Y-118219853D01*
X170279727Y-118111680D01*
X170514759Y-117954637D01*
X170714637Y-117754759D01*
X170871680Y-117519727D01*
X170979853Y-117258574D01*
X170985000Y-117232699D01*
X170990147Y-117258574D01*
X171098320Y-117519727D01*
X171255363Y-117754759D01*
X171455241Y-117954637D01*
X171690273Y-118111680D01*
X171951426Y-118219853D01*
X172228665Y-118275000D01*
X172511335Y-118275000D01*
X172788574Y-118219853D01*
X173049727Y-118111680D01*
X173284759Y-117954637D01*
X173484637Y-117754759D01*
X173641680Y-117519727D01*
X173749853Y-117258574D01*
X173805000Y-116981335D01*
X173805000Y-116698665D01*
X173749853Y-116421426D01*
X173641680Y-116160273D01*
X173484637Y-115925241D01*
X173284759Y-115725363D01*
X173049727Y-115568320D01*
X172788574Y-115460147D01*
X172511335Y-115405000D01*
X172228665Y-115405000D01*
X171951426Y-115460147D01*
X171690273Y-115568320D01*
X171455241Y-115725363D01*
X171255363Y-115925241D01*
X171098320Y-116160273D01*
X170990147Y-116421426D01*
X170985000Y-116447301D01*
X170979853Y-116421426D01*
X170871680Y-116160273D01*
X170714637Y-115925241D01*
X170514759Y-115725363D01*
X170279727Y-115568320D01*
X170018574Y-115460147D01*
X169741335Y-115405000D01*
X169458665Y-115405000D01*
X169181426Y-115460147D01*
X168920273Y-115568320D01*
X168685241Y-115725363D01*
X168485363Y-115925241D01*
X168328320Y-116160273D01*
X168220147Y-116421426D01*
X168215000Y-116447301D01*
X168209853Y-116421426D01*
X168101680Y-116160273D01*
X167944637Y-115925241D01*
X167744759Y-115725363D01*
X167509727Y-115568320D01*
X167248574Y-115460147D01*
X166971335Y-115405000D01*
X166688665Y-115405000D01*
X166411426Y-115460147D01*
X166150273Y-115568320D01*
X165915241Y-115725363D01*
X165715363Y-115925241D01*
X165558320Y-116160273D01*
X165450147Y-116421426D01*
X165445000Y-116447301D01*
X165439853Y-116421426D01*
X165331680Y-116160273D01*
X165174637Y-115925241D01*
X164974759Y-115725363D01*
X164820000Y-115621957D01*
X164820000Y-115294349D01*
X165026426Y-115379853D01*
X165303665Y-115435000D01*
X165586335Y-115435000D01*
X165863574Y-115379853D01*
X166124727Y-115271680D01*
X166359759Y-115114637D01*
X166559637Y-114914759D01*
X166716680Y-114679727D01*
X166824853Y-114418574D01*
X166830000Y-114392699D01*
X166835147Y-114418574D01*
X166943320Y-114679727D01*
X167100363Y-114914759D01*
X167300241Y-115114637D01*
X167535273Y-115271680D01*
X167796426Y-115379853D01*
X168073665Y-115435000D01*
X168356335Y-115435000D01*
X168633574Y-115379853D01*
X168894727Y-115271680D01*
X169129759Y-115114637D01*
X169329637Y-114914759D01*
X169486680Y-114679727D01*
X169594853Y-114418574D01*
X169600000Y-114392699D01*
X169605147Y-114418574D01*
X169713320Y-114679727D01*
X169870363Y-114914759D01*
X170070241Y-115114637D01*
X170305273Y-115271680D01*
X170566426Y-115379853D01*
X170843665Y-115435000D01*
X171126335Y-115435000D01*
X171403574Y-115379853D01*
X171664727Y-115271680D01*
X171831157Y-115160475D01*
X176695000Y-115160475D01*
X176695000Y-115679525D01*
X176796261Y-116188601D01*
X176994893Y-116668141D01*
X177283262Y-117099715D01*
X177650285Y-117466738D01*
X178081859Y-117755107D01*
X178561399Y-117953739D01*
X179070475Y-118055000D01*
X179589525Y-118055000D01*
X180098601Y-117953739D01*
X180578141Y-117755107D01*
X181009715Y-117466738D01*
X181376738Y-117099715D01*
X181665107Y-116668141D01*
X181863739Y-116188601D01*
X181965000Y-115679525D01*
X181965000Y-115160475D01*
X181863739Y-114651399D01*
X181665107Y-114171859D01*
X181376738Y-113740285D01*
X181009715Y-113373262D01*
X180578141Y-113084893D01*
X180098601Y-112886261D01*
X179589525Y-112785000D01*
X179070475Y-112785000D01*
X178561399Y-112886261D01*
X178081859Y-113084893D01*
X177650285Y-113373262D01*
X177283262Y-113740285D01*
X176994893Y-114171859D01*
X176796261Y-114651399D01*
X176695000Y-115160475D01*
X171831157Y-115160475D01*
X171899759Y-115114637D01*
X172099637Y-114914759D01*
X172256680Y-114679727D01*
X172364853Y-114418574D01*
X172420000Y-114141335D01*
X172420000Y-113858665D01*
X172364853Y-113581426D01*
X172256680Y-113320273D01*
X172099637Y-113085241D01*
X171899759Y-112885363D01*
X171664727Y-112728320D01*
X171403574Y-112620147D01*
X171126335Y-112565000D01*
X170843665Y-112565000D01*
X170566426Y-112620147D01*
X170305273Y-112728320D01*
X170070241Y-112885363D01*
X169870363Y-113085241D01*
X169713320Y-113320273D01*
X169605147Y-113581426D01*
X169600000Y-113607301D01*
X169594853Y-113581426D01*
X169486680Y-113320273D01*
X169329637Y-113085241D01*
X169129759Y-112885363D01*
X168894727Y-112728320D01*
X168633574Y-112620147D01*
X168356335Y-112565000D01*
X168073665Y-112565000D01*
X167796426Y-112620147D01*
X167535273Y-112728320D01*
X167300241Y-112885363D01*
X167100363Y-113085241D01*
X166943320Y-113320273D01*
X166835147Y-113581426D01*
X166830000Y-113607301D01*
X166824853Y-113581426D01*
X166716680Y-113320273D01*
X166559637Y-113085241D01*
X166359759Y-112885363D01*
X166205000Y-112781957D01*
X166205000Y-109189801D01*
X167546740Y-107848061D01*
X179305000Y-107848061D01*
X179305000Y-108051939D01*
X179344774Y-108251898D01*
X179422795Y-108440256D01*
X179536063Y-108609774D01*
X179680226Y-108753937D01*
X179849744Y-108867205D01*
X180038102Y-108945226D01*
X180238061Y-108985000D01*
X180441939Y-108985000D01*
X180641898Y-108945226D01*
X180830256Y-108867205D01*
X180999774Y-108753937D01*
X181143937Y-108609774D01*
X181257205Y-108440256D01*
X181335226Y-108251898D01*
X181375000Y-108051939D01*
X181375000Y-107848061D01*
X181335226Y-107648102D01*
X181257205Y-107459744D01*
X181143937Y-107290226D01*
X180999774Y-107146063D01*
X180830256Y-107032795D01*
X180641898Y-106954774D01*
X180441939Y-106915000D01*
X180238061Y-106915000D01*
X180038102Y-106954774D01*
X179849744Y-107032795D01*
X179680226Y-107146063D01*
X179536063Y-107290226D01*
X179422795Y-107459744D01*
X179344774Y-107648102D01*
X179305000Y-107848061D01*
X167546740Y-107848061D01*
X172759802Y-102635000D01*
X172821939Y-102635000D01*
X173021898Y-102595226D01*
X173210256Y-102517205D01*
X173379774Y-102403937D01*
X173523937Y-102259774D01*
X173637205Y-102090256D01*
X173715226Y-101901898D01*
X173755000Y-101701939D01*
X173755000Y-101498061D01*
X173715226Y-101298102D01*
X173637205Y-101109744D01*
X173540490Y-100965000D01*
X173637205Y-100820256D01*
X173715226Y-100631898D01*
X173755000Y-100431939D01*
X173755000Y-100228061D01*
X173715226Y-100028102D01*
X173637205Y-99839744D01*
X173523937Y-99670226D01*
X173379774Y-99526063D01*
X173210256Y-99412795D01*
X173021898Y-99334774D01*
X172821939Y-99295000D01*
X172618061Y-99295000D01*
X172418102Y-99334774D01*
X172229744Y-99412795D01*
X172060226Y-99526063D01*
X171916063Y-99670226D01*
X171802795Y-99839744D01*
X171724774Y-100028102D01*
X171685000Y-100228061D01*
X171685000Y-100290198D01*
X164483988Y-107491211D01*
X164454990Y-107515009D01*
X164431192Y-107544007D01*
X164431191Y-107544008D01*
X164360016Y-107630734D01*
X164289444Y-107762764D01*
X164245988Y-107906025D01*
X164231314Y-108055010D01*
X164234991Y-108092342D01*
X164234990Y-112470206D01*
X163704796Y-113000400D01*
X163589759Y-112885363D01*
X163354727Y-112728320D01*
X163093574Y-112620147D01*
X162816335Y-112565000D01*
X162533665Y-112565000D01*
X162256426Y-112620147D01*
X161995273Y-112728320D01*
X161760241Y-112885363D01*
X161560363Y-113085241D01*
X161403320Y-113320273D01*
X161295147Y-113581426D01*
X161240000Y-113858665D01*
X161240000Y-114141335D01*
X161295147Y-114418574D01*
X161403320Y-114679727D01*
X161560363Y-114914759D01*
X161760241Y-115114637D01*
X161995273Y-115271680D01*
X162256426Y-115379853D01*
X162533665Y-115435000D01*
X162816335Y-115435000D01*
X163093574Y-115379853D01*
X163300000Y-115294348D01*
X163300000Y-115621956D01*
X163145241Y-115725363D01*
X162945363Y-115925241D01*
X162788320Y-116160273D01*
X162728072Y-116305725D01*
X162728072Y-116040000D01*
X162715812Y-115915518D01*
X162679502Y-115795820D01*
X162620537Y-115685506D01*
X162541185Y-115588815D01*
X162444494Y-115509463D01*
X162334180Y-115450498D01*
X162214482Y-115414188D01*
X162090000Y-115401928D01*
X160490000Y-115401928D01*
X160365518Y-115414188D01*
X160245820Y-115450498D01*
X160135506Y-115509463D01*
X160038815Y-115588815D01*
X159959463Y-115685506D01*
X159900498Y-115795820D01*
X159864188Y-115915518D01*
X159851928Y-116040000D01*
X156893297Y-116040000D01*
X156965000Y-115679525D01*
X156965000Y-115160475D01*
X156863739Y-114651399D01*
X156665107Y-114171859D01*
X156376738Y-113740285D01*
X156009715Y-113373262D01*
X155578141Y-113084893D01*
X155098601Y-112886261D01*
X154589525Y-112785000D01*
X154070475Y-112785000D01*
X153561399Y-112886261D01*
X153081859Y-113084893D01*
X152650285Y-113373262D01*
X152283262Y-113740285D01*
X151994893Y-114171859D01*
X151796261Y-114651399D01*
X151695000Y-115160475D01*
X150545000Y-115160475D01*
X150545000Y-107848061D01*
X153905000Y-107848061D01*
X153905000Y-108051939D01*
X153944774Y-108251898D01*
X154022795Y-108440256D01*
X154136063Y-108609774D01*
X154280226Y-108753937D01*
X154449744Y-108867205D01*
X154638102Y-108945226D01*
X154838061Y-108985000D01*
X155041939Y-108985000D01*
X155241898Y-108945226D01*
X155430256Y-108867205D01*
X155599774Y-108753937D01*
X155743937Y-108609774D01*
X155857205Y-108440256D01*
X155935226Y-108251898D01*
X155975000Y-108051939D01*
X155975000Y-107848061D01*
X155935226Y-107648102D01*
X155857205Y-107459744D01*
X155743937Y-107290226D01*
X155599774Y-107146063D01*
X155430256Y-107032795D01*
X155241898Y-106954774D01*
X155041939Y-106915000D01*
X154838061Y-106915000D01*
X154638102Y-106954774D01*
X154449744Y-107032795D01*
X154280226Y-107146063D01*
X154136063Y-107290226D01*
X154022795Y-107459744D01*
X153944774Y-107648102D01*
X153905000Y-107848061D01*
X150545000Y-107848061D01*
X150545000Y-100228061D01*
X153905000Y-100228061D01*
X153905000Y-100431939D01*
X153944774Y-100631898D01*
X154022795Y-100820256D01*
X154136063Y-100989774D01*
X154280226Y-101133937D01*
X154449744Y-101247205D01*
X154638102Y-101325226D01*
X154838061Y-101365000D01*
X155041939Y-101365000D01*
X155241898Y-101325226D01*
X155430256Y-101247205D01*
X155599774Y-101133937D01*
X155743937Y-100989774D01*
X155857205Y-100820256D01*
X155935226Y-100631898D01*
X155975000Y-100431939D01*
X155975000Y-100228061D01*
X155935226Y-100028102D01*
X155857205Y-99839744D01*
X155743937Y-99670226D01*
X155599774Y-99526063D01*
X155430256Y-99412795D01*
X155241898Y-99334774D01*
X155041939Y-99295000D01*
X154838061Y-99295000D01*
X154638102Y-99334774D01*
X154449744Y-99412795D01*
X154280226Y-99526063D01*
X154136063Y-99670226D01*
X154022795Y-99839744D01*
X153944774Y-100028102D01*
X153905000Y-100228061D01*
X150545000Y-100228061D01*
X150545000Y-71025001D01*
X151731323Y-71025001D01*
X151734999Y-71062324D01*
X151735000Y-72916669D01*
X151731323Y-72954001D01*
X151735000Y-72991334D01*
X151745997Y-73102987D01*
X151756922Y-73139003D01*
X151789453Y-73246247D01*
X151860025Y-73378277D01*
X151931200Y-73465003D01*
X151954999Y-73494002D01*
X151983997Y-73517800D01*
X152489704Y-74023508D01*
X152354010Y-74226589D01*
X152242068Y-74496842D01*
X152185000Y-74783740D01*
X152185000Y-75076260D01*
X152228791Y-75296408D01*
X151984002Y-75541197D01*
X151954998Y-75565000D01*
X151899870Y-75632175D01*
X151860025Y-75680725D01*
X151809247Y-75775724D01*
X151789453Y-75812755D01*
X151745996Y-75956016D01*
X151734999Y-76067669D01*
X151734999Y-76067679D01*
X151731323Y-76105001D01*
X151734999Y-76142324D01*
X151735000Y-77996669D01*
X151731323Y-78034001D01*
X151735000Y-78071334D01*
X151745997Y-78182987D01*
X151756922Y-78219002D01*
X151789453Y-78326247D01*
X151860025Y-78458277D01*
X151914784Y-78525000D01*
X151954999Y-78574002D01*
X151983997Y-78597800D01*
X152489704Y-79103508D01*
X152354010Y-79306589D01*
X152242068Y-79576842D01*
X152185000Y-79863740D01*
X152185000Y-80156260D01*
X152242068Y-80443158D01*
X152354010Y-80713411D01*
X152516525Y-80956632D01*
X152723368Y-81163475D01*
X152897760Y-81280000D01*
X152723368Y-81396525D01*
X152516525Y-81603368D01*
X152354010Y-81846589D01*
X152242068Y-82116842D01*
X152185000Y-82403740D01*
X152185000Y-82696260D01*
X152242068Y-82983158D01*
X152354010Y-83253411D01*
X152516525Y-83496632D01*
X152723368Y-83703475D01*
X152897760Y-83820000D01*
X152723368Y-83936525D01*
X152516525Y-84143368D01*
X152354010Y-84386589D01*
X152242068Y-84656842D01*
X152185000Y-84943740D01*
X152185000Y-85236260D01*
X152242068Y-85523158D01*
X152354010Y-85793411D01*
X152516525Y-86036632D01*
X152723368Y-86243475D01*
X152966589Y-86405990D01*
X153236842Y-86517932D01*
X153523740Y-86575000D01*
X153816260Y-86575000D01*
X154103158Y-86517932D01*
X154373411Y-86405990D01*
X154616632Y-86243475D01*
X154823475Y-86036632D01*
X154985990Y-85793411D01*
X155097932Y-85523158D01*
X155155000Y-85236260D01*
X155155000Y-84943740D01*
X155097932Y-84656842D01*
X154985990Y-84386589D01*
X154823475Y-84143368D01*
X154616632Y-83936525D01*
X154442240Y-83820000D01*
X154616632Y-83703475D01*
X154823475Y-83496632D01*
X154985990Y-83253411D01*
X155097932Y-82983158D01*
X155155000Y-82696260D01*
X155155000Y-82403740D01*
X155097932Y-82116842D01*
X154985990Y-81846589D01*
X154823475Y-81603368D01*
X154616632Y-81396525D01*
X154442240Y-81280000D01*
X154616632Y-81163475D01*
X154823475Y-80956632D01*
X154948178Y-80770000D01*
X158678017Y-80770000D01*
X158640147Y-80861426D01*
X158585000Y-81138665D01*
X158585000Y-81421335D01*
X158640147Y-81698574D01*
X158748320Y-81959727D01*
X158905363Y-82194759D01*
X159105241Y-82394637D01*
X159337759Y-82550000D01*
X159105241Y-82705363D01*
X158905363Y-82905241D01*
X158748320Y-83140273D01*
X158640147Y-83401426D01*
X158585000Y-83678665D01*
X158585000Y-83961335D01*
X158640147Y-84238574D01*
X158748320Y-84499727D01*
X158905363Y-84734759D01*
X159105241Y-84934637D01*
X159337759Y-85090000D01*
X159105241Y-85245363D01*
X158905363Y-85445241D01*
X158748320Y-85680273D01*
X158640147Y-85941426D01*
X158585000Y-86218665D01*
X158585000Y-86501335D01*
X158640147Y-86778574D01*
X158748320Y-87039727D01*
X158905363Y-87274759D01*
X159105241Y-87474637D01*
X159337759Y-87630000D01*
X159105241Y-87785363D01*
X158905363Y-87985241D01*
X158748320Y-88220273D01*
X158640147Y-88481426D01*
X158585000Y-88758665D01*
X158585000Y-89041335D01*
X158640147Y-89318574D01*
X158748320Y-89579727D01*
X158905363Y-89814759D01*
X159105241Y-90014637D01*
X159337759Y-90170000D01*
X159105241Y-90325363D01*
X158905363Y-90525241D01*
X158748320Y-90760273D01*
X158640147Y-91021426D01*
X158585000Y-91298665D01*
X158585000Y-91581335D01*
X158640147Y-91858574D01*
X158748320Y-92119727D01*
X158905363Y-92354759D01*
X159105241Y-92554637D01*
X159337759Y-92710000D01*
X159105241Y-92865363D01*
X158905363Y-93065241D01*
X158748320Y-93300273D01*
X158640147Y-93561426D01*
X158585000Y-93838665D01*
X158585000Y-94121335D01*
X158640147Y-94398574D01*
X158748320Y-94659727D01*
X158905363Y-94894759D01*
X159105241Y-95094637D01*
X159337759Y-95250000D01*
X159105241Y-95405363D01*
X158905363Y-95605241D01*
X158748320Y-95840273D01*
X158640147Y-96101426D01*
X158585000Y-96378665D01*
X158585000Y-96661335D01*
X158640147Y-96938574D01*
X158748320Y-97199727D01*
X158905363Y-97434759D01*
X159105241Y-97634637D01*
X159337759Y-97790000D01*
X159105241Y-97945363D01*
X158905363Y-98145241D01*
X158748320Y-98380273D01*
X158640147Y-98641426D01*
X158585000Y-98918665D01*
X158585000Y-99201335D01*
X158640147Y-99478574D01*
X158748320Y-99739727D01*
X158905363Y-99974759D01*
X159105241Y-100174637D01*
X159337759Y-100330000D01*
X159105241Y-100485363D01*
X158905363Y-100685241D01*
X158748320Y-100920273D01*
X158640147Y-101181426D01*
X158585000Y-101458665D01*
X158585000Y-101741335D01*
X158640147Y-102018574D01*
X158748320Y-102279727D01*
X158905363Y-102514759D01*
X159103961Y-102713357D01*
X159095518Y-102714188D01*
X158975820Y-102750498D01*
X158865506Y-102809463D01*
X158768815Y-102888815D01*
X158689463Y-102985506D01*
X158630498Y-103095820D01*
X158594188Y-103215518D01*
X158581928Y-103340000D01*
X158581928Y-104940000D01*
X158594188Y-105064482D01*
X158630498Y-105184180D01*
X158689463Y-105294494D01*
X158768815Y-105391185D01*
X158865506Y-105470537D01*
X158975820Y-105529502D01*
X159095518Y-105565812D01*
X159220000Y-105578072D01*
X160820000Y-105578072D01*
X160944482Y-105565812D01*
X161064180Y-105529502D01*
X161174494Y-105470537D01*
X161271185Y-105391185D01*
X161350537Y-105294494D01*
X161409502Y-105184180D01*
X161445812Y-105064482D01*
X161458072Y-104940000D01*
X161458072Y-103340000D01*
X161445812Y-103215518D01*
X161409502Y-103095820D01*
X161350537Y-102985506D01*
X161271185Y-102888815D01*
X161174494Y-102809463D01*
X161064180Y-102750498D01*
X160944482Y-102714188D01*
X160936039Y-102713357D01*
X161134637Y-102514759D01*
X161291680Y-102279727D01*
X161399853Y-102018574D01*
X161455000Y-101741335D01*
X161455000Y-101458665D01*
X161399853Y-101181426D01*
X161291680Y-100920273D01*
X161134637Y-100685241D01*
X160934759Y-100485363D01*
X160702241Y-100330000D01*
X160934759Y-100174637D01*
X161134637Y-99974759D01*
X161291680Y-99739727D01*
X161399853Y-99478574D01*
X161455000Y-99201335D01*
X161455000Y-98918665D01*
X161399853Y-98641426D01*
X161291680Y-98380273D01*
X161134637Y-98145241D01*
X160934759Y-97945363D01*
X160702241Y-97790000D01*
X160854804Y-97688061D01*
X169145000Y-97688061D01*
X169145000Y-97891939D01*
X169184774Y-98091898D01*
X169262795Y-98280256D01*
X169376063Y-98449774D01*
X169520226Y-98593937D01*
X169689744Y-98707205D01*
X169878102Y-98785226D01*
X170078061Y-98825000D01*
X170281939Y-98825000D01*
X170481898Y-98785226D01*
X170670256Y-98707205D01*
X170839774Y-98593937D01*
X170983937Y-98449774D01*
X171097205Y-98280256D01*
X171175226Y-98091898D01*
X171215000Y-97891939D01*
X171215000Y-97688061D01*
X171175226Y-97488102D01*
X171097205Y-97299744D01*
X170983937Y-97130226D01*
X170839774Y-96986063D01*
X170670256Y-96872795D01*
X170481898Y-96794774D01*
X170281939Y-96755000D01*
X170078061Y-96755000D01*
X169878102Y-96794774D01*
X169689744Y-96872795D01*
X169520226Y-96986063D01*
X169376063Y-97130226D01*
X169262795Y-97299744D01*
X169184774Y-97488102D01*
X169145000Y-97688061D01*
X160854804Y-97688061D01*
X160934759Y-97634637D01*
X161134637Y-97434759D01*
X161291680Y-97199727D01*
X161399853Y-96938574D01*
X161455000Y-96661335D01*
X161455000Y-96378665D01*
X161399853Y-96101426D01*
X161291680Y-95840273D01*
X161134637Y-95605241D01*
X160934759Y-95405363D01*
X160702241Y-95250000D01*
X160934759Y-95094637D01*
X161134637Y-94894759D01*
X161291680Y-94659727D01*
X161399853Y-94398574D01*
X161455000Y-94121335D01*
X161455000Y-93838665D01*
X161399853Y-93561426D01*
X161291680Y-93300273D01*
X161134637Y-93065241D01*
X160934759Y-92865363D01*
X160702241Y-92710000D01*
X160934759Y-92554637D01*
X161134637Y-92354759D01*
X161291680Y-92119727D01*
X161399853Y-91858574D01*
X161455000Y-91581335D01*
X161455000Y-91298665D01*
X161399853Y-91021426D01*
X161291680Y-90760273D01*
X161134637Y-90525241D01*
X160934759Y-90325363D01*
X160702241Y-90170000D01*
X160934759Y-90014637D01*
X161134637Y-89814759D01*
X161291680Y-89579727D01*
X161399853Y-89318574D01*
X161455000Y-89041335D01*
X161455000Y-88798061D01*
X169145000Y-88798061D01*
X169145000Y-89001939D01*
X169184774Y-89201898D01*
X169262795Y-89390256D01*
X169376063Y-89559774D01*
X169520226Y-89703937D01*
X169689744Y-89817205D01*
X169878102Y-89895226D01*
X170078061Y-89935000D01*
X170281939Y-89935000D01*
X170481898Y-89895226D01*
X170670256Y-89817205D01*
X170839774Y-89703937D01*
X170983937Y-89559774D01*
X171097205Y-89390256D01*
X171175226Y-89201898D01*
X171215000Y-89001939D01*
X171215000Y-88798061D01*
X171175226Y-88598102D01*
X171097205Y-88409744D01*
X170983937Y-88240226D01*
X170839774Y-88096063D01*
X170670256Y-87982795D01*
X170481898Y-87904774D01*
X170281939Y-87865000D01*
X170078061Y-87865000D01*
X169878102Y-87904774D01*
X169689744Y-87982795D01*
X169520226Y-88096063D01*
X169376063Y-88240226D01*
X169262795Y-88409744D01*
X169184774Y-88598102D01*
X169145000Y-88798061D01*
X161455000Y-88798061D01*
X161455000Y-88758665D01*
X161399853Y-88481426D01*
X161291680Y-88220273D01*
X161134637Y-87985241D01*
X160934759Y-87785363D01*
X160702241Y-87630000D01*
X160934759Y-87474637D01*
X161134637Y-87274759D01*
X161291680Y-87039727D01*
X161399853Y-86778574D01*
X161455000Y-86501335D01*
X161455000Y-86218665D01*
X161399853Y-85941426D01*
X161291680Y-85680273D01*
X161134637Y-85445241D01*
X160934759Y-85245363D01*
X160702241Y-85090000D01*
X160934759Y-84934637D01*
X161134637Y-84734759D01*
X161291680Y-84499727D01*
X161399853Y-84238574D01*
X161455000Y-83961335D01*
X161455000Y-83678665D01*
X161399853Y-83401426D01*
X161291680Y-83140273D01*
X161134637Y-82905241D01*
X160934759Y-82705363D01*
X160702241Y-82550000D01*
X160934759Y-82394637D01*
X161134637Y-82194759D01*
X161291680Y-81959727D01*
X161399853Y-81698574D01*
X161455000Y-81421335D01*
X161455000Y-81138665D01*
X161399853Y-80861426D01*
X161361983Y-80770000D01*
X164667676Y-80770000D01*
X164704998Y-80773676D01*
X164742320Y-80770000D01*
X164742331Y-80770000D01*
X164853984Y-80759003D01*
X164997245Y-80715546D01*
X165129274Y-80644974D01*
X165244999Y-80550001D01*
X165268802Y-80520997D01*
X173989022Y-71800778D01*
X174145363Y-72034759D01*
X174345241Y-72234637D01*
X174577759Y-72390000D01*
X174345241Y-72545363D01*
X174145363Y-72745241D01*
X173988320Y-72980273D01*
X173880147Y-73241426D01*
X173825000Y-73518665D01*
X173825000Y-73801335D01*
X173880147Y-74078574D01*
X173988320Y-74339727D01*
X174145363Y-74574759D01*
X174345241Y-74774637D01*
X174577759Y-74930000D01*
X174345241Y-75085363D01*
X174145363Y-75285241D01*
X173988320Y-75520273D01*
X173880147Y-75781426D01*
X173825000Y-76058665D01*
X173825000Y-76341335D01*
X173880147Y-76618574D01*
X173988320Y-76879727D01*
X174145363Y-77114759D01*
X174345241Y-77314637D01*
X174577759Y-77470000D01*
X174345241Y-77625363D01*
X174145363Y-77825241D01*
X173988320Y-78060273D01*
X173880147Y-78321426D01*
X173825000Y-78598665D01*
X173825000Y-78881335D01*
X173880147Y-79158574D01*
X173988320Y-79419727D01*
X174145363Y-79654759D01*
X174345241Y-79854637D01*
X174577759Y-80010000D01*
X174345241Y-80165363D01*
X174145363Y-80365241D01*
X173988320Y-80600273D01*
X173880147Y-80861426D01*
X173825000Y-81138665D01*
X173825000Y-81421335D01*
X173880147Y-81698574D01*
X173988320Y-81959727D01*
X174145363Y-82194759D01*
X174345241Y-82394637D01*
X174577759Y-82550000D01*
X174345241Y-82705363D01*
X174145363Y-82905241D01*
X173988320Y-83140273D01*
X173880147Y-83401426D01*
X173825000Y-83678665D01*
X173825000Y-83961335D01*
X173880147Y-84238574D01*
X173988320Y-84499727D01*
X174145363Y-84734759D01*
X174345241Y-84934637D01*
X174577759Y-85090000D01*
X174345241Y-85245363D01*
X174145363Y-85445241D01*
X173988320Y-85680273D01*
X173880147Y-85941426D01*
X173825000Y-86218665D01*
X173825000Y-86501335D01*
X173880147Y-86778574D01*
X173988320Y-87039727D01*
X174145363Y-87274759D01*
X174345241Y-87474637D01*
X174577759Y-87630000D01*
X174345241Y-87785363D01*
X174145363Y-87985241D01*
X173988320Y-88220273D01*
X173880147Y-88481426D01*
X173825000Y-88758665D01*
X173825000Y-89041335D01*
X173880147Y-89318574D01*
X173988320Y-89579727D01*
X174145363Y-89814759D01*
X174345241Y-90014637D01*
X174577759Y-90170000D01*
X174345241Y-90325363D01*
X174145363Y-90525241D01*
X173988320Y-90760273D01*
X173880147Y-91021426D01*
X173825000Y-91298665D01*
X173825000Y-91581335D01*
X173880147Y-91858574D01*
X173988320Y-92119727D01*
X174145363Y-92354759D01*
X174345241Y-92554637D01*
X174577759Y-92710000D01*
X174345241Y-92865363D01*
X174145363Y-93065241D01*
X173988320Y-93300273D01*
X173880147Y-93561426D01*
X173825000Y-93838665D01*
X173825000Y-94121335D01*
X173880147Y-94398574D01*
X173988320Y-94659727D01*
X174145363Y-94894759D01*
X174345241Y-95094637D01*
X174577759Y-95250000D01*
X174345241Y-95405363D01*
X174145363Y-95605241D01*
X173988320Y-95840273D01*
X173880147Y-96101426D01*
X173825000Y-96378665D01*
X173825000Y-96661335D01*
X173880147Y-96938574D01*
X173988320Y-97199727D01*
X174145363Y-97434759D01*
X174345241Y-97634637D01*
X174577759Y-97790000D01*
X174345241Y-97945363D01*
X174145363Y-98145241D01*
X173988320Y-98380273D01*
X173880147Y-98641426D01*
X173825000Y-98918665D01*
X173825000Y-99201335D01*
X173880147Y-99478574D01*
X173988320Y-99739727D01*
X174145363Y-99974759D01*
X174345241Y-100174637D01*
X174577759Y-100330000D01*
X174345241Y-100485363D01*
X174145363Y-100685241D01*
X173988320Y-100920273D01*
X173880147Y-101181426D01*
X173825000Y-101458665D01*
X173825000Y-101741335D01*
X173880147Y-102018574D01*
X173988320Y-102279727D01*
X174145363Y-102514759D01*
X174345241Y-102714637D01*
X174577759Y-102870000D01*
X174345241Y-103025363D01*
X174145363Y-103225241D01*
X173988320Y-103460273D01*
X173880147Y-103721426D01*
X173825000Y-103998665D01*
X173825000Y-104281335D01*
X173880147Y-104558574D01*
X173988320Y-104819727D01*
X174145363Y-105054759D01*
X174345241Y-105254637D01*
X174580273Y-105411680D01*
X174841426Y-105519853D01*
X175118665Y-105575000D01*
X175401335Y-105575000D01*
X175678574Y-105519853D01*
X175939727Y-105411680D01*
X176174759Y-105254637D01*
X176374637Y-105054759D01*
X176531680Y-104819727D01*
X176639853Y-104558574D01*
X176695000Y-104281335D01*
X176695000Y-103998665D01*
X176639853Y-103721426D01*
X176531680Y-103460273D01*
X176374637Y-103225241D01*
X176174759Y-103025363D01*
X175942241Y-102870000D01*
X176174759Y-102714637D01*
X176374637Y-102514759D01*
X176531680Y-102279727D01*
X176639853Y-102018574D01*
X176695000Y-101741335D01*
X176695000Y-101458665D01*
X176639853Y-101181426D01*
X176531680Y-100920273D01*
X176374637Y-100685241D01*
X176174759Y-100485363D01*
X175942241Y-100330000D01*
X176094804Y-100228061D01*
X179305000Y-100228061D01*
X179305000Y-100431939D01*
X179344774Y-100631898D01*
X179422795Y-100820256D01*
X179536063Y-100989774D01*
X179680226Y-101133937D01*
X179849744Y-101247205D01*
X180038102Y-101325226D01*
X180238061Y-101365000D01*
X180441939Y-101365000D01*
X180641898Y-101325226D01*
X180830256Y-101247205D01*
X180999774Y-101133937D01*
X181143937Y-100989774D01*
X181257205Y-100820256D01*
X181335226Y-100631898D01*
X181375000Y-100431939D01*
X181375000Y-100228061D01*
X181335226Y-100028102D01*
X181257205Y-99839744D01*
X181143937Y-99670226D01*
X180999774Y-99526063D01*
X180830256Y-99412795D01*
X180641898Y-99334774D01*
X180441939Y-99295000D01*
X180238061Y-99295000D01*
X180038102Y-99334774D01*
X179849744Y-99412795D01*
X179680226Y-99526063D01*
X179536063Y-99670226D01*
X179422795Y-99839744D01*
X179344774Y-100028102D01*
X179305000Y-100228061D01*
X176094804Y-100228061D01*
X176174759Y-100174637D01*
X176374637Y-99974759D01*
X176531680Y-99739727D01*
X176639853Y-99478574D01*
X176695000Y-99201335D01*
X176695000Y-98918665D01*
X176639853Y-98641426D01*
X176531680Y-98380273D01*
X176374637Y-98145241D01*
X176174759Y-97945363D01*
X175942241Y-97790000D01*
X176174759Y-97634637D01*
X176374637Y-97434759D01*
X176531680Y-97199727D01*
X176639853Y-96938574D01*
X176695000Y-96661335D01*
X176695000Y-96378665D01*
X176639853Y-96101426D01*
X176531680Y-95840273D01*
X176374637Y-95605241D01*
X176174759Y-95405363D01*
X175942241Y-95250000D01*
X176174759Y-95094637D01*
X176374637Y-94894759D01*
X176531680Y-94659727D01*
X176639853Y-94398574D01*
X176695000Y-94121335D01*
X176695000Y-93838665D01*
X176639853Y-93561426D01*
X176531680Y-93300273D01*
X176374637Y-93065241D01*
X176174759Y-92865363D01*
X175942241Y-92710000D01*
X176174759Y-92554637D01*
X176374637Y-92354759D01*
X176531680Y-92119727D01*
X176639853Y-91858574D01*
X176695000Y-91581335D01*
X176695000Y-91298665D01*
X176639853Y-91021426D01*
X176531680Y-90760273D01*
X176374637Y-90525241D01*
X176174759Y-90325363D01*
X175942241Y-90170000D01*
X176174759Y-90014637D01*
X176374637Y-89814759D01*
X176531680Y-89579727D01*
X176639853Y-89318574D01*
X176695000Y-89041335D01*
X176695000Y-88758665D01*
X176639853Y-88481426D01*
X176531680Y-88220273D01*
X176374637Y-87985241D01*
X176174759Y-87785363D01*
X175942241Y-87630000D01*
X176174759Y-87474637D01*
X176374637Y-87274759D01*
X176531680Y-87039727D01*
X176639853Y-86778574D01*
X176695000Y-86501335D01*
X176695000Y-86218665D01*
X176639853Y-85941426D01*
X176531680Y-85680273D01*
X176374637Y-85445241D01*
X176174759Y-85245363D01*
X175942241Y-85090000D01*
X176174759Y-84934637D01*
X176374637Y-84734759D01*
X176531680Y-84499727D01*
X176639853Y-84238574D01*
X176695000Y-83961335D01*
X176695000Y-83678665D01*
X176639853Y-83401426D01*
X176531680Y-83140273D01*
X176374637Y-82905241D01*
X176174759Y-82705363D01*
X175942241Y-82550000D01*
X176174759Y-82394637D01*
X176374637Y-82194759D01*
X176531680Y-81959727D01*
X176639853Y-81698574D01*
X176695000Y-81421335D01*
X176695000Y-81138665D01*
X176639853Y-80861426D01*
X176531680Y-80600273D01*
X176374637Y-80365241D01*
X176174759Y-80165363D01*
X175942241Y-80010000D01*
X176174759Y-79854637D01*
X176374637Y-79654759D01*
X176531680Y-79419727D01*
X176639853Y-79158574D01*
X176695000Y-78881335D01*
X176695000Y-78598665D01*
X176639853Y-78321426D01*
X176531680Y-78060273D01*
X176374637Y-77825241D01*
X176174759Y-77625363D01*
X175942241Y-77470000D01*
X176174759Y-77314637D01*
X176374637Y-77114759D01*
X176531680Y-76879727D01*
X176639853Y-76618574D01*
X176695000Y-76341335D01*
X176695000Y-76058665D01*
X176639853Y-75781426D01*
X176531680Y-75520273D01*
X176374637Y-75285241D01*
X176174759Y-75085363D01*
X175942241Y-74930000D01*
X176174759Y-74774637D01*
X176374637Y-74574759D01*
X176531680Y-74339727D01*
X176639853Y-74078574D01*
X176695000Y-73801335D01*
X176695000Y-73518665D01*
X176639853Y-73241426D01*
X176531680Y-72980273D01*
X176374637Y-72745241D01*
X176174759Y-72545363D01*
X175942241Y-72390000D01*
X176174759Y-72234637D01*
X176374637Y-72034759D01*
X176531680Y-71799727D01*
X176639853Y-71538574D01*
X176695000Y-71261335D01*
X176695000Y-70978665D01*
X176639853Y-70701426D01*
X176531680Y-70440273D01*
X176374637Y-70205241D01*
X176174759Y-70005363D01*
X175942241Y-69850000D01*
X176174759Y-69694637D01*
X176374637Y-69494759D01*
X176531680Y-69259727D01*
X176639853Y-68998574D01*
X176695000Y-68721335D01*
X176695000Y-68438665D01*
X176639853Y-68161426D01*
X176531680Y-67900273D01*
X176374637Y-67665241D01*
X176174759Y-67465363D01*
X175939727Y-67308320D01*
X175678574Y-67200147D01*
X175401335Y-67145000D01*
X175118665Y-67145000D01*
X174841426Y-67200147D01*
X174580273Y-67308320D01*
X174345241Y-67465363D01*
X174145363Y-67665241D01*
X173988320Y-67900273D01*
X173880147Y-68161426D01*
X173825000Y-68438665D01*
X173825000Y-68721335D01*
X173880147Y-68998574D01*
X173988320Y-69259727D01*
X174145363Y-69494759D01*
X174145400Y-69494796D01*
X164390197Y-79250000D01*
X161361983Y-79250000D01*
X161399853Y-79158574D01*
X161455000Y-78881335D01*
X161455000Y-78598665D01*
X161399853Y-78321426D01*
X161291680Y-78060273D01*
X161134637Y-77825241D01*
X161134600Y-77825204D01*
X161656010Y-77303795D01*
X161685002Y-77280002D01*
X161708796Y-77251009D01*
X161708800Y-77251005D01*
X161779974Y-77164278D01*
X161779975Y-77164277D01*
X161850547Y-77032248D01*
X161894004Y-76888987D01*
X161905001Y-76777334D01*
X161905001Y-76777325D01*
X161908677Y-76740002D01*
X161905001Y-76702679D01*
X161905001Y-72282326D01*
X161908677Y-72245001D01*
X161905001Y-72207676D01*
X161905001Y-72207668D01*
X161894004Y-72096015D01*
X161850547Y-71952754D01*
X161779975Y-71820725D01*
X161685002Y-71705000D01*
X161656004Y-71681202D01*
X161418688Y-71443886D01*
X161455000Y-71261335D01*
X161455000Y-70978665D01*
X161399853Y-70701426D01*
X161291680Y-70440273D01*
X161134637Y-70205241D01*
X160934759Y-70005363D01*
X160702241Y-69850000D01*
X160934759Y-69694637D01*
X161134637Y-69494759D01*
X161291680Y-69259727D01*
X161399853Y-68998574D01*
X161455000Y-68721335D01*
X161455000Y-68438665D01*
X161399853Y-68161426D01*
X161291680Y-67900273D01*
X161134637Y-67665241D01*
X160934759Y-67465363D01*
X160699727Y-67308320D01*
X160438574Y-67200147D01*
X160161335Y-67145000D01*
X159878665Y-67145000D01*
X159601426Y-67200147D01*
X159340273Y-67308320D01*
X159105241Y-67465363D01*
X158905363Y-67665241D01*
X158748320Y-67900273D01*
X158640147Y-68161426D01*
X158585000Y-68438665D01*
X158585000Y-68721335D01*
X158640147Y-68998574D01*
X158748320Y-69259727D01*
X158905363Y-69494759D01*
X159105241Y-69694637D01*
X159337759Y-69850000D01*
X159105241Y-70005363D01*
X158905363Y-70205241D01*
X158748320Y-70440273D01*
X158640147Y-70701426D01*
X158585000Y-70978665D01*
X158585000Y-71261335D01*
X158640147Y-71538574D01*
X158678017Y-71630000D01*
X154948178Y-71630000D01*
X154823475Y-71443368D01*
X154691620Y-71311513D01*
X154764180Y-71289502D01*
X154874494Y-71230537D01*
X154971185Y-71151185D01*
X155050537Y-71054494D01*
X155109502Y-70944180D01*
X155145812Y-70824482D01*
X155158072Y-70700000D01*
X155158072Y-69000000D01*
X155145812Y-68875518D01*
X155109502Y-68755820D01*
X155050537Y-68645506D01*
X154971185Y-68548815D01*
X154874494Y-68469463D01*
X154764180Y-68410498D01*
X154644482Y-68374188D01*
X154520000Y-68361928D01*
X152820000Y-68361928D01*
X152695518Y-68374188D01*
X152575820Y-68410498D01*
X152465506Y-68469463D01*
X152368815Y-68548815D01*
X152289463Y-68645506D01*
X152230498Y-68755820D01*
X152194188Y-68875518D01*
X152181928Y-69000000D01*
X152181928Y-70263271D01*
X151984002Y-70461197D01*
X151954998Y-70485000D01*
X151899870Y-70552175D01*
X151860025Y-70600725D01*
X151809247Y-70695724D01*
X151789453Y-70732755D01*
X151745996Y-70876016D01*
X151734999Y-70987669D01*
X151734999Y-70987679D01*
X151731323Y-71025001D01*
X150545000Y-71025001D01*
X150545000Y-58318061D01*
X155175000Y-58318061D01*
X155175000Y-58521939D01*
X155214774Y-58721898D01*
X155292795Y-58910256D01*
X155406063Y-59079774D01*
X155550226Y-59223937D01*
X155719744Y-59337205D01*
X155908102Y-59415226D01*
X156108061Y-59455000D01*
X156311939Y-59455000D01*
X156511898Y-59415226D01*
X156700256Y-59337205D01*
X156869774Y-59223937D01*
X157013937Y-59079774D01*
X157127205Y-58910256D01*
X157205226Y-58721898D01*
X157245000Y-58521939D01*
X157245000Y-58318061D01*
X160255000Y-58318061D01*
X160255000Y-58521939D01*
X160294774Y-58721898D01*
X160372795Y-58910256D01*
X160486063Y-59079774D01*
X160630226Y-59223937D01*
X160799744Y-59337205D01*
X160988102Y-59415226D01*
X161188061Y-59455000D01*
X161391939Y-59455000D01*
X161591898Y-59415226D01*
X161780256Y-59337205D01*
X161949774Y-59223937D01*
X162093937Y-59079774D01*
X162207205Y-58910256D01*
X162285226Y-58721898D01*
X162325000Y-58521939D01*
X162325000Y-58408967D01*
X169125000Y-58408967D01*
X169125000Y-58731033D01*
X169187832Y-59046912D01*
X169311082Y-59344463D01*
X169490013Y-59612252D01*
X169717748Y-59839987D01*
X169985537Y-60018918D01*
X170283088Y-60142168D01*
X170598967Y-60205000D01*
X170921033Y-60205000D01*
X171236912Y-60142168D01*
X171534463Y-60018918D01*
X171802252Y-59839987D01*
X172029987Y-59612252D01*
X172208918Y-59344463D01*
X172332168Y-59046912D01*
X172395000Y-58731033D01*
X172395000Y-58408967D01*
X173625000Y-58408967D01*
X173625000Y-58731033D01*
X173687832Y-59046912D01*
X173811082Y-59344463D01*
X173990013Y-59612252D01*
X174217748Y-59839987D01*
X174485537Y-60018918D01*
X174783088Y-60142168D01*
X175098967Y-60205000D01*
X175421033Y-60205000D01*
X175736912Y-60142168D01*
X176034463Y-60018918D01*
X176302252Y-59839987D01*
X176529987Y-59612252D01*
X176708918Y-59344463D01*
X176832168Y-59046912D01*
X176895000Y-58731033D01*
X176895000Y-58408967D01*
X176832168Y-58093088D01*
X176708918Y-57795537D01*
X176529987Y-57527748D01*
X176302252Y-57300013D01*
X176034463Y-57121082D01*
X175736912Y-56997832D01*
X175421033Y-56935000D01*
X175098967Y-56935000D01*
X174783088Y-56997832D01*
X174485537Y-57121082D01*
X174217748Y-57300013D01*
X173990013Y-57527748D01*
X173811082Y-57795537D01*
X173687832Y-58093088D01*
X173625000Y-58408967D01*
X172395000Y-58408967D01*
X172332168Y-58093088D01*
X172208918Y-57795537D01*
X172029987Y-57527748D01*
X171802252Y-57300013D01*
X171534463Y-57121082D01*
X171236912Y-56997832D01*
X170921033Y-56935000D01*
X170598967Y-56935000D01*
X170283088Y-56997832D01*
X169985537Y-57121082D01*
X169717748Y-57300013D01*
X169490013Y-57527748D01*
X169311082Y-57795537D01*
X169187832Y-58093088D01*
X169125000Y-58408967D01*
X162325000Y-58408967D01*
X162325000Y-58318061D01*
X162285226Y-58118102D01*
X162207205Y-57929744D01*
X162093937Y-57760226D01*
X161949774Y-57616063D01*
X161780256Y-57502795D01*
X161591898Y-57424774D01*
X161391939Y-57385000D01*
X161188061Y-57385000D01*
X160988102Y-57424774D01*
X160799744Y-57502795D01*
X160630226Y-57616063D01*
X160486063Y-57760226D01*
X160372795Y-57929744D01*
X160294774Y-58118102D01*
X160255000Y-58318061D01*
X157245000Y-58318061D01*
X157205226Y-58118102D01*
X157127205Y-57929744D01*
X157013937Y-57760226D01*
X156869774Y-57616063D01*
X156700256Y-57502795D01*
X156511898Y-57424774D01*
X156311939Y-57385000D01*
X156108061Y-57385000D01*
X155908102Y-57424774D01*
X155719744Y-57502795D01*
X155550226Y-57616063D01*
X155406063Y-57760226D01*
X155292795Y-57929744D01*
X155214774Y-58118102D01*
X155175000Y-58318061D01*
X150545000Y-58318061D01*
X150545000Y-55728816D01*
X158485000Y-55728816D01*
X158485000Y-56031184D01*
X158543989Y-56327743D01*
X158659701Y-56607095D01*
X158827688Y-56858505D01*
X159041495Y-57072312D01*
X159292905Y-57240299D01*
X159572257Y-57356011D01*
X159868816Y-57415000D01*
X160171184Y-57415000D01*
X160467743Y-57356011D01*
X160747095Y-57240299D01*
X160998505Y-57072312D01*
X161212312Y-56858505D01*
X161290000Y-56742237D01*
X161367688Y-56858505D01*
X161581495Y-57072312D01*
X161832905Y-57240299D01*
X162112257Y-57356011D01*
X162408816Y-57415000D01*
X162711184Y-57415000D01*
X163007743Y-57356011D01*
X163287095Y-57240299D01*
X163538505Y-57072312D01*
X163667922Y-56942895D01*
X163711325Y-57024097D01*
X163821570Y-57158430D01*
X163955903Y-57268675D01*
X164109162Y-57350593D01*
X164275458Y-57401039D01*
X164448400Y-57418072D01*
X165751600Y-57418072D01*
X165924542Y-57401039D01*
X166090838Y-57350593D01*
X166244097Y-57268675D01*
X166378430Y-57158430D01*
X166488675Y-57024097D01*
X166570593Y-56870838D01*
X166621039Y-56704542D01*
X166638072Y-56531600D01*
X166638072Y-55228400D01*
X166621039Y-55055458D01*
X166570593Y-54889162D01*
X166488675Y-54735903D01*
X166378430Y-54601570D01*
X166244097Y-54491325D01*
X166090838Y-54409407D01*
X165924542Y-54358961D01*
X165751600Y-54341928D01*
X164448400Y-54341928D01*
X164275458Y-54358961D01*
X164109162Y-54409407D01*
X163955903Y-54491325D01*
X163821570Y-54601570D01*
X163711325Y-54735903D01*
X163667922Y-54817105D01*
X163538505Y-54687688D01*
X163287095Y-54519701D01*
X163007743Y-54403989D01*
X162711184Y-54345000D01*
X162408816Y-54345000D01*
X162112257Y-54403989D01*
X161832905Y-54519701D01*
X161581495Y-54687688D01*
X161367688Y-54901495D01*
X161290000Y-55017763D01*
X161212312Y-54901495D01*
X160998505Y-54687688D01*
X160747095Y-54519701D01*
X160467743Y-54403989D01*
X160171184Y-54345000D01*
X159868816Y-54345000D01*
X159572257Y-54403989D01*
X159292905Y-54519701D01*
X159041495Y-54687688D01*
X158827688Y-54901495D01*
X158659701Y-55152905D01*
X158543989Y-55432257D01*
X158485000Y-55728816D01*
X150545000Y-55728816D01*
X150545000Y-53119872D01*
X151435000Y-53119872D01*
X151435000Y-53560128D01*
X151520890Y-53991925D01*
X151689369Y-54398669D01*
X151933962Y-54764729D01*
X152245271Y-55076038D01*
X152611331Y-55320631D01*
X153018075Y-55489110D01*
X153449872Y-55575000D01*
X153890128Y-55575000D01*
X154321925Y-55489110D01*
X154728669Y-55320631D01*
X155094729Y-55076038D01*
X155406038Y-54764729D01*
X155650631Y-54398669D01*
X155819110Y-53991925D01*
X155905000Y-53560128D01*
X155905000Y-53119872D01*
X155819110Y-52688075D01*
X155650631Y-52281331D01*
X155406038Y-51915271D01*
X155399734Y-51908967D01*
X169125000Y-51908967D01*
X169125000Y-52231033D01*
X169187832Y-52546912D01*
X169311082Y-52844463D01*
X169490013Y-53112252D01*
X169717748Y-53339987D01*
X169985537Y-53518918D01*
X170283088Y-53642168D01*
X170598967Y-53705000D01*
X170921033Y-53705000D01*
X171236912Y-53642168D01*
X171534463Y-53518918D01*
X171802252Y-53339987D01*
X172029987Y-53112252D01*
X172208918Y-52844463D01*
X172332168Y-52546912D01*
X172395000Y-52231033D01*
X172395000Y-51908967D01*
X173625000Y-51908967D01*
X173625000Y-52231033D01*
X173687832Y-52546912D01*
X173811082Y-52844463D01*
X173990013Y-53112252D01*
X174217748Y-53339987D01*
X174485537Y-53518918D01*
X174783088Y-53642168D01*
X175098967Y-53705000D01*
X175421033Y-53705000D01*
X175736912Y-53642168D01*
X176034463Y-53518918D01*
X176302252Y-53339987D01*
X176522367Y-53119872D01*
X178105000Y-53119872D01*
X178105000Y-53560128D01*
X178190890Y-53991925D01*
X178359369Y-54398669D01*
X178603962Y-54764729D01*
X178915271Y-55076038D01*
X179281331Y-55320631D01*
X179688075Y-55489110D01*
X180119872Y-55575000D01*
X180560128Y-55575000D01*
X180991925Y-55489110D01*
X181398669Y-55320631D01*
X181764729Y-55076038D01*
X182076038Y-54764729D01*
X182320631Y-54398669D01*
X182489110Y-53991925D01*
X182575000Y-53560128D01*
X182575000Y-53119872D01*
X182489110Y-52688075D01*
X182320631Y-52281331D01*
X182076038Y-51915271D01*
X181764729Y-51603962D01*
X181398669Y-51359369D01*
X180991925Y-51190890D01*
X180560128Y-51105000D01*
X180119872Y-51105000D01*
X179688075Y-51190890D01*
X179281331Y-51359369D01*
X178915271Y-51603962D01*
X178603962Y-51915271D01*
X178359369Y-52281331D01*
X178190890Y-52688075D01*
X178105000Y-53119872D01*
X176522367Y-53119872D01*
X176529987Y-53112252D01*
X176708918Y-52844463D01*
X176832168Y-52546912D01*
X176895000Y-52231033D01*
X176895000Y-51908967D01*
X176832168Y-51593088D01*
X176708918Y-51295537D01*
X176529987Y-51027748D01*
X176302252Y-50800013D01*
X176034463Y-50621082D01*
X175736912Y-50497832D01*
X175421033Y-50435000D01*
X175098967Y-50435000D01*
X174783088Y-50497832D01*
X174485537Y-50621082D01*
X174217748Y-50800013D01*
X173990013Y-51027748D01*
X173811082Y-51295537D01*
X173687832Y-51593088D01*
X173625000Y-51908967D01*
X172395000Y-51908967D01*
X172332168Y-51593088D01*
X172208918Y-51295537D01*
X172029987Y-51027748D01*
X171802252Y-50800013D01*
X171534463Y-50621082D01*
X171236912Y-50497832D01*
X170921033Y-50435000D01*
X170598967Y-50435000D01*
X170283088Y-50497832D01*
X169985537Y-50621082D01*
X169717748Y-50800013D01*
X169490013Y-51027748D01*
X169311082Y-51295537D01*
X169187832Y-51593088D01*
X169125000Y-51908967D01*
X155399734Y-51908967D01*
X155094729Y-51603962D01*
X154728669Y-51359369D01*
X154321925Y-51190890D01*
X153890128Y-51105000D01*
X153449872Y-51105000D01*
X153018075Y-51190890D01*
X152611331Y-51359369D01*
X152245271Y-51603962D01*
X151933962Y-51915271D01*
X151689369Y-52281331D01*
X151520890Y-52688075D01*
X151435000Y-53119872D01*
X150545000Y-53119872D01*
X150545000Y-52036353D01*
X150535711Y-51942044D01*
X150558909Y-51705455D01*
X150664780Y-51354792D01*
X150836744Y-51031375D01*
X151068254Y-50747516D01*
X151350486Y-50514035D01*
X151672695Y-50339817D01*
X152022614Y-50231498D01*
X152269936Y-50205504D01*
X152366353Y-50215000D01*
%TA.AperFunction,NonConductor*%
D21*
G36*
X152366353Y-50215000D02*
G01*
X181643647Y-50215000D01*
X181737956Y-50205711D01*
X181974545Y-50228909D01*
X182325208Y-50334780D01*
X182648625Y-50506744D01*
X182932484Y-50738254D01*
X183165965Y-51020486D01*
X183340183Y-51342695D01*
X183448502Y-51692614D01*
X183474496Y-51939937D01*
X183465000Y-52036354D01*
X183465001Y-120683647D01*
X183474289Y-120777951D01*
X183451091Y-121014545D01*
X183345220Y-121365206D01*
X183173257Y-121688623D01*
X182941748Y-121972482D01*
X182659514Y-122205965D01*
X182337304Y-122380184D01*
X181987385Y-122488502D01*
X181740064Y-122514496D01*
X181643647Y-122505000D01*
X152366353Y-122505000D01*
X152272044Y-122514289D01*
X152035455Y-122491091D01*
X151684794Y-122385220D01*
X151361377Y-122213257D01*
X151077518Y-121981748D01*
X150844035Y-121699514D01*
X150669816Y-121377304D01*
X150561498Y-121027385D01*
X150535504Y-120780064D01*
X150545000Y-120683647D01*
X150545000Y-115160475D01*
X151695000Y-115160475D01*
X151695000Y-115679525D01*
X151796261Y-116188601D01*
X151994893Y-116668141D01*
X152283262Y-117099715D01*
X152650285Y-117466738D01*
X153081859Y-117755107D01*
X153561399Y-117953739D01*
X154070475Y-118055000D01*
X154589525Y-118055000D01*
X155098601Y-117953739D01*
X155578141Y-117755107D01*
X156009715Y-117466738D01*
X156376738Y-117099715D01*
X156665107Y-116668141D01*
X156863739Y-116188601D01*
X156893297Y-116040000D01*
X159851928Y-116040000D01*
X159851928Y-117640000D01*
X159864188Y-117764482D01*
X159900498Y-117884180D01*
X159959463Y-117994494D01*
X160038815Y-118091185D01*
X160135506Y-118170537D01*
X160245820Y-118229502D01*
X160365518Y-118265812D01*
X160490000Y-118278072D01*
X162090000Y-118278072D01*
X162214482Y-118265812D01*
X162334180Y-118229502D01*
X162444494Y-118170537D01*
X162541185Y-118091185D01*
X162620537Y-117994494D01*
X162679502Y-117884180D01*
X162715812Y-117764482D01*
X162728072Y-117640000D01*
X162728072Y-117374275D01*
X162788320Y-117519727D01*
X162945363Y-117754759D01*
X163145241Y-117954637D01*
X163380273Y-118111680D01*
X163641426Y-118219853D01*
X163918665Y-118275000D01*
X164201335Y-118275000D01*
X164478574Y-118219853D01*
X164739727Y-118111680D01*
X164974759Y-117954637D01*
X165174637Y-117754759D01*
X165331680Y-117519727D01*
X165439853Y-117258574D01*
X165445000Y-117232699D01*
X165450147Y-117258574D01*
X165558320Y-117519727D01*
X165715363Y-117754759D01*
X165915241Y-117954637D01*
X166150273Y-118111680D01*
X166411426Y-118219853D01*
X166688665Y-118275000D01*
X166971335Y-118275000D01*
X167248574Y-118219853D01*
X167509727Y-118111680D01*
X167744759Y-117954637D01*
X167944637Y-117754759D01*
X168101680Y-117519727D01*
X168209853Y-117258574D01*
X168215000Y-117232699D01*
X168220147Y-117258574D01*
X168328320Y-117519727D01*
X168485363Y-117754759D01*
X168685241Y-117954637D01*
X168920273Y-118111680D01*
X169181426Y-118219853D01*
X169458665Y-118275000D01*
X169741335Y-118275000D01*
X170018574Y-118219853D01*
X170279727Y-118111680D01*
X170514759Y-117954637D01*
X170714637Y-117754759D01*
X170871680Y-117519727D01*
X170979853Y-117258574D01*
X170985000Y-117232699D01*
X170990147Y-117258574D01*
X171098320Y-117519727D01*
X171255363Y-117754759D01*
X171455241Y-117954637D01*
X171690273Y-118111680D01*
X171951426Y-118219853D01*
X172228665Y-118275000D01*
X172511335Y-118275000D01*
X172788574Y-118219853D01*
X173049727Y-118111680D01*
X173284759Y-117954637D01*
X173484637Y-117754759D01*
X173641680Y-117519727D01*
X173749853Y-117258574D01*
X173805000Y-116981335D01*
X173805000Y-116698665D01*
X173749853Y-116421426D01*
X173641680Y-116160273D01*
X173484637Y-115925241D01*
X173284759Y-115725363D01*
X173049727Y-115568320D01*
X172788574Y-115460147D01*
X172511335Y-115405000D01*
X172228665Y-115405000D01*
X171951426Y-115460147D01*
X171690273Y-115568320D01*
X171455241Y-115725363D01*
X171255363Y-115925241D01*
X171098320Y-116160273D01*
X170990147Y-116421426D01*
X170985000Y-116447301D01*
X170979853Y-116421426D01*
X170871680Y-116160273D01*
X170714637Y-115925241D01*
X170514759Y-115725363D01*
X170279727Y-115568320D01*
X170018574Y-115460147D01*
X169741335Y-115405000D01*
X169458665Y-115405000D01*
X169181426Y-115460147D01*
X168920273Y-115568320D01*
X168685241Y-115725363D01*
X168485363Y-115925241D01*
X168328320Y-116160273D01*
X168220147Y-116421426D01*
X168215000Y-116447301D01*
X168209853Y-116421426D01*
X168101680Y-116160273D01*
X167944637Y-115925241D01*
X167744759Y-115725363D01*
X167509727Y-115568320D01*
X167248574Y-115460147D01*
X166971335Y-115405000D01*
X166688665Y-115405000D01*
X166411426Y-115460147D01*
X166150273Y-115568320D01*
X165915241Y-115725363D01*
X165715363Y-115925241D01*
X165558320Y-116160273D01*
X165450147Y-116421426D01*
X165445000Y-116447301D01*
X165439853Y-116421426D01*
X165331680Y-116160273D01*
X165174637Y-115925241D01*
X164974759Y-115725363D01*
X164820000Y-115621957D01*
X164820000Y-115294349D01*
X165026426Y-115379853D01*
X165303665Y-115435000D01*
X165586335Y-115435000D01*
X165863574Y-115379853D01*
X166124727Y-115271680D01*
X166359759Y-115114637D01*
X166559637Y-114914759D01*
X166716680Y-114679727D01*
X166824853Y-114418574D01*
X166830000Y-114392699D01*
X166835147Y-114418574D01*
X166943320Y-114679727D01*
X167100363Y-114914759D01*
X167300241Y-115114637D01*
X167535273Y-115271680D01*
X167796426Y-115379853D01*
X168073665Y-115435000D01*
X168356335Y-115435000D01*
X168633574Y-115379853D01*
X168894727Y-115271680D01*
X169129759Y-115114637D01*
X169329637Y-114914759D01*
X169486680Y-114679727D01*
X169594853Y-114418574D01*
X169600000Y-114392699D01*
X169605147Y-114418574D01*
X169713320Y-114679727D01*
X169870363Y-114914759D01*
X170070241Y-115114637D01*
X170305273Y-115271680D01*
X170566426Y-115379853D01*
X170843665Y-115435000D01*
X171126335Y-115435000D01*
X171403574Y-115379853D01*
X171664727Y-115271680D01*
X171831157Y-115160475D01*
X176695000Y-115160475D01*
X176695000Y-115679525D01*
X176796261Y-116188601D01*
X176994893Y-116668141D01*
X177283262Y-117099715D01*
X177650285Y-117466738D01*
X178081859Y-117755107D01*
X178561399Y-117953739D01*
X179070475Y-118055000D01*
X179589525Y-118055000D01*
X180098601Y-117953739D01*
X180578141Y-117755107D01*
X181009715Y-117466738D01*
X181376738Y-117099715D01*
X181665107Y-116668141D01*
X181863739Y-116188601D01*
X181965000Y-115679525D01*
X181965000Y-115160475D01*
X181863739Y-114651399D01*
X181665107Y-114171859D01*
X181376738Y-113740285D01*
X181009715Y-113373262D01*
X180578141Y-113084893D01*
X180098601Y-112886261D01*
X179589525Y-112785000D01*
X179070475Y-112785000D01*
X178561399Y-112886261D01*
X178081859Y-113084893D01*
X177650285Y-113373262D01*
X177283262Y-113740285D01*
X176994893Y-114171859D01*
X176796261Y-114651399D01*
X176695000Y-115160475D01*
X171831157Y-115160475D01*
X171899759Y-115114637D01*
X172099637Y-114914759D01*
X172256680Y-114679727D01*
X172364853Y-114418574D01*
X172420000Y-114141335D01*
X172420000Y-113858665D01*
X172364853Y-113581426D01*
X172256680Y-113320273D01*
X172099637Y-113085241D01*
X171899759Y-112885363D01*
X171664727Y-112728320D01*
X171403574Y-112620147D01*
X171126335Y-112565000D01*
X170843665Y-112565000D01*
X170566426Y-112620147D01*
X170305273Y-112728320D01*
X170070241Y-112885363D01*
X169870363Y-113085241D01*
X169713320Y-113320273D01*
X169605147Y-113581426D01*
X169600000Y-113607301D01*
X169594853Y-113581426D01*
X169486680Y-113320273D01*
X169329637Y-113085241D01*
X169129759Y-112885363D01*
X168894727Y-112728320D01*
X168633574Y-112620147D01*
X168356335Y-112565000D01*
X168073665Y-112565000D01*
X167796426Y-112620147D01*
X167535273Y-112728320D01*
X167300241Y-112885363D01*
X167100363Y-113085241D01*
X166943320Y-113320273D01*
X166835147Y-113581426D01*
X166830000Y-113607301D01*
X166824853Y-113581426D01*
X166716680Y-113320273D01*
X166559637Y-113085241D01*
X166359759Y-112885363D01*
X166205000Y-112781957D01*
X166205000Y-109189801D01*
X167546740Y-107848061D01*
X179305000Y-107848061D01*
X179305000Y-108051939D01*
X179344774Y-108251898D01*
X179422795Y-108440256D01*
X179536063Y-108609774D01*
X179680226Y-108753937D01*
X179849744Y-108867205D01*
X180038102Y-108945226D01*
X180238061Y-108985000D01*
X180441939Y-108985000D01*
X180641898Y-108945226D01*
X180830256Y-108867205D01*
X180999774Y-108753937D01*
X181143937Y-108609774D01*
X181257205Y-108440256D01*
X181335226Y-108251898D01*
X181375000Y-108051939D01*
X181375000Y-107848061D01*
X181335226Y-107648102D01*
X181257205Y-107459744D01*
X181143937Y-107290226D01*
X180999774Y-107146063D01*
X180830256Y-107032795D01*
X180641898Y-106954774D01*
X180441939Y-106915000D01*
X180238061Y-106915000D01*
X180038102Y-106954774D01*
X179849744Y-107032795D01*
X179680226Y-107146063D01*
X179536063Y-107290226D01*
X179422795Y-107459744D01*
X179344774Y-107648102D01*
X179305000Y-107848061D01*
X167546740Y-107848061D01*
X172759802Y-102635000D01*
X172821939Y-102635000D01*
X173021898Y-102595226D01*
X173210256Y-102517205D01*
X173379774Y-102403937D01*
X173523937Y-102259774D01*
X173637205Y-102090256D01*
X173715226Y-101901898D01*
X173755000Y-101701939D01*
X173755000Y-101498061D01*
X173715226Y-101298102D01*
X173637205Y-101109744D01*
X173540490Y-100965000D01*
X173637205Y-100820256D01*
X173715226Y-100631898D01*
X173755000Y-100431939D01*
X173755000Y-100228061D01*
X173715226Y-100028102D01*
X173637205Y-99839744D01*
X173523937Y-99670226D01*
X173379774Y-99526063D01*
X173210256Y-99412795D01*
X173021898Y-99334774D01*
X172821939Y-99295000D01*
X172618061Y-99295000D01*
X172418102Y-99334774D01*
X172229744Y-99412795D01*
X172060226Y-99526063D01*
X171916063Y-99670226D01*
X171802795Y-99839744D01*
X171724774Y-100028102D01*
X171685000Y-100228061D01*
X171685000Y-100290198D01*
X164483988Y-107491211D01*
X164454990Y-107515009D01*
X164431192Y-107544007D01*
X164431191Y-107544008D01*
X164360016Y-107630734D01*
X164289444Y-107762764D01*
X164245988Y-107906025D01*
X164231314Y-108055010D01*
X164234991Y-108092342D01*
X164234990Y-112470206D01*
X163704796Y-113000400D01*
X163589759Y-112885363D01*
X163354727Y-112728320D01*
X163093574Y-112620147D01*
X162816335Y-112565000D01*
X162533665Y-112565000D01*
X162256426Y-112620147D01*
X161995273Y-112728320D01*
X161760241Y-112885363D01*
X161560363Y-113085241D01*
X161403320Y-113320273D01*
X161295147Y-113581426D01*
X161240000Y-113858665D01*
X161240000Y-114141335D01*
X161295147Y-114418574D01*
X161403320Y-114679727D01*
X161560363Y-114914759D01*
X161760241Y-115114637D01*
X161995273Y-115271680D01*
X162256426Y-115379853D01*
X162533665Y-115435000D01*
X162816335Y-115435000D01*
X163093574Y-115379853D01*
X163300000Y-115294348D01*
X163300000Y-115621956D01*
X163145241Y-115725363D01*
X162945363Y-115925241D01*
X162788320Y-116160273D01*
X162728072Y-116305725D01*
X162728072Y-116040000D01*
X162715812Y-115915518D01*
X162679502Y-115795820D01*
X162620537Y-115685506D01*
X162541185Y-115588815D01*
X162444494Y-115509463D01*
X162334180Y-115450498D01*
X162214482Y-115414188D01*
X162090000Y-115401928D01*
X160490000Y-115401928D01*
X160365518Y-115414188D01*
X160245820Y-115450498D01*
X160135506Y-115509463D01*
X160038815Y-115588815D01*
X159959463Y-115685506D01*
X159900498Y-115795820D01*
X159864188Y-115915518D01*
X159851928Y-116040000D01*
X156893297Y-116040000D01*
X156965000Y-115679525D01*
X156965000Y-115160475D01*
X156863739Y-114651399D01*
X156665107Y-114171859D01*
X156376738Y-113740285D01*
X156009715Y-113373262D01*
X155578141Y-113084893D01*
X155098601Y-112886261D01*
X154589525Y-112785000D01*
X154070475Y-112785000D01*
X153561399Y-112886261D01*
X153081859Y-113084893D01*
X152650285Y-113373262D01*
X152283262Y-113740285D01*
X151994893Y-114171859D01*
X151796261Y-114651399D01*
X151695000Y-115160475D01*
X150545000Y-115160475D01*
X150545000Y-107848061D01*
X153905000Y-107848061D01*
X153905000Y-108051939D01*
X153944774Y-108251898D01*
X154022795Y-108440256D01*
X154136063Y-108609774D01*
X154280226Y-108753937D01*
X154449744Y-108867205D01*
X154638102Y-108945226D01*
X154838061Y-108985000D01*
X155041939Y-108985000D01*
X155241898Y-108945226D01*
X155430256Y-108867205D01*
X155599774Y-108753937D01*
X155743937Y-108609774D01*
X155857205Y-108440256D01*
X155935226Y-108251898D01*
X155975000Y-108051939D01*
X155975000Y-107848061D01*
X155935226Y-107648102D01*
X155857205Y-107459744D01*
X155743937Y-107290226D01*
X155599774Y-107146063D01*
X155430256Y-107032795D01*
X155241898Y-106954774D01*
X155041939Y-106915000D01*
X154838061Y-106915000D01*
X154638102Y-106954774D01*
X154449744Y-107032795D01*
X154280226Y-107146063D01*
X154136063Y-107290226D01*
X154022795Y-107459744D01*
X153944774Y-107648102D01*
X153905000Y-107848061D01*
X150545000Y-107848061D01*
X150545000Y-100228061D01*
X153905000Y-100228061D01*
X153905000Y-100431939D01*
X153944774Y-100631898D01*
X154022795Y-100820256D01*
X154136063Y-100989774D01*
X154280226Y-101133937D01*
X154449744Y-101247205D01*
X154638102Y-101325226D01*
X154838061Y-101365000D01*
X155041939Y-101365000D01*
X155241898Y-101325226D01*
X155430256Y-101247205D01*
X155599774Y-101133937D01*
X155743937Y-100989774D01*
X155857205Y-100820256D01*
X155935226Y-100631898D01*
X155975000Y-100431939D01*
X155975000Y-100228061D01*
X155935226Y-100028102D01*
X155857205Y-99839744D01*
X155743937Y-99670226D01*
X155599774Y-99526063D01*
X155430256Y-99412795D01*
X155241898Y-99334774D01*
X155041939Y-99295000D01*
X154838061Y-99295000D01*
X154638102Y-99334774D01*
X154449744Y-99412795D01*
X154280226Y-99526063D01*
X154136063Y-99670226D01*
X154022795Y-99839744D01*
X153944774Y-100028102D01*
X153905000Y-100228061D01*
X150545000Y-100228061D01*
X150545000Y-71025001D01*
X151731323Y-71025001D01*
X151734999Y-71062324D01*
X151735000Y-72916669D01*
X151731323Y-72954001D01*
X151735000Y-72991334D01*
X151745997Y-73102987D01*
X151756922Y-73139003D01*
X151789453Y-73246247D01*
X151860025Y-73378277D01*
X151931200Y-73465003D01*
X151954999Y-73494002D01*
X151983997Y-73517800D01*
X152489704Y-74023508D01*
X152354010Y-74226589D01*
X152242068Y-74496842D01*
X152185000Y-74783740D01*
X152185000Y-75076260D01*
X152228791Y-75296408D01*
X151984002Y-75541197D01*
X151954998Y-75565000D01*
X151899870Y-75632175D01*
X151860025Y-75680725D01*
X151809247Y-75775724D01*
X151789453Y-75812755D01*
X151745996Y-75956016D01*
X151734999Y-76067669D01*
X151734999Y-76067679D01*
X151731323Y-76105001D01*
X151734999Y-76142324D01*
X151735000Y-77996669D01*
X151731323Y-78034001D01*
X151735000Y-78071334D01*
X151745997Y-78182987D01*
X151756922Y-78219002D01*
X151789453Y-78326247D01*
X151860025Y-78458277D01*
X151914784Y-78525000D01*
X151954999Y-78574002D01*
X151983997Y-78597800D01*
X152489704Y-79103508D01*
X152354010Y-79306589D01*
X152242068Y-79576842D01*
X152185000Y-79863740D01*
X152185000Y-80156260D01*
X152242068Y-80443158D01*
X152354010Y-80713411D01*
X152516525Y-80956632D01*
X152723368Y-81163475D01*
X152897760Y-81280000D01*
X152723368Y-81396525D01*
X152516525Y-81603368D01*
X152354010Y-81846589D01*
X152242068Y-82116842D01*
X152185000Y-82403740D01*
X152185000Y-82696260D01*
X152242068Y-82983158D01*
X152354010Y-83253411D01*
X152516525Y-83496632D01*
X152723368Y-83703475D01*
X152897760Y-83820000D01*
X152723368Y-83936525D01*
X152516525Y-84143368D01*
X152354010Y-84386589D01*
X152242068Y-84656842D01*
X152185000Y-84943740D01*
X152185000Y-85236260D01*
X152242068Y-85523158D01*
X152354010Y-85793411D01*
X152516525Y-86036632D01*
X152723368Y-86243475D01*
X152966589Y-86405990D01*
X153236842Y-86517932D01*
X153523740Y-86575000D01*
X153816260Y-86575000D01*
X154103158Y-86517932D01*
X154373411Y-86405990D01*
X154616632Y-86243475D01*
X154823475Y-86036632D01*
X154985990Y-85793411D01*
X155097932Y-85523158D01*
X155155000Y-85236260D01*
X155155000Y-84943740D01*
X155097932Y-84656842D01*
X154985990Y-84386589D01*
X154823475Y-84143368D01*
X154616632Y-83936525D01*
X154442240Y-83820000D01*
X154616632Y-83703475D01*
X154823475Y-83496632D01*
X154985990Y-83253411D01*
X155097932Y-82983158D01*
X155155000Y-82696260D01*
X155155000Y-82403740D01*
X155097932Y-82116842D01*
X154985990Y-81846589D01*
X154823475Y-81603368D01*
X154616632Y-81396525D01*
X154442240Y-81280000D01*
X154616632Y-81163475D01*
X154823475Y-80956632D01*
X154948178Y-80770000D01*
X158678017Y-80770000D01*
X158640147Y-80861426D01*
X158585000Y-81138665D01*
X158585000Y-81421335D01*
X158640147Y-81698574D01*
X158748320Y-81959727D01*
X158905363Y-82194759D01*
X159105241Y-82394637D01*
X159337759Y-82550000D01*
X159105241Y-82705363D01*
X158905363Y-82905241D01*
X158748320Y-83140273D01*
X158640147Y-83401426D01*
X158585000Y-83678665D01*
X158585000Y-83961335D01*
X158640147Y-84238574D01*
X158748320Y-84499727D01*
X158905363Y-84734759D01*
X159105241Y-84934637D01*
X159337759Y-85090000D01*
X159105241Y-85245363D01*
X158905363Y-85445241D01*
X158748320Y-85680273D01*
X158640147Y-85941426D01*
X158585000Y-86218665D01*
X158585000Y-86501335D01*
X158640147Y-86778574D01*
X158748320Y-87039727D01*
X158905363Y-87274759D01*
X159105241Y-87474637D01*
X159337759Y-87630000D01*
X159105241Y-87785363D01*
X158905363Y-87985241D01*
X158748320Y-88220273D01*
X158640147Y-88481426D01*
X158585000Y-88758665D01*
X158585000Y-89041335D01*
X158640147Y-89318574D01*
X158748320Y-89579727D01*
X158905363Y-89814759D01*
X159105241Y-90014637D01*
X159337759Y-90170000D01*
X159105241Y-90325363D01*
X158905363Y-90525241D01*
X158748320Y-90760273D01*
X158640147Y-91021426D01*
X158585000Y-91298665D01*
X158585000Y-91581335D01*
X158640147Y-91858574D01*
X158748320Y-92119727D01*
X158905363Y-92354759D01*
X159105241Y-92554637D01*
X159337759Y-92710000D01*
X159105241Y-92865363D01*
X158905363Y-93065241D01*
X158748320Y-93300273D01*
X158640147Y-93561426D01*
X158585000Y-93838665D01*
X158585000Y-94121335D01*
X158640147Y-94398574D01*
X158748320Y-94659727D01*
X158905363Y-94894759D01*
X159105241Y-95094637D01*
X159337759Y-95250000D01*
X159105241Y-95405363D01*
X158905363Y-95605241D01*
X158748320Y-95840273D01*
X158640147Y-96101426D01*
X158585000Y-96378665D01*
X158585000Y-96661335D01*
X158640147Y-96938574D01*
X158748320Y-97199727D01*
X158905363Y-97434759D01*
X159105241Y-97634637D01*
X159337759Y-97790000D01*
X159105241Y-97945363D01*
X158905363Y-98145241D01*
X158748320Y-98380273D01*
X158640147Y-98641426D01*
X158585000Y-98918665D01*
X158585000Y-99201335D01*
X158640147Y-99478574D01*
X158748320Y-99739727D01*
X158905363Y-99974759D01*
X159105241Y-100174637D01*
X159337759Y-100330000D01*
X159105241Y-100485363D01*
X158905363Y-100685241D01*
X158748320Y-100920273D01*
X158640147Y-101181426D01*
X158585000Y-101458665D01*
X158585000Y-101741335D01*
X158640147Y-102018574D01*
X158748320Y-102279727D01*
X158905363Y-102514759D01*
X159103961Y-102713357D01*
X159095518Y-102714188D01*
X158975820Y-102750498D01*
X158865506Y-102809463D01*
X158768815Y-102888815D01*
X158689463Y-102985506D01*
X158630498Y-103095820D01*
X158594188Y-103215518D01*
X158581928Y-103340000D01*
X158581928Y-104940000D01*
X158594188Y-105064482D01*
X158630498Y-105184180D01*
X158689463Y-105294494D01*
X158768815Y-105391185D01*
X158865506Y-105470537D01*
X158975820Y-105529502D01*
X159095518Y-105565812D01*
X159220000Y-105578072D01*
X160820000Y-105578072D01*
X160944482Y-105565812D01*
X161064180Y-105529502D01*
X161174494Y-105470537D01*
X161271185Y-105391185D01*
X161350537Y-105294494D01*
X161409502Y-105184180D01*
X161445812Y-105064482D01*
X161458072Y-104940000D01*
X161458072Y-103340000D01*
X161445812Y-103215518D01*
X161409502Y-103095820D01*
X161350537Y-102985506D01*
X161271185Y-102888815D01*
X161174494Y-102809463D01*
X161064180Y-102750498D01*
X160944482Y-102714188D01*
X160936039Y-102713357D01*
X161134637Y-102514759D01*
X161291680Y-102279727D01*
X161399853Y-102018574D01*
X161455000Y-101741335D01*
X161455000Y-101458665D01*
X161399853Y-101181426D01*
X161291680Y-100920273D01*
X161134637Y-100685241D01*
X160934759Y-100485363D01*
X160702241Y-100330000D01*
X160934759Y-100174637D01*
X161134637Y-99974759D01*
X161291680Y-99739727D01*
X161399853Y-99478574D01*
X161455000Y-99201335D01*
X161455000Y-98918665D01*
X161399853Y-98641426D01*
X161291680Y-98380273D01*
X161134637Y-98145241D01*
X160934759Y-97945363D01*
X160702241Y-97790000D01*
X160854804Y-97688061D01*
X169145000Y-97688061D01*
X169145000Y-97891939D01*
X169184774Y-98091898D01*
X169262795Y-98280256D01*
X169376063Y-98449774D01*
X169520226Y-98593937D01*
X169689744Y-98707205D01*
X169878102Y-98785226D01*
X170078061Y-98825000D01*
X170281939Y-98825000D01*
X170481898Y-98785226D01*
X170670256Y-98707205D01*
X170839774Y-98593937D01*
X170983937Y-98449774D01*
X171097205Y-98280256D01*
X171175226Y-98091898D01*
X171215000Y-97891939D01*
X171215000Y-97688061D01*
X171175226Y-97488102D01*
X171097205Y-97299744D01*
X170983937Y-97130226D01*
X170839774Y-96986063D01*
X170670256Y-96872795D01*
X170481898Y-96794774D01*
X170281939Y-96755000D01*
X170078061Y-96755000D01*
X169878102Y-96794774D01*
X169689744Y-96872795D01*
X169520226Y-96986063D01*
X169376063Y-97130226D01*
X169262795Y-97299744D01*
X169184774Y-97488102D01*
X169145000Y-97688061D01*
X160854804Y-97688061D01*
X160934759Y-97634637D01*
X161134637Y-97434759D01*
X161291680Y-97199727D01*
X161399853Y-96938574D01*
X161455000Y-96661335D01*
X161455000Y-96378665D01*
X161399853Y-96101426D01*
X161291680Y-95840273D01*
X161134637Y-95605241D01*
X160934759Y-95405363D01*
X160702241Y-95250000D01*
X160934759Y-95094637D01*
X161134637Y-94894759D01*
X161291680Y-94659727D01*
X161399853Y-94398574D01*
X161455000Y-94121335D01*
X161455000Y-93838665D01*
X161399853Y-93561426D01*
X161291680Y-93300273D01*
X161134637Y-93065241D01*
X160934759Y-92865363D01*
X160702241Y-92710000D01*
X160934759Y-92554637D01*
X161134637Y-92354759D01*
X161291680Y-92119727D01*
X161399853Y-91858574D01*
X161455000Y-91581335D01*
X161455000Y-91298665D01*
X161399853Y-91021426D01*
X161291680Y-90760273D01*
X161134637Y-90525241D01*
X160934759Y-90325363D01*
X160702241Y-90170000D01*
X160934759Y-90014637D01*
X161134637Y-89814759D01*
X161291680Y-89579727D01*
X161399853Y-89318574D01*
X161455000Y-89041335D01*
X161455000Y-88798061D01*
X169145000Y-88798061D01*
X169145000Y-89001939D01*
X169184774Y-89201898D01*
X169262795Y-89390256D01*
X169376063Y-89559774D01*
X169520226Y-89703937D01*
X169689744Y-89817205D01*
X169878102Y-89895226D01*
X170078061Y-89935000D01*
X170281939Y-89935000D01*
X170481898Y-89895226D01*
X170670256Y-89817205D01*
X170839774Y-89703937D01*
X170983937Y-89559774D01*
X171097205Y-89390256D01*
X171175226Y-89201898D01*
X171215000Y-89001939D01*
X171215000Y-88798061D01*
X171175226Y-88598102D01*
X171097205Y-88409744D01*
X170983937Y-88240226D01*
X170839774Y-88096063D01*
X170670256Y-87982795D01*
X170481898Y-87904774D01*
X170281939Y-87865000D01*
X170078061Y-87865000D01*
X169878102Y-87904774D01*
X169689744Y-87982795D01*
X169520226Y-88096063D01*
X169376063Y-88240226D01*
X169262795Y-88409744D01*
X169184774Y-88598102D01*
X169145000Y-88798061D01*
X161455000Y-88798061D01*
X161455000Y-88758665D01*
X161399853Y-88481426D01*
X161291680Y-88220273D01*
X161134637Y-87985241D01*
X160934759Y-87785363D01*
X160702241Y-87630000D01*
X160934759Y-87474637D01*
X161134637Y-87274759D01*
X161291680Y-87039727D01*
X161399853Y-86778574D01*
X161455000Y-86501335D01*
X161455000Y-86218665D01*
X161399853Y-85941426D01*
X161291680Y-85680273D01*
X161134637Y-85445241D01*
X160934759Y-85245363D01*
X160702241Y-85090000D01*
X160934759Y-84934637D01*
X161134637Y-84734759D01*
X161291680Y-84499727D01*
X161399853Y-84238574D01*
X161455000Y-83961335D01*
X161455000Y-83678665D01*
X161399853Y-83401426D01*
X161291680Y-83140273D01*
X161134637Y-82905241D01*
X160934759Y-82705363D01*
X160702241Y-82550000D01*
X160934759Y-82394637D01*
X161134637Y-82194759D01*
X161291680Y-81959727D01*
X161399853Y-81698574D01*
X161455000Y-81421335D01*
X161455000Y-81138665D01*
X161399853Y-80861426D01*
X161361983Y-80770000D01*
X164667676Y-80770000D01*
X164704998Y-80773676D01*
X164742320Y-80770000D01*
X164742331Y-80770000D01*
X164853984Y-80759003D01*
X164997245Y-80715546D01*
X165129274Y-80644974D01*
X165244999Y-80550001D01*
X165268802Y-80520997D01*
X173989022Y-71800778D01*
X174145363Y-72034759D01*
X174345241Y-72234637D01*
X174577759Y-72390000D01*
X174345241Y-72545363D01*
X174145363Y-72745241D01*
X173988320Y-72980273D01*
X173880147Y-73241426D01*
X173825000Y-73518665D01*
X173825000Y-73801335D01*
X173880147Y-74078574D01*
X173988320Y-74339727D01*
X174145363Y-74574759D01*
X174345241Y-74774637D01*
X174577759Y-74930000D01*
X174345241Y-75085363D01*
X174145363Y-75285241D01*
X173988320Y-75520273D01*
X173880147Y-75781426D01*
X173825000Y-76058665D01*
X173825000Y-76341335D01*
X173880147Y-76618574D01*
X173988320Y-76879727D01*
X174145363Y-77114759D01*
X174345241Y-77314637D01*
X174577759Y-77470000D01*
X174345241Y-77625363D01*
X174145363Y-77825241D01*
X173988320Y-78060273D01*
X173880147Y-78321426D01*
X173825000Y-78598665D01*
X173825000Y-78881335D01*
X173880147Y-79158574D01*
X173988320Y-79419727D01*
X174145363Y-79654759D01*
X174345241Y-79854637D01*
X174577759Y-80010000D01*
X174345241Y-80165363D01*
X174145363Y-80365241D01*
X173988320Y-80600273D01*
X173880147Y-80861426D01*
X173825000Y-81138665D01*
X173825000Y-81421335D01*
X173880147Y-81698574D01*
X173988320Y-81959727D01*
X174145363Y-82194759D01*
X174345241Y-82394637D01*
X174577759Y-82550000D01*
X174345241Y-82705363D01*
X174145363Y-82905241D01*
X173988320Y-83140273D01*
X173880147Y-83401426D01*
X173825000Y-83678665D01*
X173825000Y-83961335D01*
X173880147Y-84238574D01*
X173988320Y-84499727D01*
X174145363Y-84734759D01*
X174345241Y-84934637D01*
X174577759Y-85090000D01*
X174345241Y-85245363D01*
X174145363Y-85445241D01*
X173988320Y-85680273D01*
X173880147Y-85941426D01*
X173825000Y-86218665D01*
X173825000Y-86501335D01*
X173880147Y-86778574D01*
X173988320Y-87039727D01*
X174145363Y-87274759D01*
X174345241Y-87474637D01*
X174577759Y-87630000D01*
X174345241Y-87785363D01*
X174145363Y-87985241D01*
X173988320Y-88220273D01*
X173880147Y-88481426D01*
X173825000Y-88758665D01*
X173825000Y-89041335D01*
X173880147Y-89318574D01*
X173988320Y-89579727D01*
X174145363Y-89814759D01*
X174345241Y-90014637D01*
X174577759Y-90170000D01*
X174345241Y-90325363D01*
X174145363Y-90525241D01*
X173988320Y-90760273D01*
X173880147Y-91021426D01*
X173825000Y-91298665D01*
X173825000Y-91581335D01*
X173880147Y-91858574D01*
X173988320Y-92119727D01*
X174145363Y-92354759D01*
X174345241Y-92554637D01*
X174577759Y-92710000D01*
X174345241Y-92865363D01*
X174145363Y-93065241D01*
X173988320Y-93300273D01*
X173880147Y-93561426D01*
X173825000Y-93838665D01*
X173825000Y-94121335D01*
X173880147Y-94398574D01*
X173988320Y-94659727D01*
X174145363Y-94894759D01*
X174345241Y-95094637D01*
X174577759Y-95250000D01*
X174345241Y-95405363D01*
X174145363Y-95605241D01*
X173988320Y-95840273D01*
X173880147Y-96101426D01*
X173825000Y-96378665D01*
X173825000Y-96661335D01*
X173880147Y-96938574D01*
X173988320Y-97199727D01*
X174145363Y-97434759D01*
X174345241Y-97634637D01*
X174577759Y-97790000D01*
X174345241Y-97945363D01*
X174145363Y-98145241D01*
X173988320Y-98380273D01*
X173880147Y-98641426D01*
X173825000Y-98918665D01*
X173825000Y-99201335D01*
X173880147Y-99478574D01*
X173988320Y-99739727D01*
X174145363Y-99974759D01*
X174345241Y-100174637D01*
X174577759Y-100330000D01*
X174345241Y-100485363D01*
X174145363Y-100685241D01*
X173988320Y-100920273D01*
X173880147Y-101181426D01*
X173825000Y-101458665D01*
X173825000Y-101741335D01*
X173880147Y-102018574D01*
X173988320Y-102279727D01*
X174145363Y-102514759D01*
X174345241Y-102714637D01*
X174577759Y-102870000D01*
X174345241Y-103025363D01*
X174145363Y-103225241D01*
X173988320Y-103460273D01*
X173880147Y-103721426D01*
X173825000Y-103998665D01*
X173825000Y-104281335D01*
X173880147Y-104558574D01*
X173988320Y-104819727D01*
X174145363Y-105054759D01*
X174345241Y-105254637D01*
X174580273Y-105411680D01*
X174841426Y-105519853D01*
X175118665Y-105575000D01*
X175401335Y-105575000D01*
X175678574Y-105519853D01*
X175939727Y-105411680D01*
X176174759Y-105254637D01*
X176374637Y-105054759D01*
X176531680Y-104819727D01*
X176639853Y-104558574D01*
X176695000Y-104281335D01*
X176695000Y-103998665D01*
X176639853Y-103721426D01*
X176531680Y-103460273D01*
X176374637Y-103225241D01*
X176174759Y-103025363D01*
X175942241Y-102870000D01*
X176174759Y-102714637D01*
X176374637Y-102514759D01*
X176531680Y-102279727D01*
X176639853Y-102018574D01*
X176695000Y-101741335D01*
X176695000Y-101458665D01*
X176639853Y-101181426D01*
X176531680Y-100920273D01*
X176374637Y-100685241D01*
X176174759Y-100485363D01*
X175942241Y-100330000D01*
X176094804Y-100228061D01*
X179305000Y-100228061D01*
X179305000Y-100431939D01*
X179344774Y-100631898D01*
X179422795Y-100820256D01*
X179536063Y-100989774D01*
X179680226Y-101133937D01*
X179849744Y-101247205D01*
X180038102Y-101325226D01*
X180238061Y-101365000D01*
X180441939Y-101365000D01*
X180641898Y-101325226D01*
X180830256Y-101247205D01*
X180999774Y-101133937D01*
X181143937Y-100989774D01*
X181257205Y-100820256D01*
X181335226Y-100631898D01*
X181375000Y-100431939D01*
X181375000Y-100228061D01*
X181335226Y-100028102D01*
X181257205Y-99839744D01*
X181143937Y-99670226D01*
X180999774Y-99526063D01*
X180830256Y-99412795D01*
X180641898Y-99334774D01*
X180441939Y-99295000D01*
X180238061Y-99295000D01*
X180038102Y-99334774D01*
X179849744Y-99412795D01*
X179680226Y-99526063D01*
X179536063Y-99670226D01*
X179422795Y-99839744D01*
X179344774Y-100028102D01*
X179305000Y-100228061D01*
X176094804Y-100228061D01*
X176174759Y-100174637D01*
X176374637Y-99974759D01*
X176531680Y-99739727D01*
X176639853Y-99478574D01*
X176695000Y-99201335D01*
X176695000Y-98918665D01*
X176639853Y-98641426D01*
X176531680Y-98380273D01*
X176374637Y-98145241D01*
X176174759Y-97945363D01*
X175942241Y-97790000D01*
X176174759Y-97634637D01*
X176374637Y-97434759D01*
X176531680Y-97199727D01*
X176639853Y-96938574D01*
X176695000Y-96661335D01*
X176695000Y-96378665D01*
X176639853Y-96101426D01*
X176531680Y-95840273D01*
X176374637Y-95605241D01*
X176174759Y-95405363D01*
X175942241Y-95250000D01*
X176174759Y-95094637D01*
X176374637Y-94894759D01*
X176531680Y-94659727D01*
X176639853Y-94398574D01*
X176695000Y-94121335D01*
X176695000Y-93838665D01*
X176639853Y-93561426D01*
X176531680Y-93300273D01*
X176374637Y-93065241D01*
X176174759Y-92865363D01*
X175942241Y-92710000D01*
X176174759Y-92554637D01*
X176374637Y-92354759D01*
X176531680Y-92119727D01*
X176639853Y-91858574D01*
X176695000Y-91581335D01*
X176695000Y-91298665D01*
X176639853Y-91021426D01*
X176531680Y-90760273D01*
X176374637Y-90525241D01*
X176174759Y-90325363D01*
X175942241Y-90170000D01*
X176174759Y-90014637D01*
X176374637Y-89814759D01*
X176531680Y-89579727D01*
X176639853Y-89318574D01*
X176695000Y-89041335D01*
X176695000Y-88758665D01*
X176639853Y-88481426D01*
X176531680Y-88220273D01*
X176374637Y-87985241D01*
X176174759Y-87785363D01*
X175942241Y-87630000D01*
X176174759Y-87474637D01*
X176374637Y-87274759D01*
X176531680Y-87039727D01*
X176639853Y-86778574D01*
X176695000Y-86501335D01*
X176695000Y-86218665D01*
X176639853Y-85941426D01*
X176531680Y-85680273D01*
X176374637Y-85445241D01*
X176174759Y-85245363D01*
X175942241Y-85090000D01*
X176174759Y-84934637D01*
X176374637Y-84734759D01*
X176531680Y-84499727D01*
X176639853Y-84238574D01*
X176695000Y-83961335D01*
X176695000Y-83678665D01*
X176639853Y-83401426D01*
X176531680Y-83140273D01*
X176374637Y-82905241D01*
X176174759Y-82705363D01*
X175942241Y-82550000D01*
X176174759Y-82394637D01*
X176374637Y-82194759D01*
X176531680Y-81959727D01*
X176639853Y-81698574D01*
X176695000Y-81421335D01*
X176695000Y-81138665D01*
X176639853Y-80861426D01*
X176531680Y-80600273D01*
X176374637Y-80365241D01*
X176174759Y-80165363D01*
X175942241Y-80010000D01*
X176174759Y-79854637D01*
X176374637Y-79654759D01*
X176531680Y-79419727D01*
X176639853Y-79158574D01*
X176695000Y-78881335D01*
X176695000Y-78598665D01*
X176639853Y-78321426D01*
X176531680Y-78060273D01*
X176374637Y-77825241D01*
X176174759Y-77625363D01*
X175942241Y-77470000D01*
X176174759Y-77314637D01*
X176374637Y-77114759D01*
X176531680Y-76879727D01*
X176639853Y-76618574D01*
X176695000Y-76341335D01*
X176695000Y-76058665D01*
X176639853Y-75781426D01*
X176531680Y-75520273D01*
X176374637Y-75285241D01*
X176174759Y-75085363D01*
X175942241Y-74930000D01*
X176174759Y-74774637D01*
X176374637Y-74574759D01*
X176531680Y-74339727D01*
X176639853Y-74078574D01*
X176695000Y-73801335D01*
X176695000Y-73518665D01*
X176639853Y-73241426D01*
X176531680Y-72980273D01*
X176374637Y-72745241D01*
X176174759Y-72545363D01*
X175942241Y-72390000D01*
X176174759Y-72234637D01*
X176374637Y-72034759D01*
X176531680Y-71799727D01*
X176639853Y-71538574D01*
X176695000Y-71261335D01*
X176695000Y-70978665D01*
X176639853Y-70701426D01*
X176531680Y-70440273D01*
X176374637Y-70205241D01*
X176174759Y-70005363D01*
X175942241Y-69850000D01*
X176174759Y-69694637D01*
X176374637Y-69494759D01*
X176531680Y-69259727D01*
X176639853Y-68998574D01*
X176695000Y-68721335D01*
X176695000Y-68438665D01*
X176639853Y-68161426D01*
X176531680Y-67900273D01*
X176374637Y-67665241D01*
X176174759Y-67465363D01*
X175939727Y-67308320D01*
X175678574Y-67200147D01*
X175401335Y-67145000D01*
X175118665Y-67145000D01*
X174841426Y-67200147D01*
X174580273Y-67308320D01*
X174345241Y-67465363D01*
X174145363Y-67665241D01*
X173988320Y-67900273D01*
X173880147Y-68161426D01*
X173825000Y-68438665D01*
X173825000Y-68721335D01*
X173880147Y-68998574D01*
X173988320Y-69259727D01*
X174145363Y-69494759D01*
X174145400Y-69494796D01*
X164390197Y-79250000D01*
X161361983Y-79250000D01*
X161399853Y-79158574D01*
X161455000Y-78881335D01*
X161455000Y-78598665D01*
X161399853Y-78321426D01*
X161291680Y-78060273D01*
X161134637Y-77825241D01*
X161134600Y-77825204D01*
X161656010Y-77303795D01*
X161685002Y-77280002D01*
X161708796Y-77251009D01*
X161708800Y-77251005D01*
X161779974Y-77164278D01*
X161779975Y-77164277D01*
X161850547Y-77032248D01*
X161894004Y-76888987D01*
X161905001Y-76777334D01*
X161905001Y-76777325D01*
X161908677Y-76740002D01*
X161905001Y-76702679D01*
X161905001Y-72282326D01*
X161908677Y-72245001D01*
X161905001Y-72207676D01*
X161905001Y-72207668D01*
X161894004Y-72096015D01*
X161850547Y-71952754D01*
X161779975Y-71820725D01*
X161685002Y-71705000D01*
X161656004Y-71681202D01*
X161418688Y-71443886D01*
X161455000Y-71261335D01*
X161455000Y-70978665D01*
X161399853Y-70701426D01*
X161291680Y-70440273D01*
X161134637Y-70205241D01*
X160934759Y-70005363D01*
X160702241Y-69850000D01*
X160934759Y-69694637D01*
X161134637Y-69494759D01*
X161291680Y-69259727D01*
X161399853Y-68998574D01*
X161455000Y-68721335D01*
X161455000Y-68438665D01*
X161399853Y-68161426D01*
X161291680Y-67900273D01*
X161134637Y-67665241D01*
X160934759Y-67465363D01*
X160699727Y-67308320D01*
X160438574Y-67200147D01*
X160161335Y-67145000D01*
X159878665Y-67145000D01*
X159601426Y-67200147D01*
X159340273Y-67308320D01*
X159105241Y-67465363D01*
X158905363Y-67665241D01*
X158748320Y-67900273D01*
X158640147Y-68161426D01*
X158585000Y-68438665D01*
X158585000Y-68721335D01*
X158640147Y-68998574D01*
X158748320Y-69259727D01*
X158905363Y-69494759D01*
X159105241Y-69694637D01*
X159337759Y-69850000D01*
X159105241Y-70005363D01*
X158905363Y-70205241D01*
X158748320Y-70440273D01*
X158640147Y-70701426D01*
X158585000Y-70978665D01*
X158585000Y-71261335D01*
X158640147Y-71538574D01*
X158678017Y-71630000D01*
X154948178Y-71630000D01*
X154823475Y-71443368D01*
X154691620Y-71311513D01*
X154764180Y-71289502D01*
X154874494Y-71230537D01*
X154971185Y-71151185D01*
X155050537Y-71054494D01*
X155109502Y-70944180D01*
X155145812Y-70824482D01*
X155158072Y-70700000D01*
X155158072Y-69000000D01*
X155145812Y-68875518D01*
X155109502Y-68755820D01*
X155050537Y-68645506D01*
X154971185Y-68548815D01*
X154874494Y-68469463D01*
X154764180Y-68410498D01*
X154644482Y-68374188D01*
X154520000Y-68361928D01*
X152820000Y-68361928D01*
X152695518Y-68374188D01*
X152575820Y-68410498D01*
X152465506Y-68469463D01*
X152368815Y-68548815D01*
X152289463Y-68645506D01*
X152230498Y-68755820D01*
X152194188Y-68875518D01*
X152181928Y-69000000D01*
X152181928Y-70263271D01*
X151984002Y-70461197D01*
X151954998Y-70485000D01*
X151899870Y-70552175D01*
X151860025Y-70600725D01*
X151809247Y-70695724D01*
X151789453Y-70732755D01*
X151745996Y-70876016D01*
X151734999Y-70987669D01*
X151734999Y-70987679D01*
X151731323Y-71025001D01*
X150545000Y-71025001D01*
X150545000Y-58318061D01*
X155175000Y-58318061D01*
X155175000Y-58521939D01*
X155214774Y-58721898D01*
X155292795Y-58910256D01*
X155406063Y-59079774D01*
X155550226Y-59223937D01*
X155719744Y-59337205D01*
X155908102Y-59415226D01*
X156108061Y-59455000D01*
X156311939Y-59455000D01*
X156511898Y-59415226D01*
X156700256Y-59337205D01*
X156869774Y-59223937D01*
X157013937Y-59079774D01*
X157127205Y-58910256D01*
X157205226Y-58721898D01*
X157245000Y-58521939D01*
X157245000Y-58318061D01*
X160255000Y-58318061D01*
X160255000Y-58521939D01*
X160294774Y-58721898D01*
X160372795Y-58910256D01*
X160486063Y-59079774D01*
X160630226Y-59223937D01*
X160799744Y-59337205D01*
X160988102Y-59415226D01*
X161188061Y-59455000D01*
X161391939Y-59455000D01*
X161591898Y-59415226D01*
X161780256Y-59337205D01*
X161949774Y-59223937D01*
X162093937Y-59079774D01*
X162207205Y-58910256D01*
X162285226Y-58721898D01*
X162325000Y-58521939D01*
X162325000Y-58408967D01*
X169125000Y-58408967D01*
X169125000Y-58731033D01*
X169187832Y-59046912D01*
X169311082Y-59344463D01*
X169490013Y-59612252D01*
X169717748Y-59839987D01*
X169985537Y-60018918D01*
X170283088Y-60142168D01*
X170598967Y-60205000D01*
X170921033Y-60205000D01*
X171236912Y-60142168D01*
X171534463Y-60018918D01*
X171802252Y-59839987D01*
X172029987Y-59612252D01*
X172208918Y-59344463D01*
X172332168Y-59046912D01*
X172395000Y-58731033D01*
X172395000Y-58408967D01*
X173625000Y-58408967D01*
X173625000Y-58731033D01*
X173687832Y-59046912D01*
X173811082Y-59344463D01*
X173990013Y-59612252D01*
X174217748Y-59839987D01*
X174485537Y-60018918D01*
X174783088Y-60142168D01*
X175098967Y-60205000D01*
X175421033Y-60205000D01*
X175736912Y-60142168D01*
X176034463Y-60018918D01*
X176302252Y-59839987D01*
X176529987Y-59612252D01*
X176708918Y-59344463D01*
X176832168Y-59046912D01*
X176895000Y-58731033D01*
X176895000Y-58408967D01*
X176832168Y-58093088D01*
X176708918Y-57795537D01*
X176529987Y-57527748D01*
X176302252Y-57300013D01*
X176034463Y-57121082D01*
X175736912Y-56997832D01*
X175421033Y-56935000D01*
X175098967Y-56935000D01*
X174783088Y-56997832D01*
X174485537Y-57121082D01*
X174217748Y-57300013D01*
X173990013Y-57527748D01*
X173811082Y-57795537D01*
X173687832Y-58093088D01*
X173625000Y-58408967D01*
X172395000Y-58408967D01*
X172332168Y-58093088D01*
X172208918Y-57795537D01*
X172029987Y-57527748D01*
X171802252Y-57300013D01*
X171534463Y-57121082D01*
X171236912Y-56997832D01*
X170921033Y-56935000D01*
X170598967Y-56935000D01*
X170283088Y-56997832D01*
X169985537Y-57121082D01*
X169717748Y-57300013D01*
X169490013Y-57527748D01*
X169311082Y-57795537D01*
X169187832Y-58093088D01*
X169125000Y-58408967D01*
X162325000Y-58408967D01*
X162325000Y-58318061D01*
X162285226Y-58118102D01*
X162207205Y-57929744D01*
X162093937Y-57760226D01*
X161949774Y-57616063D01*
X161780256Y-57502795D01*
X161591898Y-57424774D01*
X161391939Y-57385000D01*
X161188061Y-57385000D01*
X160988102Y-57424774D01*
X160799744Y-57502795D01*
X160630226Y-57616063D01*
X160486063Y-57760226D01*
X160372795Y-57929744D01*
X160294774Y-58118102D01*
X160255000Y-58318061D01*
X157245000Y-58318061D01*
X157205226Y-58118102D01*
X157127205Y-57929744D01*
X157013937Y-57760226D01*
X156869774Y-57616063D01*
X156700256Y-57502795D01*
X156511898Y-57424774D01*
X156311939Y-57385000D01*
X156108061Y-57385000D01*
X155908102Y-57424774D01*
X155719744Y-57502795D01*
X155550226Y-57616063D01*
X155406063Y-57760226D01*
X155292795Y-57929744D01*
X155214774Y-58118102D01*
X155175000Y-58318061D01*
X150545000Y-58318061D01*
X150545000Y-55728816D01*
X158485000Y-55728816D01*
X158485000Y-56031184D01*
X158543989Y-56327743D01*
X158659701Y-56607095D01*
X158827688Y-56858505D01*
X159041495Y-57072312D01*
X159292905Y-57240299D01*
X159572257Y-57356011D01*
X159868816Y-57415000D01*
X160171184Y-57415000D01*
X160467743Y-57356011D01*
X160747095Y-57240299D01*
X160998505Y-57072312D01*
X161212312Y-56858505D01*
X161290000Y-56742237D01*
X161367688Y-56858505D01*
X161581495Y-57072312D01*
X161832905Y-57240299D01*
X162112257Y-57356011D01*
X162408816Y-57415000D01*
X162711184Y-57415000D01*
X163007743Y-57356011D01*
X163287095Y-57240299D01*
X163538505Y-57072312D01*
X163667922Y-56942895D01*
X163711325Y-57024097D01*
X163821570Y-57158430D01*
X163955903Y-57268675D01*
X164109162Y-57350593D01*
X164275458Y-57401039D01*
X164448400Y-57418072D01*
X165751600Y-57418072D01*
X165924542Y-57401039D01*
X166090838Y-57350593D01*
X166244097Y-57268675D01*
X166378430Y-57158430D01*
X166488675Y-57024097D01*
X166570593Y-56870838D01*
X166621039Y-56704542D01*
X166638072Y-56531600D01*
X166638072Y-55228400D01*
X166621039Y-55055458D01*
X166570593Y-54889162D01*
X166488675Y-54735903D01*
X166378430Y-54601570D01*
X166244097Y-54491325D01*
X166090838Y-54409407D01*
X165924542Y-54358961D01*
X165751600Y-54341928D01*
X164448400Y-54341928D01*
X164275458Y-54358961D01*
X164109162Y-54409407D01*
X163955903Y-54491325D01*
X163821570Y-54601570D01*
X163711325Y-54735903D01*
X163667922Y-54817105D01*
X163538505Y-54687688D01*
X163287095Y-54519701D01*
X163007743Y-54403989D01*
X162711184Y-54345000D01*
X162408816Y-54345000D01*
X162112257Y-54403989D01*
X161832905Y-54519701D01*
X161581495Y-54687688D01*
X161367688Y-54901495D01*
X161290000Y-55017763D01*
X161212312Y-54901495D01*
X160998505Y-54687688D01*
X160747095Y-54519701D01*
X160467743Y-54403989D01*
X160171184Y-54345000D01*
X159868816Y-54345000D01*
X159572257Y-54403989D01*
X159292905Y-54519701D01*
X159041495Y-54687688D01*
X158827688Y-54901495D01*
X158659701Y-55152905D01*
X158543989Y-55432257D01*
X158485000Y-55728816D01*
X150545000Y-55728816D01*
X150545000Y-53119872D01*
X151435000Y-53119872D01*
X151435000Y-53560128D01*
X151520890Y-53991925D01*
X151689369Y-54398669D01*
X151933962Y-54764729D01*
X152245271Y-55076038D01*
X152611331Y-55320631D01*
X153018075Y-55489110D01*
X153449872Y-55575000D01*
X153890128Y-55575000D01*
X154321925Y-55489110D01*
X154728669Y-55320631D01*
X155094729Y-55076038D01*
X155406038Y-54764729D01*
X155650631Y-54398669D01*
X155819110Y-53991925D01*
X155905000Y-53560128D01*
X155905000Y-53119872D01*
X155819110Y-52688075D01*
X155650631Y-52281331D01*
X155406038Y-51915271D01*
X155399734Y-51908967D01*
X169125000Y-51908967D01*
X169125000Y-52231033D01*
X169187832Y-52546912D01*
X169311082Y-52844463D01*
X169490013Y-53112252D01*
X169717748Y-53339987D01*
X169985537Y-53518918D01*
X170283088Y-53642168D01*
X170598967Y-53705000D01*
X170921033Y-53705000D01*
X171236912Y-53642168D01*
X171534463Y-53518918D01*
X171802252Y-53339987D01*
X172029987Y-53112252D01*
X172208918Y-52844463D01*
X172332168Y-52546912D01*
X172395000Y-52231033D01*
X172395000Y-51908967D01*
X173625000Y-51908967D01*
X173625000Y-52231033D01*
X173687832Y-52546912D01*
X173811082Y-52844463D01*
X173990013Y-53112252D01*
X174217748Y-53339987D01*
X174485537Y-53518918D01*
X174783088Y-53642168D01*
X175098967Y-53705000D01*
X175421033Y-53705000D01*
X175736912Y-53642168D01*
X176034463Y-53518918D01*
X176302252Y-53339987D01*
X176522367Y-53119872D01*
X178105000Y-53119872D01*
X178105000Y-53560128D01*
X178190890Y-53991925D01*
X178359369Y-54398669D01*
X178603962Y-54764729D01*
X178915271Y-55076038D01*
X179281331Y-55320631D01*
X179688075Y-55489110D01*
X180119872Y-55575000D01*
X180560128Y-55575000D01*
X180991925Y-55489110D01*
X181398669Y-55320631D01*
X181764729Y-55076038D01*
X182076038Y-54764729D01*
X182320631Y-54398669D01*
X182489110Y-53991925D01*
X182575000Y-53560128D01*
X182575000Y-53119872D01*
X182489110Y-52688075D01*
X182320631Y-52281331D01*
X182076038Y-51915271D01*
X181764729Y-51603962D01*
X181398669Y-51359369D01*
X180991925Y-51190890D01*
X180560128Y-51105000D01*
X180119872Y-51105000D01*
X179688075Y-51190890D01*
X179281331Y-51359369D01*
X178915271Y-51603962D01*
X178603962Y-51915271D01*
X178359369Y-52281331D01*
X178190890Y-52688075D01*
X178105000Y-53119872D01*
X176522367Y-53119872D01*
X176529987Y-53112252D01*
X176708918Y-52844463D01*
X176832168Y-52546912D01*
X176895000Y-52231033D01*
X176895000Y-51908967D01*
X176832168Y-51593088D01*
X176708918Y-51295537D01*
X176529987Y-51027748D01*
X176302252Y-50800013D01*
X176034463Y-50621082D01*
X175736912Y-50497832D01*
X175421033Y-50435000D01*
X175098967Y-50435000D01*
X174783088Y-50497832D01*
X174485537Y-50621082D01*
X174217748Y-50800013D01*
X173990013Y-51027748D01*
X173811082Y-51295537D01*
X173687832Y-51593088D01*
X173625000Y-51908967D01*
X172395000Y-51908967D01*
X172332168Y-51593088D01*
X172208918Y-51295537D01*
X172029987Y-51027748D01*
X171802252Y-50800013D01*
X171534463Y-50621082D01*
X171236912Y-50497832D01*
X170921033Y-50435000D01*
X170598967Y-50435000D01*
X170283088Y-50497832D01*
X169985537Y-50621082D01*
X169717748Y-50800013D01*
X169490013Y-51027748D01*
X169311082Y-51295537D01*
X169187832Y-51593088D01*
X169125000Y-51908967D01*
X155399734Y-51908967D01*
X155094729Y-51603962D01*
X154728669Y-51359369D01*
X154321925Y-51190890D01*
X153890128Y-51105000D01*
X153449872Y-51105000D01*
X153018075Y-51190890D01*
X152611331Y-51359369D01*
X152245271Y-51603962D01*
X151933962Y-51915271D01*
X151689369Y-52281331D01*
X151520890Y-52688075D01*
X151435000Y-53119872D01*
X150545000Y-53119872D01*
X150545000Y-52036353D01*
X150535711Y-51942044D01*
X150558909Y-51705455D01*
X150664780Y-51354792D01*
X150836744Y-51031375D01*
X151068254Y-50747516D01*
X151350486Y-50514035D01*
X151672695Y-50339817D01*
X152022614Y-50231498D01*
X152269936Y-50205504D01*
X152366353Y-50215000D01*
G37*
%TD.AperFunction*%
D20*
X158621312Y-75876114D02*
X158585000Y-76058665D01*
X158585000Y-76341335D01*
X158640147Y-76618574D01*
X158678017Y-76710000D01*
X154948178Y-76710000D01*
X154823475Y-76523368D01*
X154616632Y-76316525D01*
X154442240Y-76200000D01*
X154616632Y-76083475D01*
X154823475Y-75876632D01*
X154985990Y-75633411D01*
X155097932Y-75363158D01*
X155155000Y-75076260D01*
X155155000Y-74783740D01*
X155101544Y-74514999D01*
X157260198Y-74514999D01*
X158621312Y-75876114D01*
%TA.AperFunction,NonConductor*%
D21*
G36*
X158621312Y-75876114D02*
G01*
X158585000Y-76058665D01*
X158585000Y-76341335D01*
X158640147Y-76618574D01*
X158678017Y-76710000D01*
X154948178Y-76710000D01*
X154823475Y-76523368D01*
X154616632Y-76316525D01*
X154442240Y-76200000D01*
X154616632Y-76083475D01*
X154823475Y-75876632D01*
X154985990Y-75633411D01*
X155097932Y-75363158D01*
X155155000Y-75076260D01*
X155155000Y-74783740D01*
X155101544Y-74514999D01*
X157260198Y-74514999D01*
X158621312Y-75876114D01*
G37*
%TD.AperFunction*%
D20*
X158621312Y-73336114D02*
X158585000Y-73518665D01*
X158585000Y-73690199D01*
X158138803Y-73244002D01*
X158115000Y-73214998D01*
X158035800Y-73150000D01*
X158435199Y-73150000D01*
X158621312Y-73336114D01*
%TA.AperFunction,NonConductor*%
D21*
G36*
X158621312Y-73336114D02*
G01*
X158585000Y-73518665D01*
X158585000Y-73690199D01*
X158138803Y-73244002D01*
X158115000Y-73214998D01*
X158035800Y-73150000D01*
X158435199Y-73150000D01*
X158621312Y-73336114D01*
G37*
%TD.AperFunction*%
M02*
