%TF.GenerationSoftware,KiCad,Pcbnew,(5.1.10-1-10_14)*%
%TF.CreationDate,2021-11-05T10:02:52+11:00*%
%TF.ProjectId,bkm10iRduino_shield,626b6d31-3069-4526-9475-696e6f5f7368,rev?*%
%TF.SameCoordinates,Original*%
%TF.FileFunction,Copper,L2,Inr*%
%TF.FilePolarity,Positive*%
%FSLAX46Y46*%
G04 Gerber Fmt 4.6, Leading zero omitted, Abs format (unit mm)*
G04 Created by KiCad (PCBNEW (5.1.10-1-10_14)) date 2021-11-05 10:02:52*
%MOMM*%
%LPD*%
G01*
G04 APERTURE LIST*
%TA.AperFunction,ComponentPad*%
%ADD10C,1.524000*%
%TD*%
%TA.AperFunction,ComponentPad*%
%ADD11O,1.600000X1.600000*%
%TD*%
%TA.AperFunction,ComponentPad*%
%ADD12R,1.600000X1.600000*%
%TD*%
%TA.AperFunction,ComponentPad*%
%ADD13C,2.000000*%
%TD*%
%TA.AperFunction,ComponentPad*%
%ADD14C,1.800000*%
%TD*%
%TA.AperFunction,ComponentPad*%
%ADD15C,1.500000*%
%TD*%
%TA.AperFunction,ComponentPad*%
%ADD16R,1.500000X1.500000*%
%TD*%
%TA.AperFunction,ComponentPad*%
%ADD17O,1.600000X2.000000*%
%TD*%
%TA.AperFunction,Conductor*%
%ADD18C,0.254000*%
%TD*%
%TA.AperFunction,Conductor*%
%ADD19C,0.100000*%
%TD*%
G04 APERTURE END LIST*
D10*
%TO.N,GND*%
%TO.C,U2*%
X163830000Y-110490000D03*
%TO.N,Net-(J1-Pad7)*%
X166370000Y-110490000D03*
%TO.N,Net-(J1-Pad2)*%
X168910000Y-110490000D03*
%TO.N,VCC*%
X171450000Y-110490000D03*
%TO.N,RS485_TX*%
X163830000Y-68580000D03*
%TO.N,RS485_TX_ENABLE*%
X166370000Y-68580000D03*
%TO.N,Net-(U2-Pad2)*%
X168910000Y-68580000D03*
%TO.N,Net-(U2-Pad1)*%
X171450000Y-68580000D03*
%TD*%
D11*
%TO.N,Net-(A1-Pad16)*%
%TO.C,A1*%
X175260000Y-68580000D03*
%TO.N,Net-(A1-Pad15)*%
X160020000Y-68580000D03*
%TO.N,VCC*%
X175260000Y-104140000D03*
%TO.N,Net-(A1-Pad14)*%
X160020000Y-71120000D03*
%TO.N,GND*%
X175260000Y-101600000D03*
%TO.N,Net-(A1-Pad13)*%
X160020000Y-73660000D03*
%TO.N,Net-(A1-Pad28)*%
X175260000Y-99060000D03*
%TO.N,Net-(A1-Pad12)*%
X160020000Y-76200000D03*
%TO.N,Net-(A1-Pad27)*%
X175260000Y-96520000D03*
%TO.N,Net-(A1-Pad11)*%
X160020000Y-78740000D03*
%TO.N,Net-(A1-Pad26)*%
X175260000Y-93980000D03*
%TO.N,IR_OUT*%
X160020000Y-81280000D03*
%TO.N,Net-(A1-Pad25)*%
X175260000Y-91440000D03*
%TO.N,Net-(A1-Pad9)*%
X160020000Y-83820000D03*
%TO.N,Net-(A1-Pad24)*%
X175260000Y-88900000D03*
%TO.N,Net-(A1-Pad8)*%
X160020000Y-86360000D03*
%TO.N,Net-(A1-Pad23)*%
X175260000Y-86360000D03*
%TO.N,~LEARN_BUTTON_IN*%
X160020000Y-88900000D03*
%TO.N,Net-(A1-Pad22)*%
X175260000Y-83820000D03*
%TO.N,Net-(A1-Pad6)*%
X160020000Y-91440000D03*
%TO.N,Net-(A1-Pad21)*%
X175260000Y-81280000D03*
%TO.N,RS485_TX_ENABLE*%
X160020000Y-93980000D03*
%TO.N,Net-(A1-Pad20)*%
X175260000Y-78740000D03*
%TO.N,GND*%
X160020000Y-96520000D03*
%TO.N,Net-(A1-Pad19)*%
X175260000Y-76200000D03*
%TO.N,Net-(A1-Pad3)*%
X160020000Y-99060000D03*
%TO.N,Net-(A1-Pad18)*%
X175260000Y-73660000D03*
%TO.N,Net-(A1-Pad2)*%
X160020000Y-101600000D03*
%TO.N,Net-(A1-Pad17)*%
X175260000Y-71120000D03*
D12*
%TO.N,RS485_TX*%
X160020000Y-104140000D03*
%TD*%
D13*
%TO.N,GND*%
%TO.C,SW1*%
X175410000Y-52070000D03*
%TO.N,~LEARN_BUTTON_IN*%
X175410000Y-56570000D03*
%TO.N,GND*%
X168910000Y-52070000D03*
%TO.N,~LEARN_BUTTON_IN*%
X168910000Y-56570000D03*
%TD*%
D14*
%TO.N,VCC*%
%TO.C,U1*%
X160020000Y-55880000D03*
%TO.N,GND*%
X162560000Y-55880000D03*
%TO.N,IR_OUT*%
%TA.AperFunction,ComponentPad*%
G36*
G01*
X166000000Y-55228400D02*
X166000000Y-56531600D01*
G75*
G02*
X165751600Y-56780000I-248400J0D01*
G01*
X164448400Y-56780000D01*
G75*
G02*
X164200000Y-56531600I0J248400D01*
G01*
X164200000Y-55228400D01*
G75*
G02*
X164448400Y-54980000I248400J0D01*
G01*
X165751600Y-54980000D01*
G75*
G02*
X166000000Y-55228400I0J-248400D01*
G01*
G37*
%TD.AperFunction*%
%TD*%
D15*
%TO.N,Net-(J1-Pad8)*%
%TO.C,J1*%
X172720000Y-116840000D03*
%TO.N,Net-(J1-Pad7)*%
X171450000Y-119380000D03*
%TO.N,GND*%
X170180000Y-116840000D03*
%TO.N,VCC*%
X168910000Y-119380000D03*
%TO.N,GND*%
X167640000Y-116840000D03*
%TO.N,Net-(J1-Pad3)*%
X166370000Y-119380000D03*
%TO.N,Net-(J1-Pad2)*%
X165100000Y-116840000D03*
D16*
%TO.N,GND*%
X163830000Y-119380000D03*
%TD*%
D17*
%TO.N,VCC*%
%TO.C,Brd1*%
X166560000Y-62670000D03*
%TO.N,GND*%
%TA.AperFunction,ComponentPad*%
G36*
G01*
X163620000Y-61670000D02*
X164420000Y-61670000D01*
G75*
G02*
X164820000Y-62070000I0J-400000D01*
G01*
X164820000Y-63270000D01*
G75*
G02*
X164420000Y-63670000I-400000J0D01*
G01*
X163620000Y-63670000D01*
G75*
G02*
X163220000Y-63270000I0J400000D01*
G01*
X163220000Y-62070000D01*
G75*
G02*
X163620000Y-61670000I400000J0D01*
G01*
G37*
%TD.AperFunction*%
%TO.N,Net-(A1-Pad24)*%
X169100000Y-62670000D03*
%TO.N,Net-(A1-Pad23)*%
X171640000Y-62670000D03*
%TD*%
D18*
%TO.N,VCC*%
X177115001Y-128855000D02*
X158165000Y-128855000D01*
X158165000Y-125509872D01*
X160325000Y-125509872D01*
X160325000Y-125950128D01*
X160410890Y-126381925D01*
X160579369Y-126788669D01*
X160823962Y-127154729D01*
X161135271Y-127466038D01*
X161501331Y-127710631D01*
X161908075Y-127879110D01*
X162339872Y-127965000D01*
X162780128Y-127965000D01*
X163211925Y-127879110D01*
X163618669Y-127710631D01*
X163984729Y-127466038D01*
X164296038Y-127154729D01*
X164540631Y-126788669D01*
X164709110Y-126381925D01*
X164795000Y-125950128D01*
X164795000Y-125509872D01*
X171755000Y-125509872D01*
X171755000Y-125950128D01*
X171840890Y-126381925D01*
X172009369Y-126788669D01*
X172253962Y-127154729D01*
X172565271Y-127466038D01*
X172931331Y-127710631D01*
X173338075Y-127879110D01*
X173769872Y-127965000D01*
X174210128Y-127965000D01*
X174641925Y-127879110D01*
X175048669Y-127710631D01*
X175414729Y-127466038D01*
X175726038Y-127154729D01*
X175970631Y-126788669D01*
X176139110Y-126381925D01*
X176225000Y-125950128D01*
X176225000Y-125509872D01*
X176139110Y-125078075D01*
X175970631Y-124671331D01*
X175726038Y-124305271D01*
X175414729Y-123993962D01*
X175048669Y-123749369D01*
X174641925Y-123580890D01*
X174210128Y-123495000D01*
X173769872Y-123495000D01*
X173338075Y-123580890D01*
X172931331Y-123749369D01*
X172565271Y-123993962D01*
X172253962Y-124305271D01*
X172009369Y-124671331D01*
X171840890Y-125078075D01*
X171755000Y-125509872D01*
X164795000Y-125509872D01*
X164709110Y-125078075D01*
X164540631Y-124671331D01*
X164296038Y-124305271D01*
X163984729Y-123993962D01*
X163618669Y-123749369D01*
X163211925Y-123580890D01*
X162780128Y-123495000D01*
X162339872Y-123495000D01*
X161908075Y-123580890D01*
X161501331Y-123749369D01*
X161135271Y-123993962D01*
X160823962Y-124305271D01*
X160579369Y-124671331D01*
X160410890Y-125078075D01*
X160325000Y-125509872D01*
X158165000Y-125509872D01*
X158165000Y-118630000D01*
X162441928Y-118630000D01*
X162441928Y-120130000D01*
X162454188Y-120254482D01*
X162490498Y-120374180D01*
X162549463Y-120484494D01*
X162628815Y-120581185D01*
X162725506Y-120660537D01*
X162835820Y-120719502D01*
X162955518Y-120755812D01*
X163080000Y-120768072D01*
X164580000Y-120768072D01*
X164704482Y-120755812D01*
X164824180Y-120719502D01*
X164934494Y-120660537D01*
X165031185Y-120581185D01*
X165110537Y-120484494D01*
X165169502Y-120374180D01*
X165205812Y-120254482D01*
X165216445Y-120146517D01*
X165294201Y-120262886D01*
X165487114Y-120455799D01*
X165713957Y-120607371D01*
X165966011Y-120711775D01*
X166233589Y-120765000D01*
X166506411Y-120765000D01*
X166773989Y-120711775D01*
X167026043Y-120607371D01*
X167252886Y-120455799D01*
X167371692Y-120336993D01*
X168132612Y-120336993D01*
X168198137Y-120575860D01*
X168445116Y-120691760D01*
X168709960Y-120757250D01*
X168982492Y-120769812D01*
X169252238Y-120728965D01*
X169508832Y-120636277D01*
X169621863Y-120575860D01*
X169687388Y-120336993D01*
X168910000Y-119559605D01*
X168132612Y-120336993D01*
X167371692Y-120336993D01*
X167445799Y-120262886D01*
X167597371Y-120036043D01*
X167638511Y-119936721D01*
X167653723Y-119978832D01*
X167714140Y-120091863D01*
X167953007Y-120157388D01*
X168730395Y-119380000D01*
X169089605Y-119380000D01*
X169866993Y-120157388D01*
X170105860Y-120091863D01*
X170180164Y-119933523D01*
X170222629Y-120036043D01*
X170374201Y-120262886D01*
X170567114Y-120455799D01*
X170793957Y-120607371D01*
X171046011Y-120711775D01*
X171313589Y-120765000D01*
X171586411Y-120765000D01*
X171853989Y-120711775D01*
X172106043Y-120607371D01*
X172332886Y-120455799D01*
X172525799Y-120262886D01*
X172677371Y-120036043D01*
X172781775Y-119783989D01*
X172835000Y-119516411D01*
X172835000Y-119243589D01*
X172781775Y-118976011D01*
X172677371Y-118723957D01*
X172525799Y-118497114D01*
X172332886Y-118304201D01*
X172106043Y-118152629D01*
X171853989Y-118048225D01*
X171586411Y-117995000D01*
X171313589Y-117995000D01*
X171046011Y-118048225D01*
X170793957Y-118152629D01*
X170567114Y-118304201D01*
X170374201Y-118497114D01*
X170222629Y-118723957D01*
X170181489Y-118823279D01*
X170166277Y-118781168D01*
X170105860Y-118668137D01*
X169866993Y-118602612D01*
X169089605Y-119380000D01*
X168730395Y-119380000D01*
X167953007Y-118602612D01*
X167714140Y-118668137D01*
X167639836Y-118826477D01*
X167597371Y-118723957D01*
X167445799Y-118497114D01*
X167371692Y-118423007D01*
X168132612Y-118423007D01*
X168910000Y-119200395D01*
X169687388Y-118423007D01*
X169621863Y-118184140D01*
X169374884Y-118068240D01*
X169110040Y-118002750D01*
X168837508Y-117990188D01*
X168567762Y-118031035D01*
X168311168Y-118123723D01*
X168198137Y-118184140D01*
X168132612Y-118423007D01*
X167371692Y-118423007D01*
X167252886Y-118304201D01*
X167026043Y-118152629D01*
X166773989Y-118048225D01*
X166506411Y-117995000D01*
X166233589Y-117995000D01*
X165966011Y-118048225D01*
X165713957Y-118152629D01*
X165487114Y-118304201D01*
X165294201Y-118497114D01*
X165216445Y-118613483D01*
X165205812Y-118505518D01*
X165169502Y-118385820D01*
X165110537Y-118275506D01*
X165069088Y-118225000D01*
X165236411Y-118225000D01*
X165503989Y-118171775D01*
X165756043Y-118067371D01*
X165982886Y-117915799D01*
X166175799Y-117722886D01*
X166327371Y-117496043D01*
X166370000Y-117393127D01*
X166412629Y-117496043D01*
X166564201Y-117722886D01*
X166757114Y-117915799D01*
X166983957Y-118067371D01*
X167236011Y-118171775D01*
X167503589Y-118225000D01*
X167776411Y-118225000D01*
X168043989Y-118171775D01*
X168296043Y-118067371D01*
X168522886Y-117915799D01*
X168715799Y-117722886D01*
X168867371Y-117496043D01*
X168910000Y-117393127D01*
X168952629Y-117496043D01*
X169104201Y-117722886D01*
X169297114Y-117915799D01*
X169523957Y-118067371D01*
X169776011Y-118171775D01*
X170043589Y-118225000D01*
X170316411Y-118225000D01*
X170583989Y-118171775D01*
X170836043Y-118067371D01*
X171062886Y-117915799D01*
X171255799Y-117722886D01*
X171407371Y-117496043D01*
X171450000Y-117393127D01*
X171492629Y-117496043D01*
X171644201Y-117722886D01*
X171837114Y-117915799D01*
X172063957Y-118067371D01*
X172316011Y-118171775D01*
X172583589Y-118225000D01*
X172856411Y-118225000D01*
X173123989Y-118171775D01*
X173376043Y-118067371D01*
X173602886Y-117915799D01*
X173795799Y-117722886D01*
X173947371Y-117496043D01*
X174051775Y-117243989D01*
X174105000Y-116976411D01*
X174105000Y-116703589D01*
X174051775Y-116436011D01*
X173947371Y-116183957D01*
X173795799Y-115957114D01*
X173602886Y-115764201D01*
X173376043Y-115612629D01*
X173123989Y-115508225D01*
X172856411Y-115455000D01*
X172583589Y-115455000D01*
X172316011Y-115508225D01*
X172063957Y-115612629D01*
X171837114Y-115764201D01*
X171644201Y-115957114D01*
X171492629Y-116183957D01*
X171450000Y-116286873D01*
X171407371Y-116183957D01*
X171255799Y-115957114D01*
X171062886Y-115764201D01*
X170836043Y-115612629D01*
X170583989Y-115508225D01*
X170316411Y-115455000D01*
X170043589Y-115455000D01*
X169776011Y-115508225D01*
X169523957Y-115612629D01*
X169297114Y-115764201D01*
X169104201Y-115957114D01*
X168952629Y-116183957D01*
X168910000Y-116286873D01*
X168867371Y-116183957D01*
X168715799Y-115957114D01*
X168522886Y-115764201D01*
X168296043Y-115612629D01*
X168043989Y-115508225D01*
X167776411Y-115455000D01*
X167503589Y-115455000D01*
X167236011Y-115508225D01*
X166983957Y-115612629D01*
X166757114Y-115764201D01*
X166564201Y-115957114D01*
X166412629Y-116183957D01*
X166370000Y-116286873D01*
X166327371Y-116183957D01*
X166175799Y-115957114D01*
X165982886Y-115764201D01*
X165756043Y-115612629D01*
X165503989Y-115508225D01*
X165236411Y-115455000D01*
X164963589Y-115455000D01*
X164696011Y-115508225D01*
X164443957Y-115612629D01*
X164217114Y-115764201D01*
X164024201Y-115957114D01*
X163872629Y-116183957D01*
X163768225Y-116436011D01*
X163715000Y-116703589D01*
X163715000Y-116976411D01*
X163768225Y-117243989D01*
X163872629Y-117496043D01*
X164024201Y-117722886D01*
X164217114Y-117915799D01*
X164331049Y-117991928D01*
X163080000Y-117991928D01*
X162955518Y-118004188D01*
X162835820Y-118040498D01*
X162725506Y-118099463D01*
X162628815Y-118178815D01*
X162549463Y-118275506D01*
X162490498Y-118385820D01*
X162454188Y-118505518D01*
X162441928Y-118630000D01*
X158165000Y-118630000D01*
X158165000Y-110352408D01*
X162433000Y-110352408D01*
X162433000Y-110627592D01*
X162486686Y-110897490D01*
X162591995Y-111151727D01*
X162744880Y-111380535D01*
X162939465Y-111575120D01*
X163168273Y-111728005D01*
X163422510Y-111833314D01*
X163692408Y-111887000D01*
X163967592Y-111887000D01*
X164237490Y-111833314D01*
X164491727Y-111728005D01*
X164720535Y-111575120D01*
X164915120Y-111380535D01*
X165068005Y-111151727D01*
X165100000Y-111074485D01*
X165131995Y-111151727D01*
X165284880Y-111380535D01*
X165479465Y-111575120D01*
X165708273Y-111728005D01*
X165962510Y-111833314D01*
X166232408Y-111887000D01*
X166507592Y-111887000D01*
X166777490Y-111833314D01*
X167031727Y-111728005D01*
X167260535Y-111575120D01*
X167455120Y-111380535D01*
X167608005Y-111151727D01*
X167640000Y-111074485D01*
X167671995Y-111151727D01*
X167824880Y-111380535D01*
X168019465Y-111575120D01*
X168248273Y-111728005D01*
X168502510Y-111833314D01*
X168772408Y-111887000D01*
X169047592Y-111887000D01*
X169317490Y-111833314D01*
X169571727Y-111728005D01*
X169800535Y-111575120D01*
X169920090Y-111455565D01*
X170664040Y-111455565D01*
X170731020Y-111695656D01*
X170980048Y-111812756D01*
X171247135Y-111879023D01*
X171522017Y-111891910D01*
X171794133Y-111850922D01*
X172053023Y-111757636D01*
X172168980Y-111695656D01*
X172235960Y-111455565D01*
X171450000Y-110669605D01*
X170664040Y-111455565D01*
X169920090Y-111455565D01*
X169995120Y-111380535D01*
X170148005Y-111151727D01*
X170177692Y-111080057D01*
X170182364Y-111093023D01*
X170244344Y-111208980D01*
X170484435Y-111275960D01*
X171270395Y-110490000D01*
X171629605Y-110490000D01*
X172415565Y-111275960D01*
X172655656Y-111208980D01*
X172772756Y-110959952D01*
X172839023Y-110692865D01*
X172851910Y-110417983D01*
X172810922Y-110145867D01*
X172717636Y-109886977D01*
X172655656Y-109771020D01*
X172415565Y-109704040D01*
X171629605Y-110490000D01*
X171270395Y-110490000D01*
X170484435Y-109704040D01*
X170244344Y-109771020D01*
X170180515Y-109906760D01*
X170148005Y-109828273D01*
X169995120Y-109599465D01*
X169920090Y-109524435D01*
X170664040Y-109524435D01*
X171450000Y-110310395D01*
X172235960Y-109524435D01*
X172168980Y-109284344D01*
X171919952Y-109167244D01*
X171652865Y-109100977D01*
X171377983Y-109088090D01*
X171105867Y-109129078D01*
X170846977Y-109222364D01*
X170731020Y-109284344D01*
X170664040Y-109524435D01*
X169920090Y-109524435D01*
X169800535Y-109404880D01*
X169571727Y-109251995D01*
X169317490Y-109146686D01*
X169047592Y-109093000D01*
X168772408Y-109093000D01*
X168502510Y-109146686D01*
X168248273Y-109251995D01*
X168019465Y-109404880D01*
X167824880Y-109599465D01*
X167671995Y-109828273D01*
X167640000Y-109905515D01*
X167608005Y-109828273D01*
X167455120Y-109599465D01*
X167260535Y-109404880D01*
X167031727Y-109251995D01*
X166777490Y-109146686D01*
X166507592Y-109093000D01*
X166232408Y-109093000D01*
X165962510Y-109146686D01*
X165708273Y-109251995D01*
X165479465Y-109404880D01*
X165284880Y-109599465D01*
X165131995Y-109828273D01*
X165100000Y-109905515D01*
X165068005Y-109828273D01*
X164915120Y-109599465D01*
X164720535Y-109404880D01*
X164491727Y-109251995D01*
X164237490Y-109146686D01*
X163967592Y-109093000D01*
X163692408Y-109093000D01*
X163422510Y-109146686D01*
X163168273Y-109251995D01*
X162939465Y-109404880D01*
X162744880Y-109599465D01*
X162591995Y-109828273D01*
X162486686Y-110082510D01*
X162433000Y-110352408D01*
X158165000Y-110352408D01*
X158165000Y-103340000D01*
X158581928Y-103340000D01*
X158581928Y-104940000D01*
X158594188Y-105064482D01*
X158630498Y-105184180D01*
X158689463Y-105294494D01*
X158768815Y-105391185D01*
X158865506Y-105470537D01*
X158975820Y-105529502D01*
X159095518Y-105565812D01*
X159220000Y-105578072D01*
X160820000Y-105578072D01*
X160944482Y-105565812D01*
X161064180Y-105529502D01*
X161174494Y-105470537D01*
X161271185Y-105391185D01*
X161350537Y-105294494D01*
X161409502Y-105184180D01*
X161445812Y-105064482D01*
X161458072Y-104940000D01*
X161458072Y-104489039D01*
X173868096Y-104489039D01*
X173908754Y-104623087D01*
X174028963Y-104877420D01*
X174196481Y-105103414D01*
X174404869Y-105292385D01*
X174646119Y-105437070D01*
X174910960Y-105531909D01*
X175133000Y-105410624D01*
X175133000Y-104267000D01*
X175387000Y-104267000D01*
X175387000Y-105410624D01*
X175609040Y-105531909D01*
X175873881Y-105437070D01*
X176115131Y-105292385D01*
X176323519Y-105103414D01*
X176491037Y-104877420D01*
X176611246Y-104623087D01*
X176651904Y-104489039D01*
X176529915Y-104267000D01*
X175387000Y-104267000D01*
X175133000Y-104267000D01*
X173990085Y-104267000D01*
X173868096Y-104489039D01*
X161458072Y-104489039D01*
X161458072Y-103340000D01*
X161445812Y-103215518D01*
X161409502Y-103095820D01*
X161350537Y-102985506D01*
X161271185Y-102888815D01*
X161174494Y-102809463D01*
X161064180Y-102750498D01*
X160944482Y-102714188D01*
X160936039Y-102713357D01*
X161134637Y-102514759D01*
X161291680Y-102279727D01*
X161399853Y-102018574D01*
X161455000Y-101741335D01*
X161455000Y-101458665D01*
X161399853Y-101181426D01*
X161291680Y-100920273D01*
X161134637Y-100685241D01*
X160934759Y-100485363D01*
X160702241Y-100330000D01*
X160934759Y-100174637D01*
X161134637Y-99974759D01*
X161291680Y-99739727D01*
X161399853Y-99478574D01*
X161455000Y-99201335D01*
X161455000Y-98918665D01*
X161399853Y-98641426D01*
X161291680Y-98380273D01*
X161134637Y-98145241D01*
X160934759Y-97945363D01*
X160702241Y-97790000D01*
X160934759Y-97634637D01*
X161134637Y-97434759D01*
X161291680Y-97199727D01*
X161399853Y-96938574D01*
X161455000Y-96661335D01*
X161455000Y-96378665D01*
X161399853Y-96101426D01*
X161291680Y-95840273D01*
X161134637Y-95605241D01*
X160934759Y-95405363D01*
X160702241Y-95250000D01*
X160934759Y-95094637D01*
X161134637Y-94894759D01*
X161291680Y-94659727D01*
X161399853Y-94398574D01*
X161455000Y-94121335D01*
X161455000Y-93838665D01*
X161399853Y-93561426D01*
X161291680Y-93300273D01*
X161134637Y-93065241D01*
X160934759Y-92865363D01*
X160702241Y-92710000D01*
X160934759Y-92554637D01*
X161134637Y-92354759D01*
X161291680Y-92119727D01*
X161399853Y-91858574D01*
X161455000Y-91581335D01*
X161455000Y-91298665D01*
X161399853Y-91021426D01*
X161291680Y-90760273D01*
X161134637Y-90525241D01*
X160934759Y-90325363D01*
X160702241Y-90170000D01*
X160934759Y-90014637D01*
X161134637Y-89814759D01*
X161291680Y-89579727D01*
X161399853Y-89318574D01*
X161455000Y-89041335D01*
X161455000Y-88758665D01*
X161399853Y-88481426D01*
X161291680Y-88220273D01*
X161134637Y-87985241D01*
X160934759Y-87785363D01*
X160702241Y-87630000D01*
X160934759Y-87474637D01*
X161134637Y-87274759D01*
X161291680Y-87039727D01*
X161399853Y-86778574D01*
X161455000Y-86501335D01*
X161455000Y-86218665D01*
X161399853Y-85941426D01*
X161291680Y-85680273D01*
X161134637Y-85445241D01*
X160934759Y-85245363D01*
X160702241Y-85090000D01*
X160934759Y-84934637D01*
X161134637Y-84734759D01*
X161291680Y-84499727D01*
X161399853Y-84238574D01*
X161455000Y-83961335D01*
X161455000Y-83678665D01*
X161399853Y-83401426D01*
X161291680Y-83140273D01*
X161134637Y-82905241D01*
X160934759Y-82705363D01*
X160702241Y-82550000D01*
X160934759Y-82394637D01*
X161134637Y-82194759D01*
X161291680Y-81959727D01*
X161399853Y-81698574D01*
X161455000Y-81421335D01*
X161455000Y-81138665D01*
X161399853Y-80861426D01*
X161291680Y-80600273D01*
X161134637Y-80365241D01*
X160934759Y-80165363D01*
X160702241Y-80010000D01*
X160934759Y-79854637D01*
X161134637Y-79654759D01*
X161291680Y-79419727D01*
X161399853Y-79158574D01*
X161455000Y-78881335D01*
X161455000Y-78598665D01*
X161399853Y-78321426D01*
X161291680Y-78060273D01*
X161134637Y-77825241D01*
X160934759Y-77625363D01*
X160702241Y-77470000D01*
X160934759Y-77314637D01*
X161134637Y-77114759D01*
X161291680Y-76879727D01*
X161399853Y-76618574D01*
X161455000Y-76341335D01*
X161455000Y-76058665D01*
X161399853Y-75781426D01*
X161291680Y-75520273D01*
X161134637Y-75285241D01*
X160934759Y-75085363D01*
X160702241Y-74930000D01*
X160934759Y-74774637D01*
X161134637Y-74574759D01*
X161291680Y-74339727D01*
X161399853Y-74078574D01*
X161455000Y-73801335D01*
X161455000Y-73518665D01*
X161399853Y-73241426D01*
X161291680Y-72980273D01*
X161134637Y-72745241D01*
X160934759Y-72545363D01*
X160702241Y-72390000D01*
X160934759Y-72234637D01*
X161134637Y-72034759D01*
X161291680Y-71799727D01*
X161399853Y-71538574D01*
X161455000Y-71261335D01*
X161455000Y-70978665D01*
X161399853Y-70701426D01*
X161291680Y-70440273D01*
X161134637Y-70205241D01*
X160934759Y-70005363D01*
X160702241Y-69850000D01*
X160934759Y-69694637D01*
X161134637Y-69494759D01*
X161291680Y-69259727D01*
X161399853Y-68998574D01*
X161455000Y-68721335D01*
X161455000Y-68442408D01*
X162433000Y-68442408D01*
X162433000Y-68717592D01*
X162486686Y-68987490D01*
X162591995Y-69241727D01*
X162744880Y-69470535D01*
X162939465Y-69665120D01*
X163168273Y-69818005D01*
X163422510Y-69923314D01*
X163692408Y-69977000D01*
X163967592Y-69977000D01*
X164237490Y-69923314D01*
X164491727Y-69818005D01*
X164720535Y-69665120D01*
X164915120Y-69470535D01*
X165068005Y-69241727D01*
X165100000Y-69164485D01*
X165131995Y-69241727D01*
X165284880Y-69470535D01*
X165479465Y-69665120D01*
X165708273Y-69818005D01*
X165962510Y-69923314D01*
X166232408Y-69977000D01*
X166507592Y-69977000D01*
X166777490Y-69923314D01*
X167031727Y-69818005D01*
X167260535Y-69665120D01*
X167455120Y-69470535D01*
X167608005Y-69241727D01*
X167640000Y-69164485D01*
X167671995Y-69241727D01*
X167824880Y-69470535D01*
X168019465Y-69665120D01*
X168248273Y-69818005D01*
X168502510Y-69923314D01*
X168772408Y-69977000D01*
X169047592Y-69977000D01*
X169317490Y-69923314D01*
X169571727Y-69818005D01*
X169800535Y-69665120D01*
X169995120Y-69470535D01*
X170148005Y-69241727D01*
X170180000Y-69164485D01*
X170211995Y-69241727D01*
X170364880Y-69470535D01*
X170559465Y-69665120D01*
X170788273Y-69818005D01*
X171042510Y-69923314D01*
X171312408Y-69977000D01*
X171587592Y-69977000D01*
X171857490Y-69923314D01*
X172111727Y-69818005D01*
X172340535Y-69665120D01*
X172535120Y-69470535D01*
X172688005Y-69241727D01*
X172793314Y-68987490D01*
X172847000Y-68717592D01*
X172847000Y-68442408D01*
X172846256Y-68438665D01*
X173825000Y-68438665D01*
X173825000Y-68721335D01*
X173880147Y-68998574D01*
X173988320Y-69259727D01*
X174145363Y-69494759D01*
X174345241Y-69694637D01*
X174577759Y-69850000D01*
X174345241Y-70005363D01*
X174145363Y-70205241D01*
X173988320Y-70440273D01*
X173880147Y-70701426D01*
X173825000Y-70978665D01*
X173825000Y-71261335D01*
X173880147Y-71538574D01*
X173988320Y-71799727D01*
X174145363Y-72034759D01*
X174345241Y-72234637D01*
X174577759Y-72390000D01*
X174345241Y-72545363D01*
X174145363Y-72745241D01*
X173988320Y-72980273D01*
X173880147Y-73241426D01*
X173825000Y-73518665D01*
X173825000Y-73801335D01*
X173880147Y-74078574D01*
X173988320Y-74339727D01*
X174145363Y-74574759D01*
X174345241Y-74774637D01*
X174577759Y-74930000D01*
X174345241Y-75085363D01*
X174145363Y-75285241D01*
X173988320Y-75520273D01*
X173880147Y-75781426D01*
X173825000Y-76058665D01*
X173825000Y-76341335D01*
X173880147Y-76618574D01*
X173988320Y-76879727D01*
X174145363Y-77114759D01*
X174345241Y-77314637D01*
X174577759Y-77470000D01*
X174345241Y-77625363D01*
X174145363Y-77825241D01*
X173988320Y-78060273D01*
X173880147Y-78321426D01*
X173825000Y-78598665D01*
X173825000Y-78881335D01*
X173880147Y-79158574D01*
X173988320Y-79419727D01*
X174145363Y-79654759D01*
X174345241Y-79854637D01*
X174577759Y-80010000D01*
X174345241Y-80165363D01*
X174145363Y-80365241D01*
X173988320Y-80600273D01*
X173880147Y-80861426D01*
X173825000Y-81138665D01*
X173825000Y-81421335D01*
X173880147Y-81698574D01*
X173988320Y-81959727D01*
X174145363Y-82194759D01*
X174345241Y-82394637D01*
X174577759Y-82550000D01*
X174345241Y-82705363D01*
X174145363Y-82905241D01*
X173988320Y-83140273D01*
X173880147Y-83401426D01*
X173825000Y-83678665D01*
X173825000Y-83961335D01*
X173880147Y-84238574D01*
X173988320Y-84499727D01*
X174145363Y-84734759D01*
X174345241Y-84934637D01*
X174577759Y-85090000D01*
X174345241Y-85245363D01*
X174145363Y-85445241D01*
X173988320Y-85680273D01*
X173880147Y-85941426D01*
X173825000Y-86218665D01*
X173825000Y-86501335D01*
X173880147Y-86778574D01*
X173988320Y-87039727D01*
X174145363Y-87274759D01*
X174345241Y-87474637D01*
X174577759Y-87630000D01*
X174345241Y-87785363D01*
X174145363Y-87985241D01*
X173988320Y-88220273D01*
X173880147Y-88481426D01*
X173825000Y-88758665D01*
X173825000Y-89041335D01*
X173880147Y-89318574D01*
X173988320Y-89579727D01*
X174145363Y-89814759D01*
X174345241Y-90014637D01*
X174577759Y-90170000D01*
X174345241Y-90325363D01*
X174145363Y-90525241D01*
X173988320Y-90760273D01*
X173880147Y-91021426D01*
X173825000Y-91298665D01*
X173825000Y-91581335D01*
X173880147Y-91858574D01*
X173988320Y-92119727D01*
X174145363Y-92354759D01*
X174345241Y-92554637D01*
X174577759Y-92710000D01*
X174345241Y-92865363D01*
X174145363Y-93065241D01*
X173988320Y-93300273D01*
X173880147Y-93561426D01*
X173825000Y-93838665D01*
X173825000Y-94121335D01*
X173880147Y-94398574D01*
X173988320Y-94659727D01*
X174145363Y-94894759D01*
X174345241Y-95094637D01*
X174577759Y-95250000D01*
X174345241Y-95405363D01*
X174145363Y-95605241D01*
X173988320Y-95840273D01*
X173880147Y-96101426D01*
X173825000Y-96378665D01*
X173825000Y-96661335D01*
X173880147Y-96938574D01*
X173988320Y-97199727D01*
X174145363Y-97434759D01*
X174345241Y-97634637D01*
X174577759Y-97790000D01*
X174345241Y-97945363D01*
X174145363Y-98145241D01*
X173988320Y-98380273D01*
X173880147Y-98641426D01*
X173825000Y-98918665D01*
X173825000Y-99201335D01*
X173880147Y-99478574D01*
X173988320Y-99739727D01*
X174145363Y-99974759D01*
X174345241Y-100174637D01*
X174577759Y-100330000D01*
X174345241Y-100485363D01*
X174145363Y-100685241D01*
X173988320Y-100920273D01*
X173880147Y-101181426D01*
X173825000Y-101458665D01*
X173825000Y-101741335D01*
X173880147Y-102018574D01*
X173988320Y-102279727D01*
X174145363Y-102514759D01*
X174345241Y-102714637D01*
X174580273Y-102871680D01*
X174590865Y-102876067D01*
X174404869Y-102987615D01*
X174196481Y-103176586D01*
X174028963Y-103402580D01*
X173908754Y-103656913D01*
X173868096Y-103790961D01*
X173990085Y-104013000D01*
X175133000Y-104013000D01*
X175133000Y-103993000D01*
X175387000Y-103993000D01*
X175387000Y-104013000D01*
X176529915Y-104013000D01*
X176651904Y-103790961D01*
X176611246Y-103656913D01*
X176491037Y-103402580D01*
X176323519Y-103176586D01*
X176115131Y-102987615D01*
X175929135Y-102876067D01*
X175939727Y-102871680D01*
X176174759Y-102714637D01*
X176374637Y-102514759D01*
X176531680Y-102279727D01*
X176639853Y-102018574D01*
X176695000Y-101741335D01*
X176695000Y-101458665D01*
X176639853Y-101181426D01*
X176531680Y-100920273D01*
X176374637Y-100685241D01*
X176174759Y-100485363D01*
X175942241Y-100330000D01*
X176174759Y-100174637D01*
X176374637Y-99974759D01*
X176531680Y-99739727D01*
X176639853Y-99478574D01*
X176695000Y-99201335D01*
X176695000Y-98918665D01*
X176639853Y-98641426D01*
X176531680Y-98380273D01*
X176374637Y-98145241D01*
X176174759Y-97945363D01*
X175942241Y-97790000D01*
X176174759Y-97634637D01*
X176374637Y-97434759D01*
X176531680Y-97199727D01*
X176639853Y-96938574D01*
X176695000Y-96661335D01*
X176695000Y-96378665D01*
X176639853Y-96101426D01*
X176531680Y-95840273D01*
X176374637Y-95605241D01*
X176174759Y-95405363D01*
X175942241Y-95250000D01*
X176174759Y-95094637D01*
X176374637Y-94894759D01*
X176531680Y-94659727D01*
X176639853Y-94398574D01*
X176695000Y-94121335D01*
X176695000Y-93838665D01*
X176639853Y-93561426D01*
X176531680Y-93300273D01*
X176374637Y-93065241D01*
X176174759Y-92865363D01*
X175942241Y-92710000D01*
X176174759Y-92554637D01*
X176374637Y-92354759D01*
X176531680Y-92119727D01*
X176639853Y-91858574D01*
X176695000Y-91581335D01*
X176695000Y-91298665D01*
X176639853Y-91021426D01*
X176531680Y-90760273D01*
X176374637Y-90525241D01*
X176174759Y-90325363D01*
X175942241Y-90170000D01*
X176174759Y-90014637D01*
X176374637Y-89814759D01*
X176531680Y-89579727D01*
X176639853Y-89318574D01*
X176695000Y-89041335D01*
X176695000Y-88758665D01*
X176639853Y-88481426D01*
X176531680Y-88220273D01*
X176374637Y-87985241D01*
X176174759Y-87785363D01*
X175942241Y-87630000D01*
X176174759Y-87474637D01*
X176374637Y-87274759D01*
X176531680Y-87039727D01*
X176639853Y-86778574D01*
X176695000Y-86501335D01*
X176695000Y-86218665D01*
X176639853Y-85941426D01*
X176531680Y-85680273D01*
X176374637Y-85445241D01*
X176174759Y-85245363D01*
X175942241Y-85090000D01*
X176174759Y-84934637D01*
X176374637Y-84734759D01*
X176531680Y-84499727D01*
X176639853Y-84238574D01*
X176695000Y-83961335D01*
X176695000Y-83678665D01*
X176639853Y-83401426D01*
X176531680Y-83140273D01*
X176374637Y-82905241D01*
X176174759Y-82705363D01*
X175942241Y-82550000D01*
X176174759Y-82394637D01*
X176374637Y-82194759D01*
X176531680Y-81959727D01*
X176639853Y-81698574D01*
X176695000Y-81421335D01*
X176695000Y-81138665D01*
X176639853Y-80861426D01*
X176531680Y-80600273D01*
X176374637Y-80365241D01*
X176174759Y-80165363D01*
X175942241Y-80010000D01*
X176174759Y-79854637D01*
X176374637Y-79654759D01*
X176531680Y-79419727D01*
X176639853Y-79158574D01*
X176695000Y-78881335D01*
X176695000Y-78598665D01*
X176639853Y-78321426D01*
X176531680Y-78060273D01*
X176374637Y-77825241D01*
X176174759Y-77625363D01*
X175942241Y-77470000D01*
X176174759Y-77314637D01*
X176374637Y-77114759D01*
X176531680Y-76879727D01*
X176639853Y-76618574D01*
X176695000Y-76341335D01*
X176695000Y-76058665D01*
X176639853Y-75781426D01*
X176531680Y-75520273D01*
X176374637Y-75285241D01*
X176174759Y-75085363D01*
X175942241Y-74930000D01*
X176174759Y-74774637D01*
X176374637Y-74574759D01*
X176531680Y-74339727D01*
X176639853Y-74078574D01*
X176695000Y-73801335D01*
X176695000Y-73518665D01*
X176639853Y-73241426D01*
X176531680Y-72980273D01*
X176374637Y-72745241D01*
X176174759Y-72545363D01*
X175942241Y-72390000D01*
X176174759Y-72234637D01*
X176374637Y-72034759D01*
X176531680Y-71799727D01*
X176639853Y-71538574D01*
X176695000Y-71261335D01*
X176695000Y-70978665D01*
X176639853Y-70701426D01*
X176531680Y-70440273D01*
X176374637Y-70205241D01*
X176174759Y-70005363D01*
X175942241Y-69850000D01*
X176174759Y-69694637D01*
X176374637Y-69494759D01*
X176531680Y-69259727D01*
X176639853Y-68998574D01*
X176695000Y-68721335D01*
X176695000Y-68438665D01*
X176639853Y-68161426D01*
X176531680Y-67900273D01*
X176374637Y-67665241D01*
X176174759Y-67465363D01*
X175939727Y-67308320D01*
X175678574Y-67200147D01*
X175401335Y-67145000D01*
X175118665Y-67145000D01*
X174841426Y-67200147D01*
X174580273Y-67308320D01*
X174345241Y-67465363D01*
X174145363Y-67665241D01*
X173988320Y-67900273D01*
X173880147Y-68161426D01*
X173825000Y-68438665D01*
X172846256Y-68438665D01*
X172793314Y-68172510D01*
X172688005Y-67918273D01*
X172535120Y-67689465D01*
X172340535Y-67494880D01*
X172111727Y-67341995D01*
X171857490Y-67236686D01*
X171587592Y-67183000D01*
X171312408Y-67183000D01*
X171042510Y-67236686D01*
X170788273Y-67341995D01*
X170559465Y-67494880D01*
X170364880Y-67689465D01*
X170211995Y-67918273D01*
X170180000Y-67995515D01*
X170148005Y-67918273D01*
X169995120Y-67689465D01*
X169800535Y-67494880D01*
X169571727Y-67341995D01*
X169317490Y-67236686D01*
X169047592Y-67183000D01*
X168772408Y-67183000D01*
X168502510Y-67236686D01*
X168248273Y-67341995D01*
X168019465Y-67494880D01*
X167824880Y-67689465D01*
X167671995Y-67918273D01*
X167640000Y-67995515D01*
X167608005Y-67918273D01*
X167455120Y-67689465D01*
X167260535Y-67494880D01*
X167031727Y-67341995D01*
X166777490Y-67236686D01*
X166507592Y-67183000D01*
X166232408Y-67183000D01*
X165962510Y-67236686D01*
X165708273Y-67341995D01*
X165479465Y-67494880D01*
X165284880Y-67689465D01*
X165131995Y-67918273D01*
X165100000Y-67995515D01*
X165068005Y-67918273D01*
X164915120Y-67689465D01*
X164720535Y-67494880D01*
X164491727Y-67341995D01*
X164237490Y-67236686D01*
X163967592Y-67183000D01*
X163692408Y-67183000D01*
X163422510Y-67236686D01*
X163168273Y-67341995D01*
X162939465Y-67494880D01*
X162744880Y-67689465D01*
X162591995Y-67918273D01*
X162486686Y-68172510D01*
X162433000Y-68442408D01*
X161455000Y-68442408D01*
X161455000Y-68438665D01*
X161399853Y-68161426D01*
X161291680Y-67900273D01*
X161134637Y-67665241D01*
X160934759Y-67465363D01*
X160699727Y-67308320D01*
X160438574Y-67200147D01*
X160161335Y-67145000D01*
X159878665Y-67145000D01*
X159601426Y-67200147D01*
X159340273Y-67308320D01*
X159105241Y-67465363D01*
X158905363Y-67665241D01*
X158748320Y-67900273D01*
X158640147Y-68161426D01*
X158585000Y-68438665D01*
X158585000Y-68721335D01*
X158640147Y-68998574D01*
X158748320Y-69259727D01*
X158905363Y-69494759D01*
X159105241Y-69694637D01*
X159337759Y-69850000D01*
X159105241Y-70005363D01*
X158905363Y-70205241D01*
X158748320Y-70440273D01*
X158640147Y-70701426D01*
X158585000Y-70978665D01*
X158585000Y-71261335D01*
X158640147Y-71538574D01*
X158748320Y-71799727D01*
X158905363Y-72034759D01*
X159105241Y-72234637D01*
X159337759Y-72390000D01*
X159105241Y-72545363D01*
X158905363Y-72745241D01*
X158748320Y-72980273D01*
X158640147Y-73241426D01*
X158585000Y-73518665D01*
X158585000Y-73801335D01*
X158640147Y-74078574D01*
X158748320Y-74339727D01*
X158905363Y-74574759D01*
X159105241Y-74774637D01*
X159337759Y-74930000D01*
X159105241Y-75085363D01*
X158905363Y-75285241D01*
X158748320Y-75520273D01*
X158640147Y-75781426D01*
X158585000Y-76058665D01*
X158585000Y-76341335D01*
X158640147Y-76618574D01*
X158748320Y-76879727D01*
X158905363Y-77114759D01*
X159105241Y-77314637D01*
X159337759Y-77470000D01*
X159105241Y-77625363D01*
X158905363Y-77825241D01*
X158748320Y-78060273D01*
X158640147Y-78321426D01*
X158585000Y-78598665D01*
X158585000Y-78881335D01*
X158640147Y-79158574D01*
X158748320Y-79419727D01*
X158905363Y-79654759D01*
X159105241Y-79854637D01*
X159337759Y-80010000D01*
X159105241Y-80165363D01*
X158905363Y-80365241D01*
X158748320Y-80600273D01*
X158640147Y-80861426D01*
X158585000Y-81138665D01*
X158585000Y-81421335D01*
X158640147Y-81698574D01*
X158748320Y-81959727D01*
X158905363Y-82194759D01*
X159105241Y-82394637D01*
X159337759Y-82550000D01*
X159105241Y-82705363D01*
X158905363Y-82905241D01*
X158748320Y-83140273D01*
X158640147Y-83401426D01*
X158585000Y-83678665D01*
X158585000Y-83961335D01*
X158640147Y-84238574D01*
X158748320Y-84499727D01*
X158905363Y-84734759D01*
X159105241Y-84934637D01*
X159337759Y-85090000D01*
X159105241Y-85245363D01*
X158905363Y-85445241D01*
X158748320Y-85680273D01*
X158640147Y-85941426D01*
X158585000Y-86218665D01*
X158585000Y-86501335D01*
X158640147Y-86778574D01*
X158748320Y-87039727D01*
X158905363Y-87274759D01*
X159105241Y-87474637D01*
X159337759Y-87630000D01*
X159105241Y-87785363D01*
X158905363Y-87985241D01*
X158748320Y-88220273D01*
X158640147Y-88481426D01*
X158585000Y-88758665D01*
X158585000Y-89041335D01*
X158640147Y-89318574D01*
X158748320Y-89579727D01*
X158905363Y-89814759D01*
X159105241Y-90014637D01*
X159337759Y-90170000D01*
X159105241Y-90325363D01*
X158905363Y-90525241D01*
X158748320Y-90760273D01*
X158640147Y-91021426D01*
X158585000Y-91298665D01*
X158585000Y-91581335D01*
X158640147Y-91858574D01*
X158748320Y-92119727D01*
X158905363Y-92354759D01*
X159105241Y-92554637D01*
X159337759Y-92710000D01*
X159105241Y-92865363D01*
X158905363Y-93065241D01*
X158748320Y-93300273D01*
X158640147Y-93561426D01*
X158585000Y-93838665D01*
X158585000Y-94121335D01*
X158640147Y-94398574D01*
X158748320Y-94659727D01*
X158905363Y-94894759D01*
X159105241Y-95094637D01*
X159337759Y-95250000D01*
X159105241Y-95405363D01*
X158905363Y-95605241D01*
X158748320Y-95840273D01*
X158640147Y-96101426D01*
X158585000Y-96378665D01*
X158585000Y-96661335D01*
X158640147Y-96938574D01*
X158748320Y-97199727D01*
X158905363Y-97434759D01*
X159105241Y-97634637D01*
X159337759Y-97790000D01*
X159105241Y-97945363D01*
X158905363Y-98145241D01*
X158748320Y-98380273D01*
X158640147Y-98641426D01*
X158585000Y-98918665D01*
X158585000Y-99201335D01*
X158640147Y-99478574D01*
X158748320Y-99739727D01*
X158905363Y-99974759D01*
X159105241Y-100174637D01*
X159337759Y-100330000D01*
X159105241Y-100485363D01*
X158905363Y-100685241D01*
X158748320Y-100920273D01*
X158640147Y-101181426D01*
X158585000Y-101458665D01*
X158585000Y-101741335D01*
X158640147Y-102018574D01*
X158748320Y-102279727D01*
X158905363Y-102514759D01*
X159103961Y-102713357D01*
X159095518Y-102714188D01*
X158975820Y-102750498D01*
X158865506Y-102809463D01*
X158768815Y-102888815D01*
X158689463Y-102985506D01*
X158630498Y-103095820D01*
X158594188Y-103215518D01*
X158581928Y-103340000D01*
X158165000Y-103340000D01*
X158165000Y-62070000D01*
X162581928Y-62070000D01*
X162581928Y-63270000D01*
X162601874Y-63472518D01*
X162660947Y-63667253D01*
X162756875Y-63846722D01*
X162885972Y-64004028D01*
X163043278Y-64133125D01*
X163222747Y-64229053D01*
X163417482Y-64288126D01*
X163620000Y-64308072D01*
X164420000Y-64308072D01*
X164622518Y-64288126D01*
X164817253Y-64229053D01*
X164996722Y-64133125D01*
X165154028Y-64004028D01*
X165283125Y-63846722D01*
X165374645Y-63675499D01*
X165454327Y-63792662D01*
X165655575Y-63990639D01*
X165891579Y-64145551D01*
X166153270Y-64251444D01*
X166210961Y-64261904D01*
X166433000Y-64139915D01*
X166433000Y-62797000D01*
X166413000Y-62797000D01*
X166413000Y-62543000D01*
X166433000Y-62543000D01*
X166433000Y-61200085D01*
X166687000Y-61200085D01*
X166687000Y-62543000D01*
X166707000Y-62543000D01*
X166707000Y-62797000D01*
X166687000Y-62797000D01*
X166687000Y-64139915D01*
X166909039Y-64261904D01*
X166966730Y-64251444D01*
X167228421Y-64145551D01*
X167464425Y-63990639D01*
X167665673Y-63792662D01*
X167824430Y-63559227D01*
X167831878Y-63541655D01*
X167901068Y-63671100D01*
X168080392Y-63889607D01*
X168298899Y-64068932D01*
X168548192Y-64202182D01*
X168818691Y-64284236D01*
X169100000Y-64311943D01*
X169381308Y-64284236D01*
X169651807Y-64202182D01*
X169901100Y-64068932D01*
X170119607Y-63889608D01*
X170298932Y-63671101D01*
X170370000Y-63538142D01*
X170441068Y-63671100D01*
X170620392Y-63889607D01*
X170838899Y-64068932D01*
X171088192Y-64202182D01*
X171358691Y-64284236D01*
X171640000Y-64311943D01*
X171921308Y-64284236D01*
X172191807Y-64202182D01*
X172441100Y-64068932D01*
X172659607Y-63889608D01*
X172838932Y-63671101D01*
X172972182Y-63421808D01*
X173054236Y-63151309D01*
X173075000Y-62940492D01*
X173075000Y-62399509D01*
X173054236Y-62188692D01*
X172972182Y-61918193D01*
X172838932Y-61668899D01*
X172659608Y-61450392D01*
X172441101Y-61271068D01*
X172191808Y-61137818D01*
X171921309Y-61055764D01*
X171640000Y-61028057D01*
X171358692Y-61055764D01*
X171088193Y-61137818D01*
X170838900Y-61271068D01*
X170620393Y-61450392D01*
X170441068Y-61668899D01*
X170370000Y-61801858D01*
X170298932Y-61668899D01*
X170119608Y-61450392D01*
X169901101Y-61271068D01*
X169651808Y-61137818D01*
X169381309Y-61055764D01*
X169100000Y-61028057D01*
X168818692Y-61055764D01*
X168548193Y-61137818D01*
X168298900Y-61271068D01*
X168080393Y-61450392D01*
X167901068Y-61668899D01*
X167831878Y-61798345D01*
X167824430Y-61780773D01*
X167665673Y-61547338D01*
X167464425Y-61349361D01*
X167228421Y-61194449D01*
X166966730Y-61088556D01*
X166909039Y-61078096D01*
X166687000Y-61200085D01*
X166433000Y-61200085D01*
X166210961Y-61078096D01*
X166153270Y-61088556D01*
X165891579Y-61194449D01*
X165655575Y-61349361D01*
X165454327Y-61547338D01*
X165374645Y-61664501D01*
X165283125Y-61493278D01*
X165154028Y-61335972D01*
X164996722Y-61206875D01*
X164817253Y-61110947D01*
X164622518Y-61051874D01*
X164420000Y-61031928D01*
X163620000Y-61031928D01*
X163417482Y-61051874D01*
X163222747Y-61110947D01*
X163043278Y-61206875D01*
X162885972Y-61335972D01*
X162756875Y-61493278D01*
X162660947Y-61672747D01*
X162601874Y-61867482D01*
X162581928Y-62070000D01*
X158165000Y-62070000D01*
X158165000Y-56944080D01*
X159135525Y-56944080D01*
X159219208Y-57198261D01*
X159491775Y-57329158D01*
X159784642Y-57404365D01*
X160086553Y-57420991D01*
X160385907Y-57378397D01*
X160671199Y-57278222D01*
X160820792Y-57198261D01*
X160904475Y-56944080D01*
X160020000Y-56059605D01*
X159135525Y-56944080D01*
X158165000Y-56944080D01*
X158165000Y-55946553D01*
X158479009Y-55946553D01*
X158521603Y-56245907D01*
X158621778Y-56531199D01*
X158701739Y-56680792D01*
X158955920Y-56764475D01*
X159840395Y-55880000D01*
X160199605Y-55880000D01*
X161084080Y-56764475D01*
X161265049Y-56704895D01*
X161367688Y-56858505D01*
X161581495Y-57072312D01*
X161832905Y-57240299D01*
X162112257Y-57356011D01*
X162408816Y-57415000D01*
X162711184Y-57415000D01*
X163007743Y-57356011D01*
X163287095Y-57240299D01*
X163538505Y-57072312D01*
X163667922Y-56942895D01*
X163711325Y-57024097D01*
X163821570Y-57158430D01*
X163955903Y-57268675D01*
X164109162Y-57350593D01*
X164275458Y-57401039D01*
X164448400Y-57418072D01*
X165751600Y-57418072D01*
X165924542Y-57401039D01*
X166090838Y-57350593D01*
X166244097Y-57268675D01*
X166378430Y-57158430D01*
X166488675Y-57024097D01*
X166570593Y-56870838D01*
X166621039Y-56704542D01*
X166638072Y-56531600D01*
X166638072Y-56408967D01*
X167275000Y-56408967D01*
X167275000Y-56731033D01*
X167337832Y-57046912D01*
X167461082Y-57344463D01*
X167640013Y-57612252D01*
X167867748Y-57839987D01*
X168135537Y-58018918D01*
X168433088Y-58142168D01*
X168748967Y-58205000D01*
X169071033Y-58205000D01*
X169386912Y-58142168D01*
X169684463Y-58018918D01*
X169952252Y-57839987D01*
X170179987Y-57612252D01*
X170358918Y-57344463D01*
X170482168Y-57046912D01*
X170545000Y-56731033D01*
X170545000Y-56408967D01*
X173775000Y-56408967D01*
X173775000Y-56731033D01*
X173837832Y-57046912D01*
X173961082Y-57344463D01*
X174140013Y-57612252D01*
X174367748Y-57839987D01*
X174635537Y-58018918D01*
X174933088Y-58142168D01*
X175248967Y-58205000D01*
X175571033Y-58205000D01*
X175886912Y-58142168D01*
X176184463Y-58018918D01*
X176452252Y-57839987D01*
X176679987Y-57612252D01*
X176858918Y-57344463D01*
X176982168Y-57046912D01*
X177045000Y-56731033D01*
X177045000Y-56408967D01*
X176982168Y-56093088D01*
X176858918Y-55795537D01*
X176679987Y-55527748D01*
X176452252Y-55300013D01*
X176184463Y-55121082D01*
X175886912Y-54997832D01*
X175571033Y-54935000D01*
X175248967Y-54935000D01*
X174933088Y-54997832D01*
X174635537Y-55121082D01*
X174367748Y-55300013D01*
X174140013Y-55527748D01*
X173961082Y-55795537D01*
X173837832Y-56093088D01*
X173775000Y-56408967D01*
X170545000Y-56408967D01*
X170482168Y-56093088D01*
X170358918Y-55795537D01*
X170179987Y-55527748D01*
X169952252Y-55300013D01*
X169684463Y-55121082D01*
X169386912Y-54997832D01*
X169071033Y-54935000D01*
X168748967Y-54935000D01*
X168433088Y-54997832D01*
X168135537Y-55121082D01*
X167867748Y-55300013D01*
X167640013Y-55527748D01*
X167461082Y-55795537D01*
X167337832Y-56093088D01*
X167275000Y-56408967D01*
X166638072Y-56408967D01*
X166638072Y-55228400D01*
X166621039Y-55055458D01*
X166570593Y-54889162D01*
X166488675Y-54735903D01*
X166378430Y-54601570D01*
X166244097Y-54491325D01*
X166090838Y-54409407D01*
X165924542Y-54358961D01*
X165751600Y-54341928D01*
X164448400Y-54341928D01*
X164275458Y-54358961D01*
X164109162Y-54409407D01*
X163955903Y-54491325D01*
X163821570Y-54601570D01*
X163711325Y-54735903D01*
X163667922Y-54817105D01*
X163538505Y-54687688D01*
X163287095Y-54519701D01*
X163007743Y-54403989D01*
X162711184Y-54345000D01*
X162408816Y-54345000D01*
X162112257Y-54403989D01*
X161832905Y-54519701D01*
X161581495Y-54687688D01*
X161367688Y-54901495D01*
X161265049Y-55055105D01*
X161084080Y-54995525D01*
X160199605Y-55880000D01*
X159840395Y-55880000D01*
X158955920Y-54995525D01*
X158701739Y-55079208D01*
X158570842Y-55351775D01*
X158495635Y-55644642D01*
X158479009Y-55946553D01*
X158165000Y-55946553D01*
X158165000Y-54815920D01*
X159135525Y-54815920D01*
X160020000Y-55700395D01*
X160904475Y-54815920D01*
X160820792Y-54561739D01*
X160548225Y-54430842D01*
X160255358Y-54355635D01*
X159953447Y-54339009D01*
X159654093Y-54381603D01*
X159368801Y-54481778D01*
X159219208Y-54561739D01*
X159135525Y-54815920D01*
X158165000Y-54815920D01*
X158165000Y-51908967D01*
X167275000Y-51908967D01*
X167275000Y-52231033D01*
X167337832Y-52546912D01*
X167461082Y-52844463D01*
X167640013Y-53112252D01*
X167867748Y-53339987D01*
X168135537Y-53518918D01*
X168433088Y-53642168D01*
X168748967Y-53705000D01*
X169071033Y-53705000D01*
X169386912Y-53642168D01*
X169684463Y-53518918D01*
X169952252Y-53339987D01*
X170179987Y-53112252D01*
X170358918Y-52844463D01*
X170482168Y-52546912D01*
X170545000Y-52231033D01*
X170545000Y-51908967D01*
X173775000Y-51908967D01*
X173775000Y-52231033D01*
X173837832Y-52546912D01*
X173961082Y-52844463D01*
X174140013Y-53112252D01*
X174367748Y-53339987D01*
X174635537Y-53518918D01*
X174933088Y-53642168D01*
X175248967Y-53705000D01*
X175571033Y-53705000D01*
X175886912Y-53642168D01*
X176184463Y-53518918D01*
X176452252Y-53339987D01*
X176679987Y-53112252D01*
X176858918Y-52844463D01*
X176982168Y-52546912D01*
X177045000Y-52231033D01*
X177045000Y-51908967D01*
X176982168Y-51593088D01*
X176858918Y-51295537D01*
X176679987Y-51027748D01*
X176452252Y-50800013D01*
X176184463Y-50621082D01*
X175886912Y-50497832D01*
X175571033Y-50435000D01*
X175248967Y-50435000D01*
X174933088Y-50497832D01*
X174635537Y-50621082D01*
X174367748Y-50800013D01*
X174140013Y-51027748D01*
X173961082Y-51295537D01*
X173837832Y-51593088D01*
X173775000Y-51908967D01*
X170545000Y-51908967D01*
X170482168Y-51593088D01*
X170358918Y-51295537D01*
X170179987Y-51027748D01*
X169952252Y-50800013D01*
X169684463Y-50621082D01*
X169386912Y-50497832D01*
X169071033Y-50435000D01*
X168748967Y-50435000D01*
X168433088Y-50497832D01*
X168135537Y-50621082D01*
X167867748Y-50800013D01*
X167640013Y-51027748D01*
X167461082Y-51295537D01*
X167337832Y-51593088D01*
X167275000Y-51908967D01*
X158165000Y-51908967D01*
X158165000Y-50215000D01*
X177115000Y-50215000D01*
X177115001Y-128855000D01*
%TA.AperFunction,Conductor*%
D19*
G36*
X177115001Y-128855000D02*
G01*
X158165000Y-128855000D01*
X158165000Y-125509872D01*
X160325000Y-125509872D01*
X160325000Y-125950128D01*
X160410890Y-126381925D01*
X160579369Y-126788669D01*
X160823962Y-127154729D01*
X161135271Y-127466038D01*
X161501331Y-127710631D01*
X161908075Y-127879110D01*
X162339872Y-127965000D01*
X162780128Y-127965000D01*
X163211925Y-127879110D01*
X163618669Y-127710631D01*
X163984729Y-127466038D01*
X164296038Y-127154729D01*
X164540631Y-126788669D01*
X164709110Y-126381925D01*
X164795000Y-125950128D01*
X164795000Y-125509872D01*
X171755000Y-125509872D01*
X171755000Y-125950128D01*
X171840890Y-126381925D01*
X172009369Y-126788669D01*
X172253962Y-127154729D01*
X172565271Y-127466038D01*
X172931331Y-127710631D01*
X173338075Y-127879110D01*
X173769872Y-127965000D01*
X174210128Y-127965000D01*
X174641925Y-127879110D01*
X175048669Y-127710631D01*
X175414729Y-127466038D01*
X175726038Y-127154729D01*
X175970631Y-126788669D01*
X176139110Y-126381925D01*
X176225000Y-125950128D01*
X176225000Y-125509872D01*
X176139110Y-125078075D01*
X175970631Y-124671331D01*
X175726038Y-124305271D01*
X175414729Y-123993962D01*
X175048669Y-123749369D01*
X174641925Y-123580890D01*
X174210128Y-123495000D01*
X173769872Y-123495000D01*
X173338075Y-123580890D01*
X172931331Y-123749369D01*
X172565271Y-123993962D01*
X172253962Y-124305271D01*
X172009369Y-124671331D01*
X171840890Y-125078075D01*
X171755000Y-125509872D01*
X164795000Y-125509872D01*
X164709110Y-125078075D01*
X164540631Y-124671331D01*
X164296038Y-124305271D01*
X163984729Y-123993962D01*
X163618669Y-123749369D01*
X163211925Y-123580890D01*
X162780128Y-123495000D01*
X162339872Y-123495000D01*
X161908075Y-123580890D01*
X161501331Y-123749369D01*
X161135271Y-123993962D01*
X160823962Y-124305271D01*
X160579369Y-124671331D01*
X160410890Y-125078075D01*
X160325000Y-125509872D01*
X158165000Y-125509872D01*
X158165000Y-118630000D01*
X162441928Y-118630000D01*
X162441928Y-120130000D01*
X162454188Y-120254482D01*
X162490498Y-120374180D01*
X162549463Y-120484494D01*
X162628815Y-120581185D01*
X162725506Y-120660537D01*
X162835820Y-120719502D01*
X162955518Y-120755812D01*
X163080000Y-120768072D01*
X164580000Y-120768072D01*
X164704482Y-120755812D01*
X164824180Y-120719502D01*
X164934494Y-120660537D01*
X165031185Y-120581185D01*
X165110537Y-120484494D01*
X165169502Y-120374180D01*
X165205812Y-120254482D01*
X165216445Y-120146517D01*
X165294201Y-120262886D01*
X165487114Y-120455799D01*
X165713957Y-120607371D01*
X165966011Y-120711775D01*
X166233589Y-120765000D01*
X166506411Y-120765000D01*
X166773989Y-120711775D01*
X167026043Y-120607371D01*
X167252886Y-120455799D01*
X167371692Y-120336993D01*
X168132612Y-120336993D01*
X168198137Y-120575860D01*
X168445116Y-120691760D01*
X168709960Y-120757250D01*
X168982492Y-120769812D01*
X169252238Y-120728965D01*
X169508832Y-120636277D01*
X169621863Y-120575860D01*
X169687388Y-120336993D01*
X168910000Y-119559605D01*
X168132612Y-120336993D01*
X167371692Y-120336993D01*
X167445799Y-120262886D01*
X167597371Y-120036043D01*
X167638511Y-119936721D01*
X167653723Y-119978832D01*
X167714140Y-120091863D01*
X167953007Y-120157388D01*
X168730395Y-119380000D01*
X169089605Y-119380000D01*
X169866993Y-120157388D01*
X170105860Y-120091863D01*
X170180164Y-119933523D01*
X170222629Y-120036043D01*
X170374201Y-120262886D01*
X170567114Y-120455799D01*
X170793957Y-120607371D01*
X171046011Y-120711775D01*
X171313589Y-120765000D01*
X171586411Y-120765000D01*
X171853989Y-120711775D01*
X172106043Y-120607371D01*
X172332886Y-120455799D01*
X172525799Y-120262886D01*
X172677371Y-120036043D01*
X172781775Y-119783989D01*
X172835000Y-119516411D01*
X172835000Y-119243589D01*
X172781775Y-118976011D01*
X172677371Y-118723957D01*
X172525799Y-118497114D01*
X172332886Y-118304201D01*
X172106043Y-118152629D01*
X171853989Y-118048225D01*
X171586411Y-117995000D01*
X171313589Y-117995000D01*
X171046011Y-118048225D01*
X170793957Y-118152629D01*
X170567114Y-118304201D01*
X170374201Y-118497114D01*
X170222629Y-118723957D01*
X170181489Y-118823279D01*
X170166277Y-118781168D01*
X170105860Y-118668137D01*
X169866993Y-118602612D01*
X169089605Y-119380000D01*
X168730395Y-119380000D01*
X167953007Y-118602612D01*
X167714140Y-118668137D01*
X167639836Y-118826477D01*
X167597371Y-118723957D01*
X167445799Y-118497114D01*
X167371692Y-118423007D01*
X168132612Y-118423007D01*
X168910000Y-119200395D01*
X169687388Y-118423007D01*
X169621863Y-118184140D01*
X169374884Y-118068240D01*
X169110040Y-118002750D01*
X168837508Y-117990188D01*
X168567762Y-118031035D01*
X168311168Y-118123723D01*
X168198137Y-118184140D01*
X168132612Y-118423007D01*
X167371692Y-118423007D01*
X167252886Y-118304201D01*
X167026043Y-118152629D01*
X166773989Y-118048225D01*
X166506411Y-117995000D01*
X166233589Y-117995000D01*
X165966011Y-118048225D01*
X165713957Y-118152629D01*
X165487114Y-118304201D01*
X165294201Y-118497114D01*
X165216445Y-118613483D01*
X165205812Y-118505518D01*
X165169502Y-118385820D01*
X165110537Y-118275506D01*
X165069088Y-118225000D01*
X165236411Y-118225000D01*
X165503989Y-118171775D01*
X165756043Y-118067371D01*
X165982886Y-117915799D01*
X166175799Y-117722886D01*
X166327371Y-117496043D01*
X166370000Y-117393127D01*
X166412629Y-117496043D01*
X166564201Y-117722886D01*
X166757114Y-117915799D01*
X166983957Y-118067371D01*
X167236011Y-118171775D01*
X167503589Y-118225000D01*
X167776411Y-118225000D01*
X168043989Y-118171775D01*
X168296043Y-118067371D01*
X168522886Y-117915799D01*
X168715799Y-117722886D01*
X168867371Y-117496043D01*
X168910000Y-117393127D01*
X168952629Y-117496043D01*
X169104201Y-117722886D01*
X169297114Y-117915799D01*
X169523957Y-118067371D01*
X169776011Y-118171775D01*
X170043589Y-118225000D01*
X170316411Y-118225000D01*
X170583989Y-118171775D01*
X170836043Y-118067371D01*
X171062886Y-117915799D01*
X171255799Y-117722886D01*
X171407371Y-117496043D01*
X171450000Y-117393127D01*
X171492629Y-117496043D01*
X171644201Y-117722886D01*
X171837114Y-117915799D01*
X172063957Y-118067371D01*
X172316011Y-118171775D01*
X172583589Y-118225000D01*
X172856411Y-118225000D01*
X173123989Y-118171775D01*
X173376043Y-118067371D01*
X173602886Y-117915799D01*
X173795799Y-117722886D01*
X173947371Y-117496043D01*
X174051775Y-117243989D01*
X174105000Y-116976411D01*
X174105000Y-116703589D01*
X174051775Y-116436011D01*
X173947371Y-116183957D01*
X173795799Y-115957114D01*
X173602886Y-115764201D01*
X173376043Y-115612629D01*
X173123989Y-115508225D01*
X172856411Y-115455000D01*
X172583589Y-115455000D01*
X172316011Y-115508225D01*
X172063957Y-115612629D01*
X171837114Y-115764201D01*
X171644201Y-115957114D01*
X171492629Y-116183957D01*
X171450000Y-116286873D01*
X171407371Y-116183957D01*
X171255799Y-115957114D01*
X171062886Y-115764201D01*
X170836043Y-115612629D01*
X170583989Y-115508225D01*
X170316411Y-115455000D01*
X170043589Y-115455000D01*
X169776011Y-115508225D01*
X169523957Y-115612629D01*
X169297114Y-115764201D01*
X169104201Y-115957114D01*
X168952629Y-116183957D01*
X168910000Y-116286873D01*
X168867371Y-116183957D01*
X168715799Y-115957114D01*
X168522886Y-115764201D01*
X168296043Y-115612629D01*
X168043989Y-115508225D01*
X167776411Y-115455000D01*
X167503589Y-115455000D01*
X167236011Y-115508225D01*
X166983957Y-115612629D01*
X166757114Y-115764201D01*
X166564201Y-115957114D01*
X166412629Y-116183957D01*
X166370000Y-116286873D01*
X166327371Y-116183957D01*
X166175799Y-115957114D01*
X165982886Y-115764201D01*
X165756043Y-115612629D01*
X165503989Y-115508225D01*
X165236411Y-115455000D01*
X164963589Y-115455000D01*
X164696011Y-115508225D01*
X164443957Y-115612629D01*
X164217114Y-115764201D01*
X164024201Y-115957114D01*
X163872629Y-116183957D01*
X163768225Y-116436011D01*
X163715000Y-116703589D01*
X163715000Y-116976411D01*
X163768225Y-117243989D01*
X163872629Y-117496043D01*
X164024201Y-117722886D01*
X164217114Y-117915799D01*
X164331049Y-117991928D01*
X163080000Y-117991928D01*
X162955518Y-118004188D01*
X162835820Y-118040498D01*
X162725506Y-118099463D01*
X162628815Y-118178815D01*
X162549463Y-118275506D01*
X162490498Y-118385820D01*
X162454188Y-118505518D01*
X162441928Y-118630000D01*
X158165000Y-118630000D01*
X158165000Y-110352408D01*
X162433000Y-110352408D01*
X162433000Y-110627592D01*
X162486686Y-110897490D01*
X162591995Y-111151727D01*
X162744880Y-111380535D01*
X162939465Y-111575120D01*
X163168273Y-111728005D01*
X163422510Y-111833314D01*
X163692408Y-111887000D01*
X163967592Y-111887000D01*
X164237490Y-111833314D01*
X164491727Y-111728005D01*
X164720535Y-111575120D01*
X164915120Y-111380535D01*
X165068005Y-111151727D01*
X165100000Y-111074485D01*
X165131995Y-111151727D01*
X165284880Y-111380535D01*
X165479465Y-111575120D01*
X165708273Y-111728005D01*
X165962510Y-111833314D01*
X166232408Y-111887000D01*
X166507592Y-111887000D01*
X166777490Y-111833314D01*
X167031727Y-111728005D01*
X167260535Y-111575120D01*
X167455120Y-111380535D01*
X167608005Y-111151727D01*
X167640000Y-111074485D01*
X167671995Y-111151727D01*
X167824880Y-111380535D01*
X168019465Y-111575120D01*
X168248273Y-111728005D01*
X168502510Y-111833314D01*
X168772408Y-111887000D01*
X169047592Y-111887000D01*
X169317490Y-111833314D01*
X169571727Y-111728005D01*
X169800535Y-111575120D01*
X169920090Y-111455565D01*
X170664040Y-111455565D01*
X170731020Y-111695656D01*
X170980048Y-111812756D01*
X171247135Y-111879023D01*
X171522017Y-111891910D01*
X171794133Y-111850922D01*
X172053023Y-111757636D01*
X172168980Y-111695656D01*
X172235960Y-111455565D01*
X171450000Y-110669605D01*
X170664040Y-111455565D01*
X169920090Y-111455565D01*
X169995120Y-111380535D01*
X170148005Y-111151727D01*
X170177692Y-111080057D01*
X170182364Y-111093023D01*
X170244344Y-111208980D01*
X170484435Y-111275960D01*
X171270395Y-110490000D01*
X171629605Y-110490000D01*
X172415565Y-111275960D01*
X172655656Y-111208980D01*
X172772756Y-110959952D01*
X172839023Y-110692865D01*
X172851910Y-110417983D01*
X172810922Y-110145867D01*
X172717636Y-109886977D01*
X172655656Y-109771020D01*
X172415565Y-109704040D01*
X171629605Y-110490000D01*
X171270395Y-110490000D01*
X170484435Y-109704040D01*
X170244344Y-109771020D01*
X170180515Y-109906760D01*
X170148005Y-109828273D01*
X169995120Y-109599465D01*
X169920090Y-109524435D01*
X170664040Y-109524435D01*
X171450000Y-110310395D01*
X172235960Y-109524435D01*
X172168980Y-109284344D01*
X171919952Y-109167244D01*
X171652865Y-109100977D01*
X171377983Y-109088090D01*
X171105867Y-109129078D01*
X170846977Y-109222364D01*
X170731020Y-109284344D01*
X170664040Y-109524435D01*
X169920090Y-109524435D01*
X169800535Y-109404880D01*
X169571727Y-109251995D01*
X169317490Y-109146686D01*
X169047592Y-109093000D01*
X168772408Y-109093000D01*
X168502510Y-109146686D01*
X168248273Y-109251995D01*
X168019465Y-109404880D01*
X167824880Y-109599465D01*
X167671995Y-109828273D01*
X167640000Y-109905515D01*
X167608005Y-109828273D01*
X167455120Y-109599465D01*
X167260535Y-109404880D01*
X167031727Y-109251995D01*
X166777490Y-109146686D01*
X166507592Y-109093000D01*
X166232408Y-109093000D01*
X165962510Y-109146686D01*
X165708273Y-109251995D01*
X165479465Y-109404880D01*
X165284880Y-109599465D01*
X165131995Y-109828273D01*
X165100000Y-109905515D01*
X165068005Y-109828273D01*
X164915120Y-109599465D01*
X164720535Y-109404880D01*
X164491727Y-109251995D01*
X164237490Y-109146686D01*
X163967592Y-109093000D01*
X163692408Y-109093000D01*
X163422510Y-109146686D01*
X163168273Y-109251995D01*
X162939465Y-109404880D01*
X162744880Y-109599465D01*
X162591995Y-109828273D01*
X162486686Y-110082510D01*
X162433000Y-110352408D01*
X158165000Y-110352408D01*
X158165000Y-103340000D01*
X158581928Y-103340000D01*
X158581928Y-104940000D01*
X158594188Y-105064482D01*
X158630498Y-105184180D01*
X158689463Y-105294494D01*
X158768815Y-105391185D01*
X158865506Y-105470537D01*
X158975820Y-105529502D01*
X159095518Y-105565812D01*
X159220000Y-105578072D01*
X160820000Y-105578072D01*
X160944482Y-105565812D01*
X161064180Y-105529502D01*
X161174494Y-105470537D01*
X161271185Y-105391185D01*
X161350537Y-105294494D01*
X161409502Y-105184180D01*
X161445812Y-105064482D01*
X161458072Y-104940000D01*
X161458072Y-104489039D01*
X173868096Y-104489039D01*
X173908754Y-104623087D01*
X174028963Y-104877420D01*
X174196481Y-105103414D01*
X174404869Y-105292385D01*
X174646119Y-105437070D01*
X174910960Y-105531909D01*
X175133000Y-105410624D01*
X175133000Y-104267000D01*
X175387000Y-104267000D01*
X175387000Y-105410624D01*
X175609040Y-105531909D01*
X175873881Y-105437070D01*
X176115131Y-105292385D01*
X176323519Y-105103414D01*
X176491037Y-104877420D01*
X176611246Y-104623087D01*
X176651904Y-104489039D01*
X176529915Y-104267000D01*
X175387000Y-104267000D01*
X175133000Y-104267000D01*
X173990085Y-104267000D01*
X173868096Y-104489039D01*
X161458072Y-104489039D01*
X161458072Y-103340000D01*
X161445812Y-103215518D01*
X161409502Y-103095820D01*
X161350537Y-102985506D01*
X161271185Y-102888815D01*
X161174494Y-102809463D01*
X161064180Y-102750498D01*
X160944482Y-102714188D01*
X160936039Y-102713357D01*
X161134637Y-102514759D01*
X161291680Y-102279727D01*
X161399853Y-102018574D01*
X161455000Y-101741335D01*
X161455000Y-101458665D01*
X161399853Y-101181426D01*
X161291680Y-100920273D01*
X161134637Y-100685241D01*
X160934759Y-100485363D01*
X160702241Y-100330000D01*
X160934759Y-100174637D01*
X161134637Y-99974759D01*
X161291680Y-99739727D01*
X161399853Y-99478574D01*
X161455000Y-99201335D01*
X161455000Y-98918665D01*
X161399853Y-98641426D01*
X161291680Y-98380273D01*
X161134637Y-98145241D01*
X160934759Y-97945363D01*
X160702241Y-97790000D01*
X160934759Y-97634637D01*
X161134637Y-97434759D01*
X161291680Y-97199727D01*
X161399853Y-96938574D01*
X161455000Y-96661335D01*
X161455000Y-96378665D01*
X161399853Y-96101426D01*
X161291680Y-95840273D01*
X161134637Y-95605241D01*
X160934759Y-95405363D01*
X160702241Y-95250000D01*
X160934759Y-95094637D01*
X161134637Y-94894759D01*
X161291680Y-94659727D01*
X161399853Y-94398574D01*
X161455000Y-94121335D01*
X161455000Y-93838665D01*
X161399853Y-93561426D01*
X161291680Y-93300273D01*
X161134637Y-93065241D01*
X160934759Y-92865363D01*
X160702241Y-92710000D01*
X160934759Y-92554637D01*
X161134637Y-92354759D01*
X161291680Y-92119727D01*
X161399853Y-91858574D01*
X161455000Y-91581335D01*
X161455000Y-91298665D01*
X161399853Y-91021426D01*
X161291680Y-90760273D01*
X161134637Y-90525241D01*
X160934759Y-90325363D01*
X160702241Y-90170000D01*
X160934759Y-90014637D01*
X161134637Y-89814759D01*
X161291680Y-89579727D01*
X161399853Y-89318574D01*
X161455000Y-89041335D01*
X161455000Y-88758665D01*
X161399853Y-88481426D01*
X161291680Y-88220273D01*
X161134637Y-87985241D01*
X160934759Y-87785363D01*
X160702241Y-87630000D01*
X160934759Y-87474637D01*
X161134637Y-87274759D01*
X161291680Y-87039727D01*
X161399853Y-86778574D01*
X161455000Y-86501335D01*
X161455000Y-86218665D01*
X161399853Y-85941426D01*
X161291680Y-85680273D01*
X161134637Y-85445241D01*
X160934759Y-85245363D01*
X160702241Y-85090000D01*
X160934759Y-84934637D01*
X161134637Y-84734759D01*
X161291680Y-84499727D01*
X161399853Y-84238574D01*
X161455000Y-83961335D01*
X161455000Y-83678665D01*
X161399853Y-83401426D01*
X161291680Y-83140273D01*
X161134637Y-82905241D01*
X160934759Y-82705363D01*
X160702241Y-82550000D01*
X160934759Y-82394637D01*
X161134637Y-82194759D01*
X161291680Y-81959727D01*
X161399853Y-81698574D01*
X161455000Y-81421335D01*
X161455000Y-81138665D01*
X161399853Y-80861426D01*
X161291680Y-80600273D01*
X161134637Y-80365241D01*
X160934759Y-80165363D01*
X160702241Y-80010000D01*
X160934759Y-79854637D01*
X161134637Y-79654759D01*
X161291680Y-79419727D01*
X161399853Y-79158574D01*
X161455000Y-78881335D01*
X161455000Y-78598665D01*
X161399853Y-78321426D01*
X161291680Y-78060273D01*
X161134637Y-77825241D01*
X160934759Y-77625363D01*
X160702241Y-77470000D01*
X160934759Y-77314637D01*
X161134637Y-77114759D01*
X161291680Y-76879727D01*
X161399853Y-76618574D01*
X161455000Y-76341335D01*
X161455000Y-76058665D01*
X161399853Y-75781426D01*
X161291680Y-75520273D01*
X161134637Y-75285241D01*
X160934759Y-75085363D01*
X160702241Y-74930000D01*
X160934759Y-74774637D01*
X161134637Y-74574759D01*
X161291680Y-74339727D01*
X161399853Y-74078574D01*
X161455000Y-73801335D01*
X161455000Y-73518665D01*
X161399853Y-73241426D01*
X161291680Y-72980273D01*
X161134637Y-72745241D01*
X160934759Y-72545363D01*
X160702241Y-72390000D01*
X160934759Y-72234637D01*
X161134637Y-72034759D01*
X161291680Y-71799727D01*
X161399853Y-71538574D01*
X161455000Y-71261335D01*
X161455000Y-70978665D01*
X161399853Y-70701426D01*
X161291680Y-70440273D01*
X161134637Y-70205241D01*
X160934759Y-70005363D01*
X160702241Y-69850000D01*
X160934759Y-69694637D01*
X161134637Y-69494759D01*
X161291680Y-69259727D01*
X161399853Y-68998574D01*
X161455000Y-68721335D01*
X161455000Y-68442408D01*
X162433000Y-68442408D01*
X162433000Y-68717592D01*
X162486686Y-68987490D01*
X162591995Y-69241727D01*
X162744880Y-69470535D01*
X162939465Y-69665120D01*
X163168273Y-69818005D01*
X163422510Y-69923314D01*
X163692408Y-69977000D01*
X163967592Y-69977000D01*
X164237490Y-69923314D01*
X164491727Y-69818005D01*
X164720535Y-69665120D01*
X164915120Y-69470535D01*
X165068005Y-69241727D01*
X165100000Y-69164485D01*
X165131995Y-69241727D01*
X165284880Y-69470535D01*
X165479465Y-69665120D01*
X165708273Y-69818005D01*
X165962510Y-69923314D01*
X166232408Y-69977000D01*
X166507592Y-69977000D01*
X166777490Y-69923314D01*
X167031727Y-69818005D01*
X167260535Y-69665120D01*
X167455120Y-69470535D01*
X167608005Y-69241727D01*
X167640000Y-69164485D01*
X167671995Y-69241727D01*
X167824880Y-69470535D01*
X168019465Y-69665120D01*
X168248273Y-69818005D01*
X168502510Y-69923314D01*
X168772408Y-69977000D01*
X169047592Y-69977000D01*
X169317490Y-69923314D01*
X169571727Y-69818005D01*
X169800535Y-69665120D01*
X169995120Y-69470535D01*
X170148005Y-69241727D01*
X170180000Y-69164485D01*
X170211995Y-69241727D01*
X170364880Y-69470535D01*
X170559465Y-69665120D01*
X170788273Y-69818005D01*
X171042510Y-69923314D01*
X171312408Y-69977000D01*
X171587592Y-69977000D01*
X171857490Y-69923314D01*
X172111727Y-69818005D01*
X172340535Y-69665120D01*
X172535120Y-69470535D01*
X172688005Y-69241727D01*
X172793314Y-68987490D01*
X172847000Y-68717592D01*
X172847000Y-68442408D01*
X172846256Y-68438665D01*
X173825000Y-68438665D01*
X173825000Y-68721335D01*
X173880147Y-68998574D01*
X173988320Y-69259727D01*
X174145363Y-69494759D01*
X174345241Y-69694637D01*
X174577759Y-69850000D01*
X174345241Y-70005363D01*
X174145363Y-70205241D01*
X173988320Y-70440273D01*
X173880147Y-70701426D01*
X173825000Y-70978665D01*
X173825000Y-71261335D01*
X173880147Y-71538574D01*
X173988320Y-71799727D01*
X174145363Y-72034759D01*
X174345241Y-72234637D01*
X174577759Y-72390000D01*
X174345241Y-72545363D01*
X174145363Y-72745241D01*
X173988320Y-72980273D01*
X173880147Y-73241426D01*
X173825000Y-73518665D01*
X173825000Y-73801335D01*
X173880147Y-74078574D01*
X173988320Y-74339727D01*
X174145363Y-74574759D01*
X174345241Y-74774637D01*
X174577759Y-74930000D01*
X174345241Y-75085363D01*
X174145363Y-75285241D01*
X173988320Y-75520273D01*
X173880147Y-75781426D01*
X173825000Y-76058665D01*
X173825000Y-76341335D01*
X173880147Y-76618574D01*
X173988320Y-76879727D01*
X174145363Y-77114759D01*
X174345241Y-77314637D01*
X174577759Y-77470000D01*
X174345241Y-77625363D01*
X174145363Y-77825241D01*
X173988320Y-78060273D01*
X173880147Y-78321426D01*
X173825000Y-78598665D01*
X173825000Y-78881335D01*
X173880147Y-79158574D01*
X173988320Y-79419727D01*
X174145363Y-79654759D01*
X174345241Y-79854637D01*
X174577759Y-80010000D01*
X174345241Y-80165363D01*
X174145363Y-80365241D01*
X173988320Y-80600273D01*
X173880147Y-80861426D01*
X173825000Y-81138665D01*
X173825000Y-81421335D01*
X173880147Y-81698574D01*
X173988320Y-81959727D01*
X174145363Y-82194759D01*
X174345241Y-82394637D01*
X174577759Y-82550000D01*
X174345241Y-82705363D01*
X174145363Y-82905241D01*
X173988320Y-83140273D01*
X173880147Y-83401426D01*
X173825000Y-83678665D01*
X173825000Y-83961335D01*
X173880147Y-84238574D01*
X173988320Y-84499727D01*
X174145363Y-84734759D01*
X174345241Y-84934637D01*
X174577759Y-85090000D01*
X174345241Y-85245363D01*
X174145363Y-85445241D01*
X173988320Y-85680273D01*
X173880147Y-85941426D01*
X173825000Y-86218665D01*
X173825000Y-86501335D01*
X173880147Y-86778574D01*
X173988320Y-87039727D01*
X174145363Y-87274759D01*
X174345241Y-87474637D01*
X174577759Y-87630000D01*
X174345241Y-87785363D01*
X174145363Y-87985241D01*
X173988320Y-88220273D01*
X173880147Y-88481426D01*
X173825000Y-88758665D01*
X173825000Y-89041335D01*
X173880147Y-89318574D01*
X173988320Y-89579727D01*
X174145363Y-89814759D01*
X174345241Y-90014637D01*
X174577759Y-90170000D01*
X174345241Y-90325363D01*
X174145363Y-90525241D01*
X173988320Y-90760273D01*
X173880147Y-91021426D01*
X173825000Y-91298665D01*
X173825000Y-91581335D01*
X173880147Y-91858574D01*
X173988320Y-92119727D01*
X174145363Y-92354759D01*
X174345241Y-92554637D01*
X174577759Y-92710000D01*
X174345241Y-92865363D01*
X174145363Y-93065241D01*
X173988320Y-93300273D01*
X173880147Y-93561426D01*
X173825000Y-93838665D01*
X173825000Y-94121335D01*
X173880147Y-94398574D01*
X173988320Y-94659727D01*
X174145363Y-94894759D01*
X174345241Y-95094637D01*
X174577759Y-95250000D01*
X174345241Y-95405363D01*
X174145363Y-95605241D01*
X173988320Y-95840273D01*
X173880147Y-96101426D01*
X173825000Y-96378665D01*
X173825000Y-96661335D01*
X173880147Y-96938574D01*
X173988320Y-97199727D01*
X174145363Y-97434759D01*
X174345241Y-97634637D01*
X174577759Y-97790000D01*
X174345241Y-97945363D01*
X174145363Y-98145241D01*
X173988320Y-98380273D01*
X173880147Y-98641426D01*
X173825000Y-98918665D01*
X173825000Y-99201335D01*
X173880147Y-99478574D01*
X173988320Y-99739727D01*
X174145363Y-99974759D01*
X174345241Y-100174637D01*
X174577759Y-100330000D01*
X174345241Y-100485363D01*
X174145363Y-100685241D01*
X173988320Y-100920273D01*
X173880147Y-101181426D01*
X173825000Y-101458665D01*
X173825000Y-101741335D01*
X173880147Y-102018574D01*
X173988320Y-102279727D01*
X174145363Y-102514759D01*
X174345241Y-102714637D01*
X174580273Y-102871680D01*
X174590865Y-102876067D01*
X174404869Y-102987615D01*
X174196481Y-103176586D01*
X174028963Y-103402580D01*
X173908754Y-103656913D01*
X173868096Y-103790961D01*
X173990085Y-104013000D01*
X175133000Y-104013000D01*
X175133000Y-103993000D01*
X175387000Y-103993000D01*
X175387000Y-104013000D01*
X176529915Y-104013000D01*
X176651904Y-103790961D01*
X176611246Y-103656913D01*
X176491037Y-103402580D01*
X176323519Y-103176586D01*
X176115131Y-102987615D01*
X175929135Y-102876067D01*
X175939727Y-102871680D01*
X176174759Y-102714637D01*
X176374637Y-102514759D01*
X176531680Y-102279727D01*
X176639853Y-102018574D01*
X176695000Y-101741335D01*
X176695000Y-101458665D01*
X176639853Y-101181426D01*
X176531680Y-100920273D01*
X176374637Y-100685241D01*
X176174759Y-100485363D01*
X175942241Y-100330000D01*
X176174759Y-100174637D01*
X176374637Y-99974759D01*
X176531680Y-99739727D01*
X176639853Y-99478574D01*
X176695000Y-99201335D01*
X176695000Y-98918665D01*
X176639853Y-98641426D01*
X176531680Y-98380273D01*
X176374637Y-98145241D01*
X176174759Y-97945363D01*
X175942241Y-97790000D01*
X176174759Y-97634637D01*
X176374637Y-97434759D01*
X176531680Y-97199727D01*
X176639853Y-96938574D01*
X176695000Y-96661335D01*
X176695000Y-96378665D01*
X176639853Y-96101426D01*
X176531680Y-95840273D01*
X176374637Y-95605241D01*
X176174759Y-95405363D01*
X175942241Y-95250000D01*
X176174759Y-95094637D01*
X176374637Y-94894759D01*
X176531680Y-94659727D01*
X176639853Y-94398574D01*
X176695000Y-94121335D01*
X176695000Y-93838665D01*
X176639853Y-93561426D01*
X176531680Y-93300273D01*
X176374637Y-93065241D01*
X176174759Y-92865363D01*
X175942241Y-92710000D01*
X176174759Y-92554637D01*
X176374637Y-92354759D01*
X176531680Y-92119727D01*
X176639853Y-91858574D01*
X176695000Y-91581335D01*
X176695000Y-91298665D01*
X176639853Y-91021426D01*
X176531680Y-90760273D01*
X176374637Y-90525241D01*
X176174759Y-90325363D01*
X175942241Y-90170000D01*
X176174759Y-90014637D01*
X176374637Y-89814759D01*
X176531680Y-89579727D01*
X176639853Y-89318574D01*
X176695000Y-89041335D01*
X176695000Y-88758665D01*
X176639853Y-88481426D01*
X176531680Y-88220273D01*
X176374637Y-87985241D01*
X176174759Y-87785363D01*
X175942241Y-87630000D01*
X176174759Y-87474637D01*
X176374637Y-87274759D01*
X176531680Y-87039727D01*
X176639853Y-86778574D01*
X176695000Y-86501335D01*
X176695000Y-86218665D01*
X176639853Y-85941426D01*
X176531680Y-85680273D01*
X176374637Y-85445241D01*
X176174759Y-85245363D01*
X175942241Y-85090000D01*
X176174759Y-84934637D01*
X176374637Y-84734759D01*
X176531680Y-84499727D01*
X176639853Y-84238574D01*
X176695000Y-83961335D01*
X176695000Y-83678665D01*
X176639853Y-83401426D01*
X176531680Y-83140273D01*
X176374637Y-82905241D01*
X176174759Y-82705363D01*
X175942241Y-82550000D01*
X176174759Y-82394637D01*
X176374637Y-82194759D01*
X176531680Y-81959727D01*
X176639853Y-81698574D01*
X176695000Y-81421335D01*
X176695000Y-81138665D01*
X176639853Y-80861426D01*
X176531680Y-80600273D01*
X176374637Y-80365241D01*
X176174759Y-80165363D01*
X175942241Y-80010000D01*
X176174759Y-79854637D01*
X176374637Y-79654759D01*
X176531680Y-79419727D01*
X176639853Y-79158574D01*
X176695000Y-78881335D01*
X176695000Y-78598665D01*
X176639853Y-78321426D01*
X176531680Y-78060273D01*
X176374637Y-77825241D01*
X176174759Y-77625363D01*
X175942241Y-77470000D01*
X176174759Y-77314637D01*
X176374637Y-77114759D01*
X176531680Y-76879727D01*
X176639853Y-76618574D01*
X176695000Y-76341335D01*
X176695000Y-76058665D01*
X176639853Y-75781426D01*
X176531680Y-75520273D01*
X176374637Y-75285241D01*
X176174759Y-75085363D01*
X175942241Y-74930000D01*
X176174759Y-74774637D01*
X176374637Y-74574759D01*
X176531680Y-74339727D01*
X176639853Y-74078574D01*
X176695000Y-73801335D01*
X176695000Y-73518665D01*
X176639853Y-73241426D01*
X176531680Y-72980273D01*
X176374637Y-72745241D01*
X176174759Y-72545363D01*
X175942241Y-72390000D01*
X176174759Y-72234637D01*
X176374637Y-72034759D01*
X176531680Y-71799727D01*
X176639853Y-71538574D01*
X176695000Y-71261335D01*
X176695000Y-70978665D01*
X176639853Y-70701426D01*
X176531680Y-70440273D01*
X176374637Y-70205241D01*
X176174759Y-70005363D01*
X175942241Y-69850000D01*
X176174759Y-69694637D01*
X176374637Y-69494759D01*
X176531680Y-69259727D01*
X176639853Y-68998574D01*
X176695000Y-68721335D01*
X176695000Y-68438665D01*
X176639853Y-68161426D01*
X176531680Y-67900273D01*
X176374637Y-67665241D01*
X176174759Y-67465363D01*
X175939727Y-67308320D01*
X175678574Y-67200147D01*
X175401335Y-67145000D01*
X175118665Y-67145000D01*
X174841426Y-67200147D01*
X174580273Y-67308320D01*
X174345241Y-67465363D01*
X174145363Y-67665241D01*
X173988320Y-67900273D01*
X173880147Y-68161426D01*
X173825000Y-68438665D01*
X172846256Y-68438665D01*
X172793314Y-68172510D01*
X172688005Y-67918273D01*
X172535120Y-67689465D01*
X172340535Y-67494880D01*
X172111727Y-67341995D01*
X171857490Y-67236686D01*
X171587592Y-67183000D01*
X171312408Y-67183000D01*
X171042510Y-67236686D01*
X170788273Y-67341995D01*
X170559465Y-67494880D01*
X170364880Y-67689465D01*
X170211995Y-67918273D01*
X170180000Y-67995515D01*
X170148005Y-67918273D01*
X169995120Y-67689465D01*
X169800535Y-67494880D01*
X169571727Y-67341995D01*
X169317490Y-67236686D01*
X169047592Y-67183000D01*
X168772408Y-67183000D01*
X168502510Y-67236686D01*
X168248273Y-67341995D01*
X168019465Y-67494880D01*
X167824880Y-67689465D01*
X167671995Y-67918273D01*
X167640000Y-67995515D01*
X167608005Y-67918273D01*
X167455120Y-67689465D01*
X167260535Y-67494880D01*
X167031727Y-67341995D01*
X166777490Y-67236686D01*
X166507592Y-67183000D01*
X166232408Y-67183000D01*
X165962510Y-67236686D01*
X165708273Y-67341995D01*
X165479465Y-67494880D01*
X165284880Y-67689465D01*
X165131995Y-67918273D01*
X165100000Y-67995515D01*
X165068005Y-67918273D01*
X164915120Y-67689465D01*
X164720535Y-67494880D01*
X164491727Y-67341995D01*
X164237490Y-67236686D01*
X163967592Y-67183000D01*
X163692408Y-67183000D01*
X163422510Y-67236686D01*
X163168273Y-67341995D01*
X162939465Y-67494880D01*
X162744880Y-67689465D01*
X162591995Y-67918273D01*
X162486686Y-68172510D01*
X162433000Y-68442408D01*
X161455000Y-68442408D01*
X161455000Y-68438665D01*
X161399853Y-68161426D01*
X161291680Y-67900273D01*
X161134637Y-67665241D01*
X160934759Y-67465363D01*
X160699727Y-67308320D01*
X160438574Y-67200147D01*
X160161335Y-67145000D01*
X159878665Y-67145000D01*
X159601426Y-67200147D01*
X159340273Y-67308320D01*
X159105241Y-67465363D01*
X158905363Y-67665241D01*
X158748320Y-67900273D01*
X158640147Y-68161426D01*
X158585000Y-68438665D01*
X158585000Y-68721335D01*
X158640147Y-68998574D01*
X158748320Y-69259727D01*
X158905363Y-69494759D01*
X159105241Y-69694637D01*
X159337759Y-69850000D01*
X159105241Y-70005363D01*
X158905363Y-70205241D01*
X158748320Y-70440273D01*
X158640147Y-70701426D01*
X158585000Y-70978665D01*
X158585000Y-71261335D01*
X158640147Y-71538574D01*
X158748320Y-71799727D01*
X158905363Y-72034759D01*
X159105241Y-72234637D01*
X159337759Y-72390000D01*
X159105241Y-72545363D01*
X158905363Y-72745241D01*
X158748320Y-72980273D01*
X158640147Y-73241426D01*
X158585000Y-73518665D01*
X158585000Y-73801335D01*
X158640147Y-74078574D01*
X158748320Y-74339727D01*
X158905363Y-74574759D01*
X159105241Y-74774637D01*
X159337759Y-74930000D01*
X159105241Y-75085363D01*
X158905363Y-75285241D01*
X158748320Y-75520273D01*
X158640147Y-75781426D01*
X158585000Y-76058665D01*
X158585000Y-76341335D01*
X158640147Y-76618574D01*
X158748320Y-76879727D01*
X158905363Y-77114759D01*
X159105241Y-77314637D01*
X159337759Y-77470000D01*
X159105241Y-77625363D01*
X158905363Y-77825241D01*
X158748320Y-78060273D01*
X158640147Y-78321426D01*
X158585000Y-78598665D01*
X158585000Y-78881335D01*
X158640147Y-79158574D01*
X158748320Y-79419727D01*
X158905363Y-79654759D01*
X159105241Y-79854637D01*
X159337759Y-80010000D01*
X159105241Y-80165363D01*
X158905363Y-80365241D01*
X158748320Y-80600273D01*
X158640147Y-80861426D01*
X158585000Y-81138665D01*
X158585000Y-81421335D01*
X158640147Y-81698574D01*
X158748320Y-81959727D01*
X158905363Y-82194759D01*
X159105241Y-82394637D01*
X159337759Y-82550000D01*
X159105241Y-82705363D01*
X158905363Y-82905241D01*
X158748320Y-83140273D01*
X158640147Y-83401426D01*
X158585000Y-83678665D01*
X158585000Y-83961335D01*
X158640147Y-84238574D01*
X158748320Y-84499727D01*
X158905363Y-84734759D01*
X159105241Y-84934637D01*
X159337759Y-85090000D01*
X159105241Y-85245363D01*
X158905363Y-85445241D01*
X158748320Y-85680273D01*
X158640147Y-85941426D01*
X158585000Y-86218665D01*
X158585000Y-86501335D01*
X158640147Y-86778574D01*
X158748320Y-87039727D01*
X158905363Y-87274759D01*
X159105241Y-87474637D01*
X159337759Y-87630000D01*
X159105241Y-87785363D01*
X158905363Y-87985241D01*
X158748320Y-88220273D01*
X158640147Y-88481426D01*
X158585000Y-88758665D01*
X158585000Y-89041335D01*
X158640147Y-89318574D01*
X158748320Y-89579727D01*
X158905363Y-89814759D01*
X159105241Y-90014637D01*
X159337759Y-90170000D01*
X159105241Y-90325363D01*
X158905363Y-90525241D01*
X158748320Y-90760273D01*
X158640147Y-91021426D01*
X158585000Y-91298665D01*
X158585000Y-91581335D01*
X158640147Y-91858574D01*
X158748320Y-92119727D01*
X158905363Y-92354759D01*
X159105241Y-92554637D01*
X159337759Y-92710000D01*
X159105241Y-92865363D01*
X158905363Y-93065241D01*
X158748320Y-93300273D01*
X158640147Y-93561426D01*
X158585000Y-93838665D01*
X158585000Y-94121335D01*
X158640147Y-94398574D01*
X158748320Y-94659727D01*
X158905363Y-94894759D01*
X159105241Y-95094637D01*
X159337759Y-95250000D01*
X159105241Y-95405363D01*
X158905363Y-95605241D01*
X158748320Y-95840273D01*
X158640147Y-96101426D01*
X158585000Y-96378665D01*
X158585000Y-96661335D01*
X158640147Y-96938574D01*
X158748320Y-97199727D01*
X158905363Y-97434759D01*
X159105241Y-97634637D01*
X159337759Y-97790000D01*
X159105241Y-97945363D01*
X158905363Y-98145241D01*
X158748320Y-98380273D01*
X158640147Y-98641426D01*
X158585000Y-98918665D01*
X158585000Y-99201335D01*
X158640147Y-99478574D01*
X158748320Y-99739727D01*
X158905363Y-99974759D01*
X159105241Y-100174637D01*
X159337759Y-100330000D01*
X159105241Y-100485363D01*
X158905363Y-100685241D01*
X158748320Y-100920273D01*
X158640147Y-101181426D01*
X158585000Y-101458665D01*
X158585000Y-101741335D01*
X158640147Y-102018574D01*
X158748320Y-102279727D01*
X158905363Y-102514759D01*
X159103961Y-102713357D01*
X159095518Y-102714188D01*
X158975820Y-102750498D01*
X158865506Y-102809463D01*
X158768815Y-102888815D01*
X158689463Y-102985506D01*
X158630498Y-103095820D01*
X158594188Y-103215518D01*
X158581928Y-103340000D01*
X158165000Y-103340000D01*
X158165000Y-62070000D01*
X162581928Y-62070000D01*
X162581928Y-63270000D01*
X162601874Y-63472518D01*
X162660947Y-63667253D01*
X162756875Y-63846722D01*
X162885972Y-64004028D01*
X163043278Y-64133125D01*
X163222747Y-64229053D01*
X163417482Y-64288126D01*
X163620000Y-64308072D01*
X164420000Y-64308072D01*
X164622518Y-64288126D01*
X164817253Y-64229053D01*
X164996722Y-64133125D01*
X165154028Y-64004028D01*
X165283125Y-63846722D01*
X165374645Y-63675499D01*
X165454327Y-63792662D01*
X165655575Y-63990639D01*
X165891579Y-64145551D01*
X166153270Y-64251444D01*
X166210961Y-64261904D01*
X166433000Y-64139915D01*
X166433000Y-62797000D01*
X166413000Y-62797000D01*
X166413000Y-62543000D01*
X166433000Y-62543000D01*
X166433000Y-61200085D01*
X166687000Y-61200085D01*
X166687000Y-62543000D01*
X166707000Y-62543000D01*
X166707000Y-62797000D01*
X166687000Y-62797000D01*
X166687000Y-64139915D01*
X166909039Y-64261904D01*
X166966730Y-64251444D01*
X167228421Y-64145551D01*
X167464425Y-63990639D01*
X167665673Y-63792662D01*
X167824430Y-63559227D01*
X167831878Y-63541655D01*
X167901068Y-63671100D01*
X168080392Y-63889607D01*
X168298899Y-64068932D01*
X168548192Y-64202182D01*
X168818691Y-64284236D01*
X169100000Y-64311943D01*
X169381308Y-64284236D01*
X169651807Y-64202182D01*
X169901100Y-64068932D01*
X170119607Y-63889608D01*
X170298932Y-63671101D01*
X170370000Y-63538142D01*
X170441068Y-63671100D01*
X170620392Y-63889607D01*
X170838899Y-64068932D01*
X171088192Y-64202182D01*
X171358691Y-64284236D01*
X171640000Y-64311943D01*
X171921308Y-64284236D01*
X172191807Y-64202182D01*
X172441100Y-64068932D01*
X172659607Y-63889608D01*
X172838932Y-63671101D01*
X172972182Y-63421808D01*
X173054236Y-63151309D01*
X173075000Y-62940492D01*
X173075000Y-62399509D01*
X173054236Y-62188692D01*
X172972182Y-61918193D01*
X172838932Y-61668899D01*
X172659608Y-61450392D01*
X172441101Y-61271068D01*
X172191808Y-61137818D01*
X171921309Y-61055764D01*
X171640000Y-61028057D01*
X171358692Y-61055764D01*
X171088193Y-61137818D01*
X170838900Y-61271068D01*
X170620393Y-61450392D01*
X170441068Y-61668899D01*
X170370000Y-61801858D01*
X170298932Y-61668899D01*
X170119608Y-61450392D01*
X169901101Y-61271068D01*
X169651808Y-61137818D01*
X169381309Y-61055764D01*
X169100000Y-61028057D01*
X168818692Y-61055764D01*
X168548193Y-61137818D01*
X168298900Y-61271068D01*
X168080393Y-61450392D01*
X167901068Y-61668899D01*
X167831878Y-61798345D01*
X167824430Y-61780773D01*
X167665673Y-61547338D01*
X167464425Y-61349361D01*
X167228421Y-61194449D01*
X166966730Y-61088556D01*
X166909039Y-61078096D01*
X166687000Y-61200085D01*
X166433000Y-61200085D01*
X166210961Y-61078096D01*
X166153270Y-61088556D01*
X165891579Y-61194449D01*
X165655575Y-61349361D01*
X165454327Y-61547338D01*
X165374645Y-61664501D01*
X165283125Y-61493278D01*
X165154028Y-61335972D01*
X164996722Y-61206875D01*
X164817253Y-61110947D01*
X164622518Y-61051874D01*
X164420000Y-61031928D01*
X163620000Y-61031928D01*
X163417482Y-61051874D01*
X163222747Y-61110947D01*
X163043278Y-61206875D01*
X162885972Y-61335972D01*
X162756875Y-61493278D01*
X162660947Y-61672747D01*
X162601874Y-61867482D01*
X162581928Y-62070000D01*
X158165000Y-62070000D01*
X158165000Y-56944080D01*
X159135525Y-56944080D01*
X159219208Y-57198261D01*
X159491775Y-57329158D01*
X159784642Y-57404365D01*
X160086553Y-57420991D01*
X160385907Y-57378397D01*
X160671199Y-57278222D01*
X160820792Y-57198261D01*
X160904475Y-56944080D01*
X160020000Y-56059605D01*
X159135525Y-56944080D01*
X158165000Y-56944080D01*
X158165000Y-55946553D01*
X158479009Y-55946553D01*
X158521603Y-56245907D01*
X158621778Y-56531199D01*
X158701739Y-56680792D01*
X158955920Y-56764475D01*
X159840395Y-55880000D01*
X160199605Y-55880000D01*
X161084080Y-56764475D01*
X161265049Y-56704895D01*
X161367688Y-56858505D01*
X161581495Y-57072312D01*
X161832905Y-57240299D01*
X162112257Y-57356011D01*
X162408816Y-57415000D01*
X162711184Y-57415000D01*
X163007743Y-57356011D01*
X163287095Y-57240299D01*
X163538505Y-57072312D01*
X163667922Y-56942895D01*
X163711325Y-57024097D01*
X163821570Y-57158430D01*
X163955903Y-57268675D01*
X164109162Y-57350593D01*
X164275458Y-57401039D01*
X164448400Y-57418072D01*
X165751600Y-57418072D01*
X165924542Y-57401039D01*
X166090838Y-57350593D01*
X166244097Y-57268675D01*
X166378430Y-57158430D01*
X166488675Y-57024097D01*
X166570593Y-56870838D01*
X166621039Y-56704542D01*
X166638072Y-56531600D01*
X166638072Y-56408967D01*
X167275000Y-56408967D01*
X167275000Y-56731033D01*
X167337832Y-57046912D01*
X167461082Y-57344463D01*
X167640013Y-57612252D01*
X167867748Y-57839987D01*
X168135537Y-58018918D01*
X168433088Y-58142168D01*
X168748967Y-58205000D01*
X169071033Y-58205000D01*
X169386912Y-58142168D01*
X169684463Y-58018918D01*
X169952252Y-57839987D01*
X170179987Y-57612252D01*
X170358918Y-57344463D01*
X170482168Y-57046912D01*
X170545000Y-56731033D01*
X170545000Y-56408967D01*
X173775000Y-56408967D01*
X173775000Y-56731033D01*
X173837832Y-57046912D01*
X173961082Y-57344463D01*
X174140013Y-57612252D01*
X174367748Y-57839987D01*
X174635537Y-58018918D01*
X174933088Y-58142168D01*
X175248967Y-58205000D01*
X175571033Y-58205000D01*
X175886912Y-58142168D01*
X176184463Y-58018918D01*
X176452252Y-57839987D01*
X176679987Y-57612252D01*
X176858918Y-57344463D01*
X176982168Y-57046912D01*
X177045000Y-56731033D01*
X177045000Y-56408967D01*
X176982168Y-56093088D01*
X176858918Y-55795537D01*
X176679987Y-55527748D01*
X176452252Y-55300013D01*
X176184463Y-55121082D01*
X175886912Y-54997832D01*
X175571033Y-54935000D01*
X175248967Y-54935000D01*
X174933088Y-54997832D01*
X174635537Y-55121082D01*
X174367748Y-55300013D01*
X174140013Y-55527748D01*
X173961082Y-55795537D01*
X173837832Y-56093088D01*
X173775000Y-56408967D01*
X170545000Y-56408967D01*
X170482168Y-56093088D01*
X170358918Y-55795537D01*
X170179987Y-55527748D01*
X169952252Y-55300013D01*
X169684463Y-55121082D01*
X169386912Y-54997832D01*
X169071033Y-54935000D01*
X168748967Y-54935000D01*
X168433088Y-54997832D01*
X168135537Y-55121082D01*
X167867748Y-55300013D01*
X167640013Y-55527748D01*
X167461082Y-55795537D01*
X167337832Y-56093088D01*
X167275000Y-56408967D01*
X166638072Y-56408967D01*
X166638072Y-55228400D01*
X166621039Y-55055458D01*
X166570593Y-54889162D01*
X166488675Y-54735903D01*
X166378430Y-54601570D01*
X166244097Y-54491325D01*
X166090838Y-54409407D01*
X165924542Y-54358961D01*
X165751600Y-54341928D01*
X164448400Y-54341928D01*
X164275458Y-54358961D01*
X164109162Y-54409407D01*
X163955903Y-54491325D01*
X163821570Y-54601570D01*
X163711325Y-54735903D01*
X163667922Y-54817105D01*
X163538505Y-54687688D01*
X163287095Y-54519701D01*
X163007743Y-54403989D01*
X162711184Y-54345000D01*
X162408816Y-54345000D01*
X162112257Y-54403989D01*
X161832905Y-54519701D01*
X161581495Y-54687688D01*
X161367688Y-54901495D01*
X161265049Y-55055105D01*
X161084080Y-54995525D01*
X160199605Y-55880000D01*
X159840395Y-55880000D01*
X158955920Y-54995525D01*
X158701739Y-55079208D01*
X158570842Y-55351775D01*
X158495635Y-55644642D01*
X158479009Y-55946553D01*
X158165000Y-55946553D01*
X158165000Y-54815920D01*
X159135525Y-54815920D01*
X160020000Y-55700395D01*
X160904475Y-54815920D01*
X160820792Y-54561739D01*
X160548225Y-54430842D01*
X160255358Y-54355635D01*
X159953447Y-54339009D01*
X159654093Y-54381603D01*
X159368801Y-54481778D01*
X159219208Y-54561739D01*
X159135525Y-54815920D01*
X158165000Y-54815920D01*
X158165000Y-51908967D01*
X167275000Y-51908967D01*
X167275000Y-52231033D01*
X167337832Y-52546912D01*
X167461082Y-52844463D01*
X167640013Y-53112252D01*
X167867748Y-53339987D01*
X168135537Y-53518918D01*
X168433088Y-53642168D01*
X168748967Y-53705000D01*
X169071033Y-53705000D01*
X169386912Y-53642168D01*
X169684463Y-53518918D01*
X169952252Y-53339987D01*
X170179987Y-53112252D01*
X170358918Y-52844463D01*
X170482168Y-52546912D01*
X170545000Y-52231033D01*
X170545000Y-51908967D01*
X173775000Y-51908967D01*
X173775000Y-52231033D01*
X173837832Y-52546912D01*
X173961082Y-52844463D01*
X174140013Y-53112252D01*
X174367748Y-53339987D01*
X174635537Y-53518918D01*
X174933088Y-53642168D01*
X175248967Y-53705000D01*
X175571033Y-53705000D01*
X175886912Y-53642168D01*
X176184463Y-53518918D01*
X176452252Y-53339987D01*
X176679987Y-53112252D01*
X176858918Y-52844463D01*
X176982168Y-52546912D01*
X177045000Y-52231033D01*
X177045000Y-51908967D01*
X176982168Y-51593088D01*
X176858918Y-51295537D01*
X176679987Y-51027748D01*
X176452252Y-50800013D01*
X176184463Y-50621082D01*
X175886912Y-50497832D01*
X175571033Y-50435000D01*
X175248967Y-50435000D01*
X174933088Y-50497832D01*
X174635537Y-50621082D01*
X174367748Y-50800013D01*
X174140013Y-51027748D01*
X173961082Y-51295537D01*
X173837832Y-51593088D01*
X173775000Y-51908967D01*
X170545000Y-51908967D01*
X170482168Y-51593088D01*
X170358918Y-51295537D01*
X170179987Y-51027748D01*
X169952252Y-50800013D01*
X169684463Y-50621082D01*
X169386912Y-50497832D01*
X169071033Y-50435000D01*
X168748967Y-50435000D01*
X168433088Y-50497832D01*
X168135537Y-50621082D01*
X167867748Y-50800013D01*
X167640013Y-51027748D01*
X167461082Y-51295537D01*
X167337832Y-51593088D01*
X167275000Y-51908967D01*
X158165000Y-51908967D01*
X158165000Y-50215000D01*
X177115000Y-50215000D01*
X177115001Y-128855000D01*
G37*
%TD.AperFunction*%
%TD*%
M02*
