%TF.GenerationSoftware,KiCad,Pcbnew,(5.1.10-1-10_14)*%
%TF.CreationDate,2021-11-08T14:23:05+11:00*%
%TF.ProjectId,bkm10iRduino_shield,626b6d31-3069-4526-9475-696e6f5f7368,rev?*%
%TF.SameCoordinates,Original*%
%TF.FileFunction,Copper,L3,Inr*%
%TF.FilePolarity,Positive*%
%FSLAX46Y46*%
G04 Gerber Fmt 4.6, Leading zero omitted, Abs format (unit mm)*
G04 Created by KiCad (PCBNEW (5.1.10-1-10_14)) date 2021-11-08 14:23:05*
%MOMM*%
%LPD*%
G01*
G04 APERTURE LIST*
%TA.AperFunction,ComponentPad*%
%ADD10R,1.600000X1.600000*%
%TD*%
%TA.AperFunction,ComponentPad*%
%ADD11O,1.600000X1.600000*%
%TD*%
%TA.AperFunction,ComponentPad*%
%ADD12C,1.524000*%
%TD*%
%TA.AperFunction,ComponentPad*%
%ADD13C,4.000000*%
%TD*%
%TA.AperFunction,ComponentPad*%
%ADD14C,1.600000*%
%TD*%
%TA.AperFunction,ComponentPad*%
%ADD15O,1.700000X1.700000*%
%TD*%
%TA.AperFunction,ComponentPad*%
%ADD16R,1.700000X1.700000*%
%TD*%
%TA.AperFunction,ComponentPad*%
%ADD17C,2.000000*%
%TD*%
%TA.AperFunction,ComponentPad*%
%ADD18C,1.800000*%
%TD*%
%TA.AperFunction,ViaPad*%
%ADD19C,0.800000*%
%TD*%
%TA.AperFunction,Conductor*%
%ADD20C,0.254000*%
%TD*%
%TA.AperFunction,Conductor*%
%ADD21C,0.100000*%
%TD*%
G04 APERTURE END LIST*
D10*
%TO.N,RS485_TX*%
%TO.C,A1*%
X160020000Y-104140000D03*
D11*
%TO.N,Net-(A1-Pad17)*%
X175260000Y-71120000D03*
%TO.N,RS485_RX*%
X160020000Y-101600000D03*
%TO.N,Net-(A1-Pad18)*%
X175260000Y-73660000D03*
%TO.N,Net-(A1-Pad3)*%
X160020000Y-99060000D03*
%TO.N,Net-(A1-Pad19)*%
X175260000Y-76200000D03*
%TO.N,GND*%
X160020000Y-96520000D03*
%TO.N,Net-(A1-Pad20)*%
X175260000Y-78740000D03*
%TO.N,RS485_TX_ENABLE*%
X160020000Y-93980000D03*
%TO.N,Net-(A1-Pad21)*%
X175260000Y-81280000D03*
%TO.N,RS485_RX_ENABLE*%
X160020000Y-91440000D03*
%TO.N,Net-(A1-Pad22)*%
X175260000Y-83820000D03*
%TO.N,LEARN_BUTTON_IN*%
X160020000Y-88900000D03*
%TO.N,Net-(A1-Pad23)*%
X175260000Y-86360000D03*
%TO.N,Net-(A1-Pad8)*%
X160020000Y-86360000D03*
%TO.N,Net-(A1-Pad24)*%
X175260000Y-88900000D03*
%TO.N,Net-(A1-Pad9)*%
X160020000Y-83820000D03*
%TO.N,Net-(A1-Pad25)*%
X175260000Y-91440000D03*
%TO.N,IR_OUT*%
X160020000Y-81280000D03*
%TO.N,Net-(A1-Pad26)*%
X175260000Y-93980000D03*
%TO.N,RES*%
X160020000Y-78740000D03*
%TO.N,Net-(A1-Pad27)*%
X175260000Y-96520000D03*
%TO.N,CS*%
X160020000Y-76200000D03*
%TO.N,Net-(A1-Pad28)*%
X175260000Y-99060000D03*
%TO.N,DC*%
X160020000Y-73660000D03*
%TO.N,GND*%
X175260000Y-101600000D03*
%TO.N,MOSI*%
X160020000Y-71120000D03*
%TO.N,VCC*%
X175260000Y-104140000D03*
%TO.N,Net-(A1-Pad15)*%
X160020000Y-68580000D03*
%TO.N,SCK*%
X175260000Y-68580000D03*
%TD*%
D12*
%TO.N,GND*%
%TO.C,U2*%
X163830000Y-107950000D03*
%TO.N,AB+*%
X166370000Y-107950000D03*
%TO.N,AB-*%
X168910000Y-107950000D03*
%TO.N,VCC*%
X171450000Y-107950000D03*
%TO.N,RS485_TX*%
X163830000Y-66040000D03*
%TO.N,RS485_TX_ENABLE*%
X166370000Y-66040000D03*
%TO.N,RS485_RX_ENABLE*%
X168910000Y-66040000D03*
%TO.N,RS485_RX*%
X171450000Y-66040000D03*
%TD*%
D13*
%TO.N,N/C*%
%TO.C,J1*%
X179330000Y-128570000D03*
X154330000Y-128570000D03*
D14*
%TO.N,GND*%
X170985000Y-131110000D03*
%TO.N,YZ-*%
X168215000Y-131110000D03*
%TO.N,AB-*%
X165445000Y-131110000D03*
%TO.N,GND*%
X162675000Y-131110000D03*
%TO.N,VCC*%
X172370000Y-128270000D03*
%TO.N,GND*%
X169600000Y-128270000D03*
%TO.N,YZ+*%
X166830000Y-128270000D03*
%TO.N,AB+*%
X164060000Y-128270000D03*
D10*
%TO.N,GND*%
X161290000Y-128270000D03*
%TD*%
D15*
%TO.N,GND*%
%TO.C,D5*%
X153670000Y-63500000D03*
%TO.N,VCC*%
X153670000Y-66040000D03*
%TO.N,SCK*%
X153670000Y-68580000D03*
%TO.N,MOSI*%
X153670000Y-71120000D03*
%TO.N,RES*%
X153670000Y-73660000D03*
%TO.N,DC*%
X153670000Y-76200000D03*
D16*
%TO.N,CS*%
X153670000Y-78740000D03*
%TD*%
D17*
%TO.N,GND*%
%TO.C,SW1*%
X175260000Y-58570000D03*
%TO.N,LEARN_BUTTON_IN*%
X170760000Y-58570000D03*
%TO.N,GND*%
X175260000Y-52070000D03*
%TO.N,LEARN_BUTTON_IN*%
X170760000Y-52070000D03*
%TD*%
D18*
%TO.N,VCC*%
%TO.C,U1*%
X160020000Y-55880000D03*
%TO.N,GND*%
X162560000Y-55880000D03*
%TO.N,IR_OUT*%
%TA.AperFunction,ComponentPad*%
G36*
G01*
X166000000Y-55228400D02*
X166000000Y-56531600D01*
G75*
G02*
X165751600Y-56780000I-248400J0D01*
G01*
X164448400Y-56780000D01*
G75*
G02*
X164200000Y-56531600I0J248400D01*
G01*
X164200000Y-55228400D01*
G75*
G02*
X164448400Y-54980000I248400J0D01*
G01*
X165751600Y-54980000D01*
G75*
G02*
X166000000Y-55228400I0J-248400D01*
G01*
G37*
%TD.AperFunction*%
%TD*%
D19*
%TO.N,GND*%
X173990000Y-124460000D03*
%TO.N,VCC*%
X173990000Y-116840000D03*
%TO.N,RS485_TX_ENABLE*%
X162560000Y-92710000D03*
X166370000Y-73660000D03*
%TO.N,RS485_RX_ENABLE*%
X162560000Y-90170000D03*
%TO.N,SCK*%
X157480000Y-68580000D03*
X177800000Y-68580000D03*
%TO.N,RS485_RX_ENABLE*%
X168910000Y-71120000D03*
%TD*%
D20*
%TO.N,GND*%
X182295276Y-50303662D02*
X182455395Y-50517555D01*
X182583444Y-50752060D01*
X182676819Y-51002407D01*
X182733615Y-51263496D01*
X182753000Y-51534530D01*
X182753000Y-132615470D01*
X182733615Y-132886504D01*
X182676819Y-133147593D01*
X182583444Y-133397940D01*
X182455395Y-133632445D01*
X182295276Y-133846338D01*
X182106338Y-134035276D01*
X181892445Y-134195395D01*
X181657940Y-134323444D01*
X181407593Y-134416819D01*
X181146504Y-134473615D01*
X180875470Y-134493000D01*
X153134530Y-134493000D01*
X152863496Y-134473615D01*
X152602407Y-134416819D01*
X152352060Y-134323444D01*
X152117555Y-134195395D01*
X151903662Y-134035276D01*
X151714724Y-133846338D01*
X151554605Y-133632445D01*
X151426556Y-133397940D01*
X151333181Y-133147593D01*
X151276385Y-132886504D01*
X151257000Y-132615470D01*
X151257000Y-132102702D01*
X161861903Y-132102702D01*
X161933486Y-132346671D01*
X162188996Y-132467571D01*
X162463184Y-132536300D01*
X162745512Y-132550217D01*
X163025130Y-132508787D01*
X163291292Y-132413603D01*
X163416514Y-132346671D01*
X163488097Y-132102702D01*
X162675000Y-131289605D01*
X161861903Y-132102702D01*
X151257000Y-132102702D01*
X151257000Y-128310475D01*
X151695000Y-128310475D01*
X151695000Y-128829525D01*
X151796261Y-129338601D01*
X151994893Y-129818141D01*
X152283262Y-130249715D01*
X152650285Y-130616738D01*
X153081859Y-130905107D01*
X153561399Y-131103739D01*
X154070475Y-131205000D01*
X154589525Y-131205000D01*
X154712635Y-131180512D01*
X161234783Y-131180512D01*
X161276213Y-131460130D01*
X161371397Y-131726292D01*
X161438329Y-131851514D01*
X161682298Y-131923097D01*
X162495395Y-131110000D01*
X162854605Y-131110000D01*
X163667702Y-131923097D01*
X163911671Y-131851514D01*
X164032571Y-131596004D01*
X164058212Y-131493711D01*
X164065147Y-131528574D01*
X164173320Y-131789727D01*
X164330363Y-132024759D01*
X164530241Y-132224637D01*
X164765273Y-132381680D01*
X165026426Y-132489853D01*
X165303665Y-132545000D01*
X165586335Y-132545000D01*
X165863574Y-132489853D01*
X166124727Y-132381680D01*
X166359759Y-132224637D01*
X166559637Y-132024759D01*
X166716680Y-131789727D01*
X166824853Y-131528574D01*
X166830000Y-131502699D01*
X166835147Y-131528574D01*
X166943320Y-131789727D01*
X167100363Y-132024759D01*
X167300241Y-132224637D01*
X167535273Y-132381680D01*
X167796426Y-132489853D01*
X168073665Y-132545000D01*
X168356335Y-132545000D01*
X168633574Y-132489853D01*
X168894727Y-132381680D01*
X169129759Y-132224637D01*
X169251694Y-132102702D01*
X170171903Y-132102702D01*
X170243486Y-132346671D01*
X170498996Y-132467571D01*
X170773184Y-132536300D01*
X171055512Y-132550217D01*
X171335130Y-132508787D01*
X171601292Y-132413603D01*
X171726514Y-132346671D01*
X171798097Y-132102702D01*
X170985000Y-131289605D01*
X170171903Y-132102702D01*
X169251694Y-132102702D01*
X169329637Y-132024759D01*
X169486680Y-131789727D01*
X169594853Y-131528574D01*
X169600513Y-131500118D01*
X169681397Y-131726292D01*
X169748329Y-131851514D01*
X169992298Y-131923097D01*
X170805395Y-131110000D01*
X171164605Y-131110000D01*
X171977702Y-131923097D01*
X172221671Y-131851514D01*
X172342571Y-131596004D01*
X172411300Y-131321816D01*
X172425217Y-131039488D01*
X172383787Y-130759870D01*
X172288603Y-130493708D01*
X172221671Y-130368486D01*
X171977702Y-130296903D01*
X171164605Y-131110000D01*
X170805395Y-131110000D01*
X169992298Y-130296903D01*
X169748329Y-130368486D01*
X169627429Y-130623996D01*
X169601788Y-130726289D01*
X169594853Y-130691426D01*
X169486680Y-130430273D01*
X169329637Y-130195241D01*
X169251694Y-130117298D01*
X170171903Y-130117298D01*
X170985000Y-130930395D01*
X171798097Y-130117298D01*
X171726514Y-129873329D01*
X171471004Y-129752429D01*
X171196816Y-129683700D01*
X170914488Y-129669783D01*
X170634870Y-129711213D01*
X170368708Y-129806397D01*
X170243486Y-129873329D01*
X170171903Y-130117298D01*
X169251694Y-130117298D01*
X169129759Y-129995363D01*
X168894727Y-129838320D01*
X168633574Y-129730147D01*
X168356335Y-129675000D01*
X168073665Y-129675000D01*
X167796426Y-129730147D01*
X167535273Y-129838320D01*
X167300241Y-129995363D01*
X167100363Y-130195241D01*
X166943320Y-130430273D01*
X166835147Y-130691426D01*
X166830000Y-130717301D01*
X166824853Y-130691426D01*
X166716680Y-130430273D01*
X166559637Y-130195241D01*
X166359759Y-129995363D01*
X166124727Y-129838320D01*
X165863574Y-129730147D01*
X165586335Y-129675000D01*
X165303665Y-129675000D01*
X165026426Y-129730147D01*
X164765273Y-129838320D01*
X164530241Y-129995363D01*
X164330363Y-130195241D01*
X164173320Y-130430273D01*
X164065147Y-130691426D01*
X164059487Y-130719882D01*
X163978603Y-130493708D01*
X163911671Y-130368486D01*
X163667702Y-130296903D01*
X162854605Y-131110000D01*
X162495395Y-131110000D01*
X161682298Y-130296903D01*
X161438329Y-130368486D01*
X161317429Y-130623996D01*
X161248700Y-130898184D01*
X161234783Y-131180512D01*
X154712635Y-131180512D01*
X155098601Y-131103739D01*
X155578141Y-130905107D01*
X156009715Y-130616738D01*
X156376738Y-130249715D01*
X156465216Y-130117298D01*
X161861903Y-130117298D01*
X162675000Y-130930395D01*
X163488097Y-130117298D01*
X163416514Y-129873329D01*
X163161004Y-129752429D01*
X162886816Y-129683700D01*
X162604488Y-129669783D01*
X162324870Y-129711213D01*
X162058708Y-129806397D01*
X161933486Y-129873329D01*
X161861903Y-130117298D01*
X156465216Y-130117298D01*
X156665107Y-129818141D01*
X156863739Y-129338601D01*
X156917166Y-129070000D01*
X159851928Y-129070000D01*
X159864188Y-129194482D01*
X159900498Y-129314180D01*
X159959463Y-129424494D01*
X160038815Y-129521185D01*
X160135506Y-129600537D01*
X160245820Y-129659502D01*
X160365518Y-129695812D01*
X160490000Y-129708072D01*
X161004250Y-129705000D01*
X161163000Y-129546250D01*
X161163000Y-128397000D01*
X160013750Y-128397000D01*
X159855000Y-128555750D01*
X159851928Y-129070000D01*
X156917166Y-129070000D01*
X156965000Y-128829525D01*
X156965000Y-128310475D01*
X156863739Y-127801399D01*
X156726470Y-127470000D01*
X159851928Y-127470000D01*
X159855000Y-127984250D01*
X160013750Y-128143000D01*
X161163000Y-128143000D01*
X161163000Y-126993750D01*
X161417000Y-126993750D01*
X161417000Y-128143000D01*
X161437000Y-128143000D01*
X161437000Y-128397000D01*
X161417000Y-128397000D01*
X161417000Y-129546250D01*
X161575750Y-129705000D01*
X162090000Y-129708072D01*
X162214482Y-129695812D01*
X162334180Y-129659502D01*
X162444494Y-129600537D01*
X162541185Y-129521185D01*
X162620537Y-129424494D01*
X162679502Y-129314180D01*
X162715812Y-129194482D01*
X162728072Y-129070000D01*
X162726461Y-128800387D01*
X162788320Y-128949727D01*
X162945363Y-129184759D01*
X163145241Y-129384637D01*
X163380273Y-129541680D01*
X163641426Y-129649853D01*
X163918665Y-129705000D01*
X164201335Y-129705000D01*
X164478574Y-129649853D01*
X164739727Y-129541680D01*
X164974759Y-129384637D01*
X165174637Y-129184759D01*
X165331680Y-128949727D01*
X165439853Y-128688574D01*
X165445000Y-128662699D01*
X165450147Y-128688574D01*
X165558320Y-128949727D01*
X165715363Y-129184759D01*
X165915241Y-129384637D01*
X166150273Y-129541680D01*
X166411426Y-129649853D01*
X166688665Y-129705000D01*
X166971335Y-129705000D01*
X167248574Y-129649853D01*
X167509727Y-129541680D01*
X167744759Y-129384637D01*
X167866694Y-129262702D01*
X168786903Y-129262702D01*
X168858486Y-129506671D01*
X169113996Y-129627571D01*
X169388184Y-129696300D01*
X169670512Y-129710217D01*
X169950130Y-129668787D01*
X170216292Y-129573603D01*
X170341514Y-129506671D01*
X170413097Y-129262702D01*
X169600000Y-128449605D01*
X168786903Y-129262702D01*
X167866694Y-129262702D01*
X167944637Y-129184759D01*
X168101680Y-128949727D01*
X168209853Y-128688574D01*
X168215513Y-128660118D01*
X168296397Y-128886292D01*
X168363329Y-129011514D01*
X168607298Y-129083097D01*
X169420395Y-128270000D01*
X169779605Y-128270000D01*
X170592702Y-129083097D01*
X170836671Y-129011514D01*
X170957571Y-128756004D01*
X170983212Y-128653711D01*
X170990147Y-128688574D01*
X171098320Y-128949727D01*
X171255363Y-129184759D01*
X171455241Y-129384637D01*
X171690273Y-129541680D01*
X171951426Y-129649853D01*
X172228665Y-129705000D01*
X172511335Y-129705000D01*
X172788574Y-129649853D01*
X173049727Y-129541680D01*
X173284759Y-129384637D01*
X173484637Y-129184759D01*
X173641680Y-128949727D01*
X173749853Y-128688574D01*
X173805000Y-128411335D01*
X173805000Y-128310475D01*
X176695000Y-128310475D01*
X176695000Y-128829525D01*
X176796261Y-129338601D01*
X176994893Y-129818141D01*
X177283262Y-130249715D01*
X177650285Y-130616738D01*
X178081859Y-130905107D01*
X178561399Y-131103739D01*
X179070475Y-131205000D01*
X179589525Y-131205000D01*
X180098601Y-131103739D01*
X180578141Y-130905107D01*
X181009715Y-130616738D01*
X181376738Y-130249715D01*
X181665107Y-129818141D01*
X181863739Y-129338601D01*
X181965000Y-128829525D01*
X181965000Y-128310475D01*
X181863739Y-127801399D01*
X181665107Y-127321859D01*
X181376738Y-126890285D01*
X181009715Y-126523262D01*
X180578141Y-126234893D01*
X180098601Y-126036261D01*
X179589525Y-125935000D01*
X179070475Y-125935000D01*
X178561399Y-126036261D01*
X178081859Y-126234893D01*
X177650285Y-126523262D01*
X177283262Y-126890285D01*
X176994893Y-127321859D01*
X176796261Y-127801399D01*
X176695000Y-128310475D01*
X173805000Y-128310475D01*
X173805000Y-128128665D01*
X173749853Y-127851426D01*
X173641680Y-127590273D01*
X173484637Y-127355241D01*
X173284759Y-127155363D01*
X173049727Y-126998320D01*
X172788574Y-126890147D01*
X172511335Y-126835000D01*
X172228665Y-126835000D01*
X171951426Y-126890147D01*
X171690273Y-126998320D01*
X171455241Y-127155363D01*
X171255363Y-127355241D01*
X171098320Y-127590273D01*
X170990147Y-127851426D01*
X170984487Y-127879882D01*
X170903603Y-127653708D01*
X170836671Y-127528486D01*
X170592702Y-127456903D01*
X169779605Y-128270000D01*
X169420395Y-128270000D01*
X168607298Y-127456903D01*
X168363329Y-127528486D01*
X168242429Y-127783996D01*
X168216788Y-127886289D01*
X168209853Y-127851426D01*
X168101680Y-127590273D01*
X167944637Y-127355241D01*
X167866694Y-127277298D01*
X168786903Y-127277298D01*
X169600000Y-128090395D01*
X170413097Y-127277298D01*
X170341514Y-127033329D01*
X170086004Y-126912429D01*
X169811816Y-126843700D01*
X169529488Y-126829783D01*
X169249870Y-126871213D01*
X168983708Y-126966397D01*
X168858486Y-127033329D01*
X168786903Y-127277298D01*
X167866694Y-127277298D01*
X167744759Y-127155363D01*
X167509727Y-126998320D01*
X167248574Y-126890147D01*
X166971335Y-126835000D01*
X166688665Y-126835000D01*
X166411426Y-126890147D01*
X166150273Y-126998320D01*
X165915241Y-127155363D01*
X165715363Y-127355241D01*
X165558320Y-127590273D01*
X165450147Y-127851426D01*
X165445000Y-127877301D01*
X165439853Y-127851426D01*
X165331680Y-127590273D01*
X165174637Y-127355241D01*
X164974759Y-127155363D01*
X164739727Y-126998320D01*
X164478574Y-126890147D01*
X164201335Y-126835000D01*
X163918665Y-126835000D01*
X163641426Y-126890147D01*
X163380273Y-126998320D01*
X163145241Y-127155363D01*
X162945363Y-127355241D01*
X162788320Y-127590273D01*
X162726461Y-127739613D01*
X162728072Y-127470000D01*
X162715812Y-127345518D01*
X162679502Y-127225820D01*
X162620537Y-127115506D01*
X162541185Y-127018815D01*
X162444494Y-126939463D01*
X162334180Y-126880498D01*
X162214482Y-126844188D01*
X162090000Y-126831928D01*
X161575750Y-126835000D01*
X161417000Y-126993750D01*
X161163000Y-126993750D01*
X161004250Y-126835000D01*
X160490000Y-126831928D01*
X160365518Y-126844188D01*
X160245820Y-126880498D01*
X160135506Y-126939463D01*
X160038815Y-127018815D01*
X159959463Y-127115506D01*
X159900498Y-127225820D01*
X159864188Y-127345518D01*
X159851928Y-127470000D01*
X156726470Y-127470000D01*
X156665107Y-127321859D01*
X156376738Y-126890285D01*
X156009715Y-126523262D01*
X155578141Y-126234893D01*
X155098601Y-126036261D01*
X154589525Y-125935000D01*
X154070475Y-125935000D01*
X153561399Y-126036261D01*
X153081859Y-126234893D01*
X152650285Y-126523262D01*
X152283262Y-126890285D01*
X151994893Y-127321859D01*
X151796261Y-127801399D01*
X151695000Y-128310475D01*
X151257000Y-128310475D01*
X151257000Y-121749117D01*
X151935000Y-121749117D01*
X151935000Y-122090883D01*
X152001675Y-122426081D01*
X152132463Y-122741831D01*
X152322337Y-123025998D01*
X152564002Y-123267663D01*
X152848169Y-123457537D01*
X153163919Y-123588325D01*
X153499117Y-123655000D01*
X153840883Y-123655000D01*
X154176081Y-123588325D01*
X154491831Y-123457537D01*
X154775998Y-123267663D01*
X155017663Y-123025998D01*
X155207537Y-122741831D01*
X155338325Y-122426081D01*
X155405000Y-122090883D01*
X155405000Y-121749117D01*
X178605000Y-121749117D01*
X178605000Y-122090883D01*
X178671675Y-122426081D01*
X178802463Y-122741831D01*
X178992337Y-123025998D01*
X179234002Y-123267663D01*
X179518169Y-123457537D01*
X179833919Y-123588325D01*
X180169117Y-123655000D01*
X180510883Y-123655000D01*
X180846081Y-123588325D01*
X181161831Y-123457537D01*
X181445998Y-123267663D01*
X181687663Y-123025998D01*
X181877537Y-122741831D01*
X182008325Y-122426081D01*
X182075000Y-122090883D01*
X182075000Y-121749117D01*
X182008325Y-121413919D01*
X181877537Y-121098169D01*
X181687663Y-120814002D01*
X181445998Y-120572337D01*
X181161831Y-120382463D01*
X180846081Y-120251675D01*
X180510883Y-120185000D01*
X180169117Y-120185000D01*
X179833919Y-120251675D01*
X179518169Y-120382463D01*
X179234002Y-120572337D01*
X178992337Y-120814002D01*
X178802463Y-121098169D01*
X178671675Y-121413919D01*
X178605000Y-121749117D01*
X155405000Y-121749117D01*
X155338325Y-121413919D01*
X155207537Y-121098169D01*
X155017663Y-120814002D01*
X154775998Y-120572337D01*
X154491831Y-120382463D01*
X154176081Y-120251675D01*
X153840883Y-120185000D01*
X153499117Y-120185000D01*
X153163919Y-120251675D01*
X152848169Y-120382463D01*
X152564002Y-120572337D01*
X152322337Y-120814002D01*
X152132463Y-121098169D01*
X152001675Y-121413919D01*
X151935000Y-121749117D01*
X151257000Y-121749117D01*
X151257000Y-116738061D01*
X172955000Y-116738061D01*
X172955000Y-116941939D01*
X172994774Y-117141898D01*
X173072795Y-117330256D01*
X173186063Y-117499774D01*
X173330226Y-117643937D01*
X173499744Y-117757205D01*
X173688102Y-117835226D01*
X173888061Y-117875000D01*
X174091939Y-117875000D01*
X174291898Y-117835226D01*
X174480256Y-117757205D01*
X174649774Y-117643937D01*
X174793937Y-117499774D01*
X174907205Y-117330256D01*
X174985226Y-117141898D01*
X175025000Y-116941939D01*
X175025000Y-116738061D01*
X174985226Y-116538102D01*
X174907205Y-116349744D01*
X174793937Y-116180226D01*
X174649774Y-116036063D01*
X174480256Y-115922795D01*
X174291898Y-115844774D01*
X174091939Y-115805000D01*
X173888061Y-115805000D01*
X173688102Y-115844774D01*
X173499744Y-115922795D01*
X173330226Y-116036063D01*
X173186063Y-116180226D01*
X173072795Y-116349744D01*
X172994774Y-116538102D01*
X172955000Y-116738061D01*
X151257000Y-116738061D01*
X151257000Y-108915565D01*
X163044040Y-108915565D01*
X163111020Y-109155656D01*
X163360048Y-109272756D01*
X163627135Y-109339023D01*
X163902017Y-109351910D01*
X164174133Y-109310922D01*
X164433023Y-109217636D01*
X164548980Y-109155656D01*
X164615960Y-108915565D01*
X163830000Y-108129605D01*
X163044040Y-108915565D01*
X151257000Y-108915565D01*
X151257000Y-108022017D01*
X162428090Y-108022017D01*
X162469078Y-108294133D01*
X162562364Y-108553023D01*
X162624344Y-108668980D01*
X162864435Y-108735960D01*
X163650395Y-107950000D01*
X164009605Y-107950000D01*
X164795565Y-108735960D01*
X165035656Y-108668980D01*
X165099485Y-108533240D01*
X165131995Y-108611727D01*
X165284880Y-108840535D01*
X165479465Y-109035120D01*
X165708273Y-109188005D01*
X165962510Y-109293314D01*
X166232408Y-109347000D01*
X166507592Y-109347000D01*
X166777490Y-109293314D01*
X167031727Y-109188005D01*
X167260535Y-109035120D01*
X167455120Y-108840535D01*
X167608005Y-108611727D01*
X167640000Y-108534485D01*
X167671995Y-108611727D01*
X167824880Y-108840535D01*
X168019465Y-109035120D01*
X168248273Y-109188005D01*
X168502510Y-109293314D01*
X168772408Y-109347000D01*
X169047592Y-109347000D01*
X169317490Y-109293314D01*
X169571727Y-109188005D01*
X169800535Y-109035120D01*
X169995120Y-108840535D01*
X170148005Y-108611727D01*
X170180000Y-108534485D01*
X170211995Y-108611727D01*
X170364880Y-108840535D01*
X170559465Y-109035120D01*
X170788273Y-109188005D01*
X171042510Y-109293314D01*
X171312408Y-109347000D01*
X171587592Y-109347000D01*
X171857490Y-109293314D01*
X172111727Y-109188005D01*
X172340535Y-109035120D01*
X172535120Y-108840535D01*
X172688005Y-108611727D01*
X172793314Y-108357490D01*
X172847000Y-108087592D01*
X172847000Y-107812408D01*
X172793314Y-107542510D01*
X172688005Y-107288273D01*
X172535120Y-107059465D01*
X172340535Y-106864880D01*
X172111727Y-106711995D01*
X171857490Y-106606686D01*
X171587592Y-106553000D01*
X171312408Y-106553000D01*
X171042510Y-106606686D01*
X170788273Y-106711995D01*
X170559465Y-106864880D01*
X170364880Y-107059465D01*
X170211995Y-107288273D01*
X170180000Y-107365515D01*
X170148005Y-107288273D01*
X169995120Y-107059465D01*
X169800535Y-106864880D01*
X169571727Y-106711995D01*
X169317490Y-106606686D01*
X169047592Y-106553000D01*
X168772408Y-106553000D01*
X168502510Y-106606686D01*
X168248273Y-106711995D01*
X168019465Y-106864880D01*
X167824880Y-107059465D01*
X167671995Y-107288273D01*
X167640000Y-107365515D01*
X167608005Y-107288273D01*
X167455120Y-107059465D01*
X167260535Y-106864880D01*
X167031727Y-106711995D01*
X166777490Y-106606686D01*
X166507592Y-106553000D01*
X166232408Y-106553000D01*
X165962510Y-106606686D01*
X165708273Y-106711995D01*
X165479465Y-106864880D01*
X165284880Y-107059465D01*
X165131995Y-107288273D01*
X165102308Y-107359943D01*
X165097636Y-107346977D01*
X165035656Y-107231020D01*
X164795565Y-107164040D01*
X164009605Y-107950000D01*
X163650395Y-107950000D01*
X162864435Y-107164040D01*
X162624344Y-107231020D01*
X162507244Y-107480048D01*
X162440977Y-107747135D01*
X162428090Y-108022017D01*
X151257000Y-108022017D01*
X151257000Y-106984435D01*
X163044040Y-106984435D01*
X163830000Y-107770395D01*
X164615960Y-106984435D01*
X164548980Y-106744344D01*
X164299952Y-106627244D01*
X164032865Y-106560977D01*
X163757983Y-106548090D01*
X163485867Y-106589078D01*
X163226977Y-106682364D01*
X163111020Y-106744344D01*
X163044040Y-106984435D01*
X151257000Y-106984435D01*
X151257000Y-103340000D01*
X158581928Y-103340000D01*
X158581928Y-104940000D01*
X158594188Y-105064482D01*
X158630498Y-105184180D01*
X158689463Y-105294494D01*
X158768815Y-105391185D01*
X158865506Y-105470537D01*
X158975820Y-105529502D01*
X159095518Y-105565812D01*
X159220000Y-105578072D01*
X160820000Y-105578072D01*
X160944482Y-105565812D01*
X161064180Y-105529502D01*
X161174494Y-105470537D01*
X161271185Y-105391185D01*
X161350537Y-105294494D01*
X161409502Y-105184180D01*
X161445812Y-105064482D01*
X161458072Y-104940000D01*
X161458072Y-103998665D01*
X173825000Y-103998665D01*
X173825000Y-104281335D01*
X173880147Y-104558574D01*
X173988320Y-104819727D01*
X174145363Y-105054759D01*
X174345241Y-105254637D01*
X174580273Y-105411680D01*
X174841426Y-105519853D01*
X175118665Y-105575000D01*
X175401335Y-105575000D01*
X175678574Y-105519853D01*
X175939727Y-105411680D01*
X176174759Y-105254637D01*
X176374637Y-105054759D01*
X176531680Y-104819727D01*
X176639853Y-104558574D01*
X176695000Y-104281335D01*
X176695000Y-103998665D01*
X176639853Y-103721426D01*
X176531680Y-103460273D01*
X176374637Y-103225241D01*
X176174759Y-103025363D01*
X175939727Y-102868320D01*
X175929135Y-102863933D01*
X176115131Y-102752385D01*
X176323519Y-102563414D01*
X176491037Y-102337420D01*
X176611246Y-102083087D01*
X176651904Y-101949039D01*
X176529915Y-101727000D01*
X175387000Y-101727000D01*
X175387000Y-101747000D01*
X175133000Y-101747000D01*
X175133000Y-101727000D01*
X173990085Y-101727000D01*
X173868096Y-101949039D01*
X173908754Y-102083087D01*
X174028963Y-102337420D01*
X174196481Y-102563414D01*
X174404869Y-102752385D01*
X174590865Y-102863933D01*
X174580273Y-102868320D01*
X174345241Y-103025363D01*
X174145363Y-103225241D01*
X173988320Y-103460273D01*
X173880147Y-103721426D01*
X173825000Y-103998665D01*
X161458072Y-103998665D01*
X161458072Y-103340000D01*
X161445812Y-103215518D01*
X161409502Y-103095820D01*
X161350537Y-102985506D01*
X161271185Y-102888815D01*
X161174494Y-102809463D01*
X161064180Y-102750498D01*
X160944482Y-102714188D01*
X160936039Y-102713357D01*
X161134637Y-102514759D01*
X161291680Y-102279727D01*
X161399853Y-102018574D01*
X161455000Y-101741335D01*
X161455000Y-101458665D01*
X161399853Y-101181426D01*
X161291680Y-100920273D01*
X161134637Y-100685241D01*
X160934759Y-100485363D01*
X160702241Y-100330000D01*
X160934759Y-100174637D01*
X161134637Y-99974759D01*
X161291680Y-99739727D01*
X161399853Y-99478574D01*
X161455000Y-99201335D01*
X161455000Y-98918665D01*
X161399853Y-98641426D01*
X161291680Y-98380273D01*
X161134637Y-98145241D01*
X160934759Y-97945363D01*
X160699727Y-97788320D01*
X160689135Y-97783933D01*
X160875131Y-97672385D01*
X161083519Y-97483414D01*
X161251037Y-97257420D01*
X161371246Y-97003087D01*
X161411904Y-96869039D01*
X161289915Y-96647000D01*
X160147000Y-96647000D01*
X160147000Y-96667000D01*
X159893000Y-96667000D01*
X159893000Y-96647000D01*
X158750085Y-96647000D01*
X158628096Y-96869039D01*
X158668754Y-97003087D01*
X158788963Y-97257420D01*
X158956481Y-97483414D01*
X159164869Y-97672385D01*
X159350865Y-97783933D01*
X159340273Y-97788320D01*
X159105241Y-97945363D01*
X158905363Y-98145241D01*
X158748320Y-98380273D01*
X158640147Y-98641426D01*
X158585000Y-98918665D01*
X158585000Y-99201335D01*
X158640147Y-99478574D01*
X158748320Y-99739727D01*
X158905363Y-99974759D01*
X159105241Y-100174637D01*
X159337759Y-100330000D01*
X159105241Y-100485363D01*
X158905363Y-100685241D01*
X158748320Y-100920273D01*
X158640147Y-101181426D01*
X158585000Y-101458665D01*
X158585000Y-101741335D01*
X158640147Y-102018574D01*
X158748320Y-102279727D01*
X158905363Y-102514759D01*
X159103961Y-102713357D01*
X159095518Y-102714188D01*
X158975820Y-102750498D01*
X158865506Y-102809463D01*
X158768815Y-102888815D01*
X158689463Y-102985506D01*
X158630498Y-103095820D01*
X158594188Y-103215518D01*
X158581928Y-103340000D01*
X151257000Y-103340000D01*
X151257000Y-77890000D01*
X152181928Y-77890000D01*
X152181928Y-79590000D01*
X152194188Y-79714482D01*
X152230498Y-79834180D01*
X152289463Y-79944494D01*
X152368815Y-80041185D01*
X152465506Y-80120537D01*
X152575820Y-80179502D01*
X152695518Y-80215812D01*
X152820000Y-80228072D01*
X154520000Y-80228072D01*
X154644482Y-80215812D01*
X154764180Y-80179502D01*
X154874494Y-80120537D01*
X154971185Y-80041185D01*
X155050537Y-79944494D01*
X155109502Y-79834180D01*
X155145812Y-79714482D01*
X155158072Y-79590000D01*
X155158072Y-77890000D01*
X155145812Y-77765518D01*
X155109502Y-77645820D01*
X155050537Y-77535506D01*
X154971185Y-77438815D01*
X154874494Y-77359463D01*
X154764180Y-77300498D01*
X154691620Y-77278487D01*
X154823475Y-77146632D01*
X154985990Y-76903411D01*
X155097932Y-76633158D01*
X155155000Y-76346260D01*
X155155000Y-76053740D01*
X155097932Y-75766842D01*
X154985990Y-75496589D01*
X154823475Y-75253368D01*
X154616632Y-75046525D01*
X154442240Y-74930000D01*
X154616632Y-74813475D01*
X154823475Y-74606632D01*
X154985990Y-74363411D01*
X155097932Y-74093158D01*
X155155000Y-73806260D01*
X155155000Y-73513740D01*
X155097932Y-73226842D01*
X154985990Y-72956589D01*
X154823475Y-72713368D01*
X154616632Y-72506525D01*
X154442240Y-72390000D01*
X154616632Y-72273475D01*
X154823475Y-72066632D01*
X154985990Y-71823411D01*
X155097932Y-71553158D01*
X155155000Y-71266260D01*
X155155000Y-70973740D01*
X155097932Y-70686842D01*
X154985990Y-70416589D01*
X154823475Y-70173368D01*
X154616632Y-69966525D01*
X154442240Y-69850000D01*
X154616632Y-69733475D01*
X154823475Y-69526632D01*
X154985990Y-69283411D01*
X155097932Y-69013158D01*
X155155000Y-68726260D01*
X155155000Y-68478061D01*
X156445000Y-68478061D01*
X156445000Y-68681939D01*
X156484774Y-68881898D01*
X156562795Y-69070256D01*
X156676063Y-69239774D01*
X156820226Y-69383937D01*
X156989744Y-69497205D01*
X157178102Y-69575226D01*
X157378061Y-69615000D01*
X157581939Y-69615000D01*
X157781898Y-69575226D01*
X157970256Y-69497205D01*
X158139774Y-69383937D01*
X158283937Y-69239774D01*
X158397205Y-69070256D01*
X158475226Y-68881898D01*
X158515000Y-68681939D01*
X158515000Y-68478061D01*
X158507164Y-68438665D01*
X158585000Y-68438665D01*
X158585000Y-68721335D01*
X158640147Y-68998574D01*
X158748320Y-69259727D01*
X158905363Y-69494759D01*
X159105241Y-69694637D01*
X159337759Y-69850000D01*
X159105241Y-70005363D01*
X158905363Y-70205241D01*
X158748320Y-70440273D01*
X158640147Y-70701426D01*
X158585000Y-70978665D01*
X158585000Y-71261335D01*
X158640147Y-71538574D01*
X158748320Y-71799727D01*
X158905363Y-72034759D01*
X159105241Y-72234637D01*
X159337759Y-72390000D01*
X159105241Y-72545363D01*
X158905363Y-72745241D01*
X158748320Y-72980273D01*
X158640147Y-73241426D01*
X158585000Y-73518665D01*
X158585000Y-73801335D01*
X158640147Y-74078574D01*
X158748320Y-74339727D01*
X158905363Y-74574759D01*
X159105241Y-74774637D01*
X159337759Y-74930000D01*
X159105241Y-75085363D01*
X158905363Y-75285241D01*
X158748320Y-75520273D01*
X158640147Y-75781426D01*
X158585000Y-76058665D01*
X158585000Y-76341335D01*
X158640147Y-76618574D01*
X158748320Y-76879727D01*
X158905363Y-77114759D01*
X159105241Y-77314637D01*
X159337759Y-77470000D01*
X159105241Y-77625363D01*
X158905363Y-77825241D01*
X158748320Y-78060273D01*
X158640147Y-78321426D01*
X158585000Y-78598665D01*
X158585000Y-78881335D01*
X158640147Y-79158574D01*
X158748320Y-79419727D01*
X158905363Y-79654759D01*
X159105241Y-79854637D01*
X159337759Y-80010000D01*
X159105241Y-80165363D01*
X158905363Y-80365241D01*
X158748320Y-80600273D01*
X158640147Y-80861426D01*
X158585000Y-81138665D01*
X158585000Y-81421335D01*
X158640147Y-81698574D01*
X158748320Y-81959727D01*
X158905363Y-82194759D01*
X159105241Y-82394637D01*
X159337759Y-82550000D01*
X159105241Y-82705363D01*
X158905363Y-82905241D01*
X158748320Y-83140273D01*
X158640147Y-83401426D01*
X158585000Y-83678665D01*
X158585000Y-83961335D01*
X158640147Y-84238574D01*
X158748320Y-84499727D01*
X158905363Y-84734759D01*
X159105241Y-84934637D01*
X159337759Y-85090000D01*
X159105241Y-85245363D01*
X158905363Y-85445241D01*
X158748320Y-85680273D01*
X158640147Y-85941426D01*
X158585000Y-86218665D01*
X158585000Y-86501335D01*
X158640147Y-86778574D01*
X158748320Y-87039727D01*
X158905363Y-87274759D01*
X159105241Y-87474637D01*
X159337759Y-87630000D01*
X159105241Y-87785363D01*
X158905363Y-87985241D01*
X158748320Y-88220273D01*
X158640147Y-88481426D01*
X158585000Y-88758665D01*
X158585000Y-89041335D01*
X158640147Y-89318574D01*
X158748320Y-89579727D01*
X158905363Y-89814759D01*
X159105241Y-90014637D01*
X159337759Y-90170000D01*
X159105241Y-90325363D01*
X158905363Y-90525241D01*
X158748320Y-90760273D01*
X158640147Y-91021426D01*
X158585000Y-91298665D01*
X158585000Y-91581335D01*
X158640147Y-91858574D01*
X158748320Y-92119727D01*
X158905363Y-92354759D01*
X159105241Y-92554637D01*
X159337759Y-92710000D01*
X159105241Y-92865363D01*
X158905363Y-93065241D01*
X158748320Y-93300273D01*
X158640147Y-93561426D01*
X158585000Y-93838665D01*
X158585000Y-94121335D01*
X158640147Y-94398574D01*
X158748320Y-94659727D01*
X158905363Y-94894759D01*
X159105241Y-95094637D01*
X159340273Y-95251680D01*
X159350865Y-95256067D01*
X159164869Y-95367615D01*
X158956481Y-95556586D01*
X158788963Y-95782580D01*
X158668754Y-96036913D01*
X158628096Y-96170961D01*
X158750085Y-96393000D01*
X159893000Y-96393000D01*
X159893000Y-96373000D01*
X160147000Y-96373000D01*
X160147000Y-96393000D01*
X161289915Y-96393000D01*
X161411904Y-96170961D01*
X161371246Y-96036913D01*
X161251037Y-95782580D01*
X161083519Y-95556586D01*
X160875131Y-95367615D01*
X160689135Y-95256067D01*
X160699727Y-95251680D01*
X160934759Y-95094637D01*
X161134637Y-94894759D01*
X161291680Y-94659727D01*
X161399853Y-94398574D01*
X161455000Y-94121335D01*
X161455000Y-93838665D01*
X161399853Y-93561426D01*
X161291680Y-93300273D01*
X161134637Y-93065241D01*
X160934759Y-92865363D01*
X160702241Y-92710000D01*
X160854804Y-92608061D01*
X161525000Y-92608061D01*
X161525000Y-92811939D01*
X161564774Y-93011898D01*
X161642795Y-93200256D01*
X161756063Y-93369774D01*
X161900226Y-93513937D01*
X162069744Y-93627205D01*
X162258102Y-93705226D01*
X162458061Y-93745000D01*
X162661939Y-93745000D01*
X162861898Y-93705226D01*
X163050256Y-93627205D01*
X163219774Y-93513937D01*
X163363937Y-93369774D01*
X163477205Y-93200256D01*
X163555226Y-93011898D01*
X163595000Y-92811939D01*
X163595000Y-92608061D01*
X163555226Y-92408102D01*
X163477205Y-92219744D01*
X163363937Y-92050226D01*
X163219774Y-91906063D01*
X163050256Y-91792795D01*
X162861898Y-91714774D01*
X162661939Y-91675000D01*
X162458061Y-91675000D01*
X162258102Y-91714774D01*
X162069744Y-91792795D01*
X161900226Y-91906063D01*
X161756063Y-92050226D01*
X161642795Y-92219744D01*
X161564774Y-92408102D01*
X161525000Y-92608061D01*
X160854804Y-92608061D01*
X160934759Y-92554637D01*
X161134637Y-92354759D01*
X161291680Y-92119727D01*
X161399853Y-91858574D01*
X161455000Y-91581335D01*
X161455000Y-91298665D01*
X161399853Y-91021426D01*
X161291680Y-90760273D01*
X161134637Y-90525241D01*
X160934759Y-90325363D01*
X160702241Y-90170000D01*
X160854804Y-90068061D01*
X161525000Y-90068061D01*
X161525000Y-90271939D01*
X161564774Y-90471898D01*
X161642795Y-90660256D01*
X161756063Y-90829774D01*
X161900226Y-90973937D01*
X162069744Y-91087205D01*
X162258102Y-91165226D01*
X162458061Y-91205000D01*
X162661939Y-91205000D01*
X162861898Y-91165226D01*
X163050256Y-91087205D01*
X163219774Y-90973937D01*
X163363937Y-90829774D01*
X163477205Y-90660256D01*
X163555226Y-90471898D01*
X163595000Y-90271939D01*
X163595000Y-90068061D01*
X163555226Y-89868102D01*
X163477205Y-89679744D01*
X163363937Y-89510226D01*
X163219774Y-89366063D01*
X163050256Y-89252795D01*
X162861898Y-89174774D01*
X162661939Y-89135000D01*
X162458061Y-89135000D01*
X162258102Y-89174774D01*
X162069744Y-89252795D01*
X161900226Y-89366063D01*
X161756063Y-89510226D01*
X161642795Y-89679744D01*
X161564774Y-89868102D01*
X161525000Y-90068061D01*
X160854804Y-90068061D01*
X160934759Y-90014637D01*
X161134637Y-89814759D01*
X161291680Y-89579727D01*
X161399853Y-89318574D01*
X161455000Y-89041335D01*
X161455000Y-88758665D01*
X161399853Y-88481426D01*
X161291680Y-88220273D01*
X161134637Y-87985241D01*
X160934759Y-87785363D01*
X160702241Y-87630000D01*
X160934759Y-87474637D01*
X161134637Y-87274759D01*
X161291680Y-87039727D01*
X161399853Y-86778574D01*
X161455000Y-86501335D01*
X161455000Y-86218665D01*
X161399853Y-85941426D01*
X161291680Y-85680273D01*
X161134637Y-85445241D01*
X160934759Y-85245363D01*
X160702241Y-85090000D01*
X160934759Y-84934637D01*
X161134637Y-84734759D01*
X161291680Y-84499727D01*
X161399853Y-84238574D01*
X161455000Y-83961335D01*
X161455000Y-83678665D01*
X161399853Y-83401426D01*
X161291680Y-83140273D01*
X161134637Y-82905241D01*
X160934759Y-82705363D01*
X160702241Y-82550000D01*
X160934759Y-82394637D01*
X161134637Y-82194759D01*
X161291680Y-81959727D01*
X161399853Y-81698574D01*
X161455000Y-81421335D01*
X161455000Y-81138665D01*
X161399853Y-80861426D01*
X161291680Y-80600273D01*
X161134637Y-80365241D01*
X160934759Y-80165363D01*
X160702241Y-80010000D01*
X160934759Y-79854637D01*
X161134637Y-79654759D01*
X161291680Y-79419727D01*
X161399853Y-79158574D01*
X161455000Y-78881335D01*
X161455000Y-78598665D01*
X161399853Y-78321426D01*
X161291680Y-78060273D01*
X161134637Y-77825241D01*
X160934759Y-77625363D01*
X160702241Y-77470000D01*
X160934759Y-77314637D01*
X161134637Y-77114759D01*
X161291680Y-76879727D01*
X161399853Y-76618574D01*
X161455000Y-76341335D01*
X161455000Y-76058665D01*
X161399853Y-75781426D01*
X161291680Y-75520273D01*
X161134637Y-75285241D01*
X160934759Y-75085363D01*
X160702241Y-74930000D01*
X160934759Y-74774637D01*
X161134637Y-74574759D01*
X161291680Y-74339727D01*
X161399853Y-74078574D01*
X161455000Y-73801335D01*
X161455000Y-73558061D01*
X165335000Y-73558061D01*
X165335000Y-73761939D01*
X165374774Y-73961898D01*
X165452795Y-74150256D01*
X165566063Y-74319774D01*
X165710226Y-74463937D01*
X165879744Y-74577205D01*
X166068102Y-74655226D01*
X166268061Y-74695000D01*
X166471939Y-74695000D01*
X166671898Y-74655226D01*
X166860256Y-74577205D01*
X167029774Y-74463937D01*
X167173937Y-74319774D01*
X167287205Y-74150256D01*
X167365226Y-73961898D01*
X167405000Y-73761939D01*
X167405000Y-73558061D01*
X167365226Y-73358102D01*
X167287205Y-73169744D01*
X167173937Y-73000226D01*
X167029774Y-72856063D01*
X166860256Y-72742795D01*
X166671898Y-72664774D01*
X166471939Y-72625000D01*
X166268061Y-72625000D01*
X166068102Y-72664774D01*
X165879744Y-72742795D01*
X165710226Y-72856063D01*
X165566063Y-73000226D01*
X165452795Y-73169744D01*
X165374774Y-73358102D01*
X165335000Y-73558061D01*
X161455000Y-73558061D01*
X161455000Y-73518665D01*
X161399853Y-73241426D01*
X161291680Y-72980273D01*
X161134637Y-72745241D01*
X160934759Y-72545363D01*
X160702241Y-72390000D01*
X160934759Y-72234637D01*
X161134637Y-72034759D01*
X161291680Y-71799727D01*
X161399853Y-71538574D01*
X161455000Y-71261335D01*
X161455000Y-71018061D01*
X167875000Y-71018061D01*
X167875000Y-71221939D01*
X167914774Y-71421898D01*
X167992795Y-71610256D01*
X168106063Y-71779774D01*
X168250226Y-71923937D01*
X168419744Y-72037205D01*
X168608102Y-72115226D01*
X168808061Y-72155000D01*
X169011939Y-72155000D01*
X169211898Y-72115226D01*
X169400256Y-72037205D01*
X169569774Y-71923937D01*
X169713937Y-71779774D01*
X169827205Y-71610256D01*
X169905226Y-71421898D01*
X169945000Y-71221939D01*
X169945000Y-71018061D01*
X169905226Y-70818102D01*
X169827205Y-70629744D01*
X169713937Y-70460226D01*
X169569774Y-70316063D01*
X169400256Y-70202795D01*
X169211898Y-70124774D01*
X169011939Y-70085000D01*
X168808061Y-70085000D01*
X168608102Y-70124774D01*
X168419744Y-70202795D01*
X168250226Y-70316063D01*
X168106063Y-70460226D01*
X167992795Y-70629744D01*
X167914774Y-70818102D01*
X167875000Y-71018061D01*
X161455000Y-71018061D01*
X161455000Y-70978665D01*
X161399853Y-70701426D01*
X161291680Y-70440273D01*
X161134637Y-70205241D01*
X160934759Y-70005363D01*
X160702241Y-69850000D01*
X160934759Y-69694637D01*
X161134637Y-69494759D01*
X161291680Y-69259727D01*
X161399853Y-68998574D01*
X161455000Y-68721335D01*
X161455000Y-68438665D01*
X173825000Y-68438665D01*
X173825000Y-68721335D01*
X173880147Y-68998574D01*
X173988320Y-69259727D01*
X174145363Y-69494759D01*
X174345241Y-69694637D01*
X174577759Y-69850000D01*
X174345241Y-70005363D01*
X174145363Y-70205241D01*
X173988320Y-70440273D01*
X173880147Y-70701426D01*
X173825000Y-70978665D01*
X173825000Y-71261335D01*
X173880147Y-71538574D01*
X173988320Y-71799727D01*
X174145363Y-72034759D01*
X174345241Y-72234637D01*
X174577759Y-72390000D01*
X174345241Y-72545363D01*
X174145363Y-72745241D01*
X173988320Y-72980273D01*
X173880147Y-73241426D01*
X173825000Y-73518665D01*
X173825000Y-73801335D01*
X173880147Y-74078574D01*
X173988320Y-74339727D01*
X174145363Y-74574759D01*
X174345241Y-74774637D01*
X174577759Y-74930000D01*
X174345241Y-75085363D01*
X174145363Y-75285241D01*
X173988320Y-75520273D01*
X173880147Y-75781426D01*
X173825000Y-76058665D01*
X173825000Y-76341335D01*
X173880147Y-76618574D01*
X173988320Y-76879727D01*
X174145363Y-77114759D01*
X174345241Y-77314637D01*
X174577759Y-77470000D01*
X174345241Y-77625363D01*
X174145363Y-77825241D01*
X173988320Y-78060273D01*
X173880147Y-78321426D01*
X173825000Y-78598665D01*
X173825000Y-78881335D01*
X173880147Y-79158574D01*
X173988320Y-79419727D01*
X174145363Y-79654759D01*
X174345241Y-79854637D01*
X174577759Y-80010000D01*
X174345241Y-80165363D01*
X174145363Y-80365241D01*
X173988320Y-80600273D01*
X173880147Y-80861426D01*
X173825000Y-81138665D01*
X173825000Y-81421335D01*
X173880147Y-81698574D01*
X173988320Y-81959727D01*
X174145363Y-82194759D01*
X174345241Y-82394637D01*
X174577759Y-82550000D01*
X174345241Y-82705363D01*
X174145363Y-82905241D01*
X173988320Y-83140273D01*
X173880147Y-83401426D01*
X173825000Y-83678665D01*
X173825000Y-83961335D01*
X173880147Y-84238574D01*
X173988320Y-84499727D01*
X174145363Y-84734759D01*
X174345241Y-84934637D01*
X174577759Y-85090000D01*
X174345241Y-85245363D01*
X174145363Y-85445241D01*
X173988320Y-85680273D01*
X173880147Y-85941426D01*
X173825000Y-86218665D01*
X173825000Y-86501335D01*
X173880147Y-86778574D01*
X173988320Y-87039727D01*
X174145363Y-87274759D01*
X174345241Y-87474637D01*
X174577759Y-87630000D01*
X174345241Y-87785363D01*
X174145363Y-87985241D01*
X173988320Y-88220273D01*
X173880147Y-88481426D01*
X173825000Y-88758665D01*
X173825000Y-89041335D01*
X173880147Y-89318574D01*
X173988320Y-89579727D01*
X174145363Y-89814759D01*
X174345241Y-90014637D01*
X174577759Y-90170000D01*
X174345241Y-90325363D01*
X174145363Y-90525241D01*
X173988320Y-90760273D01*
X173880147Y-91021426D01*
X173825000Y-91298665D01*
X173825000Y-91581335D01*
X173880147Y-91858574D01*
X173988320Y-92119727D01*
X174145363Y-92354759D01*
X174345241Y-92554637D01*
X174577759Y-92710000D01*
X174345241Y-92865363D01*
X174145363Y-93065241D01*
X173988320Y-93300273D01*
X173880147Y-93561426D01*
X173825000Y-93838665D01*
X173825000Y-94121335D01*
X173880147Y-94398574D01*
X173988320Y-94659727D01*
X174145363Y-94894759D01*
X174345241Y-95094637D01*
X174577759Y-95250000D01*
X174345241Y-95405363D01*
X174145363Y-95605241D01*
X173988320Y-95840273D01*
X173880147Y-96101426D01*
X173825000Y-96378665D01*
X173825000Y-96661335D01*
X173880147Y-96938574D01*
X173988320Y-97199727D01*
X174145363Y-97434759D01*
X174345241Y-97634637D01*
X174577759Y-97790000D01*
X174345241Y-97945363D01*
X174145363Y-98145241D01*
X173988320Y-98380273D01*
X173880147Y-98641426D01*
X173825000Y-98918665D01*
X173825000Y-99201335D01*
X173880147Y-99478574D01*
X173988320Y-99739727D01*
X174145363Y-99974759D01*
X174345241Y-100174637D01*
X174580273Y-100331680D01*
X174590865Y-100336067D01*
X174404869Y-100447615D01*
X174196481Y-100636586D01*
X174028963Y-100862580D01*
X173908754Y-101116913D01*
X173868096Y-101250961D01*
X173990085Y-101473000D01*
X175133000Y-101473000D01*
X175133000Y-101453000D01*
X175387000Y-101453000D01*
X175387000Y-101473000D01*
X176529915Y-101473000D01*
X176651904Y-101250961D01*
X176611246Y-101116913D01*
X176491037Y-100862580D01*
X176323519Y-100636586D01*
X176115131Y-100447615D01*
X175929135Y-100336067D01*
X175939727Y-100331680D01*
X176174759Y-100174637D01*
X176374637Y-99974759D01*
X176531680Y-99739727D01*
X176639853Y-99478574D01*
X176695000Y-99201335D01*
X176695000Y-98918665D01*
X176639853Y-98641426D01*
X176531680Y-98380273D01*
X176374637Y-98145241D01*
X176174759Y-97945363D01*
X175942241Y-97790000D01*
X176174759Y-97634637D01*
X176374637Y-97434759D01*
X176531680Y-97199727D01*
X176639853Y-96938574D01*
X176695000Y-96661335D01*
X176695000Y-96378665D01*
X176639853Y-96101426D01*
X176531680Y-95840273D01*
X176374637Y-95605241D01*
X176174759Y-95405363D01*
X175942241Y-95250000D01*
X176174759Y-95094637D01*
X176374637Y-94894759D01*
X176531680Y-94659727D01*
X176639853Y-94398574D01*
X176695000Y-94121335D01*
X176695000Y-93838665D01*
X176639853Y-93561426D01*
X176531680Y-93300273D01*
X176374637Y-93065241D01*
X176174759Y-92865363D01*
X175942241Y-92710000D01*
X176174759Y-92554637D01*
X176374637Y-92354759D01*
X176531680Y-92119727D01*
X176639853Y-91858574D01*
X176695000Y-91581335D01*
X176695000Y-91298665D01*
X176639853Y-91021426D01*
X176531680Y-90760273D01*
X176374637Y-90525241D01*
X176174759Y-90325363D01*
X175942241Y-90170000D01*
X176174759Y-90014637D01*
X176374637Y-89814759D01*
X176531680Y-89579727D01*
X176639853Y-89318574D01*
X176695000Y-89041335D01*
X176695000Y-88758665D01*
X176639853Y-88481426D01*
X176531680Y-88220273D01*
X176374637Y-87985241D01*
X176174759Y-87785363D01*
X175942241Y-87630000D01*
X176174759Y-87474637D01*
X176374637Y-87274759D01*
X176531680Y-87039727D01*
X176639853Y-86778574D01*
X176695000Y-86501335D01*
X176695000Y-86218665D01*
X176639853Y-85941426D01*
X176531680Y-85680273D01*
X176374637Y-85445241D01*
X176174759Y-85245363D01*
X175942241Y-85090000D01*
X176174759Y-84934637D01*
X176374637Y-84734759D01*
X176531680Y-84499727D01*
X176639853Y-84238574D01*
X176695000Y-83961335D01*
X176695000Y-83678665D01*
X176639853Y-83401426D01*
X176531680Y-83140273D01*
X176374637Y-82905241D01*
X176174759Y-82705363D01*
X175942241Y-82550000D01*
X176174759Y-82394637D01*
X176374637Y-82194759D01*
X176531680Y-81959727D01*
X176639853Y-81698574D01*
X176695000Y-81421335D01*
X176695000Y-81138665D01*
X176639853Y-80861426D01*
X176531680Y-80600273D01*
X176374637Y-80365241D01*
X176174759Y-80165363D01*
X175942241Y-80010000D01*
X176174759Y-79854637D01*
X176374637Y-79654759D01*
X176531680Y-79419727D01*
X176639853Y-79158574D01*
X176695000Y-78881335D01*
X176695000Y-78598665D01*
X176639853Y-78321426D01*
X176531680Y-78060273D01*
X176374637Y-77825241D01*
X176174759Y-77625363D01*
X175942241Y-77470000D01*
X176174759Y-77314637D01*
X176374637Y-77114759D01*
X176531680Y-76879727D01*
X176639853Y-76618574D01*
X176695000Y-76341335D01*
X176695000Y-76058665D01*
X176639853Y-75781426D01*
X176531680Y-75520273D01*
X176374637Y-75285241D01*
X176174759Y-75085363D01*
X175942241Y-74930000D01*
X176174759Y-74774637D01*
X176374637Y-74574759D01*
X176531680Y-74339727D01*
X176639853Y-74078574D01*
X176695000Y-73801335D01*
X176695000Y-73518665D01*
X176639853Y-73241426D01*
X176531680Y-72980273D01*
X176374637Y-72745241D01*
X176174759Y-72545363D01*
X175942241Y-72390000D01*
X176174759Y-72234637D01*
X176374637Y-72034759D01*
X176531680Y-71799727D01*
X176639853Y-71538574D01*
X176695000Y-71261335D01*
X176695000Y-70978665D01*
X176639853Y-70701426D01*
X176531680Y-70440273D01*
X176374637Y-70205241D01*
X176174759Y-70005363D01*
X175942241Y-69850000D01*
X176174759Y-69694637D01*
X176374637Y-69494759D01*
X176531680Y-69259727D01*
X176639853Y-68998574D01*
X176695000Y-68721335D01*
X176695000Y-68478061D01*
X176765000Y-68478061D01*
X176765000Y-68681939D01*
X176804774Y-68881898D01*
X176882795Y-69070256D01*
X176996063Y-69239774D01*
X177140226Y-69383937D01*
X177309744Y-69497205D01*
X177498102Y-69575226D01*
X177698061Y-69615000D01*
X177901939Y-69615000D01*
X178101898Y-69575226D01*
X178290256Y-69497205D01*
X178459774Y-69383937D01*
X178603937Y-69239774D01*
X178717205Y-69070256D01*
X178795226Y-68881898D01*
X178835000Y-68681939D01*
X178835000Y-68478061D01*
X178795226Y-68278102D01*
X178717205Y-68089744D01*
X178603937Y-67920226D01*
X178459774Y-67776063D01*
X178290256Y-67662795D01*
X178101898Y-67584774D01*
X177901939Y-67545000D01*
X177698061Y-67545000D01*
X177498102Y-67584774D01*
X177309744Y-67662795D01*
X177140226Y-67776063D01*
X176996063Y-67920226D01*
X176882795Y-68089744D01*
X176804774Y-68278102D01*
X176765000Y-68478061D01*
X176695000Y-68478061D01*
X176695000Y-68438665D01*
X176639853Y-68161426D01*
X176531680Y-67900273D01*
X176374637Y-67665241D01*
X176174759Y-67465363D01*
X175939727Y-67308320D01*
X175678574Y-67200147D01*
X175401335Y-67145000D01*
X175118665Y-67145000D01*
X174841426Y-67200147D01*
X174580273Y-67308320D01*
X174345241Y-67465363D01*
X174145363Y-67665241D01*
X173988320Y-67900273D01*
X173880147Y-68161426D01*
X173825000Y-68438665D01*
X161455000Y-68438665D01*
X161399853Y-68161426D01*
X161291680Y-67900273D01*
X161134637Y-67665241D01*
X160934759Y-67465363D01*
X160699727Y-67308320D01*
X160438574Y-67200147D01*
X160161335Y-67145000D01*
X159878665Y-67145000D01*
X159601426Y-67200147D01*
X159340273Y-67308320D01*
X159105241Y-67465363D01*
X158905363Y-67665241D01*
X158748320Y-67900273D01*
X158640147Y-68161426D01*
X158585000Y-68438665D01*
X158507164Y-68438665D01*
X158475226Y-68278102D01*
X158397205Y-68089744D01*
X158283937Y-67920226D01*
X158139774Y-67776063D01*
X157970256Y-67662795D01*
X157781898Y-67584774D01*
X157581939Y-67545000D01*
X157378061Y-67545000D01*
X157178102Y-67584774D01*
X156989744Y-67662795D01*
X156820226Y-67776063D01*
X156676063Y-67920226D01*
X156562795Y-68089744D01*
X156484774Y-68278102D01*
X156445000Y-68478061D01*
X155155000Y-68478061D01*
X155155000Y-68433740D01*
X155097932Y-68146842D01*
X154985990Y-67876589D01*
X154823475Y-67633368D01*
X154616632Y-67426525D01*
X154442240Y-67310000D01*
X154616632Y-67193475D01*
X154823475Y-66986632D01*
X154985990Y-66743411D01*
X155097932Y-66473158D01*
X155155000Y-66186260D01*
X155155000Y-65902408D01*
X162433000Y-65902408D01*
X162433000Y-66177592D01*
X162486686Y-66447490D01*
X162591995Y-66701727D01*
X162744880Y-66930535D01*
X162939465Y-67125120D01*
X163168273Y-67278005D01*
X163422510Y-67383314D01*
X163692408Y-67437000D01*
X163967592Y-67437000D01*
X164237490Y-67383314D01*
X164491727Y-67278005D01*
X164720535Y-67125120D01*
X164915120Y-66930535D01*
X165068005Y-66701727D01*
X165100000Y-66624485D01*
X165131995Y-66701727D01*
X165284880Y-66930535D01*
X165479465Y-67125120D01*
X165708273Y-67278005D01*
X165962510Y-67383314D01*
X166232408Y-67437000D01*
X166507592Y-67437000D01*
X166777490Y-67383314D01*
X167031727Y-67278005D01*
X167260535Y-67125120D01*
X167455120Y-66930535D01*
X167608005Y-66701727D01*
X167640000Y-66624485D01*
X167671995Y-66701727D01*
X167824880Y-66930535D01*
X168019465Y-67125120D01*
X168248273Y-67278005D01*
X168502510Y-67383314D01*
X168772408Y-67437000D01*
X169047592Y-67437000D01*
X169317490Y-67383314D01*
X169571727Y-67278005D01*
X169800535Y-67125120D01*
X169995120Y-66930535D01*
X170148005Y-66701727D01*
X170180000Y-66624485D01*
X170211995Y-66701727D01*
X170364880Y-66930535D01*
X170559465Y-67125120D01*
X170788273Y-67278005D01*
X171042510Y-67383314D01*
X171312408Y-67437000D01*
X171587592Y-67437000D01*
X171857490Y-67383314D01*
X172111727Y-67278005D01*
X172340535Y-67125120D01*
X172535120Y-66930535D01*
X172688005Y-66701727D01*
X172793314Y-66447490D01*
X172847000Y-66177592D01*
X172847000Y-65902408D01*
X172793314Y-65632510D01*
X172688005Y-65378273D01*
X172535120Y-65149465D01*
X172340535Y-64954880D01*
X172111727Y-64801995D01*
X171857490Y-64696686D01*
X171587592Y-64643000D01*
X171312408Y-64643000D01*
X171042510Y-64696686D01*
X170788273Y-64801995D01*
X170559465Y-64954880D01*
X170364880Y-65149465D01*
X170211995Y-65378273D01*
X170180000Y-65455515D01*
X170148005Y-65378273D01*
X169995120Y-65149465D01*
X169800535Y-64954880D01*
X169571727Y-64801995D01*
X169317490Y-64696686D01*
X169047592Y-64643000D01*
X168772408Y-64643000D01*
X168502510Y-64696686D01*
X168248273Y-64801995D01*
X168019465Y-64954880D01*
X167824880Y-65149465D01*
X167671995Y-65378273D01*
X167640000Y-65455515D01*
X167608005Y-65378273D01*
X167455120Y-65149465D01*
X167260535Y-64954880D01*
X167031727Y-64801995D01*
X166777490Y-64696686D01*
X166507592Y-64643000D01*
X166232408Y-64643000D01*
X165962510Y-64696686D01*
X165708273Y-64801995D01*
X165479465Y-64954880D01*
X165284880Y-65149465D01*
X165131995Y-65378273D01*
X165100000Y-65455515D01*
X165068005Y-65378273D01*
X164915120Y-65149465D01*
X164720535Y-64954880D01*
X164491727Y-64801995D01*
X164237490Y-64696686D01*
X163967592Y-64643000D01*
X163692408Y-64643000D01*
X163422510Y-64696686D01*
X163168273Y-64801995D01*
X162939465Y-64954880D01*
X162744880Y-65149465D01*
X162591995Y-65378273D01*
X162486686Y-65632510D01*
X162433000Y-65902408D01*
X155155000Y-65902408D01*
X155155000Y-65893740D01*
X155097932Y-65606842D01*
X154985990Y-65336589D01*
X154823475Y-65093368D01*
X154616632Y-64886525D01*
X154434466Y-64764805D01*
X154551355Y-64695178D01*
X154767588Y-64500269D01*
X154941641Y-64266920D01*
X155066825Y-64004099D01*
X155111476Y-63856890D01*
X154990155Y-63627000D01*
X153797000Y-63627000D01*
X153797000Y-63647000D01*
X153543000Y-63647000D01*
X153543000Y-63627000D01*
X152349845Y-63627000D01*
X152228524Y-63856890D01*
X152273175Y-64004099D01*
X152398359Y-64266920D01*
X152572412Y-64500269D01*
X152788645Y-64695178D01*
X152905534Y-64764805D01*
X152723368Y-64886525D01*
X152516525Y-65093368D01*
X152354010Y-65336589D01*
X152242068Y-65606842D01*
X152185000Y-65893740D01*
X152185000Y-66186260D01*
X152242068Y-66473158D01*
X152354010Y-66743411D01*
X152516525Y-66986632D01*
X152723368Y-67193475D01*
X152897760Y-67310000D01*
X152723368Y-67426525D01*
X152516525Y-67633368D01*
X152354010Y-67876589D01*
X152242068Y-68146842D01*
X152185000Y-68433740D01*
X152185000Y-68726260D01*
X152242068Y-69013158D01*
X152354010Y-69283411D01*
X152516525Y-69526632D01*
X152723368Y-69733475D01*
X152897760Y-69850000D01*
X152723368Y-69966525D01*
X152516525Y-70173368D01*
X152354010Y-70416589D01*
X152242068Y-70686842D01*
X152185000Y-70973740D01*
X152185000Y-71266260D01*
X152242068Y-71553158D01*
X152354010Y-71823411D01*
X152516525Y-72066632D01*
X152723368Y-72273475D01*
X152897760Y-72390000D01*
X152723368Y-72506525D01*
X152516525Y-72713368D01*
X152354010Y-72956589D01*
X152242068Y-73226842D01*
X152185000Y-73513740D01*
X152185000Y-73806260D01*
X152242068Y-74093158D01*
X152354010Y-74363411D01*
X152516525Y-74606632D01*
X152723368Y-74813475D01*
X152897760Y-74930000D01*
X152723368Y-75046525D01*
X152516525Y-75253368D01*
X152354010Y-75496589D01*
X152242068Y-75766842D01*
X152185000Y-76053740D01*
X152185000Y-76346260D01*
X152242068Y-76633158D01*
X152354010Y-76903411D01*
X152516525Y-77146632D01*
X152648380Y-77278487D01*
X152575820Y-77300498D01*
X152465506Y-77359463D01*
X152368815Y-77438815D01*
X152289463Y-77535506D01*
X152230498Y-77645820D01*
X152194188Y-77765518D01*
X152181928Y-77890000D01*
X151257000Y-77890000D01*
X151257000Y-63143110D01*
X152228524Y-63143110D01*
X152349845Y-63373000D01*
X153543000Y-63373000D01*
X153543000Y-62179186D01*
X153797000Y-62179186D01*
X153797000Y-63373000D01*
X154990155Y-63373000D01*
X155111476Y-63143110D01*
X155066825Y-62995901D01*
X154941641Y-62733080D01*
X154767588Y-62499731D01*
X154551355Y-62304822D01*
X154301252Y-62155843D01*
X154026891Y-62058519D01*
X153797000Y-62179186D01*
X153543000Y-62179186D01*
X153313109Y-62058519D01*
X153038748Y-62155843D01*
X152788645Y-62304822D01*
X152572412Y-62499731D01*
X152398359Y-62733080D01*
X152273175Y-62995901D01*
X152228524Y-63143110D01*
X151257000Y-63143110D01*
X151257000Y-58408967D01*
X169125000Y-58408967D01*
X169125000Y-58731033D01*
X169187832Y-59046912D01*
X169311082Y-59344463D01*
X169490013Y-59612252D01*
X169717748Y-59839987D01*
X169985537Y-60018918D01*
X170283088Y-60142168D01*
X170598967Y-60205000D01*
X170921033Y-60205000D01*
X171236912Y-60142168D01*
X171534463Y-60018918D01*
X171802252Y-59839987D01*
X171936826Y-59705413D01*
X174304192Y-59705413D01*
X174399956Y-59969814D01*
X174689571Y-60110704D01*
X175001108Y-60192384D01*
X175322595Y-60211718D01*
X175641675Y-60167961D01*
X175946088Y-60062795D01*
X176120044Y-59969814D01*
X176215808Y-59705413D01*
X175260000Y-58749605D01*
X174304192Y-59705413D01*
X171936826Y-59705413D01*
X172029987Y-59612252D01*
X172208918Y-59344463D01*
X172332168Y-59046912D01*
X172395000Y-58731033D01*
X172395000Y-58632595D01*
X173618282Y-58632595D01*
X173662039Y-58951675D01*
X173767205Y-59256088D01*
X173860186Y-59430044D01*
X174124587Y-59525808D01*
X175080395Y-58570000D01*
X175439605Y-58570000D01*
X176395413Y-59525808D01*
X176659814Y-59430044D01*
X176800704Y-59140429D01*
X176882384Y-58828892D01*
X176901718Y-58507405D01*
X176857961Y-58188325D01*
X176752795Y-57883912D01*
X176659814Y-57709956D01*
X176395413Y-57614192D01*
X175439605Y-58570000D01*
X175080395Y-58570000D01*
X174124587Y-57614192D01*
X173860186Y-57709956D01*
X173719296Y-57999571D01*
X173637616Y-58311108D01*
X173618282Y-58632595D01*
X172395000Y-58632595D01*
X172395000Y-58408967D01*
X172332168Y-58093088D01*
X172208918Y-57795537D01*
X172029987Y-57527748D01*
X171936826Y-57434587D01*
X174304192Y-57434587D01*
X175260000Y-58390395D01*
X176215808Y-57434587D01*
X176120044Y-57170186D01*
X175830429Y-57029296D01*
X175518892Y-56947616D01*
X175197405Y-56928282D01*
X174878325Y-56972039D01*
X174573912Y-57077205D01*
X174399956Y-57170186D01*
X174304192Y-57434587D01*
X171936826Y-57434587D01*
X171802252Y-57300013D01*
X171534463Y-57121082D01*
X171236912Y-56997832D01*
X170921033Y-56935000D01*
X170598967Y-56935000D01*
X170283088Y-56997832D01*
X169985537Y-57121082D01*
X169717748Y-57300013D01*
X169490013Y-57527748D01*
X169311082Y-57795537D01*
X169187832Y-58093088D01*
X169125000Y-58408967D01*
X151257000Y-58408967D01*
X151257000Y-55728816D01*
X158485000Y-55728816D01*
X158485000Y-56031184D01*
X158543989Y-56327743D01*
X158659701Y-56607095D01*
X158827688Y-56858505D01*
X159041495Y-57072312D01*
X159292905Y-57240299D01*
X159572257Y-57356011D01*
X159868816Y-57415000D01*
X160171184Y-57415000D01*
X160467743Y-57356011D01*
X160747095Y-57240299D01*
X160998505Y-57072312D01*
X161126737Y-56944080D01*
X161675525Y-56944080D01*
X161759208Y-57198261D01*
X162031775Y-57329158D01*
X162324642Y-57404365D01*
X162626553Y-57420991D01*
X162925907Y-57378397D01*
X163211199Y-57278222D01*
X163360792Y-57198261D01*
X163444475Y-56944080D01*
X162560000Y-56059605D01*
X161675525Y-56944080D01*
X161126737Y-56944080D01*
X161212312Y-56858505D01*
X161314951Y-56704895D01*
X161495920Y-56764475D01*
X162380395Y-55880000D01*
X162739605Y-55880000D01*
X163585412Y-56725807D01*
X163629407Y-56870838D01*
X163711325Y-57024097D01*
X163821570Y-57158430D01*
X163955903Y-57268675D01*
X164109162Y-57350593D01*
X164275458Y-57401039D01*
X164448400Y-57418072D01*
X165751600Y-57418072D01*
X165924542Y-57401039D01*
X166090838Y-57350593D01*
X166244097Y-57268675D01*
X166378430Y-57158430D01*
X166488675Y-57024097D01*
X166570593Y-56870838D01*
X166621039Y-56704542D01*
X166638072Y-56531600D01*
X166638072Y-55228400D01*
X166621039Y-55055458D01*
X166570593Y-54889162D01*
X166488675Y-54735903D01*
X166378430Y-54601570D01*
X166244097Y-54491325D01*
X166090838Y-54409407D01*
X165924542Y-54358961D01*
X165751600Y-54341928D01*
X164448400Y-54341928D01*
X164275458Y-54358961D01*
X164109162Y-54409407D01*
X163955903Y-54491325D01*
X163821570Y-54601570D01*
X163711325Y-54735903D01*
X163629407Y-54889162D01*
X163585412Y-55034193D01*
X162739605Y-55880000D01*
X162380395Y-55880000D01*
X161495920Y-54995525D01*
X161314951Y-55055105D01*
X161212312Y-54901495D01*
X161126737Y-54815920D01*
X161675525Y-54815920D01*
X162560000Y-55700395D01*
X163444475Y-54815920D01*
X163360792Y-54561739D01*
X163088225Y-54430842D01*
X162795358Y-54355635D01*
X162493447Y-54339009D01*
X162194093Y-54381603D01*
X161908801Y-54481778D01*
X161759208Y-54561739D01*
X161675525Y-54815920D01*
X161126737Y-54815920D01*
X160998505Y-54687688D01*
X160747095Y-54519701D01*
X160467743Y-54403989D01*
X160171184Y-54345000D01*
X159868816Y-54345000D01*
X159572257Y-54403989D01*
X159292905Y-54519701D01*
X159041495Y-54687688D01*
X158827688Y-54901495D01*
X158659701Y-55152905D01*
X158543989Y-55432257D01*
X158485000Y-55728816D01*
X151257000Y-55728816D01*
X151257000Y-53169117D01*
X151935000Y-53169117D01*
X151935000Y-53510883D01*
X152001675Y-53846081D01*
X152132463Y-54161831D01*
X152322337Y-54445998D01*
X152564002Y-54687663D01*
X152848169Y-54877537D01*
X153163919Y-55008325D01*
X153499117Y-55075000D01*
X153840883Y-55075000D01*
X154176081Y-55008325D01*
X154491831Y-54877537D01*
X154775998Y-54687663D01*
X155017663Y-54445998D01*
X155207537Y-54161831D01*
X155338325Y-53846081D01*
X155405000Y-53510883D01*
X155405000Y-53169117D01*
X155338325Y-52833919D01*
X155207537Y-52518169D01*
X155017663Y-52234002D01*
X154775998Y-51992337D01*
X154651226Y-51908967D01*
X169125000Y-51908967D01*
X169125000Y-52231033D01*
X169187832Y-52546912D01*
X169311082Y-52844463D01*
X169490013Y-53112252D01*
X169717748Y-53339987D01*
X169985537Y-53518918D01*
X170283088Y-53642168D01*
X170598967Y-53705000D01*
X170921033Y-53705000D01*
X171236912Y-53642168D01*
X171534463Y-53518918D01*
X171802252Y-53339987D01*
X171936826Y-53205413D01*
X174304192Y-53205413D01*
X174399956Y-53469814D01*
X174689571Y-53610704D01*
X175001108Y-53692384D01*
X175322595Y-53711718D01*
X175641675Y-53667961D01*
X175946088Y-53562795D01*
X176120044Y-53469814D01*
X176215808Y-53205413D01*
X176179512Y-53169117D01*
X178605000Y-53169117D01*
X178605000Y-53510883D01*
X178671675Y-53846081D01*
X178802463Y-54161831D01*
X178992337Y-54445998D01*
X179234002Y-54687663D01*
X179518169Y-54877537D01*
X179833919Y-55008325D01*
X180169117Y-55075000D01*
X180510883Y-55075000D01*
X180846081Y-55008325D01*
X181161831Y-54877537D01*
X181445998Y-54687663D01*
X181687663Y-54445998D01*
X181877537Y-54161831D01*
X182008325Y-53846081D01*
X182075000Y-53510883D01*
X182075000Y-53169117D01*
X182008325Y-52833919D01*
X181877537Y-52518169D01*
X181687663Y-52234002D01*
X181445998Y-51992337D01*
X181161831Y-51802463D01*
X180846081Y-51671675D01*
X180510883Y-51605000D01*
X180169117Y-51605000D01*
X179833919Y-51671675D01*
X179518169Y-51802463D01*
X179234002Y-51992337D01*
X178992337Y-52234002D01*
X178802463Y-52518169D01*
X178671675Y-52833919D01*
X178605000Y-53169117D01*
X176179512Y-53169117D01*
X175260000Y-52249605D01*
X174304192Y-53205413D01*
X171936826Y-53205413D01*
X172029987Y-53112252D01*
X172208918Y-52844463D01*
X172332168Y-52546912D01*
X172395000Y-52231033D01*
X172395000Y-52132595D01*
X173618282Y-52132595D01*
X173662039Y-52451675D01*
X173767205Y-52756088D01*
X173860186Y-52930044D01*
X174124587Y-53025808D01*
X175080395Y-52070000D01*
X175439605Y-52070000D01*
X176395413Y-53025808D01*
X176659814Y-52930044D01*
X176800704Y-52640429D01*
X176882384Y-52328892D01*
X176901718Y-52007405D01*
X176857961Y-51688325D01*
X176752795Y-51383912D01*
X176659814Y-51209956D01*
X176395413Y-51114192D01*
X175439605Y-52070000D01*
X175080395Y-52070000D01*
X174124587Y-51114192D01*
X173860186Y-51209956D01*
X173719296Y-51499571D01*
X173637616Y-51811108D01*
X173618282Y-52132595D01*
X172395000Y-52132595D01*
X172395000Y-51908967D01*
X172332168Y-51593088D01*
X172208918Y-51295537D01*
X172029987Y-51027748D01*
X171936826Y-50934587D01*
X174304192Y-50934587D01*
X175260000Y-51890395D01*
X176215808Y-50934587D01*
X176120044Y-50670186D01*
X175830429Y-50529296D01*
X175518892Y-50447616D01*
X175197405Y-50428282D01*
X174878325Y-50472039D01*
X174573912Y-50577205D01*
X174399956Y-50670186D01*
X174304192Y-50934587D01*
X171936826Y-50934587D01*
X171802252Y-50800013D01*
X171534463Y-50621082D01*
X171236912Y-50497832D01*
X170921033Y-50435000D01*
X170598967Y-50435000D01*
X170283088Y-50497832D01*
X169985537Y-50621082D01*
X169717748Y-50800013D01*
X169490013Y-51027748D01*
X169311082Y-51295537D01*
X169187832Y-51593088D01*
X169125000Y-51908967D01*
X154651226Y-51908967D01*
X154491831Y-51802463D01*
X154176081Y-51671675D01*
X153840883Y-51605000D01*
X153499117Y-51605000D01*
X153163919Y-51671675D01*
X152848169Y-51802463D01*
X152564002Y-51992337D01*
X152322337Y-52234002D01*
X152132463Y-52518169D01*
X152001675Y-52833919D01*
X151935000Y-53169117D01*
X151257000Y-53169117D01*
X151257000Y-51534530D01*
X151276385Y-51263496D01*
X151333181Y-51002407D01*
X151426556Y-50752060D01*
X151554605Y-50517555D01*
X151714724Y-50303662D01*
X151803386Y-50215000D01*
X182206614Y-50215000D01*
X182295276Y-50303662D01*
%TA.AperFunction,Conductor*%
D21*
G36*
X182295276Y-50303662D02*
G01*
X182455395Y-50517555D01*
X182583444Y-50752060D01*
X182676819Y-51002407D01*
X182733615Y-51263496D01*
X182753000Y-51534530D01*
X182753000Y-132615470D01*
X182733615Y-132886504D01*
X182676819Y-133147593D01*
X182583444Y-133397940D01*
X182455395Y-133632445D01*
X182295276Y-133846338D01*
X182106338Y-134035276D01*
X181892445Y-134195395D01*
X181657940Y-134323444D01*
X181407593Y-134416819D01*
X181146504Y-134473615D01*
X180875470Y-134493000D01*
X153134530Y-134493000D01*
X152863496Y-134473615D01*
X152602407Y-134416819D01*
X152352060Y-134323444D01*
X152117555Y-134195395D01*
X151903662Y-134035276D01*
X151714724Y-133846338D01*
X151554605Y-133632445D01*
X151426556Y-133397940D01*
X151333181Y-133147593D01*
X151276385Y-132886504D01*
X151257000Y-132615470D01*
X151257000Y-132102702D01*
X161861903Y-132102702D01*
X161933486Y-132346671D01*
X162188996Y-132467571D01*
X162463184Y-132536300D01*
X162745512Y-132550217D01*
X163025130Y-132508787D01*
X163291292Y-132413603D01*
X163416514Y-132346671D01*
X163488097Y-132102702D01*
X162675000Y-131289605D01*
X161861903Y-132102702D01*
X151257000Y-132102702D01*
X151257000Y-128310475D01*
X151695000Y-128310475D01*
X151695000Y-128829525D01*
X151796261Y-129338601D01*
X151994893Y-129818141D01*
X152283262Y-130249715D01*
X152650285Y-130616738D01*
X153081859Y-130905107D01*
X153561399Y-131103739D01*
X154070475Y-131205000D01*
X154589525Y-131205000D01*
X154712635Y-131180512D01*
X161234783Y-131180512D01*
X161276213Y-131460130D01*
X161371397Y-131726292D01*
X161438329Y-131851514D01*
X161682298Y-131923097D01*
X162495395Y-131110000D01*
X162854605Y-131110000D01*
X163667702Y-131923097D01*
X163911671Y-131851514D01*
X164032571Y-131596004D01*
X164058212Y-131493711D01*
X164065147Y-131528574D01*
X164173320Y-131789727D01*
X164330363Y-132024759D01*
X164530241Y-132224637D01*
X164765273Y-132381680D01*
X165026426Y-132489853D01*
X165303665Y-132545000D01*
X165586335Y-132545000D01*
X165863574Y-132489853D01*
X166124727Y-132381680D01*
X166359759Y-132224637D01*
X166559637Y-132024759D01*
X166716680Y-131789727D01*
X166824853Y-131528574D01*
X166830000Y-131502699D01*
X166835147Y-131528574D01*
X166943320Y-131789727D01*
X167100363Y-132024759D01*
X167300241Y-132224637D01*
X167535273Y-132381680D01*
X167796426Y-132489853D01*
X168073665Y-132545000D01*
X168356335Y-132545000D01*
X168633574Y-132489853D01*
X168894727Y-132381680D01*
X169129759Y-132224637D01*
X169251694Y-132102702D01*
X170171903Y-132102702D01*
X170243486Y-132346671D01*
X170498996Y-132467571D01*
X170773184Y-132536300D01*
X171055512Y-132550217D01*
X171335130Y-132508787D01*
X171601292Y-132413603D01*
X171726514Y-132346671D01*
X171798097Y-132102702D01*
X170985000Y-131289605D01*
X170171903Y-132102702D01*
X169251694Y-132102702D01*
X169329637Y-132024759D01*
X169486680Y-131789727D01*
X169594853Y-131528574D01*
X169600513Y-131500118D01*
X169681397Y-131726292D01*
X169748329Y-131851514D01*
X169992298Y-131923097D01*
X170805395Y-131110000D01*
X171164605Y-131110000D01*
X171977702Y-131923097D01*
X172221671Y-131851514D01*
X172342571Y-131596004D01*
X172411300Y-131321816D01*
X172425217Y-131039488D01*
X172383787Y-130759870D01*
X172288603Y-130493708D01*
X172221671Y-130368486D01*
X171977702Y-130296903D01*
X171164605Y-131110000D01*
X170805395Y-131110000D01*
X169992298Y-130296903D01*
X169748329Y-130368486D01*
X169627429Y-130623996D01*
X169601788Y-130726289D01*
X169594853Y-130691426D01*
X169486680Y-130430273D01*
X169329637Y-130195241D01*
X169251694Y-130117298D01*
X170171903Y-130117298D01*
X170985000Y-130930395D01*
X171798097Y-130117298D01*
X171726514Y-129873329D01*
X171471004Y-129752429D01*
X171196816Y-129683700D01*
X170914488Y-129669783D01*
X170634870Y-129711213D01*
X170368708Y-129806397D01*
X170243486Y-129873329D01*
X170171903Y-130117298D01*
X169251694Y-130117298D01*
X169129759Y-129995363D01*
X168894727Y-129838320D01*
X168633574Y-129730147D01*
X168356335Y-129675000D01*
X168073665Y-129675000D01*
X167796426Y-129730147D01*
X167535273Y-129838320D01*
X167300241Y-129995363D01*
X167100363Y-130195241D01*
X166943320Y-130430273D01*
X166835147Y-130691426D01*
X166830000Y-130717301D01*
X166824853Y-130691426D01*
X166716680Y-130430273D01*
X166559637Y-130195241D01*
X166359759Y-129995363D01*
X166124727Y-129838320D01*
X165863574Y-129730147D01*
X165586335Y-129675000D01*
X165303665Y-129675000D01*
X165026426Y-129730147D01*
X164765273Y-129838320D01*
X164530241Y-129995363D01*
X164330363Y-130195241D01*
X164173320Y-130430273D01*
X164065147Y-130691426D01*
X164059487Y-130719882D01*
X163978603Y-130493708D01*
X163911671Y-130368486D01*
X163667702Y-130296903D01*
X162854605Y-131110000D01*
X162495395Y-131110000D01*
X161682298Y-130296903D01*
X161438329Y-130368486D01*
X161317429Y-130623996D01*
X161248700Y-130898184D01*
X161234783Y-131180512D01*
X154712635Y-131180512D01*
X155098601Y-131103739D01*
X155578141Y-130905107D01*
X156009715Y-130616738D01*
X156376738Y-130249715D01*
X156465216Y-130117298D01*
X161861903Y-130117298D01*
X162675000Y-130930395D01*
X163488097Y-130117298D01*
X163416514Y-129873329D01*
X163161004Y-129752429D01*
X162886816Y-129683700D01*
X162604488Y-129669783D01*
X162324870Y-129711213D01*
X162058708Y-129806397D01*
X161933486Y-129873329D01*
X161861903Y-130117298D01*
X156465216Y-130117298D01*
X156665107Y-129818141D01*
X156863739Y-129338601D01*
X156917166Y-129070000D01*
X159851928Y-129070000D01*
X159864188Y-129194482D01*
X159900498Y-129314180D01*
X159959463Y-129424494D01*
X160038815Y-129521185D01*
X160135506Y-129600537D01*
X160245820Y-129659502D01*
X160365518Y-129695812D01*
X160490000Y-129708072D01*
X161004250Y-129705000D01*
X161163000Y-129546250D01*
X161163000Y-128397000D01*
X160013750Y-128397000D01*
X159855000Y-128555750D01*
X159851928Y-129070000D01*
X156917166Y-129070000D01*
X156965000Y-128829525D01*
X156965000Y-128310475D01*
X156863739Y-127801399D01*
X156726470Y-127470000D01*
X159851928Y-127470000D01*
X159855000Y-127984250D01*
X160013750Y-128143000D01*
X161163000Y-128143000D01*
X161163000Y-126993750D01*
X161417000Y-126993750D01*
X161417000Y-128143000D01*
X161437000Y-128143000D01*
X161437000Y-128397000D01*
X161417000Y-128397000D01*
X161417000Y-129546250D01*
X161575750Y-129705000D01*
X162090000Y-129708072D01*
X162214482Y-129695812D01*
X162334180Y-129659502D01*
X162444494Y-129600537D01*
X162541185Y-129521185D01*
X162620537Y-129424494D01*
X162679502Y-129314180D01*
X162715812Y-129194482D01*
X162728072Y-129070000D01*
X162726461Y-128800387D01*
X162788320Y-128949727D01*
X162945363Y-129184759D01*
X163145241Y-129384637D01*
X163380273Y-129541680D01*
X163641426Y-129649853D01*
X163918665Y-129705000D01*
X164201335Y-129705000D01*
X164478574Y-129649853D01*
X164739727Y-129541680D01*
X164974759Y-129384637D01*
X165174637Y-129184759D01*
X165331680Y-128949727D01*
X165439853Y-128688574D01*
X165445000Y-128662699D01*
X165450147Y-128688574D01*
X165558320Y-128949727D01*
X165715363Y-129184759D01*
X165915241Y-129384637D01*
X166150273Y-129541680D01*
X166411426Y-129649853D01*
X166688665Y-129705000D01*
X166971335Y-129705000D01*
X167248574Y-129649853D01*
X167509727Y-129541680D01*
X167744759Y-129384637D01*
X167866694Y-129262702D01*
X168786903Y-129262702D01*
X168858486Y-129506671D01*
X169113996Y-129627571D01*
X169388184Y-129696300D01*
X169670512Y-129710217D01*
X169950130Y-129668787D01*
X170216292Y-129573603D01*
X170341514Y-129506671D01*
X170413097Y-129262702D01*
X169600000Y-128449605D01*
X168786903Y-129262702D01*
X167866694Y-129262702D01*
X167944637Y-129184759D01*
X168101680Y-128949727D01*
X168209853Y-128688574D01*
X168215513Y-128660118D01*
X168296397Y-128886292D01*
X168363329Y-129011514D01*
X168607298Y-129083097D01*
X169420395Y-128270000D01*
X169779605Y-128270000D01*
X170592702Y-129083097D01*
X170836671Y-129011514D01*
X170957571Y-128756004D01*
X170983212Y-128653711D01*
X170990147Y-128688574D01*
X171098320Y-128949727D01*
X171255363Y-129184759D01*
X171455241Y-129384637D01*
X171690273Y-129541680D01*
X171951426Y-129649853D01*
X172228665Y-129705000D01*
X172511335Y-129705000D01*
X172788574Y-129649853D01*
X173049727Y-129541680D01*
X173284759Y-129384637D01*
X173484637Y-129184759D01*
X173641680Y-128949727D01*
X173749853Y-128688574D01*
X173805000Y-128411335D01*
X173805000Y-128310475D01*
X176695000Y-128310475D01*
X176695000Y-128829525D01*
X176796261Y-129338601D01*
X176994893Y-129818141D01*
X177283262Y-130249715D01*
X177650285Y-130616738D01*
X178081859Y-130905107D01*
X178561399Y-131103739D01*
X179070475Y-131205000D01*
X179589525Y-131205000D01*
X180098601Y-131103739D01*
X180578141Y-130905107D01*
X181009715Y-130616738D01*
X181376738Y-130249715D01*
X181665107Y-129818141D01*
X181863739Y-129338601D01*
X181965000Y-128829525D01*
X181965000Y-128310475D01*
X181863739Y-127801399D01*
X181665107Y-127321859D01*
X181376738Y-126890285D01*
X181009715Y-126523262D01*
X180578141Y-126234893D01*
X180098601Y-126036261D01*
X179589525Y-125935000D01*
X179070475Y-125935000D01*
X178561399Y-126036261D01*
X178081859Y-126234893D01*
X177650285Y-126523262D01*
X177283262Y-126890285D01*
X176994893Y-127321859D01*
X176796261Y-127801399D01*
X176695000Y-128310475D01*
X173805000Y-128310475D01*
X173805000Y-128128665D01*
X173749853Y-127851426D01*
X173641680Y-127590273D01*
X173484637Y-127355241D01*
X173284759Y-127155363D01*
X173049727Y-126998320D01*
X172788574Y-126890147D01*
X172511335Y-126835000D01*
X172228665Y-126835000D01*
X171951426Y-126890147D01*
X171690273Y-126998320D01*
X171455241Y-127155363D01*
X171255363Y-127355241D01*
X171098320Y-127590273D01*
X170990147Y-127851426D01*
X170984487Y-127879882D01*
X170903603Y-127653708D01*
X170836671Y-127528486D01*
X170592702Y-127456903D01*
X169779605Y-128270000D01*
X169420395Y-128270000D01*
X168607298Y-127456903D01*
X168363329Y-127528486D01*
X168242429Y-127783996D01*
X168216788Y-127886289D01*
X168209853Y-127851426D01*
X168101680Y-127590273D01*
X167944637Y-127355241D01*
X167866694Y-127277298D01*
X168786903Y-127277298D01*
X169600000Y-128090395D01*
X170413097Y-127277298D01*
X170341514Y-127033329D01*
X170086004Y-126912429D01*
X169811816Y-126843700D01*
X169529488Y-126829783D01*
X169249870Y-126871213D01*
X168983708Y-126966397D01*
X168858486Y-127033329D01*
X168786903Y-127277298D01*
X167866694Y-127277298D01*
X167744759Y-127155363D01*
X167509727Y-126998320D01*
X167248574Y-126890147D01*
X166971335Y-126835000D01*
X166688665Y-126835000D01*
X166411426Y-126890147D01*
X166150273Y-126998320D01*
X165915241Y-127155363D01*
X165715363Y-127355241D01*
X165558320Y-127590273D01*
X165450147Y-127851426D01*
X165445000Y-127877301D01*
X165439853Y-127851426D01*
X165331680Y-127590273D01*
X165174637Y-127355241D01*
X164974759Y-127155363D01*
X164739727Y-126998320D01*
X164478574Y-126890147D01*
X164201335Y-126835000D01*
X163918665Y-126835000D01*
X163641426Y-126890147D01*
X163380273Y-126998320D01*
X163145241Y-127155363D01*
X162945363Y-127355241D01*
X162788320Y-127590273D01*
X162726461Y-127739613D01*
X162728072Y-127470000D01*
X162715812Y-127345518D01*
X162679502Y-127225820D01*
X162620537Y-127115506D01*
X162541185Y-127018815D01*
X162444494Y-126939463D01*
X162334180Y-126880498D01*
X162214482Y-126844188D01*
X162090000Y-126831928D01*
X161575750Y-126835000D01*
X161417000Y-126993750D01*
X161163000Y-126993750D01*
X161004250Y-126835000D01*
X160490000Y-126831928D01*
X160365518Y-126844188D01*
X160245820Y-126880498D01*
X160135506Y-126939463D01*
X160038815Y-127018815D01*
X159959463Y-127115506D01*
X159900498Y-127225820D01*
X159864188Y-127345518D01*
X159851928Y-127470000D01*
X156726470Y-127470000D01*
X156665107Y-127321859D01*
X156376738Y-126890285D01*
X156009715Y-126523262D01*
X155578141Y-126234893D01*
X155098601Y-126036261D01*
X154589525Y-125935000D01*
X154070475Y-125935000D01*
X153561399Y-126036261D01*
X153081859Y-126234893D01*
X152650285Y-126523262D01*
X152283262Y-126890285D01*
X151994893Y-127321859D01*
X151796261Y-127801399D01*
X151695000Y-128310475D01*
X151257000Y-128310475D01*
X151257000Y-121749117D01*
X151935000Y-121749117D01*
X151935000Y-122090883D01*
X152001675Y-122426081D01*
X152132463Y-122741831D01*
X152322337Y-123025998D01*
X152564002Y-123267663D01*
X152848169Y-123457537D01*
X153163919Y-123588325D01*
X153499117Y-123655000D01*
X153840883Y-123655000D01*
X154176081Y-123588325D01*
X154491831Y-123457537D01*
X154775998Y-123267663D01*
X155017663Y-123025998D01*
X155207537Y-122741831D01*
X155338325Y-122426081D01*
X155405000Y-122090883D01*
X155405000Y-121749117D01*
X178605000Y-121749117D01*
X178605000Y-122090883D01*
X178671675Y-122426081D01*
X178802463Y-122741831D01*
X178992337Y-123025998D01*
X179234002Y-123267663D01*
X179518169Y-123457537D01*
X179833919Y-123588325D01*
X180169117Y-123655000D01*
X180510883Y-123655000D01*
X180846081Y-123588325D01*
X181161831Y-123457537D01*
X181445998Y-123267663D01*
X181687663Y-123025998D01*
X181877537Y-122741831D01*
X182008325Y-122426081D01*
X182075000Y-122090883D01*
X182075000Y-121749117D01*
X182008325Y-121413919D01*
X181877537Y-121098169D01*
X181687663Y-120814002D01*
X181445998Y-120572337D01*
X181161831Y-120382463D01*
X180846081Y-120251675D01*
X180510883Y-120185000D01*
X180169117Y-120185000D01*
X179833919Y-120251675D01*
X179518169Y-120382463D01*
X179234002Y-120572337D01*
X178992337Y-120814002D01*
X178802463Y-121098169D01*
X178671675Y-121413919D01*
X178605000Y-121749117D01*
X155405000Y-121749117D01*
X155338325Y-121413919D01*
X155207537Y-121098169D01*
X155017663Y-120814002D01*
X154775998Y-120572337D01*
X154491831Y-120382463D01*
X154176081Y-120251675D01*
X153840883Y-120185000D01*
X153499117Y-120185000D01*
X153163919Y-120251675D01*
X152848169Y-120382463D01*
X152564002Y-120572337D01*
X152322337Y-120814002D01*
X152132463Y-121098169D01*
X152001675Y-121413919D01*
X151935000Y-121749117D01*
X151257000Y-121749117D01*
X151257000Y-116738061D01*
X172955000Y-116738061D01*
X172955000Y-116941939D01*
X172994774Y-117141898D01*
X173072795Y-117330256D01*
X173186063Y-117499774D01*
X173330226Y-117643937D01*
X173499744Y-117757205D01*
X173688102Y-117835226D01*
X173888061Y-117875000D01*
X174091939Y-117875000D01*
X174291898Y-117835226D01*
X174480256Y-117757205D01*
X174649774Y-117643937D01*
X174793937Y-117499774D01*
X174907205Y-117330256D01*
X174985226Y-117141898D01*
X175025000Y-116941939D01*
X175025000Y-116738061D01*
X174985226Y-116538102D01*
X174907205Y-116349744D01*
X174793937Y-116180226D01*
X174649774Y-116036063D01*
X174480256Y-115922795D01*
X174291898Y-115844774D01*
X174091939Y-115805000D01*
X173888061Y-115805000D01*
X173688102Y-115844774D01*
X173499744Y-115922795D01*
X173330226Y-116036063D01*
X173186063Y-116180226D01*
X173072795Y-116349744D01*
X172994774Y-116538102D01*
X172955000Y-116738061D01*
X151257000Y-116738061D01*
X151257000Y-108915565D01*
X163044040Y-108915565D01*
X163111020Y-109155656D01*
X163360048Y-109272756D01*
X163627135Y-109339023D01*
X163902017Y-109351910D01*
X164174133Y-109310922D01*
X164433023Y-109217636D01*
X164548980Y-109155656D01*
X164615960Y-108915565D01*
X163830000Y-108129605D01*
X163044040Y-108915565D01*
X151257000Y-108915565D01*
X151257000Y-108022017D01*
X162428090Y-108022017D01*
X162469078Y-108294133D01*
X162562364Y-108553023D01*
X162624344Y-108668980D01*
X162864435Y-108735960D01*
X163650395Y-107950000D01*
X164009605Y-107950000D01*
X164795565Y-108735960D01*
X165035656Y-108668980D01*
X165099485Y-108533240D01*
X165131995Y-108611727D01*
X165284880Y-108840535D01*
X165479465Y-109035120D01*
X165708273Y-109188005D01*
X165962510Y-109293314D01*
X166232408Y-109347000D01*
X166507592Y-109347000D01*
X166777490Y-109293314D01*
X167031727Y-109188005D01*
X167260535Y-109035120D01*
X167455120Y-108840535D01*
X167608005Y-108611727D01*
X167640000Y-108534485D01*
X167671995Y-108611727D01*
X167824880Y-108840535D01*
X168019465Y-109035120D01*
X168248273Y-109188005D01*
X168502510Y-109293314D01*
X168772408Y-109347000D01*
X169047592Y-109347000D01*
X169317490Y-109293314D01*
X169571727Y-109188005D01*
X169800535Y-109035120D01*
X169995120Y-108840535D01*
X170148005Y-108611727D01*
X170180000Y-108534485D01*
X170211995Y-108611727D01*
X170364880Y-108840535D01*
X170559465Y-109035120D01*
X170788273Y-109188005D01*
X171042510Y-109293314D01*
X171312408Y-109347000D01*
X171587592Y-109347000D01*
X171857490Y-109293314D01*
X172111727Y-109188005D01*
X172340535Y-109035120D01*
X172535120Y-108840535D01*
X172688005Y-108611727D01*
X172793314Y-108357490D01*
X172847000Y-108087592D01*
X172847000Y-107812408D01*
X172793314Y-107542510D01*
X172688005Y-107288273D01*
X172535120Y-107059465D01*
X172340535Y-106864880D01*
X172111727Y-106711995D01*
X171857490Y-106606686D01*
X171587592Y-106553000D01*
X171312408Y-106553000D01*
X171042510Y-106606686D01*
X170788273Y-106711995D01*
X170559465Y-106864880D01*
X170364880Y-107059465D01*
X170211995Y-107288273D01*
X170180000Y-107365515D01*
X170148005Y-107288273D01*
X169995120Y-107059465D01*
X169800535Y-106864880D01*
X169571727Y-106711995D01*
X169317490Y-106606686D01*
X169047592Y-106553000D01*
X168772408Y-106553000D01*
X168502510Y-106606686D01*
X168248273Y-106711995D01*
X168019465Y-106864880D01*
X167824880Y-107059465D01*
X167671995Y-107288273D01*
X167640000Y-107365515D01*
X167608005Y-107288273D01*
X167455120Y-107059465D01*
X167260535Y-106864880D01*
X167031727Y-106711995D01*
X166777490Y-106606686D01*
X166507592Y-106553000D01*
X166232408Y-106553000D01*
X165962510Y-106606686D01*
X165708273Y-106711995D01*
X165479465Y-106864880D01*
X165284880Y-107059465D01*
X165131995Y-107288273D01*
X165102308Y-107359943D01*
X165097636Y-107346977D01*
X165035656Y-107231020D01*
X164795565Y-107164040D01*
X164009605Y-107950000D01*
X163650395Y-107950000D01*
X162864435Y-107164040D01*
X162624344Y-107231020D01*
X162507244Y-107480048D01*
X162440977Y-107747135D01*
X162428090Y-108022017D01*
X151257000Y-108022017D01*
X151257000Y-106984435D01*
X163044040Y-106984435D01*
X163830000Y-107770395D01*
X164615960Y-106984435D01*
X164548980Y-106744344D01*
X164299952Y-106627244D01*
X164032865Y-106560977D01*
X163757983Y-106548090D01*
X163485867Y-106589078D01*
X163226977Y-106682364D01*
X163111020Y-106744344D01*
X163044040Y-106984435D01*
X151257000Y-106984435D01*
X151257000Y-103340000D01*
X158581928Y-103340000D01*
X158581928Y-104940000D01*
X158594188Y-105064482D01*
X158630498Y-105184180D01*
X158689463Y-105294494D01*
X158768815Y-105391185D01*
X158865506Y-105470537D01*
X158975820Y-105529502D01*
X159095518Y-105565812D01*
X159220000Y-105578072D01*
X160820000Y-105578072D01*
X160944482Y-105565812D01*
X161064180Y-105529502D01*
X161174494Y-105470537D01*
X161271185Y-105391185D01*
X161350537Y-105294494D01*
X161409502Y-105184180D01*
X161445812Y-105064482D01*
X161458072Y-104940000D01*
X161458072Y-103998665D01*
X173825000Y-103998665D01*
X173825000Y-104281335D01*
X173880147Y-104558574D01*
X173988320Y-104819727D01*
X174145363Y-105054759D01*
X174345241Y-105254637D01*
X174580273Y-105411680D01*
X174841426Y-105519853D01*
X175118665Y-105575000D01*
X175401335Y-105575000D01*
X175678574Y-105519853D01*
X175939727Y-105411680D01*
X176174759Y-105254637D01*
X176374637Y-105054759D01*
X176531680Y-104819727D01*
X176639853Y-104558574D01*
X176695000Y-104281335D01*
X176695000Y-103998665D01*
X176639853Y-103721426D01*
X176531680Y-103460273D01*
X176374637Y-103225241D01*
X176174759Y-103025363D01*
X175939727Y-102868320D01*
X175929135Y-102863933D01*
X176115131Y-102752385D01*
X176323519Y-102563414D01*
X176491037Y-102337420D01*
X176611246Y-102083087D01*
X176651904Y-101949039D01*
X176529915Y-101727000D01*
X175387000Y-101727000D01*
X175387000Y-101747000D01*
X175133000Y-101747000D01*
X175133000Y-101727000D01*
X173990085Y-101727000D01*
X173868096Y-101949039D01*
X173908754Y-102083087D01*
X174028963Y-102337420D01*
X174196481Y-102563414D01*
X174404869Y-102752385D01*
X174590865Y-102863933D01*
X174580273Y-102868320D01*
X174345241Y-103025363D01*
X174145363Y-103225241D01*
X173988320Y-103460273D01*
X173880147Y-103721426D01*
X173825000Y-103998665D01*
X161458072Y-103998665D01*
X161458072Y-103340000D01*
X161445812Y-103215518D01*
X161409502Y-103095820D01*
X161350537Y-102985506D01*
X161271185Y-102888815D01*
X161174494Y-102809463D01*
X161064180Y-102750498D01*
X160944482Y-102714188D01*
X160936039Y-102713357D01*
X161134637Y-102514759D01*
X161291680Y-102279727D01*
X161399853Y-102018574D01*
X161455000Y-101741335D01*
X161455000Y-101458665D01*
X161399853Y-101181426D01*
X161291680Y-100920273D01*
X161134637Y-100685241D01*
X160934759Y-100485363D01*
X160702241Y-100330000D01*
X160934759Y-100174637D01*
X161134637Y-99974759D01*
X161291680Y-99739727D01*
X161399853Y-99478574D01*
X161455000Y-99201335D01*
X161455000Y-98918665D01*
X161399853Y-98641426D01*
X161291680Y-98380273D01*
X161134637Y-98145241D01*
X160934759Y-97945363D01*
X160699727Y-97788320D01*
X160689135Y-97783933D01*
X160875131Y-97672385D01*
X161083519Y-97483414D01*
X161251037Y-97257420D01*
X161371246Y-97003087D01*
X161411904Y-96869039D01*
X161289915Y-96647000D01*
X160147000Y-96647000D01*
X160147000Y-96667000D01*
X159893000Y-96667000D01*
X159893000Y-96647000D01*
X158750085Y-96647000D01*
X158628096Y-96869039D01*
X158668754Y-97003087D01*
X158788963Y-97257420D01*
X158956481Y-97483414D01*
X159164869Y-97672385D01*
X159350865Y-97783933D01*
X159340273Y-97788320D01*
X159105241Y-97945363D01*
X158905363Y-98145241D01*
X158748320Y-98380273D01*
X158640147Y-98641426D01*
X158585000Y-98918665D01*
X158585000Y-99201335D01*
X158640147Y-99478574D01*
X158748320Y-99739727D01*
X158905363Y-99974759D01*
X159105241Y-100174637D01*
X159337759Y-100330000D01*
X159105241Y-100485363D01*
X158905363Y-100685241D01*
X158748320Y-100920273D01*
X158640147Y-101181426D01*
X158585000Y-101458665D01*
X158585000Y-101741335D01*
X158640147Y-102018574D01*
X158748320Y-102279727D01*
X158905363Y-102514759D01*
X159103961Y-102713357D01*
X159095518Y-102714188D01*
X158975820Y-102750498D01*
X158865506Y-102809463D01*
X158768815Y-102888815D01*
X158689463Y-102985506D01*
X158630498Y-103095820D01*
X158594188Y-103215518D01*
X158581928Y-103340000D01*
X151257000Y-103340000D01*
X151257000Y-77890000D01*
X152181928Y-77890000D01*
X152181928Y-79590000D01*
X152194188Y-79714482D01*
X152230498Y-79834180D01*
X152289463Y-79944494D01*
X152368815Y-80041185D01*
X152465506Y-80120537D01*
X152575820Y-80179502D01*
X152695518Y-80215812D01*
X152820000Y-80228072D01*
X154520000Y-80228072D01*
X154644482Y-80215812D01*
X154764180Y-80179502D01*
X154874494Y-80120537D01*
X154971185Y-80041185D01*
X155050537Y-79944494D01*
X155109502Y-79834180D01*
X155145812Y-79714482D01*
X155158072Y-79590000D01*
X155158072Y-77890000D01*
X155145812Y-77765518D01*
X155109502Y-77645820D01*
X155050537Y-77535506D01*
X154971185Y-77438815D01*
X154874494Y-77359463D01*
X154764180Y-77300498D01*
X154691620Y-77278487D01*
X154823475Y-77146632D01*
X154985990Y-76903411D01*
X155097932Y-76633158D01*
X155155000Y-76346260D01*
X155155000Y-76053740D01*
X155097932Y-75766842D01*
X154985990Y-75496589D01*
X154823475Y-75253368D01*
X154616632Y-75046525D01*
X154442240Y-74930000D01*
X154616632Y-74813475D01*
X154823475Y-74606632D01*
X154985990Y-74363411D01*
X155097932Y-74093158D01*
X155155000Y-73806260D01*
X155155000Y-73513740D01*
X155097932Y-73226842D01*
X154985990Y-72956589D01*
X154823475Y-72713368D01*
X154616632Y-72506525D01*
X154442240Y-72390000D01*
X154616632Y-72273475D01*
X154823475Y-72066632D01*
X154985990Y-71823411D01*
X155097932Y-71553158D01*
X155155000Y-71266260D01*
X155155000Y-70973740D01*
X155097932Y-70686842D01*
X154985990Y-70416589D01*
X154823475Y-70173368D01*
X154616632Y-69966525D01*
X154442240Y-69850000D01*
X154616632Y-69733475D01*
X154823475Y-69526632D01*
X154985990Y-69283411D01*
X155097932Y-69013158D01*
X155155000Y-68726260D01*
X155155000Y-68478061D01*
X156445000Y-68478061D01*
X156445000Y-68681939D01*
X156484774Y-68881898D01*
X156562795Y-69070256D01*
X156676063Y-69239774D01*
X156820226Y-69383937D01*
X156989744Y-69497205D01*
X157178102Y-69575226D01*
X157378061Y-69615000D01*
X157581939Y-69615000D01*
X157781898Y-69575226D01*
X157970256Y-69497205D01*
X158139774Y-69383937D01*
X158283937Y-69239774D01*
X158397205Y-69070256D01*
X158475226Y-68881898D01*
X158515000Y-68681939D01*
X158515000Y-68478061D01*
X158507164Y-68438665D01*
X158585000Y-68438665D01*
X158585000Y-68721335D01*
X158640147Y-68998574D01*
X158748320Y-69259727D01*
X158905363Y-69494759D01*
X159105241Y-69694637D01*
X159337759Y-69850000D01*
X159105241Y-70005363D01*
X158905363Y-70205241D01*
X158748320Y-70440273D01*
X158640147Y-70701426D01*
X158585000Y-70978665D01*
X158585000Y-71261335D01*
X158640147Y-71538574D01*
X158748320Y-71799727D01*
X158905363Y-72034759D01*
X159105241Y-72234637D01*
X159337759Y-72390000D01*
X159105241Y-72545363D01*
X158905363Y-72745241D01*
X158748320Y-72980273D01*
X158640147Y-73241426D01*
X158585000Y-73518665D01*
X158585000Y-73801335D01*
X158640147Y-74078574D01*
X158748320Y-74339727D01*
X158905363Y-74574759D01*
X159105241Y-74774637D01*
X159337759Y-74930000D01*
X159105241Y-75085363D01*
X158905363Y-75285241D01*
X158748320Y-75520273D01*
X158640147Y-75781426D01*
X158585000Y-76058665D01*
X158585000Y-76341335D01*
X158640147Y-76618574D01*
X158748320Y-76879727D01*
X158905363Y-77114759D01*
X159105241Y-77314637D01*
X159337759Y-77470000D01*
X159105241Y-77625363D01*
X158905363Y-77825241D01*
X158748320Y-78060273D01*
X158640147Y-78321426D01*
X158585000Y-78598665D01*
X158585000Y-78881335D01*
X158640147Y-79158574D01*
X158748320Y-79419727D01*
X158905363Y-79654759D01*
X159105241Y-79854637D01*
X159337759Y-80010000D01*
X159105241Y-80165363D01*
X158905363Y-80365241D01*
X158748320Y-80600273D01*
X158640147Y-80861426D01*
X158585000Y-81138665D01*
X158585000Y-81421335D01*
X158640147Y-81698574D01*
X158748320Y-81959727D01*
X158905363Y-82194759D01*
X159105241Y-82394637D01*
X159337759Y-82550000D01*
X159105241Y-82705363D01*
X158905363Y-82905241D01*
X158748320Y-83140273D01*
X158640147Y-83401426D01*
X158585000Y-83678665D01*
X158585000Y-83961335D01*
X158640147Y-84238574D01*
X158748320Y-84499727D01*
X158905363Y-84734759D01*
X159105241Y-84934637D01*
X159337759Y-85090000D01*
X159105241Y-85245363D01*
X158905363Y-85445241D01*
X158748320Y-85680273D01*
X158640147Y-85941426D01*
X158585000Y-86218665D01*
X158585000Y-86501335D01*
X158640147Y-86778574D01*
X158748320Y-87039727D01*
X158905363Y-87274759D01*
X159105241Y-87474637D01*
X159337759Y-87630000D01*
X159105241Y-87785363D01*
X158905363Y-87985241D01*
X158748320Y-88220273D01*
X158640147Y-88481426D01*
X158585000Y-88758665D01*
X158585000Y-89041335D01*
X158640147Y-89318574D01*
X158748320Y-89579727D01*
X158905363Y-89814759D01*
X159105241Y-90014637D01*
X159337759Y-90170000D01*
X159105241Y-90325363D01*
X158905363Y-90525241D01*
X158748320Y-90760273D01*
X158640147Y-91021426D01*
X158585000Y-91298665D01*
X158585000Y-91581335D01*
X158640147Y-91858574D01*
X158748320Y-92119727D01*
X158905363Y-92354759D01*
X159105241Y-92554637D01*
X159337759Y-92710000D01*
X159105241Y-92865363D01*
X158905363Y-93065241D01*
X158748320Y-93300273D01*
X158640147Y-93561426D01*
X158585000Y-93838665D01*
X158585000Y-94121335D01*
X158640147Y-94398574D01*
X158748320Y-94659727D01*
X158905363Y-94894759D01*
X159105241Y-95094637D01*
X159340273Y-95251680D01*
X159350865Y-95256067D01*
X159164869Y-95367615D01*
X158956481Y-95556586D01*
X158788963Y-95782580D01*
X158668754Y-96036913D01*
X158628096Y-96170961D01*
X158750085Y-96393000D01*
X159893000Y-96393000D01*
X159893000Y-96373000D01*
X160147000Y-96373000D01*
X160147000Y-96393000D01*
X161289915Y-96393000D01*
X161411904Y-96170961D01*
X161371246Y-96036913D01*
X161251037Y-95782580D01*
X161083519Y-95556586D01*
X160875131Y-95367615D01*
X160689135Y-95256067D01*
X160699727Y-95251680D01*
X160934759Y-95094637D01*
X161134637Y-94894759D01*
X161291680Y-94659727D01*
X161399853Y-94398574D01*
X161455000Y-94121335D01*
X161455000Y-93838665D01*
X161399853Y-93561426D01*
X161291680Y-93300273D01*
X161134637Y-93065241D01*
X160934759Y-92865363D01*
X160702241Y-92710000D01*
X160854804Y-92608061D01*
X161525000Y-92608061D01*
X161525000Y-92811939D01*
X161564774Y-93011898D01*
X161642795Y-93200256D01*
X161756063Y-93369774D01*
X161900226Y-93513937D01*
X162069744Y-93627205D01*
X162258102Y-93705226D01*
X162458061Y-93745000D01*
X162661939Y-93745000D01*
X162861898Y-93705226D01*
X163050256Y-93627205D01*
X163219774Y-93513937D01*
X163363937Y-93369774D01*
X163477205Y-93200256D01*
X163555226Y-93011898D01*
X163595000Y-92811939D01*
X163595000Y-92608061D01*
X163555226Y-92408102D01*
X163477205Y-92219744D01*
X163363937Y-92050226D01*
X163219774Y-91906063D01*
X163050256Y-91792795D01*
X162861898Y-91714774D01*
X162661939Y-91675000D01*
X162458061Y-91675000D01*
X162258102Y-91714774D01*
X162069744Y-91792795D01*
X161900226Y-91906063D01*
X161756063Y-92050226D01*
X161642795Y-92219744D01*
X161564774Y-92408102D01*
X161525000Y-92608061D01*
X160854804Y-92608061D01*
X160934759Y-92554637D01*
X161134637Y-92354759D01*
X161291680Y-92119727D01*
X161399853Y-91858574D01*
X161455000Y-91581335D01*
X161455000Y-91298665D01*
X161399853Y-91021426D01*
X161291680Y-90760273D01*
X161134637Y-90525241D01*
X160934759Y-90325363D01*
X160702241Y-90170000D01*
X160854804Y-90068061D01*
X161525000Y-90068061D01*
X161525000Y-90271939D01*
X161564774Y-90471898D01*
X161642795Y-90660256D01*
X161756063Y-90829774D01*
X161900226Y-90973937D01*
X162069744Y-91087205D01*
X162258102Y-91165226D01*
X162458061Y-91205000D01*
X162661939Y-91205000D01*
X162861898Y-91165226D01*
X163050256Y-91087205D01*
X163219774Y-90973937D01*
X163363937Y-90829774D01*
X163477205Y-90660256D01*
X163555226Y-90471898D01*
X163595000Y-90271939D01*
X163595000Y-90068061D01*
X163555226Y-89868102D01*
X163477205Y-89679744D01*
X163363937Y-89510226D01*
X163219774Y-89366063D01*
X163050256Y-89252795D01*
X162861898Y-89174774D01*
X162661939Y-89135000D01*
X162458061Y-89135000D01*
X162258102Y-89174774D01*
X162069744Y-89252795D01*
X161900226Y-89366063D01*
X161756063Y-89510226D01*
X161642795Y-89679744D01*
X161564774Y-89868102D01*
X161525000Y-90068061D01*
X160854804Y-90068061D01*
X160934759Y-90014637D01*
X161134637Y-89814759D01*
X161291680Y-89579727D01*
X161399853Y-89318574D01*
X161455000Y-89041335D01*
X161455000Y-88758665D01*
X161399853Y-88481426D01*
X161291680Y-88220273D01*
X161134637Y-87985241D01*
X160934759Y-87785363D01*
X160702241Y-87630000D01*
X160934759Y-87474637D01*
X161134637Y-87274759D01*
X161291680Y-87039727D01*
X161399853Y-86778574D01*
X161455000Y-86501335D01*
X161455000Y-86218665D01*
X161399853Y-85941426D01*
X161291680Y-85680273D01*
X161134637Y-85445241D01*
X160934759Y-85245363D01*
X160702241Y-85090000D01*
X160934759Y-84934637D01*
X161134637Y-84734759D01*
X161291680Y-84499727D01*
X161399853Y-84238574D01*
X161455000Y-83961335D01*
X161455000Y-83678665D01*
X161399853Y-83401426D01*
X161291680Y-83140273D01*
X161134637Y-82905241D01*
X160934759Y-82705363D01*
X160702241Y-82550000D01*
X160934759Y-82394637D01*
X161134637Y-82194759D01*
X161291680Y-81959727D01*
X161399853Y-81698574D01*
X161455000Y-81421335D01*
X161455000Y-81138665D01*
X161399853Y-80861426D01*
X161291680Y-80600273D01*
X161134637Y-80365241D01*
X160934759Y-80165363D01*
X160702241Y-80010000D01*
X160934759Y-79854637D01*
X161134637Y-79654759D01*
X161291680Y-79419727D01*
X161399853Y-79158574D01*
X161455000Y-78881335D01*
X161455000Y-78598665D01*
X161399853Y-78321426D01*
X161291680Y-78060273D01*
X161134637Y-77825241D01*
X160934759Y-77625363D01*
X160702241Y-77470000D01*
X160934759Y-77314637D01*
X161134637Y-77114759D01*
X161291680Y-76879727D01*
X161399853Y-76618574D01*
X161455000Y-76341335D01*
X161455000Y-76058665D01*
X161399853Y-75781426D01*
X161291680Y-75520273D01*
X161134637Y-75285241D01*
X160934759Y-75085363D01*
X160702241Y-74930000D01*
X160934759Y-74774637D01*
X161134637Y-74574759D01*
X161291680Y-74339727D01*
X161399853Y-74078574D01*
X161455000Y-73801335D01*
X161455000Y-73558061D01*
X165335000Y-73558061D01*
X165335000Y-73761939D01*
X165374774Y-73961898D01*
X165452795Y-74150256D01*
X165566063Y-74319774D01*
X165710226Y-74463937D01*
X165879744Y-74577205D01*
X166068102Y-74655226D01*
X166268061Y-74695000D01*
X166471939Y-74695000D01*
X166671898Y-74655226D01*
X166860256Y-74577205D01*
X167029774Y-74463937D01*
X167173937Y-74319774D01*
X167287205Y-74150256D01*
X167365226Y-73961898D01*
X167405000Y-73761939D01*
X167405000Y-73558061D01*
X167365226Y-73358102D01*
X167287205Y-73169744D01*
X167173937Y-73000226D01*
X167029774Y-72856063D01*
X166860256Y-72742795D01*
X166671898Y-72664774D01*
X166471939Y-72625000D01*
X166268061Y-72625000D01*
X166068102Y-72664774D01*
X165879744Y-72742795D01*
X165710226Y-72856063D01*
X165566063Y-73000226D01*
X165452795Y-73169744D01*
X165374774Y-73358102D01*
X165335000Y-73558061D01*
X161455000Y-73558061D01*
X161455000Y-73518665D01*
X161399853Y-73241426D01*
X161291680Y-72980273D01*
X161134637Y-72745241D01*
X160934759Y-72545363D01*
X160702241Y-72390000D01*
X160934759Y-72234637D01*
X161134637Y-72034759D01*
X161291680Y-71799727D01*
X161399853Y-71538574D01*
X161455000Y-71261335D01*
X161455000Y-71018061D01*
X167875000Y-71018061D01*
X167875000Y-71221939D01*
X167914774Y-71421898D01*
X167992795Y-71610256D01*
X168106063Y-71779774D01*
X168250226Y-71923937D01*
X168419744Y-72037205D01*
X168608102Y-72115226D01*
X168808061Y-72155000D01*
X169011939Y-72155000D01*
X169211898Y-72115226D01*
X169400256Y-72037205D01*
X169569774Y-71923937D01*
X169713937Y-71779774D01*
X169827205Y-71610256D01*
X169905226Y-71421898D01*
X169945000Y-71221939D01*
X169945000Y-71018061D01*
X169905226Y-70818102D01*
X169827205Y-70629744D01*
X169713937Y-70460226D01*
X169569774Y-70316063D01*
X169400256Y-70202795D01*
X169211898Y-70124774D01*
X169011939Y-70085000D01*
X168808061Y-70085000D01*
X168608102Y-70124774D01*
X168419744Y-70202795D01*
X168250226Y-70316063D01*
X168106063Y-70460226D01*
X167992795Y-70629744D01*
X167914774Y-70818102D01*
X167875000Y-71018061D01*
X161455000Y-71018061D01*
X161455000Y-70978665D01*
X161399853Y-70701426D01*
X161291680Y-70440273D01*
X161134637Y-70205241D01*
X160934759Y-70005363D01*
X160702241Y-69850000D01*
X160934759Y-69694637D01*
X161134637Y-69494759D01*
X161291680Y-69259727D01*
X161399853Y-68998574D01*
X161455000Y-68721335D01*
X161455000Y-68438665D01*
X173825000Y-68438665D01*
X173825000Y-68721335D01*
X173880147Y-68998574D01*
X173988320Y-69259727D01*
X174145363Y-69494759D01*
X174345241Y-69694637D01*
X174577759Y-69850000D01*
X174345241Y-70005363D01*
X174145363Y-70205241D01*
X173988320Y-70440273D01*
X173880147Y-70701426D01*
X173825000Y-70978665D01*
X173825000Y-71261335D01*
X173880147Y-71538574D01*
X173988320Y-71799727D01*
X174145363Y-72034759D01*
X174345241Y-72234637D01*
X174577759Y-72390000D01*
X174345241Y-72545363D01*
X174145363Y-72745241D01*
X173988320Y-72980273D01*
X173880147Y-73241426D01*
X173825000Y-73518665D01*
X173825000Y-73801335D01*
X173880147Y-74078574D01*
X173988320Y-74339727D01*
X174145363Y-74574759D01*
X174345241Y-74774637D01*
X174577759Y-74930000D01*
X174345241Y-75085363D01*
X174145363Y-75285241D01*
X173988320Y-75520273D01*
X173880147Y-75781426D01*
X173825000Y-76058665D01*
X173825000Y-76341335D01*
X173880147Y-76618574D01*
X173988320Y-76879727D01*
X174145363Y-77114759D01*
X174345241Y-77314637D01*
X174577759Y-77470000D01*
X174345241Y-77625363D01*
X174145363Y-77825241D01*
X173988320Y-78060273D01*
X173880147Y-78321426D01*
X173825000Y-78598665D01*
X173825000Y-78881335D01*
X173880147Y-79158574D01*
X173988320Y-79419727D01*
X174145363Y-79654759D01*
X174345241Y-79854637D01*
X174577759Y-80010000D01*
X174345241Y-80165363D01*
X174145363Y-80365241D01*
X173988320Y-80600273D01*
X173880147Y-80861426D01*
X173825000Y-81138665D01*
X173825000Y-81421335D01*
X173880147Y-81698574D01*
X173988320Y-81959727D01*
X174145363Y-82194759D01*
X174345241Y-82394637D01*
X174577759Y-82550000D01*
X174345241Y-82705363D01*
X174145363Y-82905241D01*
X173988320Y-83140273D01*
X173880147Y-83401426D01*
X173825000Y-83678665D01*
X173825000Y-83961335D01*
X173880147Y-84238574D01*
X173988320Y-84499727D01*
X174145363Y-84734759D01*
X174345241Y-84934637D01*
X174577759Y-85090000D01*
X174345241Y-85245363D01*
X174145363Y-85445241D01*
X173988320Y-85680273D01*
X173880147Y-85941426D01*
X173825000Y-86218665D01*
X173825000Y-86501335D01*
X173880147Y-86778574D01*
X173988320Y-87039727D01*
X174145363Y-87274759D01*
X174345241Y-87474637D01*
X174577759Y-87630000D01*
X174345241Y-87785363D01*
X174145363Y-87985241D01*
X173988320Y-88220273D01*
X173880147Y-88481426D01*
X173825000Y-88758665D01*
X173825000Y-89041335D01*
X173880147Y-89318574D01*
X173988320Y-89579727D01*
X174145363Y-89814759D01*
X174345241Y-90014637D01*
X174577759Y-90170000D01*
X174345241Y-90325363D01*
X174145363Y-90525241D01*
X173988320Y-90760273D01*
X173880147Y-91021426D01*
X173825000Y-91298665D01*
X173825000Y-91581335D01*
X173880147Y-91858574D01*
X173988320Y-92119727D01*
X174145363Y-92354759D01*
X174345241Y-92554637D01*
X174577759Y-92710000D01*
X174345241Y-92865363D01*
X174145363Y-93065241D01*
X173988320Y-93300273D01*
X173880147Y-93561426D01*
X173825000Y-93838665D01*
X173825000Y-94121335D01*
X173880147Y-94398574D01*
X173988320Y-94659727D01*
X174145363Y-94894759D01*
X174345241Y-95094637D01*
X174577759Y-95250000D01*
X174345241Y-95405363D01*
X174145363Y-95605241D01*
X173988320Y-95840273D01*
X173880147Y-96101426D01*
X173825000Y-96378665D01*
X173825000Y-96661335D01*
X173880147Y-96938574D01*
X173988320Y-97199727D01*
X174145363Y-97434759D01*
X174345241Y-97634637D01*
X174577759Y-97790000D01*
X174345241Y-97945363D01*
X174145363Y-98145241D01*
X173988320Y-98380273D01*
X173880147Y-98641426D01*
X173825000Y-98918665D01*
X173825000Y-99201335D01*
X173880147Y-99478574D01*
X173988320Y-99739727D01*
X174145363Y-99974759D01*
X174345241Y-100174637D01*
X174580273Y-100331680D01*
X174590865Y-100336067D01*
X174404869Y-100447615D01*
X174196481Y-100636586D01*
X174028963Y-100862580D01*
X173908754Y-101116913D01*
X173868096Y-101250961D01*
X173990085Y-101473000D01*
X175133000Y-101473000D01*
X175133000Y-101453000D01*
X175387000Y-101453000D01*
X175387000Y-101473000D01*
X176529915Y-101473000D01*
X176651904Y-101250961D01*
X176611246Y-101116913D01*
X176491037Y-100862580D01*
X176323519Y-100636586D01*
X176115131Y-100447615D01*
X175929135Y-100336067D01*
X175939727Y-100331680D01*
X176174759Y-100174637D01*
X176374637Y-99974759D01*
X176531680Y-99739727D01*
X176639853Y-99478574D01*
X176695000Y-99201335D01*
X176695000Y-98918665D01*
X176639853Y-98641426D01*
X176531680Y-98380273D01*
X176374637Y-98145241D01*
X176174759Y-97945363D01*
X175942241Y-97790000D01*
X176174759Y-97634637D01*
X176374637Y-97434759D01*
X176531680Y-97199727D01*
X176639853Y-96938574D01*
X176695000Y-96661335D01*
X176695000Y-96378665D01*
X176639853Y-96101426D01*
X176531680Y-95840273D01*
X176374637Y-95605241D01*
X176174759Y-95405363D01*
X175942241Y-95250000D01*
X176174759Y-95094637D01*
X176374637Y-94894759D01*
X176531680Y-94659727D01*
X176639853Y-94398574D01*
X176695000Y-94121335D01*
X176695000Y-93838665D01*
X176639853Y-93561426D01*
X176531680Y-93300273D01*
X176374637Y-93065241D01*
X176174759Y-92865363D01*
X175942241Y-92710000D01*
X176174759Y-92554637D01*
X176374637Y-92354759D01*
X176531680Y-92119727D01*
X176639853Y-91858574D01*
X176695000Y-91581335D01*
X176695000Y-91298665D01*
X176639853Y-91021426D01*
X176531680Y-90760273D01*
X176374637Y-90525241D01*
X176174759Y-90325363D01*
X175942241Y-90170000D01*
X176174759Y-90014637D01*
X176374637Y-89814759D01*
X176531680Y-89579727D01*
X176639853Y-89318574D01*
X176695000Y-89041335D01*
X176695000Y-88758665D01*
X176639853Y-88481426D01*
X176531680Y-88220273D01*
X176374637Y-87985241D01*
X176174759Y-87785363D01*
X175942241Y-87630000D01*
X176174759Y-87474637D01*
X176374637Y-87274759D01*
X176531680Y-87039727D01*
X176639853Y-86778574D01*
X176695000Y-86501335D01*
X176695000Y-86218665D01*
X176639853Y-85941426D01*
X176531680Y-85680273D01*
X176374637Y-85445241D01*
X176174759Y-85245363D01*
X175942241Y-85090000D01*
X176174759Y-84934637D01*
X176374637Y-84734759D01*
X176531680Y-84499727D01*
X176639853Y-84238574D01*
X176695000Y-83961335D01*
X176695000Y-83678665D01*
X176639853Y-83401426D01*
X176531680Y-83140273D01*
X176374637Y-82905241D01*
X176174759Y-82705363D01*
X175942241Y-82550000D01*
X176174759Y-82394637D01*
X176374637Y-82194759D01*
X176531680Y-81959727D01*
X176639853Y-81698574D01*
X176695000Y-81421335D01*
X176695000Y-81138665D01*
X176639853Y-80861426D01*
X176531680Y-80600273D01*
X176374637Y-80365241D01*
X176174759Y-80165363D01*
X175942241Y-80010000D01*
X176174759Y-79854637D01*
X176374637Y-79654759D01*
X176531680Y-79419727D01*
X176639853Y-79158574D01*
X176695000Y-78881335D01*
X176695000Y-78598665D01*
X176639853Y-78321426D01*
X176531680Y-78060273D01*
X176374637Y-77825241D01*
X176174759Y-77625363D01*
X175942241Y-77470000D01*
X176174759Y-77314637D01*
X176374637Y-77114759D01*
X176531680Y-76879727D01*
X176639853Y-76618574D01*
X176695000Y-76341335D01*
X176695000Y-76058665D01*
X176639853Y-75781426D01*
X176531680Y-75520273D01*
X176374637Y-75285241D01*
X176174759Y-75085363D01*
X175942241Y-74930000D01*
X176174759Y-74774637D01*
X176374637Y-74574759D01*
X176531680Y-74339727D01*
X176639853Y-74078574D01*
X176695000Y-73801335D01*
X176695000Y-73518665D01*
X176639853Y-73241426D01*
X176531680Y-72980273D01*
X176374637Y-72745241D01*
X176174759Y-72545363D01*
X175942241Y-72390000D01*
X176174759Y-72234637D01*
X176374637Y-72034759D01*
X176531680Y-71799727D01*
X176639853Y-71538574D01*
X176695000Y-71261335D01*
X176695000Y-70978665D01*
X176639853Y-70701426D01*
X176531680Y-70440273D01*
X176374637Y-70205241D01*
X176174759Y-70005363D01*
X175942241Y-69850000D01*
X176174759Y-69694637D01*
X176374637Y-69494759D01*
X176531680Y-69259727D01*
X176639853Y-68998574D01*
X176695000Y-68721335D01*
X176695000Y-68478061D01*
X176765000Y-68478061D01*
X176765000Y-68681939D01*
X176804774Y-68881898D01*
X176882795Y-69070256D01*
X176996063Y-69239774D01*
X177140226Y-69383937D01*
X177309744Y-69497205D01*
X177498102Y-69575226D01*
X177698061Y-69615000D01*
X177901939Y-69615000D01*
X178101898Y-69575226D01*
X178290256Y-69497205D01*
X178459774Y-69383937D01*
X178603937Y-69239774D01*
X178717205Y-69070256D01*
X178795226Y-68881898D01*
X178835000Y-68681939D01*
X178835000Y-68478061D01*
X178795226Y-68278102D01*
X178717205Y-68089744D01*
X178603937Y-67920226D01*
X178459774Y-67776063D01*
X178290256Y-67662795D01*
X178101898Y-67584774D01*
X177901939Y-67545000D01*
X177698061Y-67545000D01*
X177498102Y-67584774D01*
X177309744Y-67662795D01*
X177140226Y-67776063D01*
X176996063Y-67920226D01*
X176882795Y-68089744D01*
X176804774Y-68278102D01*
X176765000Y-68478061D01*
X176695000Y-68478061D01*
X176695000Y-68438665D01*
X176639853Y-68161426D01*
X176531680Y-67900273D01*
X176374637Y-67665241D01*
X176174759Y-67465363D01*
X175939727Y-67308320D01*
X175678574Y-67200147D01*
X175401335Y-67145000D01*
X175118665Y-67145000D01*
X174841426Y-67200147D01*
X174580273Y-67308320D01*
X174345241Y-67465363D01*
X174145363Y-67665241D01*
X173988320Y-67900273D01*
X173880147Y-68161426D01*
X173825000Y-68438665D01*
X161455000Y-68438665D01*
X161399853Y-68161426D01*
X161291680Y-67900273D01*
X161134637Y-67665241D01*
X160934759Y-67465363D01*
X160699727Y-67308320D01*
X160438574Y-67200147D01*
X160161335Y-67145000D01*
X159878665Y-67145000D01*
X159601426Y-67200147D01*
X159340273Y-67308320D01*
X159105241Y-67465363D01*
X158905363Y-67665241D01*
X158748320Y-67900273D01*
X158640147Y-68161426D01*
X158585000Y-68438665D01*
X158507164Y-68438665D01*
X158475226Y-68278102D01*
X158397205Y-68089744D01*
X158283937Y-67920226D01*
X158139774Y-67776063D01*
X157970256Y-67662795D01*
X157781898Y-67584774D01*
X157581939Y-67545000D01*
X157378061Y-67545000D01*
X157178102Y-67584774D01*
X156989744Y-67662795D01*
X156820226Y-67776063D01*
X156676063Y-67920226D01*
X156562795Y-68089744D01*
X156484774Y-68278102D01*
X156445000Y-68478061D01*
X155155000Y-68478061D01*
X155155000Y-68433740D01*
X155097932Y-68146842D01*
X154985990Y-67876589D01*
X154823475Y-67633368D01*
X154616632Y-67426525D01*
X154442240Y-67310000D01*
X154616632Y-67193475D01*
X154823475Y-66986632D01*
X154985990Y-66743411D01*
X155097932Y-66473158D01*
X155155000Y-66186260D01*
X155155000Y-65902408D01*
X162433000Y-65902408D01*
X162433000Y-66177592D01*
X162486686Y-66447490D01*
X162591995Y-66701727D01*
X162744880Y-66930535D01*
X162939465Y-67125120D01*
X163168273Y-67278005D01*
X163422510Y-67383314D01*
X163692408Y-67437000D01*
X163967592Y-67437000D01*
X164237490Y-67383314D01*
X164491727Y-67278005D01*
X164720535Y-67125120D01*
X164915120Y-66930535D01*
X165068005Y-66701727D01*
X165100000Y-66624485D01*
X165131995Y-66701727D01*
X165284880Y-66930535D01*
X165479465Y-67125120D01*
X165708273Y-67278005D01*
X165962510Y-67383314D01*
X166232408Y-67437000D01*
X166507592Y-67437000D01*
X166777490Y-67383314D01*
X167031727Y-67278005D01*
X167260535Y-67125120D01*
X167455120Y-66930535D01*
X167608005Y-66701727D01*
X167640000Y-66624485D01*
X167671995Y-66701727D01*
X167824880Y-66930535D01*
X168019465Y-67125120D01*
X168248273Y-67278005D01*
X168502510Y-67383314D01*
X168772408Y-67437000D01*
X169047592Y-67437000D01*
X169317490Y-67383314D01*
X169571727Y-67278005D01*
X169800535Y-67125120D01*
X169995120Y-66930535D01*
X170148005Y-66701727D01*
X170180000Y-66624485D01*
X170211995Y-66701727D01*
X170364880Y-66930535D01*
X170559465Y-67125120D01*
X170788273Y-67278005D01*
X171042510Y-67383314D01*
X171312408Y-67437000D01*
X171587592Y-67437000D01*
X171857490Y-67383314D01*
X172111727Y-67278005D01*
X172340535Y-67125120D01*
X172535120Y-66930535D01*
X172688005Y-66701727D01*
X172793314Y-66447490D01*
X172847000Y-66177592D01*
X172847000Y-65902408D01*
X172793314Y-65632510D01*
X172688005Y-65378273D01*
X172535120Y-65149465D01*
X172340535Y-64954880D01*
X172111727Y-64801995D01*
X171857490Y-64696686D01*
X171587592Y-64643000D01*
X171312408Y-64643000D01*
X171042510Y-64696686D01*
X170788273Y-64801995D01*
X170559465Y-64954880D01*
X170364880Y-65149465D01*
X170211995Y-65378273D01*
X170180000Y-65455515D01*
X170148005Y-65378273D01*
X169995120Y-65149465D01*
X169800535Y-64954880D01*
X169571727Y-64801995D01*
X169317490Y-64696686D01*
X169047592Y-64643000D01*
X168772408Y-64643000D01*
X168502510Y-64696686D01*
X168248273Y-64801995D01*
X168019465Y-64954880D01*
X167824880Y-65149465D01*
X167671995Y-65378273D01*
X167640000Y-65455515D01*
X167608005Y-65378273D01*
X167455120Y-65149465D01*
X167260535Y-64954880D01*
X167031727Y-64801995D01*
X166777490Y-64696686D01*
X166507592Y-64643000D01*
X166232408Y-64643000D01*
X165962510Y-64696686D01*
X165708273Y-64801995D01*
X165479465Y-64954880D01*
X165284880Y-65149465D01*
X165131995Y-65378273D01*
X165100000Y-65455515D01*
X165068005Y-65378273D01*
X164915120Y-65149465D01*
X164720535Y-64954880D01*
X164491727Y-64801995D01*
X164237490Y-64696686D01*
X163967592Y-64643000D01*
X163692408Y-64643000D01*
X163422510Y-64696686D01*
X163168273Y-64801995D01*
X162939465Y-64954880D01*
X162744880Y-65149465D01*
X162591995Y-65378273D01*
X162486686Y-65632510D01*
X162433000Y-65902408D01*
X155155000Y-65902408D01*
X155155000Y-65893740D01*
X155097932Y-65606842D01*
X154985990Y-65336589D01*
X154823475Y-65093368D01*
X154616632Y-64886525D01*
X154434466Y-64764805D01*
X154551355Y-64695178D01*
X154767588Y-64500269D01*
X154941641Y-64266920D01*
X155066825Y-64004099D01*
X155111476Y-63856890D01*
X154990155Y-63627000D01*
X153797000Y-63627000D01*
X153797000Y-63647000D01*
X153543000Y-63647000D01*
X153543000Y-63627000D01*
X152349845Y-63627000D01*
X152228524Y-63856890D01*
X152273175Y-64004099D01*
X152398359Y-64266920D01*
X152572412Y-64500269D01*
X152788645Y-64695178D01*
X152905534Y-64764805D01*
X152723368Y-64886525D01*
X152516525Y-65093368D01*
X152354010Y-65336589D01*
X152242068Y-65606842D01*
X152185000Y-65893740D01*
X152185000Y-66186260D01*
X152242068Y-66473158D01*
X152354010Y-66743411D01*
X152516525Y-66986632D01*
X152723368Y-67193475D01*
X152897760Y-67310000D01*
X152723368Y-67426525D01*
X152516525Y-67633368D01*
X152354010Y-67876589D01*
X152242068Y-68146842D01*
X152185000Y-68433740D01*
X152185000Y-68726260D01*
X152242068Y-69013158D01*
X152354010Y-69283411D01*
X152516525Y-69526632D01*
X152723368Y-69733475D01*
X152897760Y-69850000D01*
X152723368Y-69966525D01*
X152516525Y-70173368D01*
X152354010Y-70416589D01*
X152242068Y-70686842D01*
X152185000Y-70973740D01*
X152185000Y-71266260D01*
X152242068Y-71553158D01*
X152354010Y-71823411D01*
X152516525Y-72066632D01*
X152723368Y-72273475D01*
X152897760Y-72390000D01*
X152723368Y-72506525D01*
X152516525Y-72713368D01*
X152354010Y-72956589D01*
X152242068Y-73226842D01*
X152185000Y-73513740D01*
X152185000Y-73806260D01*
X152242068Y-74093158D01*
X152354010Y-74363411D01*
X152516525Y-74606632D01*
X152723368Y-74813475D01*
X152897760Y-74930000D01*
X152723368Y-75046525D01*
X152516525Y-75253368D01*
X152354010Y-75496589D01*
X152242068Y-75766842D01*
X152185000Y-76053740D01*
X152185000Y-76346260D01*
X152242068Y-76633158D01*
X152354010Y-76903411D01*
X152516525Y-77146632D01*
X152648380Y-77278487D01*
X152575820Y-77300498D01*
X152465506Y-77359463D01*
X152368815Y-77438815D01*
X152289463Y-77535506D01*
X152230498Y-77645820D01*
X152194188Y-77765518D01*
X152181928Y-77890000D01*
X151257000Y-77890000D01*
X151257000Y-63143110D01*
X152228524Y-63143110D01*
X152349845Y-63373000D01*
X153543000Y-63373000D01*
X153543000Y-62179186D01*
X153797000Y-62179186D01*
X153797000Y-63373000D01*
X154990155Y-63373000D01*
X155111476Y-63143110D01*
X155066825Y-62995901D01*
X154941641Y-62733080D01*
X154767588Y-62499731D01*
X154551355Y-62304822D01*
X154301252Y-62155843D01*
X154026891Y-62058519D01*
X153797000Y-62179186D01*
X153543000Y-62179186D01*
X153313109Y-62058519D01*
X153038748Y-62155843D01*
X152788645Y-62304822D01*
X152572412Y-62499731D01*
X152398359Y-62733080D01*
X152273175Y-62995901D01*
X152228524Y-63143110D01*
X151257000Y-63143110D01*
X151257000Y-58408967D01*
X169125000Y-58408967D01*
X169125000Y-58731033D01*
X169187832Y-59046912D01*
X169311082Y-59344463D01*
X169490013Y-59612252D01*
X169717748Y-59839987D01*
X169985537Y-60018918D01*
X170283088Y-60142168D01*
X170598967Y-60205000D01*
X170921033Y-60205000D01*
X171236912Y-60142168D01*
X171534463Y-60018918D01*
X171802252Y-59839987D01*
X171936826Y-59705413D01*
X174304192Y-59705413D01*
X174399956Y-59969814D01*
X174689571Y-60110704D01*
X175001108Y-60192384D01*
X175322595Y-60211718D01*
X175641675Y-60167961D01*
X175946088Y-60062795D01*
X176120044Y-59969814D01*
X176215808Y-59705413D01*
X175260000Y-58749605D01*
X174304192Y-59705413D01*
X171936826Y-59705413D01*
X172029987Y-59612252D01*
X172208918Y-59344463D01*
X172332168Y-59046912D01*
X172395000Y-58731033D01*
X172395000Y-58632595D01*
X173618282Y-58632595D01*
X173662039Y-58951675D01*
X173767205Y-59256088D01*
X173860186Y-59430044D01*
X174124587Y-59525808D01*
X175080395Y-58570000D01*
X175439605Y-58570000D01*
X176395413Y-59525808D01*
X176659814Y-59430044D01*
X176800704Y-59140429D01*
X176882384Y-58828892D01*
X176901718Y-58507405D01*
X176857961Y-58188325D01*
X176752795Y-57883912D01*
X176659814Y-57709956D01*
X176395413Y-57614192D01*
X175439605Y-58570000D01*
X175080395Y-58570000D01*
X174124587Y-57614192D01*
X173860186Y-57709956D01*
X173719296Y-57999571D01*
X173637616Y-58311108D01*
X173618282Y-58632595D01*
X172395000Y-58632595D01*
X172395000Y-58408967D01*
X172332168Y-58093088D01*
X172208918Y-57795537D01*
X172029987Y-57527748D01*
X171936826Y-57434587D01*
X174304192Y-57434587D01*
X175260000Y-58390395D01*
X176215808Y-57434587D01*
X176120044Y-57170186D01*
X175830429Y-57029296D01*
X175518892Y-56947616D01*
X175197405Y-56928282D01*
X174878325Y-56972039D01*
X174573912Y-57077205D01*
X174399956Y-57170186D01*
X174304192Y-57434587D01*
X171936826Y-57434587D01*
X171802252Y-57300013D01*
X171534463Y-57121082D01*
X171236912Y-56997832D01*
X170921033Y-56935000D01*
X170598967Y-56935000D01*
X170283088Y-56997832D01*
X169985537Y-57121082D01*
X169717748Y-57300013D01*
X169490013Y-57527748D01*
X169311082Y-57795537D01*
X169187832Y-58093088D01*
X169125000Y-58408967D01*
X151257000Y-58408967D01*
X151257000Y-55728816D01*
X158485000Y-55728816D01*
X158485000Y-56031184D01*
X158543989Y-56327743D01*
X158659701Y-56607095D01*
X158827688Y-56858505D01*
X159041495Y-57072312D01*
X159292905Y-57240299D01*
X159572257Y-57356011D01*
X159868816Y-57415000D01*
X160171184Y-57415000D01*
X160467743Y-57356011D01*
X160747095Y-57240299D01*
X160998505Y-57072312D01*
X161126737Y-56944080D01*
X161675525Y-56944080D01*
X161759208Y-57198261D01*
X162031775Y-57329158D01*
X162324642Y-57404365D01*
X162626553Y-57420991D01*
X162925907Y-57378397D01*
X163211199Y-57278222D01*
X163360792Y-57198261D01*
X163444475Y-56944080D01*
X162560000Y-56059605D01*
X161675525Y-56944080D01*
X161126737Y-56944080D01*
X161212312Y-56858505D01*
X161314951Y-56704895D01*
X161495920Y-56764475D01*
X162380395Y-55880000D01*
X162739605Y-55880000D01*
X163585412Y-56725807D01*
X163629407Y-56870838D01*
X163711325Y-57024097D01*
X163821570Y-57158430D01*
X163955903Y-57268675D01*
X164109162Y-57350593D01*
X164275458Y-57401039D01*
X164448400Y-57418072D01*
X165751600Y-57418072D01*
X165924542Y-57401039D01*
X166090838Y-57350593D01*
X166244097Y-57268675D01*
X166378430Y-57158430D01*
X166488675Y-57024097D01*
X166570593Y-56870838D01*
X166621039Y-56704542D01*
X166638072Y-56531600D01*
X166638072Y-55228400D01*
X166621039Y-55055458D01*
X166570593Y-54889162D01*
X166488675Y-54735903D01*
X166378430Y-54601570D01*
X166244097Y-54491325D01*
X166090838Y-54409407D01*
X165924542Y-54358961D01*
X165751600Y-54341928D01*
X164448400Y-54341928D01*
X164275458Y-54358961D01*
X164109162Y-54409407D01*
X163955903Y-54491325D01*
X163821570Y-54601570D01*
X163711325Y-54735903D01*
X163629407Y-54889162D01*
X163585412Y-55034193D01*
X162739605Y-55880000D01*
X162380395Y-55880000D01*
X161495920Y-54995525D01*
X161314951Y-55055105D01*
X161212312Y-54901495D01*
X161126737Y-54815920D01*
X161675525Y-54815920D01*
X162560000Y-55700395D01*
X163444475Y-54815920D01*
X163360792Y-54561739D01*
X163088225Y-54430842D01*
X162795358Y-54355635D01*
X162493447Y-54339009D01*
X162194093Y-54381603D01*
X161908801Y-54481778D01*
X161759208Y-54561739D01*
X161675525Y-54815920D01*
X161126737Y-54815920D01*
X160998505Y-54687688D01*
X160747095Y-54519701D01*
X160467743Y-54403989D01*
X160171184Y-54345000D01*
X159868816Y-54345000D01*
X159572257Y-54403989D01*
X159292905Y-54519701D01*
X159041495Y-54687688D01*
X158827688Y-54901495D01*
X158659701Y-55152905D01*
X158543989Y-55432257D01*
X158485000Y-55728816D01*
X151257000Y-55728816D01*
X151257000Y-53169117D01*
X151935000Y-53169117D01*
X151935000Y-53510883D01*
X152001675Y-53846081D01*
X152132463Y-54161831D01*
X152322337Y-54445998D01*
X152564002Y-54687663D01*
X152848169Y-54877537D01*
X153163919Y-55008325D01*
X153499117Y-55075000D01*
X153840883Y-55075000D01*
X154176081Y-55008325D01*
X154491831Y-54877537D01*
X154775998Y-54687663D01*
X155017663Y-54445998D01*
X155207537Y-54161831D01*
X155338325Y-53846081D01*
X155405000Y-53510883D01*
X155405000Y-53169117D01*
X155338325Y-52833919D01*
X155207537Y-52518169D01*
X155017663Y-52234002D01*
X154775998Y-51992337D01*
X154651226Y-51908967D01*
X169125000Y-51908967D01*
X169125000Y-52231033D01*
X169187832Y-52546912D01*
X169311082Y-52844463D01*
X169490013Y-53112252D01*
X169717748Y-53339987D01*
X169985537Y-53518918D01*
X170283088Y-53642168D01*
X170598967Y-53705000D01*
X170921033Y-53705000D01*
X171236912Y-53642168D01*
X171534463Y-53518918D01*
X171802252Y-53339987D01*
X171936826Y-53205413D01*
X174304192Y-53205413D01*
X174399956Y-53469814D01*
X174689571Y-53610704D01*
X175001108Y-53692384D01*
X175322595Y-53711718D01*
X175641675Y-53667961D01*
X175946088Y-53562795D01*
X176120044Y-53469814D01*
X176215808Y-53205413D01*
X176179512Y-53169117D01*
X178605000Y-53169117D01*
X178605000Y-53510883D01*
X178671675Y-53846081D01*
X178802463Y-54161831D01*
X178992337Y-54445998D01*
X179234002Y-54687663D01*
X179518169Y-54877537D01*
X179833919Y-55008325D01*
X180169117Y-55075000D01*
X180510883Y-55075000D01*
X180846081Y-55008325D01*
X181161831Y-54877537D01*
X181445998Y-54687663D01*
X181687663Y-54445998D01*
X181877537Y-54161831D01*
X182008325Y-53846081D01*
X182075000Y-53510883D01*
X182075000Y-53169117D01*
X182008325Y-52833919D01*
X181877537Y-52518169D01*
X181687663Y-52234002D01*
X181445998Y-51992337D01*
X181161831Y-51802463D01*
X180846081Y-51671675D01*
X180510883Y-51605000D01*
X180169117Y-51605000D01*
X179833919Y-51671675D01*
X179518169Y-51802463D01*
X179234002Y-51992337D01*
X178992337Y-52234002D01*
X178802463Y-52518169D01*
X178671675Y-52833919D01*
X178605000Y-53169117D01*
X176179512Y-53169117D01*
X175260000Y-52249605D01*
X174304192Y-53205413D01*
X171936826Y-53205413D01*
X172029987Y-53112252D01*
X172208918Y-52844463D01*
X172332168Y-52546912D01*
X172395000Y-52231033D01*
X172395000Y-52132595D01*
X173618282Y-52132595D01*
X173662039Y-52451675D01*
X173767205Y-52756088D01*
X173860186Y-52930044D01*
X174124587Y-53025808D01*
X175080395Y-52070000D01*
X175439605Y-52070000D01*
X176395413Y-53025808D01*
X176659814Y-52930044D01*
X176800704Y-52640429D01*
X176882384Y-52328892D01*
X176901718Y-52007405D01*
X176857961Y-51688325D01*
X176752795Y-51383912D01*
X176659814Y-51209956D01*
X176395413Y-51114192D01*
X175439605Y-52070000D01*
X175080395Y-52070000D01*
X174124587Y-51114192D01*
X173860186Y-51209956D01*
X173719296Y-51499571D01*
X173637616Y-51811108D01*
X173618282Y-52132595D01*
X172395000Y-52132595D01*
X172395000Y-51908967D01*
X172332168Y-51593088D01*
X172208918Y-51295537D01*
X172029987Y-51027748D01*
X171936826Y-50934587D01*
X174304192Y-50934587D01*
X175260000Y-51890395D01*
X176215808Y-50934587D01*
X176120044Y-50670186D01*
X175830429Y-50529296D01*
X175518892Y-50447616D01*
X175197405Y-50428282D01*
X174878325Y-50472039D01*
X174573912Y-50577205D01*
X174399956Y-50670186D01*
X174304192Y-50934587D01*
X171936826Y-50934587D01*
X171802252Y-50800013D01*
X171534463Y-50621082D01*
X171236912Y-50497832D01*
X170921033Y-50435000D01*
X170598967Y-50435000D01*
X170283088Y-50497832D01*
X169985537Y-50621082D01*
X169717748Y-50800013D01*
X169490013Y-51027748D01*
X169311082Y-51295537D01*
X169187832Y-51593088D01*
X169125000Y-51908967D01*
X154651226Y-51908967D01*
X154491831Y-51802463D01*
X154176081Y-51671675D01*
X153840883Y-51605000D01*
X153499117Y-51605000D01*
X153163919Y-51671675D01*
X152848169Y-51802463D01*
X152564002Y-51992337D01*
X152322337Y-52234002D01*
X152132463Y-52518169D01*
X152001675Y-52833919D01*
X151935000Y-53169117D01*
X151257000Y-53169117D01*
X151257000Y-51534530D01*
X151276385Y-51263496D01*
X151333181Y-51002407D01*
X151426556Y-50752060D01*
X151554605Y-50517555D01*
X151714724Y-50303662D01*
X151803386Y-50215000D01*
X182206614Y-50215000D01*
X182295276Y-50303662D01*
G37*
%TD.AperFunction*%
%TD*%
M02*
