%TF.GenerationSoftware,KiCad,Pcbnew,(5.1.10)-1*%
%TF.CreationDate,2021-12-02T15:39:48+11:00*%
%TF.ProjectId,bkm10iRduino_shield,626b6d31-3069-4526-9475-696e6f5f7368,rev?*%
%TF.SameCoordinates,Original*%
%TF.FileFunction,Paste,Top*%
%TF.FilePolarity,Positive*%
%FSLAX46Y46*%
G04 Gerber Fmt 4.6, Leading zero omitted, Abs format (unit mm)*
G04 Created by KiCad (PCBNEW (5.1.10)-1) date 2021-12-02 15:39:48*
%MOMM*%
%LPD*%
G01*
G04 APERTURE LIST*
G04 APERTURE END LIST*
%TO.C,C4*%
G36*
G01*
X169529999Y-88872500D02*
X170830001Y-88872500D01*
G75*
G02*
X171080000Y-89122499I0J-249999D01*
G01*
X171080000Y-89947501D01*
G75*
G02*
X170830001Y-90197500I-249999J0D01*
G01*
X169529999Y-90197500D01*
G75*
G02*
X169280000Y-89947501I0J249999D01*
G01*
X169280000Y-89122499D01*
G75*
G02*
X169529999Y-88872500I249999J0D01*
G01*
G37*
G36*
G01*
X169529999Y-85747500D02*
X170830001Y-85747500D01*
G75*
G02*
X171080000Y-85997499I0J-249999D01*
G01*
X171080000Y-86822501D01*
G75*
G02*
X170830001Y-87072500I-249999J0D01*
G01*
X169529999Y-87072500D01*
G75*
G02*
X169280000Y-86822501I0J249999D01*
G01*
X169280000Y-85997499D01*
G75*
G02*
X169529999Y-85747500I249999J0D01*
G01*
G37*
%TD*%
%TO.C,C3*%
G36*
G01*
X158485000Y-58404999D02*
X158485000Y-59705001D01*
G75*
G02*
X158235001Y-59955000I-249999J0D01*
G01*
X157409999Y-59955000D01*
G75*
G02*
X157160000Y-59705001I0J249999D01*
G01*
X157160000Y-58404999D01*
G75*
G02*
X157409999Y-58155000I249999J0D01*
G01*
X158235001Y-58155000D01*
G75*
G02*
X158485000Y-58404999I0J-249999D01*
G01*
G37*
G36*
G01*
X161610000Y-58404999D02*
X161610000Y-59705001D01*
G75*
G02*
X161360001Y-59955000I-249999J0D01*
G01*
X160534999Y-59955000D01*
G75*
G02*
X160285000Y-59705001I0J249999D01*
G01*
X160285000Y-58404999D01*
G75*
G02*
X160534999Y-58155000I249999J0D01*
G01*
X161360001Y-58155000D01*
G75*
G02*
X161610000Y-58404999I0J-249999D01*
G01*
G37*
%TD*%
%TO.C,C2*%
G36*
G01*
X175910001Y-107685000D02*
X174609999Y-107685000D01*
G75*
G02*
X174360000Y-107435001I0J249999D01*
G01*
X174360000Y-106609999D01*
G75*
G02*
X174609999Y-106360000I249999J0D01*
G01*
X175910001Y-106360000D01*
G75*
G02*
X176160000Y-106609999I0J-249999D01*
G01*
X176160000Y-107435001D01*
G75*
G02*
X175910001Y-107685000I-249999J0D01*
G01*
G37*
G36*
G01*
X175910001Y-110810000D02*
X174609999Y-110810000D01*
G75*
G02*
X174360000Y-110560001I0J249999D01*
G01*
X174360000Y-109734999D01*
G75*
G02*
X174609999Y-109485000I249999J0D01*
G01*
X175910001Y-109485000D01*
G75*
G02*
X176160000Y-109734999I0J-249999D01*
G01*
X176160000Y-110560001D01*
G75*
G02*
X175910001Y-110810000I-249999J0D01*
G01*
G37*
%TD*%
%TO.C,C1*%
G36*
G01*
X155895000Y-95234999D02*
X155895000Y-96535001D01*
G75*
G02*
X155645001Y-96785000I-249999J0D01*
G01*
X154819999Y-96785000D01*
G75*
G02*
X154570000Y-96535001I0J249999D01*
G01*
X154570000Y-95234999D01*
G75*
G02*
X154819999Y-94985000I249999J0D01*
G01*
X155645001Y-94985000D01*
G75*
G02*
X155895000Y-95234999I0J-249999D01*
G01*
G37*
G36*
G01*
X152770000Y-95234999D02*
X152770000Y-96535001D01*
G75*
G02*
X152520001Y-96785000I-249999J0D01*
G01*
X151694999Y-96785000D01*
G75*
G02*
X151445000Y-96535001I0J249999D01*
G01*
X151445000Y-95234999D01*
G75*
G02*
X151694999Y-94985000I249999J0D01*
G01*
X152520001Y-94985000D01*
G75*
G02*
X152770000Y-95234999I0J-249999D01*
G01*
G37*
%TD*%
%TO.C,U2*%
G36*
G01*
X169140000Y-92860000D02*
X169140000Y-92560000D01*
G75*
G02*
X169290000Y-92410000I150000J0D01*
G01*
X170940000Y-92410000D01*
G75*
G02*
X171090000Y-92560000I0J-150000D01*
G01*
X171090000Y-92860000D01*
G75*
G02*
X170940000Y-93010000I-150000J0D01*
G01*
X169290000Y-93010000D01*
G75*
G02*
X169140000Y-92860000I0J150000D01*
G01*
G37*
G36*
G01*
X169140000Y-94130000D02*
X169140000Y-93830000D01*
G75*
G02*
X169290000Y-93680000I150000J0D01*
G01*
X170940000Y-93680000D01*
G75*
G02*
X171090000Y-93830000I0J-150000D01*
G01*
X171090000Y-94130000D01*
G75*
G02*
X170940000Y-94280000I-150000J0D01*
G01*
X169290000Y-94280000D01*
G75*
G02*
X169140000Y-94130000I0J150000D01*
G01*
G37*
G36*
G01*
X169140000Y-95400000D02*
X169140000Y-95100000D01*
G75*
G02*
X169290000Y-94950000I150000J0D01*
G01*
X170940000Y-94950000D01*
G75*
G02*
X171090000Y-95100000I0J-150000D01*
G01*
X171090000Y-95400000D01*
G75*
G02*
X170940000Y-95550000I-150000J0D01*
G01*
X169290000Y-95550000D01*
G75*
G02*
X169140000Y-95400000I0J150000D01*
G01*
G37*
G36*
G01*
X169140000Y-96670000D02*
X169140000Y-96370000D01*
G75*
G02*
X169290000Y-96220000I150000J0D01*
G01*
X170940000Y-96220000D01*
G75*
G02*
X171090000Y-96370000I0J-150000D01*
G01*
X171090000Y-96670000D01*
G75*
G02*
X170940000Y-96820000I-150000J0D01*
G01*
X169290000Y-96820000D01*
G75*
G02*
X169140000Y-96670000I0J150000D01*
G01*
G37*
G36*
G01*
X169140000Y-97940000D02*
X169140000Y-97640000D01*
G75*
G02*
X169290000Y-97490000I150000J0D01*
G01*
X170940000Y-97490000D01*
G75*
G02*
X171090000Y-97640000I0J-150000D01*
G01*
X171090000Y-97940000D01*
G75*
G02*
X170940000Y-98090000I-150000J0D01*
G01*
X169290000Y-98090000D01*
G75*
G02*
X169140000Y-97940000I0J150000D01*
G01*
G37*
G36*
G01*
X169140000Y-99210000D02*
X169140000Y-98910000D01*
G75*
G02*
X169290000Y-98760000I150000J0D01*
G01*
X170940000Y-98760000D01*
G75*
G02*
X171090000Y-98910000I0J-150000D01*
G01*
X171090000Y-99210000D01*
G75*
G02*
X170940000Y-99360000I-150000J0D01*
G01*
X169290000Y-99360000D01*
G75*
G02*
X169140000Y-99210000I0J150000D01*
G01*
G37*
G36*
G01*
X169140000Y-100480000D02*
X169140000Y-100180000D01*
G75*
G02*
X169290000Y-100030000I150000J0D01*
G01*
X170940000Y-100030000D01*
G75*
G02*
X171090000Y-100180000I0J-150000D01*
G01*
X171090000Y-100480000D01*
G75*
G02*
X170940000Y-100630000I-150000J0D01*
G01*
X169290000Y-100630000D01*
G75*
G02*
X169140000Y-100480000I0J150000D01*
G01*
G37*
G36*
G01*
X164190000Y-100480000D02*
X164190000Y-100180000D01*
G75*
G02*
X164340000Y-100030000I150000J0D01*
G01*
X165990000Y-100030000D01*
G75*
G02*
X166140000Y-100180000I0J-150000D01*
G01*
X166140000Y-100480000D01*
G75*
G02*
X165990000Y-100630000I-150000J0D01*
G01*
X164340000Y-100630000D01*
G75*
G02*
X164190000Y-100480000I0J150000D01*
G01*
G37*
G36*
G01*
X164190000Y-99210000D02*
X164190000Y-98910000D01*
G75*
G02*
X164340000Y-98760000I150000J0D01*
G01*
X165990000Y-98760000D01*
G75*
G02*
X166140000Y-98910000I0J-150000D01*
G01*
X166140000Y-99210000D01*
G75*
G02*
X165990000Y-99360000I-150000J0D01*
G01*
X164340000Y-99360000D01*
G75*
G02*
X164190000Y-99210000I0J150000D01*
G01*
G37*
G36*
G01*
X164190000Y-97940000D02*
X164190000Y-97640000D01*
G75*
G02*
X164340000Y-97490000I150000J0D01*
G01*
X165990000Y-97490000D01*
G75*
G02*
X166140000Y-97640000I0J-150000D01*
G01*
X166140000Y-97940000D01*
G75*
G02*
X165990000Y-98090000I-150000J0D01*
G01*
X164340000Y-98090000D01*
G75*
G02*
X164190000Y-97940000I0J150000D01*
G01*
G37*
G36*
G01*
X164190000Y-96670000D02*
X164190000Y-96370000D01*
G75*
G02*
X164340000Y-96220000I150000J0D01*
G01*
X165990000Y-96220000D01*
G75*
G02*
X166140000Y-96370000I0J-150000D01*
G01*
X166140000Y-96670000D01*
G75*
G02*
X165990000Y-96820000I-150000J0D01*
G01*
X164340000Y-96820000D01*
G75*
G02*
X164190000Y-96670000I0J150000D01*
G01*
G37*
G36*
G01*
X164190000Y-95400000D02*
X164190000Y-95100000D01*
G75*
G02*
X164340000Y-94950000I150000J0D01*
G01*
X165990000Y-94950000D01*
G75*
G02*
X166140000Y-95100000I0J-150000D01*
G01*
X166140000Y-95400000D01*
G75*
G02*
X165990000Y-95550000I-150000J0D01*
G01*
X164340000Y-95550000D01*
G75*
G02*
X164190000Y-95400000I0J150000D01*
G01*
G37*
G36*
G01*
X164190000Y-94130000D02*
X164190000Y-93830000D01*
G75*
G02*
X164340000Y-93680000I150000J0D01*
G01*
X165990000Y-93680000D01*
G75*
G02*
X166140000Y-93830000I0J-150000D01*
G01*
X166140000Y-94130000D01*
G75*
G02*
X165990000Y-94280000I-150000J0D01*
G01*
X164340000Y-94280000D01*
G75*
G02*
X164190000Y-94130000I0J150000D01*
G01*
G37*
G36*
G01*
X164190000Y-92860000D02*
X164190000Y-92560000D01*
G75*
G02*
X164340000Y-92410000I150000J0D01*
G01*
X165990000Y-92410000D01*
G75*
G02*
X166140000Y-92560000I0J-150000D01*
G01*
X166140000Y-92860000D01*
G75*
G02*
X165990000Y-93010000I-150000J0D01*
G01*
X164340000Y-93010000D01*
G75*
G02*
X164190000Y-92860000I0J150000D01*
G01*
G37*
%TD*%
%TO.C,R1*%
G36*
G01*
X166995001Y-103875000D02*
X165744999Y-103875000D01*
G75*
G02*
X165495000Y-103625001I0J249999D01*
G01*
X165495000Y-102824999D01*
G75*
G02*
X165744999Y-102575000I249999J0D01*
G01*
X166995001Y-102575000D01*
G75*
G02*
X167245000Y-102824999I0J-249999D01*
G01*
X167245000Y-103625001D01*
G75*
G02*
X166995001Y-103875000I-249999J0D01*
G01*
G37*
G36*
G01*
X166995001Y-106975000D02*
X165744999Y-106975000D01*
G75*
G02*
X165495000Y-106725001I0J249999D01*
G01*
X165495000Y-105924999D01*
G75*
G02*
X165744999Y-105675000I249999J0D01*
G01*
X166995001Y-105675000D01*
G75*
G02*
X167245000Y-105924999I0J-249999D01*
G01*
X167245000Y-106725001D01*
G75*
G02*
X166995001Y-106975000I-249999J0D01*
G01*
G37*
%TD*%
M02*
