M48
; DRILL file {KiCad (5.1.10-1-10_14)} date Monday, November 08, 2021 at 02:23:11 PM
; FORMAT={-:-/ absolute / metric / decimal}
; #@! TF.CreationDate,2021-11-08T14:23:11+11:00
; #@! TF.GenerationSoftware,Kicad,Pcbnew,(5.1.10-1-10_14)
; #@! TF.FileFunction,Plated,1,4,PTH
FMAT,2
METRIC
T1C0.400
T2C0.762
T3C0.900
T4C1.000
T5C1.100
T6C3.200
%
G90
G05
T1
X157.48Y-68.58
X162.56Y-90.17
X162.56Y-92.71
X166.37Y-73.66
X168.91Y-71.12
X173.99Y-116.84
X173.99Y-124.46
X177.8Y-68.58
T2
X163.83Y-66.04
X163.83Y-107.95
X166.37Y-66.04
X166.37Y-107.95
X168.91Y-66.04
X168.91Y-107.95
X171.45Y-66.04
X171.45Y-107.95
T3
X160.02Y-55.88
X162.56Y-55.88
X165.1Y-55.88
T4
X153.67Y-63.5
X153.67Y-66.04
X153.67Y-68.58
X153.67Y-71.12
X153.67Y-73.66
X153.67Y-76.2
X153.67Y-78.74
X160.02Y-68.58
X160.02Y-71.12
X160.02Y-73.66
X160.02Y-76.2
X160.02Y-78.74
X160.02Y-81.28
X160.02Y-83.82
X160.02Y-86.36
X160.02Y-88.9
X160.02Y-91.44
X160.02Y-93.98
X160.02Y-96.52
X160.02Y-99.06
X160.02Y-101.6
X160.02Y-104.14
X161.29Y-128.27
X162.675Y-131.11
X164.06Y-128.27
X165.445Y-131.11
X166.83Y-128.27
X168.215Y-131.11
X169.6Y-128.27
X170.985Y-131.11
X172.37Y-128.27
X175.26Y-68.58
X175.26Y-71.12
X175.26Y-73.66
X175.26Y-76.2
X175.26Y-78.74
X175.26Y-81.28
X175.26Y-83.82
X175.26Y-86.36
X175.26Y-88.9
X175.26Y-91.44
X175.26Y-93.98
X175.26Y-96.52
X175.26Y-99.06
X175.26Y-101.6
X175.26Y-104.14
T5
X170.76Y-52.07
X170.76Y-58.57
X175.26Y-52.07
X175.26Y-58.57
T6
X154.33Y-128.57
X179.33Y-128.57
T0
M30
