%TF.GenerationSoftware,KiCad,Pcbnew,(5.1.10-1-10_14)*%
%TF.CreationDate,2021-10-26T12:06:02+11:00*%
%TF.ProjectId,bkm10iRduino_shield,626b6d31-3069-4526-9475-696e6f5f7368,rev?*%
%TF.SameCoordinates,Original*%
%TF.FileFunction,Legend,Top*%
%TF.FilePolarity,Positive*%
%FSLAX46Y46*%
G04 Gerber Fmt 4.6, Leading zero omitted, Abs format (unit mm)*
G04 Created by KiCad (PCBNEW (5.1.10-1-10_14)) date 2021-10-26 12:06:02*
%MOMM*%
%LPD*%
G01*
G04 APERTURE LIST*
%ADD10C,0.150000*%
%ADD11C,0.120000*%
G04 APERTURE END LIST*
D10*
X170950000Y-109981904D02*
X170902380Y-110077142D01*
X170902380Y-110220000D01*
X170950000Y-110362857D01*
X171045238Y-110458095D01*
X171140476Y-110505714D01*
X171330952Y-110553333D01*
X171473809Y-110553333D01*
X171664285Y-110505714D01*
X171759523Y-110458095D01*
X171854761Y-110362857D01*
X171902380Y-110220000D01*
X171902380Y-110124761D01*
X171854761Y-109981904D01*
X171807142Y-109934285D01*
X171473809Y-109934285D01*
X171473809Y-110124761D01*
X171902380Y-109505714D02*
X170902380Y-109505714D01*
X171902380Y-108934285D01*
X170902380Y-108934285D01*
X171902380Y-108458095D02*
X170902380Y-108458095D01*
X170902380Y-108220000D01*
X170950000Y-108077142D01*
X171045238Y-107981904D01*
X171140476Y-107934285D01*
X171330952Y-107886666D01*
X171473809Y-107886666D01*
X171664285Y-107934285D01*
X171759523Y-107981904D01*
X171854761Y-108077142D01*
X171902380Y-108220000D01*
X171902380Y-108458095D01*
X168838571Y-110418571D02*
X168886190Y-110275714D01*
X168933809Y-110228095D01*
X169029047Y-110180476D01*
X169171904Y-110180476D01*
X169267142Y-110228095D01*
X169314761Y-110275714D01*
X169362380Y-110370952D01*
X169362380Y-110751904D01*
X168362380Y-110751904D01*
X168362380Y-110418571D01*
X168410000Y-110323333D01*
X168457619Y-110275714D01*
X168552857Y-110228095D01*
X168648095Y-110228095D01*
X168743333Y-110275714D01*
X168790952Y-110323333D01*
X168838571Y-110418571D01*
X168838571Y-110751904D01*
X166536666Y-110728095D02*
X166536666Y-110251904D01*
X166822380Y-110823333D02*
X165822380Y-110490000D01*
X166822380Y-110156666D01*
X163282380Y-110553333D02*
X164282380Y-110220000D01*
X163282380Y-109886666D01*
X164187142Y-108981904D02*
X164234761Y-109029523D01*
X164282380Y-109172380D01*
X164282380Y-109267619D01*
X164234761Y-109410476D01*
X164139523Y-109505714D01*
X164044285Y-109553333D01*
X163853809Y-109600952D01*
X163710952Y-109600952D01*
X163520476Y-109553333D01*
X163425238Y-109505714D01*
X163330000Y-109410476D01*
X163282380Y-109267619D01*
X163282380Y-109172380D01*
X163330000Y-109029523D01*
X163377619Y-108981904D01*
X164187142Y-107981904D02*
X164234761Y-108029523D01*
X164282380Y-108172380D01*
X164282380Y-108267619D01*
X164234761Y-108410476D01*
X164139523Y-108505714D01*
X164044285Y-108553333D01*
X163853809Y-108600952D01*
X163710952Y-108600952D01*
X163520476Y-108553333D01*
X163425238Y-108505714D01*
X163330000Y-108410476D01*
X163282380Y-108267619D01*
X163282380Y-108172380D01*
X163330000Y-108029523D01*
X163377619Y-107981904D01*
D11*
%TO.C,SW1*%
X175660000Y-55070000D02*
X175660000Y-53570000D01*
X174410000Y-51070000D02*
X169910000Y-51070000D01*
X168660000Y-53570000D02*
X168660000Y-55070000D01*
X169910000Y-57570000D02*
X174410000Y-57570000D01*
%TO.C,U1*%
X159400000Y-53580000D02*
X159400000Y-54780000D01*
X159400000Y-53580000D02*
X159860000Y-53580000D01*
X159480000Y-57240000D02*
X162560000Y-57240000D01*
X165060000Y-53580000D02*
X165280000Y-53580000D01*
X165060000Y-53580000D02*
G75*
G03*
X159860000Y-53580000I-2600000J-1100000D01*
G01*
%TO.C,J1*%
X159830000Y-119880000D02*
X160330000Y-119380000D01*
X159830000Y-118880000D02*
X159830000Y-119880000D01*
X160330000Y-119380000D02*
X159830000Y-118880000D01*
X160515000Y-133460000D02*
X176035000Y-133460000D01*
X176035000Y-115500000D02*
X176035000Y-133460000D01*
X176035000Y-115500000D02*
X160515000Y-115500000D01*
X160515000Y-115500000D02*
X160515000Y-133460000D01*
%TO.C,SW1*%
D10*
X170826666Y-50474761D02*
X170969523Y-50522380D01*
X171207619Y-50522380D01*
X171302857Y-50474761D01*
X171350476Y-50427142D01*
X171398095Y-50331904D01*
X171398095Y-50236666D01*
X171350476Y-50141428D01*
X171302857Y-50093809D01*
X171207619Y-50046190D01*
X171017142Y-49998571D01*
X170921904Y-49950952D01*
X170874285Y-49903333D01*
X170826666Y-49808095D01*
X170826666Y-49712857D01*
X170874285Y-49617619D01*
X170921904Y-49570000D01*
X171017142Y-49522380D01*
X171255238Y-49522380D01*
X171398095Y-49570000D01*
X171731428Y-49522380D02*
X171969523Y-50522380D01*
X172160000Y-49808095D01*
X172350476Y-50522380D01*
X172588571Y-49522380D01*
X173493333Y-50522380D02*
X172921904Y-50522380D01*
X173207619Y-50522380D02*
X173207619Y-49522380D01*
X173112380Y-49665238D01*
X173017142Y-49760476D01*
X172921904Y-49808095D01*
%TO.C,U2*%
X165322380Y-90931904D02*
X166131904Y-90931904D01*
X166227142Y-90884285D01*
X166274761Y-90836666D01*
X166322380Y-90741428D01*
X166322380Y-90550952D01*
X166274761Y-90455714D01*
X166227142Y-90408095D01*
X166131904Y-90360476D01*
X165322380Y-90360476D01*
X165417619Y-89931904D02*
X165370000Y-89884285D01*
X165322380Y-89789047D01*
X165322380Y-89550952D01*
X165370000Y-89455714D01*
X165417619Y-89408095D01*
X165512857Y-89360476D01*
X165608095Y-89360476D01*
X165750952Y-89408095D01*
X166322380Y-89979523D01*
X166322380Y-89360476D01*
%TO.C,U1*%
X161838095Y-57582380D02*
X161838095Y-58391904D01*
X161885714Y-58487142D01*
X161933333Y-58534761D01*
X162028571Y-58582380D01*
X162219047Y-58582380D01*
X162314285Y-58534761D01*
X162361904Y-58487142D01*
X162409523Y-58391904D01*
X162409523Y-57582380D01*
X163409523Y-58582380D02*
X162838095Y-58582380D01*
X163123809Y-58582380D02*
X163123809Y-57582380D01*
X163028571Y-57725238D01*
X162933333Y-57820476D01*
X162838095Y-57868095D01*
%TO.C,J1*%
X167941666Y-113832380D02*
X167941666Y-114546666D01*
X167894047Y-114689523D01*
X167798809Y-114784761D01*
X167655952Y-114832380D01*
X167560714Y-114832380D01*
X168941666Y-114832380D02*
X168370238Y-114832380D01*
X168655952Y-114832380D02*
X168655952Y-113832380D01*
X168560714Y-113975238D01*
X168465476Y-114070476D01*
X168370238Y-114118095D01*
%TD*%
M02*
