%TF.GenerationSoftware,KiCad,Pcbnew,(5.1.10)-1*%
%TF.CreationDate,2021-11-11T11:19:20+11:00*%
%TF.ProjectId,bkm10iRduino_shield,626b6d31-3069-4526-9475-696e6f5f7368,rev?*%
%TF.SameCoordinates,Original*%
%TF.FileFunction,Copper,L1,Top*%
%TF.FilePolarity,Positive*%
%FSLAX46Y46*%
G04 Gerber Fmt 4.6, Leading zero omitted, Abs format (unit mm)*
G04 Created by KiCad (PCBNEW (5.1.10)-1) date 2021-11-11 11:19:20*
%MOMM*%
%LPD*%
G01*
G04 APERTURE LIST*
%TA.AperFunction,SMDPad,CuDef*%
%ADD10R,1.428000X0.300000*%
%TD*%
%TA.AperFunction,ComponentPad*%
%ADD11C,4.000000*%
%TD*%
%TA.AperFunction,ComponentPad*%
%ADD12C,1.600000*%
%TD*%
%TA.AperFunction,ComponentPad*%
%ADD13R,1.600000X1.600000*%
%TD*%
%TA.AperFunction,ComponentPad*%
%ADD14O,1.600000X1.600000*%
%TD*%
%TA.AperFunction,ComponentPad*%
%ADD15O,1.700000X1.700000*%
%TD*%
%TA.AperFunction,ComponentPad*%
%ADD16R,1.700000X1.700000*%
%TD*%
%TA.AperFunction,ComponentPad*%
%ADD17C,2.000000*%
%TD*%
%TA.AperFunction,ComponentPad*%
%ADD18C,1.800000*%
%TD*%
%TA.AperFunction,ViaPad*%
%ADD19C,0.800000*%
%TD*%
%TA.AperFunction,Conductor*%
%ADD20C,0.250000*%
%TD*%
%TA.AperFunction,NonConductor*%
%ADD21C,0.254000*%
%TD*%
%TA.AperFunction,NonConductor*%
%ADD22C,0.100000*%
%TD*%
G04 APERTURE END LIST*
D10*
%TO.P,IC1,10*%
%TO.N,VCC*%
X169826000Y-99330000D03*
%TO.P,IC1,9*%
%TO.N,AB-*%
X169826000Y-99830000D03*
%TO.P,IC1,8*%
%TO.N,AB+*%
X169826000Y-100330000D03*
%TO.P,IC1,7*%
%TO.N,YZ-*%
X169826000Y-100830000D03*
%TO.P,IC1,6*%
%TO.N,YZ+*%
X169826000Y-101330000D03*
%TO.P,IC1,5*%
%TO.N,GND*%
X165454000Y-101330000D03*
%TO.P,IC1,4*%
%TO.N,RS485_TX*%
X165454000Y-100830000D03*
%TO.P,IC1,3*%
%TO.N,RS485_TX_ENABLE*%
X165454000Y-100330000D03*
%TO.P,IC1,2*%
%TO.N,RS485_RX_ENABLE*%
X165454000Y-99830000D03*
%TO.P,IC1,1*%
%TO.N,RS485_RX*%
X165454000Y-99330000D03*
%TD*%
D11*
%TO.P,J1,0*%
%TO.N,N/C*%
X179330000Y-115420000D03*
X154330000Y-115420000D03*
D12*
%TO.P,J1,9*%
%TO.N,GND*%
X170985000Y-114000000D03*
%TO.P,J1,8*%
%TO.N,YZ-*%
X168215000Y-114000000D03*
%TO.P,J1,7*%
%TO.N,AB+*%
X165445000Y-114000000D03*
%TO.P,J1,6*%
%TO.N,GND*%
X162675000Y-114000000D03*
%TO.P,J1,5*%
%TO.N,VCC*%
X172370000Y-116840000D03*
%TO.P,J1,4*%
%TO.N,GND*%
X169600000Y-116840000D03*
%TO.P,J1,3*%
%TO.N,YZ+*%
X166830000Y-116840000D03*
%TO.P,J1,2*%
%TO.N,AB-*%
X164060000Y-116840000D03*
D13*
%TO.P,J1,1*%
%TO.N,GND*%
X161290000Y-116840000D03*
%TD*%
%TO.P,C4,2*%
%TO.N,VCC*%
%TA.AperFunction,SMDPad,CuDef*%
G36*
G01*
X168729999Y-95330000D02*
X171630001Y-95330000D01*
G75*
G02*
X171880000Y-95579999I0J-249999D01*
G01*
X171880000Y-96655001D01*
G75*
G02*
X171630001Y-96905000I-249999J0D01*
G01*
X168729999Y-96905000D01*
G75*
G02*
X168480000Y-96655001I0J249999D01*
G01*
X168480000Y-95579999D01*
G75*
G02*
X168729999Y-95330000I249999J0D01*
G01*
G37*
%TD.AperFunction*%
%TO.P,C4,1*%
%TO.N,GND*%
%TA.AperFunction,SMDPad,CuDef*%
G36*
G01*
X168729999Y-91055000D02*
X171630001Y-91055000D01*
G75*
G02*
X171880000Y-91304999I0J-249999D01*
G01*
X171880000Y-92380001D01*
G75*
G02*
X171630001Y-92630000I-249999J0D01*
G01*
X168729999Y-92630000D01*
G75*
G02*
X168480000Y-92380001I0J249999D01*
G01*
X168480000Y-91304999D01*
G75*
G02*
X168729999Y-91055000I249999J0D01*
G01*
G37*
%TD.AperFunction*%
%TD*%
%TO.P,C3,2*%
%TO.N,VCC*%
%TA.AperFunction,SMDPad,CuDef*%
G36*
G01*
X153590000Y-59509999D02*
X153590000Y-62410001D01*
G75*
G02*
X153340001Y-62660000I-249999J0D01*
G01*
X152264999Y-62660000D01*
G75*
G02*
X152015000Y-62410001I0J249999D01*
G01*
X152015000Y-59509999D01*
G75*
G02*
X152264999Y-59260000I249999J0D01*
G01*
X153340001Y-59260000D01*
G75*
G02*
X153590000Y-59509999I0J-249999D01*
G01*
G37*
%TD.AperFunction*%
%TO.P,C3,1*%
%TO.N,GND*%
%TA.AperFunction,SMDPad,CuDef*%
G36*
G01*
X157865000Y-59509999D02*
X157865000Y-62410001D01*
G75*
G02*
X157615001Y-62660000I-249999J0D01*
G01*
X156539999Y-62660000D01*
G75*
G02*
X156290000Y-62410001I0J249999D01*
G01*
X156290000Y-59509999D01*
G75*
G02*
X156539999Y-59260000I249999J0D01*
G01*
X157615001Y-59260000D01*
G75*
G02*
X157865000Y-59509999I0J-249999D01*
G01*
G37*
%TD.AperFunction*%
%TD*%
%TO.P,C2,2*%
%TO.N,GND*%
%TA.AperFunction,SMDPad,CuDef*%
G36*
G01*
X156390001Y-102790000D02*
X153489999Y-102790000D01*
G75*
G02*
X153240000Y-102540001I0J249999D01*
G01*
X153240000Y-101464999D01*
G75*
G02*
X153489999Y-101215000I249999J0D01*
G01*
X156390001Y-101215000D01*
G75*
G02*
X156640000Y-101464999I0J-249999D01*
G01*
X156640000Y-102540001D01*
G75*
G02*
X156390001Y-102790000I-249999J0D01*
G01*
G37*
%TD.AperFunction*%
%TO.P,C2,1*%
%TO.N,VCC*%
%TA.AperFunction,SMDPad,CuDef*%
G36*
G01*
X156390001Y-107065000D02*
X153489999Y-107065000D01*
G75*
G02*
X153240000Y-106815001I0J249999D01*
G01*
X153240000Y-105739999D01*
G75*
G02*
X153489999Y-105490000I249999J0D01*
G01*
X156390001Y-105490000D01*
G75*
G02*
X156640000Y-105739999I0J-249999D01*
G01*
X156640000Y-106815001D01*
G75*
G02*
X156390001Y-107065000I-249999J0D01*
G01*
G37*
%TD.AperFunction*%
%TD*%
%TO.P,C1,2*%
%TO.N,GND*%
%TA.AperFunction,SMDPad,CuDef*%
G36*
G01*
X178889999Y-105490000D02*
X181790001Y-105490000D01*
G75*
G02*
X182040000Y-105739999I0J-249999D01*
G01*
X182040000Y-106815001D01*
G75*
G02*
X181790001Y-107065000I-249999J0D01*
G01*
X178889999Y-107065000D01*
G75*
G02*
X178640000Y-106815001I0J249999D01*
G01*
X178640000Y-105739999D01*
G75*
G02*
X178889999Y-105490000I249999J0D01*
G01*
G37*
%TD.AperFunction*%
%TO.P,C1,1*%
%TO.N,VCC*%
%TA.AperFunction,SMDPad,CuDef*%
G36*
G01*
X178889999Y-101215000D02*
X181790001Y-101215000D01*
G75*
G02*
X182040000Y-101464999I0J-249999D01*
G01*
X182040000Y-102540001D01*
G75*
G02*
X181790001Y-102790000I-249999J0D01*
G01*
X178889999Y-102790000D01*
G75*
G02*
X178640000Y-102540001I0J249999D01*
G01*
X178640000Y-101464999D01*
G75*
G02*
X178889999Y-101215000I249999J0D01*
G01*
G37*
%TD.AperFunction*%
%TD*%
D14*
%TO.P,A1,16*%
%TO.N,SCK*%
X175260000Y-68580000D03*
%TO.P,A1,15*%
%TO.N,Net-(A1-Pad15)*%
X160020000Y-68580000D03*
%TO.P,A1,30*%
%TO.N,VCC*%
X175260000Y-104140000D03*
%TO.P,A1,14*%
%TO.N,MOSI*%
X160020000Y-71120000D03*
%TO.P,A1,29*%
%TO.N,GND*%
X175260000Y-101600000D03*
%TO.P,A1,13*%
%TO.N,DC*%
X160020000Y-73660000D03*
%TO.P,A1,28*%
%TO.N,Net-(A1-Pad28)*%
X175260000Y-99060000D03*
%TO.P,A1,12*%
%TO.N,CS*%
X160020000Y-76200000D03*
%TO.P,A1,27*%
%TO.N,Net-(A1-Pad27)*%
X175260000Y-96520000D03*
%TO.P,A1,11*%
%TO.N,RES*%
X160020000Y-78740000D03*
%TO.P,A1,26*%
%TO.N,Net-(A1-Pad26)*%
X175260000Y-93980000D03*
%TO.P,A1,10*%
%TO.N,IR_OUT*%
X160020000Y-81280000D03*
%TO.P,A1,25*%
%TO.N,Net-(A1-Pad25)*%
X175260000Y-91440000D03*
%TO.P,A1,9*%
%TO.N,Net-(A1-Pad9)*%
X160020000Y-83820000D03*
%TO.P,A1,24*%
%TO.N,Net-(A1-Pad24)*%
X175260000Y-88900000D03*
%TO.P,A1,8*%
%TO.N,Net-(A1-Pad8)*%
X160020000Y-86360000D03*
%TO.P,A1,23*%
%TO.N,Net-(A1-Pad23)*%
X175260000Y-86360000D03*
%TO.P,A1,7*%
%TO.N,LEARN_BUTTON_IN*%
X160020000Y-88900000D03*
%TO.P,A1,22*%
%TO.N,Net-(A1-Pad22)*%
X175260000Y-83820000D03*
%TO.P,A1,6*%
%TO.N,RS485_TX_ENABLE*%
X160020000Y-91440000D03*
%TO.P,A1,21*%
%TO.N,Net-(A1-Pad21)*%
X175260000Y-81280000D03*
%TO.P,A1,5*%
%TO.N,RS485_RX_ENABLE*%
X160020000Y-93980000D03*
%TO.P,A1,20*%
%TO.N,Net-(A1-Pad20)*%
X175260000Y-78740000D03*
%TO.P,A1,4*%
%TO.N,GND*%
X160020000Y-96520000D03*
%TO.P,A1,19*%
%TO.N,Net-(A1-Pad19)*%
X175260000Y-76200000D03*
%TO.P,A1,3*%
%TO.N,Net-(A1-Pad3)*%
X160020000Y-99060000D03*
%TO.P,A1,18*%
%TO.N,Net-(A1-Pad18)*%
X175260000Y-73660000D03*
%TO.P,A1,2*%
%TO.N,RS485_RX*%
X160020000Y-101600000D03*
%TO.P,A1,17*%
%TO.N,Net-(A1-Pad17)*%
X175260000Y-71120000D03*
D13*
%TO.P,A1,1*%
%TO.N,RS485_TX*%
X160020000Y-104140000D03*
%TD*%
%TO.P,R1,2*%
%TO.N,YZ-*%
%TA.AperFunction,SMDPad,CuDef*%
G36*
G01*
X168820000Y-107305000D02*
X168820000Y-106055000D01*
G75*
G02*
X169070000Y-105805000I250000J0D01*
G01*
X169870000Y-105805000D01*
G75*
G02*
X170120000Y-106055000I0J-250000D01*
G01*
X170120000Y-107305000D01*
G75*
G02*
X169870000Y-107555000I-250000J0D01*
G01*
X169070000Y-107555000D01*
G75*
G02*
X168820000Y-107305000I0J250000D01*
G01*
G37*
%TD.AperFunction*%
%TO.P,R1,1*%
%TO.N,YZ+*%
%TA.AperFunction,SMDPad,CuDef*%
G36*
G01*
X165720000Y-107305000D02*
X165720000Y-106055000D01*
G75*
G02*
X165970000Y-105805000I250000J0D01*
G01*
X166770000Y-105805000D01*
G75*
G02*
X167020000Y-106055000I0J-250000D01*
G01*
X167020000Y-107305000D01*
G75*
G02*
X166770000Y-107555000I-250000J0D01*
G01*
X165970000Y-107555000D01*
G75*
G02*
X165720000Y-107305000I0J250000D01*
G01*
G37*
%TD.AperFunction*%
%TD*%
D15*
%TO.P,D5,7*%
%TO.N,GND*%
X153670000Y-85090000D03*
%TO.P,D5,6*%
%TO.N,VCC*%
X153670000Y-82550000D03*
%TO.P,D5,5*%
%TO.N,SCK*%
X153670000Y-80010000D03*
%TO.P,D5,4*%
%TO.N,MOSI*%
X153670000Y-77470000D03*
%TO.P,D5,3*%
%TO.N,RES*%
X153670000Y-74930000D03*
%TO.P,D5,2*%
%TO.N,DC*%
X153670000Y-72390000D03*
D16*
%TO.P,D5,1*%
%TO.N,CS*%
X153670000Y-69850000D03*
%TD*%
D17*
%TO.P,SW1,1*%
%TO.N,GND*%
X175260000Y-58570000D03*
%TO.P,SW1,2*%
%TO.N,LEARN_BUTTON_IN*%
X170760000Y-58570000D03*
%TO.P,SW1,1*%
%TO.N,GND*%
X175260000Y-52070000D03*
%TO.P,SW1,2*%
%TO.N,LEARN_BUTTON_IN*%
X170760000Y-52070000D03*
%TD*%
D18*
%TO.P,U1,3*%
%TO.N,VCC*%
X160020000Y-55880000D03*
%TO.P,U1,2*%
%TO.N,GND*%
X162560000Y-55880000D03*
%TO.P,U1,1*%
%TO.N,IR_OUT*%
%TA.AperFunction,ComponentPad*%
G36*
G01*
X166000000Y-55228400D02*
X166000000Y-56531600D01*
G75*
G02*
X165751600Y-56780000I-248400J0D01*
G01*
X164448400Y-56780000D01*
G75*
G02*
X164200000Y-56531600I0J248400D01*
G01*
X164200000Y-55228400D01*
G75*
G02*
X164448400Y-54980000I248400J0D01*
G01*
X165751600Y-54980000D01*
G75*
G02*
X166000000Y-55228400I0J-248400D01*
G01*
G37*
%TD.AperFunction*%
%TD*%
D19*
%TO.N,VCC*%
X180340000Y-100330000D03*
X170180000Y-97790000D03*
X154940000Y-107950000D03*
X156210000Y-58420000D03*
%TO.N,GND*%
X161290000Y-58420000D03*
X154940000Y-100330000D03*
X170180000Y-88900000D03*
X180340000Y-107950000D03*
%TO.N,AB+*%
X172720000Y-101600000D03*
%TO.N,AB-*%
X172720000Y-100330000D03*
%TD*%
D20*
%TO.N,VCC*%
X180340000Y-102640000D02*
X180340000Y-100330000D01*
X170180000Y-97790000D02*
X170180000Y-96117500D01*
X169826000Y-98144000D02*
X170180000Y-97790000D01*
X169826000Y-99330000D02*
X169826000Y-98144000D01*
X154940000Y-106277500D02*
X154940000Y-107950000D01*
X152802500Y-60960000D02*
X153670000Y-60960000D01*
X153670000Y-60960000D02*
X156210000Y-58420000D01*
%TO.N,GND*%
X180340000Y-105640000D02*
X180340000Y-107950000D01*
X170180000Y-91842500D02*
X170180000Y-88900000D01*
X168154990Y-93867510D02*
X170180000Y-91842500D01*
X168154990Y-99593010D02*
X168154990Y-93867510D01*
X166418000Y-101330000D02*
X168154990Y-99593010D01*
X165454000Y-101330000D02*
X166418000Y-101330000D01*
X154940000Y-102002500D02*
X154940000Y-100330000D01*
X158750000Y-60960000D02*
X161290000Y-58420000D01*
X157077500Y-60960000D02*
X158750000Y-60960000D01*
%TO.N,IR_OUT*%
X158894999Y-68039999D02*
X158894999Y-80154999D01*
X162560000Y-64374998D02*
X158894999Y-68039999D01*
X162560000Y-59320000D02*
X162560000Y-64374998D01*
X165100000Y-56780000D02*
X162560000Y-59320000D01*
X158894999Y-80154999D02*
X160020000Y-81280000D01*
X165100000Y-55880000D02*
X165100000Y-56780000D01*
%TO.N,RS485_TX_ENABLE*%
X166943010Y-98363010D02*
X160020000Y-91440000D01*
X166943010Y-99941400D02*
X166943010Y-98363010D01*
X166554410Y-100330000D02*
X166943010Y-99941400D01*
X165454000Y-100330000D02*
X166554410Y-100330000D01*
%TO.N,RS485_TX*%
X163330000Y-100830000D02*
X160020000Y-104140000D01*
X165454000Y-100830000D02*
X163330000Y-100830000D01*
%TO.N,LEARN_BUTTON_IN*%
X170760000Y-52070000D02*
X170760000Y-58570000D01*
X161145001Y-87774999D02*
X160020000Y-88900000D01*
X161145001Y-69994999D02*
X161145001Y-87774999D01*
X161145001Y-69454999D02*
X161145001Y-69994999D01*
X170760000Y-58570000D02*
X169691238Y-58570000D01*
X169345787Y-58570000D02*
X161145001Y-66770786D01*
X170760000Y-58570000D02*
X169345787Y-58570000D01*
X161145001Y-66770786D02*
X161145001Y-68435001D01*
X161145001Y-68435001D02*
X161145001Y-69994999D01*
X161145001Y-67116237D02*
X161145001Y-68435001D01*
%TO.N,RS485_RX_ENABLE*%
X161553002Y-93980000D02*
X160020000Y-93980000D01*
X166493001Y-98919999D02*
X161553002Y-93980000D01*
X166493001Y-99754999D02*
X166493001Y-98919999D01*
X166418000Y-99830000D02*
X166493001Y-99754999D01*
X165454000Y-99830000D02*
X166418000Y-99830000D01*
%TO.N,RS485_RX*%
X162290000Y-99330000D02*
X160020000Y-101600000D01*
X165454000Y-99330000D02*
X162290000Y-99330000D01*
%TO.N,AB+*%
X169826000Y-100330000D02*
X171450000Y-100330000D01*
X171450000Y-100330000D02*
X172720000Y-101600000D01*
%TO.N,AB-*%
X169826000Y-99830000D02*
X172220000Y-99830000D01*
X172220000Y-99830000D02*
X172720000Y-100330000D01*
%TO.N,YZ+*%
X169826000Y-101330000D02*
X169180000Y-101330000D01*
X166370000Y-104140000D02*
X166370000Y-106680000D01*
X169180000Y-101330000D02*
X166370000Y-104140000D01*
X166570001Y-116580001D02*
X166830000Y-116840000D01*
X166570001Y-106880001D02*
X166570001Y-116580001D01*
X166370000Y-106680000D02*
X166570001Y-106880001D01*
%TO.N,YZ-*%
X169826000Y-100830000D02*
X170680000Y-100830000D01*
X170865001Y-105284999D02*
X169470000Y-106680000D01*
X170865001Y-101015001D02*
X170865001Y-105284999D01*
X170680000Y-100830000D02*
X170865001Y-101015001D01*
X169470000Y-112745000D02*
X168215000Y-114000000D01*
X169470000Y-106680000D02*
X169470000Y-112745000D01*
%TD*%
D21*
X152366353Y-50215000D02*
X181643647Y-50215000D01*
X181737956Y-50205711D01*
X181974545Y-50228909D01*
X182325208Y-50334780D01*
X182648625Y-50506744D01*
X182932484Y-50738254D01*
X183165965Y-51020486D01*
X183340183Y-51342695D01*
X183448502Y-51692614D01*
X183474496Y-51939937D01*
X183465000Y-52036354D01*
X183465001Y-120683647D01*
X183474289Y-120777951D01*
X183451091Y-121014545D01*
X183345220Y-121365206D01*
X183173257Y-121688623D01*
X182941748Y-121972482D01*
X182659514Y-122205965D01*
X182337304Y-122380184D01*
X181987385Y-122488502D01*
X181740064Y-122514496D01*
X181643647Y-122505000D01*
X152366353Y-122505000D01*
X152272044Y-122514289D01*
X152035455Y-122491091D01*
X151684794Y-122385220D01*
X151361377Y-122213257D01*
X151077518Y-121981748D01*
X150844035Y-121699514D01*
X150669816Y-121377304D01*
X150561498Y-121027385D01*
X150535504Y-120780064D01*
X150545000Y-120683647D01*
X150545000Y-115160475D01*
X151695000Y-115160475D01*
X151695000Y-115679525D01*
X151796261Y-116188601D01*
X151994893Y-116668141D01*
X152283262Y-117099715D01*
X152650285Y-117466738D01*
X153081859Y-117755107D01*
X153561399Y-117953739D01*
X154070475Y-118055000D01*
X154589525Y-118055000D01*
X155098601Y-117953739D01*
X155578141Y-117755107D01*
X156009715Y-117466738D01*
X156376738Y-117099715D01*
X156665107Y-116668141D01*
X156863739Y-116188601D01*
X156965000Y-115679525D01*
X156965000Y-115160475D01*
X156863739Y-114651399D01*
X156665107Y-114171859D01*
X156376738Y-113740285D01*
X156009715Y-113373262D01*
X155578141Y-113084893D01*
X155098601Y-112886261D01*
X154589525Y-112785000D01*
X154070475Y-112785000D01*
X153561399Y-112886261D01*
X153081859Y-113084893D01*
X152650285Y-113373262D01*
X152283262Y-113740285D01*
X151994893Y-114171859D01*
X151796261Y-114651399D01*
X151695000Y-115160475D01*
X150545000Y-115160475D01*
X150545000Y-105739999D01*
X152601928Y-105739999D01*
X152601928Y-106815001D01*
X152618992Y-106988255D01*
X152669528Y-107154851D01*
X152751595Y-107308387D01*
X152862038Y-107442962D01*
X152996613Y-107553405D01*
X153150149Y-107635472D01*
X153316745Y-107686008D01*
X153489999Y-107703072D01*
X153933840Y-107703072D01*
X153905000Y-107848061D01*
X153905000Y-108051939D01*
X153944774Y-108251898D01*
X154022795Y-108440256D01*
X154136063Y-108609774D01*
X154280226Y-108753937D01*
X154449744Y-108867205D01*
X154638102Y-108945226D01*
X154838061Y-108985000D01*
X155041939Y-108985000D01*
X155241898Y-108945226D01*
X155430256Y-108867205D01*
X155599774Y-108753937D01*
X155743937Y-108609774D01*
X155857205Y-108440256D01*
X155935226Y-108251898D01*
X155975000Y-108051939D01*
X155975000Y-107848061D01*
X155946160Y-107703072D01*
X156390001Y-107703072D01*
X156563255Y-107686008D01*
X156729851Y-107635472D01*
X156883387Y-107553405D01*
X157017962Y-107442962D01*
X157128405Y-107308387D01*
X157210472Y-107154851D01*
X157261008Y-106988255D01*
X157278072Y-106815001D01*
X157278072Y-105739999D01*
X157261008Y-105566745D01*
X157210472Y-105400149D01*
X157128405Y-105246613D01*
X157017962Y-105112038D01*
X156883387Y-105001595D01*
X156729851Y-104919528D01*
X156563255Y-104868992D01*
X156390001Y-104851928D01*
X153489999Y-104851928D01*
X153316745Y-104868992D01*
X153150149Y-104919528D01*
X152996613Y-105001595D01*
X152862038Y-105112038D01*
X152751595Y-105246613D01*
X152669528Y-105400149D01*
X152618992Y-105566745D01*
X152601928Y-105739999D01*
X150545000Y-105739999D01*
X150545000Y-101464999D01*
X152601928Y-101464999D01*
X152601928Y-102540001D01*
X152618992Y-102713255D01*
X152669528Y-102879851D01*
X152751595Y-103033387D01*
X152862038Y-103167962D01*
X152996613Y-103278405D01*
X153150149Y-103360472D01*
X153316745Y-103411008D01*
X153489999Y-103428072D01*
X156390001Y-103428072D01*
X156563255Y-103411008D01*
X156729851Y-103360472D01*
X156883387Y-103278405D01*
X157017962Y-103167962D01*
X157128405Y-103033387D01*
X157210472Y-102879851D01*
X157261008Y-102713255D01*
X157278072Y-102540001D01*
X157278072Y-101464999D01*
X157261008Y-101291745D01*
X157210472Y-101125149D01*
X157128405Y-100971613D01*
X157017962Y-100837038D01*
X156883387Y-100726595D01*
X156729851Y-100644528D01*
X156563255Y-100593992D01*
X156390001Y-100576928D01*
X155946160Y-100576928D01*
X155975000Y-100431939D01*
X155975000Y-100228061D01*
X155935226Y-100028102D01*
X155857205Y-99839744D01*
X155743937Y-99670226D01*
X155599774Y-99526063D01*
X155430256Y-99412795D01*
X155241898Y-99334774D01*
X155041939Y-99295000D01*
X154838061Y-99295000D01*
X154638102Y-99334774D01*
X154449744Y-99412795D01*
X154280226Y-99526063D01*
X154136063Y-99670226D01*
X154022795Y-99839744D01*
X153944774Y-100028102D01*
X153905000Y-100228061D01*
X153905000Y-100431939D01*
X153933840Y-100576928D01*
X153489999Y-100576928D01*
X153316745Y-100593992D01*
X153150149Y-100644528D01*
X152996613Y-100726595D01*
X152862038Y-100837038D01*
X152751595Y-100971613D01*
X152669528Y-101125149D01*
X152618992Y-101291745D01*
X152601928Y-101464999D01*
X150545000Y-101464999D01*
X150545000Y-69000000D01*
X152181928Y-69000000D01*
X152181928Y-70700000D01*
X152194188Y-70824482D01*
X152230498Y-70944180D01*
X152289463Y-71054494D01*
X152368815Y-71151185D01*
X152465506Y-71230537D01*
X152575820Y-71289502D01*
X152648380Y-71311513D01*
X152516525Y-71443368D01*
X152354010Y-71686589D01*
X152242068Y-71956842D01*
X152185000Y-72243740D01*
X152185000Y-72536260D01*
X152242068Y-72823158D01*
X152354010Y-73093411D01*
X152516525Y-73336632D01*
X152723368Y-73543475D01*
X152897760Y-73660000D01*
X152723368Y-73776525D01*
X152516525Y-73983368D01*
X152354010Y-74226589D01*
X152242068Y-74496842D01*
X152185000Y-74783740D01*
X152185000Y-75076260D01*
X152242068Y-75363158D01*
X152354010Y-75633411D01*
X152516525Y-75876632D01*
X152723368Y-76083475D01*
X152897760Y-76200000D01*
X152723368Y-76316525D01*
X152516525Y-76523368D01*
X152354010Y-76766589D01*
X152242068Y-77036842D01*
X152185000Y-77323740D01*
X152185000Y-77616260D01*
X152242068Y-77903158D01*
X152354010Y-78173411D01*
X152516525Y-78416632D01*
X152723368Y-78623475D01*
X152897760Y-78740000D01*
X152723368Y-78856525D01*
X152516525Y-79063368D01*
X152354010Y-79306589D01*
X152242068Y-79576842D01*
X152185000Y-79863740D01*
X152185000Y-80156260D01*
X152242068Y-80443158D01*
X152354010Y-80713411D01*
X152516525Y-80956632D01*
X152723368Y-81163475D01*
X152897760Y-81280000D01*
X152723368Y-81396525D01*
X152516525Y-81603368D01*
X152354010Y-81846589D01*
X152242068Y-82116842D01*
X152185000Y-82403740D01*
X152185000Y-82696260D01*
X152242068Y-82983158D01*
X152354010Y-83253411D01*
X152516525Y-83496632D01*
X152723368Y-83703475D01*
X152897760Y-83820000D01*
X152723368Y-83936525D01*
X152516525Y-84143368D01*
X152354010Y-84386589D01*
X152242068Y-84656842D01*
X152185000Y-84943740D01*
X152185000Y-85236260D01*
X152242068Y-85523158D01*
X152354010Y-85793411D01*
X152516525Y-86036632D01*
X152723368Y-86243475D01*
X152966589Y-86405990D01*
X153236842Y-86517932D01*
X153523740Y-86575000D01*
X153816260Y-86575000D01*
X154103158Y-86517932D01*
X154373411Y-86405990D01*
X154616632Y-86243475D01*
X154823475Y-86036632D01*
X154985990Y-85793411D01*
X155097932Y-85523158D01*
X155155000Y-85236260D01*
X155155000Y-84943740D01*
X155097932Y-84656842D01*
X154985990Y-84386589D01*
X154823475Y-84143368D01*
X154616632Y-83936525D01*
X154442240Y-83820000D01*
X154616632Y-83703475D01*
X154823475Y-83496632D01*
X154985990Y-83253411D01*
X155097932Y-82983158D01*
X155155000Y-82696260D01*
X155155000Y-82403740D01*
X155097932Y-82116842D01*
X154985990Y-81846589D01*
X154823475Y-81603368D01*
X154616632Y-81396525D01*
X154442240Y-81280000D01*
X154616632Y-81163475D01*
X154823475Y-80956632D01*
X154985990Y-80713411D01*
X155097932Y-80443158D01*
X155155000Y-80156260D01*
X155155000Y-79863740D01*
X155097932Y-79576842D01*
X154985990Y-79306589D01*
X154823475Y-79063368D01*
X154616632Y-78856525D01*
X154442240Y-78740000D01*
X154616632Y-78623475D01*
X154823475Y-78416632D01*
X154985990Y-78173411D01*
X155097932Y-77903158D01*
X155155000Y-77616260D01*
X155155000Y-77323740D01*
X155097932Y-77036842D01*
X154985990Y-76766589D01*
X154823475Y-76523368D01*
X154616632Y-76316525D01*
X154442240Y-76200000D01*
X154616632Y-76083475D01*
X154823475Y-75876632D01*
X154985990Y-75633411D01*
X155097932Y-75363158D01*
X155155000Y-75076260D01*
X155155000Y-74783740D01*
X155097932Y-74496842D01*
X154985990Y-74226589D01*
X154823475Y-73983368D01*
X154616632Y-73776525D01*
X154442240Y-73660000D01*
X154616632Y-73543475D01*
X154823475Y-73336632D01*
X154985990Y-73093411D01*
X155097932Y-72823158D01*
X155155000Y-72536260D01*
X155155000Y-72243740D01*
X155097932Y-71956842D01*
X154985990Y-71686589D01*
X154823475Y-71443368D01*
X154691620Y-71311513D01*
X154764180Y-71289502D01*
X154874494Y-71230537D01*
X154971185Y-71151185D01*
X155050537Y-71054494D01*
X155109502Y-70944180D01*
X155145812Y-70824482D01*
X155158072Y-70700000D01*
X155158072Y-69000000D01*
X155145812Y-68875518D01*
X155109502Y-68755820D01*
X155050537Y-68645506D01*
X154971185Y-68548815D01*
X154874494Y-68469463D01*
X154764180Y-68410498D01*
X154644482Y-68374188D01*
X154520000Y-68361928D01*
X152820000Y-68361928D01*
X152695518Y-68374188D01*
X152575820Y-68410498D01*
X152465506Y-68469463D01*
X152368815Y-68548815D01*
X152289463Y-68645506D01*
X152230498Y-68755820D01*
X152194188Y-68875518D01*
X152181928Y-69000000D01*
X150545000Y-69000000D01*
X150545000Y-59509999D01*
X151376928Y-59509999D01*
X151376928Y-62410001D01*
X151393992Y-62583255D01*
X151444528Y-62749851D01*
X151526595Y-62903387D01*
X151637038Y-63037962D01*
X151771613Y-63148405D01*
X151925149Y-63230472D01*
X152091745Y-63281008D01*
X152264999Y-63298072D01*
X153340001Y-63298072D01*
X153513255Y-63281008D01*
X153679851Y-63230472D01*
X153833387Y-63148405D01*
X153967962Y-63037962D01*
X154078405Y-62903387D01*
X154160472Y-62749851D01*
X154211008Y-62583255D01*
X154228072Y-62410001D01*
X154228072Y-61477981D01*
X154233804Y-61470997D01*
X155651928Y-60052874D01*
X155651928Y-62410001D01*
X155668992Y-62583255D01*
X155719528Y-62749851D01*
X155801595Y-62903387D01*
X155912038Y-63037962D01*
X156046613Y-63148405D01*
X156200149Y-63230472D01*
X156366745Y-63281008D01*
X156539999Y-63298072D01*
X157615001Y-63298072D01*
X157788255Y-63281008D01*
X157954851Y-63230472D01*
X158108387Y-63148405D01*
X158242962Y-63037962D01*
X158353405Y-62903387D01*
X158435472Y-62749851D01*
X158486008Y-62583255D01*
X158503072Y-62410001D01*
X158503072Y-61720000D01*
X158712678Y-61720000D01*
X158750000Y-61723676D01*
X158787322Y-61720000D01*
X158787333Y-61720000D01*
X158898986Y-61709003D01*
X159042247Y-61665546D01*
X159174276Y-61594974D01*
X159290001Y-61500001D01*
X159313804Y-61470997D01*
X161329803Y-59455000D01*
X161391939Y-59455000D01*
X161591898Y-59415226D01*
X161780256Y-59337205D01*
X161796922Y-59326069D01*
X161800000Y-59357323D01*
X161800001Y-64060195D01*
X158384002Y-67476195D01*
X158354998Y-67499998D01*
X158299870Y-67567173D01*
X158260025Y-67615723D01*
X158222462Y-67685998D01*
X158189453Y-67747753D01*
X158145996Y-67891014D01*
X158134999Y-68002667D01*
X158134999Y-68002677D01*
X158131323Y-68039999D01*
X158134999Y-68077321D01*
X158135000Y-80117667D01*
X158131323Y-80154999D01*
X158145997Y-80303984D01*
X158189453Y-80447245D01*
X158260025Y-80579275D01*
X158331200Y-80666001D01*
X158354999Y-80695000D01*
X158383997Y-80718798D01*
X158621312Y-80956113D01*
X158585000Y-81138665D01*
X158585000Y-81421335D01*
X158640147Y-81698574D01*
X158748320Y-81959727D01*
X158905363Y-82194759D01*
X159105241Y-82394637D01*
X159337759Y-82550000D01*
X159105241Y-82705363D01*
X158905363Y-82905241D01*
X158748320Y-83140273D01*
X158640147Y-83401426D01*
X158585000Y-83678665D01*
X158585000Y-83961335D01*
X158640147Y-84238574D01*
X158748320Y-84499727D01*
X158905363Y-84734759D01*
X159105241Y-84934637D01*
X159337759Y-85090000D01*
X159105241Y-85245363D01*
X158905363Y-85445241D01*
X158748320Y-85680273D01*
X158640147Y-85941426D01*
X158585000Y-86218665D01*
X158585000Y-86501335D01*
X158640147Y-86778574D01*
X158748320Y-87039727D01*
X158905363Y-87274759D01*
X159105241Y-87474637D01*
X159337759Y-87630000D01*
X159105241Y-87785363D01*
X158905363Y-87985241D01*
X158748320Y-88220273D01*
X158640147Y-88481426D01*
X158585000Y-88758665D01*
X158585000Y-89041335D01*
X158640147Y-89318574D01*
X158748320Y-89579727D01*
X158905363Y-89814759D01*
X159105241Y-90014637D01*
X159337759Y-90170000D01*
X159105241Y-90325363D01*
X158905363Y-90525241D01*
X158748320Y-90760273D01*
X158640147Y-91021426D01*
X158585000Y-91298665D01*
X158585000Y-91581335D01*
X158640147Y-91858574D01*
X158748320Y-92119727D01*
X158905363Y-92354759D01*
X159105241Y-92554637D01*
X159337759Y-92710000D01*
X159105241Y-92865363D01*
X158905363Y-93065241D01*
X158748320Y-93300273D01*
X158640147Y-93561426D01*
X158585000Y-93838665D01*
X158585000Y-94121335D01*
X158640147Y-94398574D01*
X158748320Y-94659727D01*
X158905363Y-94894759D01*
X159105241Y-95094637D01*
X159337759Y-95250000D01*
X159105241Y-95405363D01*
X158905363Y-95605241D01*
X158748320Y-95840273D01*
X158640147Y-96101426D01*
X158585000Y-96378665D01*
X158585000Y-96661335D01*
X158640147Y-96938574D01*
X158748320Y-97199727D01*
X158905363Y-97434759D01*
X159105241Y-97634637D01*
X159337759Y-97790000D01*
X159105241Y-97945363D01*
X158905363Y-98145241D01*
X158748320Y-98380273D01*
X158640147Y-98641426D01*
X158585000Y-98918665D01*
X158585000Y-99201335D01*
X158640147Y-99478574D01*
X158748320Y-99739727D01*
X158905363Y-99974759D01*
X159105241Y-100174637D01*
X159337759Y-100330000D01*
X159105241Y-100485363D01*
X158905363Y-100685241D01*
X158748320Y-100920273D01*
X158640147Y-101181426D01*
X158585000Y-101458665D01*
X158585000Y-101741335D01*
X158640147Y-102018574D01*
X158748320Y-102279727D01*
X158905363Y-102514759D01*
X159103961Y-102713357D01*
X159095518Y-102714188D01*
X158975820Y-102750498D01*
X158865506Y-102809463D01*
X158768815Y-102888815D01*
X158689463Y-102985506D01*
X158630498Y-103095820D01*
X158594188Y-103215518D01*
X158581928Y-103340000D01*
X158581928Y-104940000D01*
X158594188Y-105064482D01*
X158630498Y-105184180D01*
X158689463Y-105294494D01*
X158768815Y-105391185D01*
X158865506Y-105470537D01*
X158975820Y-105529502D01*
X159095518Y-105565812D01*
X159220000Y-105578072D01*
X160820000Y-105578072D01*
X160944482Y-105565812D01*
X161064180Y-105529502D01*
X161174494Y-105470537D01*
X161271185Y-105391185D01*
X161350537Y-105294494D01*
X161409502Y-105184180D01*
X161445812Y-105064482D01*
X161458072Y-104940000D01*
X161458072Y-103776729D01*
X163644802Y-101590000D01*
X164112762Y-101590000D01*
X164114188Y-101604482D01*
X164150498Y-101724180D01*
X164209463Y-101834494D01*
X164288815Y-101931185D01*
X164385506Y-102010537D01*
X164495820Y-102069502D01*
X164615518Y-102105812D01*
X164740000Y-102118072D01*
X166168000Y-102118072D01*
X166292482Y-102105812D01*
X166344607Y-102090000D01*
X166380678Y-102090000D01*
X166418000Y-102093676D01*
X166455322Y-102090000D01*
X166455333Y-102090000D01*
X166566986Y-102079003D01*
X166710247Y-102035546D01*
X166842276Y-101964974D01*
X166958001Y-101870001D01*
X166981804Y-101840997D01*
X168473928Y-100348874D01*
X168473928Y-100480000D01*
X168483777Y-100580000D01*
X168473928Y-100680000D01*
X168473928Y-100961270D01*
X165859003Y-103576196D01*
X165829999Y-103599999D01*
X165774871Y-103667174D01*
X165735026Y-103715724D01*
X165664455Y-103847753D01*
X165664454Y-103847754D01*
X165620997Y-103991015D01*
X165610000Y-104102668D01*
X165610000Y-104102678D01*
X165606324Y-104140000D01*
X165610000Y-104177323D01*
X165610000Y-105245298D01*
X165476614Y-105316595D01*
X165342038Y-105427038D01*
X165231595Y-105561614D01*
X165149528Y-105715150D01*
X165098992Y-105881746D01*
X165081928Y-106055000D01*
X165081928Y-107305000D01*
X165098992Y-107478254D01*
X165149528Y-107644850D01*
X165231595Y-107798386D01*
X165342038Y-107932962D01*
X165476614Y-108043405D01*
X165630150Y-108125472D01*
X165796746Y-108176008D01*
X165810001Y-108177314D01*
X165810002Y-112609491D01*
X165586335Y-112565000D01*
X165303665Y-112565000D01*
X165026426Y-112620147D01*
X164765273Y-112728320D01*
X164530241Y-112885363D01*
X164330363Y-113085241D01*
X164173320Y-113320273D01*
X164065147Y-113581426D01*
X164060000Y-113607301D01*
X164054853Y-113581426D01*
X163946680Y-113320273D01*
X163789637Y-113085241D01*
X163589759Y-112885363D01*
X163354727Y-112728320D01*
X163093574Y-112620147D01*
X162816335Y-112565000D01*
X162533665Y-112565000D01*
X162256426Y-112620147D01*
X161995273Y-112728320D01*
X161760241Y-112885363D01*
X161560363Y-113085241D01*
X161403320Y-113320273D01*
X161295147Y-113581426D01*
X161240000Y-113858665D01*
X161240000Y-114141335D01*
X161295147Y-114418574D01*
X161403320Y-114679727D01*
X161560363Y-114914759D01*
X161760241Y-115114637D01*
X161995273Y-115271680D01*
X162256426Y-115379853D01*
X162533665Y-115435000D01*
X162816335Y-115435000D01*
X163093574Y-115379853D01*
X163354727Y-115271680D01*
X163589759Y-115114637D01*
X163789637Y-114914759D01*
X163946680Y-114679727D01*
X164054853Y-114418574D01*
X164060000Y-114392699D01*
X164065147Y-114418574D01*
X164173320Y-114679727D01*
X164330363Y-114914759D01*
X164530241Y-115114637D01*
X164765273Y-115271680D01*
X165026426Y-115379853D01*
X165303665Y-115435000D01*
X165586335Y-115435000D01*
X165810002Y-115390509D01*
X165810002Y-115830602D01*
X165715363Y-115925241D01*
X165558320Y-116160273D01*
X165450147Y-116421426D01*
X165445000Y-116447301D01*
X165439853Y-116421426D01*
X165331680Y-116160273D01*
X165174637Y-115925241D01*
X164974759Y-115725363D01*
X164739727Y-115568320D01*
X164478574Y-115460147D01*
X164201335Y-115405000D01*
X163918665Y-115405000D01*
X163641426Y-115460147D01*
X163380273Y-115568320D01*
X163145241Y-115725363D01*
X162945363Y-115925241D01*
X162788320Y-116160273D01*
X162728072Y-116305725D01*
X162728072Y-116040000D01*
X162715812Y-115915518D01*
X162679502Y-115795820D01*
X162620537Y-115685506D01*
X162541185Y-115588815D01*
X162444494Y-115509463D01*
X162334180Y-115450498D01*
X162214482Y-115414188D01*
X162090000Y-115401928D01*
X160490000Y-115401928D01*
X160365518Y-115414188D01*
X160245820Y-115450498D01*
X160135506Y-115509463D01*
X160038815Y-115588815D01*
X159959463Y-115685506D01*
X159900498Y-115795820D01*
X159864188Y-115915518D01*
X159851928Y-116040000D01*
X159851928Y-117640000D01*
X159864188Y-117764482D01*
X159900498Y-117884180D01*
X159959463Y-117994494D01*
X160038815Y-118091185D01*
X160135506Y-118170537D01*
X160245820Y-118229502D01*
X160365518Y-118265812D01*
X160490000Y-118278072D01*
X162090000Y-118278072D01*
X162214482Y-118265812D01*
X162334180Y-118229502D01*
X162444494Y-118170537D01*
X162541185Y-118091185D01*
X162620537Y-117994494D01*
X162679502Y-117884180D01*
X162715812Y-117764482D01*
X162728072Y-117640000D01*
X162728072Y-117374275D01*
X162788320Y-117519727D01*
X162945363Y-117754759D01*
X163145241Y-117954637D01*
X163380273Y-118111680D01*
X163641426Y-118219853D01*
X163918665Y-118275000D01*
X164201335Y-118275000D01*
X164478574Y-118219853D01*
X164739727Y-118111680D01*
X164974759Y-117954637D01*
X165174637Y-117754759D01*
X165331680Y-117519727D01*
X165439853Y-117258574D01*
X165445000Y-117232699D01*
X165450147Y-117258574D01*
X165558320Y-117519727D01*
X165715363Y-117754759D01*
X165915241Y-117954637D01*
X166150273Y-118111680D01*
X166411426Y-118219853D01*
X166688665Y-118275000D01*
X166971335Y-118275000D01*
X167248574Y-118219853D01*
X167509727Y-118111680D01*
X167744759Y-117954637D01*
X167944637Y-117754759D01*
X168101680Y-117519727D01*
X168209853Y-117258574D01*
X168215000Y-117232699D01*
X168220147Y-117258574D01*
X168328320Y-117519727D01*
X168485363Y-117754759D01*
X168685241Y-117954637D01*
X168920273Y-118111680D01*
X169181426Y-118219853D01*
X169458665Y-118275000D01*
X169741335Y-118275000D01*
X170018574Y-118219853D01*
X170279727Y-118111680D01*
X170514759Y-117954637D01*
X170714637Y-117754759D01*
X170871680Y-117519727D01*
X170979853Y-117258574D01*
X170985000Y-117232699D01*
X170990147Y-117258574D01*
X171098320Y-117519727D01*
X171255363Y-117754759D01*
X171455241Y-117954637D01*
X171690273Y-118111680D01*
X171951426Y-118219853D01*
X172228665Y-118275000D01*
X172511335Y-118275000D01*
X172788574Y-118219853D01*
X173049727Y-118111680D01*
X173284759Y-117954637D01*
X173484637Y-117754759D01*
X173641680Y-117519727D01*
X173749853Y-117258574D01*
X173805000Y-116981335D01*
X173805000Y-116698665D01*
X173749853Y-116421426D01*
X173641680Y-116160273D01*
X173484637Y-115925241D01*
X173284759Y-115725363D01*
X173049727Y-115568320D01*
X172788574Y-115460147D01*
X172511335Y-115405000D01*
X172228665Y-115405000D01*
X171951426Y-115460147D01*
X171690273Y-115568320D01*
X171455241Y-115725363D01*
X171255363Y-115925241D01*
X171098320Y-116160273D01*
X170990147Y-116421426D01*
X170985000Y-116447301D01*
X170979853Y-116421426D01*
X170871680Y-116160273D01*
X170714637Y-115925241D01*
X170514759Y-115725363D01*
X170279727Y-115568320D01*
X170018574Y-115460147D01*
X169741335Y-115405000D01*
X169458665Y-115405000D01*
X169181426Y-115460147D01*
X168920273Y-115568320D01*
X168685241Y-115725363D01*
X168485363Y-115925241D01*
X168328320Y-116160273D01*
X168220147Y-116421426D01*
X168215000Y-116447301D01*
X168209853Y-116421426D01*
X168101680Y-116160273D01*
X167944637Y-115925241D01*
X167744759Y-115725363D01*
X167509727Y-115568320D01*
X167330001Y-115493875D01*
X167330001Y-115134522D01*
X167535273Y-115271680D01*
X167796426Y-115379853D01*
X168073665Y-115435000D01*
X168356335Y-115435000D01*
X168633574Y-115379853D01*
X168894727Y-115271680D01*
X169129759Y-115114637D01*
X169329637Y-114914759D01*
X169486680Y-114679727D01*
X169594853Y-114418574D01*
X169600000Y-114392699D01*
X169605147Y-114418574D01*
X169713320Y-114679727D01*
X169870363Y-114914759D01*
X170070241Y-115114637D01*
X170305273Y-115271680D01*
X170566426Y-115379853D01*
X170843665Y-115435000D01*
X171126335Y-115435000D01*
X171403574Y-115379853D01*
X171664727Y-115271680D01*
X171831157Y-115160475D01*
X176695000Y-115160475D01*
X176695000Y-115679525D01*
X176796261Y-116188601D01*
X176994893Y-116668141D01*
X177283262Y-117099715D01*
X177650285Y-117466738D01*
X178081859Y-117755107D01*
X178561399Y-117953739D01*
X179070475Y-118055000D01*
X179589525Y-118055000D01*
X180098601Y-117953739D01*
X180578141Y-117755107D01*
X181009715Y-117466738D01*
X181376738Y-117099715D01*
X181665107Y-116668141D01*
X181863739Y-116188601D01*
X181965000Y-115679525D01*
X181965000Y-115160475D01*
X181863739Y-114651399D01*
X181665107Y-114171859D01*
X181376738Y-113740285D01*
X181009715Y-113373262D01*
X180578141Y-113084893D01*
X180098601Y-112886261D01*
X179589525Y-112785000D01*
X179070475Y-112785000D01*
X178561399Y-112886261D01*
X178081859Y-113084893D01*
X177650285Y-113373262D01*
X177283262Y-113740285D01*
X176994893Y-114171859D01*
X176796261Y-114651399D01*
X176695000Y-115160475D01*
X171831157Y-115160475D01*
X171899759Y-115114637D01*
X172099637Y-114914759D01*
X172256680Y-114679727D01*
X172364853Y-114418574D01*
X172420000Y-114141335D01*
X172420000Y-113858665D01*
X172364853Y-113581426D01*
X172256680Y-113320273D01*
X172099637Y-113085241D01*
X171899759Y-112885363D01*
X171664727Y-112728320D01*
X171403574Y-112620147D01*
X171126335Y-112565000D01*
X170843665Y-112565000D01*
X170566426Y-112620147D01*
X170305273Y-112728320D01*
X170230391Y-112778354D01*
X170233676Y-112745001D01*
X170230000Y-112707678D01*
X170230000Y-108114702D01*
X170363386Y-108043405D01*
X170497962Y-107932962D01*
X170608405Y-107798386D01*
X170690472Y-107644850D01*
X170741008Y-107478254D01*
X170758072Y-107305000D01*
X170758072Y-106466730D01*
X171376004Y-105848798D01*
X171405002Y-105825000D01*
X171474760Y-105739999D01*
X178001928Y-105739999D01*
X178001928Y-106815001D01*
X178018992Y-106988255D01*
X178069528Y-107154851D01*
X178151595Y-107308387D01*
X178262038Y-107442962D01*
X178396613Y-107553405D01*
X178550149Y-107635472D01*
X178716745Y-107686008D01*
X178889999Y-107703072D01*
X179333840Y-107703072D01*
X179305000Y-107848061D01*
X179305000Y-108051939D01*
X179344774Y-108251898D01*
X179422795Y-108440256D01*
X179536063Y-108609774D01*
X179680226Y-108753937D01*
X179849744Y-108867205D01*
X180038102Y-108945226D01*
X180238061Y-108985000D01*
X180441939Y-108985000D01*
X180641898Y-108945226D01*
X180830256Y-108867205D01*
X180999774Y-108753937D01*
X181143937Y-108609774D01*
X181257205Y-108440256D01*
X181335226Y-108251898D01*
X181375000Y-108051939D01*
X181375000Y-107848061D01*
X181346160Y-107703072D01*
X181790001Y-107703072D01*
X181963255Y-107686008D01*
X182129851Y-107635472D01*
X182283387Y-107553405D01*
X182417962Y-107442962D01*
X182528405Y-107308387D01*
X182610472Y-107154851D01*
X182661008Y-106988255D01*
X182678072Y-106815001D01*
X182678072Y-105739999D01*
X182661008Y-105566745D01*
X182610472Y-105400149D01*
X182528405Y-105246613D01*
X182417962Y-105112038D01*
X182283387Y-105001595D01*
X182129851Y-104919528D01*
X181963255Y-104868992D01*
X181790001Y-104851928D01*
X178889999Y-104851928D01*
X178716745Y-104868992D01*
X178550149Y-104919528D01*
X178396613Y-105001595D01*
X178262038Y-105112038D01*
X178151595Y-105246613D01*
X178069528Y-105400149D01*
X178018992Y-105566745D01*
X178001928Y-105739999D01*
X171474760Y-105739999D01*
X171499975Y-105709275D01*
X171570547Y-105577246D01*
X171614004Y-105433985D01*
X171625001Y-105322332D01*
X171625001Y-105322323D01*
X171628677Y-105285000D01*
X171625001Y-105247677D01*
X171625001Y-101579803D01*
X171685000Y-101639802D01*
X171685000Y-101701939D01*
X171724774Y-101901898D01*
X171802795Y-102090256D01*
X171916063Y-102259774D01*
X172060226Y-102403937D01*
X172229744Y-102517205D01*
X172418102Y-102595226D01*
X172618061Y-102635000D01*
X172821939Y-102635000D01*
X173021898Y-102595226D01*
X173210256Y-102517205D01*
X173379774Y-102403937D01*
X173523937Y-102259774D01*
X173637205Y-102090256D01*
X173715226Y-101901898D01*
X173755000Y-101701939D01*
X173755000Y-101498061D01*
X173715226Y-101298102D01*
X173637205Y-101109744D01*
X173540490Y-100965000D01*
X173637205Y-100820256D01*
X173715226Y-100631898D01*
X173755000Y-100431939D01*
X173755000Y-100228061D01*
X173715226Y-100028102D01*
X173637205Y-99839744D01*
X173523937Y-99670226D01*
X173379774Y-99526063D01*
X173210256Y-99412795D01*
X173021898Y-99334774D01*
X172821939Y-99295000D01*
X172764105Y-99295000D01*
X172760001Y-99289999D01*
X172644276Y-99195026D01*
X172512247Y-99124454D01*
X172368986Y-99080997D01*
X172257333Y-99070000D01*
X172257322Y-99070000D01*
X172220000Y-99066324D01*
X172182678Y-99070000D01*
X171167238Y-99070000D01*
X171165812Y-99055518D01*
X171129502Y-98935820D01*
X171070537Y-98825506D01*
X170991185Y-98728815D01*
X170894494Y-98649463D01*
X170817926Y-98608536D01*
X170839774Y-98593937D01*
X170983937Y-98449774D01*
X171097205Y-98280256D01*
X171175226Y-98091898D01*
X171215000Y-97891939D01*
X171215000Y-97688061D01*
X171186160Y-97543072D01*
X171630001Y-97543072D01*
X171803255Y-97526008D01*
X171969851Y-97475472D01*
X172123387Y-97393405D01*
X172257962Y-97282962D01*
X172368405Y-97148387D01*
X172450472Y-96994851D01*
X172501008Y-96828255D01*
X172518072Y-96655001D01*
X172518072Y-95579999D01*
X172501008Y-95406745D01*
X172450472Y-95240149D01*
X172368405Y-95086613D01*
X172257962Y-94952038D01*
X172123387Y-94841595D01*
X171969851Y-94759528D01*
X171803255Y-94708992D01*
X171630001Y-94691928D01*
X168914990Y-94691928D01*
X168914990Y-94182311D01*
X169829230Y-93268072D01*
X171630001Y-93268072D01*
X171803255Y-93251008D01*
X171969851Y-93200472D01*
X172123387Y-93118405D01*
X172257962Y-93007962D01*
X172368405Y-92873387D01*
X172450472Y-92719851D01*
X172501008Y-92553255D01*
X172518072Y-92380001D01*
X172518072Y-91304999D01*
X172501008Y-91131745D01*
X172450472Y-90965149D01*
X172368405Y-90811613D01*
X172257962Y-90677038D01*
X172123387Y-90566595D01*
X171969851Y-90484528D01*
X171803255Y-90433992D01*
X171630001Y-90416928D01*
X170940000Y-90416928D01*
X170940000Y-89603711D01*
X170983937Y-89559774D01*
X171097205Y-89390256D01*
X171175226Y-89201898D01*
X171215000Y-89001939D01*
X171215000Y-88798061D01*
X171175226Y-88598102D01*
X171097205Y-88409744D01*
X170983937Y-88240226D01*
X170839774Y-88096063D01*
X170670256Y-87982795D01*
X170481898Y-87904774D01*
X170281939Y-87865000D01*
X170078061Y-87865000D01*
X169878102Y-87904774D01*
X169689744Y-87982795D01*
X169520226Y-88096063D01*
X169376063Y-88240226D01*
X169262795Y-88409744D01*
X169184774Y-88598102D01*
X169145000Y-88798061D01*
X169145000Y-89001939D01*
X169184774Y-89201898D01*
X169262795Y-89390256D01*
X169376063Y-89559774D01*
X169420001Y-89603712D01*
X169420000Y-90416928D01*
X168729999Y-90416928D01*
X168556745Y-90433992D01*
X168390149Y-90484528D01*
X168236613Y-90566595D01*
X168102038Y-90677038D01*
X167991595Y-90811613D01*
X167909528Y-90965149D01*
X167858992Y-91131745D01*
X167841928Y-91304999D01*
X167841928Y-92380001D01*
X167858992Y-92553255D01*
X167909528Y-92719851D01*
X167991595Y-92873387D01*
X168028880Y-92918819D01*
X167643988Y-93303711D01*
X167614990Y-93327509D01*
X167591192Y-93356507D01*
X167591191Y-93356508D01*
X167520016Y-93443234D01*
X167449444Y-93575264D01*
X167405988Y-93718525D01*
X167391314Y-93867510D01*
X167394991Y-93904842D01*
X167394990Y-97740188D01*
X161418688Y-91763887D01*
X161455000Y-91581335D01*
X161455000Y-91298665D01*
X161399853Y-91021426D01*
X161291680Y-90760273D01*
X161134637Y-90525241D01*
X160934759Y-90325363D01*
X160702241Y-90170000D01*
X160934759Y-90014637D01*
X161134637Y-89814759D01*
X161291680Y-89579727D01*
X161399853Y-89318574D01*
X161455000Y-89041335D01*
X161455000Y-88758665D01*
X161418688Y-88576114D01*
X161656004Y-88338798D01*
X161685002Y-88315000D01*
X161779975Y-88199275D01*
X161850547Y-88067246D01*
X161894004Y-87923985D01*
X161905001Y-87812332D01*
X161905001Y-87812324D01*
X161908677Y-87774999D01*
X161905001Y-87737674D01*
X161905001Y-68438665D01*
X173825000Y-68438665D01*
X173825000Y-68721335D01*
X173880147Y-68998574D01*
X173988320Y-69259727D01*
X174145363Y-69494759D01*
X174345241Y-69694637D01*
X174577759Y-69850000D01*
X174345241Y-70005363D01*
X174145363Y-70205241D01*
X173988320Y-70440273D01*
X173880147Y-70701426D01*
X173825000Y-70978665D01*
X173825000Y-71261335D01*
X173880147Y-71538574D01*
X173988320Y-71799727D01*
X174145363Y-72034759D01*
X174345241Y-72234637D01*
X174577759Y-72390000D01*
X174345241Y-72545363D01*
X174145363Y-72745241D01*
X173988320Y-72980273D01*
X173880147Y-73241426D01*
X173825000Y-73518665D01*
X173825000Y-73801335D01*
X173880147Y-74078574D01*
X173988320Y-74339727D01*
X174145363Y-74574759D01*
X174345241Y-74774637D01*
X174577759Y-74930000D01*
X174345241Y-75085363D01*
X174145363Y-75285241D01*
X173988320Y-75520273D01*
X173880147Y-75781426D01*
X173825000Y-76058665D01*
X173825000Y-76341335D01*
X173880147Y-76618574D01*
X173988320Y-76879727D01*
X174145363Y-77114759D01*
X174345241Y-77314637D01*
X174577759Y-77470000D01*
X174345241Y-77625363D01*
X174145363Y-77825241D01*
X173988320Y-78060273D01*
X173880147Y-78321426D01*
X173825000Y-78598665D01*
X173825000Y-78881335D01*
X173880147Y-79158574D01*
X173988320Y-79419727D01*
X174145363Y-79654759D01*
X174345241Y-79854637D01*
X174577759Y-80010000D01*
X174345241Y-80165363D01*
X174145363Y-80365241D01*
X173988320Y-80600273D01*
X173880147Y-80861426D01*
X173825000Y-81138665D01*
X173825000Y-81421335D01*
X173880147Y-81698574D01*
X173988320Y-81959727D01*
X174145363Y-82194759D01*
X174345241Y-82394637D01*
X174577759Y-82550000D01*
X174345241Y-82705363D01*
X174145363Y-82905241D01*
X173988320Y-83140273D01*
X173880147Y-83401426D01*
X173825000Y-83678665D01*
X173825000Y-83961335D01*
X173880147Y-84238574D01*
X173988320Y-84499727D01*
X174145363Y-84734759D01*
X174345241Y-84934637D01*
X174577759Y-85090000D01*
X174345241Y-85245363D01*
X174145363Y-85445241D01*
X173988320Y-85680273D01*
X173880147Y-85941426D01*
X173825000Y-86218665D01*
X173825000Y-86501335D01*
X173880147Y-86778574D01*
X173988320Y-87039727D01*
X174145363Y-87274759D01*
X174345241Y-87474637D01*
X174577759Y-87630000D01*
X174345241Y-87785363D01*
X174145363Y-87985241D01*
X173988320Y-88220273D01*
X173880147Y-88481426D01*
X173825000Y-88758665D01*
X173825000Y-89041335D01*
X173880147Y-89318574D01*
X173988320Y-89579727D01*
X174145363Y-89814759D01*
X174345241Y-90014637D01*
X174577759Y-90170000D01*
X174345241Y-90325363D01*
X174145363Y-90525241D01*
X173988320Y-90760273D01*
X173880147Y-91021426D01*
X173825000Y-91298665D01*
X173825000Y-91581335D01*
X173880147Y-91858574D01*
X173988320Y-92119727D01*
X174145363Y-92354759D01*
X174345241Y-92554637D01*
X174577759Y-92710000D01*
X174345241Y-92865363D01*
X174145363Y-93065241D01*
X173988320Y-93300273D01*
X173880147Y-93561426D01*
X173825000Y-93838665D01*
X173825000Y-94121335D01*
X173880147Y-94398574D01*
X173988320Y-94659727D01*
X174145363Y-94894759D01*
X174345241Y-95094637D01*
X174577759Y-95250000D01*
X174345241Y-95405363D01*
X174145363Y-95605241D01*
X173988320Y-95840273D01*
X173880147Y-96101426D01*
X173825000Y-96378665D01*
X173825000Y-96661335D01*
X173880147Y-96938574D01*
X173988320Y-97199727D01*
X174145363Y-97434759D01*
X174345241Y-97634637D01*
X174577759Y-97790000D01*
X174345241Y-97945363D01*
X174145363Y-98145241D01*
X173988320Y-98380273D01*
X173880147Y-98641426D01*
X173825000Y-98918665D01*
X173825000Y-99201335D01*
X173880147Y-99478574D01*
X173988320Y-99739727D01*
X174145363Y-99974759D01*
X174345241Y-100174637D01*
X174577759Y-100330000D01*
X174345241Y-100485363D01*
X174145363Y-100685241D01*
X173988320Y-100920273D01*
X173880147Y-101181426D01*
X173825000Y-101458665D01*
X173825000Y-101741335D01*
X173880147Y-102018574D01*
X173988320Y-102279727D01*
X174145363Y-102514759D01*
X174345241Y-102714637D01*
X174577759Y-102870000D01*
X174345241Y-103025363D01*
X174145363Y-103225241D01*
X173988320Y-103460273D01*
X173880147Y-103721426D01*
X173825000Y-103998665D01*
X173825000Y-104281335D01*
X173880147Y-104558574D01*
X173988320Y-104819727D01*
X174145363Y-105054759D01*
X174345241Y-105254637D01*
X174580273Y-105411680D01*
X174841426Y-105519853D01*
X175118665Y-105575000D01*
X175401335Y-105575000D01*
X175678574Y-105519853D01*
X175939727Y-105411680D01*
X176174759Y-105254637D01*
X176374637Y-105054759D01*
X176531680Y-104819727D01*
X176639853Y-104558574D01*
X176695000Y-104281335D01*
X176695000Y-103998665D01*
X176639853Y-103721426D01*
X176531680Y-103460273D01*
X176374637Y-103225241D01*
X176174759Y-103025363D01*
X175942241Y-102870000D01*
X176174759Y-102714637D01*
X176374637Y-102514759D01*
X176531680Y-102279727D01*
X176639853Y-102018574D01*
X176695000Y-101741335D01*
X176695000Y-101464999D01*
X178001928Y-101464999D01*
X178001928Y-102540001D01*
X178018992Y-102713255D01*
X178069528Y-102879851D01*
X178151595Y-103033387D01*
X178262038Y-103167962D01*
X178396613Y-103278405D01*
X178550149Y-103360472D01*
X178716745Y-103411008D01*
X178889999Y-103428072D01*
X181790001Y-103428072D01*
X181963255Y-103411008D01*
X182129851Y-103360472D01*
X182283387Y-103278405D01*
X182417962Y-103167962D01*
X182528405Y-103033387D01*
X182610472Y-102879851D01*
X182661008Y-102713255D01*
X182678072Y-102540001D01*
X182678072Y-101464999D01*
X182661008Y-101291745D01*
X182610472Y-101125149D01*
X182528405Y-100971613D01*
X182417962Y-100837038D01*
X182283387Y-100726595D01*
X182129851Y-100644528D01*
X181963255Y-100593992D01*
X181790001Y-100576928D01*
X181346160Y-100576928D01*
X181375000Y-100431939D01*
X181375000Y-100228061D01*
X181335226Y-100028102D01*
X181257205Y-99839744D01*
X181143937Y-99670226D01*
X180999774Y-99526063D01*
X180830256Y-99412795D01*
X180641898Y-99334774D01*
X180441939Y-99295000D01*
X180238061Y-99295000D01*
X180038102Y-99334774D01*
X179849744Y-99412795D01*
X179680226Y-99526063D01*
X179536063Y-99670226D01*
X179422795Y-99839744D01*
X179344774Y-100028102D01*
X179305000Y-100228061D01*
X179305000Y-100431939D01*
X179333840Y-100576928D01*
X178889999Y-100576928D01*
X178716745Y-100593992D01*
X178550149Y-100644528D01*
X178396613Y-100726595D01*
X178262038Y-100837038D01*
X178151595Y-100971613D01*
X178069528Y-101125149D01*
X178018992Y-101291745D01*
X178001928Y-101464999D01*
X176695000Y-101464999D01*
X176695000Y-101458665D01*
X176639853Y-101181426D01*
X176531680Y-100920273D01*
X176374637Y-100685241D01*
X176174759Y-100485363D01*
X175942241Y-100330000D01*
X176174759Y-100174637D01*
X176374637Y-99974759D01*
X176531680Y-99739727D01*
X176639853Y-99478574D01*
X176695000Y-99201335D01*
X176695000Y-98918665D01*
X176639853Y-98641426D01*
X176531680Y-98380273D01*
X176374637Y-98145241D01*
X176174759Y-97945363D01*
X175942241Y-97790000D01*
X176174759Y-97634637D01*
X176374637Y-97434759D01*
X176531680Y-97199727D01*
X176639853Y-96938574D01*
X176695000Y-96661335D01*
X176695000Y-96378665D01*
X176639853Y-96101426D01*
X176531680Y-95840273D01*
X176374637Y-95605241D01*
X176174759Y-95405363D01*
X175942241Y-95250000D01*
X176174759Y-95094637D01*
X176374637Y-94894759D01*
X176531680Y-94659727D01*
X176639853Y-94398574D01*
X176695000Y-94121335D01*
X176695000Y-93838665D01*
X176639853Y-93561426D01*
X176531680Y-93300273D01*
X176374637Y-93065241D01*
X176174759Y-92865363D01*
X175942241Y-92710000D01*
X176174759Y-92554637D01*
X176374637Y-92354759D01*
X176531680Y-92119727D01*
X176639853Y-91858574D01*
X176695000Y-91581335D01*
X176695000Y-91298665D01*
X176639853Y-91021426D01*
X176531680Y-90760273D01*
X176374637Y-90525241D01*
X176174759Y-90325363D01*
X175942241Y-90170000D01*
X176174759Y-90014637D01*
X176374637Y-89814759D01*
X176531680Y-89579727D01*
X176639853Y-89318574D01*
X176695000Y-89041335D01*
X176695000Y-88758665D01*
X176639853Y-88481426D01*
X176531680Y-88220273D01*
X176374637Y-87985241D01*
X176174759Y-87785363D01*
X175942241Y-87630000D01*
X176174759Y-87474637D01*
X176374637Y-87274759D01*
X176531680Y-87039727D01*
X176639853Y-86778574D01*
X176695000Y-86501335D01*
X176695000Y-86218665D01*
X176639853Y-85941426D01*
X176531680Y-85680273D01*
X176374637Y-85445241D01*
X176174759Y-85245363D01*
X175942241Y-85090000D01*
X176174759Y-84934637D01*
X176374637Y-84734759D01*
X176531680Y-84499727D01*
X176639853Y-84238574D01*
X176695000Y-83961335D01*
X176695000Y-83678665D01*
X176639853Y-83401426D01*
X176531680Y-83140273D01*
X176374637Y-82905241D01*
X176174759Y-82705363D01*
X175942241Y-82550000D01*
X176174759Y-82394637D01*
X176374637Y-82194759D01*
X176531680Y-81959727D01*
X176639853Y-81698574D01*
X176695000Y-81421335D01*
X176695000Y-81138665D01*
X176639853Y-80861426D01*
X176531680Y-80600273D01*
X176374637Y-80365241D01*
X176174759Y-80165363D01*
X175942241Y-80010000D01*
X176174759Y-79854637D01*
X176374637Y-79654759D01*
X176531680Y-79419727D01*
X176639853Y-79158574D01*
X176695000Y-78881335D01*
X176695000Y-78598665D01*
X176639853Y-78321426D01*
X176531680Y-78060273D01*
X176374637Y-77825241D01*
X176174759Y-77625363D01*
X175942241Y-77470000D01*
X176174759Y-77314637D01*
X176374637Y-77114759D01*
X176531680Y-76879727D01*
X176639853Y-76618574D01*
X176695000Y-76341335D01*
X176695000Y-76058665D01*
X176639853Y-75781426D01*
X176531680Y-75520273D01*
X176374637Y-75285241D01*
X176174759Y-75085363D01*
X175942241Y-74930000D01*
X176174759Y-74774637D01*
X176374637Y-74574759D01*
X176531680Y-74339727D01*
X176639853Y-74078574D01*
X176695000Y-73801335D01*
X176695000Y-73518665D01*
X176639853Y-73241426D01*
X176531680Y-72980273D01*
X176374637Y-72745241D01*
X176174759Y-72545363D01*
X175942241Y-72390000D01*
X176174759Y-72234637D01*
X176374637Y-72034759D01*
X176531680Y-71799727D01*
X176639853Y-71538574D01*
X176695000Y-71261335D01*
X176695000Y-70978665D01*
X176639853Y-70701426D01*
X176531680Y-70440273D01*
X176374637Y-70205241D01*
X176174759Y-70005363D01*
X175942241Y-69850000D01*
X176174759Y-69694637D01*
X176374637Y-69494759D01*
X176531680Y-69259727D01*
X176639853Y-68998574D01*
X176695000Y-68721335D01*
X176695000Y-68438665D01*
X176639853Y-68161426D01*
X176531680Y-67900273D01*
X176374637Y-67665241D01*
X176174759Y-67465363D01*
X175939727Y-67308320D01*
X175678574Y-67200147D01*
X175401335Y-67145000D01*
X175118665Y-67145000D01*
X174841426Y-67200147D01*
X174580273Y-67308320D01*
X174345241Y-67465363D01*
X174145363Y-67665241D01*
X173988320Y-67900273D01*
X173880147Y-68161426D01*
X173825000Y-68438665D01*
X161905001Y-68438665D01*
X161905001Y-67085587D01*
X169445282Y-59545307D01*
X169490013Y-59612252D01*
X169717748Y-59839987D01*
X169985537Y-60018918D01*
X170283088Y-60142168D01*
X170598967Y-60205000D01*
X170921033Y-60205000D01*
X171236912Y-60142168D01*
X171534463Y-60018918D01*
X171802252Y-59839987D01*
X172029987Y-59612252D01*
X172208918Y-59344463D01*
X172332168Y-59046912D01*
X172395000Y-58731033D01*
X172395000Y-58408967D01*
X173625000Y-58408967D01*
X173625000Y-58731033D01*
X173687832Y-59046912D01*
X173811082Y-59344463D01*
X173990013Y-59612252D01*
X174217748Y-59839987D01*
X174485537Y-60018918D01*
X174783088Y-60142168D01*
X175098967Y-60205000D01*
X175421033Y-60205000D01*
X175736912Y-60142168D01*
X176034463Y-60018918D01*
X176302252Y-59839987D01*
X176529987Y-59612252D01*
X176708918Y-59344463D01*
X176832168Y-59046912D01*
X176895000Y-58731033D01*
X176895000Y-58408967D01*
X176832168Y-58093088D01*
X176708918Y-57795537D01*
X176529987Y-57527748D01*
X176302252Y-57300013D01*
X176034463Y-57121082D01*
X175736912Y-56997832D01*
X175421033Y-56935000D01*
X175098967Y-56935000D01*
X174783088Y-56997832D01*
X174485537Y-57121082D01*
X174217748Y-57300013D01*
X173990013Y-57527748D01*
X173811082Y-57795537D01*
X173687832Y-58093088D01*
X173625000Y-58408967D01*
X172395000Y-58408967D01*
X172332168Y-58093088D01*
X172208918Y-57795537D01*
X172029987Y-57527748D01*
X171802252Y-57300013D01*
X171534463Y-57121082D01*
X171520000Y-57115091D01*
X171520000Y-53524909D01*
X171534463Y-53518918D01*
X171802252Y-53339987D01*
X172029987Y-53112252D01*
X172208918Y-52844463D01*
X172332168Y-52546912D01*
X172395000Y-52231033D01*
X172395000Y-51908967D01*
X173625000Y-51908967D01*
X173625000Y-52231033D01*
X173687832Y-52546912D01*
X173811082Y-52844463D01*
X173990013Y-53112252D01*
X174217748Y-53339987D01*
X174485537Y-53518918D01*
X174783088Y-53642168D01*
X175098967Y-53705000D01*
X175421033Y-53705000D01*
X175736912Y-53642168D01*
X176034463Y-53518918D01*
X176302252Y-53339987D01*
X176522367Y-53119872D01*
X178105000Y-53119872D01*
X178105000Y-53560128D01*
X178190890Y-53991925D01*
X178359369Y-54398669D01*
X178603962Y-54764729D01*
X178915271Y-55076038D01*
X179281331Y-55320631D01*
X179688075Y-55489110D01*
X180119872Y-55575000D01*
X180560128Y-55575000D01*
X180991925Y-55489110D01*
X181398669Y-55320631D01*
X181764729Y-55076038D01*
X182076038Y-54764729D01*
X182320631Y-54398669D01*
X182489110Y-53991925D01*
X182575000Y-53560128D01*
X182575000Y-53119872D01*
X182489110Y-52688075D01*
X182320631Y-52281331D01*
X182076038Y-51915271D01*
X181764729Y-51603962D01*
X181398669Y-51359369D01*
X180991925Y-51190890D01*
X180560128Y-51105000D01*
X180119872Y-51105000D01*
X179688075Y-51190890D01*
X179281331Y-51359369D01*
X178915271Y-51603962D01*
X178603962Y-51915271D01*
X178359369Y-52281331D01*
X178190890Y-52688075D01*
X178105000Y-53119872D01*
X176522367Y-53119872D01*
X176529987Y-53112252D01*
X176708918Y-52844463D01*
X176832168Y-52546912D01*
X176895000Y-52231033D01*
X176895000Y-51908967D01*
X176832168Y-51593088D01*
X176708918Y-51295537D01*
X176529987Y-51027748D01*
X176302252Y-50800013D01*
X176034463Y-50621082D01*
X175736912Y-50497832D01*
X175421033Y-50435000D01*
X175098967Y-50435000D01*
X174783088Y-50497832D01*
X174485537Y-50621082D01*
X174217748Y-50800013D01*
X173990013Y-51027748D01*
X173811082Y-51295537D01*
X173687832Y-51593088D01*
X173625000Y-51908967D01*
X172395000Y-51908967D01*
X172332168Y-51593088D01*
X172208918Y-51295537D01*
X172029987Y-51027748D01*
X171802252Y-50800013D01*
X171534463Y-50621082D01*
X171236912Y-50497832D01*
X170921033Y-50435000D01*
X170598967Y-50435000D01*
X170283088Y-50497832D01*
X169985537Y-50621082D01*
X169717748Y-50800013D01*
X169490013Y-51027748D01*
X169311082Y-51295537D01*
X169187832Y-51593088D01*
X169125000Y-51908967D01*
X169125000Y-52231033D01*
X169187832Y-52546912D01*
X169311082Y-52844463D01*
X169490013Y-53112252D01*
X169717748Y-53339987D01*
X169985537Y-53518918D01*
X170000000Y-53524909D01*
X170000001Y-57115091D01*
X169985537Y-57121082D01*
X169717748Y-57300013D01*
X169490013Y-57527748D01*
X169311082Y-57795537D01*
X169304948Y-57810345D01*
X169196801Y-57820997D01*
X169053540Y-57864454D01*
X168921511Y-57935026D01*
X168805786Y-58029999D01*
X168781988Y-58058997D01*
X163320000Y-63520986D01*
X163320000Y-59634801D01*
X165536731Y-57418072D01*
X165751600Y-57418072D01*
X165924542Y-57401039D01*
X166090838Y-57350593D01*
X166244097Y-57268675D01*
X166378430Y-57158430D01*
X166488675Y-57024097D01*
X166570593Y-56870838D01*
X166621039Y-56704542D01*
X166638072Y-56531600D01*
X166638072Y-55228400D01*
X166621039Y-55055458D01*
X166570593Y-54889162D01*
X166488675Y-54735903D01*
X166378430Y-54601570D01*
X166244097Y-54491325D01*
X166090838Y-54409407D01*
X165924542Y-54358961D01*
X165751600Y-54341928D01*
X164448400Y-54341928D01*
X164275458Y-54358961D01*
X164109162Y-54409407D01*
X163955903Y-54491325D01*
X163821570Y-54601570D01*
X163711325Y-54735903D01*
X163667922Y-54817105D01*
X163538505Y-54687688D01*
X163287095Y-54519701D01*
X163007743Y-54403989D01*
X162711184Y-54345000D01*
X162408816Y-54345000D01*
X162112257Y-54403989D01*
X161832905Y-54519701D01*
X161581495Y-54687688D01*
X161367688Y-54901495D01*
X161290000Y-55017763D01*
X161212312Y-54901495D01*
X160998505Y-54687688D01*
X160747095Y-54519701D01*
X160467743Y-54403989D01*
X160171184Y-54345000D01*
X159868816Y-54345000D01*
X159572257Y-54403989D01*
X159292905Y-54519701D01*
X159041495Y-54687688D01*
X158827688Y-54901495D01*
X158659701Y-55152905D01*
X158543989Y-55432257D01*
X158485000Y-55728816D01*
X158485000Y-56031184D01*
X158543989Y-56327743D01*
X158659701Y-56607095D01*
X158827688Y-56858505D01*
X159041495Y-57072312D01*
X159292905Y-57240299D01*
X159572257Y-57356011D01*
X159868816Y-57415000D01*
X160171184Y-57415000D01*
X160467743Y-57356011D01*
X160747095Y-57240299D01*
X160998505Y-57072312D01*
X161212312Y-56858505D01*
X161290000Y-56742237D01*
X161367688Y-56858505D01*
X161581495Y-57072312D01*
X161832905Y-57240299D01*
X162112257Y-57356011D01*
X162408816Y-57415000D01*
X162711184Y-57415000D01*
X163007743Y-57356011D01*
X163287095Y-57240299D01*
X163538505Y-57072312D01*
X163667922Y-56942895D01*
X163711325Y-57024097D01*
X163742777Y-57062421D01*
X162325000Y-58480199D01*
X162325000Y-58318061D01*
X162285226Y-58118102D01*
X162207205Y-57929744D01*
X162093937Y-57760226D01*
X161949774Y-57616063D01*
X161780256Y-57502795D01*
X161591898Y-57424774D01*
X161391939Y-57385000D01*
X161188061Y-57385000D01*
X160988102Y-57424774D01*
X160799744Y-57502795D01*
X160630226Y-57616063D01*
X160486063Y-57760226D01*
X160372795Y-57929744D01*
X160294774Y-58118102D01*
X160255000Y-58318061D01*
X160255000Y-58380197D01*
X158503072Y-60132127D01*
X158503072Y-59509999D01*
X158486008Y-59336745D01*
X158435472Y-59170149D01*
X158353405Y-59016613D01*
X158242962Y-58882038D01*
X158108387Y-58771595D01*
X157954851Y-58689528D01*
X157788255Y-58638992D01*
X157615001Y-58621928D01*
X157225111Y-58621928D01*
X157245000Y-58521939D01*
X157245000Y-58318061D01*
X157205226Y-58118102D01*
X157127205Y-57929744D01*
X157013937Y-57760226D01*
X156869774Y-57616063D01*
X156700256Y-57502795D01*
X156511898Y-57424774D01*
X156311939Y-57385000D01*
X156108061Y-57385000D01*
X155908102Y-57424774D01*
X155719744Y-57502795D01*
X155550226Y-57616063D01*
X155406063Y-57760226D01*
X155292795Y-57929744D01*
X155214774Y-58118102D01*
X155175000Y-58318061D01*
X155175000Y-58380197D01*
X154211676Y-59343523D01*
X154211008Y-59336745D01*
X154160472Y-59170149D01*
X154078405Y-59016613D01*
X153967962Y-58882038D01*
X153833387Y-58771595D01*
X153679851Y-58689528D01*
X153513255Y-58638992D01*
X153340001Y-58621928D01*
X152264999Y-58621928D01*
X152091745Y-58638992D01*
X151925149Y-58689528D01*
X151771613Y-58771595D01*
X151637038Y-58882038D01*
X151526595Y-59016613D01*
X151444528Y-59170149D01*
X151393992Y-59336745D01*
X151376928Y-59509999D01*
X150545000Y-59509999D01*
X150545000Y-53119872D01*
X151435000Y-53119872D01*
X151435000Y-53560128D01*
X151520890Y-53991925D01*
X151689369Y-54398669D01*
X151933962Y-54764729D01*
X152245271Y-55076038D01*
X152611331Y-55320631D01*
X153018075Y-55489110D01*
X153449872Y-55575000D01*
X153890128Y-55575000D01*
X154321925Y-55489110D01*
X154728669Y-55320631D01*
X155094729Y-55076038D01*
X155406038Y-54764729D01*
X155650631Y-54398669D01*
X155819110Y-53991925D01*
X155905000Y-53560128D01*
X155905000Y-53119872D01*
X155819110Y-52688075D01*
X155650631Y-52281331D01*
X155406038Y-51915271D01*
X155094729Y-51603962D01*
X154728669Y-51359369D01*
X154321925Y-51190890D01*
X153890128Y-51105000D01*
X153449872Y-51105000D01*
X153018075Y-51190890D01*
X152611331Y-51359369D01*
X152245271Y-51603962D01*
X151933962Y-51915271D01*
X151689369Y-52281331D01*
X151520890Y-52688075D01*
X151435000Y-53119872D01*
X150545000Y-53119872D01*
X150545000Y-52036353D01*
X150535711Y-51942044D01*
X150558909Y-51705455D01*
X150664780Y-51354792D01*
X150836744Y-51031375D01*
X151068254Y-50747516D01*
X151350486Y-50514035D01*
X151672695Y-50339817D01*
X152022614Y-50231498D01*
X152269936Y-50205504D01*
X152366353Y-50215000D01*
%TA.AperFunction,NonConductor*%
D22*
G36*
X152366353Y-50215000D02*
G01*
X181643647Y-50215000D01*
X181737956Y-50205711D01*
X181974545Y-50228909D01*
X182325208Y-50334780D01*
X182648625Y-50506744D01*
X182932484Y-50738254D01*
X183165965Y-51020486D01*
X183340183Y-51342695D01*
X183448502Y-51692614D01*
X183474496Y-51939937D01*
X183465000Y-52036354D01*
X183465001Y-120683647D01*
X183474289Y-120777951D01*
X183451091Y-121014545D01*
X183345220Y-121365206D01*
X183173257Y-121688623D01*
X182941748Y-121972482D01*
X182659514Y-122205965D01*
X182337304Y-122380184D01*
X181987385Y-122488502D01*
X181740064Y-122514496D01*
X181643647Y-122505000D01*
X152366353Y-122505000D01*
X152272044Y-122514289D01*
X152035455Y-122491091D01*
X151684794Y-122385220D01*
X151361377Y-122213257D01*
X151077518Y-121981748D01*
X150844035Y-121699514D01*
X150669816Y-121377304D01*
X150561498Y-121027385D01*
X150535504Y-120780064D01*
X150545000Y-120683647D01*
X150545000Y-115160475D01*
X151695000Y-115160475D01*
X151695000Y-115679525D01*
X151796261Y-116188601D01*
X151994893Y-116668141D01*
X152283262Y-117099715D01*
X152650285Y-117466738D01*
X153081859Y-117755107D01*
X153561399Y-117953739D01*
X154070475Y-118055000D01*
X154589525Y-118055000D01*
X155098601Y-117953739D01*
X155578141Y-117755107D01*
X156009715Y-117466738D01*
X156376738Y-117099715D01*
X156665107Y-116668141D01*
X156863739Y-116188601D01*
X156965000Y-115679525D01*
X156965000Y-115160475D01*
X156863739Y-114651399D01*
X156665107Y-114171859D01*
X156376738Y-113740285D01*
X156009715Y-113373262D01*
X155578141Y-113084893D01*
X155098601Y-112886261D01*
X154589525Y-112785000D01*
X154070475Y-112785000D01*
X153561399Y-112886261D01*
X153081859Y-113084893D01*
X152650285Y-113373262D01*
X152283262Y-113740285D01*
X151994893Y-114171859D01*
X151796261Y-114651399D01*
X151695000Y-115160475D01*
X150545000Y-115160475D01*
X150545000Y-105739999D01*
X152601928Y-105739999D01*
X152601928Y-106815001D01*
X152618992Y-106988255D01*
X152669528Y-107154851D01*
X152751595Y-107308387D01*
X152862038Y-107442962D01*
X152996613Y-107553405D01*
X153150149Y-107635472D01*
X153316745Y-107686008D01*
X153489999Y-107703072D01*
X153933840Y-107703072D01*
X153905000Y-107848061D01*
X153905000Y-108051939D01*
X153944774Y-108251898D01*
X154022795Y-108440256D01*
X154136063Y-108609774D01*
X154280226Y-108753937D01*
X154449744Y-108867205D01*
X154638102Y-108945226D01*
X154838061Y-108985000D01*
X155041939Y-108985000D01*
X155241898Y-108945226D01*
X155430256Y-108867205D01*
X155599774Y-108753937D01*
X155743937Y-108609774D01*
X155857205Y-108440256D01*
X155935226Y-108251898D01*
X155975000Y-108051939D01*
X155975000Y-107848061D01*
X155946160Y-107703072D01*
X156390001Y-107703072D01*
X156563255Y-107686008D01*
X156729851Y-107635472D01*
X156883387Y-107553405D01*
X157017962Y-107442962D01*
X157128405Y-107308387D01*
X157210472Y-107154851D01*
X157261008Y-106988255D01*
X157278072Y-106815001D01*
X157278072Y-105739999D01*
X157261008Y-105566745D01*
X157210472Y-105400149D01*
X157128405Y-105246613D01*
X157017962Y-105112038D01*
X156883387Y-105001595D01*
X156729851Y-104919528D01*
X156563255Y-104868992D01*
X156390001Y-104851928D01*
X153489999Y-104851928D01*
X153316745Y-104868992D01*
X153150149Y-104919528D01*
X152996613Y-105001595D01*
X152862038Y-105112038D01*
X152751595Y-105246613D01*
X152669528Y-105400149D01*
X152618992Y-105566745D01*
X152601928Y-105739999D01*
X150545000Y-105739999D01*
X150545000Y-101464999D01*
X152601928Y-101464999D01*
X152601928Y-102540001D01*
X152618992Y-102713255D01*
X152669528Y-102879851D01*
X152751595Y-103033387D01*
X152862038Y-103167962D01*
X152996613Y-103278405D01*
X153150149Y-103360472D01*
X153316745Y-103411008D01*
X153489999Y-103428072D01*
X156390001Y-103428072D01*
X156563255Y-103411008D01*
X156729851Y-103360472D01*
X156883387Y-103278405D01*
X157017962Y-103167962D01*
X157128405Y-103033387D01*
X157210472Y-102879851D01*
X157261008Y-102713255D01*
X157278072Y-102540001D01*
X157278072Y-101464999D01*
X157261008Y-101291745D01*
X157210472Y-101125149D01*
X157128405Y-100971613D01*
X157017962Y-100837038D01*
X156883387Y-100726595D01*
X156729851Y-100644528D01*
X156563255Y-100593992D01*
X156390001Y-100576928D01*
X155946160Y-100576928D01*
X155975000Y-100431939D01*
X155975000Y-100228061D01*
X155935226Y-100028102D01*
X155857205Y-99839744D01*
X155743937Y-99670226D01*
X155599774Y-99526063D01*
X155430256Y-99412795D01*
X155241898Y-99334774D01*
X155041939Y-99295000D01*
X154838061Y-99295000D01*
X154638102Y-99334774D01*
X154449744Y-99412795D01*
X154280226Y-99526063D01*
X154136063Y-99670226D01*
X154022795Y-99839744D01*
X153944774Y-100028102D01*
X153905000Y-100228061D01*
X153905000Y-100431939D01*
X153933840Y-100576928D01*
X153489999Y-100576928D01*
X153316745Y-100593992D01*
X153150149Y-100644528D01*
X152996613Y-100726595D01*
X152862038Y-100837038D01*
X152751595Y-100971613D01*
X152669528Y-101125149D01*
X152618992Y-101291745D01*
X152601928Y-101464999D01*
X150545000Y-101464999D01*
X150545000Y-69000000D01*
X152181928Y-69000000D01*
X152181928Y-70700000D01*
X152194188Y-70824482D01*
X152230498Y-70944180D01*
X152289463Y-71054494D01*
X152368815Y-71151185D01*
X152465506Y-71230537D01*
X152575820Y-71289502D01*
X152648380Y-71311513D01*
X152516525Y-71443368D01*
X152354010Y-71686589D01*
X152242068Y-71956842D01*
X152185000Y-72243740D01*
X152185000Y-72536260D01*
X152242068Y-72823158D01*
X152354010Y-73093411D01*
X152516525Y-73336632D01*
X152723368Y-73543475D01*
X152897760Y-73660000D01*
X152723368Y-73776525D01*
X152516525Y-73983368D01*
X152354010Y-74226589D01*
X152242068Y-74496842D01*
X152185000Y-74783740D01*
X152185000Y-75076260D01*
X152242068Y-75363158D01*
X152354010Y-75633411D01*
X152516525Y-75876632D01*
X152723368Y-76083475D01*
X152897760Y-76200000D01*
X152723368Y-76316525D01*
X152516525Y-76523368D01*
X152354010Y-76766589D01*
X152242068Y-77036842D01*
X152185000Y-77323740D01*
X152185000Y-77616260D01*
X152242068Y-77903158D01*
X152354010Y-78173411D01*
X152516525Y-78416632D01*
X152723368Y-78623475D01*
X152897760Y-78740000D01*
X152723368Y-78856525D01*
X152516525Y-79063368D01*
X152354010Y-79306589D01*
X152242068Y-79576842D01*
X152185000Y-79863740D01*
X152185000Y-80156260D01*
X152242068Y-80443158D01*
X152354010Y-80713411D01*
X152516525Y-80956632D01*
X152723368Y-81163475D01*
X152897760Y-81280000D01*
X152723368Y-81396525D01*
X152516525Y-81603368D01*
X152354010Y-81846589D01*
X152242068Y-82116842D01*
X152185000Y-82403740D01*
X152185000Y-82696260D01*
X152242068Y-82983158D01*
X152354010Y-83253411D01*
X152516525Y-83496632D01*
X152723368Y-83703475D01*
X152897760Y-83820000D01*
X152723368Y-83936525D01*
X152516525Y-84143368D01*
X152354010Y-84386589D01*
X152242068Y-84656842D01*
X152185000Y-84943740D01*
X152185000Y-85236260D01*
X152242068Y-85523158D01*
X152354010Y-85793411D01*
X152516525Y-86036632D01*
X152723368Y-86243475D01*
X152966589Y-86405990D01*
X153236842Y-86517932D01*
X153523740Y-86575000D01*
X153816260Y-86575000D01*
X154103158Y-86517932D01*
X154373411Y-86405990D01*
X154616632Y-86243475D01*
X154823475Y-86036632D01*
X154985990Y-85793411D01*
X155097932Y-85523158D01*
X155155000Y-85236260D01*
X155155000Y-84943740D01*
X155097932Y-84656842D01*
X154985990Y-84386589D01*
X154823475Y-84143368D01*
X154616632Y-83936525D01*
X154442240Y-83820000D01*
X154616632Y-83703475D01*
X154823475Y-83496632D01*
X154985990Y-83253411D01*
X155097932Y-82983158D01*
X155155000Y-82696260D01*
X155155000Y-82403740D01*
X155097932Y-82116842D01*
X154985990Y-81846589D01*
X154823475Y-81603368D01*
X154616632Y-81396525D01*
X154442240Y-81280000D01*
X154616632Y-81163475D01*
X154823475Y-80956632D01*
X154985990Y-80713411D01*
X155097932Y-80443158D01*
X155155000Y-80156260D01*
X155155000Y-79863740D01*
X155097932Y-79576842D01*
X154985990Y-79306589D01*
X154823475Y-79063368D01*
X154616632Y-78856525D01*
X154442240Y-78740000D01*
X154616632Y-78623475D01*
X154823475Y-78416632D01*
X154985990Y-78173411D01*
X155097932Y-77903158D01*
X155155000Y-77616260D01*
X155155000Y-77323740D01*
X155097932Y-77036842D01*
X154985990Y-76766589D01*
X154823475Y-76523368D01*
X154616632Y-76316525D01*
X154442240Y-76200000D01*
X154616632Y-76083475D01*
X154823475Y-75876632D01*
X154985990Y-75633411D01*
X155097932Y-75363158D01*
X155155000Y-75076260D01*
X155155000Y-74783740D01*
X155097932Y-74496842D01*
X154985990Y-74226589D01*
X154823475Y-73983368D01*
X154616632Y-73776525D01*
X154442240Y-73660000D01*
X154616632Y-73543475D01*
X154823475Y-73336632D01*
X154985990Y-73093411D01*
X155097932Y-72823158D01*
X155155000Y-72536260D01*
X155155000Y-72243740D01*
X155097932Y-71956842D01*
X154985990Y-71686589D01*
X154823475Y-71443368D01*
X154691620Y-71311513D01*
X154764180Y-71289502D01*
X154874494Y-71230537D01*
X154971185Y-71151185D01*
X155050537Y-71054494D01*
X155109502Y-70944180D01*
X155145812Y-70824482D01*
X155158072Y-70700000D01*
X155158072Y-69000000D01*
X155145812Y-68875518D01*
X155109502Y-68755820D01*
X155050537Y-68645506D01*
X154971185Y-68548815D01*
X154874494Y-68469463D01*
X154764180Y-68410498D01*
X154644482Y-68374188D01*
X154520000Y-68361928D01*
X152820000Y-68361928D01*
X152695518Y-68374188D01*
X152575820Y-68410498D01*
X152465506Y-68469463D01*
X152368815Y-68548815D01*
X152289463Y-68645506D01*
X152230498Y-68755820D01*
X152194188Y-68875518D01*
X152181928Y-69000000D01*
X150545000Y-69000000D01*
X150545000Y-59509999D01*
X151376928Y-59509999D01*
X151376928Y-62410001D01*
X151393992Y-62583255D01*
X151444528Y-62749851D01*
X151526595Y-62903387D01*
X151637038Y-63037962D01*
X151771613Y-63148405D01*
X151925149Y-63230472D01*
X152091745Y-63281008D01*
X152264999Y-63298072D01*
X153340001Y-63298072D01*
X153513255Y-63281008D01*
X153679851Y-63230472D01*
X153833387Y-63148405D01*
X153967962Y-63037962D01*
X154078405Y-62903387D01*
X154160472Y-62749851D01*
X154211008Y-62583255D01*
X154228072Y-62410001D01*
X154228072Y-61477981D01*
X154233804Y-61470997D01*
X155651928Y-60052874D01*
X155651928Y-62410001D01*
X155668992Y-62583255D01*
X155719528Y-62749851D01*
X155801595Y-62903387D01*
X155912038Y-63037962D01*
X156046613Y-63148405D01*
X156200149Y-63230472D01*
X156366745Y-63281008D01*
X156539999Y-63298072D01*
X157615001Y-63298072D01*
X157788255Y-63281008D01*
X157954851Y-63230472D01*
X158108387Y-63148405D01*
X158242962Y-63037962D01*
X158353405Y-62903387D01*
X158435472Y-62749851D01*
X158486008Y-62583255D01*
X158503072Y-62410001D01*
X158503072Y-61720000D01*
X158712678Y-61720000D01*
X158750000Y-61723676D01*
X158787322Y-61720000D01*
X158787333Y-61720000D01*
X158898986Y-61709003D01*
X159042247Y-61665546D01*
X159174276Y-61594974D01*
X159290001Y-61500001D01*
X159313804Y-61470997D01*
X161329803Y-59455000D01*
X161391939Y-59455000D01*
X161591898Y-59415226D01*
X161780256Y-59337205D01*
X161796922Y-59326069D01*
X161800000Y-59357323D01*
X161800001Y-64060195D01*
X158384002Y-67476195D01*
X158354998Y-67499998D01*
X158299870Y-67567173D01*
X158260025Y-67615723D01*
X158222462Y-67685998D01*
X158189453Y-67747753D01*
X158145996Y-67891014D01*
X158134999Y-68002667D01*
X158134999Y-68002677D01*
X158131323Y-68039999D01*
X158134999Y-68077321D01*
X158135000Y-80117667D01*
X158131323Y-80154999D01*
X158145997Y-80303984D01*
X158189453Y-80447245D01*
X158260025Y-80579275D01*
X158331200Y-80666001D01*
X158354999Y-80695000D01*
X158383997Y-80718798D01*
X158621312Y-80956113D01*
X158585000Y-81138665D01*
X158585000Y-81421335D01*
X158640147Y-81698574D01*
X158748320Y-81959727D01*
X158905363Y-82194759D01*
X159105241Y-82394637D01*
X159337759Y-82550000D01*
X159105241Y-82705363D01*
X158905363Y-82905241D01*
X158748320Y-83140273D01*
X158640147Y-83401426D01*
X158585000Y-83678665D01*
X158585000Y-83961335D01*
X158640147Y-84238574D01*
X158748320Y-84499727D01*
X158905363Y-84734759D01*
X159105241Y-84934637D01*
X159337759Y-85090000D01*
X159105241Y-85245363D01*
X158905363Y-85445241D01*
X158748320Y-85680273D01*
X158640147Y-85941426D01*
X158585000Y-86218665D01*
X158585000Y-86501335D01*
X158640147Y-86778574D01*
X158748320Y-87039727D01*
X158905363Y-87274759D01*
X159105241Y-87474637D01*
X159337759Y-87630000D01*
X159105241Y-87785363D01*
X158905363Y-87985241D01*
X158748320Y-88220273D01*
X158640147Y-88481426D01*
X158585000Y-88758665D01*
X158585000Y-89041335D01*
X158640147Y-89318574D01*
X158748320Y-89579727D01*
X158905363Y-89814759D01*
X159105241Y-90014637D01*
X159337759Y-90170000D01*
X159105241Y-90325363D01*
X158905363Y-90525241D01*
X158748320Y-90760273D01*
X158640147Y-91021426D01*
X158585000Y-91298665D01*
X158585000Y-91581335D01*
X158640147Y-91858574D01*
X158748320Y-92119727D01*
X158905363Y-92354759D01*
X159105241Y-92554637D01*
X159337759Y-92710000D01*
X159105241Y-92865363D01*
X158905363Y-93065241D01*
X158748320Y-93300273D01*
X158640147Y-93561426D01*
X158585000Y-93838665D01*
X158585000Y-94121335D01*
X158640147Y-94398574D01*
X158748320Y-94659727D01*
X158905363Y-94894759D01*
X159105241Y-95094637D01*
X159337759Y-95250000D01*
X159105241Y-95405363D01*
X158905363Y-95605241D01*
X158748320Y-95840273D01*
X158640147Y-96101426D01*
X158585000Y-96378665D01*
X158585000Y-96661335D01*
X158640147Y-96938574D01*
X158748320Y-97199727D01*
X158905363Y-97434759D01*
X159105241Y-97634637D01*
X159337759Y-97790000D01*
X159105241Y-97945363D01*
X158905363Y-98145241D01*
X158748320Y-98380273D01*
X158640147Y-98641426D01*
X158585000Y-98918665D01*
X158585000Y-99201335D01*
X158640147Y-99478574D01*
X158748320Y-99739727D01*
X158905363Y-99974759D01*
X159105241Y-100174637D01*
X159337759Y-100330000D01*
X159105241Y-100485363D01*
X158905363Y-100685241D01*
X158748320Y-100920273D01*
X158640147Y-101181426D01*
X158585000Y-101458665D01*
X158585000Y-101741335D01*
X158640147Y-102018574D01*
X158748320Y-102279727D01*
X158905363Y-102514759D01*
X159103961Y-102713357D01*
X159095518Y-102714188D01*
X158975820Y-102750498D01*
X158865506Y-102809463D01*
X158768815Y-102888815D01*
X158689463Y-102985506D01*
X158630498Y-103095820D01*
X158594188Y-103215518D01*
X158581928Y-103340000D01*
X158581928Y-104940000D01*
X158594188Y-105064482D01*
X158630498Y-105184180D01*
X158689463Y-105294494D01*
X158768815Y-105391185D01*
X158865506Y-105470537D01*
X158975820Y-105529502D01*
X159095518Y-105565812D01*
X159220000Y-105578072D01*
X160820000Y-105578072D01*
X160944482Y-105565812D01*
X161064180Y-105529502D01*
X161174494Y-105470537D01*
X161271185Y-105391185D01*
X161350537Y-105294494D01*
X161409502Y-105184180D01*
X161445812Y-105064482D01*
X161458072Y-104940000D01*
X161458072Y-103776729D01*
X163644802Y-101590000D01*
X164112762Y-101590000D01*
X164114188Y-101604482D01*
X164150498Y-101724180D01*
X164209463Y-101834494D01*
X164288815Y-101931185D01*
X164385506Y-102010537D01*
X164495820Y-102069502D01*
X164615518Y-102105812D01*
X164740000Y-102118072D01*
X166168000Y-102118072D01*
X166292482Y-102105812D01*
X166344607Y-102090000D01*
X166380678Y-102090000D01*
X166418000Y-102093676D01*
X166455322Y-102090000D01*
X166455333Y-102090000D01*
X166566986Y-102079003D01*
X166710247Y-102035546D01*
X166842276Y-101964974D01*
X166958001Y-101870001D01*
X166981804Y-101840997D01*
X168473928Y-100348874D01*
X168473928Y-100480000D01*
X168483777Y-100580000D01*
X168473928Y-100680000D01*
X168473928Y-100961270D01*
X165859003Y-103576196D01*
X165829999Y-103599999D01*
X165774871Y-103667174D01*
X165735026Y-103715724D01*
X165664455Y-103847753D01*
X165664454Y-103847754D01*
X165620997Y-103991015D01*
X165610000Y-104102668D01*
X165610000Y-104102678D01*
X165606324Y-104140000D01*
X165610000Y-104177323D01*
X165610000Y-105245298D01*
X165476614Y-105316595D01*
X165342038Y-105427038D01*
X165231595Y-105561614D01*
X165149528Y-105715150D01*
X165098992Y-105881746D01*
X165081928Y-106055000D01*
X165081928Y-107305000D01*
X165098992Y-107478254D01*
X165149528Y-107644850D01*
X165231595Y-107798386D01*
X165342038Y-107932962D01*
X165476614Y-108043405D01*
X165630150Y-108125472D01*
X165796746Y-108176008D01*
X165810001Y-108177314D01*
X165810002Y-112609491D01*
X165586335Y-112565000D01*
X165303665Y-112565000D01*
X165026426Y-112620147D01*
X164765273Y-112728320D01*
X164530241Y-112885363D01*
X164330363Y-113085241D01*
X164173320Y-113320273D01*
X164065147Y-113581426D01*
X164060000Y-113607301D01*
X164054853Y-113581426D01*
X163946680Y-113320273D01*
X163789637Y-113085241D01*
X163589759Y-112885363D01*
X163354727Y-112728320D01*
X163093574Y-112620147D01*
X162816335Y-112565000D01*
X162533665Y-112565000D01*
X162256426Y-112620147D01*
X161995273Y-112728320D01*
X161760241Y-112885363D01*
X161560363Y-113085241D01*
X161403320Y-113320273D01*
X161295147Y-113581426D01*
X161240000Y-113858665D01*
X161240000Y-114141335D01*
X161295147Y-114418574D01*
X161403320Y-114679727D01*
X161560363Y-114914759D01*
X161760241Y-115114637D01*
X161995273Y-115271680D01*
X162256426Y-115379853D01*
X162533665Y-115435000D01*
X162816335Y-115435000D01*
X163093574Y-115379853D01*
X163354727Y-115271680D01*
X163589759Y-115114637D01*
X163789637Y-114914759D01*
X163946680Y-114679727D01*
X164054853Y-114418574D01*
X164060000Y-114392699D01*
X164065147Y-114418574D01*
X164173320Y-114679727D01*
X164330363Y-114914759D01*
X164530241Y-115114637D01*
X164765273Y-115271680D01*
X165026426Y-115379853D01*
X165303665Y-115435000D01*
X165586335Y-115435000D01*
X165810002Y-115390509D01*
X165810002Y-115830602D01*
X165715363Y-115925241D01*
X165558320Y-116160273D01*
X165450147Y-116421426D01*
X165445000Y-116447301D01*
X165439853Y-116421426D01*
X165331680Y-116160273D01*
X165174637Y-115925241D01*
X164974759Y-115725363D01*
X164739727Y-115568320D01*
X164478574Y-115460147D01*
X164201335Y-115405000D01*
X163918665Y-115405000D01*
X163641426Y-115460147D01*
X163380273Y-115568320D01*
X163145241Y-115725363D01*
X162945363Y-115925241D01*
X162788320Y-116160273D01*
X162728072Y-116305725D01*
X162728072Y-116040000D01*
X162715812Y-115915518D01*
X162679502Y-115795820D01*
X162620537Y-115685506D01*
X162541185Y-115588815D01*
X162444494Y-115509463D01*
X162334180Y-115450498D01*
X162214482Y-115414188D01*
X162090000Y-115401928D01*
X160490000Y-115401928D01*
X160365518Y-115414188D01*
X160245820Y-115450498D01*
X160135506Y-115509463D01*
X160038815Y-115588815D01*
X159959463Y-115685506D01*
X159900498Y-115795820D01*
X159864188Y-115915518D01*
X159851928Y-116040000D01*
X159851928Y-117640000D01*
X159864188Y-117764482D01*
X159900498Y-117884180D01*
X159959463Y-117994494D01*
X160038815Y-118091185D01*
X160135506Y-118170537D01*
X160245820Y-118229502D01*
X160365518Y-118265812D01*
X160490000Y-118278072D01*
X162090000Y-118278072D01*
X162214482Y-118265812D01*
X162334180Y-118229502D01*
X162444494Y-118170537D01*
X162541185Y-118091185D01*
X162620537Y-117994494D01*
X162679502Y-117884180D01*
X162715812Y-117764482D01*
X162728072Y-117640000D01*
X162728072Y-117374275D01*
X162788320Y-117519727D01*
X162945363Y-117754759D01*
X163145241Y-117954637D01*
X163380273Y-118111680D01*
X163641426Y-118219853D01*
X163918665Y-118275000D01*
X164201335Y-118275000D01*
X164478574Y-118219853D01*
X164739727Y-118111680D01*
X164974759Y-117954637D01*
X165174637Y-117754759D01*
X165331680Y-117519727D01*
X165439853Y-117258574D01*
X165445000Y-117232699D01*
X165450147Y-117258574D01*
X165558320Y-117519727D01*
X165715363Y-117754759D01*
X165915241Y-117954637D01*
X166150273Y-118111680D01*
X166411426Y-118219853D01*
X166688665Y-118275000D01*
X166971335Y-118275000D01*
X167248574Y-118219853D01*
X167509727Y-118111680D01*
X167744759Y-117954637D01*
X167944637Y-117754759D01*
X168101680Y-117519727D01*
X168209853Y-117258574D01*
X168215000Y-117232699D01*
X168220147Y-117258574D01*
X168328320Y-117519727D01*
X168485363Y-117754759D01*
X168685241Y-117954637D01*
X168920273Y-118111680D01*
X169181426Y-118219853D01*
X169458665Y-118275000D01*
X169741335Y-118275000D01*
X170018574Y-118219853D01*
X170279727Y-118111680D01*
X170514759Y-117954637D01*
X170714637Y-117754759D01*
X170871680Y-117519727D01*
X170979853Y-117258574D01*
X170985000Y-117232699D01*
X170990147Y-117258574D01*
X171098320Y-117519727D01*
X171255363Y-117754759D01*
X171455241Y-117954637D01*
X171690273Y-118111680D01*
X171951426Y-118219853D01*
X172228665Y-118275000D01*
X172511335Y-118275000D01*
X172788574Y-118219853D01*
X173049727Y-118111680D01*
X173284759Y-117954637D01*
X173484637Y-117754759D01*
X173641680Y-117519727D01*
X173749853Y-117258574D01*
X173805000Y-116981335D01*
X173805000Y-116698665D01*
X173749853Y-116421426D01*
X173641680Y-116160273D01*
X173484637Y-115925241D01*
X173284759Y-115725363D01*
X173049727Y-115568320D01*
X172788574Y-115460147D01*
X172511335Y-115405000D01*
X172228665Y-115405000D01*
X171951426Y-115460147D01*
X171690273Y-115568320D01*
X171455241Y-115725363D01*
X171255363Y-115925241D01*
X171098320Y-116160273D01*
X170990147Y-116421426D01*
X170985000Y-116447301D01*
X170979853Y-116421426D01*
X170871680Y-116160273D01*
X170714637Y-115925241D01*
X170514759Y-115725363D01*
X170279727Y-115568320D01*
X170018574Y-115460147D01*
X169741335Y-115405000D01*
X169458665Y-115405000D01*
X169181426Y-115460147D01*
X168920273Y-115568320D01*
X168685241Y-115725363D01*
X168485363Y-115925241D01*
X168328320Y-116160273D01*
X168220147Y-116421426D01*
X168215000Y-116447301D01*
X168209853Y-116421426D01*
X168101680Y-116160273D01*
X167944637Y-115925241D01*
X167744759Y-115725363D01*
X167509727Y-115568320D01*
X167330001Y-115493875D01*
X167330001Y-115134522D01*
X167535273Y-115271680D01*
X167796426Y-115379853D01*
X168073665Y-115435000D01*
X168356335Y-115435000D01*
X168633574Y-115379853D01*
X168894727Y-115271680D01*
X169129759Y-115114637D01*
X169329637Y-114914759D01*
X169486680Y-114679727D01*
X169594853Y-114418574D01*
X169600000Y-114392699D01*
X169605147Y-114418574D01*
X169713320Y-114679727D01*
X169870363Y-114914759D01*
X170070241Y-115114637D01*
X170305273Y-115271680D01*
X170566426Y-115379853D01*
X170843665Y-115435000D01*
X171126335Y-115435000D01*
X171403574Y-115379853D01*
X171664727Y-115271680D01*
X171831157Y-115160475D01*
X176695000Y-115160475D01*
X176695000Y-115679525D01*
X176796261Y-116188601D01*
X176994893Y-116668141D01*
X177283262Y-117099715D01*
X177650285Y-117466738D01*
X178081859Y-117755107D01*
X178561399Y-117953739D01*
X179070475Y-118055000D01*
X179589525Y-118055000D01*
X180098601Y-117953739D01*
X180578141Y-117755107D01*
X181009715Y-117466738D01*
X181376738Y-117099715D01*
X181665107Y-116668141D01*
X181863739Y-116188601D01*
X181965000Y-115679525D01*
X181965000Y-115160475D01*
X181863739Y-114651399D01*
X181665107Y-114171859D01*
X181376738Y-113740285D01*
X181009715Y-113373262D01*
X180578141Y-113084893D01*
X180098601Y-112886261D01*
X179589525Y-112785000D01*
X179070475Y-112785000D01*
X178561399Y-112886261D01*
X178081859Y-113084893D01*
X177650285Y-113373262D01*
X177283262Y-113740285D01*
X176994893Y-114171859D01*
X176796261Y-114651399D01*
X176695000Y-115160475D01*
X171831157Y-115160475D01*
X171899759Y-115114637D01*
X172099637Y-114914759D01*
X172256680Y-114679727D01*
X172364853Y-114418574D01*
X172420000Y-114141335D01*
X172420000Y-113858665D01*
X172364853Y-113581426D01*
X172256680Y-113320273D01*
X172099637Y-113085241D01*
X171899759Y-112885363D01*
X171664727Y-112728320D01*
X171403574Y-112620147D01*
X171126335Y-112565000D01*
X170843665Y-112565000D01*
X170566426Y-112620147D01*
X170305273Y-112728320D01*
X170230391Y-112778354D01*
X170233676Y-112745001D01*
X170230000Y-112707678D01*
X170230000Y-108114702D01*
X170363386Y-108043405D01*
X170497962Y-107932962D01*
X170608405Y-107798386D01*
X170690472Y-107644850D01*
X170741008Y-107478254D01*
X170758072Y-107305000D01*
X170758072Y-106466730D01*
X171376004Y-105848798D01*
X171405002Y-105825000D01*
X171474760Y-105739999D01*
X178001928Y-105739999D01*
X178001928Y-106815001D01*
X178018992Y-106988255D01*
X178069528Y-107154851D01*
X178151595Y-107308387D01*
X178262038Y-107442962D01*
X178396613Y-107553405D01*
X178550149Y-107635472D01*
X178716745Y-107686008D01*
X178889999Y-107703072D01*
X179333840Y-107703072D01*
X179305000Y-107848061D01*
X179305000Y-108051939D01*
X179344774Y-108251898D01*
X179422795Y-108440256D01*
X179536063Y-108609774D01*
X179680226Y-108753937D01*
X179849744Y-108867205D01*
X180038102Y-108945226D01*
X180238061Y-108985000D01*
X180441939Y-108985000D01*
X180641898Y-108945226D01*
X180830256Y-108867205D01*
X180999774Y-108753937D01*
X181143937Y-108609774D01*
X181257205Y-108440256D01*
X181335226Y-108251898D01*
X181375000Y-108051939D01*
X181375000Y-107848061D01*
X181346160Y-107703072D01*
X181790001Y-107703072D01*
X181963255Y-107686008D01*
X182129851Y-107635472D01*
X182283387Y-107553405D01*
X182417962Y-107442962D01*
X182528405Y-107308387D01*
X182610472Y-107154851D01*
X182661008Y-106988255D01*
X182678072Y-106815001D01*
X182678072Y-105739999D01*
X182661008Y-105566745D01*
X182610472Y-105400149D01*
X182528405Y-105246613D01*
X182417962Y-105112038D01*
X182283387Y-105001595D01*
X182129851Y-104919528D01*
X181963255Y-104868992D01*
X181790001Y-104851928D01*
X178889999Y-104851928D01*
X178716745Y-104868992D01*
X178550149Y-104919528D01*
X178396613Y-105001595D01*
X178262038Y-105112038D01*
X178151595Y-105246613D01*
X178069528Y-105400149D01*
X178018992Y-105566745D01*
X178001928Y-105739999D01*
X171474760Y-105739999D01*
X171499975Y-105709275D01*
X171570547Y-105577246D01*
X171614004Y-105433985D01*
X171625001Y-105322332D01*
X171625001Y-105322323D01*
X171628677Y-105285000D01*
X171625001Y-105247677D01*
X171625001Y-101579803D01*
X171685000Y-101639802D01*
X171685000Y-101701939D01*
X171724774Y-101901898D01*
X171802795Y-102090256D01*
X171916063Y-102259774D01*
X172060226Y-102403937D01*
X172229744Y-102517205D01*
X172418102Y-102595226D01*
X172618061Y-102635000D01*
X172821939Y-102635000D01*
X173021898Y-102595226D01*
X173210256Y-102517205D01*
X173379774Y-102403937D01*
X173523937Y-102259774D01*
X173637205Y-102090256D01*
X173715226Y-101901898D01*
X173755000Y-101701939D01*
X173755000Y-101498061D01*
X173715226Y-101298102D01*
X173637205Y-101109744D01*
X173540490Y-100965000D01*
X173637205Y-100820256D01*
X173715226Y-100631898D01*
X173755000Y-100431939D01*
X173755000Y-100228061D01*
X173715226Y-100028102D01*
X173637205Y-99839744D01*
X173523937Y-99670226D01*
X173379774Y-99526063D01*
X173210256Y-99412795D01*
X173021898Y-99334774D01*
X172821939Y-99295000D01*
X172764105Y-99295000D01*
X172760001Y-99289999D01*
X172644276Y-99195026D01*
X172512247Y-99124454D01*
X172368986Y-99080997D01*
X172257333Y-99070000D01*
X172257322Y-99070000D01*
X172220000Y-99066324D01*
X172182678Y-99070000D01*
X171167238Y-99070000D01*
X171165812Y-99055518D01*
X171129502Y-98935820D01*
X171070537Y-98825506D01*
X170991185Y-98728815D01*
X170894494Y-98649463D01*
X170817926Y-98608536D01*
X170839774Y-98593937D01*
X170983937Y-98449774D01*
X171097205Y-98280256D01*
X171175226Y-98091898D01*
X171215000Y-97891939D01*
X171215000Y-97688061D01*
X171186160Y-97543072D01*
X171630001Y-97543072D01*
X171803255Y-97526008D01*
X171969851Y-97475472D01*
X172123387Y-97393405D01*
X172257962Y-97282962D01*
X172368405Y-97148387D01*
X172450472Y-96994851D01*
X172501008Y-96828255D01*
X172518072Y-96655001D01*
X172518072Y-95579999D01*
X172501008Y-95406745D01*
X172450472Y-95240149D01*
X172368405Y-95086613D01*
X172257962Y-94952038D01*
X172123387Y-94841595D01*
X171969851Y-94759528D01*
X171803255Y-94708992D01*
X171630001Y-94691928D01*
X168914990Y-94691928D01*
X168914990Y-94182311D01*
X169829230Y-93268072D01*
X171630001Y-93268072D01*
X171803255Y-93251008D01*
X171969851Y-93200472D01*
X172123387Y-93118405D01*
X172257962Y-93007962D01*
X172368405Y-92873387D01*
X172450472Y-92719851D01*
X172501008Y-92553255D01*
X172518072Y-92380001D01*
X172518072Y-91304999D01*
X172501008Y-91131745D01*
X172450472Y-90965149D01*
X172368405Y-90811613D01*
X172257962Y-90677038D01*
X172123387Y-90566595D01*
X171969851Y-90484528D01*
X171803255Y-90433992D01*
X171630001Y-90416928D01*
X170940000Y-90416928D01*
X170940000Y-89603711D01*
X170983937Y-89559774D01*
X171097205Y-89390256D01*
X171175226Y-89201898D01*
X171215000Y-89001939D01*
X171215000Y-88798061D01*
X171175226Y-88598102D01*
X171097205Y-88409744D01*
X170983937Y-88240226D01*
X170839774Y-88096063D01*
X170670256Y-87982795D01*
X170481898Y-87904774D01*
X170281939Y-87865000D01*
X170078061Y-87865000D01*
X169878102Y-87904774D01*
X169689744Y-87982795D01*
X169520226Y-88096063D01*
X169376063Y-88240226D01*
X169262795Y-88409744D01*
X169184774Y-88598102D01*
X169145000Y-88798061D01*
X169145000Y-89001939D01*
X169184774Y-89201898D01*
X169262795Y-89390256D01*
X169376063Y-89559774D01*
X169420001Y-89603712D01*
X169420000Y-90416928D01*
X168729999Y-90416928D01*
X168556745Y-90433992D01*
X168390149Y-90484528D01*
X168236613Y-90566595D01*
X168102038Y-90677038D01*
X167991595Y-90811613D01*
X167909528Y-90965149D01*
X167858992Y-91131745D01*
X167841928Y-91304999D01*
X167841928Y-92380001D01*
X167858992Y-92553255D01*
X167909528Y-92719851D01*
X167991595Y-92873387D01*
X168028880Y-92918819D01*
X167643988Y-93303711D01*
X167614990Y-93327509D01*
X167591192Y-93356507D01*
X167591191Y-93356508D01*
X167520016Y-93443234D01*
X167449444Y-93575264D01*
X167405988Y-93718525D01*
X167391314Y-93867510D01*
X167394991Y-93904842D01*
X167394990Y-97740188D01*
X161418688Y-91763887D01*
X161455000Y-91581335D01*
X161455000Y-91298665D01*
X161399853Y-91021426D01*
X161291680Y-90760273D01*
X161134637Y-90525241D01*
X160934759Y-90325363D01*
X160702241Y-90170000D01*
X160934759Y-90014637D01*
X161134637Y-89814759D01*
X161291680Y-89579727D01*
X161399853Y-89318574D01*
X161455000Y-89041335D01*
X161455000Y-88758665D01*
X161418688Y-88576114D01*
X161656004Y-88338798D01*
X161685002Y-88315000D01*
X161779975Y-88199275D01*
X161850547Y-88067246D01*
X161894004Y-87923985D01*
X161905001Y-87812332D01*
X161905001Y-87812324D01*
X161908677Y-87774999D01*
X161905001Y-87737674D01*
X161905001Y-68438665D01*
X173825000Y-68438665D01*
X173825000Y-68721335D01*
X173880147Y-68998574D01*
X173988320Y-69259727D01*
X174145363Y-69494759D01*
X174345241Y-69694637D01*
X174577759Y-69850000D01*
X174345241Y-70005363D01*
X174145363Y-70205241D01*
X173988320Y-70440273D01*
X173880147Y-70701426D01*
X173825000Y-70978665D01*
X173825000Y-71261335D01*
X173880147Y-71538574D01*
X173988320Y-71799727D01*
X174145363Y-72034759D01*
X174345241Y-72234637D01*
X174577759Y-72390000D01*
X174345241Y-72545363D01*
X174145363Y-72745241D01*
X173988320Y-72980273D01*
X173880147Y-73241426D01*
X173825000Y-73518665D01*
X173825000Y-73801335D01*
X173880147Y-74078574D01*
X173988320Y-74339727D01*
X174145363Y-74574759D01*
X174345241Y-74774637D01*
X174577759Y-74930000D01*
X174345241Y-75085363D01*
X174145363Y-75285241D01*
X173988320Y-75520273D01*
X173880147Y-75781426D01*
X173825000Y-76058665D01*
X173825000Y-76341335D01*
X173880147Y-76618574D01*
X173988320Y-76879727D01*
X174145363Y-77114759D01*
X174345241Y-77314637D01*
X174577759Y-77470000D01*
X174345241Y-77625363D01*
X174145363Y-77825241D01*
X173988320Y-78060273D01*
X173880147Y-78321426D01*
X173825000Y-78598665D01*
X173825000Y-78881335D01*
X173880147Y-79158574D01*
X173988320Y-79419727D01*
X174145363Y-79654759D01*
X174345241Y-79854637D01*
X174577759Y-80010000D01*
X174345241Y-80165363D01*
X174145363Y-80365241D01*
X173988320Y-80600273D01*
X173880147Y-80861426D01*
X173825000Y-81138665D01*
X173825000Y-81421335D01*
X173880147Y-81698574D01*
X173988320Y-81959727D01*
X174145363Y-82194759D01*
X174345241Y-82394637D01*
X174577759Y-82550000D01*
X174345241Y-82705363D01*
X174145363Y-82905241D01*
X173988320Y-83140273D01*
X173880147Y-83401426D01*
X173825000Y-83678665D01*
X173825000Y-83961335D01*
X173880147Y-84238574D01*
X173988320Y-84499727D01*
X174145363Y-84734759D01*
X174345241Y-84934637D01*
X174577759Y-85090000D01*
X174345241Y-85245363D01*
X174145363Y-85445241D01*
X173988320Y-85680273D01*
X173880147Y-85941426D01*
X173825000Y-86218665D01*
X173825000Y-86501335D01*
X173880147Y-86778574D01*
X173988320Y-87039727D01*
X174145363Y-87274759D01*
X174345241Y-87474637D01*
X174577759Y-87630000D01*
X174345241Y-87785363D01*
X174145363Y-87985241D01*
X173988320Y-88220273D01*
X173880147Y-88481426D01*
X173825000Y-88758665D01*
X173825000Y-89041335D01*
X173880147Y-89318574D01*
X173988320Y-89579727D01*
X174145363Y-89814759D01*
X174345241Y-90014637D01*
X174577759Y-90170000D01*
X174345241Y-90325363D01*
X174145363Y-90525241D01*
X173988320Y-90760273D01*
X173880147Y-91021426D01*
X173825000Y-91298665D01*
X173825000Y-91581335D01*
X173880147Y-91858574D01*
X173988320Y-92119727D01*
X174145363Y-92354759D01*
X174345241Y-92554637D01*
X174577759Y-92710000D01*
X174345241Y-92865363D01*
X174145363Y-93065241D01*
X173988320Y-93300273D01*
X173880147Y-93561426D01*
X173825000Y-93838665D01*
X173825000Y-94121335D01*
X173880147Y-94398574D01*
X173988320Y-94659727D01*
X174145363Y-94894759D01*
X174345241Y-95094637D01*
X174577759Y-95250000D01*
X174345241Y-95405363D01*
X174145363Y-95605241D01*
X173988320Y-95840273D01*
X173880147Y-96101426D01*
X173825000Y-96378665D01*
X173825000Y-96661335D01*
X173880147Y-96938574D01*
X173988320Y-97199727D01*
X174145363Y-97434759D01*
X174345241Y-97634637D01*
X174577759Y-97790000D01*
X174345241Y-97945363D01*
X174145363Y-98145241D01*
X173988320Y-98380273D01*
X173880147Y-98641426D01*
X173825000Y-98918665D01*
X173825000Y-99201335D01*
X173880147Y-99478574D01*
X173988320Y-99739727D01*
X174145363Y-99974759D01*
X174345241Y-100174637D01*
X174577759Y-100330000D01*
X174345241Y-100485363D01*
X174145363Y-100685241D01*
X173988320Y-100920273D01*
X173880147Y-101181426D01*
X173825000Y-101458665D01*
X173825000Y-101741335D01*
X173880147Y-102018574D01*
X173988320Y-102279727D01*
X174145363Y-102514759D01*
X174345241Y-102714637D01*
X174577759Y-102870000D01*
X174345241Y-103025363D01*
X174145363Y-103225241D01*
X173988320Y-103460273D01*
X173880147Y-103721426D01*
X173825000Y-103998665D01*
X173825000Y-104281335D01*
X173880147Y-104558574D01*
X173988320Y-104819727D01*
X174145363Y-105054759D01*
X174345241Y-105254637D01*
X174580273Y-105411680D01*
X174841426Y-105519853D01*
X175118665Y-105575000D01*
X175401335Y-105575000D01*
X175678574Y-105519853D01*
X175939727Y-105411680D01*
X176174759Y-105254637D01*
X176374637Y-105054759D01*
X176531680Y-104819727D01*
X176639853Y-104558574D01*
X176695000Y-104281335D01*
X176695000Y-103998665D01*
X176639853Y-103721426D01*
X176531680Y-103460273D01*
X176374637Y-103225241D01*
X176174759Y-103025363D01*
X175942241Y-102870000D01*
X176174759Y-102714637D01*
X176374637Y-102514759D01*
X176531680Y-102279727D01*
X176639853Y-102018574D01*
X176695000Y-101741335D01*
X176695000Y-101464999D01*
X178001928Y-101464999D01*
X178001928Y-102540001D01*
X178018992Y-102713255D01*
X178069528Y-102879851D01*
X178151595Y-103033387D01*
X178262038Y-103167962D01*
X178396613Y-103278405D01*
X178550149Y-103360472D01*
X178716745Y-103411008D01*
X178889999Y-103428072D01*
X181790001Y-103428072D01*
X181963255Y-103411008D01*
X182129851Y-103360472D01*
X182283387Y-103278405D01*
X182417962Y-103167962D01*
X182528405Y-103033387D01*
X182610472Y-102879851D01*
X182661008Y-102713255D01*
X182678072Y-102540001D01*
X182678072Y-101464999D01*
X182661008Y-101291745D01*
X182610472Y-101125149D01*
X182528405Y-100971613D01*
X182417962Y-100837038D01*
X182283387Y-100726595D01*
X182129851Y-100644528D01*
X181963255Y-100593992D01*
X181790001Y-100576928D01*
X181346160Y-100576928D01*
X181375000Y-100431939D01*
X181375000Y-100228061D01*
X181335226Y-100028102D01*
X181257205Y-99839744D01*
X181143937Y-99670226D01*
X180999774Y-99526063D01*
X180830256Y-99412795D01*
X180641898Y-99334774D01*
X180441939Y-99295000D01*
X180238061Y-99295000D01*
X180038102Y-99334774D01*
X179849744Y-99412795D01*
X179680226Y-99526063D01*
X179536063Y-99670226D01*
X179422795Y-99839744D01*
X179344774Y-100028102D01*
X179305000Y-100228061D01*
X179305000Y-100431939D01*
X179333840Y-100576928D01*
X178889999Y-100576928D01*
X178716745Y-100593992D01*
X178550149Y-100644528D01*
X178396613Y-100726595D01*
X178262038Y-100837038D01*
X178151595Y-100971613D01*
X178069528Y-101125149D01*
X178018992Y-101291745D01*
X178001928Y-101464999D01*
X176695000Y-101464999D01*
X176695000Y-101458665D01*
X176639853Y-101181426D01*
X176531680Y-100920273D01*
X176374637Y-100685241D01*
X176174759Y-100485363D01*
X175942241Y-100330000D01*
X176174759Y-100174637D01*
X176374637Y-99974759D01*
X176531680Y-99739727D01*
X176639853Y-99478574D01*
X176695000Y-99201335D01*
X176695000Y-98918665D01*
X176639853Y-98641426D01*
X176531680Y-98380273D01*
X176374637Y-98145241D01*
X176174759Y-97945363D01*
X175942241Y-97790000D01*
X176174759Y-97634637D01*
X176374637Y-97434759D01*
X176531680Y-97199727D01*
X176639853Y-96938574D01*
X176695000Y-96661335D01*
X176695000Y-96378665D01*
X176639853Y-96101426D01*
X176531680Y-95840273D01*
X176374637Y-95605241D01*
X176174759Y-95405363D01*
X175942241Y-95250000D01*
X176174759Y-95094637D01*
X176374637Y-94894759D01*
X176531680Y-94659727D01*
X176639853Y-94398574D01*
X176695000Y-94121335D01*
X176695000Y-93838665D01*
X176639853Y-93561426D01*
X176531680Y-93300273D01*
X176374637Y-93065241D01*
X176174759Y-92865363D01*
X175942241Y-92710000D01*
X176174759Y-92554637D01*
X176374637Y-92354759D01*
X176531680Y-92119727D01*
X176639853Y-91858574D01*
X176695000Y-91581335D01*
X176695000Y-91298665D01*
X176639853Y-91021426D01*
X176531680Y-90760273D01*
X176374637Y-90525241D01*
X176174759Y-90325363D01*
X175942241Y-90170000D01*
X176174759Y-90014637D01*
X176374637Y-89814759D01*
X176531680Y-89579727D01*
X176639853Y-89318574D01*
X176695000Y-89041335D01*
X176695000Y-88758665D01*
X176639853Y-88481426D01*
X176531680Y-88220273D01*
X176374637Y-87985241D01*
X176174759Y-87785363D01*
X175942241Y-87630000D01*
X176174759Y-87474637D01*
X176374637Y-87274759D01*
X176531680Y-87039727D01*
X176639853Y-86778574D01*
X176695000Y-86501335D01*
X176695000Y-86218665D01*
X176639853Y-85941426D01*
X176531680Y-85680273D01*
X176374637Y-85445241D01*
X176174759Y-85245363D01*
X175942241Y-85090000D01*
X176174759Y-84934637D01*
X176374637Y-84734759D01*
X176531680Y-84499727D01*
X176639853Y-84238574D01*
X176695000Y-83961335D01*
X176695000Y-83678665D01*
X176639853Y-83401426D01*
X176531680Y-83140273D01*
X176374637Y-82905241D01*
X176174759Y-82705363D01*
X175942241Y-82550000D01*
X176174759Y-82394637D01*
X176374637Y-82194759D01*
X176531680Y-81959727D01*
X176639853Y-81698574D01*
X176695000Y-81421335D01*
X176695000Y-81138665D01*
X176639853Y-80861426D01*
X176531680Y-80600273D01*
X176374637Y-80365241D01*
X176174759Y-80165363D01*
X175942241Y-80010000D01*
X176174759Y-79854637D01*
X176374637Y-79654759D01*
X176531680Y-79419727D01*
X176639853Y-79158574D01*
X176695000Y-78881335D01*
X176695000Y-78598665D01*
X176639853Y-78321426D01*
X176531680Y-78060273D01*
X176374637Y-77825241D01*
X176174759Y-77625363D01*
X175942241Y-77470000D01*
X176174759Y-77314637D01*
X176374637Y-77114759D01*
X176531680Y-76879727D01*
X176639853Y-76618574D01*
X176695000Y-76341335D01*
X176695000Y-76058665D01*
X176639853Y-75781426D01*
X176531680Y-75520273D01*
X176374637Y-75285241D01*
X176174759Y-75085363D01*
X175942241Y-74930000D01*
X176174759Y-74774637D01*
X176374637Y-74574759D01*
X176531680Y-74339727D01*
X176639853Y-74078574D01*
X176695000Y-73801335D01*
X176695000Y-73518665D01*
X176639853Y-73241426D01*
X176531680Y-72980273D01*
X176374637Y-72745241D01*
X176174759Y-72545363D01*
X175942241Y-72390000D01*
X176174759Y-72234637D01*
X176374637Y-72034759D01*
X176531680Y-71799727D01*
X176639853Y-71538574D01*
X176695000Y-71261335D01*
X176695000Y-70978665D01*
X176639853Y-70701426D01*
X176531680Y-70440273D01*
X176374637Y-70205241D01*
X176174759Y-70005363D01*
X175942241Y-69850000D01*
X176174759Y-69694637D01*
X176374637Y-69494759D01*
X176531680Y-69259727D01*
X176639853Y-68998574D01*
X176695000Y-68721335D01*
X176695000Y-68438665D01*
X176639853Y-68161426D01*
X176531680Y-67900273D01*
X176374637Y-67665241D01*
X176174759Y-67465363D01*
X175939727Y-67308320D01*
X175678574Y-67200147D01*
X175401335Y-67145000D01*
X175118665Y-67145000D01*
X174841426Y-67200147D01*
X174580273Y-67308320D01*
X174345241Y-67465363D01*
X174145363Y-67665241D01*
X173988320Y-67900273D01*
X173880147Y-68161426D01*
X173825000Y-68438665D01*
X161905001Y-68438665D01*
X161905001Y-67085587D01*
X169445282Y-59545307D01*
X169490013Y-59612252D01*
X169717748Y-59839987D01*
X169985537Y-60018918D01*
X170283088Y-60142168D01*
X170598967Y-60205000D01*
X170921033Y-60205000D01*
X171236912Y-60142168D01*
X171534463Y-60018918D01*
X171802252Y-59839987D01*
X172029987Y-59612252D01*
X172208918Y-59344463D01*
X172332168Y-59046912D01*
X172395000Y-58731033D01*
X172395000Y-58408967D01*
X173625000Y-58408967D01*
X173625000Y-58731033D01*
X173687832Y-59046912D01*
X173811082Y-59344463D01*
X173990013Y-59612252D01*
X174217748Y-59839987D01*
X174485537Y-60018918D01*
X174783088Y-60142168D01*
X175098967Y-60205000D01*
X175421033Y-60205000D01*
X175736912Y-60142168D01*
X176034463Y-60018918D01*
X176302252Y-59839987D01*
X176529987Y-59612252D01*
X176708918Y-59344463D01*
X176832168Y-59046912D01*
X176895000Y-58731033D01*
X176895000Y-58408967D01*
X176832168Y-58093088D01*
X176708918Y-57795537D01*
X176529987Y-57527748D01*
X176302252Y-57300013D01*
X176034463Y-57121082D01*
X175736912Y-56997832D01*
X175421033Y-56935000D01*
X175098967Y-56935000D01*
X174783088Y-56997832D01*
X174485537Y-57121082D01*
X174217748Y-57300013D01*
X173990013Y-57527748D01*
X173811082Y-57795537D01*
X173687832Y-58093088D01*
X173625000Y-58408967D01*
X172395000Y-58408967D01*
X172332168Y-58093088D01*
X172208918Y-57795537D01*
X172029987Y-57527748D01*
X171802252Y-57300013D01*
X171534463Y-57121082D01*
X171520000Y-57115091D01*
X171520000Y-53524909D01*
X171534463Y-53518918D01*
X171802252Y-53339987D01*
X172029987Y-53112252D01*
X172208918Y-52844463D01*
X172332168Y-52546912D01*
X172395000Y-52231033D01*
X172395000Y-51908967D01*
X173625000Y-51908967D01*
X173625000Y-52231033D01*
X173687832Y-52546912D01*
X173811082Y-52844463D01*
X173990013Y-53112252D01*
X174217748Y-53339987D01*
X174485537Y-53518918D01*
X174783088Y-53642168D01*
X175098967Y-53705000D01*
X175421033Y-53705000D01*
X175736912Y-53642168D01*
X176034463Y-53518918D01*
X176302252Y-53339987D01*
X176522367Y-53119872D01*
X178105000Y-53119872D01*
X178105000Y-53560128D01*
X178190890Y-53991925D01*
X178359369Y-54398669D01*
X178603962Y-54764729D01*
X178915271Y-55076038D01*
X179281331Y-55320631D01*
X179688075Y-55489110D01*
X180119872Y-55575000D01*
X180560128Y-55575000D01*
X180991925Y-55489110D01*
X181398669Y-55320631D01*
X181764729Y-55076038D01*
X182076038Y-54764729D01*
X182320631Y-54398669D01*
X182489110Y-53991925D01*
X182575000Y-53560128D01*
X182575000Y-53119872D01*
X182489110Y-52688075D01*
X182320631Y-52281331D01*
X182076038Y-51915271D01*
X181764729Y-51603962D01*
X181398669Y-51359369D01*
X180991925Y-51190890D01*
X180560128Y-51105000D01*
X180119872Y-51105000D01*
X179688075Y-51190890D01*
X179281331Y-51359369D01*
X178915271Y-51603962D01*
X178603962Y-51915271D01*
X178359369Y-52281331D01*
X178190890Y-52688075D01*
X178105000Y-53119872D01*
X176522367Y-53119872D01*
X176529987Y-53112252D01*
X176708918Y-52844463D01*
X176832168Y-52546912D01*
X176895000Y-52231033D01*
X176895000Y-51908967D01*
X176832168Y-51593088D01*
X176708918Y-51295537D01*
X176529987Y-51027748D01*
X176302252Y-50800013D01*
X176034463Y-50621082D01*
X175736912Y-50497832D01*
X175421033Y-50435000D01*
X175098967Y-50435000D01*
X174783088Y-50497832D01*
X174485537Y-50621082D01*
X174217748Y-50800013D01*
X173990013Y-51027748D01*
X173811082Y-51295537D01*
X173687832Y-51593088D01*
X173625000Y-51908967D01*
X172395000Y-51908967D01*
X172332168Y-51593088D01*
X172208918Y-51295537D01*
X172029987Y-51027748D01*
X171802252Y-50800013D01*
X171534463Y-50621082D01*
X171236912Y-50497832D01*
X170921033Y-50435000D01*
X170598967Y-50435000D01*
X170283088Y-50497832D01*
X169985537Y-50621082D01*
X169717748Y-50800013D01*
X169490013Y-51027748D01*
X169311082Y-51295537D01*
X169187832Y-51593088D01*
X169125000Y-51908967D01*
X169125000Y-52231033D01*
X169187832Y-52546912D01*
X169311082Y-52844463D01*
X169490013Y-53112252D01*
X169717748Y-53339987D01*
X169985537Y-53518918D01*
X170000000Y-53524909D01*
X170000001Y-57115091D01*
X169985537Y-57121082D01*
X169717748Y-57300013D01*
X169490013Y-57527748D01*
X169311082Y-57795537D01*
X169304948Y-57810345D01*
X169196801Y-57820997D01*
X169053540Y-57864454D01*
X168921511Y-57935026D01*
X168805786Y-58029999D01*
X168781988Y-58058997D01*
X163320000Y-63520986D01*
X163320000Y-59634801D01*
X165536731Y-57418072D01*
X165751600Y-57418072D01*
X165924542Y-57401039D01*
X166090838Y-57350593D01*
X166244097Y-57268675D01*
X166378430Y-57158430D01*
X166488675Y-57024097D01*
X166570593Y-56870838D01*
X166621039Y-56704542D01*
X166638072Y-56531600D01*
X166638072Y-55228400D01*
X166621039Y-55055458D01*
X166570593Y-54889162D01*
X166488675Y-54735903D01*
X166378430Y-54601570D01*
X166244097Y-54491325D01*
X166090838Y-54409407D01*
X165924542Y-54358961D01*
X165751600Y-54341928D01*
X164448400Y-54341928D01*
X164275458Y-54358961D01*
X164109162Y-54409407D01*
X163955903Y-54491325D01*
X163821570Y-54601570D01*
X163711325Y-54735903D01*
X163667922Y-54817105D01*
X163538505Y-54687688D01*
X163287095Y-54519701D01*
X163007743Y-54403989D01*
X162711184Y-54345000D01*
X162408816Y-54345000D01*
X162112257Y-54403989D01*
X161832905Y-54519701D01*
X161581495Y-54687688D01*
X161367688Y-54901495D01*
X161290000Y-55017763D01*
X161212312Y-54901495D01*
X160998505Y-54687688D01*
X160747095Y-54519701D01*
X160467743Y-54403989D01*
X160171184Y-54345000D01*
X159868816Y-54345000D01*
X159572257Y-54403989D01*
X159292905Y-54519701D01*
X159041495Y-54687688D01*
X158827688Y-54901495D01*
X158659701Y-55152905D01*
X158543989Y-55432257D01*
X158485000Y-55728816D01*
X158485000Y-56031184D01*
X158543989Y-56327743D01*
X158659701Y-56607095D01*
X158827688Y-56858505D01*
X159041495Y-57072312D01*
X159292905Y-57240299D01*
X159572257Y-57356011D01*
X159868816Y-57415000D01*
X160171184Y-57415000D01*
X160467743Y-57356011D01*
X160747095Y-57240299D01*
X160998505Y-57072312D01*
X161212312Y-56858505D01*
X161290000Y-56742237D01*
X161367688Y-56858505D01*
X161581495Y-57072312D01*
X161832905Y-57240299D01*
X162112257Y-57356011D01*
X162408816Y-57415000D01*
X162711184Y-57415000D01*
X163007743Y-57356011D01*
X163287095Y-57240299D01*
X163538505Y-57072312D01*
X163667922Y-56942895D01*
X163711325Y-57024097D01*
X163742777Y-57062421D01*
X162325000Y-58480199D01*
X162325000Y-58318061D01*
X162285226Y-58118102D01*
X162207205Y-57929744D01*
X162093937Y-57760226D01*
X161949774Y-57616063D01*
X161780256Y-57502795D01*
X161591898Y-57424774D01*
X161391939Y-57385000D01*
X161188061Y-57385000D01*
X160988102Y-57424774D01*
X160799744Y-57502795D01*
X160630226Y-57616063D01*
X160486063Y-57760226D01*
X160372795Y-57929744D01*
X160294774Y-58118102D01*
X160255000Y-58318061D01*
X160255000Y-58380197D01*
X158503072Y-60132127D01*
X158503072Y-59509999D01*
X158486008Y-59336745D01*
X158435472Y-59170149D01*
X158353405Y-59016613D01*
X158242962Y-58882038D01*
X158108387Y-58771595D01*
X157954851Y-58689528D01*
X157788255Y-58638992D01*
X157615001Y-58621928D01*
X157225111Y-58621928D01*
X157245000Y-58521939D01*
X157245000Y-58318061D01*
X157205226Y-58118102D01*
X157127205Y-57929744D01*
X157013937Y-57760226D01*
X156869774Y-57616063D01*
X156700256Y-57502795D01*
X156511898Y-57424774D01*
X156311939Y-57385000D01*
X156108061Y-57385000D01*
X155908102Y-57424774D01*
X155719744Y-57502795D01*
X155550226Y-57616063D01*
X155406063Y-57760226D01*
X155292795Y-57929744D01*
X155214774Y-58118102D01*
X155175000Y-58318061D01*
X155175000Y-58380197D01*
X154211676Y-59343523D01*
X154211008Y-59336745D01*
X154160472Y-59170149D01*
X154078405Y-59016613D01*
X153967962Y-58882038D01*
X153833387Y-58771595D01*
X153679851Y-58689528D01*
X153513255Y-58638992D01*
X153340001Y-58621928D01*
X152264999Y-58621928D01*
X152091745Y-58638992D01*
X151925149Y-58689528D01*
X151771613Y-58771595D01*
X151637038Y-58882038D01*
X151526595Y-59016613D01*
X151444528Y-59170149D01*
X151393992Y-59336745D01*
X151376928Y-59509999D01*
X150545000Y-59509999D01*
X150545000Y-53119872D01*
X151435000Y-53119872D01*
X151435000Y-53560128D01*
X151520890Y-53991925D01*
X151689369Y-54398669D01*
X151933962Y-54764729D01*
X152245271Y-55076038D01*
X152611331Y-55320631D01*
X153018075Y-55489110D01*
X153449872Y-55575000D01*
X153890128Y-55575000D01*
X154321925Y-55489110D01*
X154728669Y-55320631D01*
X155094729Y-55076038D01*
X155406038Y-54764729D01*
X155650631Y-54398669D01*
X155819110Y-53991925D01*
X155905000Y-53560128D01*
X155905000Y-53119872D01*
X155819110Y-52688075D01*
X155650631Y-52281331D01*
X155406038Y-51915271D01*
X155094729Y-51603962D01*
X154728669Y-51359369D01*
X154321925Y-51190890D01*
X153890128Y-51105000D01*
X153449872Y-51105000D01*
X153018075Y-51190890D01*
X152611331Y-51359369D01*
X152245271Y-51603962D01*
X151933962Y-51915271D01*
X151689369Y-52281331D01*
X151520890Y-52688075D01*
X151435000Y-53119872D01*
X150545000Y-53119872D01*
X150545000Y-52036353D01*
X150535711Y-51942044D01*
X150558909Y-51705455D01*
X150664780Y-51354792D01*
X150836744Y-51031375D01*
X151068254Y-50747516D01*
X151350486Y-50514035D01*
X151672695Y-50339817D01*
X152022614Y-50231498D01*
X152269936Y-50205504D01*
X152366353Y-50215000D01*
G37*
%TD.AperFunction*%
D21*
X170105002Y-104970196D02*
X169904839Y-105170359D01*
X169870000Y-105166928D01*
X169070000Y-105166928D01*
X168896746Y-105183992D01*
X168730150Y-105234528D01*
X168576614Y-105316595D01*
X168442038Y-105427038D01*
X168331595Y-105561614D01*
X168249528Y-105715150D01*
X168198992Y-105881746D01*
X168181928Y-106055000D01*
X168181928Y-107305000D01*
X168198992Y-107478254D01*
X168249528Y-107644850D01*
X168331595Y-107798386D01*
X168442038Y-107932962D01*
X168576614Y-108043405D01*
X168710000Y-108114702D01*
X168710001Y-112430197D01*
X168538886Y-112601312D01*
X168356335Y-112565000D01*
X168073665Y-112565000D01*
X167796426Y-112620147D01*
X167535273Y-112728320D01*
X167330001Y-112865478D01*
X167330001Y-107988736D01*
X167397962Y-107932962D01*
X167508405Y-107798386D01*
X167590472Y-107644850D01*
X167641008Y-107478254D01*
X167658072Y-107305000D01*
X167658072Y-106055000D01*
X167641008Y-105881746D01*
X167590472Y-105715150D01*
X167508405Y-105561614D01*
X167397962Y-105427038D01*
X167263386Y-105316595D01*
X167130000Y-105245298D01*
X167130000Y-104454801D01*
X169466730Y-102118072D01*
X170105001Y-102118072D01*
X170105002Y-104970196D01*
%TA.AperFunction,NonConductor*%
D22*
G36*
X170105002Y-104970196D02*
G01*
X169904839Y-105170359D01*
X169870000Y-105166928D01*
X169070000Y-105166928D01*
X168896746Y-105183992D01*
X168730150Y-105234528D01*
X168576614Y-105316595D01*
X168442038Y-105427038D01*
X168331595Y-105561614D01*
X168249528Y-105715150D01*
X168198992Y-105881746D01*
X168181928Y-106055000D01*
X168181928Y-107305000D01*
X168198992Y-107478254D01*
X168249528Y-107644850D01*
X168331595Y-107798386D01*
X168442038Y-107932962D01*
X168576614Y-108043405D01*
X168710000Y-108114702D01*
X168710001Y-112430197D01*
X168538886Y-112601312D01*
X168356335Y-112565000D01*
X168073665Y-112565000D01*
X167796426Y-112620147D01*
X167535273Y-112728320D01*
X167330001Y-112865478D01*
X167330001Y-107988736D01*
X167397962Y-107932962D01*
X167508405Y-107798386D01*
X167590472Y-107644850D01*
X167641008Y-107478254D01*
X167658072Y-107305000D01*
X167658072Y-106055000D01*
X167641008Y-105881746D01*
X167590472Y-105715150D01*
X167508405Y-105561614D01*
X167397962Y-105427038D01*
X167263386Y-105316595D01*
X167130000Y-105245298D01*
X167130000Y-104454801D01*
X169466730Y-102118072D01*
X170105001Y-102118072D01*
X170105002Y-104970196D01*
G37*
%TD.AperFunction*%
D21*
X163058792Y-100118072D02*
X163037753Y-100124454D01*
X162905723Y-100195026D01*
X162822083Y-100263668D01*
X162789999Y-100289999D01*
X162766201Y-100318997D01*
X161455000Y-101630198D01*
X161455000Y-101458665D01*
X161418688Y-101276114D01*
X162604802Y-100090000D01*
X163151335Y-100090000D01*
X163058792Y-100118072D01*
%TA.AperFunction,NonConductor*%
D22*
G36*
X163058792Y-100118072D02*
G01*
X163037753Y-100124454D01*
X162905723Y-100195026D01*
X162822083Y-100263668D01*
X162789999Y-100289999D01*
X162766201Y-100318997D01*
X161455000Y-101630198D01*
X161455000Y-101458665D01*
X161418688Y-101276114D01*
X162604802Y-100090000D01*
X163151335Y-100090000D01*
X163058792Y-100118072D01*
G37*
%TD.AperFunction*%
D21*
X165040128Y-98541928D02*
X164740000Y-98541928D01*
X164615518Y-98554188D01*
X164563393Y-98570000D01*
X162327325Y-98570000D01*
X162290000Y-98566324D01*
X162252675Y-98570000D01*
X162252667Y-98570000D01*
X162141014Y-98580997D01*
X161997753Y-98624454D01*
X161865724Y-98695026D01*
X161749999Y-98789999D01*
X161726201Y-98818997D01*
X161455000Y-99090198D01*
X161455000Y-98918665D01*
X161399853Y-98641426D01*
X161291680Y-98380273D01*
X161134637Y-98145241D01*
X160934759Y-97945363D01*
X160702241Y-97790000D01*
X160934759Y-97634637D01*
X161134637Y-97434759D01*
X161291680Y-97199727D01*
X161399853Y-96938574D01*
X161455000Y-96661335D01*
X161455000Y-96378665D01*
X161399853Y-96101426D01*
X161291680Y-95840273D01*
X161134637Y-95605241D01*
X160934759Y-95405363D01*
X160702241Y-95250000D01*
X160934759Y-95094637D01*
X161134637Y-94894759D01*
X161238043Y-94740000D01*
X161238201Y-94740000D01*
X165040128Y-98541928D01*
%TA.AperFunction,NonConductor*%
D22*
G36*
X165040128Y-98541928D02*
G01*
X164740000Y-98541928D01*
X164615518Y-98554188D01*
X164563393Y-98570000D01*
X162327325Y-98570000D01*
X162290000Y-98566324D01*
X162252675Y-98570000D01*
X162252667Y-98570000D01*
X162141014Y-98580997D01*
X161997753Y-98624454D01*
X161865724Y-98695026D01*
X161749999Y-98789999D01*
X161726201Y-98818997D01*
X161455000Y-99090198D01*
X161455000Y-98918665D01*
X161399853Y-98641426D01*
X161291680Y-98380273D01*
X161134637Y-98145241D01*
X160934759Y-97945363D01*
X160702241Y-97790000D01*
X160934759Y-97634637D01*
X161134637Y-97434759D01*
X161291680Y-97199727D01*
X161399853Y-96938574D01*
X161455000Y-96661335D01*
X161455000Y-96378665D01*
X161399853Y-96101426D01*
X161291680Y-95840273D01*
X161134637Y-95605241D01*
X160934759Y-95405363D01*
X160702241Y-95250000D01*
X160934759Y-95094637D01*
X161134637Y-94894759D01*
X161238043Y-94740000D01*
X161238201Y-94740000D01*
X165040128Y-98541928D01*
G37*
%TD.AperFunction*%
D21*
X169145000Y-97688061D02*
X169145000Y-97805832D01*
X169120454Y-97851754D01*
X169076998Y-97995015D01*
X169062324Y-98144000D01*
X169066001Y-98181332D01*
X169066001Y-98546458D01*
X168987518Y-98554188D01*
X168914990Y-98576189D01*
X168914990Y-97543072D01*
X169173840Y-97543072D01*
X169145000Y-97688061D01*
%TA.AperFunction,NonConductor*%
D22*
G36*
X169145000Y-97688061D02*
G01*
X169145000Y-97805832D01*
X169120454Y-97851754D01*
X169076998Y-97995015D01*
X169062324Y-98144000D01*
X169066001Y-98181332D01*
X169066001Y-98546458D01*
X168987518Y-98554188D01*
X168914990Y-98576189D01*
X168914990Y-97543072D01*
X169173840Y-97543072D01*
X169145000Y-97688061D01*
G37*
%TD.AperFunction*%
M02*
