%TF.GenerationSoftware,KiCad,Pcbnew,(5.1.10-1-10_14)*%
%TF.CreationDate,2021-11-08T14:23:05+11:00*%
%TF.ProjectId,bkm10iRduino_shield,626b6d31-3069-4526-9475-696e6f5f7368,rev?*%
%TF.SameCoordinates,Original*%
%TF.FileFunction,Copper,L4,Bot*%
%TF.FilePolarity,Positive*%
%FSLAX46Y46*%
G04 Gerber Fmt 4.6, Leading zero omitted, Abs format (unit mm)*
G04 Created by KiCad (PCBNEW (5.1.10-1-10_14)) date 2021-11-08 14:23:05*
%MOMM*%
%LPD*%
G01*
G04 APERTURE LIST*
%TA.AperFunction,ComponentPad*%
%ADD10R,1.600000X1.600000*%
%TD*%
%TA.AperFunction,ComponentPad*%
%ADD11O,1.600000X1.600000*%
%TD*%
%TA.AperFunction,ComponentPad*%
%ADD12C,1.524000*%
%TD*%
%TA.AperFunction,ComponentPad*%
%ADD13C,4.000000*%
%TD*%
%TA.AperFunction,ComponentPad*%
%ADD14C,1.600000*%
%TD*%
%TA.AperFunction,ComponentPad*%
%ADD15O,1.700000X1.700000*%
%TD*%
%TA.AperFunction,ComponentPad*%
%ADD16R,1.700000X1.700000*%
%TD*%
%TA.AperFunction,ComponentPad*%
%ADD17C,2.000000*%
%TD*%
%TA.AperFunction,ComponentPad*%
%ADD18C,1.800000*%
%TD*%
%TA.AperFunction,ViaPad*%
%ADD19C,0.800000*%
%TD*%
%TA.AperFunction,Conductor*%
%ADD20C,0.250000*%
%TD*%
G04 APERTURE END LIST*
D10*
%TO.P,A1,1*%
%TO.N,RS485_TX*%
X160020000Y-104140000D03*
D11*
%TO.P,A1,17*%
%TO.N,Net-(A1-Pad17)*%
X175260000Y-71120000D03*
%TO.P,A1,2*%
%TO.N,RS485_RX*%
X160020000Y-101600000D03*
%TO.P,A1,18*%
%TO.N,Net-(A1-Pad18)*%
X175260000Y-73660000D03*
%TO.P,A1,3*%
%TO.N,Net-(A1-Pad3)*%
X160020000Y-99060000D03*
%TO.P,A1,19*%
%TO.N,Net-(A1-Pad19)*%
X175260000Y-76200000D03*
%TO.P,A1,4*%
%TO.N,GND*%
X160020000Y-96520000D03*
%TO.P,A1,20*%
%TO.N,Net-(A1-Pad20)*%
X175260000Y-78740000D03*
%TO.P,A1,5*%
%TO.N,RS485_TX_ENABLE*%
X160020000Y-93980000D03*
%TO.P,A1,21*%
%TO.N,Net-(A1-Pad21)*%
X175260000Y-81280000D03*
%TO.P,A1,6*%
%TO.N,RS485_RX_ENABLE*%
X160020000Y-91440000D03*
%TO.P,A1,22*%
%TO.N,Net-(A1-Pad22)*%
X175260000Y-83820000D03*
%TO.P,A1,7*%
%TO.N,LEARN_BUTTON_IN*%
X160020000Y-88900000D03*
%TO.P,A1,23*%
%TO.N,Net-(A1-Pad23)*%
X175260000Y-86360000D03*
%TO.P,A1,8*%
%TO.N,Net-(A1-Pad8)*%
X160020000Y-86360000D03*
%TO.P,A1,24*%
%TO.N,Net-(A1-Pad24)*%
X175260000Y-88900000D03*
%TO.P,A1,9*%
%TO.N,Net-(A1-Pad9)*%
X160020000Y-83820000D03*
%TO.P,A1,25*%
%TO.N,Net-(A1-Pad25)*%
X175260000Y-91440000D03*
%TO.P,A1,10*%
%TO.N,IR_OUT*%
X160020000Y-81280000D03*
%TO.P,A1,26*%
%TO.N,Net-(A1-Pad26)*%
X175260000Y-93980000D03*
%TO.P,A1,11*%
%TO.N,RES*%
X160020000Y-78740000D03*
%TO.P,A1,27*%
%TO.N,Net-(A1-Pad27)*%
X175260000Y-96520000D03*
%TO.P,A1,12*%
%TO.N,CS*%
X160020000Y-76200000D03*
%TO.P,A1,28*%
%TO.N,Net-(A1-Pad28)*%
X175260000Y-99060000D03*
%TO.P,A1,13*%
%TO.N,DC*%
X160020000Y-73660000D03*
%TO.P,A1,29*%
%TO.N,GND*%
X175260000Y-101600000D03*
%TO.P,A1,14*%
%TO.N,MOSI*%
X160020000Y-71120000D03*
%TO.P,A1,30*%
%TO.N,VCC*%
X175260000Y-104140000D03*
%TO.P,A1,15*%
%TO.N,Net-(A1-Pad15)*%
X160020000Y-68580000D03*
%TO.P,A1,16*%
%TO.N,SCK*%
X175260000Y-68580000D03*
%TD*%
D12*
%TO.P,U2,5*%
%TO.N,GND*%
X163830000Y-107950000D03*
%TO.P,U2,6*%
%TO.N,AB+*%
X166370000Y-107950000D03*
%TO.P,U2,7*%
%TO.N,AB-*%
X168910000Y-107950000D03*
%TO.P,U2,8*%
%TO.N,VCC*%
X171450000Y-107950000D03*
%TO.P,U2,4*%
%TO.N,RS485_TX*%
X163830000Y-66040000D03*
%TO.P,U2,3*%
%TO.N,RS485_TX_ENABLE*%
X166370000Y-66040000D03*
%TO.P,U2,2*%
%TO.N,RS485_RX_ENABLE*%
X168910000Y-66040000D03*
%TO.P,U2,1*%
%TO.N,RS485_RX*%
X171450000Y-66040000D03*
%TD*%
D13*
%TO.P,J1,0*%
%TO.N,N/C*%
X179330000Y-128570000D03*
X154330000Y-128570000D03*
D14*
%TO.P,J1,9*%
%TO.N,GND*%
X170985000Y-131110000D03*
%TO.P,J1,8*%
%TO.N,YZ-*%
X168215000Y-131110000D03*
%TO.P,J1,7*%
%TO.N,AB-*%
X165445000Y-131110000D03*
%TO.P,J1,6*%
%TO.N,GND*%
X162675000Y-131110000D03*
%TO.P,J1,5*%
%TO.N,VCC*%
X172370000Y-128270000D03*
%TO.P,J1,4*%
%TO.N,GND*%
X169600000Y-128270000D03*
%TO.P,J1,3*%
%TO.N,YZ+*%
X166830000Y-128270000D03*
%TO.P,J1,2*%
%TO.N,AB+*%
X164060000Y-128270000D03*
D10*
%TO.P,J1,1*%
%TO.N,GND*%
X161290000Y-128270000D03*
%TD*%
D15*
%TO.P,D5,7*%
%TO.N,GND*%
X153670000Y-63500000D03*
%TO.P,D5,6*%
%TO.N,VCC*%
X153670000Y-66040000D03*
%TO.P,D5,5*%
%TO.N,SCK*%
X153670000Y-68580000D03*
%TO.P,D5,4*%
%TO.N,MOSI*%
X153670000Y-71120000D03*
%TO.P,D5,3*%
%TO.N,RES*%
X153670000Y-73660000D03*
%TO.P,D5,2*%
%TO.N,DC*%
X153670000Y-76200000D03*
D16*
%TO.P,D5,1*%
%TO.N,CS*%
X153670000Y-78740000D03*
%TD*%
D17*
%TO.P,SW1,1*%
%TO.N,GND*%
X175260000Y-58570000D03*
%TO.P,SW1,2*%
%TO.N,LEARN_BUTTON_IN*%
X170760000Y-58570000D03*
%TO.P,SW1,1*%
%TO.N,GND*%
X175260000Y-52070000D03*
%TO.P,SW1,2*%
%TO.N,LEARN_BUTTON_IN*%
X170760000Y-52070000D03*
%TD*%
D18*
%TO.P,U1,3*%
%TO.N,VCC*%
X160020000Y-55880000D03*
%TO.P,U1,2*%
%TO.N,GND*%
X162560000Y-55880000D03*
%TO.P,U1,1*%
%TO.N,IR_OUT*%
%TA.AperFunction,ComponentPad*%
G36*
G01*
X166000000Y-55228400D02*
X166000000Y-56531600D01*
G75*
G02*
X165751600Y-56780000I-248400J0D01*
G01*
X164448400Y-56780000D01*
G75*
G02*
X164200000Y-56531600I0J248400D01*
G01*
X164200000Y-55228400D01*
G75*
G02*
X164448400Y-54980000I248400J0D01*
G01*
X165751600Y-54980000D01*
G75*
G02*
X166000000Y-55228400I0J-248400D01*
G01*
G37*
%TD.AperFunction*%
%TD*%
D19*
%TO.N,GND*%
X173990000Y-124460000D03*
%TO.N,VCC*%
X173990000Y-116840000D03*
%TO.N,RS485_TX_ENABLE*%
X162560000Y-92710000D03*
X166370000Y-73660000D03*
%TO.N,RS485_RX_ENABLE*%
X162560000Y-90170000D03*
%TO.N,SCK*%
X157480000Y-68580000D03*
X177800000Y-68580000D03*
%TO.N,RS485_RX_ENABLE*%
X168910000Y-71120000D03*
%TD*%
D20*
%TO.N,RS485_TX_ENABLE*%
X166370000Y-88900000D02*
X162560000Y-92710000D01*
X166370000Y-73660000D02*
X166370000Y-88900000D01*
%TO.N,SCK*%
X161290000Y-63500000D02*
X172720000Y-63500000D01*
X157480000Y-67310000D02*
X161290000Y-63500000D01*
X157480000Y-68580000D02*
X157480000Y-67310000D01*
X176530000Y-67310000D02*
X176712999Y-67492999D01*
X172720000Y-63500000D02*
X177800000Y-68580000D01*
%TO.N,RS485_RX_ENABLE*%
X162560000Y-76396998D02*
X162560000Y-90170000D01*
X167836998Y-71120000D02*
X162560000Y-76396998D01*
X168910000Y-71120000D02*
X167836998Y-71120000D01*
%TD*%
M02*
