%TF.GenerationSoftware,KiCad,Pcbnew,(5.1.10)-1*%
%TF.CreationDate,2021-11-11T11:19:20+11:00*%
%TF.ProjectId,bkm10iRduino_shield,626b6d31-3069-4526-9475-696e6f5f7368,rev?*%
%TF.SameCoordinates,Original*%
%TF.FileFunction,Legend,Top*%
%TF.FilePolarity,Positive*%
%FSLAX46Y46*%
G04 Gerber Fmt 4.6, Leading zero omitted, Abs format (unit mm)*
G04 Created by KiCad (PCBNEW (5.1.10)-1) date 2021-11-11 11:19:20*
%MOMM*%
%LPD*%
G01*
G04 APERTURE LIST*
%ADD10C,0.150000*%
%ADD11C,0.200000*%
%ADD12C,0.120000*%
%ADD13C,0.254000*%
G04 APERTURE END LIST*
D10*
X157799404Y-83097619D02*
X157466071Y-82097619D01*
X157132738Y-83097619D01*
X156227976Y-82192857D02*
X156275595Y-82145238D01*
X156418452Y-82097619D01*
X156513690Y-82097619D01*
X156656547Y-82145238D01*
X156751785Y-82240476D01*
X156799404Y-82335714D01*
X156847023Y-82526190D01*
X156847023Y-82669047D01*
X156799404Y-82859523D01*
X156751785Y-82954761D01*
X156656547Y-83050000D01*
X156513690Y-83097619D01*
X156418452Y-83097619D01*
X156275595Y-83050000D01*
X156227976Y-83002380D01*
X155227976Y-82192857D02*
X155275595Y-82145238D01*
X155418452Y-82097619D01*
X155513690Y-82097619D01*
X155656547Y-82145238D01*
X155751785Y-82240476D01*
X155799404Y-82335714D01*
X155847023Y-82526190D01*
X155847023Y-82669047D01*
X155799404Y-82859523D01*
X155751785Y-82954761D01*
X155656547Y-83050000D01*
X155513690Y-83097619D01*
X155418452Y-83097619D01*
X155275595Y-83050000D01*
X155227976Y-83002380D01*
X156227976Y-79652857D02*
X156275595Y-79605238D01*
X156418452Y-79557619D01*
X156513690Y-79557619D01*
X156656547Y-79605238D01*
X156751785Y-79700476D01*
X156799404Y-79795714D01*
X156847023Y-79986190D01*
X156847023Y-80129047D01*
X156799404Y-80319523D01*
X156751785Y-80414761D01*
X156656547Y-80510000D01*
X156513690Y-80557619D01*
X156418452Y-80557619D01*
X156275595Y-80510000D01*
X156227976Y-80462380D01*
X155799404Y-79557619D02*
X155799404Y-80557619D01*
X155227976Y-79557619D02*
X155656547Y-80129047D01*
X155227976Y-80557619D02*
X155799404Y-79986190D01*
X157323214Y-85590000D02*
X157418452Y-85637619D01*
X157561309Y-85637619D01*
X157704166Y-85590000D01*
X157799404Y-85494761D01*
X157847023Y-85399523D01*
X157894642Y-85209047D01*
X157894642Y-85066190D01*
X157847023Y-84875714D01*
X157799404Y-84780476D01*
X157704166Y-84685238D01*
X157561309Y-84637619D01*
X157466071Y-84637619D01*
X157323214Y-84685238D01*
X157275595Y-84732857D01*
X157275595Y-85066190D01*
X157466071Y-85066190D01*
X156847023Y-84637619D02*
X156847023Y-85637619D01*
X156275595Y-84637619D01*
X156275595Y-85637619D01*
X155799404Y-84637619D02*
X155799404Y-85637619D01*
X155561309Y-85637619D01*
X155418452Y-85590000D01*
X155323214Y-85494761D01*
X155275595Y-85399523D01*
X155227976Y-85209047D01*
X155227976Y-85066190D01*
X155275595Y-84875714D01*
X155323214Y-84780476D01*
X155418452Y-84685238D01*
X155561309Y-84637619D01*
X155799404Y-84637619D01*
X158418452Y-77017619D02*
X158418452Y-78017619D01*
X158085119Y-77303333D01*
X157751785Y-78017619D01*
X157751785Y-77017619D01*
X157085119Y-78017619D02*
X156894642Y-78017619D01*
X156799404Y-77970000D01*
X156704166Y-77874761D01*
X156656547Y-77684285D01*
X156656547Y-77350952D01*
X156704166Y-77160476D01*
X156799404Y-77065238D01*
X156894642Y-77017619D01*
X157085119Y-77017619D01*
X157180357Y-77065238D01*
X157275595Y-77160476D01*
X157323214Y-77350952D01*
X157323214Y-77684285D01*
X157275595Y-77874761D01*
X157180357Y-77970000D01*
X157085119Y-78017619D01*
X156275595Y-77065238D02*
X156132738Y-77017619D01*
X155894642Y-77017619D01*
X155799404Y-77065238D01*
X155751785Y-77112857D01*
X155704166Y-77208095D01*
X155704166Y-77303333D01*
X155751785Y-77398571D01*
X155799404Y-77446190D01*
X155894642Y-77493809D01*
X156085119Y-77541428D01*
X156180357Y-77589047D01*
X156227976Y-77636666D01*
X156275595Y-77731904D01*
X156275595Y-77827142D01*
X156227976Y-77922380D01*
X156180357Y-77970000D01*
X156085119Y-78017619D01*
X155847023Y-78017619D01*
X155704166Y-77970000D01*
X155275595Y-77017619D02*
X155275595Y-78017619D01*
X157085119Y-74477619D02*
X157418452Y-74953809D01*
X157656547Y-74477619D02*
X157656547Y-75477619D01*
X157275595Y-75477619D01*
X157180357Y-75430000D01*
X157132738Y-75382380D01*
X157085119Y-75287142D01*
X157085119Y-75144285D01*
X157132738Y-75049047D01*
X157180357Y-75001428D01*
X157275595Y-74953809D01*
X157656547Y-74953809D01*
X156656547Y-75001428D02*
X156323214Y-75001428D01*
X156180357Y-74477619D02*
X156656547Y-74477619D01*
X156656547Y-75477619D01*
X156180357Y-75477619D01*
X155799404Y-74525238D02*
X155656547Y-74477619D01*
X155418452Y-74477619D01*
X155323214Y-74525238D01*
X155275595Y-74572857D01*
X155227976Y-74668095D01*
X155227976Y-74763333D01*
X155275595Y-74858571D01*
X155323214Y-74906190D01*
X155418452Y-74953809D01*
X155608928Y-75001428D01*
X155704166Y-75049047D01*
X155751785Y-75096666D01*
X155799404Y-75191904D01*
X155799404Y-75287142D01*
X155751785Y-75382380D01*
X155704166Y-75430000D01*
X155608928Y-75477619D01*
X155370833Y-75477619D01*
X155227976Y-75430000D01*
X156799404Y-71937619D02*
X156799404Y-72937619D01*
X156561309Y-72937619D01*
X156418452Y-72890000D01*
X156323214Y-72794761D01*
X156275595Y-72699523D01*
X156227976Y-72509047D01*
X156227976Y-72366190D01*
X156275595Y-72175714D01*
X156323214Y-72080476D01*
X156418452Y-71985238D01*
X156561309Y-71937619D01*
X156799404Y-71937619D01*
X155227976Y-72032857D02*
X155275595Y-71985238D01*
X155418452Y-71937619D01*
X155513690Y-71937619D01*
X155656547Y-71985238D01*
X155751785Y-72080476D01*
X155799404Y-72175714D01*
X155847023Y-72366190D01*
X155847023Y-72509047D01*
X155799404Y-72699523D01*
X155751785Y-72794761D01*
X155656547Y-72890000D01*
X155513690Y-72937619D01*
X155418452Y-72937619D01*
X155275595Y-72890000D01*
X155227976Y-72842380D01*
X156180357Y-69492857D02*
X156227976Y-69445238D01*
X156370833Y-69397619D01*
X156466071Y-69397619D01*
X156608928Y-69445238D01*
X156704166Y-69540476D01*
X156751785Y-69635714D01*
X156799404Y-69826190D01*
X156799404Y-69969047D01*
X156751785Y-70159523D01*
X156704166Y-70254761D01*
X156608928Y-70350000D01*
X156466071Y-70397619D01*
X156370833Y-70397619D01*
X156227976Y-70350000D01*
X156180357Y-70302380D01*
X155799404Y-69445238D02*
X155656547Y-69397619D01*
X155418452Y-69397619D01*
X155323214Y-69445238D01*
X155275595Y-69492857D01*
X155227976Y-69588095D01*
X155227976Y-69683333D01*
X155275595Y-69778571D01*
X155323214Y-69826190D01*
X155418452Y-69873809D01*
X155608928Y-69921428D01*
X155704166Y-69969047D01*
X155751785Y-70016666D01*
X155799404Y-70111904D01*
X155799404Y-70207142D01*
X155751785Y-70302380D01*
X155704166Y-70350000D01*
X155608928Y-70397619D01*
X155370833Y-70397619D01*
X155227976Y-70350000D01*
X179443571Y-90859523D02*
X179491190Y-90716666D01*
X179538809Y-90669047D01*
X179634047Y-90621428D01*
X179776904Y-90621428D01*
X179872142Y-90669047D01*
X179919761Y-90716666D01*
X179967380Y-90811904D01*
X179967380Y-91192857D01*
X178967380Y-91192857D01*
X178967380Y-90859523D01*
X179015000Y-90764285D01*
X179062619Y-90716666D01*
X179157857Y-90669047D01*
X179253095Y-90669047D01*
X179348333Y-90716666D01*
X179395952Y-90764285D01*
X179443571Y-90859523D01*
X179443571Y-91192857D01*
X179967380Y-90192857D02*
X178967380Y-90192857D01*
X179967380Y-89621428D02*
X179395952Y-90050000D01*
X178967380Y-89621428D02*
X179538809Y-90192857D01*
X179967380Y-89192857D02*
X178967380Y-89192857D01*
X179681666Y-88859523D01*
X178967380Y-88526190D01*
X179967380Y-88526190D01*
X179586428Y-88050000D02*
X179586428Y-87288095D01*
X179967380Y-86288095D02*
X179967380Y-86859523D01*
X179967380Y-86573809D02*
X178967380Y-86573809D01*
X179110238Y-86669047D01*
X179205476Y-86764285D01*
X179253095Y-86859523D01*
X178967380Y-85669047D02*
X178967380Y-85573809D01*
X179015000Y-85478571D01*
X179062619Y-85430952D01*
X179157857Y-85383333D01*
X179348333Y-85335714D01*
X179586428Y-85335714D01*
X179776904Y-85383333D01*
X179872142Y-85430952D01*
X179919761Y-85478571D01*
X179967380Y-85573809D01*
X179967380Y-85669047D01*
X179919761Y-85764285D01*
X179872142Y-85811904D01*
X179776904Y-85859523D01*
X179586428Y-85907142D01*
X179348333Y-85907142D01*
X179157857Y-85859523D01*
X179062619Y-85811904D01*
X179015000Y-85764285D01*
X178967380Y-85669047D01*
X179967380Y-84907142D02*
X179300714Y-84907142D01*
X178967380Y-84907142D02*
X179015000Y-84954761D01*
X179062619Y-84907142D01*
X179015000Y-84859523D01*
X178967380Y-84907142D01*
X179062619Y-84907142D01*
X179967380Y-83859523D02*
X179491190Y-84192857D01*
X179967380Y-84430952D02*
X178967380Y-84430952D01*
X178967380Y-84050000D01*
X179015000Y-83954761D01*
X179062619Y-83907142D01*
X179157857Y-83859523D01*
X179300714Y-83859523D01*
X179395952Y-83907142D01*
X179443571Y-83954761D01*
X179491190Y-84050000D01*
X179491190Y-84430952D01*
X179967380Y-83002380D02*
X178967380Y-83002380D01*
X179919761Y-83002380D02*
X179967380Y-83097619D01*
X179967380Y-83288095D01*
X179919761Y-83383333D01*
X179872142Y-83430952D01*
X179776904Y-83478571D01*
X179491190Y-83478571D01*
X179395952Y-83430952D01*
X179348333Y-83383333D01*
X179300714Y-83288095D01*
X179300714Y-83097619D01*
X179348333Y-83002380D01*
X179300714Y-82097619D02*
X179967380Y-82097619D01*
X179300714Y-82526190D02*
X179824523Y-82526190D01*
X179919761Y-82478571D01*
X179967380Y-82383333D01*
X179967380Y-82240476D01*
X179919761Y-82145238D01*
X179872142Y-82097619D01*
X179967380Y-81621428D02*
X179300714Y-81621428D01*
X178967380Y-81621428D02*
X179015000Y-81669047D01*
X179062619Y-81621428D01*
X179015000Y-81573809D01*
X178967380Y-81621428D01*
X179062619Y-81621428D01*
X179300714Y-81145238D02*
X179967380Y-81145238D01*
X179395952Y-81145238D02*
X179348333Y-81097619D01*
X179300714Y-81002380D01*
X179300714Y-80859523D01*
X179348333Y-80764285D01*
X179443571Y-80716666D01*
X179967380Y-80716666D01*
X179967380Y-80097619D02*
X179919761Y-80192857D01*
X179872142Y-80240476D01*
X179776904Y-80288095D01*
X179491190Y-80288095D01*
X179395952Y-80240476D01*
X179348333Y-80192857D01*
X179300714Y-80097619D01*
X179300714Y-79954761D01*
X179348333Y-79859523D01*
X179395952Y-79811904D01*
X179491190Y-79764285D01*
X179776904Y-79764285D01*
X179872142Y-79811904D01*
X179919761Y-79859523D01*
X179967380Y-79954761D01*
X179967380Y-80097619D01*
X180348333Y-78288095D02*
X180300714Y-78335714D01*
X180157857Y-78430952D01*
X180062619Y-78478571D01*
X179919761Y-78526190D01*
X179681666Y-78573809D01*
X179491190Y-78573809D01*
X179253095Y-78526190D01*
X179110238Y-78478571D01*
X179015000Y-78430952D01*
X178872142Y-78335714D01*
X178824523Y-78288095D01*
X179062619Y-77954761D02*
X179015000Y-77907142D01*
X178967380Y-77811904D01*
X178967380Y-77573809D01*
X179015000Y-77478571D01*
X179062619Y-77430952D01*
X179157857Y-77383333D01*
X179253095Y-77383333D01*
X179395952Y-77430952D01*
X179967380Y-78002380D01*
X179967380Y-77383333D01*
X178967380Y-76764285D02*
X178967380Y-76669047D01*
X179015000Y-76573809D01*
X179062619Y-76526190D01*
X179157857Y-76478571D01*
X179348333Y-76430952D01*
X179586428Y-76430952D01*
X179776904Y-76478571D01*
X179872142Y-76526190D01*
X179919761Y-76573809D01*
X179967380Y-76669047D01*
X179967380Y-76764285D01*
X179919761Y-76859523D01*
X179872142Y-76907142D01*
X179776904Y-76954761D01*
X179586428Y-77002380D01*
X179348333Y-77002380D01*
X179157857Y-76954761D01*
X179062619Y-76907142D01*
X179015000Y-76859523D01*
X178967380Y-76764285D01*
X179062619Y-76050000D02*
X179015000Y-76002380D01*
X178967380Y-75907142D01*
X178967380Y-75669047D01*
X179015000Y-75573809D01*
X179062619Y-75526190D01*
X179157857Y-75478571D01*
X179253095Y-75478571D01*
X179395952Y-75526190D01*
X179967380Y-76097619D01*
X179967380Y-75478571D01*
X179967380Y-74526190D02*
X179967380Y-75097619D01*
X179967380Y-74811904D02*
X178967380Y-74811904D01*
X179110238Y-74907142D01*
X179205476Y-75002380D01*
X179253095Y-75097619D01*
X180348333Y-74192857D02*
X180300714Y-74145238D01*
X180157857Y-74050000D01*
X180062619Y-74002380D01*
X179919761Y-73954761D01*
X179681666Y-73907142D01*
X179491190Y-73907142D01*
X179253095Y-73954761D01*
X179110238Y-74002380D01*
X179015000Y-74050000D01*
X178872142Y-74145238D01*
X178824523Y-74192857D01*
X181617380Y-90883333D02*
X181093571Y-90883333D01*
X180998333Y-90930952D01*
X180950714Y-91026190D01*
X180950714Y-91216666D01*
X180998333Y-91311904D01*
X181569761Y-90883333D02*
X181617380Y-90978571D01*
X181617380Y-91216666D01*
X181569761Y-91311904D01*
X181474523Y-91359523D01*
X181379285Y-91359523D01*
X181284047Y-91311904D01*
X181236428Y-91216666D01*
X181236428Y-90978571D01*
X181188809Y-90883333D01*
X181617380Y-89978571D02*
X181093571Y-89978571D01*
X180998333Y-90026190D01*
X180950714Y-90121428D01*
X180950714Y-90311904D01*
X180998333Y-90407142D01*
X181569761Y-89978571D02*
X181617380Y-90073809D01*
X181617380Y-90311904D01*
X181569761Y-90407142D01*
X181474523Y-90454761D01*
X181379285Y-90454761D01*
X181284047Y-90407142D01*
X181236428Y-90311904D01*
X181236428Y-90073809D01*
X181188809Y-89978571D01*
X181617380Y-89502380D02*
X180950714Y-89502380D01*
X181141190Y-89502380D02*
X181045952Y-89454761D01*
X180998333Y-89407142D01*
X180950714Y-89311904D01*
X180950714Y-89216666D01*
X181617380Y-88740476D02*
X181569761Y-88835714D01*
X181522142Y-88883333D01*
X181426904Y-88930952D01*
X181141190Y-88930952D01*
X181045952Y-88883333D01*
X180998333Y-88835714D01*
X180950714Y-88740476D01*
X180950714Y-88597619D01*
X180998333Y-88502380D01*
X181045952Y-88454761D01*
X181141190Y-88407142D01*
X181426904Y-88407142D01*
X181522142Y-88454761D01*
X181569761Y-88502380D01*
X181617380Y-88597619D01*
X181617380Y-88740476D01*
X180950714Y-87978571D02*
X181617380Y-87978571D01*
X181045952Y-87978571D02*
X180998333Y-87930952D01*
X180950714Y-87835714D01*
X180950714Y-87692857D01*
X180998333Y-87597619D01*
X181093571Y-87550000D01*
X181617380Y-87550000D01*
X181141190Y-86454761D02*
X181093571Y-86502380D01*
X181045952Y-86597619D01*
X181045952Y-86692857D01*
X181093571Y-86788095D01*
X181141190Y-86835714D01*
X181236428Y-86883333D01*
X181331666Y-86883333D01*
X181426904Y-86835714D01*
X181474523Y-86788095D01*
X181522142Y-86692857D01*
X181522142Y-86597619D01*
X181474523Y-86502380D01*
X181426904Y-86454761D01*
X181045952Y-86454761D02*
X181426904Y-86454761D01*
X181474523Y-86407142D01*
X181474523Y-86359523D01*
X181426904Y-86264285D01*
X181331666Y-86216666D01*
X181093571Y-86216666D01*
X180950714Y-86311904D01*
X180855476Y-86454761D01*
X180807857Y-86645238D01*
X180855476Y-86835714D01*
X180950714Y-86978571D01*
X181093571Y-87073809D01*
X181284047Y-87121428D01*
X181474523Y-87073809D01*
X181617380Y-86978571D01*
X181712619Y-86835714D01*
X181760238Y-86645238D01*
X181712619Y-86454761D01*
X181617380Y-86311904D01*
X181617380Y-85788095D02*
X180617380Y-85788095D01*
X180998333Y-85788095D02*
X180950714Y-85692857D01*
X180950714Y-85502380D01*
X180998333Y-85407142D01*
X181045952Y-85359523D01*
X181141190Y-85311904D01*
X181426904Y-85311904D01*
X181522142Y-85359523D01*
X181569761Y-85407142D01*
X181617380Y-85502380D01*
X181617380Y-85692857D01*
X181569761Y-85788095D01*
X181617380Y-84740476D02*
X181569761Y-84835714D01*
X181522142Y-84883333D01*
X181426904Y-84930952D01*
X181141190Y-84930952D01*
X181045952Y-84883333D01*
X180998333Y-84835714D01*
X180950714Y-84740476D01*
X180950714Y-84597619D01*
X180998333Y-84502380D01*
X181045952Y-84454761D01*
X181141190Y-84407142D01*
X181426904Y-84407142D01*
X181522142Y-84454761D01*
X181569761Y-84502380D01*
X181617380Y-84597619D01*
X181617380Y-84740476D01*
X180950714Y-83978571D02*
X181617380Y-83978571D01*
X181045952Y-83978571D02*
X180998333Y-83930952D01*
X180950714Y-83835714D01*
X180950714Y-83692857D01*
X180998333Y-83597619D01*
X181093571Y-83550000D01*
X181617380Y-83550000D01*
X181617380Y-83073809D02*
X180617380Y-83073809D01*
X181617380Y-82645238D02*
X181093571Y-82645238D01*
X180998333Y-82692857D01*
X180950714Y-82788095D01*
X180950714Y-82930952D01*
X180998333Y-83026190D01*
X181045952Y-83073809D01*
X181617380Y-81740476D02*
X181093571Y-81740476D01*
X180998333Y-81788095D01*
X180950714Y-81883333D01*
X180950714Y-82073809D01*
X180998333Y-82169047D01*
X181569761Y-81740476D02*
X181617380Y-81835714D01*
X181617380Y-82073809D01*
X181569761Y-82169047D01*
X181474523Y-82216666D01*
X181379285Y-82216666D01*
X181284047Y-82169047D01*
X181236428Y-82073809D01*
X181236428Y-81835714D01*
X181188809Y-81740476D01*
X181617380Y-81264285D02*
X180950714Y-81264285D01*
X181045952Y-81264285D02*
X180998333Y-81216666D01*
X180950714Y-81121428D01*
X180950714Y-80978571D01*
X180998333Y-80883333D01*
X181093571Y-80835714D01*
X181617380Y-80835714D01*
X181093571Y-80835714D02*
X180998333Y-80788095D01*
X180950714Y-80692857D01*
X180950714Y-80550000D01*
X180998333Y-80454761D01*
X181093571Y-80407142D01*
X181617380Y-80407142D01*
X181522142Y-79930952D02*
X181569761Y-79883333D01*
X181617380Y-79930952D01*
X181569761Y-79978571D01*
X181522142Y-79930952D01*
X181617380Y-79930952D01*
X181569761Y-79026190D02*
X181617380Y-79121428D01*
X181617380Y-79311904D01*
X181569761Y-79407142D01*
X181522142Y-79454761D01*
X181426904Y-79502380D01*
X181141190Y-79502380D01*
X181045952Y-79454761D01*
X180998333Y-79407142D01*
X180950714Y-79311904D01*
X180950714Y-79121428D01*
X180998333Y-79026190D01*
X181617380Y-78454761D02*
X181569761Y-78550000D01*
X181522142Y-78597619D01*
X181426904Y-78645238D01*
X181141190Y-78645238D01*
X181045952Y-78597619D01*
X180998333Y-78550000D01*
X180950714Y-78454761D01*
X180950714Y-78311904D01*
X180998333Y-78216666D01*
X181045952Y-78169047D01*
X181141190Y-78121428D01*
X181426904Y-78121428D01*
X181522142Y-78169047D01*
X181569761Y-78216666D01*
X181617380Y-78311904D01*
X181617380Y-78454761D01*
X181617380Y-77692857D02*
X180950714Y-77692857D01*
X181045952Y-77692857D02*
X180998333Y-77645238D01*
X180950714Y-77550000D01*
X180950714Y-77407142D01*
X180998333Y-77311904D01*
X181093571Y-77264285D01*
X181617380Y-77264285D01*
X181093571Y-77264285D02*
X180998333Y-77216666D01*
X180950714Y-77121428D01*
X180950714Y-76978571D01*
X180998333Y-76883333D01*
X181093571Y-76835714D01*
X181617380Y-76835714D01*
X181522142Y-76359523D02*
X181569761Y-76311904D01*
X181617380Y-76359523D01*
X181569761Y-76407142D01*
X181522142Y-76359523D01*
X181617380Y-76359523D01*
X181617380Y-75454761D02*
X181093571Y-75454761D01*
X180998333Y-75502380D01*
X180950714Y-75597619D01*
X180950714Y-75788095D01*
X180998333Y-75883333D01*
X181569761Y-75454761D02*
X181617380Y-75550000D01*
X181617380Y-75788095D01*
X181569761Y-75883333D01*
X181474523Y-75930952D01*
X181379285Y-75930952D01*
X181284047Y-75883333D01*
X181236428Y-75788095D01*
X181236428Y-75550000D01*
X181188809Y-75454761D01*
X180950714Y-74550000D02*
X181617380Y-74550000D01*
X180950714Y-74978571D02*
X181474523Y-74978571D01*
X181569761Y-74930952D01*
X181617380Y-74835714D01*
X181617380Y-74692857D01*
X181569761Y-74597619D01*
X181522142Y-74550000D01*
D11*
%TO.C,IC1*%
X166518000Y-98858000D02*
X168762000Y-98858000D01*
X168762000Y-98858000D02*
X168762000Y-101802000D01*
X168762000Y-101802000D02*
X166518000Y-101802000D01*
X166518000Y-101802000D02*
X166518000Y-98858000D01*
X164740000Y-98830000D02*
X166168000Y-98830000D01*
D12*
%TO.C,C4*%
X168470000Y-92818748D02*
X168470000Y-95141252D01*
X171890000Y-92818748D02*
X171890000Y-95141252D01*
%TO.C,C3*%
X156101252Y-59250000D02*
X153778748Y-59250000D01*
X156101252Y-62670000D02*
X153778748Y-62670000D01*
%TO.C,C2*%
X156650000Y-105301252D02*
X156650000Y-102978748D01*
X153230000Y-105301252D02*
X153230000Y-102978748D01*
%TO.C,C1*%
X178630000Y-102978748D02*
X178630000Y-105301252D01*
X182050000Y-102978748D02*
X182050000Y-105301252D01*
%TO.C,R1*%
X167192936Y-105770000D02*
X168647064Y-105770000D01*
X167192936Y-107590000D02*
X168647064Y-107590000D01*
%TO.C,D5*%
X152340000Y-86420000D02*
X155000000Y-86420000D01*
X152340000Y-71120000D02*
X152340000Y-86420000D01*
X155000000Y-71120000D02*
X155000000Y-86420000D01*
X152340000Y-71120000D02*
X155000000Y-71120000D01*
X152340000Y-69850000D02*
X152340000Y-68520000D01*
X152340000Y-68520000D02*
X153670000Y-68520000D01*
%TO.C,SW1*%
X169760000Y-53070000D02*
X169760000Y-57570000D01*
X173760000Y-51820000D02*
X172260000Y-51820000D01*
X176260000Y-57570000D02*
X176260000Y-53070000D01*
X172260000Y-58820000D02*
X173760000Y-58820000D01*
%TO.C,U1*%
X165060000Y-53580000D02*
X165280000Y-53580000D01*
X159480000Y-57240000D02*
X162560000Y-57240000D01*
X159400000Y-53580000D02*
X159860000Y-53580000D01*
X159400000Y-53580000D02*
X159400000Y-54780000D01*
X165060000Y-53580000D02*
G75*
G03*
X159860000Y-53580000I-2600000J-1100000D01*
G01*
%TO.C,IC1*%
D13*
X165130238Y-98364523D02*
X165130238Y-97094523D01*
X166460714Y-98243571D02*
X166400238Y-98304047D01*
X166218809Y-98364523D01*
X166097857Y-98364523D01*
X165916428Y-98304047D01*
X165795476Y-98183095D01*
X165735000Y-98062142D01*
X165674523Y-97820238D01*
X165674523Y-97638809D01*
X165735000Y-97396904D01*
X165795476Y-97275952D01*
X165916428Y-97155000D01*
X166097857Y-97094523D01*
X166218809Y-97094523D01*
X166400238Y-97155000D01*
X166460714Y-97215476D01*
X167670238Y-98364523D02*
X166944523Y-98364523D01*
X167307380Y-98364523D02*
X167307380Y-97094523D01*
X167186428Y-97275952D01*
X167065476Y-97396904D01*
X166944523Y-97457380D01*
%TO.C,C4*%
D10*
X173187142Y-94146666D02*
X173234761Y-94194285D01*
X173282380Y-94337142D01*
X173282380Y-94432380D01*
X173234761Y-94575238D01*
X173139523Y-94670476D01*
X173044285Y-94718095D01*
X172853809Y-94765714D01*
X172710952Y-94765714D01*
X172520476Y-94718095D01*
X172425238Y-94670476D01*
X172330000Y-94575238D01*
X172282380Y-94432380D01*
X172282380Y-94337142D01*
X172330000Y-94194285D01*
X172377619Y-94146666D01*
X172615714Y-93289523D02*
X173282380Y-93289523D01*
X172234761Y-93527619D02*
X172949047Y-93765714D01*
X172949047Y-93146666D01*
%TO.C,C3*%
X154773333Y-63967142D02*
X154725714Y-64014761D01*
X154582857Y-64062380D01*
X154487619Y-64062380D01*
X154344761Y-64014761D01*
X154249523Y-63919523D01*
X154201904Y-63824285D01*
X154154285Y-63633809D01*
X154154285Y-63490952D01*
X154201904Y-63300476D01*
X154249523Y-63205238D01*
X154344761Y-63110000D01*
X154487619Y-63062380D01*
X154582857Y-63062380D01*
X154725714Y-63110000D01*
X154773333Y-63157619D01*
X155106666Y-63062380D02*
X155725714Y-63062380D01*
X155392380Y-63443333D01*
X155535238Y-63443333D01*
X155630476Y-63490952D01*
X155678095Y-63538571D01*
X155725714Y-63633809D01*
X155725714Y-63871904D01*
X155678095Y-63967142D01*
X155630476Y-64014761D01*
X155535238Y-64062380D01*
X155249523Y-64062380D01*
X155154285Y-64014761D01*
X155106666Y-63967142D01*
%TO.C,C2*%
X152647142Y-104306666D02*
X152694761Y-104354285D01*
X152742380Y-104497142D01*
X152742380Y-104592380D01*
X152694761Y-104735238D01*
X152599523Y-104830476D01*
X152504285Y-104878095D01*
X152313809Y-104925714D01*
X152170952Y-104925714D01*
X151980476Y-104878095D01*
X151885238Y-104830476D01*
X151790000Y-104735238D01*
X151742380Y-104592380D01*
X151742380Y-104497142D01*
X151790000Y-104354285D01*
X151837619Y-104306666D01*
X151837619Y-103925714D02*
X151790000Y-103878095D01*
X151742380Y-103782857D01*
X151742380Y-103544761D01*
X151790000Y-103449523D01*
X151837619Y-103401904D01*
X151932857Y-103354285D01*
X152028095Y-103354285D01*
X152170952Y-103401904D01*
X152742380Y-103973333D01*
X152742380Y-103354285D01*
%TO.C,C1*%
X183347142Y-104306666D02*
X183394761Y-104354285D01*
X183442380Y-104497142D01*
X183442380Y-104592380D01*
X183394761Y-104735238D01*
X183299523Y-104830476D01*
X183204285Y-104878095D01*
X183013809Y-104925714D01*
X182870952Y-104925714D01*
X182680476Y-104878095D01*
X182585238Y-104830476D01*
X182490000Y-104735238D01*
X182442380Y-104592380D01*
X182442380Y-104497142D01*
X182490000Y-104354285D01*
X182537619Y-104306666D01*
X183442380Y-103354285D02*
X183442380Y-103925714D01*
X183442380Y-103640000D02*
X182442380Y-103640000D01*
X182585238Y-103735238D01*
X182680476Y-103830476D01*
X182728095Y-103925714D01*
%TO.C,R1*%
X168372380Y-105026666D02*
X167896190Y-105360000D01*
X168372380Y-105598095D02*
X167372380Y-105598095D01*
X167372380Y-105217142D01*
X167420000Y-105121904D01*
X167467619Y-105074285D01*
X167562857Y-105026666D01*
X167705714Y-105026666D01*
X167800952Y-105074285D01*
X167848571Y-105121904D01*
X167896190Y-105217142D01*
X167896190Y-105598095D01*
X168372380Y-104074285D02*
X168372380Y-104645714D01*
X168372380Y-104360000D02*
X167372380Y-104360000D01*
X167515238Y-104455238D01*
X167610476Y-104550476D01*
X167658095Y-104645714D01*
%TO.C,D5*%
X152931904Y-67972380D02*
X152931904Y-66972380D01*
X153170000Y-66972380D01*
X153312857Y-67020000D01*
X153408095Y-67115238D01*
X153455714Y-67210476D01*
X153503333Y-67400952D01*
X153503333Y-67543809D01*
X153455714Y-67734285D01*
X153408095Y-67829523D01*
X153312857Y-67924761D01*
X153170000Y-67972380D01*
X152931904Y-67972380D01*
X154408095Y-66972380D02*
X153931904Y-66972380D01*
X153884285Y-67448571D01*
X153931904Y-67400952D01*
X154027142Y-67353333D01*
X154265238Y-67353333D01*
X154360476Y-67400952D01*
X154408095Y-67448571D01*
X154455714Y-67543809D01*
X154455714Y-67781904D01*
X154408095Y-67877142D01*
X154360476Y-67924761D01*
X154265238Y-67972380D01*
X154027142Y-67972380D01*
X153931904Y-67924761D01*
X153884285Y-67877142D01*
%TO.C,SW1*%
X177664761Y-56653333D02*
X177712380Y-56510476D01*
X177712380Y-56272380D01*
X177664761Y-56177142D01*
X177617142Y-56129523D01*
X177521904Y-56081904D01*
X177426666Y-56081904D01*
X177331428Y-56129523D01*
X177283809Y-56177142D01*
X177236190Y-56272380D01*
X177188571Y-56462857D01*
X177140952Y-56558095D01*
X177093333Y-56605714D01*
X176998095Y-56653333D01*
X176902857Y-56653333D01*
X176807619Y-56605714D01*
X176760000Y-56558095D01*
X176712380Y-56462857D01*
X176712380Y-56224761D01*
X176760000Y-56081904D01*
X176712380Y-55748571D02*
X177712380Y-55510476D01*
X176998095Y-55320000D01*
X177712380Y-55129523D01*
X176712380Y-54891428D01*
X177712380Y-53986666D02*
X177712380Y-54558095D01*
X177712380Y-54272380D02*
X176712380Y-54272380D01*
X176855238Y-54367619D01*
X176950476Y-54462857D01*
X176998095Y-54558095D01*
%TO.C,U1*%
X161838095Y-57582380D02*
X161838095Y-58391904D01*
X161885714Y-58487142D01*
X161933333Y-58534761D01*
X162028571Y-58582380D01*
X162219047Y-58582380D01*
X162314285Y-58534761D01*
X162361904Y-58487142D01*
X162409523Y-58391904D01*
X162409523Y-57582380D01*
X163409523Y-58582380D02*
X162838095Y-58582380D01*
X163123809Y-58582380D02*
X163123809Y-57582380D01*
X163028571Y-57725238D01*
X162933333Y-57820476D01*
X162838095Y-57868095D01*
%TD*%
M02*
