M48
; DRILL file {KiCad (5.1.10-1-10_14)} date Friday, November 05, 2021 at 10:02:58 AM
; FORMAT={-:-/ absolute / metric / decimal}
; #@! TF.CreationDate,2021-11-05T10:02:58+11:00
; #@! TF.GenerationSoftware,Kicad,Pcbnew,(5.1.10-1-10_14)
; #@! TF.FileFunction,Plated,1,4,PTH
FMAT,2
METRIC
T1C0.760
T2C0.762
T3C0.900
T4C1.000
T5C1.100
%
G90
G05
T1
X163.83Y-119.38
X165.1Y-116.84
X166.37Y-119.38
X167.64Y-116.84
X168.91Y-119.38
X170.18Y-116.84
X171.45Y-119.38
X172.72Y-116.84
T2
X163.83Y-68.58
X163.83Y-110.49
X166.37Y-68.58
X166.37Y-110.49
X168.91Y-68.58
X168.91Y-110.49
X171.45Y-68.58
X171.45Y-110.49
T3
X160.02Y-55.88
X162.56Y-55.88
X165.1Y-55.88
T4
X160.02Y-68.58
X160.02Y-71.12
X160.02Y-73.66
X160.02Y-76.2
X160.02Y-78.74
X160.02Y-81.28
X160.02Y-83.82
X160.02Y-86.36
X160.02Y-88.9
X160.02Y-91.44
X160.02Y-93.98
X160.02Y-96.52
X160.02Y-99.06
X160.02Y-101.6
X160.02Y-104.14
X164.02Y-62.67
X166.56Y-62.67
X169.1Y-62.67
X171.64Y-62.67
X175.26Y-68.58
X175.26Y-71.12
X175.26Y-73.66
X175.26Y-76.2
X175.26Y-78.74
X175.26Y-81.28
X175.26Y-83.82
X175.26Y-86.36
X175.26Y-88.9
X175.26Y-91.44
X175.26Y-93.98
X175.26Y-96.52
X175.26Y-99.06
X175.26Y-101.6
X175.26Y-104.14
T5
X168.91Y-52.07
X168.91Y-56.57
X175.41Y-52.07
X175.41Y-56.57
T0
M30
