%TF.GenerationSoftware,KiCad,Pcbnew,(5.1.10-1-10_14)*%
%TF.CreationDate,2021-11-05T10:02:52+11:00*%
%TF.ProjectId,bkm10iRduino_shield,626b6d31-3069-4526-9475-696e6f5f7368,rev?*%
%TF.SameCoordinates,Original*%
%TF.FileFunction,Legend,Top*%
%TF.FilePolarity,Positive*%
%FSLAX46Y46*%
G04 Gerber Fmt 4.6, Leading zero omitted, Abs format (unit mm)*
G04 Created by KiCad (PCBNEW (5.1.10-1-10_14)) date 2021-11-05 10:02:52*
%MOMM*%
%LPD*%
G01*
G04 APERTURE LIST*
%ADD10C,0.150000*%
%ADD11C,0.120000*%
G04 APERTURE END LIST*
D10*
X168838571Y-110418571D02*
X168886190Y-110275714D01*
X168933809Y-110228095D01*
X169029047Y-110180476D01*
X169171904Y-110180476D01*
X169267142Y-110228095D01*
X169314761Y-110275714D01*
X169362380Y-110370952D01*
X169362380Y-110751904D01*
X168362380Y-110751904D01*
X168362380Y-110418571D01*
X168410000Y-110323333D01*
X168457619Y-110275714D01*
X168552857Y-110228095D01*
X168648095Y-110228095D01*
X168743333Y-110275714D01*
X168790952Y-110323333D01*
X168838571Y-110418571D01*
X168838571Y-110751904D01*
X166536666Y-110728095D02*
X166536666Y-110251904D01*
X166822380Y-110823333D02*
X165822380Y-110490000D01*
X166822380Y-110156666D01*
D11*
%TO.C,SW1*%
X169910000Y-57570000D02*
X174410000Y-57570000D01*
X168660000Y-53570000D02*
X168660000Y-55070000D01*
X174410000Y-51070000D02*
X169910000Y-51070000D01*
X175660000Y-55070000D02*
X175660000Y-53570000D01*
%TO.C,U1*%
X165060000Y-53580000D02*
X165280000Y-53580000D01*
X159480000Y-57240000D02*
X162560000Y-57240000D01*
X159400000Y-53580000D02*
X159860000Y-53580000D01*
X159400000Y-53580000D02*
X159400000Y-54780000D01*
X165060000Y-53580000D02*
G75*
G03*
X159860000Y-53580000I-2600000J-1100000D01*
G01*
%TO.C,J1*%
X160515000Y-115500000D02*
X160515000Y-133460000D01*
X176035000Y-115500000D02*
X160515000Y-115500000D01*
X176035000Y-115500000D02*
X176035000Y-133460000D01*
X160515000Y-133460000D02*
X176035000Y-133460000D01*
X160330000Y-119380000D02*
X159830000Y-118880000D01*
X159830000Y-118880000D02*
X159830000Y-119880000D01*
X159830000Y-119880000D02*
X160330000Y-119380000D01*
%TO.C,U2*%
D10*
X167092380Y-89661904D02*
X167901904Y-89661904D01*
X167997142Y-89614285D01*
X168044761Y-89566666D01*
X168092380Y-89471428D01*
X168092380Y-89280952D01*
X168044761Y-89185714D01*
X167997142Y-89138095D01*
X167901904Y-89090476D01*
X167092380Y-89090476D01*
X167187619Y-88661904D02*
X167140000Y-88614285D01*
X167092380Y-88519047D01*
X167092380Y-88280952D01*
X167140000Y-88185714D01*
X167187619Y-88138095D01*
X167282857Y-88090476D01*
X167378095Y-88090476D01*
X167520952Y-88138095D01*
X168092380Y-88709523D01*
X168092380Y-88090476D01*
X166822380Y-92019047D02*
X165822380Y-92019047D01*
X166536666Y-91685714D01*
X165822380Y-91352380D01*
X166822380Y-91352380D01*
X166536666Y-90923809D02*
X166536666Y-90447619D01*
X166822380Y-91019047D02*
X165822380Y-90685714D01*
X166822380Y-90352380D01*
X165822380Y-90114285D02*
X166822380Y-89447619D01*
X165822380Y-89447619D02*
X166822380Y-90114285D01*
X166155714Y-88638095D02*
X166822380Y-88638095D01*
X165774761Y-88876190D02*
X166489047Y-89114285D01*
X166489047Y-88495238D01*
X166250952Y-87971428D02*
X166203333Y-88066666D01*
X166155714Y-88114285D01*
X166060476Y-88161904D01*
X166012857Y-88161904D01*
X165917619Y-88114285D01*
X165870000Y-88066666D01*
X165822380Y-87971428D01*
X165822380Y-87780952D01*
X165870000Y-87685714D01*
X165917619Y-87638095D01*
X166012857Y-87590476D01*
X166060476Y-87590476D01*
X166155714Y-87638095D01*
X166203333Y-87685714D01*
X166250952Y-87780952D01*
X166250952Y-87971428D01*
X166298571Y-88066666D01*
X166346190Y-88114285D01*
X166441428Y-88161904D01*
X166631904Y-88161904D01*
X166727142Y-88114285D01*
X166774761Y-88066666D01*
X166822380Y-87971428D01*
X166822380Y-87780952D01*
X166774761Y-87685714D01*
X166727142Y-87638095D01*
X166631904Y-87590476D01*
X166441428Y-87590476D01*
X166346190Y-87638095D01*
X166298571Y-87685714D01*
X166250952Y-87780952D01*
X165822380Y-86685714D02*
X165822380Y-87161904D01*
X166298571Y-87209523D01*
X166250952Y-87161904D01*
X166203333Y-87066666D01*
X166203333Y-86828571D01*
X166250952Y-86733333D01*
X166298571Y-86685714D01*
X166393809Y-86638095D01*
X166631904Y-86638095D01*
X166727142Y-86685714D01*
X166774761Y-86733333D01*
X166822380Y-86828571D01*
X166822380Y-87066666D01*
X166774761Y-87161904D01*
X166727142Y-87209523D01*
X166298571Y-86209523D02*
X166298571Y-85876190D01*
X166822380Y-85733333D02*
X166822380Y-86209523D01*
X165822380Y-86209523D01*
X165822380Y-85733333D01*
X171902380Y-71334285D02*
X171426190Y-71667619D01*
X171902380Y-71905714D02*
X170902380Y-71905714D01*
X170902380Y-71524761D01*
X170950000Y-71429523D01*
X170997619Y-71381904D01*
X171092857Y-71334285D01*
X171235714Y-71334285D01*
X171330952Y-71381904D01*
X171378571Y-71429523D01*
X171426190Y-71524761D01*
X171426190Y-71905714D01*
X170902380Y-70715238D02*
X170902380Y-70524761D01*
X170950000Y-70429523D01*
X171045238Y-70334285D01*
X171235714Y-70286666D01*
X171569047Y-70286666D01*
X171759523Y-70334285D01*
X171854761Y-70429523D01*
X171902380Y-70524761D01*
X171902380Y-70715238D01*
X171854761Y-70810476D01*
X171759523Y-70905714D01*
X171569047Y-70953333D01*
X171235714Y-70953333D01*
X171045238Y-70905714D01*
X170950000Y-70810476D01*
X170902380Y-70715238D01*
X167995000Y-72072380D02*
X167995000Y-71072380D01*
X169362380Y-71262857D02*
X168886190Y-71596190D01*
X169362380Y-71834285D02*
X168362380Y-71834285D01*
X168362380Y-71453333D01*
X168410000Y-71358095D01*
X168457619Y-71310476D01*
X168552857Y-71262857D01*
X168695714Y-71262857D01*
X168790952Y-71310476D01*
X168838571Y-71358095D01*
X168886190Y-71453333D01*
X168886190Y-71834285D01*
X167995000Y-71072380D02*
X167995000Y-70167619D01*
X168838571Y-70834285D02*
X168838571Y-70500952D01*
X169362380Y-70358095D02*
X169362380Y-70834285D01*
X168362380Y-70834285D01*
X168362380Y-70358095D01*
X166822380Y-71834285D02*
X165822380Y-71834285D01*
X165822380Y-71596190D01*
X165870000Y-71453333D01*
X165965238Y-71358095D01*
X166060476Y-71310476D01*
X166250952Y-71262857D01*
X166393809Y-71262857D01*
X166584285Y-71310476D01*
X166679523Y-71358095D01*
X166774761Y-71453333D01*
X166822380Y-71596190D01*
X166822380Y-71834285D01*
X166298571Y-70834285D02*
X166298571Y-70500952D01*
X166822380Y-70358095D02*
X166822380Y-70834285D01*
X165822380Y-70834285D01*
X165822380Y-70358095D01*
X164282380Y-71620000D02*
X163282380Y-71620000D01*
X163282380Y-71381904D01*
X163330000Y-71239047D01*
X163425238Y-71143809D01*
X163520476Y-71096190D01*
X163710952Y-71048571D01*
X163853809Y-71048571D01*
X164044285Y-71096190D01*
X164139523Y-71143809D01*
X164234761Y-71239047D01*
X164282380Y-71381904D01*
X164282380Y-71620000D01*
X164282380Y-70620000D02*
X163282380Y-70620000D01*
X169076666Y-108188095D02*
X169076666Y-107711904D01*
X169362380Y-108283333D02*
X168362380Y-107950000D01*
X169362380Y-107616666D01*
X166298571Y-107878571D02*
X166346190Y-107735714D01*
X166393809Y-107688095D01*
X166489047Y-107640476D01*
X166631904Y-107640476D01*
X166727142Y-107688095D01*
X166774761Y-107735714D01*
X166822380Y-107830952D01*
X166822380Y-108211904D01*
X165822380Y-108211904D01*
X165822380Y-107878571D01*
X165870000Y-107783333D01*
X165917619Y-107735714D01*
X166012857Y-107688095D01*
X166108095Y-107688095D01*
X166203333Y-107735714D01*
X166250952Y-107783333D01*
X166298571Y-107878571D01*
X166298571Y-108211904D01*
X163330000Y-107441904D02*
X163282380Y-107537142D01*
X163282380Y-107680000D01*
X163330000Y-107822857D01*
X163425238Y-107918095D01*
X163520476Y-107965714D01*
X163710952Y-108013333D01*
X163853809Y-108013333D01*
X164044285Y-107965714D01*
X164139523Y-107918095D01*
X164234761Y-107822857D01*
X164282380Y-107680000D01*
X164282380Y-107584761D01*
X164234761Y-107441904D01*
X164187142Y-107394285D01*
X163853809Y-107394285D01*
X163853809Y-107584761D01*
X164282380Y-106965714D02*
X163282380Y-106965714D01*
X164282380Y-106394285D01*
X163282380Y-106394285D01*
X164282380Y-105918095D02*
X163282380Y-105918095D01*
X163282380Y-105680000D01*
X163330000Y-105537142D01*
X163425238Y-105441904D01*
X163520476Y-105394285D01*
X163710952Y-105346666D01*
X163853809Y-105346666D01*
X164044285Y-105394285D01*
X164139523Y-105441904D01*
X164234761Y-105537142D01*
X164282380Y-105680000D01*
X164282380Y-105918095D01*
X170902380Y-108013333D02*
X171902380Y-107680000D01*
X170902380Y-107346666D01*
X171807142Y-106441904D02*
X171854761Y-106489523D01*
X171902380Y-106632380D01*
X171902380Y-106727619D01*
X171854761Y-106870476D01*
X171759523Y-106965714D01*
X171664285Y-107013333D01*
X171473809Y-107060952D01*
X171330952Y-107060952D01*
X171140476Y-107013333D01*
X171045238Y-106965714D01*
X170950000Y-106870476D01*
X170902380Y-106727619D01*
X170902380Y-106632380D01*
X170950000Y-106489523D01*
X170997619Y-106441904D01*
X171807142Y-105441904D02*
X171854761Y-105489523D01*
X171902380Y-105632380D01*
X171902380Y-105727619D01*
X171854761Y-105870476D01*
X171759523Y-105965714D01*
X171664285Y-106013333D01*
X171473809Y-106060952D01*
X171330952Y-106060952D01*
X171140476Y-106013333D01*
X171045238Y-105965714D01*
X170950000Y-105870476D01*
X170902380Y-105727619D01*
X170902380Y-105632380D01*
X170950000Y-105489523D01*
X170997619Y-105441904D01*
%TO.C,SW1*%
X170826666Y-50474761D02*
X170969523Y-50522380D01*
X171207619Y-50522380D01*
X171302857Y-50474761D01*
X171350476Y-50427142D01*
X171398095Y-50331904D01*
X171398095Y-50236666D01*
X171350476Y-50141428D01*
X171302857Y-50093809D01*
X171207619Y-50046190D01*
X171017142Y-49998571D01*
X170921904Y-49950952D01*
X170874285Y-49903333D01*
X170826666Y-49808095D01*
X170826666Y-49712857D01*
X170874285Y-49617619D01*
X170921904Y-49570000D01*
X171017142Y-49522380D01*
X171255238Y-49522380D01*
X171398095Y-49570000D01*
X171731428Y-49522380D02*
X171969523Y-50522380D01*
X172160000Y-49808095D01*
X172350476Y-50522380D01*
X172588571Y-49522380D01*
X173493333Y-50522380D02*
X172921904Y-50522380D01*
X173207619Y-50522380D02*
X173207619Y-49522380D01*
X173112380Y-49665238D01*
X173017142Y-49760476D01*
X172921904Y-49808095D01*
%TO.C,U1*%
X161838095Y-57582380D02*
X161838095Y-58391904D01*
X161885714Y-58487142D01*
X161933333Y-58534761D01*
X162028571Y-58582380D01*
X162219047Y-58582380D01*
X162314285Y-58534761D01*
X162361904Y-58487142D01*
X162409523Y-58391904D01*
X162409523Y-57582380D01*
X163409523Y-58582380D02*
X162838095Y-58582380D01*
X163123809Y-58582380D02*
X163123809Y-57582380D01*
X163028571Y-57725238D01*
X162933333Y-57820476D01*
X162838095Y-57868095D01*
%TO.C,J1*%
X167941666Y-125182380D02*
X167941666Y-125896666D01*
X167894047Y-126039523D01*
X167798809Y-126134761D01*
X167655952Y-126182380D01*
X167560714Y-126182380D01*
X168941666Y-126182380D02*
X168370238Y-126182380D01*
X168655952Y-126182380D02*
X168655952Y-125182380D01*
X168560714Y-125325238D01*
X168465476Y-125420476D01*
X168370238Y-125468095D01*
%TD*%
M02*
