%TF.GenerationSoftware,KiCad,Pcbnew,(5.1.10-1-10_14)*%
%TF.CreationDate,2021-11-08T14:23:05+11:00*%
%TF.ProjectId,bkm10iRduino_shield,626b6d31-3069-4526-9475-696e6f5f7368,rev?*%
%TF.SameCoordinates,Original*%
%TF.FileFunction,Legend,Bot*%
%TF.FilePolarity,Positive*%
%FSLAX46Y46*%
G04 Gerber Fmt 4.6, Leading zero omitted, Abs format (unit mm)*
G04 Created by KiCad (PCBNEW (5.1.10-1-10_14)) date 2021-11-08 14:23:05*
%MOMM*%
%LPD*%
G01*
G04 APERTURE LIST*
%ADD10C,0.150000*%
%ADD11C,0.120000*%
G04 APERTURE END LIST*
D10*
X156227976Y-68937142D02*
X156275595Y-68984761D01*
X156418452Y-69032380D01*
X156513690Y-69032380D01*
X156656547Y-68984761D01*
X156751785Y-68889523D01*
X156799404Y-68794285D01*
X156847023Y-68603809D01*
X156847023Y-68460952D01*
X156799404Y-68270476D01*
X156751785Y-68175238D01*
X156656547Y-68080000D01*
X156513690Y-68032380D01*
X156418452Y-68032380D01*
X156275595Y-68080000D01*
X156227976Y-68127619D01*
X155799404Y-69032380D02*
X155799404Y-68032380D01*
X155227976Y-69032380D02*
X155656547Y-68460952D01*
X155227976Y-68032380D02*
X155799404Y-68603809D01*
X156971904Y-63000000D02*
X157067142Y-62952380D01*
X157210000Y-62952380D01*
X157352857Y-63000000D01*
X157448095Y-63095238D01*
X157495714Y-63190476D01*
X157543333Y-63380952D01*
X157543333Y-63523809D01*
X157495714Y-63714285D01*
X157448095Y-63809523D01*
X157352857Y-63904761D01*
X157210000Y-63952380D01*
X157114761Y-63952380D01*
X156971904Y-63904761D01*
X156924285Y-63857142D01*
X156924285Y-63523809D01*
X157114761Y-63523809D01*
X156495714Y-63952380D02*
X156495714Y-62952380D01*
X155924285Y-63952380D01*
X155924285Y-62952380D01*
X155448095Y-63952380D02*
X155448095Y-62952380D01*
X155210000Y-62952380D01*
X155067142Y-63000000D01*
X154971904Y-63095238D01*
X154924285Y-63190476D01*
X154876666Y-63380952D01*
X154876666Y-63523809D01*
X154924285Y-63714285D01*
X154971904Y-63809523D01*
X155067142Y-63904761D01*
X155210000Y-63952380D01*
X155448095Y-63952380D01*
X157543333Y-65492380D02*
X157210000Y-66492380D01*
X156876666Y-65492380D01*
X155971904Y-66397142D02*
X156019523Y-66444761D01*
X156162380Y-66492380D01*
X156257619Y-66492380D01*
X156400476Y-66444761D01*
X156495714Y-66349523D01*
X156543333Y-66254285D01*
X156590952Y-66063809D01*
X156590952Y-65920952D01*
X156543333Y-65730476D01*
X156495714Y-65635238D01*
X156400476Y-65540000D01*
X156257619Y-65492380D01*
X156162380Y-65492380D01*
X156019523Y-65540000D01*
X155971904Y-65587619D01*
X154971904Y-66397142D02*
X155019523Y-66444761D01*
X155162380Y-66492380D01*
X155257619Y-66492380D01*
X155400476Y-66444761D01*
X155495714Y-66349523D01*
X155543333Y-66254285D01*
X155590952Y-66063809D01*
X155590952Y-65920952D01*
X155543333Y-65730476D01*
X155495714Y-65635238D01*
X155400476Y-65540000D01*
X155257619Y-65492380D01*
X155162380Y-65492380D01*
X155019523Y-65540000D01*
X154971904Y-65587619D01*
X157781428Y-71572380D02*
X157781428Y-70572380D01*
X157448095Y-71286666D01*
X157114761Y-70572380D01*
X157114761Y-71572380D01*
X156448095Y-70572380D02*
X156257619Y-70572380D01*
X156162380Y-70620000D01*
X156067142Y-70715238D01*
X156019523Y-70905714D01*
X156019523Y-71239047D01*
X156067142Y-71429523D01*
X156162380Y-71524761D01*
X156257619Y-71572380D01*
X156448095Y-71572380D01*
X156543333Y-71524761D01*
X156638571Y-71429523D01*
X156686190Y-71239047D01*
X156686190Y-70905714D01*
X156638571Y-70715238D01*
X156543333Y-70620000D01*
X156448095Y-70572380D01*
X155638571Y-71524761D02*
X155495714Y-71572380D01*
X155257619Y-71572380D01*
X155162380Y-71524761D01*
X155114761Y-71477142D01*
X155067142Y-71381904D01*
X155067142Y-71286666D01*
X155114761Y-71191428D01*
X155162380Y-71143809D01*
X155257619Y-71096190D01*
X155448095Y-71048571D01*
X155543333Y-71000952D01*
X155590952Y-70953333D01*
X155638571Y-70858095D01*
X155638571Y-70762857D01*
X155590952Y-70667619D01*
X155543333Y-70620000D01*
X155448095Y-70572380D01*
X155210000Y-70572380D01*
X155067142Y-70620000D01*
X154638571Y-71572380D02*
X154638571Y-70572380D01*
X156829047Y-74112380D02*
X157162380Y-73636190D01*
X157400476Y-74112380D02*
X157400476Y-73112380D01*
X157019523Y-73112380D01*
X156924285Y-73160000D01*
X156876666Y-73207619D01*
X156829047Y-73302857D01*
X156829047Y-73445714D01*
X156876666Y-73540952D01*
X156924285Y-73588571D01*
X157019523Y-73636190D01*
X157400476Y-73636190D01*
X156400476Y-73588571D02*
X156067142Y-73588571D01*
X155924285Y-74112380D02*
X156400476Y-74112380D01*
X156400476Y-73112380D01*
X155924285Y-73112380D01*
X155543333Y-74064761D02*
X155400476Y-74112380D01*
X155162380Y-74112380D01*
X155067142Y-74064761D01*
X155019523Y-74017142D01*
X154971904Y-73921904D01*
X154971904Y-73826666D01*
X155019523Y-73731428D01*
X155067142Y-73683809D01*
X155162380Y-73636190D01*
X155352857Y-73588571D01*
X155448095Y-73540952D01*
X155495714Y-73493333D01*
X155543333Y-73398095D01*
X155543333Y-73302857D01*
X155495714Y-73207619D01*
X155448095Y-73160000D01*
X155352857Y-73112380D01*
X155114761Y-73112380D01*
X154971904Y-73160000D01*
X156971904Y-76652380D02*
X156971904Y-75652380D01*
X156733809Y-75652380D01*
X156590952Y-75700000D01*
X156495714Y-75795238D01*
X156448095Y-75890476D01*
X156400476Y-76080952D01*
X156400476Y-76223809D01*
X156448095Y-76414285D01*
X156495714Y-76509523D01*
X156590952Y-76604761D01*
X156733809Y-76652380D01*
X156971904Y-76652380D01*
X155400476Y-76557142D02*
X155448095Y-76604761D01*
X155590952Y-76652380D01*
X155686190Y-76652380D01*
X155829047Y-76604761D01*
X155924285Y-76509523D01*
X155971904Y-76414285D01*
X156019523Y-76223809D01*
X156019523Y-76080952D01*
X155971904Y-75890476D01*
X155924285Y-75795238D01*
X155829047Y-75700000D01*
X155686190Y-75652380D01*
X155590952Y-75652380D01*
X155448095Y-75700000D01*
X155400476Y-75747619D01*
X156376666Y-79097142D02*
X156424285Y-79144761D01*
X156567142Y-79192380D01*
X156662380Y-79192380D01*
X156805238Y-79144761D01*
X156900476Y-79049523D01*
X156948095Y-78954285D01*
X156995714Y-78763809D01*
X156995714Y-78620952D01*
X156948095Y-78430476D01*
X156900476Y-78335238D01*
X156805238Y-78240000D01*
X156662380Y-78192380D01*
X156567142Y-78192380D01*
X156424285Y-78240000D01*
X156376666Y-78287619D01*
X155995714Y-79144761D02*
X155852857Y-79192380D01*
X155614761Y-79192380D01*
X155519523Y-79144761D01*
X155471904Y-79097142D01*
X155424285Y-79001904D01*
X155424285Y-78906666D01*
X155471904Y-78811428D01*
X155519523Y-78763809D01*
X155614761Y-78716190D01*
X155805238Y-78668571D01*
X155900476Y-78620952D01*
X155948095Y-78573333D01*
X155995714Y-78478095D01*
X155995714Y-78382857D01*
X155948095Y-78287619D01*
X155900476Y-78240000D01*
X155805238Y-78192380D01*
X155567142Y-78192380D01*
X155424285Y-78240000D01*
X165266666Y-78962857D02*
X165266666Y-79439047D01*
X165552380Y-78867619D02*
X164552380Y-79200952D01*
X165552380Y-79534285D01*
X165552380Y-79867619D02*
X164885714Y-79867619D01*
X165076190Y-79867619D02*
X164980952Y-79915238D01*
X164933333Y-79962857D01*
X164885714Y-80058095D01*
X164885714Y-80153333D01*
X165552380Y-80915238D02*
X164552380Y-80915238D01*
X165504761Y-80915238D02*
X165552380Y-80820000D01*
X165552380Y-80629523D01*
X165504761Y-80534285D01*
X165457142Y-80486666D01*
X165361904Y-80439047D01*
X165076190Y-80439047D01*
X164980952Y-80486666D01*
X164933333Y-80534285D01*
X164885714Y-80629523D01*
X164885714Y-80820000D01*
X164933333Y-80915238D01*
X164885714Y-81820000D02*
X165552380Y-81820000D01*
X164885714Y-81391428D02*
X165409523Y-81391428D01*
X165504761Y-81439047D01*
X165552380Y-81534285D01*
X165552380Y-81677142D01*
X165504761Y-81772380D01*
X165457142Y-81820000D01*
X165552380Y-82296190D02*
X164885714Y-82296190D01*
X164552380Y-82296190D02*
X164600000Y-82248571D01*
X164647619Y-82296190D01*
X164600000Y-82343809D01*
X164552380Y-82296190D01*
X164647619Y-82296190D01*
X164885714Y-82772380D02*
X165552380Y-82772380D01*
X164980952Y-82772380D02*
X164933333Y-82820000D01*
X164885714Y-82915238D01*
X164885714Y-83058095D01*
X164933333Y-83153333D01*
X165028571Y-83200952D01*
X165552380Y-83200952D01*
X165552380Y-83820000D02*
X165504761Y-83724761D01*
X165457142Y-83677142D01*
X165361904Y-83629523D01*
X165076190Y-83629523D01*
X164980952Y-83677142D01*
X164933333Y-83724761D01*
X164885714Y-83820000D01*
X164885714Y-83962857D01*
X164933333Y-84058095D01*
X164980952Y-84105714D01*
X165076190Y-84153333D01*
X165361904Y-84153333D01*
X165457142Y-84105714D01*
X165504761Y-84058095D01*
X165552380Y-83962857D01*
X165552380Y-83820000D01*
X165552380Y-85343809D02*
X164552380Y-85343809D01*
X165552380Y-85915238D01*
X164552380Y-85915238D01*
X165552380Y-86820000D02*
X165028571Y-86820000D01*
X164933333Y-86772380D01*
X164885714Y-86677142D01*
X164885714Y-86486666D01*
X164933333Y-86391428D01*
X165504761Y-86820000D02*
X165552380Y-86724761D01*
X165552380Y-86486666D01*
X165504761Y-86391428D01*
X165409523Y-86343809D01*
X165314285Y-86343809D01*
X165219047Y-86391428D01*
X165171428Y-86486666D01*
X165171428Y-86724761D01*
X165123809Y-86820000D01*
X164885714Y-87296190D02*
X165552380Y-87296190D01*
X164980952Y-87296190D02*
X164933333Y-87343809D01*
X164885714Y-87439047D01*
X164885714Y-87581904D01*
X164933333Y-87677142D01*
X165028571Y-87724761D01*
X165552380Y-87724761D01*
X165552380Y-88343809D02*
X165504761Y-88248571D01*
X165457142Y-88200952D01*
X165361904Y-88153333D01*
X165076190Y-88153333D01*
X164980952Y-88200952D01*
X164933333Y-88248571D01*
X164885714Y-88343809D01*
X164885714Y-88486666D01*
X164933333Y-88581904D01*
X164980952Y-88629523D01*
X165076190Y-88677142D01*
X165361904Y-88677142D01*
X165457142Y-88629523D01*
X165504761Y-88581904D01*
X165552380Y-88486666D01*
X165552380Y-88343809D01*
D11*
%TO.C,A1*%
X161290000Y-102870000D02*
X161290000Y-105410000D01*
X161290000Y-105410000D02*
X158620000Y-105410000D01*
X158620000Y-102870000D02*
X158620000Y-64640000D01*
X158620000Y-110490000D02*
X158620000Y-105410000D01*
X173990000Y-105410000D02*
X176660000Y-105410000D01*
X173990000Y-105410000D02*
X173990000Y-67310000D01*
X173990000Y-67310000D02*
X176660000Y-67310000D01*
X161290000Y-102870000D02*
X158620000Y-102870000D01*
X161290000Y-102870000D02*
X161290000Y-67310000D01*
X161290000Y-67310000D02*
X158620000Y-67310000D01*
X158620000Y-64640000D02*
X176660000Y-64640000D01*
X176660000Y-64640000D02*
X176660000Y-110490000D01*
X176660000Y-110490000D02*
X158620000Y-110490000D01*
%TD*%
M02*
