%TF.GenerationSoftware,KiCad,Pcbnew,(5.1.10)-1*%
%TF.CreationDate,2021-12-02T15:39:48+11:00*%
%TF.ProjectId,bkm10iRduino_shield,626b6d31-3069-4526-9475-696e6f5f7368,rev?*%
%TF.SameCoordinates,Original*%
%TF.FileFunction,Legend,Top*%
%TF.FilePolarity,Positive*%
%FSLAX46Y46*%
G04 Gerber Fmt 4.6, Leading zero omitted, Abs format (unit mm)*
G04 Created by KiCad (PCBNEW (5.1.10)-1) date 2021-12-02 15:39:48*
%MOMM*%
%LPD*%
G01*
G04 APERTURE LIST*
%ADD10C,0.150000*%
%ADD11C,0.120000*%
G04 APERTURE END LIST*
D10*
X157799404Y-83097619D02*
X157466071Y-82097619D01*
X157132738Y-83097619D01*
X156227976Y-82192857D02*
X156275595Y-82145238D01*
X156418452Y-82097619D01*
X156513690Y-82097619D01*
X156656547Y-82145238D01*
X156751785Y-82240476D01*
X156799404Y-82335714D01*
X156847023Y-82526190D01*
X156847023Y-82669047D01*
X156799404Y-82859523D01*
X156751785Y-82954761D01*
X156656547Y-83050000D01*
X156513690Y-83097619D01*
X156418452Y-83097619D01*
X156275595Y-83050000D01*
X156227976Y-83002380D01*
X155227976Y-82192857D02*
X155275595Y-82145238D01*
X155418452Y-82097619D01*
X155513690Y-82097619D01*
X155656547Y-82145238D01*
X155751785Y-82240476D01*
X155799404Y-82335714D01*
X155847023Y-82526190D01*
X155847023Y-82669047D01*
X155799404Y-82859523D01*
X155751785Y-82954761D01*
X155656547Y-83050000D01*
X155513690Y-83097619D01*
X155418452Y-83097619D01*
X155275595Y-83050000D01*
X155227976Y-83002380D01*
X156227976Y-79652857D02*
X156275595Y-79605238D01*
X156418452Y-79557619D01*
X156513690Y-79557619D01*
X156656547Y-79605238D01*
X156751785Y-79700476D01*
X156799404Y-79795714D01*
X156847023Y-79986190D01*
X156847023Y-80129047D01*
X156799404Y-80319523D01*
X156751785Y-80414761D01*
X156656547Y-80510000D01*
X156513690Y-80557619D01*
X156418452Y-80557619D01*
X156275595Y-80510000D01*
X156227976Y-80462380D01*
X155799404Y-79557619D02*
X155799404Y-80557619D01*
X155227976Y-79557619D02*
X155656547Y-80129047D01*
X155227976Y-80557619D02*
X155799404Y-79986190D01*
X157323214Y-85590000D02*
X157418452Y-85637619D01*
X157561309Y-85637619D01*
X157704166Y-85590000D01*
X157799404Y-85494761D01*
X157847023Y-85399523D01*
X157894642Y-85209047D01*
X157894642Y-85066190D01*
X157847023Y-84875714D01*
X157799404Y-84780476D01*
X157704166Y-84685238D01*
X157561309Y-84637619D01*
X157466071Y-84637619D01*
X157323214Y-84685238D01*
X157275595Y-84732857D01*
X157275595Y-85066190D01*
X157466071Y-85066190D01*
X156847023Y-84637619D02*
X156847023Y-85637619D01*
X156275595Y-84637619D01*
X156275595Y-85637619D01*
X155799404Y-84637619D02*
X155799404Y-85637619D01*
X155561309Y-85637619D01*
X155418452Y-85590000D01*
X155323214Y-85494761D01*
X155275595Y-85399523D01*
X155227976Y-85209047D01*
X155227976Y-85066190D01*
X155275595Y-84875714D01*
X155323214Y-84780476D01*
X155418452Y-84685238D01*
X155561309Y-84637619D01*
X155799404Y-84637619D01*
X158418452Y-77017619D02*
X158418452Y-78017619D01*
X158085119Y-77303333D01*
X157751785Y-78017619D01*
X157751785Y-77017619D01*
X157085119Y-78017619D02*
X156894642Y-78017619D01*
X156799404Y-77970000D01*
X156704166Y-77874761D01*
X156656547Y-77684285D01*
X156656547Y-77350952D01*
X156704166Y-77160476D01*
X156799404Y-77065238D01*
X156894642Y-77017619D01*
X157085119Y-77017619D01*
X157180357Y-77065238D01*
X157275595Y-77160476D01*
X157323214Y-77350952D01*
X157323214Y-77684285D01*
X157275595Y-77874761D01*
X157180357Y-77970000D01*
X157085119Y-78017619D01*
X156275595Y-77065238D02*
X156132738Y-77017619D01*
X155894642Y-77017619D01*
X155799404Y-77065238D01*
X155751785Y-77112857D01*
X155704166Y-77208095D01*
X155704166Y-77303333D01*
X155751785Y-77398571D01*
X155799404Y-77446190D01*
X155894642Y-77493809D01*
X156085119Y-77541428D01*
X156180357Y-77589047D01*
X156227976Y-77636666D01*
X156275595Y-77731904D01*
X156275595Y-77827142D01*
X156227976Y-77922380D01*
X156180357Y-77970000D01*
X156085119Y-78017619D01*
X155847023Y-78017619D01*
X155704166Y-77970000D01*
X155275595Y-77017619D02*
X155275595Y-78017619D01*
X157085119Y-74477619D02*
X157418452Y-74953809D01*
X157656547Y-74477619D02*
X157656547Y-75477619D01*
X157275595Y-75477619D01*
X157180357Y-75430000D01*
X157132738Y-75382380D01*
X157085119Y-75287142D01*
X157085119Y-75144285D01*
X157132738Y-75049047D01*
X157180357Y-75001428D01*
X157275595Y-74953809D01*
X157656547Y-74953809D01*
X156656547Y-75001428D02*
X156323214Y-75001428D01*
X156180357Y-74477619D02*
X156656547Y-74477619D01*
X156656547Y-75477619D01*
X156180357Y-75477619D01*
X155799404Y-74525238D02*
X155656547Y-74477619D01*
X155418452Y-74477619D01*
X155323214Y-74525238D01*
X155275595Y-74572857D01*
X155227976Y-74668095D01*
X155227976Y-74763333D01*
X155275595Y-74858571D01*
X155323214Y-74906190D01*
X155418452Y-74953809D01*
X155608928Y-75001428D01*
X155704166Y-75049047D01*
X155751785Y-75096666D01*
X155799404Y-75191904D01*
X155799404Y-75287142D01*
X155751785Y-75382380D01*
X155704166Y-75430000D01*
X155608928Y-75477619D01*
X155370833Y-75477619D01*
X155227976Y-75430000D01*
X156799404Y-71937619D02*
X156799404Y-72937619D01*
X156561309Y-72937619D01*
X156418452Y-72890000D01*
X156323214Y-72794761D01*
X156275595Y-72699523D01*
X156227976Y-72509047D01*
X156227976Y-72366190D01*
X156275595Y-72175714D01*
X156323214Y-72080476D01*
X156418452Y-71985238D01*
X156561309Y-71937619D01*
X156799404Y-71937619D01*
X155227976Y-72032857D02*
X155275595Y-71985238D01*
X155418452Y-71937619D01*
X155513690Y-71937619D01*
X155656547Y-71985238D01*
X155751785Y-72080476D01*
X155799404Y-72175714D01*
X155847023Y-72366190D01*
X155847023Y-72509047D01*
X155799404Y-72699523D01*
X155751785Y-72794761D01*
X155656547Y-72890000D01*
X155513690Y-72937619D01*
X155418452Y-72937619D01*
X155275595Y-72890000D01*
X155227976Y-72842380D01*
X156180357Y-69492857D02*
X156227976Y-69445238D01*
X156370833Y-69397619D01*
X156466071Y-69397619D01*
X156608928Y-69445238D01*
X156704166Y-69540476D01*
X156751785Y-69635714D01*
X156799404Y-69826190D01*
X156799404Y-69969047D01*
X156751785Y-70159523D01*
X156704166Y-70254761D01*
X156608928Y-70350000D01*
X156466071Y-70397619D01*
X156370833Y-70397619D01*
X156227976Y-70350000D01*
X156180357Y-70302380D01*
X155799404Y-69445238D02*
X155656547Y-69397619D01*
X155418452Y-69397619D01*
X155323214Y-69445238D01*
X155275595Y-69492857D01*
X155227976Y-69588095D01*
X155227976Y-69683333D01*
X155275595Y-69778571D01*
X155323214Y-69826190D01*
X155418452Y-69873809D01*
X155608928Y-69921428D01*
X155704166Y-69969047D01*
X155751785Y-70016666D01*
X155799404Y-70111904D01*
X155799404Y-70207142D01*
X155751785Y-70302380D01*
X155704166Y-70350000D01*
X155608928Y-70397619D01*
X155370833Y-70397619D01*
X155227976Y-70350000D01*
X179443571Y-90859523D02*
X179491190Y-90716666D01*
X179538809Y-90669047D01*
X179634047Y-90621428D01*
X179776904Y-90621428D01*
X179872142Y-90669047D01*
X179919761Y-90716666D01*
X179967380Y-90811904D01*
X179967380Y-91192857D01*
X178967380Y-91192857D01*
X178967380Y-90859523D01*
X179015000Y-90764285D01*
X179062619Y-90716666D01*
X179157857Y-90669047D01*
X179253095Y-90669047D01*
X179348333Y-90716666D01*
X179395952Y-90764285D01*
X179443571Y-90859523D01*
X179443571Y-91192857D01*
X179967380Y-90192857D02*
X178967380Y-90192857D01*
X179967380Y-89621428D02*
X179395952Y-90050000D01*
X178967380Y-89621428D02*
X179538809Y-90192857D01*
X179967380Y-89192857D02*
X178967380Y-89192857D01*
X179681666Y-88859523D01*
X178967380Y-88526190D01*
X179967380Y-88526190D01*
X179586428Y-88050000D02*
X179586428Y-87288095D01*
X179967380Y-86288095D02*
X179967380Y-86859523D01*
X179967380Y-86573809D02*
X178967380Y-86573809D01*
X179110238Y-86669047D01*
X179205476Y-86764285D01*
X179253095Y-86859523D01*
X178967380Y-85669047D02*
X178967380Y-85573809D01*
X179015000Y-85478571D01*
X179062619Y-85430952D01*
X179157857Y-85383333D01*
X179348333Y-85335714D01*
X179586428Y-85335714D01*
X179776904Y-85383333D01*
X179872142Y-85430952D01*
X179919761Y-85478571D01*
X179967380Y-85573809D01*
X179967380Y-85669047D01*
X179919761Y-85764285D01*
X179872142Y-85811904D01*
X179776904Y-85859523D01*
X179586428Y-85907142D01*
X179348333Y-85907142D01*
X179157857Y-85859523D01*
X179062619Y-85811904D01*
X179015000Y-85764285D01*
X178967380Y-85669047D01*
X179967380Y-84907142D02*
X179300714Y-84907142D01*
X178967380Y-84907142D02*
X179015000Y-84954761D01*
X179062619Y-84907142D01*
X179015000Y-84859523D01*
X178967380Y-84907142D01*
X179062619Y-84907142D01*
X179967380Y-83859523D02*
X179491190Y-84192857D01*
X179967380Y-84430952D02*
X178967380Y-84430952D01*
X178967380Y-84050000D01*
X179015000Y-83954761D01*
X179062619Y-83907142D01*
X179157857Y-83859523D01*
X179300714Y-83859523D01*
X179395952Y-83907142D01*
X179443571Y-83954761D01*
X179491190Y-84050000D01*
X179491190Y-84430952D01*
X179967380Y-83002380D02*
X178967380Y-83002380D01*
X179919761Y-83002380D02*
X179967380Y-83097619D01*
X179967380Y-83288095D01*
X179919761Y-83383333D01*
X179872142Y-83430952D01*
X179776904Y-83478571D01*
X179491190Y-83478571D01*
X179395952Y-83430952D01*
X179348333Y-83383333D01*
X179300714Y-83288095D01*
X179300714Y-83097619D01*
X179348333Y-83002380D01*
X179300714Y-82097619D02*
X179967380Y-82097619D01*
X179300714Y-82526190D02*
X179824523Y-82526190D01*
X179919761Y-82478571D01*
X179967380Y-82383333D01*
X179967380Y-82240476D01*
X179919761Y-82145238D01*
X179872142Y-82097619D01*
X179967380Y-81621428D02*
X179300714Y-81621428D01*
X178967380Y-81621428D02*
X179015000Y-81669047D01*
X179062619Y-81621428D01*
X179015000Y-81573809D01*
X178967380Y-81621428D01*
X179062619Y-81621428D01*
X179300714Y-81145238D02*
X179967380Y-81145238D01*
X179395952Y-81145238D02*
X179348333Y-81097619D01*
X179300714Y-81002380D01*
X179300714Y-80859523D01*
X179348333Y-80764285D01*
X179443571Y-80716666D01*
X179967380Y-80716666D01*
X179967380Y-80097619D02*
X179919761Y-80192857D01*
X179872142Y-80240476D01*
X179776904Y-80288095D01*
X179491190Y-80288095D01*
X179395952Y-80240476D01*
X179348333Y-80192857D01*
X179300714Y-80097619D01*
X179300714Y-79954761D01*
X179348333Y-79859523D01*
X179395952Y-79811904D01*
X179491190Y-79764285D01*
X179776904Y-79764285D01*
X179872142Y-79811904D01*
X179919761Y-79859523D01*
X179967380Y-79954761D01*
X179967380Y-80097619D01*
X180348333Y-78288095D02*
X180300714Y-78335714D01*
X180157857Y-78430952D01*
X180062619Y-78478571D01*
X179919761Y-78526190D01*
X179681666Y-78573809D01*
X179491190Y-78573809D01*
X179253095Y-78526190D01*
X179110238Y-78478571D01*
X179015000Y-78430952D01*
X178872142Y-78335714D01*
X178824523Y-78288095D01*
X179062619Y-77954761D02*
X179015000Y-77907142D01*
X178967380Y-77811904D01*
X178967380Y-77573809D01*
X179015000Y-77478571D01*
X179062619Y-77430952D01*
X179157857Y-77383333D01*
X179253095Y-77383333D01*
X179395952Y-77430952D01*
X179967380Y-78002380D01*
X179967380Y-77383333D01*
X178967380Y-76764285D02*
X178967380Y-76669047D01*
X179015000Y-76573809D01*
X179062619Y-76526190D01*
X179157857Y-76478571D01*
X179348333Y-76430952D01*
X179586428Y-76430952D01*
X179776904Y-76478571D01*
X179872142Y-76526190D01*
X179919761Y-76573809D01*
X179967380Y-76669047D01*
X179967380Y-76764285D01*
X179919761Y-76859523D01*
X179872142Y-76907142D01*
X179776904Y-76954761D01*
X179586428Y-77002380D01*
X179348333Y-77002380D01*
X179157857Y-76954761D01*
X179062619Y-76907142D01*
X179015000Y-76859523D01*
X178967380Y-76764285D01*
X179062619Y-76050000D02*
X179015000Y-76002380D01*
X178967380Y-75907142D01*
X178967380Y-75669047D01*
X179015000Y-75573809D01*
X179062619Y-75526190D01*
X179157857Y-75478571D01*
X179253095Y-75478571D01*
X179395952Y-75526190D01*
X179967380Y-76097619D01*
X179967380Y-75478571D01*
X179967380Y-74526190D02*
X179967380Y-75097619D01*
X179967380Y-74811904D02*
X178967380Y-74811904D01*
X179110238Y-74907142D01*
X179205476Y-75002380D01*
X179253095Y-75097619D01*
X180348333Y-74192857D02*
X180300714Y-74145238D01*
X180157857Y-74050000D01*
X180062619Y-74002380D01*
X179919761Y-73954761D01*
X179681666Y-73907142D01*
X179491190Y-73907142D01*
X179253095Y-73954761D01*
X179110238Y-74002380D01*
X179015000Y-74050000D01*
X178872142Y-74145238D01*
X178824523Y-74192857D01*
X181617380Y-90883333D02*
X181093571Y-90883333D01*
X180998333Y-90930952D01*
X180950714Y-91026190D01*
X180950714Y-91216666D01*
X180998333Y-91311904D01*
X181569761Y-90883333D02*
X181617380Y-90978571D01*
X181617380Y-91216666D01*
X181569761Y-91311904D01*
X181474523Y-91359523D01*
X181379285Y-91359523D01*
X181284047Y-91311904D01*
X181236428Y-91216666D01*
X181236428Y-90978571D01*
X181188809Y-90883333D01*
X181617380Y-89978571D02*
X181093571Y-89978571D01*
X180998333Y-90026190D01*
X180950714Y-90121428D01*
X180950714Y-90311904D01*
X180998333Y-90407142D01*
X181569761Y-89978571D02*
X181617380Y-90073809D01*
X181617380Y-90311904D01*
X181569761Y-90407142D01*
X181474523Y-90454761D01*
X181379285Y-90454761D01*
X181284047Y-90407142D01*
X181236428Y-90311904D01*
X181236428Y-90073809D01*
X181188809Y-89978571D01*
X181617380Y-89502380D02*
X180950714Y-89502380D01*
X181141190Y-89502380D02*
X181045952Y-89454761D01*
X180998333Y-89407142D01*
X180950714Y-89311904D01*
X180950714Y-89216666D01*
X181617380Y-88740476D02*
X181569761Y-88835714D01*
X181522142Y-88883333D01*
X181426904Y-88930952D01*
X181141190Y-88930952D01*
X181045952Y-88883333D01*
X180998333Y-88835714D01*
X180950714Y-88740476D01*
X180950714Y-88597619D01*
X180998333Y-88502380D01*
X181045952Y-88454761D01*
X181141190Y-88407142D01*
X181426904Y-88407142D01*
X181522142Y-88454761D01*
X181569761Y-88502380D01*
X181617380Y-88597619D01*
X181617380Y-88740476D01*
X180950714Y-87978571D02*
X181617380Y-87978571D01*
X181045952Y-87978571D02*
X180998333Y-87930952D01*
X180950714Y-87835714D01*
X180950714Y-87692857D01*
X180998333Y-87597619D01*
X181093571Y-87550000D01*
X181617380Y-87550000D01*
X181141190Y-86454761D02*
X181093571Y-86502380D01*
X181045952Y-86597619D01*
X181045952Y-86692857D01*
X181093571Y-86788095D01*
X181141190Y-86835714D01*
X181236428Y-86883333D01*
X181331666Y-86883333D01*
X181426904Y-86835714D01*
X181474523Y-86788095D01*
X181522142Y-86692857D01*
X181522142Y-86597619D01*
X181474523Y-86502380D01*
X181426904Y-86454761D01*
X181045952Y-86454761D02*
X181426904Y-86454761D01*
X181474523Y-86407142D01*
X181474523Y-86359523D01*
X181426904Y-86264285D01*
X181331666Y-86216666D01*
X181093571Y-86216666D01*
X180950714Y-86311904D01*
X180855476Y-86454761D01*
X180807857Y-86645238D01*
X180855476Y-86835714D01*
X180950714Y-86978571D01*
X181093571Y-87073809D01*
X181284047Y-87121428D01*
X181474523Y-87073809D01*
X181617380Y-86978571D01*
X181712619Y-86835714D01*
X181760238Y-86645238D01*
X181712619Y-86454761D01*
X181617380Y-86311904D01*
X181617380Y-85788095D02*
X180617380Y-85788095D01*
X180998333Y-85788095D02*
X180950714Y-85692857D01*
X180950714Y-85502380D01*
X180998333Y-85407142D01*
X181045952Y-85359523D01*
X181141190Y-85311904D01*
X181426904Y-85311904D01*
X181522142Y-85359523D01*
X181569761Y-85407142D01*
X181617380Y-85502380D01*
X181617380Y-85692857D01*
X181569761Y-85788095D01*
X181617380Y-84740476D02*
X181569761Y-84835714D01*
X181522142Y-84883333D01*
X181426904Y-84930952D01*
X181141190Y-84930952D01*
X181045952Y-84883333D01*
X180998333Y-84835714D01*
X180950714Y-84740476D01*
X180950714Y-84597619D01*
X180998333Y-84502380D01*
X181045952Y-84454761D01*
X181141190Y-84407142D01*
X181426904Y-84407142D01*
X181522142Y-84454761D01*
X181569761Y-84502380D01*
X181617380Y-84597619D01*
X181617380Y-84740476D01*
X180950714Y-83978571D02*
X181617380Y-83978571D01*
X181045952Y-83978571D02*
X180998333Y-83930952D01*
X180950714Y-83835714D01*
X180950714Y-83692857D01*
X180998333Y-83597619D01*
X181093571Y-83550000D01*
X181617380Y-83550000D01*
X181617380Y-83073809D02*
X180617380Y-83073809D01*
X181617380Y-82645238D02*
X181093571Y-82645238D01*
X180998333Y-82692857D01*
X180950714Y-82788095D01*
X180950714Y-82930952D01*
X180998333Y-83026190D01*
X181045952Y-83073809D01*
X181617380Y-81740476D02*
X181093571Y-81740476D01*
X180998333Y-81788095D01*
X180950714Y-81883333D01*
X180950714Y-82073809D01*
X180998333Y-82169047D01*
X181569761Y-81740476D02*
X181617380Y-81835714D01*
X181617380Y-82073809D01*
X181569761Y-82169047D01*
X181474523Y-82216666D01*
X181379285Y-82216666D01*
X181284047Y-82169047D01*
X181236428Y-82073809D01*
X181236428Y-81835714D01*
X181188809Y-81740476D01*
X181617380Y-81264285D02*
X180950714Y-81264285D01*
X181045952Y-81264285D02*
X180998333Y-81216666D01*
X180950714Y-81121428D01*
X180950714Y-80978571D01*
X180998333Y-80883333D01*
X181093571Y-80835714D01*
X181617380Y-80835714D01*
X181093571Y-80835714D02*
X180998333Y-80788095D01*
X180950714Y-80692857D01*
X180950714Y-80550000D01*
X180998333Y-80454761D01*
X181093571Y-80407142D01*
X181617380Y-80407142D01*
X181522142Y-79930952D02*
X181569761Y-79883333D01*
X181617380Y-79930952D01*
X181569761Y-79978571D01*
X181522142Y-79930952D01*
X181617380Y-79930952D01*
X181569761Y-79026190D02*
X181617380Y-79121428D01*
X181617380Y-79311904D01*
X181569761Y-79407142D01*
X181522142Y-79454761D01*
X181426904Y-79502380D01*
X181141190Y-79502380D01*
X181045952Y-79454761D01*
X180998333Y-79407142D01*
X180950714Y-79311904D01*
X180950714Y-79121428D01*
X180998333Y-79026190D01*
X181617380Y-78454761D02*
X181569761Y-78550000D01*
X181522142Y-78597619D01*
X181426904Y-78645238D01*
X181141190Y-78645238D01*
X181045952Y-78597619D01*
X180998333Y-78550000D01*
X180950714Y-78454761D01*
X180950714Y-78311904D01*
X180998333Y-78216666D01*
X181045952Y-78169047D01*
X181141190Y-78121428D01*
X181426904Y-78121428D01*
X181522142Y-78169047D01*
X181569761Y-78216666D01*
X181617380Y-78311904D01*
X181617380Y-78454761D01*
X181617380Y-77692857D02*
X180950714Y-77692857D01*
X181045952Y-77692857D02*
X180998333Y-77645238D01*
X180950714Y-77550000D01*
X180950714Y-77407142D01*
X180998333Y-77311904D01*
X181093571Y-77264285D01*
X181617380Y-77264285D01*
X181093571Y-77264285D02*
X180998333Y-77216666D01*
X180950714Y-77121428D01*
X180950714Y-76978571D01*
X180998333Y-76883333D01*
X181093571Y-76835714D01*
X181617380Y-76835714D01*
X181522142Y-76359523D02*
X181569761Y-76311904D01*
X181617380Y-76359523D01*
X181569761Y-76407142D01*
X181522142Y-76359523D01*
X181617380Y-76359523D01*
X181617380Y-75454761D02*
X181093571Y-75454761D01*
X180998333Y-75502380D01*
X180950714Y-75597619D01*
X180950714Y-75788095D01*
X180998333Y-75883333D01*
X181569761Y-75454761D02*
X181617380Y-75550000D01*
X181617380Y-75788095D01*
X181569761Y-75883333D01*
X181474523Y-75930952D01*
X181379285Y-75930952D01*
X181284047Y-75883333D01*
X181236428Y-75788095D01*
X181236428Y-75550000D01*
X181188809Y-75454761D01*
X180950714Y-74550000D02*
X181617380Y-74550000D01*
X180950714Y-74978571D02*
X181474523Y-74978571D01*
X181569761Y-74930952D01*
X181617380Y-74835714D01*
X181617380Y-74692857D01*
X181569761Y-74597619D01*
X181522142Y-74550000D01*
D11*
%TO.C,C4*%
X169270000Y-87261248D02*
X169270000Y-88683752D01*
X171090000Y-87261248D02*
X171090000Y-88683752D01*
%TO.C,C3*%
X160096252Y-58145000D02*
X158673748Y-58145000D01*
X160096252Y-59965000D02*
X158673748Y-59965000D01*
%TO.C,C2*%
X176170000Y-109296252D02*
X176170000Y-107873748D01*
X174350000Y-109296252D02*
X174350000Y-107873748D01*
%TO.C,C1*%
X154381252Y-96795000D02*
X152958748Y-96795000D01*
X154381252Y-94975000D02*
X152958748Y-94975000D01*
%TO.C,U2*%
X167640000Y-92085000D02*
X164190000Y-92085000D01*
X167640000Y-92085000D02*
X169590000Y-92085000D01*
X167640000Y-100955000D02*
X165690000Y-100955000D01*
X167640000Y-100955000D02*
X169590000Y-100955000D01*
%TO.C,R1*%
X165460000Y-105502064D02*
X165460000Y-104047936D01*
X167280000Y-105502064D02*
X167280000Y-104047936D01*
%TO.C,D5*%
X152340000Y-92770000D02*
X155000000Y-92770000D01*
X152340000Y-77470000D02*
X152340000Y-92770000D01*
X155000000Y-77470000D02*
X155000000Y-92770000D01*
X152340000Y-77470000D02*
X155000000Y-77470000D01*
X152340000Y-76200000D02*
X152340000Y-74870000D01*
X152340000Y-74870000D02*
X153670000Y-74870000D01*
%TO.C,SW1*%
X169760000Y-53070000D02*
X169760000Y-57570000D01*
X173760000Y-51820000D02*
X172260000Y-51820000D01*
X176260000Y-57570000D02*
X176260000Y-53070000D01*
X172260000Y-58820000D02*
X173760000Y-58820000D01*
%TO.C,U1*%
X165060000Y-53580000D02*
X165280000Y-53580000D01*
X159480000Y-57240000D02*
X162560000Y-57240000D01*
X159400000Y-53580000D02*
X159860000Y-53580000D01*
X159400000Y-53580000D02*
X159400000Y-54780000D01*
X165060000Y-53580000D02*
G75*
G03*
X159860000Y-53580000I-2600000J-1100000D01*
G01*
%TO.C,C4*%
D10*
X172387142Y-88139166D02*
X172434761Y-88186785D01*
X172482380Y-88329642D01*
X172482380Y-88424880D01*
X172434761Y-88567738D01*
X172339523Y-88662976D01*
X172244285Y-88710595D01*
X172053809Y-88758214D01*
X171910952Y-88758214D01*
X171720476Y-88710595D01*
X171625238Y-88662976D01*
X171530000Y-88567738D01*
X171482380Y-88424880D01*
X171482380Y-88329642D01*
X171530000Y-88186785D01*
X171577619Y-88139166D01*
X171815714Y-87282023D02*
X172482380Y-87282023D01*
X171434761Y-87520119D02*
X172149047Y-87758214D01*
X172149047Y-87139166D01*
%TO.C,C3*%
X159218333Y-61262142D02*
X159170714Y-61309761D01*
X159027857Y-61357380D01*
X158932619Y-61357380D01*
X158789761Y-61309761D01*
X158694523Y-61214523D01*
X158646904Y-61119285D01*
X158599285Y-60928809D01*
X158599285Y-60785952D01*
X158646904Y-60595476D01*
X158694523Y-60500238D01*
X158789761Y-60405000D01*
X158932619Y-60357380D01*
X159027857Y-60357380D01*
X159170714Y-60405000D01*
X159218333Y-60452619D01*
X159551666Y-60357380D02*
X160170714Y-60357380D01*
X159837380Y-60738333D01*
X159980238Y-60738333D01*
X160075476Y-60785952D01*
X160123095Y-60833571D01*
X160170714Y-60928809D01*
X160170714Y-61166904D01*
X160123095Y-61262142D01*
X160075476Y-61309761D01*
X159980238Y-61357380D01*
X159694523Y-61357380D01*
X159599285Y-61309761D01*
X159551666Y-61262142D01*
%TO.C,C2*%
X173767142Y-108751666D02*
X173814761Y-108799285D01*
X173862380Y-108942142D01*
X173862380Y-109037380D01*
X173814761Y-109180238D01*
X173719523Y-109275476D01*
X173624285Y-109323095D01*
X173433809Y-109370714D01*
X173290952Y-109370714D01*
X173100476Y-109323095D01*
X173005238Y-109275476D01*
X172910000Y-109180238D01*
X172862380Y-109037380D01*
X172862380Y-108942142D01*
X172910000Y-108799285D01*
X172957619Y-108751666D01*
X172957619Y-108370714D02*
X172910000Y-108323095D01*
X172862380Y-108227857D01*
X172862380Y-107989761D01*
X172910000Y-107894523D01*
X172957619Y-107846904D01*
X173052857Y-107799285D01*
X173148095Y-107799285D01*
X173290952Y-107846904D01*
X173862380Y-108418333D01*
X173862380Y-107799285D01*
%TO.C,C1*%
X153503333Y-98092142D02*
X153455714Y-98139761D01*
X153312857Y-98187380D01*
X153217619Y-98187380D01*
X153074761Y-98139761D01*
X152979523Y-98044523D01*
X152931904Y-97949285D01*
X152884285Y-97758809D01*
X152884285Y-97615952D01*
X152931904Y-97425476D01*
X152979523Y-97330238D01*
X153074761Y-97235000D01*
X153217619Y-97187380D01*
X153312857Y-97187380D01*
X153455714Y-97235000D01*
X153503333Y-97282619D01*
X154455714Y-98187380D02*
X153884285Y-98187380D01*
X154170000Y-98187380D02*
X154170000Y-97187380D01*
X154074761Y-97330238D01*
X153979523Y-97425476D01*
X153884285Y-97473095D01*
%TO.C,H2*%
X179578095Y-49592380D02*
X179578095Y-48592380D01*
X179578095Y-49068571D02*
X180149523Y-49068571D01*
X180149523Y-49592380D02*
X180149523Y-48592380D01*
X180578095Y-48687619D02*
X180625714Y-48640000D01*
X180720952Y-48592380D01*
X180959047Y-48592380D01*
X181054285Y-48640000D01*
X181101904Y-48687619D01*
X181149523Y-48782857D01*
X181149523Y-48878095D01*
X181101904Y-49020952D01*
X180530476Y-49592380D01*
X181149523Y-49592380D01*
%TO.C,H1*%
X152908095Y-49592380D02*
X152908095Y-48592380D01*
X152908095Y-49068571D02*
X153479523Y-49068571D01*
X153479523Y-49592380D02*
X153479523Y-48592380D01*
X154479523Y-49592380D02*
X153908095Y-49592380D01*
X154193809Y-49592380D02*
X154193809Y-48592380D01*
X154098571Y-48735238D01*
X154003333Y-48830476D01*
X153908095Y-48878095D01*
%TO.C,U2*%
X166878095Y-90692380D02*
X166878095Y-91501904D01*
X166925714Y-91597142D01*
X166973333Y-91644761D01*
X167068571Y-91692380D01*
X167259047Y-91692380D01*
X167354285Y-91644761D01*
X167401904Y-91597142D01*
X167449523Y-91501904D01*
X167449523Y-90692380D01*
X167878095Y-90787619D02*
X167925714Y-90740000D01*
X168020952Y-90692380D01*
X168259047Y-90692380D01*
X168354285Y-90740000D01*
X168401904Y-90787619D01*
X168449523Y-90882857D01*
X168449523Y-90978095D01*
X168401904Y-91120952D01*
X167830476Y-91692380D01*
X168449523Y-91692380D01*
%TO.C,R1*%
X164383333Y-105227380D02*
X164050000Y-104751190D01*
X163811904Y-105227380D02*
X163811904Y-104227380D01*
X164192857Y-104227380D01*
X164288095Y-104275000D01*
X164335714Y-104322619D01*
X164383333Y-104417857D01*
X164383333Y-104560714D01*
X164335714Y-104655952D01*
X164288095Y-104703571D01*
X164192857Y-104751190D01*
X163811904Y-104751190D01*
X165335714Y-105227380D02*
X164764285Y-105227380D01*
X165050000Y-105227380D02*
X165050000Y-104227380D01*
X164954761Y-104370238D01*
X164859523Y-104465476D01*
X164764285Y-104513095D01*
%TO.C,D5*%
X152931904Y-74322380D02*
X152931904Y-73322380D01*
X153170000Y-73322380D01*
X153312857Y-73370000D01*
X153408095Y-73465238D01*
X153455714Y-73560476D01*
X153503333Y-73750952D01*
X153503333Y-73893809D01*
X153455714Y-74084285D01*
X153408095Y-74179523D01*
X153312857Y-74274761D01*
X153170000Y-74322380D01*
X152931904Y-74322380D01*
X154408095Y-73322380D02*
X153931904Y-73322380D01*
X153884285Y-73798571D01*
X153931904Y-73750952D01*
X154027142Y-73703333D01*
X154265238Y-73703333D01*
X154360476Y-73750952D01*
X154408095Y-73798571D01*
X154455714Y-73893809D01*
X154455714Y-74131904D01*
X154408095Y-74227142D01*
X154360476Y-74274761D01*
X154265238Y-74322380D01*
X154027142Y-74322380D01*
X153931904Y-74274761D01*
X153884285Y-74227142D01*
%TO.C,SW1*%
X177664761Y-56653333D02*
X177712380Y-56510476D01*
X177712380Y-56272380D01*
X177664761Y-56177142D01*
X177617142Y-56129523D01*
X177521904Y-56081904D01*
X177426666Y-56081904D01*
X177331428Y-56129523D01*
X177283809Y-56177142D01*
X177236190Y-56272380D01*
X177188571Y-56462857D01*
X177140952Y-56558095D01*
X177093333Y-56605714D01*
X176998095Y-56653333D01*
X176902857Y-56653333D01*
X176807619Y-56605714D01*
X176760000Y-56558095D01*
X176712380Y-56462857D01*
X176712380Y-56224761D01*
X176760000Y-56081904D01*
X176712380Y-55748571D02*
X177712380Y-55510476D01*
X176998095Y-55320000D01*
X177712380Y-55129523D01*
X176712380Y-54891428D01*
X177712380Y-53986666D02*
X177712380Y-54558095D01*
X177712380Y-54272380D02*
X176712380Y-54272380D01*
X176855238Y-54367619D01*
X176950476Y-54462857D01*
X176998095Y-54558095D01*
%TO.C,U1*%
X161838095Y-57582380D02*
X161838095Y-58391904D01*
X161885714Y-58487142D01*
X161933333Y-58534761D01*
X162028571Y-58582380D01*
X162219047Y-58582380D01*
X162314285Y-58534761D01*
X162361904Y-58487142D01*
X162409523Y-58391904D01*
X162409523Y-57582380D01*
X163409523Y-58582380D02*
X162838095Y-58582380D01*
X163123809Y-58582380D02*
X163123809Y-57582380D01*
X163028571Y-57725238D01*
X162933333Y-57820476D01*
X162838095Y-57868095D01*
%TD*%
M02*
