%TF.GenerationSoftware,KiCad,Pcbnew,(5.1.10)-1*%
%TF.CreationDate,2021-12-02T15:39:48+11:00*%
%TF.ProjectId,bkm10iRduino_shield,626b6d31-3069-4526-9475-696e6f5f7368,rev?*%
%TF.SameCoordinates,Original*%
%TF.FileFunction,Copper,L2,Bot*%
%TF.FilePolarity,Positive*%
%FSLAX46Y46*%
G04 Gerber Fmt 4.6, Leading zero omitted, Abs format (unit mm)*
G04 Created by KiCad (PCBNEW (5.1.10)-1) date 2021-12-02 15:39:48*
%MOMM*%
%LPD*%
G01*
G04 APERTURE LIST*
%TA.AperFunction,ComponentPad*%
%ADD10C,4.000000*%
%TD*%
%TA.AperFunction,ComponentPad*%
%ADD11C,1.600000*%
%TD*%
%TA.AperFunction,ComponentPad*%
%ADD12R,1.600000X1.600000*%
%TD*%
%TA.AperFunction,ComponentPad*%
%ADD13O,1.600000X1.600000*%
%TD*%
%TA.AperFunction,ComponentPad*%
%ADD14O,1.700000X1.700000*%
%TD*%
%TA.AperFunction,ComponentPad*%
%ADD15R,1.700000X1.700000*%
%TD*%
%TA.AperFunction,ComponentPad*%
%ADD16C,2.000000*%
%TD*%
%TA.AperFunction,ComponentPad*%
%ADD17C,1.800000*%
%TD*%
%TA.AperFunction,ViaPad*%
%ADD18C,0.800000*%
%TD*%
%TA.AperFunction,Conductor*%
%ADD19C,0.250000*%
%TD*%
%TA.AperFunction,Conductor*%
%ADD20C,0.254000*%
%TD*%
%TA.AperFunction,Conductor*%
%ADD21C,0.100000*%
%TD*%
G04 APERTURE END LIST*
D10*
%TO.P,J1,0*%
%TO.N,N/C*%
X179330000Y-115420000D03*
X154330000Y-115420000D03*
D11*
%TO.P,J1,9*%
%TO.N,GND*%
X170985000Y-114000000D03*
%TO.P,J1,8*%
%TO.N,AB-*%
X168215000Y-114000000D03*
%TO.P,J1,7*%
%TO.N,YZ+*%
X165445000Y-114000000D03*
%TO.P,J1,6*%
%TO.N,GND*%
X162675000Y-114000000D03*
%TO.P,J1,5*%
%TO.N,VCC*%
X172370000Y-116840000D03*
%TO.P,J1,4*%
%TO.N,GND*%
X169600000Y-116840000D03*
%TO.P,J1,3*%
%TO.N,AB+*%
X166830000Y-116840000D03*
%TO.P,J1,2*%
%TO.N,YZ-*%
X164060000Y-116840000D03*
D12*
%TO.P,J1,1*%
%TO.N,GND*%
X161290000Y-116840000D03*
%TD*%
D13*
%TO.P,A1,16*%
%TO.N,SCK*%
X175260000Y-68580000D03*
%TO.P,A1,15*%
%TO.N,Net-(A1-Pad15)*%
X160020000Y-68580000D03*
%TO.P,A1,30*%
%TO.N,VCC*%
X175260000Y-104140000D03*
%TO.P,A1,14*%
%TO.N,MOSI*%
X160020000Y-71120000D03*
%TO.P,A1,29*%
%TO.N,GND*%
X175260000Y-101600000D03*
%TO.P,A1,13*%
%TO.N,DC*%
X160020000Y-73660000D03*
%TO.P,A1,28*%
%TO.N,Net-(A1-Pad28)*%
X175260000Y-99060000D03*
%TO.P,A1,12*%
%TO.N,CS*%
X160020000Y-76200000D03*
%TO.P,A1,27*%
%TO.N,Net-(A1-Pad27)*%
X175260000Y-96520000D03*
%TO.P,A1,11*%
%TO.N,RES*%
X160020000Y-78740000D03*
%TO.P,A1,26*%
%TO.N,Net-(A1-Pad26)*%
X175260000Y-93980000D03*
%TO.P,A1,10*%
%TO.N,IR_OUT*%
X160020000Y-81280000D03*
%TO.P,A1,25*%
%TO.N,Net-(A1-Pad25)*%
X175260000Y-91440000D03*
%TO.P,A1,9*%
%TO.N,Net-(A1-Pad9)*%
X160020000Y-83820000D03*
%TO.P,A1,24*%
%TO.N,Net-(A1-Pad24)*%
X175260000Y-88900000D03*
%TO.P,A1,8*%
%TO.N,Net-(A1-Pad8)*%
X160020000Y-86360000D03*
%TO.P,A1,23*%
%TO.N,Net-(A1-Pad23)*%
X175260000Y-86360000D03*
%TO.P,A1,7*%
%TO.N,LEARN_BUTTON_IN*%
X160020000Y-88900000D03*
%TO.P,A1,22*%
%TO.N,Net-(A1-Pad22)*%
X175260000Y-83820000D03*
%TO.P,A1,6*%
%TO.N,RS485_TX_ENABLE*%
X160020000Y-91440000D03*
%TO.P,A1,21*%
%TO.N,Net-(A1-Pad21)*%
X175260000Y-81280000D03*
%TO.P,A1,5*%
%TO.N,RS485_RX_ENABLE*%
X160020000Y-93980000D03*
%TO.P,A1,20*%
%TO.N,Net-(A1-Pad20)*%
X175260000Y-78740000D03*
%TO.P,A1,4*%
%TO.N,GND*%
X160020000Y-96520000D03*
%TO.P,A1,19*%
%TO.N,Net-(A1-Pad19)*%
X175260000Y-76200000D03*
%TO.P,A1,3*%
%TO.N,Net-(A1-Pad3)*%
X160020000Y-99060000D03*
%TO.P,A1,18*%
%TO.N,Net-(A1-Pad18)*%
X175260000Y-73660000D03*
%TO.P,A1,2*%
%TO.N,RS485_RX*%
X160020000Y-101600000D03*
%TO.P,A1,17*%
%TO.N,Net-(A1-Pad17)*%
X175260000Y-71120000D03*
D12*
%TO.P,A1,1*%
%TO.N,RS485_TX*%
X160020000Y-104140000D03*
%TD*%
D14*
%TO.P,D5,7*%
%TO.N,GND*%
X153670000Y-91440000D03*
%TO.P,D5,6*%
%TO.N,VCC*%
X153670000Y-88900000D03*
%TO.P,D5,5*%
%TO.N,SCK*%
X153670000Y-86360000D03*
%TO.P,D5,4*%
%TO.N,MOSI*%
X153670000Y-83820000D03*
%TO.P,D5,3*%
%TO.N,RES*%
X153670000Y-81280000D03*
%TO.P,D5,2*%
%TO.N,DC*%
X153670000Y-78740000D03*
D15*
%TO.P,D5,1*%
%TO.N,CS*%
X153670000Y-76200000D03*
%TD*%
D16*
%TO.P,SW1,1*%
%TO.N,GND*%
X175260000Y-58570000D03*
%TO.P,SW1,2*%
%TO.N,LEARN_BUTTON_IN*%
X170760000Y-58570000D03*
%TO.P,SW1,1*%
%TO.N,GND*%
X175260000Y-52070000D03*
%TO.P,SW1,2*%
%TO.N,LEARN_BUTTON_IN*%
X170760000Y-52070000D03*
%TD*%
D17*
%TO.P,U1,3*%
%TO.N,VCC*%
X160020000Y-55880000D03*
%TO.P,U1,2*%
%TO.N,GND*%
X162560000Y-55880000D03*
%TO.P,U1,1*%
%TO.N,IR_OUT*%
%TA.AperFunction,ComponentPad*%
G36*
G01*
X166000000Y-55228400D02*
X166000000Y-56531600D01*
G75*
G02*
X165751600Y-56780000I-248400J0D01*
G01*
X164448400Y-56780000D01*
G75*
G02*
X164200000Y-56531600I0J248400D01*
G01*
X164200000Y-55228400D01*
G75*
G02*
X164448400Y-54980000I248400J0D01*
G01*
X165751600Y-54980000D01*
G75*
G02*
X166000000Y-55228400I0J-248400D01*
G01*
G37*
%TD.AperFunction*%
%TD*%
D18*
%TO.N,VCC*%
X156845000Y-95885000D03*
X175260000Y-111760000D03*
X170180000Y-91440000D03*
X156845000Y-57150000D03*
%TD*%
D19*
%TO.N,SCK*%
X174134999Y-69705001D02*
X175260000Y-68580000D01*
X160415002Y-85090000D02*
X174134999Y-71370003D01*
X174134999Y-71370003D02*
X174134999Y-69705001D01*
X160270003Y-85234999D02*
X160415002Y-85090000D01*
X159479999Y-85234999D02*
X160270003Y-85234999D01*
X158894999Y-86360000D02*
X158894999Y-85819999D01*
X158894999Y-85819999D02*
X159479999Y-85234999D01*
X153670000Y-86360000D02*
X158894999Y-86360000D01*
%TO.N,MOSI*%
X161595011Y-72695011D02*
X160020000Y-71120000D01*
X161595011Y-78829991D02*
X161595011Y-72695011D01*
X160560001Y-79865001D02*
X161595011Y-78829991D01*
X156846410Y-82550000D02*
X159531409Y-79865001D01*
X154940000Y-82550000D02*
X156846410Y-82550000D01*
X159531409Y-79865001D02*
X160560001Y-79865001D01*
X153670000Y-83820000D02*
X154940000Y-82550000D01*
%TO.N,DC*%
X154940000Y-78740000D02*
X153670000Y-78740000D01*
X160020000Y-73660000D02*
X154940000Y-78740000D01*
%TO.N,CS*%
X155335002Y-74534998D02*
X153670000Y-76200000D01*
X157480000Y-74534998D02*
X155335002Y-74534998D01*
X159479999Y-72534999D02*
X157480000Y-74534998D01*
X160560001Y-72534999D02*
X159479999Y-72534999D01*
X161145001Y-73119999D02*
X160560001Y-72534999D01*
X161145001Y-75074999D02*
X161145001Y-73119999D01*
X160020000Y-76200000D02*
X161145001Y-75074999D01*
%TO.N,RES*%
X158750000Y-80010000D02*
X160020000Y-78740000D01*
X154940000Y-80010000D02*
X158750000Y-80010000D01*
X153670000Y-81280000D02*
X154940000Y-80010000D01*
%TD*%
D20*
%TO.N,VCC*%
X152366353Y-50215000D02*
X181643647Y-50215000D01*
X181737956Y-50205711D01*
X181974545Y-50228909D01*
X182325208Y-50334780D01*
X182648625Y-50506744D01*
X182932484Y-50738254D01*
X183165965Y-51020486D01*
X183340183Y-51342695D01*
X183448502Y-51692614D01*
X183474496Y-51939937D01*
X183465000Y-52036354D01*
X183465001Y-120683647D01*
X183474289Y-120777951D01*
X183451091Y-121014545D01*
X183345220Y-121365206D01*
X183173257Y-121688623D01*
X182941748Y-121972482D01*
X182659514Y-122205965D01*
X182337304Y-122380184D01*
X181987385Y-122488502D01*
X181740064Y-122514496D01*
X181643647Y-122505000D01*
X152366353Y-122505000D01*
X152272044Y-122514289D01*
X152035455Y-122491091D01*
X151684794Y-122385220D01*
X151361377Y-122213257D01*
X151077518Y-121981748D01*
X150844035Y-121699514D01*
X150669816Y-121377304D01*
X150561498Y-121027385D01*
X150535504Y-120780064D01*
X150545000Y-120683647D01*
X150545000Y-115160475D01*
X151695000Y-115160475D01*
X151695000Y-115679525D01*
X151796261Y-116188601D01*
X151994893Y-116668141D01*
X152283262Y-117099715D01*
X152650285Y-117466738D01*
X153081859Y-117755107D01*
X153561399Y-117953739D01*
X154070475Y-118055000D01*
X154589525Y-118055000D01*
X155098601Y-117953739D01*
X155578141Y-117755107D01*
X156009715Y-117466738D01*
X156376738Y-117099715D01*
X156665107Y-116668141D01*
X156863739Y-116188601D01*
X156893297Y-116040000D01*
X159851928Y-116040000D01*
X159851928Y-117640000D01*
X159864188Y-117764482D01*
X159900498Y-117884180D01*
X159959463Y-117994494D01*
X160038815Y-118091185D01*
X160135506Y-118170537D01*
X160245820Y-118229502D01*
X160365518Y-118265812D01*
X160490000Y-118278072D01*
X162090000Y-118278072D01*
X162214482Y-118265812D01*
X162334180Y-118229502D01*
X162444494Y-118170537D01*
X162541185Y-118091185D01*
X162620537Y-117994494D01*
X162679502Y-117884180D01*
X162715812Y-117764482D01*
X162728072Y-117640000D01*
X162728072Y-117374275D01*
X162788320Y-117519727D01*
X162945363Y-117754759D01*
X163145241Y-117954637D01*
X163380273Y-118111680D01*
X163641426Y-118219853D01*
X163918665Y-118275000D01*
X164201335Y-118275000D01*
X164478574Y-118219853D01*
X164739727Y-118111680D01*
X164974759Y-117954637D01*
X165174637Y-117754759D01*
X165331680Y-117519727D01*
X165439853Y-117258574D01*
X165445000Y-117232699D01*
X165450147Y-117258574D01*
X165558320Y-117519727D01*
X165715363Y-117754759D01*
X165915241Y-117954637D01*
X166150273Y-118111680D01*
X166411426Y-118219853D01*
X166688665Y-118275000D01*
X166971335Y-118275000D01*
X167248574Y-118219853D01*
X167509727Y-118111680D01*
X167744759Y-117954637D01*
X167944637Y-117754759D01*
X168101680Y-117519727D01*
X168209853Y-117258574D01*
X168215000Y-117232699D01*
X168220147Y-117258574D01*
X168328320Y-117519727D01*
X168485363Y-117754759D01*
X168685241Y-117954637D01*
X168920273Y-118111680D01*
X169181426Y-118219853D01*
X169458665Y-118275000D01*
X169741335Y-118275000D01*
X170018574Y-118219853D01*
X170279727Y-118111680D01*
X170514759Y-117954637D01*
X170636694Y-117832702D01*
X171556903Y-117832702D01*
X171628486Y-118076671D01*
X171883996Y-118197571D01*
X172158184Y-118266300D01*
X172440512Y-118280217D01*
X172720130Y-118238787D01*
X172986292Y-118143603D01*
X173111514Y-118076671D01*
X173183097Y-117832702D01*
X172370000Y-117019605D01*
X171556903Y-117832702D01*
X170636694Y-117832702D01*
X170714637Y-117754759D01*
X170871680Y-117519727D01*
X170979853Y-117258574D01*
X170985513Y-117230118D01*
X171066397Y-117456292D01*
X171133329Y-117581514D01*
X171377298Y-117653097D01*
X172190395Y-116840000D01*
X172549605Y-116840000D01*
X173362702Y-117653097D01*
X173606671Y-117581514D01*
X173727571Y-117326004D01*
X173796300Y-117051816D01*
X173810217Y-116769488D01*
X173768787Y-116489870D01*
X173673603Y-116223708D01*
X173606671Y-116098486D01*
X173362702Y-116026903D01*
X172549605Y-116840000D01*
X172190395Y-116840000D01*
X171377298Y-116026903D01*
X171133329Y-116098486D01*
X171012429Y-116353996D01*
X170986788Y-116456289D01*
X170979853Y-116421426D01*
X170871680Y-116160273D01*
X170714637Y-115925241D01*
X170636694Y-115847298D01*
X171556903Y-115847298D01*
X172370000Y-116660395D01*
X173183097Y-115847298D01*
X173111514Y-115603329D01*
X172856004Y-115482429D01*
X172581816Y-115413700D01*
X172299488Y-115399783D01*
X172019870Y-115441213D01*
X171753708Y-115536397D01*
X171628486Y-115603329D01*
X171556903Y-115847298D01*
X170636694Y-115847298D01*
X170514759Y-115725363D01*
X170279727Y-115568320D01*
X170018574Y-115460147D01*
X169741335Y-115405000D01*
X169458665Y-115405000D01*
X169181426Y-115460147D01*
X168920273Y-115568320D01*
X168685241Y-115725363D01*
X168485363Y-115925241D01*
X168328320Y-116160273D01*
X168220147Y-116421426D01*
X168215000Y-116447301D01*
X168209853Y-116421426D01*
X168101680Y-116160273D01*
X167944637Y-115925241D01*
X167744759Y-115725363D01*
X167509727Y-115568320D01*
X167248574Y-115460147D01*
X166971335Y-115405000D01*
X166688665Y-115405000D01*
X166411426Y-115460147D01*
X166150273Y-115568320D01*
X165915241Y-115725363D01*
X165715363Y-115925241D01*
X165558320Y-116160273D01*
X165450147Y-116421426D01*
X165445000Y-116447301D01*
X165439853Y-116421426D01*
X165331680Y-116160273D01*
X165174637Y-115925241D01*
X164974759Y-115725363D01*
X164739727Y-115568320D01*
X164478574Y-115460147D01*
X164201335Y-115405000D01*
X163918665Y-115405000D01*
X163641426Y-115460147D01*
X163380273Y-115568320D01*
X163145241Y-115725363D01*
X162945363Y-115925241D01*
X162788320Y-116160273D01*
X162728072Y-116305725D01*
X162728072Y-116040000D01*
X162715812Y-115915518D01*
X162679502Y-115795820D01*
X162620537Y-115685506D01*
X162541185Y-115588815D01*
X162444494Y-115509463D01*
X162334180Y-115450498D01*
X162214482Y-115414188D01*
X162090000Y-115401928D01*
X160490000Y-115401928D01*
X160365518Y-115414188D01*
X160245820Y-115450498D01*
X160135506Y-115509463D01*
X160038815Y-115588815D01*
X159959463Y-115685506D01*
X159900498Y-115795820D01*
X159864188Y-115915518D01*
X159851928Y-116040000D01*
X156893297Y-116040000D01*
X156965000Y-115679525D01*
X156965000Y-115160475D01*
X156863739Y-114651399D01*
X156665107Y-114171859D01*
X156455838Y-113858665D01*
X161240000Y-113858665D01*
X161240000Y-114141335D01*
X161295147Y-114418574D01*
X161403320Y-114679727D01*
X161560363Y-114914759D01*
X161760241Y-115114637D01*
X161995273Y-115271680D01*
X162256426Y-115379853D01*
X162533665Y-115435000D01*
X162816335Y-115435000D01*
X163093574Y-115379853D01*
X163354727Y-115271680D01*
X163589759Y-115114637D01*
X163789637Y-114914759D01*
X163946680Y-114679727D01*
X164054853Y-114418574D01*
X164060000Y-114392699D01*
X164065147Y-114418574D01*
X164173320Y-114679727D01*
X164330363Y-114914759D01*
X164530241Y-115114637D01*
X164765273Y-115271680D01*
X165026426Y-115379853D01*
X165303665Y-115435000D01*
X165586335Y-115435000D01*
X165863574Y-115379853D01*
X166124727Y-115271680D01*
X166359759Y-115114637D01*
X166559637Y-114914759D01*
X166716680Y-114679727D01*
X166824853Y-114418574D01*
X166830000Y-114392699D01*
X166835147Y-114418574D01*
X166943320Y-114679727D01*
X167100363Y-114914759D01*
X167300241Y-115114637D01*
X167535273Y-115271680D01*
X167796426Y-115379853D01*
X168073665Y-115435000D01*
X168356335Y-115435000D01*
X168633574Y-115379853D01*
X168894727Y-115271680D01*
X169129759Y-115114637D01*
X169329637Y-114914759D01*
X169486680Y-114679727D01*
X169594853Y-114418574D01*
X169600000Y-114392699D01*
X169605147Y-114418574D01*
X169713320Y-114679727D01*
X169870363Y-114914759D01*
X170070241Y-115114637D01*
X170305273Y-115271680D01*
X170566426Y-115379853D01*
X170843665Y-115435000D01*
X171126335Y-115435000D01*
X171403574Y-115379853D01*
X171664727Y-115271680D01*
X171831157Y-115160475D01*
X176695000Y-115160475D01*
X176695000Y-115679525D01*
X176796261Y-116188601D01*
X176994893Y-116668141D01*
X177283262Y-117099715D01*
X177650285Y-117466738D01*
X178081859Y-117755107D01*
X178561399Y-117953739D01*
X179070475Y-118055000D01*
X179589525Y-118055000D01*
X180098601Y-117953739D01*
X180578141Y-117755107D01*
X181009715Y-117466738D01*
X181376738Y-117099715D01*
X181665107Y-116668141D01*
X181863739Y-116188601D01*
X181965000Y-115679525D01*
X181965000Y-115160475D01*
X181863739Y-114651399D01*
X181665107Y-114171859D01*
X181376738Y-113740285D01*
X181009715Y-113373262D01*
X180578141Y-113084893D01*
X180098601Y-112886261D01*
X179589525Y-112785000D01*
X179070475Y-112785000D01*
X178561399Y-112886261D01*
X178081859Y-113084893D01*
X177650285Y-113373262D01*
X177283262Y-113740285D01*
X176994893Y-114171859D01*
X176796261Y-114651399D01*
X176695000Y-115160475D01*
X171831157Y-115160475D01*
X171899759Y-115114637D01*
X172099637Y-114914759D01*
X172256680Y-114679727D01*
X172364853Y-114418574D01*
X172420000Y-114141335D01*
X172420000Y-113858665D01*
X172364853Y-113581426D01*
X172256680Y-113320273D01*
X172099637Y-113085241D01*
X171899759Y-112885363D01*
X171664727Y-112728320D01*
X171403574Y-112620147D01*
X171126335Y-112565000D01*
X170843665Y-112565000D01*
X170566426Y-112620147D01*
X170305273Y-112728320D01*
X170070241Y-112885363D01*
X169870363Y-113085241D01*
X169713320Y-113320273D01*
X169605147Y-113581426D01*
X169600000Y-113607301D01*
X169594853Y-113581426D01*
X169486680Y-113320273D01*
X169329637Y-113085241D01*
X169129759Y-112885363D01*
X168894727Y-112728320D01*
X168633574Y-112620147D01*
X168356335Y-112565000D01*
X168073665Y-112565000D01*
X167796426Y-112620147D01*
X167535273Y-112728320D01*
X167300241Y-112885363D01*
X167100363Y-113085241D01*
X166943320Y-113320273D01*
X166835147Y-113581426D01*
X166830000Y-113607301D01*
X166824853Y-113581426D01*
X166716680Y-113320273D01*
X166559637Y-113085241D01*
X166359759Y-112885363D01*
X166124727Y-112728320D01*
X165863574Y-112620147D01*
X165586335Y-112565000D01*
X165303665Y-112565000D01*
X165026426Y-112620147D01*
X164765273Y-112728320D01*
X164530241Y-112885363D01*
X164330363Y-113085241D01*
X164173320Y-113320273D01*
X164065147Y-113581426D01*
X164060000Y-113607301D01*
X164054853Y-113581426D01*
X163946680Y-113320273D01*
X163789637Y-113085241D01*
X163589759Y-112885363D01*
X163354727Y-112728320D01*
X163093574Y-112620147D01*
X162816335Y-112565000D01*
X162533665Y-112565000D01*
X162256426Y-112620147D01*
X161995273Y-112728320D01*
X161760241Y-112885363D01*
X161560363Y-113085241D01*
X161403320Y-113320273D01*
X161295147Y-113581426D01*
X161240000Y-113858665D01*
X156455838Y-113858665D01*
X156376738Y-113740285D01*
X156009715Y-113373262D01*
X155578141Y-113084893D01*
X155098601Y-112886261D01*
X154589525Y-112785000D01*
X154070475Y-112785000D01*
X153561399Y-112886261D01*
X153081859Y-113084893D01*
X152650285Y-113373262D01*
X152283262Y-113740285D01*
X151994893Y-114171859D01*
X151796261Y-114651399D01*
X151695000Y-115160475D01*
X150545000Y-115160475D01*
X150545000Y-91293740D01*
X152185000Y-91293740D01*
X152185000Y-91586260D01*
X152242068Y-91873158D01*
X152354010Y-92143411D01*
X152516525Y-92386632D01*
X152723368Y-92593475D01*
X152966589Y-92755990D01*
X153236842Y-92867932D01*
X153523740Y-92925000D01*
X153816260Y-92925000D01*
X154103158Y-92867932D01*
X154373411Y-92755990D01*
X154616632Y-92593475D01*
X154823475Y-92386632D01*
X154985990Y-92143411D01*
X155097932Y-91873158D01*
X155155000Y-91586260D01*
X155155000Y-91293740D01*
X155097932Y-91006842D01*
X154985990Y-90736589D01*
X154823475Y-90493368D01*
X154616632Y-90286525D01*
X154434466Y-90164805D01*
X154551355Y-90095178D01*
X154767588Y-89900269D01*
X154941641Y-89666920D01*
X155066825Y-89404099D01*
X155111476Y-89256890D01*
X154990155Y-89027000D01*
X153797000Y-89027000D01*
X153797000Y-89047000D01*
X153543000Y-89047000D01*
X153543000Y-89027000D01*
X152349845Y-89027000D01*
X152228524Y-89256890D01*
X152273175Y-89404099D01*
X152398359Y-89666920D01*
X152572412Y-89900269D01*
X152788645Y-90095178D01*
X152905534Y-90164805D01*
X152723368Y-90286525D01*
X152516525Y-90493368D01*
X152354010Y-90736589D01*
X152242068Y-91006842D01*
X152185000Y-91293740D01*
X150545000Y-91293740D01*
X150545000Y-75350000D01*
X152181928Y-75350000D01*
X152181928Y-77050000D01*
X152194188Y-77174482D01*
X152230498Y-77294180D01*
X152289463Y-77404494D01*
X152368815Y-77501185D01*
X152465506Y-77580537D01*
X152575820Y-77639502D01*
X152648380Y-77661513D01*
X152516525Y-77793368D01*
X152354010Y-78036589D01*
X152242068Y-78306842D01*
X152185000Y-78593740D01*
X152185000Y-78886260D01*
X152242068Y-79173158D01*
X152354010Y-79443411D01*
X152516525Y-79686632D01*
X152723368Y-79893475D01*
X152897760Y-80010000D01*
X152723368Y-80126525D01*
X152516525Y-80333368D01*
X152354010Y-80576589D01*
X152242068Y-80846842D01*
X152185000Y-81133740D01*
X152185000Y-81426260D01*
X152242068Y-81713158D01*
X152354010Y-81983411D01*
X152516525Y-82226632D01*
X152723368Y-82433475D01*
X152897760Y-82550000D01*
X152723368Y-82666525D01*
X152516525Y-82873368D01*
X152354010Y-83116589D01*
X152242068Y-83386842D01*
X152185000Y-83673740D01*
X152185000Y-83966260D01*
X152242068Y-84253158D01*
X152354010Y-84523411D01*
X152516525Y-84766632D01*
X152723368Y-84973475D01*
X152897760Y-85090000D01*
X152723368Y-85206525D01*
X152516525Y-85413368D01*
X152354010Y-85656589D01*
X152242068Y-85926842D01*
X152185000Y-86213740D01*
X152185000Y-86506260D01*
X152242068Y-86793158D01*
X152354010Y-87063411D01*
X152516525Y-87306632D01*
X152723368Y-87513475D01*
X152905534Y-87635195D01*
X152788645Y-87704822D01*
X152572412Y-87899731D01*
X152398359Y-88133080D01*
X152273175Y-88395901D01*
X152228524Y-88543110D01*
X152349845Y-88773000D01*
X153543000Y-88773000D01*
X153543000Y-88753000D01*
X153797000Y-88753000D01*
X153797000Y-88773000D01*
X154990155Y-88773000D01*
X155111476Y-88543110D01*
X155066825Y-88395901D01*
X154941641Y-88133080D01*
X154767588Y-87899731D01*
X154551355Y-87704822D01*
X154434466Y-87635195D01*
X154616632Y-87513475D01*
X154823475Y-87306632D01*
X154948178Y-87120000D01*
X158801957Y-87120000D01*
X158905363Y-87274759D01*
X159105241Y-87474637D01*
X159337759Y-87630000D01*
X159105241Y-87785363D01*
X158905363Y-87985241D01*
X158748320Y-88220273D01*
X158640147Y-88481426D01*
X158585000Y-88758665D01*
X158585000Y-89041335D01*
X158640147Y-89318574D01*
X158748320Y-89579727D01*
X158905363Y-89814759D01*
X159105241Y-90014637D01*
X159337759Y-90170000D01*
X159105241Y-90325363D01*
X158905363Y-90525241D01*
X158748320Y-90760273D01*
X158640147Y-91021426D01*
X158585000Y-91298665D01*
X158585000Y-91581335D01*
X158640147Y-91858574D01*
X158748320Y-92119727D01*
X158905363Y-92354759D01*
X159105241Y-92554637D01*
X159337759Y-92710000D01*
X159105241Y-92865363D01*
X158905363Y-93065241D01*
X158748320Y-93300273D01*
X158640147Y-93561426D01*
X158585000Y-93838665D01*
X158585000Y-94121335D01*
X158640147Y-94398574D01*
X158748320Y-94659727D01*
X158905363Y-94894759D01*
X159105241Y-95094637D01*
X159337759Y-95250000D01*
X159105241Y-95405363D01*
X158905363Y-95605241D01*
X158748320Y-95840273D01*
X158640147Y-96101426D01*
X158585000Y-96378665D01*
X158585000Y-96661335D01*
X158640147Y-96938574D01*
X158748320Y-97199727D01*
X158905363Y-97434759D01*
X159105241Y-97634637D01*
X159337759Y-97790000D01*
X159105241Y-97945363D01*
X158905363Y-98145241D01*
X158748320Y-98380273D01*
X158640147Y-98641426D01*
X158585000Y-98918665D01*
X158585000Y-99201335D01*
X158640147Y-99478574D01*
X158748320Y-99739727D01*
X158905363Y-99974759D01*
X159105241Y-100174637D01*
X159337759Y-100330000D01*
X159105241Y-100485363D01*
X158905363Y-100685241D01*
X158748320Y-100920273D01*
X158640147Y-101181426D01*
X158585000Y-101458665D01*
X158585000Y-101741335D01*
X158640147Y-102018574D01*
X158748320Y-102279727D01*
X158905363Y-102514759D01*
X159103961Y-102713357D01*
X159095518Y-102714188D01*
X158975820Y-102750498D01*
X158865506Y-102809463D01*
X158768815Y-102888815D01*
X158689463Y-102985506D01*
X158630498Y-103095820D01*
X158594188Y-103215518D01*
X158581928Y-103340000D01*
X158581928Y-104940000D01*
X158594188Y-105064482D01*
X158630498Y-105184180D01*
X158689463Y-105294494D01*
X158768815Y-105391185D01*
X158865506Y-105470537D01*
X158975820Y-105529502D01*
X159095518Y-105565812D01*
X159220000Y-105578072D01*
X160820000Y-105578072D01*
X160944482Y-105565812D01*
X161064180Y-105529502D01*
X161174494Y-105470537D01*
X161271185Y-105391185D01*
X161350537Y-105294494D01*
X161409502Y-105184180D01*
X161445812Y-105064482D01*
X161458072Y-104940000D01*
X161458072Y-104489039D01*
X173868096Y-104489039D01*
X173908754Y-104623087D01*
X174028963Y-104877420D01*
X174196481Y-105103414D01*
X174404869Y-105292385D01*
X174646119Y-105437070D01*
X174910960Y-105531909D01*
X175133000Y-105410624D01*
X175133000Y-104267000D01*
X175387000Y-104267000D01*
X175387000Y-105410624D01*
X175609040Y-105531909D01*
X175873881Y-105437070D01*
X176115131Y-105292385D01*
X176323519Y-105103414D01*
X176491037Y-104877420D01*
X176611246Y-104623087D01*
X176651904Y-104489039D01*
X176529915Y-104267000D01*
X175387000Y-104267000D01*
X175133000Y-104267000D01*
X173990085Y-104267000D01*
X173868096Y-104489039D01*
X161458072Y-104489039D01*
X161458072Y-103340000D01*
X161445812Y-103215518D01*
X161409502Y-103095820D01*
X161350537Y-102985506D01*
X161271185Y-102888815D01*
X161174494Y-102809463D01*
X161064180Y-102750498D01*
X160944482Y-102714188D01*
X160936039Y-102713357D01*
X161134637Y-102514759D01*
X161291680Y-102279727D01*
X161399853Y-102018574D01*
X161455000Y-101741335D01*
X161455000Y-101458665D01*
X161399853Y-101181426D01*
X161291680Y-100920273D01*
X161134637Y-100685241D01*
X160934759Y-100485363D01*
X160702241Y-100330000D01*
X160934759Y-100174637D01*
X161134637Y-99974759D01*
X161291680Y-99739727D01*
X161399853Y-99478574D01*
X161455000Y-99201335D01*
X161455000Y-98918665D01*
X161399853Y-98641426D01*
X161291680Y-98380273D01*
X161134637Y-98145241D01*
X160934759Y-97945363D01*
X160702241Y-97790000D01*
X160934759Y-97634637D01*
X161134637Y-97434759D01*
X161291680Y-97199727D01*
X161399853Y-96938574D01*
X161455000Y-96661335D01*
X161455000Y-96378665D01*
X161399853Y-96101426D01*
X161291680Y-95840273D01*
X161134637Y-95605241D01*
X160934759Y-95405363D01*
X160702241Y-95250000D01*
X160934759Y-95094637D01*
X161134637Y-94894759D01*
X161291680Y-94659727D01*
X161399853Y-94398574D01*
X161455000Y-94121335D01*
X161455000Y-93838665D01*
X161399853Y-93561426D01*
X161291680Y-93300273D01*
X161134637Y-93065241D01*
X160934759Y-92865363D01*
X160702241Y-92710000D01*
X160934759Y-92554637D01*
X161134637Y-92354759D01*
X161291680Y-92119727D01*
X161399853Y-91858574D01*
X161455000Y-91581335D01*
X161455000Y-91298665D01*
X161399853Y-91021426D01*
X161291680Y-90760273D01*
X161134637Y-90525241D01*
X160934759Y-90325363D01*
X160702241Y-90170000D01*
X160934759Y-90014637D01*
X161134637Y-89814759D01*
X161291680Y-89579727D01*
X161399853Y-89318574D01*
X161455000Y-89041335D01*
X161455000Y-88758665D01*
X161399853Y-88481426D01*
X161291680Y-88220273D01*
X161134637Y-87985241D01*
X160934759Y-87785363D01*
X160702241Y-87630000D01*
X160934759Y-87474637D01*
X161134637Y-87274759D01*
X161291680Y-87039727D01*
X161399853Y-86778574D01*
X161455000Y-86501335D01*
X161455000Y-86218665D01*
X161399853Y-85941426D01*
X161291680Y-85680273D01*
X161134637Y-85445241D01*
X161134600Y-85445204D01*
X174345204Y-72234600D01*
X174345241Y-72234637D01*
X174577759Y-72390000D01*
X174345241Y-72545363D01*
X174145363Y-72745241D01*
X173988320Y-72980273D01*
X173880147Y-73241426D01*
X173825000Y-73518665D01*
X173825000Y-73801335D01*
X173880147Y-74078574D01*
X173988320Y-74339727D01*
X174145363Y-74574759D01*
X174345241Y-74774637D01*
X174577759Y-74930000D01*
X174345241Y-75085363D01*
X174145363Y-75285241D01*
X173988320Y-75520273D01*
X173880147Y-75781426D01*
X173825000Y-76058665D01*
X173825000Y-76341335D01*
X173880147Y-76618574D01*
X173988320Y-76879727D01*
X174145363Y-77114759D01*
X174345241Y-77314637D01*
X174577759Y-77470000D01*
X174345241Y-77625363D01*
X174145363Y-77825241D01*
X173988320Y-78060273D01*
X173880147Y-78321426D01*
X173825000Y-78598665D01*
X173825000Y-78881335D01*
X173880147Y-79158574D01*
X173988320Y-79419727D01*
X174145363Y-79654759D01*
X174345241Y-79854637D01*
X174577759Y-80010000D01*
X174345241Y-80165363D01*
X174145363Y-80365241D01*
X173988320Y-80600273D01*
X173880147Y-80861426D01*
X173825000Y-81138665D01*
X173825000Y-81421335D01*
X173880147Y-81698574D01*
X173988320Y-81959727D01*
X174145363Y-82194759D01*
X174345241Y-82394637D01*
X174577759Y-82550000D01*
X174345241Y-82705363D01*
X174145363Y-82905241D01*
X173988320Y-83140273D01*
X173880147Y-83401426D01*
X173825000Y-83678665D01*
X173825000Y-83961335D01*
X173880147Y-84238574D01*
X173988320Y-84499727D01*
X174145363Y-84734759D01*
X174345241Y-84934637D01*
X174577759Y-85090000D01*
X174345241Y-85245363D01*
X174145363Y-85445241D01*
X173988320Y-85680273D01*
X173880147Y-85941426D01*
X173825000Y-86218665D01*
X173825000Y-86501335D01*
X173880147Y-86778574D01*
X173988320Y-87039727D01*
X174145363Y-87274759D01*
X174345241Y-87474637D01*
X174577759Y-87630000D01*
X174345241Y-87785363D01*
X174145363Y-87985241D01*
X173988320Y-88220273D01*
X173880147Y-88481426D01*
X173825000Y-88758665D01*
X173825000Y-89041335D01*
X173880147Y-89318574D01*
X173988320Y-89579727D01*
X174145363Y-89814759D01*
X174345241Y-90014637D01*
X174577759Y-90170000D01*
X174345241Y-90325363D01*
X174145363Y-90525241D01*
X173988320Y-90760273D01*
X173880147Y-91021426D01*
X173825000Y-91298665D01*
X173825000Y-91581335D01*
X173880147Y-91858574D01*
X173988320Y-92119727D01*
X174145363Y-92354759D01*
X174345241Y-92554637D01*
X174577759Y-92710000D01*
X174345241Y-92865363D01*
X174145363Y-93065241D01*
X173988320Y-93300273D01*
X173880147Y-93561426D01*
X173825000Y-93838665D01*
X173825000Y-94121335D01*
X173880147Y-94398574D01*
X173988320Y-94659727D01*
X174145363Y-94894759D01*
X174345241Y-95094637D01*
X174577759Y-95250000D01*
X174345241Y-95405363D01*
X174145363Y-95605241D01*
X173988320Y-95840273D01*
X173880147Y-96101426D01*
X173825000Y-96378665D01*
X173825000Y-96661335D01*
X173880147Y-96938574D01*
X173988320Y-97199727D01*
X174145363Y-97434759D01*
X174345241Y-97634637D01*
X174577759Y-97790000D01*
X174345241Y-97945363D01*
X174145363Y-98145241D01*
X173988320Y-98380273D01*
X173880147Y-98641426D01*
X173825000Y-98918665D01*
X173825000Y-99201335D01*
X173880147Y-99478574D01*
X173988320Y-99739727D01*
X174145363Y-99974759D01*
X174345241Y-100174637D01*
X174577759Y-100330000D01*
X174345241Y-100485363D01*
X174145363Y-100685241D01*
X173988320Y-100920273D01*
X173880147Y-101181426D01*
X173825000Y-101458665D01*
X173825000Y-101741335D01*
X173880147Y-102018574D01*
X173988320Y-102279727D01*
X174145363Y-102514759D01*
X174345241Y-102714637D01*
X174580273Y-102871680D01*
X174590865Y-102876067D01*
X174404869Y-102987615D01*
X174196481Y-103176586D01*
X174028963Y-103402580D01*
X173908754Y-103656913D01*
X173868096Y-103790961D01*
X173990085Y-104013000D01*
X175133000Y-104013000D01*
X175133000Y-103993000D01*
X175387000Y-103993000D01*
X175387000Y-104013000D01*
X176529915Y-104013000D01*
X176651904Y-103790961D01*
X176611246Y-103656913D01*
X176491037Y-103402580D01*
X176323519Y-103176586D01*
X176115131Y-102987615D01*
X175929135Y-102876067D01*
X175939727Y-102871680D01*
X176174759Y-102714637D01*
X176374637Y-102514759D01*
X176531680Y-102279727D01*
X176639853Y-102018574D01*
X176695000Y-101741335D01*
X176695000Y-101458665D01*
X176639853Y-101181426D01*
X176531680Y-100920273D01*
X176374637Y-100685241D01*
X176174759Y-100485363D01*
X175942241Y-100330000D01*
X176174759Y-100174637D01*
X176374637Y-99974759D01*
X176531680Y-99739727D01*
X176639853Y-99478574D01*
X176695000Y-99201335D01*
X176695000Y-98918665D01*
X176639853Y-98641426D01*
X176531680Y-98380273D01*
X176374637Y-98145241D01*
X176174759Y-97945363D01*
X175942241Y-97790000D01*
X176174759Y-97634637D01*
X176374637Y-97434759D01*
X176531680Y-97199727D01*
X176639853Y-96938574D01*
X176695000Y-96661335D01*
X176695000Y-96378665D01*
X176639853Y-96101426D01*
X176531680Y-95840273D01*
X176374637Y-95605241D01*
X176174759Y-95405363D01*
X175942241Y-95250000D01*
X176174759Y-95094637D01*
X176374637Y-94894759D01*
X176531680Y-94659727D01*
X176639853Y-94398574D01*
X176695000Y-94121335D01*
X176695000Y-93838665D01*
X176639853Y-93561426D01*
X176531680Y-93300273D01*
X176374637Y-93065241D01*
X176174759Y-92865363D01*
X175942241Y-92710000D01*
X176174759Y-92554637D01*
X176374637Y-92354759D01*
X176531680Y-92119727D01*
X176639853Y-91858574D01*
X176695000Y-91581335D01*
X176695000Y-91298665D01*
X176639853Y-91021426D01*
X176531680Y-90760273D01*
X176374637Y-90525241D01*
X176174759Y-90325363D01*
X175942241Y-90170000D01*
X176174759Y-90014637D01*
X176374637Y-89814759D01*
X176531680Y-89579727D01*
X176639853Y-89318574D01*
X176695000Y-89041335D01*
X176695000Y-88758665D01*
X176639853Y-88481426D01*
X176531680Y-88220273D01*
X176374637Y-87985241D01*
X176174759Y-87785363D01*
X175942241Y-87630000D01*
X176174759Y-87474637D01*
X176374637Y-87274759D01*
X176531680Y-87039727D01*
X176639853Y-86778574D01*
X176695000Y-86501335D01*
X176695000Y-86218665D01*
X176639853Y-85941426D01*
X176531680Y-85680273D01*
X176374637Y-85445241D01*
X176174759Y-85245363D01*
X175942241Y-85090000D01*
X176174759Y-84934637D01*
X176374637Y-84734759D01*
X176531680Y-84499727D01*
X176639853Y-84238574D01*
X176695000Y-83961335D01*
X176695000Y-83678665D01*
X176639853Y-83401426D01*
X176531680Y-83140273D01*
X176374637Y-82905241D01*
X176174759Y-82705363D01*
X175942241Y-82550000D01*
X176174759Y-82394637D01*
X176374637Y-82194759D01*
X176531680Y-81959727D01*
X176639853Y-81698574D01*
X176695000Y-81421335D01*
X176695000Y-81138665D01*
X176639853Y-80861426D01*
X176531680Y-80600273D01*
X176374637Y-80365241D01*
X176174759Y-80165363D01*
X175942241Y-80010000D01*
X176174759Y-79854637D01*
X176374637Y-79654759D01*
X176531680Y-79419727D01*
X176639853Y-79158574D01*
X176695000Y-78881335D01*
X176695000Y-78598665D01*
X176639853Y-78321426D01*
X176531680Y-78060273D01*
X176374637Y-77825241D01*
X176174759Y-77625363D01*
X175942241Y-77470000D01*
X176174759Y-77314637D01*
X176374637Y-77114759D01*
X176531680Y-76879727D01*
X176639853Y-76618574D01*
X176695000Y-76341335D01*
X176695000Y-76058665D01*
X176639853Y-75781426D01*
X176531680Y-75520273D01*
X176374637Y-75285241D01*
X176174759Y-75085363D01*
X175942241Y-74930000D01*
X176174759Y-74774637D01*
X176374637Y-74574759D01*
X176531680Y-74339727D01*
X176639853Y-74078574D01*
X176695000Y-73801335D01*
X176695000Y-73518665D01*
X176639853Y-73241426D01*
X176531680Y-72980273D01*
X176374637Y-72745241D01*
X176174759Y-72545363D01*
X175942241Y-72390000D01*
X176174759Y-72234637D01*
X176374637Y-72034759D01*
X176531680Y-71799727D01*
X176639853Y-71538574D01*
X176695000Y-71261335D01*
X176695000Y-70978665D01*
X176639853Y-70701426D01*
X176531680Y-70440273D01*
X176374637Y-70205241D01*
X176174759Y-70005363D01*
X175942241Y-69850000D01*
X176174759Y-69694637D01*
X176374637Y-69494759D01*
X176531680Y-69259727D01*
X176639853Y-68998574D01*
X176695000Y-68721335D01*
X176695000Y-68438665D01*
X176639853Y-68161426D01*
X176531680Y-67900273D01*
X176374637Y-67665241D01*
X176174759Y-67465363D01*
X175939727Y-67308320D01*
X175678574Y-67200147D01*
X175401335Y-67145000D01*
X175118665Y-67145000D01*
X174841426Y-67200147D01*
X174580273Y-67308320D01*
X174345241Y-67465363D01*
X174145363Y-67665241D01*
X173988320Y-67900273D01*
X173880147Y-68161426D01*
X173825000Y-68438665D01*
X173825000Y-68721335D01*
X173861312Y-68903887D01*
X173623997Y-69141202D01*
X173594999Y-69165000D01*
X173571201Y-69193998D01*
X173571200Y-69193999D01*
X173500025Y-69280725D01*
X173429453Y-69412755D01*
X173385997Y-69556016D01*
X173371323Y-69705001D01*
X173375000Y-69742333D01*
X173374999Y-71055201D01*
X161290978Y-83139223D01*
X161134637Y-82905241D01*
X160934759Y-82705363D01*
X160702241Y-82550000D01*
X160934759Y-82394637D01*
X161134637Y-82194759D01*
X161291680Y-81959727D01*
X161399853Y-81698574D01*
X161455000Y-81421335D01*
X161455000Y-81138665D01*
X161399853Y-80861426D01*
X161291680Y-80600273D01*
X161134637Y-80365241D01*
X161134600Y-80365204D01*
X162106015Y-79393789D01*
X162135012Y-79369992D01*
X162229985Y-79254267D01*
X162300557Y-79122238D01*
X162344014Y-78978977D01*
X162355011Y-78867324D01*
X162355011Y-78867315D01*
X162358687Y-78829992D01*
X162355011Y-78792669D01*
X162355011Y-72732334D01*
X162358687Y-72695011D01*
X162355011Y-72657688D01*
X162355011Y-72657678D01*
X162344014Y-72546025D01*
X162300557Y-72402764D01*
X162291603Y-72386013D01*
X162229985Y-72270734D01*
X162158810Y-72184008D01*
X162135012Y-72155010D01*
X162106014Y-72131212D01*
X161418688Y-71443886D01*
X161455000Y-71261335D01*
X161455000Y-70978665D01*
X161399853Y-70701426D01*
X161291680Y-70440273D01*
X161134637Y-70205241D01*
X160934759Y-70005363D01*
X160702241Y-69850000D01*
X160934759Y-69694637D01*
X161134637Y-69494759D01*
X161291680Y-69259727D01*
X161399853Y-68998574D01*
X161455000Y-68721335D01*
X161455000Y-68438665D01*
X161399853Y-68161426D01*
X161291680Y-67900273D01*
X161134637Y-67665241D01*
X160934759Y-67465363D01*
X160699727Y-67308320D01*
X160438574Y-67200147D01*
X160161335Y-67145000D01*
X159878665Y-67145000D01*
X159601426Y-67200147D01*
X159340273Y-67308320D01*
X159105241Y-67465363D01*
X158905363Y-67665241D01*
X158748320Y-67900273D01*
X158640147Y-68161426D01*
X158585000Y-68438665D01*
X158585000Y-68721335D01*
X158640147Y-68998574D01*
X158748320Y-69259727D01*
X158905363Y-69494759D01*
X159105241Y-69694637D01*
X159337759Y-69850000D01*
X159105241Y-70005363D01*
X158905363Y-70205241D01*
X158748320Y-70440273D01*
X158640147Y-70701426D01*
X158585000Y-70978665D01*
X158585000Y-71261335D01*
X158640147Y-71538574D01*
X158748320Y-71799727D01*
X158905363Y-72034759D01*
X158905400Y-72034796D01*
X157165199Y-73774998D01*
X155372324Y-73774998D01*
X155335001Y-73771322D01*
X155297678Y-73774998D01*
X155297669Y-73774998D01*
X155186016Y-73785995D01*
X155042755Y-73829452D01*
X154910726Y-73900024D01*
X154910724Y-73900025D01*
X154910725Y-73900025D01*
X154823998Y-73971199D01*
X154823994Y-73971203D01*
X154795001Y-73994997D01*
X154771207Y-74023990D01*
X154083270Y-74711928D01*
X152820000Y-74711928D01*
X152695518Y-74724188D01*
X152575820Y-74760498D01*
X152465506Y-74819463D01*
X152368815Y-74898815D01*
X152289463Y-74995506D01*
X152230498Y-75105820D01*
X152194188Y-75225518D01*
X152181928Y-75350000D01*
X150545000Y-75350000D01*
X150545000Y-58408967D01*
X169125000Y-58408967D01*
X169125000Y-58731033D01*
X169187832Y-59046912D01*
X169311082Y-59344463D01*
X169490013Y-59612252D01*
X169717748Y-59839987D01*
X169985537Y-60018918D01*
X170283088Y-60142168D01*
X170598967Y-60205000D01*
X170921033Y-60205000D01*
X171236912Y-60142168D01*
X171534463Y-60018918D01*
X171802252Y-59839987D01*
X172029987Y-59612252D01*
X172208918Y-59344463D01*
X172332168Y-59046912D01*
X172395000Y-58731033D01*
X172395000Y-58408967D01*
X173625000Y-58408967D01*
X173625000Y-58731033D01*
X173687832Y-59046912D01*
X173811082Y-59344463D01*
X173990013Y-59612252D01*
X174217748Y-59839987D01*
X174485537Y-60018918D01*
X174783088Y-60142168D01*
X175098967Y-60205000D01*
X175421033Y-60205000D01*
X175736912Y-60142168D01*
X176034463Y-60018918D01*
X176302252Y-59839987D01*
X176529987Y-59612252D01*
X176708918Y-59344463D01*
X176832168Y-59046912D01*
X176895000Y-58731033D01*
X176895000Y-58408967D01*
X176832168Y-58093088D01*
X176708918Y-57795537D01*
X176529987Y-57527748D01*
X176302252Y-57300013D01*
X176034463Y-57121082D01*
X175736912Y-56997832D01*
X175421033Y-56935000D01*
X175098967Y-56935000D01*
X174783088Y-56997832D01*
X174485537Y-57121082D01*
X174217748Y-57300013D01*
X173990013Y-57527748D01*
X173811082Y-57795537D01*
X173687832Y-58093088D01*
X173625000Y-58408967D01*
X172395000Y-58408967D01*
X172332168Y-58093088D01*
X172208918Y-57795537D01*
X172029987Y-57527748D01*
X171802252Y-57300013D01*
X171534463Y-57121082D01*
X171236912Y-56997832D01*
X170921033Y-56935000D01*
X170598967Y-56935000D01*
X170283088Y-56997832D01*
X169985537Y-57121082D01*
X169717748Y-57300013D01*
X169490013Y-57527748D01*
X169311082Y-57795537D01*
X169187832Y-58093088D01*
X169125000Y-58408967D01*
X150545000Y-58408967D01*
X150545000Y-56944080D01*
X159135525Y-56944080D01*
X159219208Y-57198261D01*
X159491775Y-57329158D01*
X159784642Y-57404365D01*
X160086553Y-57420991D01*
X160385907Y-57378397D01*
X160671199Y-57278222D01*
X160820792Y-57198261D01*
X160904475Y-56944080D01*
X160020000Y-56059605D01*
X159135525Y-56944080D01*
X150545000Y-56944080D01*
X150545000Y-55946553D01*
X158479009Y-55946553D01*
X158521603Y-56245907D01*
X158621778Y-56531199D01*
X158701739Y-56680792D01*
X158955920Y-56764475D01*
X159840395Y-55880000D01*
X160199605Y-55880000D01*
X161084080Y-56764475D01*
X161265049Y-56704895D01*
X161367688Y-56858505D01*
X161581495Y-57072312D01*
X161832905Y-57240299D01*
X162112257Y-57356011D01*
X162408816Y-57415000D01*
X162711184Y-57415000D01*
X163007743Y-57356011D01*
X163287095Y-57240299D01*
X163538505Y-57072312D01*
X163667922Y-56942895D01*
X163711325Y-57024097D01*
X163821570Y-57158430D01*
X163955903Y-57268675D01*
X164109162Y-57350593D01*
X164275458Y-57401039D01*
X164448400Y-57418072D01*
X165751600Y-57418072D01*
X165924542Y-57401039D01*
X166090838Y-57350593D01*
X166244097Y-57268675D01*
X166378430Y-57158430D01*
X166488675Y-57024097D01*
X166570593Y-56870838D01*
X166621039Y-56704542D01*
X166638072Y-56531600D01*
X166638072Y-55228400D01*
X166621039Y-55055458D01*
X166570593Y-54889162D01*
X166488675Y-54735903D01*
X166378430Y-54601570D01*
X166244097Y-54491325D01*
X166090838Y-54409407D01*
X165924542Y-54358961D01*
X165751600Y-54341928D01*
X164448400Y-54341928D01*
X164275458Y-54358961D01*
X164109162Y-54409407D01*
X163955903Y-54491325D01*
X163821570Y-54601570D01*
X163711325Y-54735903D01*
X163667922Y-54817105D01*
X163538505Y-54687688D01*
X163287095Y-54519701D01*
X163007743Y-54403989D01*
X162711184Y-54345000D01*
X162408816Y-54345000D01*
X162112257Y-54403989D01*
X161832905Y-54519701D01*
X161581495Y-54687688D01*
X161367688Y-54901495D01*
X161265049Y-55055105D01*
X161084080Y-54995525D01*
X160199605Y-55880000D01*
X159840395Y-55880000D01*
X158955920Y-54995525D01*
X158701739Y-55079208D01*
X158570842Y-55351775D01*
X158495635Y-55644642D01*
X158479009Y-55946553D01*
X150545000Y-55946553D01*
X150545000Y-53119872D01*
X151435000Y-53119872D01*
X151435000Y-53560128D01*
X151520890Y-53991925D01*
X151689369Y-54398669D01*
X151933962Y-54764729D01*
X152245271Y-55076038D01*
X152611331Y-55320631D01*
X153018075Y-55489110D01*
X153449872Y-55575000D01*
X153890128Y-55575000D01*
X154321925Y-55489110D01*
X154728669Y-55320631D01*
X155094729Y-55076038D01*
X155354847Y-54815920D01*
X159135525Y-54815920D01*
X160020000Y-55700395D01*
X160904475Y-54815920D01*
X160820792Y-54561739D01*
X160548225Y-54430842D01*
X160255358Y-54355635D01*
X159953447Y-54339009D01*
X159654093Y-54381603D01*
X159368801Y-54481778D01*
X159219208Y-54561739D01*
X159135525Y-54815920D01*
X155354847Y-54815920D01*
X155406038Y-54764729D01*
X155650631Y-54398669D01*
X155819110Y-53991925D01*
X155905000Y-53560128D01*
X155905000Y-53119872D01*
X155819110Y-52688075D01*
X155650631Y-52281331D01*
X155406038Y-51915271D01*
X155399734Y-51908967D01*
X169125000Y-51908967D01*
X169125000Y-52231033D01*
X169187832Y-52546912D01*
X169311082Y-52844463D01*
X169490013Y-53112252D01*
X169717748Y-53339987D01*
X169985537Y-53518918D01*
X170283088Y-53642168D01*
X170598967Y-53705000D01*
X170921033Y-53705000D01*
X171236912Y-53642168D01*
X171534463Y-53518918D01*
X171802252Y-53339987D01*
X172029987Y-53112252D01*
X172208918Y-52844463D01*
X172332168Y-52546912D01*
X172395000Y-52231033D01*
X172395000Y-51908967D01*
X173625000Y-51908967D01*
X173625000Y-52231033D01*
X173687832Y-52546912D01*
X173811082Y-52844463D01*
X173990013Y-53112252D01*
X174217748Y-53339987D01*
X174485537Y-53518918D01*
X174783088Y-53642168D01*
X175098967Y-53705000D01*
X175421033Y-53705000D01*
X175736912Y-53642168D01*
X176034463Y-53518918D01*
X176302252Y-53339987D01*
X176522367Y-53119872D01*
X178105000Y-53119872D01*
X178105000Y-53560128D01*
X178190890Y-53991925D01*
X178359369Y-54398669D01*
X178603962Y-54764729D01*
X178915271Y-55076038D01*
X179281331Y-55320631D01*
X179688075Y-55489110D01*
X180119872Y-55575000D01*
X180560128Y-55575000D01*
X180991925Y-55489110D01*
X181398669Y-55320631D01*
X181764729Y-55076038D01*
X182076038Y-54764729D01*
X182320631Y-54398669D01*
X182489110Y-53991925D01*
X182575000Y-53560128D01*
X182575000Y-53119872D01*
X182489110Y-52688075D01*
X182320631Y-52281331D01*
X182076038Y-51915271D01*
X181764729Y-51603962D01*
X181398669Y-51359369D01*
X180991925Y-51190890D01*
X180560128Y-51105000D01*
X180119872Y-51105000D01*
X179688075Y-51190890D01*
X179281331Y-51359369D01*
X178915271Y-51603962D01*
X178603962Y-51915271D01*
X178359369Y-52281331D01*
X178190890Y-52688075D01*
X178105000Y-53119872D01*
X176522367Y-53119872D01*
X176529987Y-53112252D01*
X176708918Y-52844463D01*
X176832168Y-52546912D01*
X176895000Y-52231033D01*
X176895000Y-51908967D01*
X176832168Y-51593088D01*
X176708918Y-51295537D01*
X176529987Y-51027748D01*
X176302252Y-50800013D01*
X176034463Y-50621082D01*
X175736912Y-50497832D01*
X175421033Y-50435000D01*
X175098967Y-50435000D01*
X174783088Y-50497832D01*
X174485537Y-50621082D01*
X174217748Y-50800013D01*
X173990013Y-51027748D01*
X173811082Y-51295537D01*
X173687832Y-51593088D01*
X173625000Y-51908967D01*
X172395000Y-51908967D01*
X172332168Y-51593088D01*
X172208918Y-51295537D01*
X172029987Y-51027748D01*
X171802252Y-50800013D01*
X171534463Y-50621082D01*
X171236912Y-50497832D01*
X170921033Y-50435000D01*
X170598967Y-50435000D01*
X170283088Y-50497832D01*
X169985537Y-50621082D01*
X169717748Y-50800013D01*
X169490013Y-51027748D01*
X169311082Y-51295537D01*
X169187832Y-51593088D01*
X169125000Y-51908967D01*
X155399734Y-51908967D01*
X155094729Y-51603962D01*
X154728669Y-51359369D01*
X154321925Y-51190890D01*
X153890128Y-51105000D01*
X153449872Y-51105000D01*
X153018075Y-51190890D01*
X152611331Y-51359369D01*
X152245271Y-51603962D01*
X151933962Y-51915271D01*
X151689369Y-52281331D01*
X151520890Y-52688075D01*
X151435000Y-53119872D01*
X150545000Y-53119872D01*
X150545000Y-52036353D01*
X150535711Y-51942044D01*
X150558909Y-51705455D01*
X150664780Y-51354792D01*
X150836744Y-51031375D01*
X151068254Y-50747516D01*
X151350486Y-50514035D01*
X151672695Y-50339817D01*
X152022614Y-50231498D01*
X152269936Y-50205504D01*
X152366353Y-50215000D01*
%TA.AperFunction,Conductor*%
D21*
G36*
X152366353Y-50215000D02*
G01*
X181643647Y-50215000D01*
X181737956Y-50205711D01*
X181974545Y-50228909D01*
X182325208Y-50334780D01*
X182648625Y-50506744D01*
X182932484Y-50738254D01*
X183165965Y-51020486D01*
X183340183Y-51342695D01*
X183448502Y-51692614D01*
X183474496Y-51939937D01*
X183465000Y-52036354D01*
X183465001Y-120683647D01*
X183474289Y-120777951D01*
X183451091Y-121014545D01*
X183345220Y-121365206D01*
X183173257Y-121688623D01*
X182941748Y-121972482D01*
X182659514Y-122205965D01*
X182337304Y-122380184D01*
X181987385Y-122488502D01*
X181740064Y-122514496D01*
X181643647Y-122505000D01*
X152366353Y-122505000D01*
X152272044Y-122514289D01*
X152035455Y-122491091D01*
X151684794Y-122385220D01*
X151361377Y-122213257D01*
X151077518Y-121981748D01*
X150844035Y-121699514D01*
X150669816Y-121377304D01*
X150561498Y-121027385D01*
X150535504Y-120780064D01*
X150545000Y-120683647D01*
X150545000Y-115160475D01*
X151695000Y-115160475D01*
X151695000Y-115679525D01*
X151796261Y-116188601D01*
X151994893Y-116668141D01*
X152283262Y-117099715D01*
X152650285Y-117466738D01*
X153081859Y-117755107D01*
X153561399Y-117953739D01*
X154070475Y-118055000D01*
X154589525Y-118055000D01*
X155098601Y-117953739D01*
X155578141Y-117755107D01*
X156009715Y-117466738D01*
X156376738Y-117099715D01*
X156665107Y-116668141D01*
X156863739Y-116188601D01*
X156893297Y-116040000D01*
X159851928Y-116040000D01*
X159851928Y-117640000D01*
X159864188Y-117764482D01*
X159900498Y-117884180D01*
X159959463Y-117994494D01*
X160038815Y-118091185D01*
X160135506Y-118170537D01*
X160245820Y-118229502D01*
X160365518Y-118265812D01*
X160490000Y-118278072D01*
X162090000Y-118278072D01*
X162214482Y-118265812D01*
X162334180Y-118229502D01*
X162444494Y-118170537D01*
X162541185Y-118091185D01*
X162620537Y-117994494D01*
X162679502Y-117884180D01*
X162715812Y-117764482D01*
X162728072Y-117640000D01*
X162728072Y-117374275D01*
X162788320Y-117519727D01*
X162945363Y-117754759D01*
X163145241Y-117954637D01*
X163380273Y-118111680D01*
X163641426Y-118219853D01*
X163918665Y-118275000D01*
X164201335Y-118275000D01*
X164478574Y-118219853D01*
X164739727Y-118111680D01*
X164974759Y-117954637D01*
X165174637Y-117754759D01*
X165331680Y-117519727D01*
X165439853Y-117258574D01*
X165445000Y-117232699D01*
X165450147Y-117258574D01*
X165558320Y-117519727D01*
X165715363Y-117754759D01*
X165915241Y-117954637D01*
X166150273Y-118111680D01*
X166411426Y-118219853D01*
X166688665Y-118275000D01*
X166971335Y-118275000D01*
X167248574Y-118219853D01*
X167509727Y-118111680D01*
X167744759Y-117954637D01*
X167944637Y-117754759D01*
X168101680Y-117519727D01*
X168209853Y-117258574D01*
X168215000Y-117232699D01*
X168220147Y-117258574D01*
X168328320Y-117519727D01*
X168485363Y-117754759D01*
X168685241Y-117954637D01*
X168920273Y-118111680D01*
X169181426Y-118219853D01*
X169458665Y-118275000D01*
X169741335Y-118275000D01*
X170018574Y-118219853D01*
X170279727Y-118111680D01*
X170514759Y-117954637D01*
X170636694Y-117832702D01*
X171556903Y-117832702D01*
X171628486Y-118076671D01*
X171883996Y-118197571D01*
X172158184Y-118266300D01*
X172440512Y-118280217D01*
X172720130Y-118238787D01*
X172986292Y-118143603D01*
X173111514Y-118076671D01*
X173183097Y-117832702D01*
X172370000Y-117019605D01*
X171556903Y-117832702D01*
X170636694Y-117832702D01*
X170714637Y-117754759D01*
X170871680Y-117519727D01*
X170979853Y-117258574D01*
X170985513Y-117230118D01*
X171066397Y-117456292D01*
X171133329Y-117581514D01*
X171377298Y-117653097D01*
X172190395Y-116840000D01*
X172549605Y-116840000D01*
X173362702Y-117653097D01*
X173606671Y-117581514D01*
X173727571Y-117326004D01*
X173796300Y-117051816D01*
X173810217Y-116769488D01*
X173768787Y-116489870D01*
X173673603Y-116223708D01*
X173606671Y-116098486D01*
X173362702Y-116026903D01*
X172549605Y-116840000D01*
X172190395Y-116840000D01*
X171377298Y-116026903D01*
X171133329Y-116098486D01*
X171012429Y-116353996D01*
X170986788Y-116456289D01*
X170979853Y-116421426D01*
X170871680Y-116160273D01*
X170714637Y-115925241D01*
X170636694Y-115847298D01*
X171556903Y-115847298D01*
X172370000Y-116660395D01*
X173183097Y-115847298D01*
X173111514Y-115603329D01*
X172856004Y-115482429D01*
X172581816Y-115413700D01*
X172299488Y-115399783D01*
X172019870Y-115441213D01*
X171753708Y-115536397D01*
X171628486Y-115603329D01*
X171556903Y-115847298D01*
X170636694Y-115847298D01*
X170514759Y-115725363D01*
X170279727Y-115568320D01*
X170018574Y-115460147D01*
X169741335Y-115405000D01*
X169458665Y-115405000D01*
X169181426Y-115460147D01*
X168920273Y-115568320D01*
X168685241Y-115725363D01*
X168485363Y-115925241D01*
X168328320Y-116160273D01*
X168220147Y-116421426D01*
X168215000Y-116447301D01*
X168209853Y-116421426D01*
X168101680Y-116160273D01*
X167944637Y-115925241D01*
X167744759Y-115725363D01*
X167509727Y-115568320D01*
X167248574Y-115460147D01*
X166971335Y-115405000D01*
X166688665Y-115405000D01*
X166411426Y-115460147D01*
X166150273Y-115568320D01*
X165915241Y-115725363D01*
X165715363Y-115925241D01*
X165558320Y-116160273D01*
X165450147Y-116421426D01*
X165445000Y-116447301D01*
X165439853Y-116421426D01*
X165331680Y-116160273D01*
X165174637Y-115925241D01*
X164974759Y-115725363D01*
X164739727Y-115568320D01*
X164478574Y-115460147D01*
X164201335Y-115405000D01*
X163918665Y-115405000D01*
X163641426Y-115460147D01*
X163380273Y-115568320D01*
X163145241Y-115725363D01*
X162945363Y-115925241D01*
X162788320Y-116160273D01*
X162728072Y-116305725D01*
X162728072Y-116040000D01*
X162715812Y-115915518D01*
X162679502Y-115795820D01*
X162620537Y-115685506D01*
X162541185Y-115588815D01*
X162444494Y-115509463D01*
X162334180Y-115450498D01*
X162214482Y-115414188D01*
X162090000Y-115401928D01*
X160490000Y-115401928D01*
X160365518Y-115414188D01*
X160245820Y-115450498D01*
X160135506Y-115509463D01*
X160038815Y-115588815D01*
X159959463Y-115685506D01*
X159900498Y-115795820D01*
X159864188Y-115915518D01*
X159851928Y-116040000D01*
X156893297Y-116040000D01*
X156965000Y-115679525D01*
X156965000Y-115160475D01*
X156863739Y-114651399D01*
X156665107Y-114171859D01*
X156455838Y-113858665D01*
X161240000Y-113858665D01*
X161240000Y-114141335D01*
X161295147Y-114418574D01*
X161403320Y-114679727D01*
X161560363Y-114914759D01*
X161760241Y-115114637D01*
X161995273Y-115271680D01*
X162256426Y-115379853D01*
X162533665Y-115435000D01*
X162816335Y-115435000D01*
X163093574Y-115379853D01*
X163354727Y-115271680D01*
X163589759Y-115114637D01*
X163789637Y-114914759D01*
X163946680Y-114679727D01*
X164054853Y-114418574D01*
X164060000Y-114392699D01*
X164065147Y-114418574D01*
X164173320Y-114679727D01*
X164330363Y-114914759D01*
X164530241Y-115114637D01*
X164765273Y-115271680D01*
X165026426Y-115379853D01*
X165303665Y-115435000D01*
X165586335Y-115435000D01*
X165863574Y-115379853D01*
X166124727Y-115271680D01*
X166359759Y-115114637D01*
X166559637Y-114914759D01*
X166716680Y-114679727D01*
X166824853Y-114418574D01*
X166830000Y-114392699D01*
X166835147Y-114418574D01*
X166943320Y-114679727D01*
X167100363Y-114914759D01*
X167300241Y-115114637D01*
X167535273Y-115271680D01*
X167796426Y-115379853D01*
X168073665Y-115435000D01*
X168356335Y-115435000D01*
X168633574Y-115379853D01*
X168894727Y-115271680D01*
X169129759Y-115114637D01*
X169329637Y-114914759D01*
X169486680Y-114679727D01*
X169594853Y-114418574D01*
X169600000Y-114392699D01*
X169605147Y-114418574D01*
X169713320Y-114679727D01*
X169870363Y-114914759D01*
X170070241Y-115114637D01*
X170305273Y-115271680D01*
X170566426Y-115379853D01*
X170843665Y-115435000D01*
X171126335Y-115435000D01*
X171403574Y-115379853D01*
X171664727Y-115271680D01*
X171831157Y-115160475D01*
X176695000Y-115160475D01*
X176695000Y-115679525D01*
X176796261Y-116188601D01*
X176994893Y-116668141D01*
X177283262Y-117099715D01*
X177650285Y-117466738D01*
X178081859Y-117755107D01*
X178561399Y-117953739D01*
X179070475Y-118055000D01*
X179589525Y-118055000D01*
X180098601Y-117953739D01*
X180578141Y-117755107D01*
X181009715Y-117466738D01*
X181376738Y-117099715D01*
X181665107Y-116668141D01*
X181863739Y-116188601D01*
X181965000Y-115679525D01*
X181965000Y-115160475D01*
X181863739Y-114651399D01*
X181665107Y-114171859D01*
X181376738Y-113740285D01*
X181009715Y-113373262D01*
X180578141Y-113084893D01*
X180098601Y-112886261D01*
X179589525Y-112785000D01*
X179070475Y-112785000D01*
X178561399Y-112886261D01*
X178081859Y-113084893D01*
X177650285Y-113373262D01*
X177283262Y-113740285D01*
X176994893Y-114171859D01*
X176796261Y-114651399D01*
X176695000Y-115160475D01*
X171831157Y-115160475D01*
X171899759Y-115114637D01*
X172099637Y-114914759D01*
X172256680Y-114679727D01*
X172364853Y-114418574D01*
X172420000Y-114141335D01*
X172420000Y-113858665D01*
X172364853Y-113581426D01*
X172256680Y-113320273D01*
X172099637Y-113085241D01*
X171899759Y-112885363D01*
X171664727Y-112728320D01*
X171403574Y-112620147D01*
X171126335Y-112565000D01*
X170843665Y-112565000D01*
X170566426Y-112620147D01*
X170305273Y-112728320D01*
X170070241Y-112885363D01*
X169870363Y-113085241D01*
X169713320Y-113320273D01*
X169605147Y-113581426D01*
X169600000Y-113607301D01*
X169594853Y-113581426D01*
X169486680Y-113320273D01*
X169329637Y-113085241D01*
X169129759Y-112885363D01*
X168894727Y-112728320D01*
X168633574Y-112620147D01*
X168356335Y-112565000D01*
X168073665Y-112565000D01*
X167796426Y-112620147D01*
X167535273Y-112728320D01*
X167300241Y-112885363D01*
X167100363Y-113085241D01*
X166943320Y-113320273D01*
X166835147Y-113581426D01*
X166830000Y-113607301D01*
X166824853Y-113581426D01*
X166716680Y-113320273D01*
X166559637Y-113085241D01*
X166359759Y-112885363D01*
X166124727Y-112728320D01*
X165863574Y-112620147D01*
X165586335Y-112565000D01*
X165303665Y-112565000D01*
X165026426Y-112620147D01*
X164765273Y-112728320D01*
X164530241Y-112885363D01*
X164330363Y-113085241D01*
X164173320Y-113320273D01*
X164065147Y-113581426D01*
X164060000Y-113607301D01*
X164054853Y-113581426D01*
X163946680Y-113320273D01*
X163789637Y-113085241D01*
X163589759Y-112885363D01*
X163354727Y-112728320D01*
X163093574Y-112620147D01*
X162816335Y-112565000D01*
X162533665Y-112565000D01*
X162256426Y-112620147D01*
X161995273Y-112728320D01*
X161760241Y-112885363D01*
X161560363Y-113085241D01*
X161403320Y-113320273D01*
X161295147Y-113581426D01*
X161240000Y-113858665D01*
X156455838Y-113858665D01*
X156376738Y-113740285D01*
X156009715Y-113373262D01*
X155578141Y-113084893D01*
X155098601Y-112886261D01*
X154589525Y-112785000D01*
X154070475Y-112785000D01*
X153561399Y-112886261D01*
X153081859Y-113084893D01*
X152650285Y-113373262D01*
X152283262Y-113740285D01*
X151994893Y-114171859D01*
X151796261Y-114651399D01*
X151695000Y-115160475D01*
X150545000Y-115160475D01*
X150545000Y-91293740D01*
X152185000Y-91293740D01*
X152185000Y-91586260D01*
X152242068Y-91873158D01*
X152354010Y-92143411D01*
X152516525Y-92386632D01*
X152723368Y-92593475D01*
X152966589Y-92755990D01*
X153236842Y-92867932D01*
X153523740Y-92925000D01*
X153816260Y-92925000D01*
X154103158Y-92867932D01*
X154373411Y-92755990D01*
X154616632Y-92593475D01*
X154823475Y-92386632D01*
X154985990Y-92143411D01*
X155097932Y-91873158D01*
X155155000Y-91586260D01*
X155155000Y-91293740D01*
X155097932Y-91006842D01*
X154985990Y-90736589D01*
X154823475Y-90493368D01*
X154616632Y-90286525D01*
X154434466Y-90164805D01*
X154551355Y-90095178D01*
X154767588Y-89900269D01*
X154941641Y-89666920D01*
X155066825Y-89404099D01*
X155111476Y-89256890D01*
X154990155Y-89027000D01*
X153797000Y-89027000D01*
X153797000Y-89047000D01*
X153543000Y-89047000D01*
X153543000Y-89027000D01*
X152349845Y-89027000D01*
X152228524Y-89256890D01*
X152273175Y-89404099D01*
X152398359Y-89666920D01*
X152572412Y-89900269D01*
X152788645Y-90095178D01*
X152905534Y-90164805D01*
X152723368Y-90286525D01*
X152516525Y-90493368D01*
X152354010Y-90736589D01*
X152242068Y-91006842D01*
X152185000Y-91293740D01*
X150545000Y-91293740D01*
X150545000Y-75350000D01*
X152181928Y-75350000D01*
X152181928Y-77050000D01*
X152194188Y-77174482D01*
X152230498Y-77294180D01*
X152289463Y-77404494D01*
X152368815Y-77501185D01*
X152465506Y-77580537D01*
X152575820Y-77639502D01*
X152648380Y-77661513D01*
X152516525Y-77793368D01*
X152354010Y-78036589D01*
X152242068Y-78306842D01*
X152185000Y-78593740D01*
X152185000Y-78886260D01*
X152242068Y-79173158D01*
X152354010Y-79443411D01*
X152516525Y-79686632D01*
X152723368Y-79893475D01*
X152897760Y-80010000D01*
X152723368Y-80126525D01*
X152516525Y-80333368D01*
X152354010Y-80576589D01*
X152242068Y-80846842D01*
X152185000Y-81133740D01*
X152185000Y-81426260D01*
X152242068Y-81713158D01*
X152354010Y-81983411D01*
X152516525Y-82226632D01*
X152723368Y-82433475D01*
X152897760Y-82550000D01*
X152723368Y-82666525D01*
X152516525Y-82873368D01*
X152354010Y-83116589D01*
X152242068Y-83386842D01*
X152185000Y-83673740D01*
X152185000Y-83966260D01*
X152242068Y-84253158D01*
X152354010Y-84523411D01*
X152516525Y-84766632D01*
X152723368Y-84973475D01*
X152897760Y-85090000D01*
X152723368Y-85206525D01*
X152516525Y-85413368D01*
X152354010Y-85656589D01*
X152242068Y-85926842D01*
X152185000Y-86213740D01*
X152185000Y-86506260D01*
X152242068Y-86793158D01*
X152354010Y-87063411D01*
X152516525Y-87306632D01*
X152723368Y-87513475D01*
X152905534Y-87635195D01*
X152788645Y-87704822D01*
X152572412Y-87899731D01*
X152398359Y-88133080D01*
X152273175Y-88395901D01*
X152228524Y-88543110D01*
X152349845Y-88773000D01*
X153543000Y-88773000D01*
X153543000Y-88753000D01*
X153797000Y-88753000D01*
X153797000Y-88773000D01*
X154990155Y-88773000D01*
X155111476Y-88543110D01*
X155066825Y-88395901D01*
X154941641Y-88133080D01*
X154767588Y-87899731D01*
X154551355Y-87704822D01*
X154434466Y-87635195D01*
X154616632Y-87513475D01*
X154823475Y-87306632D01*
X154948178Y-87120000D01*
X158801957Y-87120000D01*
X158905363Y-87274759D01*
X159105241Y-87474637D01*
X159337759Y-87630000D01*
X159105241Y-87785363D01*
X158905363Y-87985241D01*
X158748320Y-88220273D01*
X158640147Y-88481426D01*
X158585000Y-88758665D01*
X158585000Y-89041335D01*
X158640147Y-89318574D01*
X158748320Y-89579727D01*
X158905363Y-89814759D01*
X159105241Y-90014637D01*
X159337759Y-90170000D01*
X159105241Y-90325363D01*
X158905363Y-90525241D01*
X158748320Y-90760273D01*
X158640147Y-91021426D01*
X158585000Y-91298665D01*
X158585000Y-91581335D01*
X158640147Y-91858574D01*
X158748320Y-92119727D01*
X158905363Y-92354759D01*
X159105241Y-92554637D01*
X159337759Y-92710000D01*
X159105241Y-92865363D01*
X158905363Y-93065241D01*
X158748320Y-93300273D01*
X158640147Y-93561426D01*
X158585000Y-93838665D01*
X158585000Y-94121335D01*
X158640147Y-94398574D01*
X158748320Y-94659727D01*
X158905363Y-94894759D01*
X159105241Y-95094637D01*
X159337759Y-95250000D01*
X159105241Y-95405363D01*
X158905363Y-95605241D01*
X158748320Y-95840273D01*
X158640147Y-96101426D01*
X158585000Y-96378665D01*
X158585000Y-96661335D01*
X158640147Y-96938574D01*
X158748320Y-97199727D01*
X158905363Y-97434759D01*
X159105241Y-97634637D01*
X159337759Y-97790000D01*
X159105241Y-97945363D01*
X158905363Y-98145241D01*
X158748320Y-98380273D01*
X158640147Y-98641426D01*
X158585000Y-98918665D01*
X158585000Y-99201335D01*
X158640147Y-99478574D01*
X158748320Y-99739727D01*
X158905363Y-99974759D01*
X159105241Y-100174637D01*
X159337759Y-100330000D01*
X159105241Y-100485363D01*
X158905363Y-100685241D01*
X158748320Y-100920273D01*
X158640147Y-101181426D01*
X158585000Y-101458665D01*
X158585000Y-101741335D01*
X158640147Y-102018574D01*
X158748320Y-102279727D01*
X158905363Y-102514759D01*
X159103961Y-102713357D01*
X159095518Y-102714188D01*
X158975820Y-102750498D01*
X158865506Y-102809463D01*
X158768815Y-102888815D01*
X158689463Y-102985506D01*
X158630498Y-103095820D01*
X158594188Y-103215518D01*
X158581928Y-103340000D01*
X158581928Y-104940000D01*
X158594188Y-105064482D01*
X158630498Y-105184180D01*
X158689463Y-105294494D01*
X158768815Y-105391185D01*
X158865506Y-105470537D01*
X158975820Y-105529502D01*
X159095518Y-105565812D01*
X159220000Y-105578072D01*
X160820000Y-105578072D01*
X160944482Y-105565812D01*
X161064180Y-105529502D01*
X161174494Y-105470537D01*
X161271185Y-105391185D01*
X161350537Y-105294494D01*
X161409502Y-105184180D01*
X161445812Y-105064482D01*
X161458072Y-104940000D01*
X161458072Y-104489039D01*
X173868096Y-104489039D01*
X173908754Y-104623087D01*
X174028963Y-104877420D01*
X174196481Y-105103414D01*
X174404869Y-105292385D01*
X174646119Y-105437070D01*
X174910960Y-105531909D01*
X175133000Y-105410624D01*
X175133000Y-104267000D01*
X175387000Y-104267000D01*
X175387000Y-105410624D01*
X175609040Y-105531909D01*
X175873881Y-105437070D01*
X176115131Y-105292385D01*
X176323519Y-105103414D01*
X176491037Y-104877420D01*
X176611246Y-104623087D01*
X176651904Y-104489039D01*
X176529915Y-104267000D01*
X175387000Y-104267000D01*
X175133000Y-104267000D01*
X173990085Y-104267000D01*
X173868096Y-104489039D01*
X161458072Y-104489039D01*
X161458072Y-103340000D01*
X161445812Y-103215518D01*
X161409502Y-103095820D01*
X161350537Y-102985506D01*
X161271185Y-102888815D01*
X161174494Y-102809463D01*
X161064180Y-102750498D01*
X160944482Y-102714188D01*
X160936039Y-102713357D01*
X161134637Y-102514759D01*
X161291680Y-102279727D01*
X161399853Y-102018574D01*
X161455000Y-101741335D01*
X161455000Y-101458665D01*
X161399853Y-101181426D01*
X161291680Y-100920273D01*
X161134637Y-100685241D01*
X160934759Y-100485363D01*
X160702241Y-100330000D01*
X160934759Y-100174637D01*
X161134637Y-99974759D01*
X161291680Y-99739727D01*
X161399853Y-99478574D01*
X161455000Y-99201335D01*
X161455000Y-98918665D01*
X161399853Y-98641426D01*
X161291680Y-98380273D01*
X161134637Y-98145241D01*
X160934759Y-97945363D01*
X160702241Y-97790000D01*
X160934759Y-97634637D01*
X161134637Y-97434759D01*
X161291680Y-97199727D01*
X161399853Y-96938574D01*
X161455000Y-96661335D01*
X161455000Y-96378665D01*
X161399853Y-96101426D01*
X161291680Y-95840273D01*
X161134637Y-95605241D01*
X160934759Y-95405363D01*
X160702241Y-95250000D01*
X160934759Y-95094637D01*
X161134637Y-94894759D01*
X161291680Y-94659727D01*
X161399853Y-94398574D01*
X161455000Y-94121335D01*
X161455000Y-93838665D01*
X161399853Y-93561426D01*
X161291680Y-93300273D01*
X161134637Y-93065241D01*
X160934759Y-92865363D01*
X160702241Y-92710000D01*
X160934759Y-92554637D01*
X161134637Y-92354759D01*
X161291680Y-92119727D01*
X161399853Y-91858574D01*
X161455000Y-91581335D01*
X161455000Y-91298665D01*
X161399853Y-91021426D01*
X161291680Y-90760273D01*
X161134637Y-90525241D01*
X160934759Y-90325363D01*
X160702241Y-90170000D01*
X160934759Y-90014637D01*
X161134637Y-89814759D01*
X161291680Y-89579727D01*
X161399853Y-89318574D01*
X161455000Y-89041335D01*
X161455000Y-88758665D01*
X161399853Y-88481426D01*
X161291680Y-88220273D01*
X161134637Y-87985241D01*
X160934759Y-87785363D01*
X160702241Y-87630000D01*
X160934759Y-87474637D01*
X161134637Y-87274759D01*
X161291680Y-87039727D01*
X161399853Y-86778574D01*
X161455000Y-86501335D01*
X161455000Y-86218665D01*
X161399853Y-85941426D01*
X161291680Y-85680273D01*
X161134637Y-85445241D01*
X161134600Y-85445204D01*
X174345204Y-72234600D01*
X174345241Y-72234637D01*
X174577759Y-72390000D01*
X174345241Y-72545363D01*
X174145363Y-72745241D01*
X173988320Y-72980273D01*
X173880147Y-73241426D01*
X173825000Y-73518665D01*
X173825000Y-73801335D01*
X173880147Y-74078574D01*
X173988320Y-74339727D01*
X174145363Y-74574759D01*
X174345241Y-74774637D01*
X174577759Y-74930000D01*
X174345241Y-75085363D01*
X174145363Y-75285241D01*
X173988320Y-75520273D01*
X173880147Y-75781426D01*
X173825000Y-76058665D01*
X173825000Y-76341335D01*
X173880147Y-76618574D01*
X173988320Y-76879727D01*
X174145363Y-77114759D01*
X174345241Y-77314637D01*
X174577759Y-77470000D01*
X174345241Y-77625363D01*
X174145363Y-77825241D01*
X173988320Y-78060273D01*
X173880147Y-78321426D01*
X173825000Y-78598665D01*
X173825000Y-78881335D01*
X173880147Y-79158574D01*
X173988320Y-79419727D01*
X174145363Y-79654759D01*
X174345241Y-79854637D01*
X174577759Y-80010000D01*
X174345241Y-80165363D01*
X174145363Y-80365241D01*
X173988320Y-80600273D01*
X173880147Y-80861426D01*
X173825000Y-81138665D01*
X173825000Y-81421335D01*
X173880147Y-81698574D01*
X173988320Y-81959727D01*
X174145363Y-82194759D01*
X174345241Y-82394637D01*
X174577759Y-82550000D01*
X174345241Y-82705363D01*
X174145363Y-82905241D01*
X173988320Y-83140273D01*
X173880147Y-83401426D01*
X173825000Y-83678665D01*
X173825000Y-83961335D01*
X173880147Y-84238574D01*
X173988320Y-84499727D01*
X174145363Y-84734759D01*
X174345241Y-84934637D01*
X174577759Y-85090000D01*
X174345241Y-85245363D01*
X174145363Y-85445241D01*
X173988320Y-85680273D01*
X173880147Y-85941426D01*
X173825000Y-86218665D01*
X173825000Y-86501335D01*
X173880147Y-86778574D01*
X173988320Y-87039727D01*
X174145363Y-87274759D01*
X174345241Y-87474637D01*
X174577759Y-87630000D01*
X174345241Y-87785363D01*
X174145363Y-87985241D01*
X173988320Y-88220273D01*
X173880147Y-88481426D01*
X173825000Y-88758665D01*
X173825000Y-89041335D01*
X173880147Y-89318574D01*
X173988320Y-89579727D01*
X174145363Y-89814759D01*
X174345241Y-90014637D01*
X174577759Y-90170000D01*
X174345241Y-90325363D01*
X174145363Y-90525241D01*
X173988320Y-90760273D01*
X173880147Y-91021426D01*
X173825000Y-91298665D01*
X173825000Y-91581335D01*
X173880147Y-91858574D01*
X173988320Y-92119727D01*
X174145363Y-92354759D01*
X174345241Y-92554637D01*
X174577759Y-92710000D01*
X174345241Y-92865363D01*
X174145363Y-93065241D01*
X173988320Y-93300273D01*
X173880147Y-93561426D01*
X173825000Y-93838665D01*
X173825000Y-94121335D01*
X173880147Y-94398574D01*
X173988320Y-94659727D01*
X174145363Y-94894759D01*
X174345241Y-95094637D01*
X174577759Y-95250000D01*
X174345241Y-95405363D01*
X174145363Y-95605241D01*
X173988320Y-95840273D01*
X173880147Y-96101426D01*
X173825000Y-96378665D01*
X173825000Y-96661335D01*
X173880147Y-96938574D01*
X173988320Y-97199727D01*
X174145363Y-97434759D01*
X174345241Y-97634637D01*
X174577759Y-97790000D01*
X174345241Y-97945363D01*
X174145363Y-98145241D01*
X173988320Y-98380273D01*
X173880147Y-98641426D01*
X173825000Y-98918665D01*
X173825000Y-99201335D01*
X173880147Y-99478574D01*
X173988320Y-99739727D01*
X174145363Y-99974759D01*
X174345241Y-100174637D01*
X174577759Y-100330000D01*
X174345241Y-100485363D01*
X174145363Y-100685241D01*
X173988320Y-100920273D01*
X173880147Y-101181426D01*
X173825000Y-101458665D01*
X173825000Y-101741335D01*
X173880147Y-102018574D01*
X173988320Y-102279727D01*
X174145363Y-102514759D01*
X174345241Y-102714637D01*
X174580273Y-102871680D01*
X174590865Y-102876067D01*
X174404869Y-102987615D01*
X174196481Y-103176586D01*
X174028963Y-103402580D01*
X173908754Y-103656913D01*
X173868096Y-103790961D01*
X173990085Y-104013000D01*
X175133000Y-104013000D01*
X175133000Y-103993000D01*
X175387000Y-103993000D01*
X175387000Y-104013000D01*
X176529915Y-104013000D01*
X176651904Y-103790961D01*
X176611246Y-103656913D01*
X176491037Y-103402580D01*
X176323519Y-103176586D01*
X176115131Y-102987615D01*
X175929135Y-102876067D01*
X175939727Y-102871680D01*
X176174759Y-102714637D01*
X176374637Y-102514759D01*
X176531680Y-102279727D01*
X176639853Y-102018574D01*
X176695000Y-101741335D01*
X176695000Y-101458665D01*
X176639853Y-101181426D01*
X176531680Y-100920273D01*
X176374637Y-100685241D01*
X176174759Y-100485363D01*
X175942241Y-100330000D01*
X176174759Y-100174637D01*
X176374637Y-99974759D01*
X176531680Y-99739727D01*
X176639853Y-99478574D01*
X176695000Y-99201335D01*
X176695000Y-98918665D01*
X176639853Y-98641426D01*
X176531680Y-98380273D01*
X176374637Y-98145241D01*
X176174759Y-97945363D01*
X175942241Y-97790000D01*
X176174759Y-97634637D01*
X176374637Y-97434759D01*
X176531680Y-97199727D01*
X176639853Y-96938574D01*
X176695000Y-96661335D01*
X176695000Y-96378665D01*
X176639853Y-96101426D01*
X176531680Y-95840273D01*
X176374637Y-95605241D01*
X176174759Y-95405363D01*
X175942241Y-95250000D01*
X176174759Y-95094637D01*
X176374637Y-94894759D01*
X176531680Y-94659727D01*
X176639853Y-94398574D01*
X176695000Y-94121335D01*
X176695000Y-93838665D01*
X176639853Y-93561426D01*
X176531680Y-93300273D01*
X176374637Y-93065241D01*
X176174759Y-92865363D01*
X175942241Y-92710000D01*
X176174759Y-92554637D01*
X176374637Y-92354759D01*
X176531680Y-92119727D01*
X176639853Y-91858574D01*
X176695000Y-91581335D01*
X176695000Y-91298665D01*
X176639853Y-91021426D01*
X176531680Y-90760273D01*
X176374637Y-90525241D01*
X176174759Y-90325363D01*
X175942241Y-90170000D01*
X176174759Y-90014637D01*
X176374637Y-89814759D01*
X176531680Y-89579727D01*
X176639853Y-89318574D01*
X176695000Y-89041335D01*
X176695000Y-88758665D01*
X176639853Y-88481426D01*
X176531680Y-88220273D01*
X176374637Y-87985241D01*
X176174759Y-87785363D01*
X175942241Y-87630000D01*
X176174759Y-87474637D01*
X176374637Y-87274759D01*
X176531680Y-87039727D01*
X176639853Y-86778574D01*
X176695000Y-86501335D01*
X176695000Y-86218665D01*
X176639853Y-85941426D01*
X176531680Y-85680273D01*
X176374637Y-85445241D01*
X176174759Y-85245363D01*
X175942241Y-85090000D01*
X176174759Y-84934637D01*
X176374637Y-84734759D01*
X176531680Y-84499727D01*
X176639853Y-84238574D01*
X176695000Y-83961335D01*
X176695000Y-83678665D01*
X176639853Y-83401426D01*
X176531680Y-83140273D01*
X176374637Y-82905241D01*
X176174759Y-82705363D01*
X175942241Y-82550000D01*
X176174759Y-82394637D01*
X176374637Y-82194759D01*
X176531680Y-81959727D01*
X176639853Y-81698574D01*
X176695000Y-81421335D01*
X176695000Y-81138665D01*
X176639853Y-80861426D01*
X176531680Y-80600273D01*
X176374637Y-80365241D01*
X176174759Y-80165363D01*
X175942241Y-80010000D01*
X176174759Y-79854637D01*
X176374637Y-79654759D01*
X176531680Y-79419727D01*
X176639853Y-79158574D01*
X176695000Y-78881335D01*
X176695000Y-78598665D01*
X176639853Y-78321426D01*
X176531680Y-78060273D01*
X176374637Y-77825241D01*
X176174759Y-77625363D01*
X175942241Y-77470000D01*
X176174759Y-77314637D01*
X176374637Y-77114759D01*
X176531680Y-76879727D01*
X176639853Y-76618574D01*
X176695000Y-76341335D01*
X176695000Y-76058665D01*
X176639853Y-75781426D01*
X176531680Y-75520273D01*
X176374637Y-75285241D01*
X176174759Y-75085363D01*
X175942241Y-74930000D01*
X176174759Y-74774637D01*
X176374637Y-74574759D01*
X176531680Y-74339727D01*
X176639853Y-74078574D01*
X176695000Y-73801335D01*
X176695000Y-73518665D01*
X176639853Y-73241426D01*
X176531680Y-72980273D01*
X176374637Y-72745241D01*
X176174759Y-72545363D01*
X175942241Y-72390000D01*
X176174759Y-72234637D01*
X176374637Y-72034759D01*
X176531680Y-71799727D01*
X176639853Y-71538574D01*
X176695000Y-71261335D01*
X176695000Y-70978665D01*
X176639853Y-70701426D01*
X176531680Y-70440273D01*
X176374637Y-70205241D01*
X176174759Y-70005363D01*
X175942241Y-69850000D01*
X176174759Y-69694637D01*
X176374637Y-69494759D01*
X176531680Y-69259727D01*
X176639853Y-68998574D01*
X176695000Y-68721335D01*
X176695000Y-68438665D01*
X176639853Y-68161426D01*
X176531680Y-67900273D01*
X176374637Y-67665241D01*
X176174759Y-67465363D01*
X175939727Y-67308320D01*
X175678574Y-67200147D01*
X175401335Y-67145000D01*
X175118665Y-67145000D01*
X174841426Y-67200147D01*
X174580273Y-67308320D01*
X174345241Y-67465363D01*
X174145363Y-67665241D01*
X173988320Y-67900273D01*
X173880147Y-68161426D01*
X173825000Y-68438665D01*
X173825000Y-68721335D01*
X173861312Y-68903887D01*
X173623997Y-69141202D01*
X173594999Y-69165000D01*
X173571201Y-69193998D01*
X173571200Y-69193999D01*
X173500025Y-69280725D01*
X173429453Y-69412755D01*
X173385997Y-69556016D01*
X173371323Y-69705001D01*
X173375000Y-69742333D01*
X173374999Y-71055201D01*
X161290978Y-83139223D01*
X161134637Y-82905241D01*
X160934759Y-82705363D01*
X160702241Y-82550000D01*
X160934759Y-82394637D01*
X161134637Y-82194759D01*
X161291680Y-81959727D01*
X161399853Y-81698574D01*
X161455000Y-81421335D01*
X161455000Y-81138665D01*
X161399853Y-80861426D01*
X161291680Y-80600273D01*
X161134637Y-80365241D01*
X161134600Y-80365204D01*
X162106015Y-79393789D01*
X162135012Y-79369992D01*
X162229985Y-79254267D01*
X162300557Y-79122238D01*
X162344014Y-78978977D01*
X162355011Y-78867324D01*
X162355011Y-78867315D01*
X162358687Y-78829992D01*
X162355011Y-78792669D01*
X162355011Y-72732334D01*
X162358687Y-72695011D01*
X162355011Y-72657688D01*
X162355011Y-72657678D01*
X162344014Y-72546025D01*
X162300557Y-72402764D01*
X162291603Y-72386013D01*
X162229985Y-72270734D01*
X162158810Y-72184008D01*
X162135012Y-72155010D01*
X162106014Y-72131212D01*
X161418688Y-71443886D01*
X161455000Y-71261335D01*
X161455000Y-70978665D01*
X161399853Y-70701426D01*
X161291680Y-70440273D01*
X161134637Y-70205241D01*
X160934759Y-70005363D01*
X160702241Y-69850000D01*
X160934759Y-69694637D01*
X161134637Y-69494759D01*
X161291680Y-69259727D01*
X161399853Y-68998574D01*
X161455000Y-68721335D01*
X161455000Y-68438665D01*
X161399853Y-68161426D01*
X161291680Y-67900273D01*
X161134637Y-67665241D01*
X160934759Y-67465363D01*
X160699727Y-67308320D01*
X160438574Y-67200147D01*
X160161335Y-67145000D01*
X159878665Y-67145000D01*
X159601426Y-67200147D01*
X159340273Y-67308320D01*
X159105241Y-67465363D01*
X158905363Y-67665241D01*
X158748320Y-67900273D01*
X158640147Y-68161426D01*
X158585000Y-68438665D01*
X158585000Y-68721335D01*
X158640147Y-68998574D01*
X158748320Y-69259727D01*
X158905363Y-69494759D01*
X159105241Y-69694637D01*
X159337759Y-69850000D01*
X159105241Y-70005363D01*
X158905363Y-70205241D01*
X158748320Y-70440273D01*
X158640147Y-70701426D01*
X158585000Y-70978665D01*
X158585000Y-71261335D01*
X158640147Y-71538574D01*
X158748320Y-71799727D01*
X158905363Y-72034759D01*
X158905400Y-72034796D01*
X157165199Y-73774998D01*
X155372324Y-73774998D01*
X155335001Y-73771322D01*
X155297678Y-73774998D01*
X155297669Y-73774998D01*
X155186016Y-73785995D01*
X155042755Y-73829452D01*
X154910726Y-73900024D01*
X154910724Y-73900025D01*
X154910725Y-73900025D01*
X154823998Y-73971199D01*
X154823994Y-73971203D01*
X154795001Y-73994997D01*
X154771207Y-74023990D01*
X154083270Y-74711928D01*
X152820000Y-74711928D01*
X152695518Y-74724188D01*
X152575820Y-74760498D01*
X152465506Y-74819463D01*
X152368815Y-74898815D01*
X152289463Y-74995506D01*
X152230498Y-75105820D01*
X152194188Y-75225518D01*
X152181928Y-75350000D01*
X150545000Y-75350000D01*
X150545000Y-58408967D01*
X169125000Y-58408967D01*
X169125000Y-58731033D01*
X169187832Y-59046912D01*
X169311082Y-59344463D01*
X169490013Y-59612252D01*
X169717748Y-59839987D01*
X169985537Y-60018918D01*
X170283088Y-60142168D01*
X170598967Y-60205000D01*
X170921033Y-60205000D01*
X171236912Y-60142168D01*
X171534463Y-60018918D01*
X171802252Y-59839987D01*
X172029987Y-59612252D01*
X172208918Y-59344463D01*
X172332168Y-59046912D01*
X172395000Y-58731033D01*
X172395000Y-58408967D01*
X173625000Y-58408967D01*
X173625000Y-58731033D01*
X173687832Y-59046912D01*
X173811082Y-59344463D01*
X173990013Y-59612252D01*
X174217748Y-59839987D01*
X174485537Y-60018918D01*
X174783088Y-60142168D01*
X175098967Y-60205000D01*
X175421033Y-60205000D01*
X175736912Y-60142168D01*
X176034463Y-60018918D01*
X176302252Y-59839987D01*
X176529987Y-59612252D01*
X176708918Y-59344463D01*
X176832168Y-59046912D01*
X176895000Y-58731033D01*
X176895000Y-58408967D01*
X176832168Y-58093088D01*
X176708918Y-57795537D01*
X176529987Y-57527748D01*
X176302252Y-57300013D01*
X176034463Y-57121082D01*
X175736912Y-56997832D01*
X175421033Y-56935000D01*
X175098967Y-56935000D01*
X174783088Y-56997832D01*
X174485537Y-57121082D01*
X174217748Y-57300013D01*
X173990013Y-57527748D01*
X173811082Y-57795537D01*
X173687832Y-58093088D01*
X173625000Y-58408967D01*
X172395000Y-58408967D01*
X172332168Y-58093088D01*
X172208918Y-57795537D01*
X172029987Y-57527748D01*
X171802252Y-57300013D01*
X171534463Y-57121082D01*
X171236912Y-56997832D01*
X170921033Y-56935000D01*
X170598967Y-56935000D01*
X170283088Y-56997832D01*
X169985537Y-57121082D01*
X169717748Y-57300013D01*
X169490013Y-57527748D01*
X169311082Y-57795537D01*
X169187832Y-58093088D01*
X169125000Y-58408967D01*
X150545000Y-58408967D01*
X150545000Y-56944080D01*
X159135525Y-56944080D01*
X159219208Y-57198261D01*
X159491775Y-57329158D01*
X159784642Y-57404365D01*
X160086553Y-57420991D01*
X160385907Y-57378397D01*
X160671199Y-57278222D01*
X160820792Y-57198261D01*
X160904475Y-56944080D01*
X160020000Y-56059605D01*
X159135525Y-56944080D01*
X150545000Y-56944080D01*
X150545000Y-55946553D01*
X158479009Y-55946553D01*
X158521603Y-56245907D01*
X158621778Y-56531199D01*
X158701739Y-56680792D01*
X158955920Y-56764475D01*
X159840395Y-55880000D01*
X160199605Y-55880000D01*
X161084080Y-56764475D01*
X161265049Y-56704895D01*
X161367688Y-56858505D01*
X161581495Y-57072312D01*
X161832905Y-57240299D01*
X162112257Y-57356011D01*
X162408816Y-57415000D01*
X162711184Y-57415000D01*
X163007743Y-57356011D01*
X163287095Y-57240299D01*
X163538505Y-57072312D01*
X163667922Y-56942895D01*
X163711325Y-57024097D01*
X163821570Y-57158430D01*
X163955903Y-57268675D01*
X164109162Y-57350593D01*
X164275458Y-57401039D01*
X164448400Y-57418072D01*
X165751600Y-57418072D01*
X165924542Y-57401039D01*
X166090838Y-57350593D01*
X166244097Y-57268675D01*
X166378430Y-57158430D01*
X166488675Y-57024097D01*
X166570593Y-56870838D01*
X166621039Y-56704542D01*
X166638072Y-56531600D01*
X166638072Y-55228400D01*
X166621039Y-55055458D01*
X166570593Y-54889162D01*
X166488675Y-54735903D01*
X166378430Y-54601570D01*
X166244097Y-54491325D01*
X166090838Y-54409407D01*
X165924542Y-54358961D01*
X165751600Y-54341928D01*
X164448400Y-54341928D01*
X164275458Y-54358961D01*
X164109162Y-54409407D01*
X163955903Y-54491325D01*
X163821570Y-54601570D01*
X163711325Y-54735903D01*
X163667922Y-54817105D01*
X163538505Y-54687688D01*
X163287095Y-54519701D01*
X163007743Y-54403989D01*
X162711184Y-54345000D01*
X162408816Y-54345000D01*
X162112257Y-54403989D01*
X161832905Y-54519701D01*
X161581495Y-54687688D01*
X161367688Y-54901495D01*
X161265049Y-55055105D01*
X161084080Y-54995525D01*
X160199605Y-55880000D01*
X159840395Y-55880000D01*
X158955920Y-54995525D01*
X158701739Y-55079208D01*
X158570842Y-55351775D01*
X158495635Y-55644642D01*
X158479009Y-55946553D01*
X150545000Y-55946553D01*
X150545000Y-53119872D01*
X151435000Y-53119872D01*
X151435000Y-53560128D01*
X151520890Y-53991925D01*
X151689369Y-54398669D01*
X151933962Y-54764729D01*
X152245271Y-55076038D01*
X152611331Y-55320631D01*
X153018075Y-55489110D01*
X153449872Y-55575000D01*
X153890128Y-55575000D01*
X154321925Y-55489110D01*
X154728669Y-55320631D01*
X155094729Y-55076038D01*
X155354847Y-54815920D01*
X159135525Y-54815920D01*
X160020000Y-55700395D01*
X160904475Y-54815920D01*
X160820792Y-54561739D01*
X160548225Y-54430842D01*
X160255358Y-54355635D01*
X159953447Y-54339009D01*
X159654093Y-54381603D01*
X159368801Y-54481778D01*
X159219208Y-54561739D01*
X159135525Y-54815920D01*
X155354847Y-54815920D01*
X155406038Y-54764729D01*
X155650631Y-54398669D01*
X155819110Y-53991925D01*
X155905000Y-53560128D01*
X155905000Y-53119872D01*
X155819110Y-52688075D01*
X155650631Y-52281331D01*
X155406038Y-51915271D01*
X155399734Y-51908967D01*
X169125000Y-51908967D01*
X169125000Y-52231033D01*
X169187832Y-52546912D01*
X169311082Y-52844463D01*
X169490013Y-53112252D01*
X169717748Y-53339987D01*
X169985537Y-53518918D01*
X170283088Y-53642168D01*
X170598967Y-53705000D01*
X170921033Y-53705000D01*
X171236912Y-53642168D01*
X171534463Y-53518918D01*
X171802252Y-53339987D01*
X172029987Y-53112252D01*
X172208918Y-52844463D01*
X172332168Y-52546912D01*
X172395000Y-52231033D01*
X172395000Y-51908967D01*
X173625000Y-51908967D01*
X173625000Y-52231033D01*
X173687832Y-52546912D01*
X173811082Y-52844463D01*
X173990013Y-53112252D01*
X174217748Y-53339987D01*
X174485537Y-53518918D01*
X174783088Y-53642168D01*
X175098967Y-53705000D01*
X175421033Y-53705000D01*
X175736912Y-53642168D01*
X176034463Y-53518918D01*
X176302252Y-53339987D01*
X176522367Y-53119872D01*
X178105000Y-53119872D01*
X178105000Y-53560128D01*
X178190890Y-53991925D01*
X178359369Y-54398669D01*
X178603962Y-54764729D01*
X178915271Y-55076038D01*
X179281331Y-55320631D01*
X179688075Y-55489110D01*
X180119872Y-55575000D01*
X180560128Y-55575000D01*
X180991925Y-55489110D01*
X181398669Y-55320631D01*
X181764729Y-55076038D01*
X182076038Y-54764729D01*
X182320631Y-54398669D01*
X182489110Y-53991925D01*
X182575000Y-53560128D01*
X182575000Y-53119872D01*
X182489110Y-52688075D01*
X182320631Y-52281331D01*
X182076038Y-51915271D01*
X181764729Y-51603962D01*
X181398669Y-51359369D01*
X180991925Y-51190890D01*
X180560128Y-51105000D01*
X180119872Y-51105000D01*
X179688075Y-51190890D01*
X179281331Y-51359369D01*
X178915271Y-51603962D01*
X178603962Y-51915271D01*
X178359369Y-52281331D01*
X178190890Y-52688075D01*
X178105000Y-53119872D01*
X176522367Y-53119872D01*
X176529987Y-53112252D01*
X176708918Y-52844463D01*
X176832168Y-52546912D01*
X176895000Y-52231033D01*
X176895000Y-51908967D01*
X176832168Y-51593088D01*
X176708918Y-51295537D01*
X176529987Y-51027748D01*
X176302252Y-50800013D01*
X176034463Y-50621082D01*
X175736912Y-50497832D01*
X175421033Y-50435000D01*
X175098967Y-50435000D01*
X174783088Y-50497832D01*
X174485537Y-50621082D01*
X174217748Y-50800013D01*
X173990013Y-51027748D01*
X173811082Y-51295537D01*
X173687832Y-51593088D01*
X173625000Y-51908967D01*
X172395000Y-51908967D01*
X172332168Y-51593088D01*
X172208918Y-51295537D01*
X172029987Y-51027748D01*
X171802252Y-50800013D01*
X171534463Y-50621082D01*
X171236912Y-50497832D01*
X170921033Y-50435000D01*
X170598967Y-50435000D01*
X170283088Y-50497832D01*
X169985537Y-50621082D01*
X169717748Y-50800013D01*
X169490013Y-51027748D01*
X169311082Y-51295537D01*
X169187832Y-51593088D01*
X169125000Y-51908967D01*
X155399734Y-51908967D01*
X155094729Y-51603962D01*
X154728669Y-51359369D01*
X154321925Y-51190890D01*
X153890128Y-51105000D01*
X153449872Y-51105000D01*
X153018075Y-51190890D01*
X152611331Y-51359369D01*
X152245271Y-51603962D01*
X151933962Y-51915271D01*
X151689369Y-52281331D01*
X151520890Y-52688075D01*
X151435000Y-53119872D01*
X150545000Y-53119872D01*
X150545000Y-52036353D01*
X150535711Y-51942044D01*
X150558909Y-51705455D01*
X150664780Y-51354792D01*
X150836744Y-51031375D01*
X151068254Y-50747516D01*
X151350486Y-50514035D01*
X151672695Y-50339817D01*
X152022614Y-50231498D01*
X152269936Y-50205504D01*
X152366353Y-50215000D01*
G37*
%TD.AperFunction*%
%TD*%
M02*
