%TF.GenerationSoftware,KiCad,Pcbnew,(5.1.10-1-10_14)*%
%TF.CreationDate,2021-11-08T14:23:05+11:00*%
%TF.ProjectId,bkm10iRduino_shield,626b6d31-3069-4526-9475-696e6f5f7368,rev?*%
%TF.SameCoordinates,Original*%
%TF.FileFunction,Legend,Top*%
%TF.FilePolarity,Positive*%
%FSLAX46Y46*%
G04 Gerber Fmt 4.6, Leading zero omitted, Abs format (unit mm)*
G04 Created by KiCad (PCBNEW (5.1.10-1-10_14)) date 2021-11-08 14:23:05*
%MOMM*%
%LPD*%
G01*
G04 APERTURE LIST*
%ADD10C,0.150000*%
%ADD11C,0.120000*%
G04 APERTURE END LIST*
D10*
X154043571Y-106099523D02*
X154091190Y-105956666D01*
X154138809Y-105909047D01*
X154234047Y-105861428D01*
X154376904Y-105861428D01*
X154472142Y-105909047D01*
X154519761Y-105956666D01*
X154567380Y-106051904D01*
X154567380Y-106432857D01*
X153567380Y-106432857D01*
X153567380Y-106099523D01*
X153615000Y-106004285D01*
X153662619Y-105956666D01*
X153757857Y-105909047D01*
X153853095Y-105909047D01*
X153948333Y-105956666D01*
X153995952Y-106004285D01*
X154043571Y-106099523D01*
X154043571Y-106432857D01*
X154567380Y-105432857D02*
X153567380Y-105432857D01*
X154567380Y-104861428D02*
X153995952Y-105290000D01*
X153567380Y-104861428D02*
X154138809Y-105432857D01*
X154567380Y-104432857D02*
X153567380Y-104432857D01*
X154281666Y-104099523D01*
X153567380Y-103766190D01*
X154567380Y-103766190D01*
X154186428Y-103290000D02*
X154186428Y-102528095D01*
X154567380Y-101528095D02*
X154567380Y-102099523D01*
X154567380Y-101813809D02*
X153567380Y-101813809D01*
X153710238Y-101909047D01*
X153805476Y-102004285D01*
X153853095Y-102099523D01*
X153567380Y-100909047D02*
X153567380Y-100813809D01*
X153615000Y-100718571D01*
X153662619Y-100670952D01*
X153757857Y-100623333D01*
X153948333Y-100575714D01*
X154186428Y-100575714D01*
X154376904Y-100623333D01*
X154472142Y-100670952D01*
X154519761Y-100718571D01*
X154567380Y-100813809D01*
X154567380Y-100909047D01*
X154519761Y-101004285D01*
X154472142Y-101051904D01*
X154376904Y-101099523D01*
X154186428Y-101147142D01*
X153948333Y-101147142D01*
X153757857Y-101099523D01*
X153662619Y-101051904D01*
X153615000Y-101004285D01*
X153567380Y-100909047D01*
X154567380Y-100147142D02*
X153900714Y-100147142D01*
X153567380Y-100147142D02*
X153615000Y-100194761D01*
X153662619Y-100147142D01*
X153615000Y-100099523D01*
X153567380Y-100147142D01*
X153662619Y-100147142D01*
X154567380Y-99099523D02*
X154091190Y-99432857D01*
X154567380Y-99670952D02*
X153567380Y-99670952D01*
X153567380Y-99290000D01*
X153615000Y-99194761D01*
X153662619Y-99147142D01*
X153757857Y-99099523D01*
X153900714Y-99099523D01*
X153995952Y-99147142D01*
X154043571Y-99194761D01*
X154091190Y-99290000D01*
X154091190Y-99670952D01*
X154567380Y-98242380D02*
X153567380Y-98242380D01*
X154519761Y-98242380D02*
X154567380Y-98337619D01*
X154567380Y-98528095D01*
X154519761Y-98623333D01*
X154472142Y-98670952D01*
X154376904Y-98718571D01*
X154091190Y-98718571D01*
X153995952Y-98670952D01*
X153948333Y-98623333D01*
X153900714Y-98528095D01*
X153900714Y-98337619D01*
X153948333Y-98242380D01*
X153900714Y-97337619D02*
X154567380Y-97337619D01*
X153900714Y-97766190D02*
X154424523Y-97766190D01*
X154519761Y-97718571D01*
X154567380Y-97623333D01*
X154567380Y-97480476D01*
X154519761Y-97385238D01*
X154472142Y-97337619D01*
X154567380Y-96861428D02*
X153900714Y-96861428D01*
X153567380Y-96861428D02*
X153615000Y-96909047D01*
X153662619Y-96861428D01*
X153615000Y-96813809D01*
X153567380Y-96861428D01*
X153662619Y-96861428D01*
X153900714Y-96385238D02*
X154567380Y-96385238D01*
X153995952Y-96385238D02*
X153948333Y-96337619D01*
X153900714Y-96242380D01*
X153900714Y-96099523D01*
X153948333Y-96004285D01*
X154043571Y-95956666D01*
X154567380Y-95956666D01*
X154567380Y-95337619D02*
X154519761Y-95432857D01*
X154472142Y-95480476D01*
X154376904Y-95528095D01*
X154091190Y-95528095D01*
X153995952Y-95480476D01*
X153948333Y-95432857D01*
X153900714Y-95337619D01*
X153900714Y-95194761D01*
X153948333Y-95099523D01*
X153995952Y-95051904D01*
X154091190Y-95004285D01*
X154376904Y-95004285D01*
X154472142Y-95051904D01*
X154519761Y-95099523D01*
X154567380Y-95194761D01*
X154567380Y-95337619D01*
X154948333Y-93528095D02*
X154900714Y-93575714D01*
X154757857Y-93670952D01*
X154662619Y-93718571D01*
X154519761Y-93766190D01*
X154281666Y-93813809D01*
X154091190Y-93813809D01*
X153853095Y-93766190D01*
X153710238Y-93718571D01*
X153615000Y-93670952D01*
X153472142Y-93575714D01*
X153424523Y-93528095D01*
X153662619Y-93194761D02*
X153615000Y-93147142D01*
X153567380Y-93051904D01*
X153567380Y-92813809D01*
X153615000Y-92718571D01*
X153662619Y-92670952D01*
X153757857Y-92623333D01*
X153853095Y-92623333D01*
X153995952Y-92670952D01*
X154567380Y-93242380D01*
X154567380Y-92623333D01*
X153567380Y-92004285D02*
X153567380Y-91909047D01*
X153615000Y-91813809D01*
X153662619Y-91766190D01*
X153757857Y-91718571D01*
X153948333Y-91670952D01*
X154186428Y-91670952D01*
X154376904Y-91718571D01*
X154472142Y-91766190D01*
X154519761Y-91813809D01*
X154567380Y-91909047D01*
X154567380Y-92004285D01*
X154519761Y-92099523D01*
X154472142Y-92147142D01*
X154376904Y-92194761D01*
X154186428Y-92242380D01*
X153948333Y-92242380D01*
X153757857Y-92194761D01*
X153662619Y-92147142D01*
X153615000Y-92099523D01*
X153567380Y-92004285D01*
X153662619Y-91290000D02*
X153615000Y-91242380D01*
X153567380Y-91147142D01*
X153567380Y-90909047D01*
X153615000Y-90813809D01*
X153662619Y-90766190D01*
X153757857Y-90718571D01*
X153853095Y-90718571D01*
X153995952Y-90766190D01*
X154567380Y-91337619D01*
X154567380Y-90718571D01*
X154567380Y-89766190D02*
X154567380Y-90337619D01*
X154567380Y-90051904D02*
X153567380Y-90051904D01*
X153710238Y-90147142D01*
X153805476Y-90242380D01*
X153853095Y-90337619D01*
X154948333Y-89432857D02*
X154900714Y-89385238D01*
X154757857Y-89290000D01*
X154662619Y-89242380D01*
X154519761Y-89194761D01*
X154281666Y-89147142D01*
X154091190Y-89147142D01*
X153853095Y-89194761D01*
X153710238Y-89242380D01*
X153615000Y-89290000D01*
X153472142Y-89385238D01*
X153424523Y-89432857D01*
X156217380Y-106123333D02*
X155693571Y-106123333D01*
X155598333Y-106170952D01*
X155550714Y-106266190D01*
X155550714Y-106456666D01*
X155598333Y-106551904D01*
X156169761Y-106123333D02*
X156217380Y-106218571D01*
X156217380Y-106456666D01*
X156169761Y-106551904D01*
X156074523Y-106599523D01*
X155979285Y-106599523D01*
X155884047Y-106551904D01*
X155836428Y-106456666D01*
X155836428Y-106218571D01*
X155788809Y-106123333D01*
X156217380Y-105218571D02*
X155693571Y-105218571D01*
X155598333Y-105266190D01*
X155550714Y-105361428D01*
X155550714Y-105551904D01*
X155598333Y-105647142D01*
X156169761Y-105218571D02*
X156217380Y-105313809D01*
X156217380Y-105551904D01*
X156169761Y-105647142D01*
X156074523Y-105694761D01*
X155979285Y-105694761D01*
X155884047Y-105647142D01*
X155836428Y-105551904D01*
X155836428Y-105313809D01*
X155788809Y-105218571D01*
X156217380Y-104742380D02*
X155550714Y-104742380D01*
X155741190Y-104742380D02*
X155645952Y-104694761D01*
X155598333Y-104647142D01*
X155550714Y-104551904D01*
X155550714Y-104456666D01*
X156217380Y-103980476D02*
X156169761Y-104075714D01*
X156122142Y-104123333D01*
X156026904Y-104170952D01*
X155741190Y-104170952D01*
X155645952Y-104123333D01*
X155598333Y-104075714D01*
X155550714Y-103980476D01*
X155550714Y-103837619D01*
X155598333Y-103742380D01*
X155645952Y-103694761D01*
X155741190Y-103647142D01*
X156026904Y-103647142D01*
X156122142Y-103694761D01*
X156169761Y-103742380D01*
X156217380Y-103837619D01*
X156217380Y-103980476D01*
X155550714Y-103218571D02*
X156217380Y-103218571D01*
X155645952Y-103218571D02*
X155598333Y-103170952D01*
X155550714Y-103075714D01*
X155550714Y-102932857D01*
X155598333Y-102837619D01*
X155693571Y-102790000D01*
X156217380Y-102790000D01*
X155741190Y-101694761D02*
X155693571Y-101742380D01*
X155645952Y-101837619D01*
X155645952Y-101932857D01*
X155693571Y-102028095D01*
X155741190Y-102075714D01*
X155836428Y-102123333D01*
X155931666Y-102123333D01*
X156026904Y-102075714D01*
X156074523Y-102028095D01*
X156122142Y-101932857D01*
X156122142Y-101837619D01*
X156074523Y-101742380D01*
X156026904Y-101694761D01*
X155645952Y-101694761D02*
X156026904Y-101694761D01*
X156074523Y-101647142D01*
X156074523Y-101599523D01*
X156026904Y-101504285D01*
X155931666Y-101456666D01*
X155693571Y-101456666D01*
X155550714Y-101551904D01*
X155455476Y-101694761D01*
X155407857Y-101885238D01*
X155455476Y-102075714D01*
X155550714Y-102218571D01*
X155693571Y-102313809D01*
X155884047Y-102361428D01*
X156074523Y-102313809D01*
X156217380Y-102218571D01*
X156312619Y-102075714D01*
X156360238Y-101885238D01*
X156312619Y-101694761D01*
X156217380Y-101551904D01*
X156217380Y-101028095D02*
X155217380Y-101028095D01*
X155598333Y-101028095D02*
X155550714Y-100932857D01*
X155550714Y-100742380D01*
X155598333Y-100647142D01*
X155645952Y-100599523D01*
X155741190Y-100551904D01*
X156026904Y-100551904D01*
X156122142Y-100599523D01*
X156169761Y-100647142D01*
X156217380Y-100742380D01*
X156217380Y-100932857D01*
X156169761Y-101028095D01*
X156217380Y-99980476D02*
X156169761Y-100075714D01*
X156122142Y-100123333D01*
X156026904Y-100170952D01*
X155741190Y-100170952D01*
X155645952Y-100123333D01*
X155598333Y-100075714D01*
X155550714Y-99980476D01*
X155550714Y-99837619D01*
X155598333Y-99742380D01*
X155645952Y-99694761D01*
X155741190Y-99647142D01*
X156026904Y-99647142D01*
X156122142Y-99694761D01*
X156169761Y-99742380D01*
X156217380Y-99837619D01*
X156217380Y-99980476D01*
X155550714Y-99218571D02*
X156217380Y-99218571D01*
X155645952Y-99218571D02*
X155598333Y-99170952D01*
X155550714Y-99075714D01*
X155550714Y-98932857D01*
X155598333Y-98837619D01*
X155693571Y-98790000D01*
X156217380Y-98790000D01*
X156217380Y-98313809D02*
X155217380Y-98313809D01*
X156217380Y-97885238D02*
X155693571Y-97885238D01*
X155598333Y-97932857D01*
X155550714Y-98028095D01*
X155550714Y-98170952D01*
X155598333Y-98266190D01*
X155645952Y-98313809D01*
X156217380Y-96980476D02*
X155693571Y-96980476D01*
X155598333Y-97028095D01*
X155550714Y-97123333D01*
X155550714Y-97313809D01*
X155598333Y-97409047D01*
X156169761Y-96980476D02*
X156217380Y-97075714D01*
X156217380Y-97313809D01*
X156169761Y-97409047D01*
X156074523Y-97456666D01*
X155979285Y-97456666D01*
X155884047Y-97409047D01*
X155836428Y-97313809D01*
X155836428Y-97075714D01*
X155788809Y-96980476D01*
X156217380Y-96504285D02*
X155550714Y-96504285D01*
X155645952Y-96504285D02*
X155598333Y-96456666D01*
X155550714Y-96361428D01*
X155550714Y-96218571D01*
X155598333Y-96123333D01*
X155693571Y-96075714D01*
X156217380Y-96075714D01*
X155693571Y-96075714D02*
X155598333Y-96028095D01*
X155550714Y-95932857D01*
X155550714Y-95790000D01*
X155598333Y-95694761D01*
X155693571Y-95647142D01*
X156217380Y-95647142D01*
X156122142Y-95170952D02*
X156169761Y-95123333D01*
X156217380Y-95170952D01*
X156169761Y-95218571D01*
X156122142Y-95170952D01*
X156217380Y-95170952D01*
X156169761Y-94266190D02*
X156217380Y-94361428D01*
X156217380Y-94551904D01*
X156169761Y-94647142D01*
X156122142Y-94694761D01*
X156026904Y-94742380D01*
X155741190Y-94742380D01*
X155645952Y-94694761D01*
X155598333Y-94647142D01*
X155550714Y-94551904D01*
X155550714Y-94361428D01*
X155598333Y-94266190D01*
X156217380Y-93694761D02*
X156169761Y-93790000D01*
X156122142Y-93837619D01*
X156026904Y-93885238D01*
X155741190Y-93885238D01*
X155645952Y-93837619D01*
X155598333Y-93790000D01*
X155550714Y-93694761D01*
X155550714Y-93551904D01*
X155598333Y-93456666D01*
X155645952Y-93409047D01*
X155741190Y-93361428D01*
X156026904Y-93361428D01*
X156122142Y-93409047D01*
X156169761Y-93456666D01*
X156217380Y-93551904D01*
X156217380Y-93694761D01*
X156217380Y-92932857D02*
X155550714Y-92932857D01*
X155645952Y-92932857D02*
X155598333Y-92885238D01*
X155550714Y-92790000D01*
X155550714Y-92647142D01*
X155598333Y-92551904D01*
X155693571Y-92504285D01*
X156217380Y-92504285D01*
X155693571Y-92504285D02*
X155598333Y-92456666D01*
X155550714Y-92361428D01*
X155550714Y-92218571D01*
X155598333Y-92123333D01*
X155693571Y-92075714D01*
X156217380Y-92075714D01*
X156122142Y-91599523D02*
X156169761Y-91551904D01*
X156217380Y-91599523D01*
X156169761Y-91647142D01*
X156122142Y-91599523D01*
X156217380Y-91599523D01*
X156217380Y-90694761D02*
X155693571Y-90694761D01*
X155598333Y-90742380D01*
X155550714Y-90837619D01*
X155550714Y-91028095D01*
X155598333Y-91123333D01*
X156169761Y-90694761D02*
X156217380Y-90790000D01*
X156217380Y-91028095D01*
X156169761Y-91123333D01*
X156074523Y-91170952D01*
X155979285Y-91170952D01*
X155884047Y-91123333D01*
X155836428Y-91028095D01*
X155836428Y-90790000D01*
X155788809Y-90694761D01*
X155550714Y-89790000D02*
X156217380Y-89790000D01*
X155550714Y-90218571D02*
X156074523Y-90218571D01*
X156169761Y-90170952D01*
X156217380Y-90075714D01*
X156217380Y-89932857D01*
X156169761Y-89837619D01*
X156122142Y-89790000D01*
D11*
X162560000Y-110490000D02*
X162560000Y-63500000D01*
X172720000Y-110490000D02*
X162560000Y-110490000D01*
X172720000Y-63500000D02*
X172720000Y-110490000D01*
X162560000Y-63500000D02*
X172720000Y-63500000D01*
%TO.C,R1*%
X166912936Y-114660000D02*
X168367064Y-114660000D01*
X166912936Y-116480000D02*
X168367064Y-116480000D01*
%TO.C,J1*%
X151345000Y-135990000D02*
X151345000Y-125510000D01*
X151345000Y-125510000D02*
X182315000Y-125510000D01*
X182315000Y-125510000D02*
X182315000Y-135990000D01*
X161040000Y-124615662D02*
X161540000Y-124615662D01*
X161540000Y-124615662D02*
X161290000Y-125048675D01*
X161290000Y-125048675D02*
X161040000Y-124615662D01*
%TO.C,D5*%
X155000000Y-62170000D02*
X152340000Y-62170000D01*
X155000000Y-77470000D02*
X155000000Y-62170000D01*
X152340000Y-77470000D02*
X152340000Y-62170000D01*
X155000000Y-77470000D02*
X152340000Y-77470000D01*
X155000000Y-78740000D02*
X155000000Y-80070000D01*
X155000000Y-80070000D02*
X153670000Y-80070000D01*
%TO.C,D4*%
X171315000Y-122467500D02*
X171315000Y-118407500D01*
X171315000Y-118407500D02*
X169045000Y-118407500D01*
X169045000Y-118407500D02*
X169045000Y-122467500D01*
%TO.C,D3*%
X166235000Y-122467500D02*
X166235000Y-118407500D01*
X166235000Y-118407500D02*
X163965000Y-118407500D01*
X163965000Y-118407500D02*
X163965000Y-122467500D01*
%TO.C,C1*%
X172230000Y-122410000D02*
X172930000Y-122410000D01*
X175750000Y-122410000D02*
X175050000Y-122410000D01*
X175750000Y-119779437D02*
X175750000Y-122410000D01*
X172230000Y-119779437D02*
X172230000Y-122410000D01*
X175050000Y-119079437D02*
X175750000Y-119779437D01*
X172930000Y-119079437D02*
X172230000Y-119779437D01*
X175425000Y-118275000D02*
X175425000Y-118650000D01*
X175612500Y-118462500D02*
X175237500Y-118462500D01*
%TO.C,SW1*%
X169760000Y-53070000D02*
X169760000Y-57570000D01*
X173760000Y-51820000D02*
X172260000Y-51820000D01*
X176260000Y-57570000D02*
X176260000Y-53070000D01*
X172260000Y-58820000D02*
X173760000Y-58820000D01*
%TO.C,U1*%
X165060000Y-53580000D02*
X165280000Y-53580000D01*
X159480000Y-57240000D02*
X162560000Y-57240000D01*
X159400000Y-53580000D02*
X159860000Y-53580000D01*
X159400000Y-53580000D02*
X159400000Y-54780000D01*
X165060000Y-53580000D02*
G75*
G03*
X159860000Y-53580000I-2600000J-1100000D01*
G01*
%TO.C,U2*%
D10*
X167092380Y-87121904D02*
X167901904Y-87121904D01*
X167997142Y-87074285D01*
X168044761Y-87026666D01*
X168092380Y-86931428D01*
X168092380Y-86740952D01*
X168044761Y-86645714D01*
X167997142Y-86598095D01*
X167901904Y-86550476D01*
X167092380Y-86550476D01*
X167187619Y-86121904D02*
X167140000Y-86074285D01*
X167092380Y-85979047D01*
X167092380Y-85740952D01*
X167140000Y-85645714D01*
X167187619Y-85598095D01*
X167282857Y-85550476D01*
X167378095Y-85550476D01*
X167520952Y-85598095D01*
X168092380Y-86169523D01*
X168092380Y-85550476D01*
X166822380Y-89479047D02*
X165822380Y-89479047D01*
X166536666Y-89145714D01*
X165822380Y-88812380D01*
X166822380Y-88812380D01*
X166536666Y-88383809D02*
X166536666Y-87907619D01*
X166822380Y-88479047D02*
X165822380Y-88145714D01*
X166822380Y-87812380D01*
X165822380Y-87574285D02*
X166822380Y-86907619D01*
X165822380Y-86907619D02*
X166822380Y-87574285D01*
X166155714Y-86098095D02*
X166822380Y-86098095D01*
X165774761Y-86336190D02*
X166489047Y-86574285D01*
X166489047Y-85955238D01*
X166250952Y-85431428D02*
X166203333Y-85526666D01*
X166155714Y-85574285D01*
X166060476Y-85621904D01*
X166012857Y-85621904D01*
X165917619Y-85574285D01*
X165870000Y-85526666D01*
X165822380Y-85431428D01*
X165822380Y-85240952D01*
X165870000Y-85145714D01*
X165917619Y-85098095D01*
X166012857Y-85050476D01*
X166060476Y-85050476D01*
X166155714Y-85098095D01*
X166203333Y-85145714D01*
X166250952Y-85240952D01*
X166250952Y-85431428D01*
X166298571Y-85526666D01*
X166346190Y-85574285D01*
X166441428Y-85621904D01*
X166631904Y-85621904D01*
X166727142Y-85574285D01*
X166774761Y-85526666D01*
X166822380Y-85431428D01*
X166822380Y-85240952D01*
X166774761Y-85145714D01*
X166727142Y-85098095D01*
X166631904Y-85050476D01*
X166441428Y-85050476D01*
X166346190Y-85098095D01*
X166298571Y-85145714D01*
X166250952Y-85240952D01*
X165822380Y-84145714D02*
X165822380Y-84621904D01*
X166298571Y-84669523D01*
X166250952Y-84621904D01*
X166203333Y-84526666D01*
X166203333Y-84288571D01*
X166250952Y-84193333D01*
X166298571Y-84145714D01*
X166393809Y-84098095D01*
X166631904Y-84098095D01*
X166727142Y-84145714D01*
X166774761Y-84193333D01*
X166822380Y-84288571D01*
X166822380Y-84526666D01*
X166774761Y-84621904D01*
X166727142Y-84669523D01*
X166298571Y-83669523D02*
X166298571Y-83336190D01*
X166822380Y-83193333D02*
X166822380Y-83669523D01*
X165822380Y-83669523D01*
X165822380Y-83193333D01*
X171902380Y-68794285D02*
X171426190Y-69127619D01*
X171902380Y-69365714D02*
X170902380Y-69365714D01*
X170902380Y-68984761D01*
X170950000Y-68889523D01*
X170997619Y-68841904D01*
X171092857Y-68794285D01*
X171235714Y-68794285D01*
X171330952Y-68841904D01*
X171378571Y-68889523D01*
X171426190Y-68984761D01*
X171426190Y-69365714D01*
X170902380Y-68175238D02*
X170902380Y-67984761D01*
X170950000Y-67889523D01*
X171045238Y-67794285D01*
X171235714Y-67746666D01*
X171569047Y-67746666D01*
X171759523Y-67794285D01*
X171854761Y-67889523D01*
X171902380Y-67984761D01*
X171902380Y-68175238D01*
X171854761Y-68270476D01*
X171759523Y-68365714D01*
X171569047Y-68413333D01*
X171235714Y-68413333D01*
X171045238Y-68365714D01*
X170950000Y-68270476D01*
X170902380Y-68175238D01*
X167995000Y-69532380D02*
X167995000Y-68532380D01*
X169362380Y-68722857D02*
X168886190Y-69056190D01*
X169362380Y-69294285D02*
X168362380Y-69294285D01*
X168362380Y-68913333D01*
X168410000Y-68818095D01*
X168457619Y-68770476D01*
X168552857Y-68722857D01*
X168695714Y-68722857D01*
X168790952Y-68770476D01*
X168838571Y-68818095D01*
X168886190Y-68913333D01*
X168886190Y-69294285D01*
X167995000Y-68532380D02*
X167995000Y-67627619D01*
X168838571Y-68294285D02*
X168838571Y-67960952D01*
X169362380Y-67818095D02*
X169362380Y-68294285D01*
X168362380Y-68294285D01*
X168362380Y-67818095D01*
X166822380Y-69294285D02*
X165822380Y-69294285D01*
X165822380Y-69056190D01*
X165870000Y-68913333D01*
X165965238Y-68818095D01*
X166060476Y-68770476D01*
X166250952Y-68722857D01*
X166393809Y-68722857D01*
X166584285Y-68770476D01*
X166679523Y-68818095D01*
X166774761Y-68913333D01*
X166822380Y-69056190D01*
X166822380Y-69294285D01*
X166298571Y-68294285D02*
X166298571Y-67960952D01*
X166822380Y-67818095D02*
X166822380Y-68294285D01*
X165822380Y-68294285D01*
X165822380Y-67818095D01*
X164282380Y-69080000D02*
X163282380Y-69080000D01*
X163282380Y-68841904D01*
X163330000Y-68699047D01*
X163425238Y-68603809D01*
X163520476Y-68556190D01*
X163710952Y-68508571D01*
X163853809Y-68508571D01*
X164044285Y-68556190D01*
X164139523Y-68603809D01*
X164234761Y-68699047D01*
X164282380Y-68841904D01*
X164282380Y-69080000D01*
X164282380Y-68080000D02*
X163282380Y-68080000D01*
X166536666Y-105648095D02*
X166536666Y-105171904D01*
X166822380Y-105743333D02*
X165822380Y-105410000D01*
X166822380Y-105076666D01*
X168838571Y-105338571D02*
X168886190Y-105195714D01*
X168933809Y-105148095D01*
X169029047Y-105100476D01*
X169171904Y-105100476D01*
X169267142Y-105148095D01*
X169314761Y-105195714D01*
X169362380Y-105290952D01*
X169362380Y-105671904D01*
X168362380Y-105671904D01*
X168362380Y-105338571D01*
X168410000Y-105243333D01*
X168457619Y-105195714D01*
X168552857Y-105148095D01*
X168648095Y-105148095D01*
X168743333Y-105195714D01*
X168790952Y-105243333D01*
X168838571Y-105338571D01*
X168838571Y-105671904D01*
X163330000Y-104901904D02*
X163282380Y-104997142D01*
X163282380Y-105140000D01*
X163330000Y-105282857D01*
X163425238Y-105378095D01*
X163520476Y-105425714D01*
X163710952Y-105473333D01*
X163853809Y-105473333D01*
X164044285Y-105425714D01*
X164139523Y-105378095D01*
X164234761Y-105282857D01*
X164282380Y-105140000D01*
X164282380Y-105044761D01*
X164234761Y-104901904D01*
X164187142Y-104854285D01*
X163853809Y-104854285D01*
X163853809Y-105044761D01*
X164282380Y-104425714D02*
X163282380Y-104425714D01*
X164282380Y-103854285D01*
X163282380Y-103854285D01*
X164282380Y-103378095D02*
X163282380Y-103378095D01*
X163282380Y-103140000D01*
X163330000Y-102997142D01*
X163425238Y-102901904D01*
X163520476Y-102854285D01*
X163710952Y-102806666D01*
X163853809Y-102806666D01*
X164044285Y-102854285D01*
X164139523Y-102901904D01*
X164234761Y-102997142D01*
X164282380Y-103140000D01*
X164282380Y-103378095D01*
X170902380Y-105473333D02*
X171902380Y-105140000D01*
X170902380Y-104806666D01*
X171807142Y-103901904D02*
X171854761Y-103949523D01*
X171902380Y-104092380D01*
X171902380Y-104187619D01*
X171854761Y-104330476D01*
X171759523Y-104425714D01*
X171664285Y-104473333D01*
X171473809Y-104520952D01*
X171330952Y-104520952D01*
X171140476Y-104473333D01*
X171045238Y-104425714D01*
X170950000Y-104330476D01*
X170902380Y-104187619D01*
X170902380Y-104092380D01*
X170950000Y-103949523D01*
X170997619Y-103901904D01*
X171807142Y-102901904D02*
X171854761Y-102949523D01*
X171902380Y-103092380D01*
X171902380Y-103187619D01*
X171854761Y-103330476D01*
X171759523Y-103425714D01*
X171664285Y-103473333D01*
X171473809Y-103520952D01*
X171330952Y-103520952D01*
X171140476Y-103473333D01*
X171045238Y-103425714D01*
X170950000Y-103330476D01*
X170902380Y-103187619D01*
X170902380Y-103092380D01*
X170950000Y-102949523D01*
X170997619Y-102901904D01*
%TO.C,R1*%
X168092380Y-113916666D02*
X167616190Y-114250000D01*
X168092380Y-114488095D02*
X167092380Y-114488095D01*
X167092380Y-114107142D01*
X167140000Y-114011904D01*
X167187619Y-113964285D01*
X167282857Y-113916666D01*
X167425714Y-113916666D01*
X167520952Y-113964285D01*
X167568571Y-114011904D01*
X167616190Y-114107142D01*
X167616190Y-114488095D01*
X168092380Y-112964285D02*
X168092380Y-113535714D01*
X168092380Y-113250000D02*
X167092380Y-113250000D01*
X167235238Y-113345238D01*
X167330476Y-113440476D01*
X167378095Y-113535714D01*
%TO.C,J1*%
X166496666Y-124022380D02*
X166496666Y-124736666D01*
X166449047Y-124879523D01*
X166353809Y-124974761D01*
X166210952Y-125022380D01*
X166115714Y-125022380D01*
X167496666Y-125022380D02*
X166925238Y-125022380D01*
X167210952Y-125022380D02*
X167210952Y-124022380D01*
X167115714Y-124165238D01*
X167020476Y-124260476D01*
X166925238Y-124308095D01*
%TO.C,D5*%
X152931904Y-81522380D02*
X152931904Y-80522380D01*
X153170000Y-80522380D01*
X153312857Y-80570000D01*
X153408095Y-80665238D01*
X153455714Y-80760476D01*
X153503333Y-80950952D01*
X153503333Y-81093809D01*
X153455714Y-81284285D01*
X153408095Y-81379523D01*
X153312857Y-81474761D01*
X153170000Y-81522380D01*
X152931904Y-81522380D01*
X154408095Y-80522380D02*
X153931904Y-80522380D01*
X153884285Y-80998571D01*
X153931904Y-80950952D01*
X154027142Y-80903333D01*
X154265238Y-80903333D01*
X154360476Y-80950952D01*
X154408095Y-80998571D01*
X154455714Y-81093809D01*
X154455714Y-81331904D01*
X154408095Y-81427142D01*
X154360476Y-81474761D01*
X154265238Y-81522380D01*
X154027142Y-81522380D01*
X153931904Y-81474761D01*
X153884285Y-81427142D01*
%TO.C,D4*%
X172452380Y-121605595D02*
X171452380Y-121605595D01*
X171452380Y-121367500D01*
X171500000Y-121224642D01*
X171595238Y-121129404D01*
X171690476Y-121081785D01*
X171880952Y-121034166D01*
X172023809Y-121034166D01*
X172214285Y-121081785D01*
X172309523Y-121129404D01*
X172404761Y-121224642D01*
X172452380Y-121367500D01*
X172452380Y-121605595D01*
X171785714Y-120177023D02*
X172452380Y-120177023D01*
X171404761Y-120415119D02*
X172119047Y-120653214D01*
X172119047Y-120034166D01*
%TO.C,D3*%
X167372380Y-121605595D02*
X166372380Y-121605595D01*
X166372380Y-121367500D01*
X166420000Y-121224642D01*
X166515238Y-121129404D01*
X166610476Y-121081785D01*
X166800952Y-121034166D01*
X166943809Y-121034166D01*
X167134285Y-121081785D01*
X167229523Y-121129404D01*
X167324761Y-121224642D01*
X167372380Y-121367500D01*
X167372380Y-121605595D01*
X166372380Y-120700833D02*
X166372380Y-120081785D01*
X166753333Y-120415119D01*
X166753333Y-120272261D01*
X166800952Y-120177023D01*
X166848571Y-120129404D01*
X166943809Y-120081785D01*
X167181904Y-120081785D01*
X167277142Y-120129404D01*
X167324761Y-120177023D01*
X167372380Y-120272261D01*
X167372380Y-120557976D01*
X167324761Y-120653214D01*
X167277142Y-120700833D01*
%TO.C,C1*%
X177047142Y-120816666D02*
X177094761Y-120864285D01*
X177142380Y-121007142D01*
X177142380Y-121102380D01*
X177094761Y-121245238D01*
X176999523Y-121340476D01*
X176904285Y-121388095D01*
X176713809Y-121435714D01*
X176570952Y-121435714D01*
X176380476Y-121388095D01*
X176285238Y-121340476D01*
X176190000Y-121245238D01*
X176142380Y-121102380D01*
X176142380Y-121007142D01*
X176190000Y-120864285D01*
X176237619Y-120816666D01*
X177142380Y-119864285D02*
X177142380Y-120435714D01*
X177142380Y-120150000D02*
X176142380Y-120150000D01*
X176285238Y-120245238D01*
X176380476Y-120340476D01*
X176428095Y-120435714D01*
%TO.C,SW1*%
X177664761Y-56653333D02*
X177712380Y-56510476D01*
X177712380Y-56272380D01*
X177664761Y-56177142D01*
X177617142Y-56129523D01*
X177521904Y-56081904D01*
X177426666Y-56081904D01*
X177331428Y-56129523D01*
X177283809Y-56177142D01*
X177236190Y-56272380D01*
X177188571Y-56462857D01*
X177140952Y-56558095D01*
X177093333Y-56605714D01*
X176998095Y-56653333D01*
X176902857Y-56653333D01*
X176807619Y-56605714D01*
X176760000Y-56558095D01*
X176712380Y-56462857D01*
X176712380Y-56224761D01*
X176760000Y-56081904D01*
X176712380Y-55748571D02*
X177712380Y-55510476D01*
X176998095Y-55320000D01*
X177712380Y-55129523D01*
X176712380Y-54891428D01*
X177712380Y-53986666D02*
X177712380Y-54558095D01*
X177712380Y-54272380D02*
X176712380Y-54272380D01*
X176855238Y-54367619D01*
X176950476Y-54462857D01*
X176998095Y-54558095D01*
%TO.C,U1*%
X161838095Y-57582380D02*
X161838095Y-58391904D01*
X161885714Y-58487142D01*
X161933333Y-58534761D01*
X162028571Y-58582380D01*
X162219047Y-58582380D01*
X162314285Y-58534761D01*
X162361904Y-58487142D01*
X162409523Y-58391904D01*
X162409523Y-57582380D01*
X163409523Y-58582380D02*
X162838095Y-58582380D01*
X163123809Y-58582380D02*
X163123809Y-57582380D01*
X163028571Y-57725238D01*
X162933333Y-57820476D01*
X162838095Y-57868095D01*
%TD*%
M02*
