%TF.GenerationSoftware,KiCad,Pcbnew,(5.1.10)-1*%
%TF.CreationDate,2022-01-15T14:59:42+11:00*%
%TF.ProjectId,BKM-10Rp2040 v2,424b4d2d-3130-4527-9032-303430207632,rev?*%
%TF.SameCoordinates,Original*%
%TF.FileFunction,Paste,Top*%
%TF.FilePolarity,Positive*%
%FSLAX46Y46*%
G04 Gerber Fmt 4.6, Leading zero omitted, Abs format (unit mm)*
G04 Created by KiCad (PCBNEW (5.1.10)-1) date 2022-01-15 14:59:42*
%MOMM*%
%LPD*%
G01*
G04 APERTURE LIST*
%ADD10R,0.600000X1.950000*%
G04 APERTURE END LIST*
%TO.C,C4*%
G36*
G01*
X113871500Y-128557000D02*
X113871500Y-129507000D01*
G75*
G02*
X113621500Y-129757000I-250000J0D01*
G01*
X112946500Y-129757000D01*
G75*
G02*
X112696500Y-129507000I0J250000D01*
G01*
X112696500Y-128557000D01*
G75*
G02*
X112946500Y-128307000I250000J0D01*
G01*
X113621500Y-128307000D01*
G75*
G02*
X113871500Y-128557000I0J-250000D01*
G01*
G37*
G36*
G01*
X115946500Y-128557000D02*
X115946500Y-129507000D01*
G75*
G02*
X115696500Y-129757000I-250000J0D01*
G01*
X115021500Y-129757000D01*
G75*
G02*
X114771500Y-129507000I0J250000D01*
G01*
X114771500Y-128557000D01*
G75*
G02*
X115021500Y-128307000I250000J0D01*
G01*
X115696500Y-128307000D01*
G75*
G02*
X115946500Y-128557000I0J-250000D01*
G01*
G37*
%TD*%
%TO.C,C2*%
G36*
G01*
X132809000Y-127587500D02*
X131859000Y-127587500D01*
G75*
G02*
X131609000Y-127337500I0J250000D01*
G01*
X131609000Y-126662500D01*
G75*
G02*
X131859000Y-126412500I250000J0D01*
G01*
X132809000Y-126412500D01*
G75*
G02*
X133059000Y-126662500I0J-250000D01*
G01*
X133059000Y-127337500D01*
G75*
G02*
X132809000Y-127587500I-250000J0D01*
G01*
G37*
G36*
G01*
X132809000Y-129662500D02*
X131859000Y-129662500D01*
G75*
G02*
X131609000Y-129412500I0J250000D01*
G01*
X131609000Y-128737500D01*
G75*
G02*
X131859000Y-128487500I250000J0D01*
G01*
X132809000Y-128487500D01*
G75*
G02*
X133059000Y-128737500I0J-250000D01*
G01*
X133059000Y-129412500D01*
G75*
G02*
X132809000Y-129662500I-250000J0D01*
G01*
G37*
%TD*%
%TO.C,U1*%
G36*
G01*
X130660000Y-123928000D02*
X130960000Y-123928000D01*
G75*
G02*
X131110000Y-124078000I0J-150000D01*
G01*
X131110000Y-125728000D01*
G75*
G02*
X130960000Y-125878000I-150000J0D01*
G01*
X130660000Y-125878000D01*
G75*
G02*
X130510000Y-125728000I0J150000D01*
G01*
X130510000Y-124078000D01*
G75*
G02*
X130660000Y-123928000I150000J0D01*
G01*
G37*
G36*
G01*
X129390000Y-123928000D02*
X129690000Y-123928000D01*
G75*
G02*
X129840000Y-124078000I0J-150000D01*
G01*
X129840000Y-125728000D01*
G75*
G02*
X129690000Y-125878000I-150000J0D01*
G01*
X129390000Y-125878000D01*
G75*
G02*
X129240000Y-125728000I0J150000D01*
G01*
X129240000Y-124078000D01*
G75*
G02*
X129390000Y-123928000I150000J0D01*
G01*
G37*
G36*
G01*
X128120000Y-123928000D02*
X128420000Y-123928000D01*
G75*
G02*
X128570000Y-124078000I0J-150000D01*
G01*
X128570000Y-125728000D01*
G75*
G02*
X128420000Y-125878000I-150000J0D01*
G01*
X128120000Y-125878000D01*
G75*
G02*
X127970000Y-125728000I0J150000D01*
G01*
X127970000Y-124078000D01*
G75*
G02*
X128120000Y-123928000I150000J0D01*
G01*
G37*
G36*
G01*
X126850000Y-123928000D02*
X127150000Y-123928000D01*
G75*
G02*
X127300000Y-124078000I0J-150000D01*
G01*
X127300000Y-125728000D01*
G75*
G02*
X127150000Y-125878000I-150000J0D01*
G01*
X126850000Y-125878000D01*
G75*
G02*
X126700000Y-125728000I0J150000D01*
G01*
X126700000Y-124078000D01*
G75*
G02*
X126850000Y-123928000I150000J0D01*
G01*
G37*
G36*
G01*
X125580000Y-123928000D02*
X125880000Y-123928000D01*
G75*
G02*
X126030000Y-124078000I0J-150000D01*
G01*
X126030000Y-125728000D01*
G75*
G02*
X125880000Y-125878000I-150000J0D01*
G01*
X125580000Y-125878000D01*
G75*
G02*
X125430000Y-125728000I0J150000D01*
G01*
X125430000Y-124078000D01*
G75*
G02*
X125580000Y-123928000I150000J0D01*
G01*
G37*
G36*
G01*
X124310000Y-123928000D02*
X124610000Y-123928000D01*
G75*
G02*
X124760000Y-124078000I0J-150000D01*
G01*
X124760000Y-125728000D01*
G75*
G02*
X124610000Y-125878000I-150000J0D01*
G01*
X124310000Y-125878000D01*
G75*
G02*
X124160000Y-125728000I0J150000D01*
G01*
X124160000Y-124078000D01*
G75*
G02*
X124310000Y-123928000I150000J0D01*
G01*
G37*
G36*
G01*
X123040000Y-123928000D02*
X123340000Y-123928000D01*
G75*
G02*
X123490000Y-124078000I0J-150000D01*
G01*
X123490000Y-125728000D01*
G75*
G02*
X123340000Y-125878000I-150000J0D01*
G01*
X123040000Y-125878000D01*
G75*
G02*
X122890000Y-125728000I0J150000D01*
G01*
X122890000Y-124078000D01*
G75*
G02*
X123040000Y-123928000I150000J0D01*
G01*
G37*
G36*
G01*
X123040000Y-118978000D02*
X123340000Y-118978000D01*
G75*
G02*
X123490000Y-119128000I0J-150000D01*
G01*
X123490000Y-120778000D01*
G75*
G02*
X123340000Y-120928000I-150000J0D01*
G01*
X123040000Y-120928000D01*
G75*
G02*
X122890000Y-120778000I0J150000D01*
G01*
X122890000Y-119128000D01*
G75*
G02*
X123040000Y-118978000I150000J0D01*
G01*
G37*
G36*
G01*
X124310000Y-118978000D02*
X124610000Y-118978000D01*
G75*
G02*
X124760000Y-119128000I0J-150000D01*
G01*
X124760000Y-120778000D01*
G75*
G02*
X124610000Y-120928000I-150000J0D01*
G01*
X124310000Y-120928000D01*
G75*
G02*
X124160000Y-120778000I0J150000D01*
G01*
X124160000Y-119128000D01*
G75*
G02*
X124310000Y-118978000I150000J0D01*
G01*
G37*
G36*
G01*
X125580000Y-118978000D02*
X125880000Y-118978000D01*
G75*
G02*
X126030000Y-119128000I0J-150000D01*
G01*
X126030000Y-120778000D01*
G75*
G02*
X125880000Y-120928000I-150000J0D01*
G01*
X125580000Y-120928000D01*
G75*
G02*
X125430000Y-120778000I0J150000D01*
G01*
X125430000Y-119128000D01*
G75*
G02*
X125580000Y-118978000I150000J0D01*
G01*
G37*
G36*
G01*
X126850000Y-118978000D02*
X127150000Y-118978000D01*
G75*
G02*
X127300000Y-119128000I0J-150000D01*
G01*
X127300000Y-120778000D01*
G75*
G02*
X127150000Y-120928000I-150000J0D01*
G01*
X126850000Y-120928000D01*
G75*
G02*
X126700000Y-120778000I0J150000D01*
G01*
X126700000Y-119128000D01*
G75*
G02*
X126850000Y-118978000I150000J0D01*
G01*
G37*
G36*
G01*
X128120000Y-118978000D02*
X128420000Y-118978000D01*
G75*
G02*
X128570000Y-119128000I0J-150000D01*
G01*
X128570000Y-120778000D01*
G75*
G02*
X128420000Y-120928000I-150000J0D01*
G01*
X128120000Y-120928000D01*
G75*
G02*
X127970000Y-120778000I0J150000D01*
G01*
X127970000Y-119128000D01*
G75*
G02*
X128120000Y-118978000I150000J0D01*
G01*
G37*
G36*
G01*
X129390000Y-118978000D02*
X129690000Y-118978000D01*
G75*
G02*
X129840000Y-119128000I0J-150000D01*
G01*
X129840000Y-120778000D01*
G75*
G02*
X129690000Y-120928000I-150000J0D01*
G01*
X129390000Y-120928000D01*
G75*
G02*
X129240000Y-120778000I0J150000D01*
G01*
X129240000Y-119128000D01*
G75*
G02*
X129390000Y-118978000I150000J0D01*
G01*
G37*
D10*
X130810000Y-119953000D03*
%TD*%
%TO.C,R2*%
G36*
G01*
X123814000Y-128914999D02*
X123814000Y-130165001D01*
G75*
G02*
X123564001Y-130415000I-249999J0D01*
G01*
X122763999Y-130415000D01*
G75*
G02*
X122514000Y-130165001I0J249999D01*
G01*
X122514000Y-128914999D01*
G75*
G02*
X122763999Y-128665000I249999J0D01*
G01*
X123564001Y-128665000D01*
G75*
G02*
X123814000Y-128914999I0J-249999D01*
G01*
G37*
G36*
G01*
X126914000Y-128914999D02*
X126914000Y-130165001D01*
G75*
G02*
X126664001Y-130415000I-249999J0D01*
G01*
X125863999Y-130415000D01*
G75*
G02*
X125614000Y-130165001I0J249999D01*
G01*
X125614000Y-128914999D01*
G75*
G02*
X125863999Y-128665000I249999J0D01*
G01*
X126664001Y-128665000D01*
G75*
G02*
X126914000Y-128914999I0J-249999D01*
G01*
G37*
%TD*%
M02*
