M48
; DRILL file {KiCad (5.1.10)-1} date 01/15/22 14:59:52
; FORMAT={-:-/ absolute / inch / decimal}
; #@! TF.CreationDate,2022-01-15T14:59:52+11:00
; #@! TF.GenerationSoftware,Kicad,Pcbnew,(5.1.10)-1
; #@! TF.FileFunction,Plated,1,2,PTH
FMAT,2
INCH
T1C0.0157
T2C0.0354
T3C0.0394
T4C0.0402
T5C0.0433
T6C0.0866
T7C0.1260
%
G90
G05
T1
X4.95Y-3.84
X5.0Y-5.03
X5.05Y-5.03
X5.1Y-3.95
X5.21Y-4.92
T2
X4.54Y-4.79
X4.54Y-4.89
X4.54Y-4.99
T3
X4.45Y-3.65
X4.45Y-3.75
X4.45Y-3.85
X4.45Y-3.95
X4.8138Y-5.425
X4.8683Y-5.3132
X4.9228Y-5.425
X4.9774Y-5.3132
X5.0319Y-5.425
X5.0864Y-5.3132
X5.1409Y-5.425
X5.1955Y-5.3132
X5.25Y-5.425
T4
X4.68Y-2.69
X4.68Y-2.79
X4.68Y-2.89
X4.68Y-2.99
X4.68Y-3.09
X4.68Y-3.19
X4.68Y-3.29
X4.68Y-3.39
X4.68Y-3.49
X4.68Y-3.59
X4.68Y-3.69
X4.68Y-3.79
X4.68Y-3.89
X4.68Y-3.99
X4.68Y-4.09
X4.68Y-4.19
X4.68Y-4.29
X4.68Y-4.39
X4.68Y-4.49
X4.68Y-4.59
X5.38Y-2.69
X5.38Y-2.79
X5.38Y-2.89
X5.38Y-2.99
X5.38Y-3.09
X5.38Y-3.19
X5.38Y-3.29
X5.38Y-3.39
X5.38Y-3.49
X5.38Y-3.59
X5.38Y-3.69
X5.38Y-3.79
X5.38Y-3.89
X5.38Y-3.99
X5.38Y-4.09
X5.38Y-4.19
X5.38Y-4.29
X5.38Y-4.39
X5.38Y-4.49
X5.38Y-4.59
T5
X5.3528Y-4.75
X5.3528Y-5.0059
X5.53Y-4.75
X5.53Y-5.0059
T6
X4.47Y-2.73
X5.58Y-2.73
T7
X4.5398Y-5.3691
X5.524Y-5.3691
T0
M30
