%TF.GenerationSoftware,KiCad,Pcbnew,(5.1.10)-1*%
%TF.CreationDate,2022-01-15T14:59:42+11:00*%
%TF.ProjectId,BKM-10Rp2040 v2,424b4d2d-3130-4527-9032-303430207632,rev?*%
%TF.SameCoordinates,Original*%
%TF.FileFunction,Soldermask,Bot*%
%TF.FilePolarity,Negative*%
%FSLAX46Y46*%
G04 Gerber Fmt 4.6, Leading zero omitted, Abs format (unit mm)*
G04 Created by KiCad (PCBNEW (5.1.10)-1) date 2022-01-15 14:59:42*
%MOMM*%
%LPD*%
G01*
G04 APERTURE LIST*
%ADD10C,3.500000*%
%ADD11O,1.700000X1.700000*%
%ADD12R,1.700000X3.500000*%
%ADD13R,1.700000X1.700000*%
%ADD14O,1.500000X1.500000*%
%ADD15O,1.800000X1.800000*%
%ADD16R,3.500000X1.700000*%
%ADD17C,1.800000*%
%ADD18C,2.000000*%
%ADD19C,4.000000*%
%ADD20C,1.600000*%
%ADD21R,1.600000X1.600000*%
G04 APERTURE END LIST*
D10*
%TO.C,H1*%
X141732000Y-69342000D03*
%TD*%
%TO.C,H1*%
X113538000Y-69342000D03*
%TD*%
D11*
%TO.C,U2*%
X125222000Y-116356000D03*
D12*
X125222000Y-117256000D03*
D13*
X127762000Y-116356000D03*
D12*
X127762000Y-117256000D03*
D11*
X130302000Y-116356000D03*
D12*
X130302000Y-117256000D03*
D14*
X125337000Y-71486000D03*
X130187000Y-71486000D03*
D15*
X125037000Y-68456000D03*
X130487000Y-68456000D03*
D16*
X117972000Y-116586000D03*
X117972000Y-114046000D03*
X117972000Y-111506000D03*
X117972000Y-108966000D03*
X117972000Y-106426000D03*
X117972000Y-103886000D03*
X117972000Y-101346000D03*
X117972000Y-98806000D03*
X117972000Y-96266000D03*
X117972000Y-93726000D03*
X117972000Y-91186000D03*
X117972000Y-88646000D03*
X117972000Y-86106000D03*
X117972000Y-83566000D03*
X117972000Y-81026000D03*
X117972000Y-78486000D03*
X117972000Y-75946000D03*
X117972000Y-73406000D03*
X117972000Y-70866000D03*
X117972000Y-68326000D03*
X137552000Y-116586000D03*
X137552000Y-114046000D03*
X137552000Y-111506000D03*
X137552000Y-108966000D03*
X137552000Y-106426000D03*
X137552000Y-103886000D03*
X137552000Y-101346000D03*
X137552000Y-98806000D03*
X137552000Y-96266000D03*
X137552000Y-93726000D03*
X137552000Y-91186000D03*
X137552000Y-88646000D03*
X137552000Y-86106000D03*
X137552000Y-83566000D03*
X137552000Y-81026000D03*
X137552000Y-78486000D03*
X137552000Y-75946000D03*
X137552000Y-73406000D03*
X137552000Y-70866000D03*
X137552000Y-68326000D03*
D11*
X118872000Y-68326000D03*
X118872000Y-70866000D03*
D13*
X118872000Y-73406000D03*
D11*
X118872000Y-75946000D03*
X118872000Y-78486000D03*
X118872000Y-81026000D03*
X118872000Y-83566000D03*
D13*
X118872000Y-86106000D03*
D11*
X118872000Y-88646000D03*
X118872000Y-91186000D03*
X118872000Y-93726000D03*
X118872000Y-96266000D03*
D13*
X118872000Y-98806000D03*
D11*
X118872000Y-101346000D03*
X118872000Y-103886000D03*
X118872000Y-106426000D03*
X118872000Y-108966000D03*
D13*
X118872000Y-111506000D03*
D11*
X118872000Y-114046000D03*
X118872000Y-116586000D03*
X136652000Y-116586000D03*
X136652000Y-114046000D03*
D13*
X136652000Y-111506000D03*
D11*
X136652000Y-108966000D03*
X136652000Y-106426000D03*
X136652000Y-103886000D03*
X136652000Y-101346000D03*
D13*
X136652000Y-98806000D03*
D11*
X136652000Y-96266000D03*
X136652000Y-93726000D03*
X136652000Y-91186000D03*
X136652000Y-88646000D03*
D13*
X136652000Y-86106000D03*
D11*
X136652000Y-83566000D03*
X136652000Y-81026000D03*
X136652000Y-78486000D03*
X136652000Y-75946000D03*
D13*
X136652000Y-73406000D03*
D11*
X136652000Y-70866000D03*
X136652000Y-68326000D03*
%TD*%
%TO.C,J2*%
X113030000Y-92710000D03*
X113030000Y-95250000D03*
X113030000Y-97790000D03*
D13*
X113030000Y-100330000D03*
%TD*%
D17*
%TO.C,U3*%
X115316000Y-126746000D03*
X115316000Y-124206000D03*
G36*
G01*
X114666200Y-120766000D02*
X115965800Y-120766000D01*
G75*
G02*
X116216000Y-121016200I0J-250200D01*
G01*
X116216000Y-122315800D01*
G75*
G02*
X115965800Y-122566000I-250200J0D01*
G01*
X114666200Y-122566000D01*
G75*
G02*
X114416000Y-122315800I0J250200D01*
G01*
X114416000Y-121016200D01*
G75*
G02*
X114666200Y-120766000I250200J0D01*
G01*
G37*
%TD*%
D18*
%TO.C,SW1*%
X140462000Y-127150000D03*
X135962000Y-127150000D03*
X140462000Y-120650000D03*
X135962000Y-120650000D03*
%TD*%
D19*
%TO.C,J1*%
X140310000Y-136375000D03*
X115310000Y-136375000D03*
D20*
X123655000Y-134955000D03*
X126425000Y-134955000D03*
X129195000Y-134955000D03*
X131965000Y-134955000D03*
X122270000Y-137795000D03*
X125040000Y-137795000D03*
X127810000Y-137795000D03*
X130580000Y-137795000D03*
D21*
X133350000Y-137795000D03*
%TD*%
M02*
