%TF.GenerationSoftware,KiCad,Pcbnew,(5.1.10)-1*%
%TF.CreationDate,2021-12-02T15:45:15+11:00*%
%TF.ProjectId,BKM-10Rp2040,424b4d2d-3130-4527-9032-3034302e6b69,rev?*%
%TF.SameCoordinates,Original*%
%TF.FileFunction,Copper,L2,Bot*%
%TF.FilePolarity,Positive*%
%FSLAX46Y46*%
G04 Gerber Fmt 4.6, Leading zero omitted, Abs format (unit mm)*
G04 Created by KiCad (PCBNEW (5.1.10)-1) date 2021-12-02 15:45:15*
%MOMM*%
%LPD*%
G01*
G04 APERTURE LIST*
%TA.AperFunction,ComponentPad*%
%ADD10C,3.500000*%
%TD*%
%TA.AperFunction,SMDPad,CuDef*%
%ADD11O,1.700000X1.700000*%
%TD*%
%TA.AperFunction,SMDPad,CuDef*%
%ADD12R,1.700000X3.500000*%
%TD*%
%TA.AperFunction,SMDPad,CuDef*%
%ADD13R,1.700000X1.700000*%
%TD*%
%TA.AperFunction,SMDPad,CuDef*%
%ADD14R,3.500000X1.700000*%
%TD*%
%TA.AperFunction,ComponentPad*%
%ADD15O,1.700000X1.700000*%
%TD*%
%TA.AperFunction,ComponentPad*%
%ADD16R,1.700000X1.700000*%
%TD*%
%TA.AperFunction,ComponentPad*%
%ADD17C,1.800000*%
%TD*%
%TA.AperFunction,ComponentPad*%
%ADD18C,2.000000*%
%TD*%
%TA.AperFunction,ComponentPad*%
%ADD19C,4.000000*%
%TD*%
%TA.AperFunction,ComponentPad*%
%ADD20C,1.600000*%
%TD*%
%TA.AperFunction,ComponentPad*%
%ADD21R,1.600000X1.600000*%
%TD*%
%TA.AperFunction,ViaPad*%
%ADD22C,0.800000*%
%TD*%
%TA.AperFunction,Conductor*%
%ADD23C,0.250000*%
%TD*%
%TA.AperFunction,Conductor*%
%ADD24C,0.254000*%
%TD*%
%TA.AperFunction,Conductor*%
%ADD25C,0.100000*%
%TD*%
G04 APERTURE END LIST*
D10*
%TO.P,H1,1*%
%TO.N,GND*%
X128315720Y-65000000D03*
%TD*%
D11*
%TO.P,U2,43*%
%TO.N,Net-(U2-Pad43)*%
X127244999Y-124095000D03*
D12*
X127244999Y-124995000D03*
D13*
%TO.P,U2,42*%
%TO.N,Net-(U2-Pad42)*%
X129784999Y-124095000D03*
D12*
X129784999Y-124995000D03*
D11*
%TO.P,U2,41*%
%TO.N,Net-(U2-Pad41)*%
X132324999Y-124095000D03*
D12*
X132324999Y-124995000D03*
D14*
%TO.P,U2,21*%
%TO.N,Net-(U2-Pad21)*%
X119994999Y-124325000D03*
%TO.P,U2,22*%
%TO.N,Net-(U2-Pad22)*%
X119994999Y-121785000D03*
%TO.P,U2,23*%
%TO.N,GND*%
X119994999Y-119245000D03*
%TO.P,U2,24*%
%TO.N,Net-(U2-Pad24)*%
X119994999Y-116705000D03*
%TO.P,U2,25*%
%TO.N,Net-(U2-Pad25)*%
X119994999Y-114165000D03*
%TO.P,U2,26*%
%TO.N,Net-(U2-Pad26)*%
X119994999Y-111625000D03*
%TO.P,U2,27*%
%TO.N,Net-(U2-Pad27)*%
X119994999Y-109085000D03*
%TO.P,U2,28*%
%TO.N,GND*%
X119994999Y-106545000D03*
%TO.P,U2,29*%
%TO.N,Net-(U2-Pad29)*%
X119994999Y-104005000D03*
%TO.P,U2,30*%
%TO.N,Net-(U2-Pad30)*%
X119994999Y-101465000D03*
%TO.P,U2,31*%
%TO.N,Net-(U2-Pad31)*%
X119994999Y-98925000D03*
%TO.P,U2,32*%
%TO.N,Net-(U2-Pad32)*%
X119994999Y-96385000D03*
%TO.P,U2,33*%
%TO.N,Net-(U2-Pad33)*%
X119994999Y-93845000D03*
%TO.P,U2,34*%
%TO.N,Net-(U2-Pad34)*%
X119994999Y-91305000D03*
%TO.P,U2,35*%
%TO.N,Net-(U2-Pad35)*%
X119994999Y-88765000D03*
%TO.P,U2,36*%
%TO.N,Net-(U2-Pad36)*%
X119994999Y-86225000D03*
%TO.P,U2,37*%
%TO.N,Net-(U2-Pad37)*%
X119994999Y-83685000D03*
%TO.P,U2,38*%
%TO.N,GND*%
X119994999Y-81145000D03*
%TO.P,U2,39*%
%TO.N,+5V*%
X119994999Y-78605000D03*
%TO.P,U2,40*%
%TO.N,Net-(U2-Pad40)*%
X119994999Y-76065000D03*
%TO.P,U2,20*%
%TO.N,Net-(U2-Pad20)*%
X139574999Y-124325000D03*
%TO.P,U2,19*%
%TO.N,Net-(U2-Pad19)*%
X139574999Y-121785000D03*
%TO.P,U2,18*%
%TO.N,GND*%
X139574999Y-119245000D03*
%TO.P,U2,17*%
%TO.N,Net-(U2-Pad17)*%
X139574999Y-116705000D03*
%TO.P,U2,16*%
%TO.N,Net-(U2-Pad16)*%
X139574999Y-114165000D03*
%TO.P,U2,15*%
%TO.N,Net-(U2-Pad15)*%
X139574999Y-111625000D03*
%TO.P,U2,14*%
%TO.N,Net-(U2-Pad14)*%
X139574999Y-109085000D03*
%TO.P,U2,13*%
%TO.N,GND*%
X139574999Y-106545000D03*
%TO.P,U2,12*%
%TO.N,Net-(U2-Pad12)*%
X139574999Y-104005000D03*
%TO.P,U2,11*%
%TO.N,Net-(U2-Pad11)*%
X139574999Y-101465000D03*
%TO.P,U2,10*%
%TO.N,~RE~*%
X139574999Y-98925000D03*
%TO.P,U2,9*%
%TO.N,DE*%
X139574999Y-96385000D03*
%TO.P,U2,8*%
%TO.N,GND*%
X139574999Y-93845000D03*
%TO.P,U2,7*%
%TO.N,SCL*%
X139574999Y-91305000D03*
%TO.P,U2,6*%
%TO.N,SDA*%
X139574999Y-88765000D03*
%TO.P,U2,5*%
%TO.N,IR*%
X139574999Y-86225000D03*
%TO.P,U2,4*%
%TO.N,LEARN*%
X139574999Y-83685000D03*
%TO.P,U2,3*%
%TO.N,GND*%
X139574999Y-81145000D03*
%TO.P,U2,2*%
%TO.N,RX*%
X139574999Y-78605000D03*
%TO.P,U2,1*%
%TO.N,TX*%
X139574999Y-76065000D03*
D15*
%TO.P,U2,40*%
%TO.N,Net-(U2-Pad40)*%
X120894999Y-76065000D03*
%TO.P,U2,39*%
%TO.N,+5V*%
X120894999Y-78605000D03*
D16*
%TO.P,U2,38*%
%TO.N,GND*%
X120894999Y-81145000D03*
D15*
%TO.P,U2,37*%
%TO.N,Net-(U2-Pad37)*%
X120894999Y-83685000D03*
%TO.P,U2,36*%
%TO.N,Net-(U2-Pad36)*%
X120894999Y-86225000D03*
%TO.P,U2,35*%
%TO.N,Net-(U2-Pad35)*%
X120894999Y-88765000D03*
%TO.P,U2,34*%
%TO.N,Net-(U2-Pad34)*%
X120894999Y-91305000D03*
D16*
%TO.P,U2,33*%
%TO.N,Net-(U2-Pad33)*%
X120894999Y-93845000D03*
D15*
%TO.P,U2,32*%
%TO.N,Net-(U2-Pad32)*%
X120894999Y-96385000D03*
%TO.P,U2,31*%
%TO.N,Net-(U2-Pad31)*%
X120894999Y-98925000D03*
%TO.P,U2,30*%
%TO.N,Net-(U2-Pad30)*%
X120894999Y-101465000D03*
%TO.P,U2,29*%
%TO.N,Net-(U2-Pad29)*%
X120894999Y-104005000D03*
D16*
%TO.P,U2,28*%
%TO.N,GND*%
X120894999Y-106545000D03*
D15*
%TO.P,U2,27*%
%TO.N,Net-(U2-Pad27)*%
X120894999Y-109085000D03*
%TO.P,U2,26*%
%TO.N,Net-(U2-Pad26)*%
X120894999Y-111625000D03*
%TO.P,U2,25*%
%TO.N,Net-(U2-Pad25)*%
X120894999Y-114165000D03*
%TO.P,U2,24*%
%TO.N,Net-(U2-Pad24)*%
X120894999Y-116705000D03*
D16*
%TO.P,U2,23*%
%TO.N,GND*%
X120894999Y-119245000D03*
D15*
%TO.P,U2,22*%
%TO.N,Net-(U2-Pad22)*%
X120894999Y-121785000D03*
%TO.P,U2,21*%
%TO.N,Net-(U2-Pad21)*%
X120894999Y-124325000D03*
%TO.P,U2,20*%
%TO.N,Net-(U2-Pad20)*%
X138674999Y-124325000D03*
%TO.P,U2,19*%
%TO.N,Net-(U2-Pad19)*%
X138674999Y-121785000D03*
D16*
%TO.P,U2,18*%
%TO.N,GND*%
X138674999Y-119245000D03*
D15*
%TO.P,U2,17*%
%TO.N,Net-(U2-Pad17)*%
X138674999Y-116705000D03*
%TO.P,U2,16*%
%TO.N,Net-(U2-Pad16)*%
X138674999Y-114165000D03*
%TO.P,U2,15*%
%TO.N,Net-(U2-Pad15)*%
X138674999Y-111625000D03*
%TO.P,U2,14*%
%TO.N,Net-(U2-Pad14)*%
X138674999Y-109085000D03*
D16*
%TO.P,U2,13*%
%TO.N,GND*%
X138674999Y-106545000D03*
D15*
%TO.P,U2,12*%
%TO.N,Net-(U2-Pad12)*%
X138674999Y-104005000D03*
%TO.P,U2,11*%
%TO.N,Net-(U2-Pad11)*%
X138674999Y-101465000D03*
%TO.P,U2,10*%
%TO.N,~RE~*%
X138674999Y-98925000D03*
%TO.P,U2,9*%
%TO.N,DE*%
X138674999Y-96385000D03*
D16*
%TO.P,U2,8*%
%TO.N,GND*%
X138674999Y-93845000D03*
D15*
%TO.P,U2,7*%
%TO.N,SCL*%
X138674999Y-91305000D03*
%TO.P,U2,6*%
%TO.N,SDA*%
X138674999Y-88765000D03*
%TO.P,U2,5*%
%TO.N,IR*%
X138674999Y-86225000D03*
%TO.P,U2,4*%
%TO.N,LEARN*%
X138674999Y-83685000D03*
D16*
%TO.P,U2,3*%
%TO.N,GND*%
X138674999Y-81145000D03*
D15*
%TO.P,U2,2*%
%TO.N,RX*%
X138674999Y-78605000D03*
%TO.P,U2,1*%
%TO.N,TX*%
X138674999Y-76065000D03*
%TD*%
%TO.P,J2,4*%
%TO.N,SDA*%
X113030000Y-92710000D03*
%TO.P,J2,3*%
%TO.N,SCL*%
X113030000Y-95250000D03*
%TO.P,J2,2*%
%TO.N,GND*%
X113030000Y-97790000D03*
D16*
%TO.P,J2,1*%
%TO.N,+5V*%
X113030000Y-100330000D03*
%TD*%
D17*
%TO.P,U3,3*%
%TO.N,+5V*%
X139700000Y-63500000D03*
%TO.P,U3,2*%
%TO.N,GND*%
X139700000Y-66040000D03*
%TO.P,U3,1*%
%TO.N,IR*%
%TA.AperFunction,ComponentPad*%
G36*
G01*
X140349800Y-69480000D02*
X139050200Y-69480000D01*
G75*
G02*
X138800000Y-69229800I0J250200D01*
G01*
X138800000Y-67930200D01*
G75*
G02*
X139050200Y-67680000I250200J0D01*
G01*
X140349800Y-67680000D01*
G75*
G02*
X140600000Y-67930200I0J-250200D01*
G01*
X140600000Y-69229800D01*
G75*
G02*
X140349800Y-69480000I-250200J0D01*
G01*
G37*
%TD.AperFunction*%
%TD*%
D18*
%TO.P,SW1,1*%
%TO.N,LEARN*%
X121843800Y-69994920D03*
%TO.P,SW1,2*%
%TO.N,GND*%
X117343800Y-69994920D03*
%TO.P,SW1,1*%
%TO.N,LEARN*%
X121843800Y-63494920D03*
%TO.P,SW1,2*%
%TO.N,GND*%
X117343800Y-63494920D03*
%TD*%
D19*
%TO.P,J1,0*%
%TO.N,GND*%
X140310000Y-136375000D03*
X115310000Y-136375000D03*
D20*
%TO.P,J1,9*%
%TO.N,Net-(J1-Pad9)*%
X123655000Y-134955000D03*
%TO.P,J1,8*%
%TO.N,RXD-*%
X126425000Y-134955000D03*
%TO.P,J1,7*%
%TO.N,TXD+*%
X129195000Y-134955000D03*
%TO.P,J1,6*%
%TO.N,Net-(J1-Pad6)*%
X131965000Y-134955000D03*
%TO.P,J1,5*%
%TO.N,+5V*%
X122270000Y-137795000D03*
%TO.P,J1,4*%
%TO.N,Net-(J1-Pad4)*%
X125040000Y-137795000D03*
%TO.P,J1,3*%
%TO.N,RXD+*%
X127810000Y-137795000D03*
%TO.P,J1,2*%
%TO.N,TXD-*%
X130580000Y-137795000D03*
D21*
%TO.P,J1,1*%
%TO.N,GND*%
X133350000Y-137795000D03*
%TD*%
D22*
%TO.N,+5V*%
X135890000Y-119380000D03*
%TO.N,DE*%
X129540000Y-110490000D03*
%TO.N,~RE~*%
X130810000Y-110490000D03*
%TD*%
D23*
%TO.N,LEARN*%
X131880001Y-77420001D02*
X124460000Y-70000000D01*
X132410000Y-77420001D02*
X131880001Y-77420001D01*
X138674999Y-83685000D02*
X132410000Y-77420001D01*
X121848880Y-70000000D02*
X121843800Y-69994920D01*
X124460000Y-70000000D02*
X121848880Y-70000000D01*
%TO.N,DE*%
X138674999Y-96385000D02*
X136896794Y-98163205D01*
X136896794Y-98163205D02*
X136896794Y-100066795D01*
X136896794Y-100066795D02*
X129540000Y-107423589D01*
X129540000Y-107423589D02*
X129540000Y-110490000D01*
%TO.N,~RE~*%
X130810000Y-106789999D02*
X130810000Y-110490000D01*
X138674999Y-98925000D02*
X130810000Y-106789999D01*
%TO.N,SDA*%
X134770000Y-92669999D02*
X138674999Y-88765000D01*
X117984998Y-92669999D02*
X134770000Y-92669999D01*
X117944997Y-92710000D02*
X117984998Y-92669999D01*
X113030000Y-92710000D02*
X117944997Y-92710000D01*
%TO.N,SCL*%
X134770000Y-95209999D02*
X138674999Y-91305000D01*
X117984998Y-95209999D02*
X134770000Y-95209999D01*
X117944997Y-95250000D02*
X117984998Y-95209999D01*
X113030000Y-95250000D02*
X117944997Y-95250000D01*
%TD*%
D24*
%TO.N,+5V*%
X142599668Y-61683551D02*
X142945634Y-61788004D01*
X143264724Y-61957667D01*
X143544781Y-62186076D01*
X143775141Y-62464534D01*
X143947027Y-62782430D01*
X144053893Y-63127658D01*
X144095000Y-63518753D01*
X144095001Y-140936485D01*
X144056449Y-141329667D01*
X143951996Y-141675635D01*
X143782333Y-141994724D01*
X143553924Y-142274781D01*
X143275466Y-142505141D01*
X142957570Y-142677027D01*
X142612340Y-142783894D01*
X142221238Y-142825000D01*
X113063505Y-142825000D01*
X112670333Y-142786449D01*
X112324365Y-142681996D01*
X112005276Y-142512333D01*
X111725219Y-142283924D01*
X111494859Y-142005466D01*
X111322973Y-141687570D01*
X111216106Y-141342340D01*
X111175000Y-140951238D01*
X111175000Y-136115475D01*
X112675000Y-136115475D01*
X112675000Y-136634525D01*
X112776261Y-137143601D01*
X112974893Y-137623141D01*
X113263262Y-138054715D01*
X113630285Y-138421738D01*
X114061859Y-138710107D01*
X114541399Y-138908739D01*
X115050475Y-139010000D01*
X115569525Y-139010000D01*
X116078601Y-138908739D01*
X116370810Y-138787702D01*
X121456903Y-138787702D01*
X121528486Y-139031671D01*
X121783996Y-139152571D01*
X122058184Y-139221300D01*
X122340512Y-139235217D01*
X122620130Y-139193787D01*
X122886292Y-139098603D01*
X123011514Y-139031671D01*
X123083097Y-138787702D01*
X122270000Y-137974605D01*
X121456903Y-138787702D01*
X116370810Y-138787702D01*
X116558141Y-138710107D01*
X116989715Y-138421738D01*
X117356738Y-138054715D01*
X117483159Y-137865512D01*
X120829783Y-137865512D01*
X120871213Y-138145130D01*
X120966397Y-138411292D01*
X121033329Y-138536514D01*
X121277298Y-138608097D01*
X122090395Y-137795000D01*
X122449605Y-137795000D01*
X123262702Y-138608097D01*
X123506671Y-138536514D01*
X123627571Y-138281004D01*
X123653212Y-138178711D01*
X123660147Y-138213574D01*
X123768320Y-138474727D01*
X123925363Y-138709759D01*
X124125241Y-138909637D01*
X124360273Y-139066680D01*
X124621426Y-139174853D01*
X124898665Y-139230000D01*
X125181335Y-139230000D01*
X125458574Y-139174853D01*
X125719727Y-139066680D01*
X125954759Y-138909637D01*
X126154637Y-138709759D01*
X126311680Y-138474727D01*
X126419853Y-138213574D01*
X126425000Y-138187699D01*
X126430147Y-138213574D01*
X126538320Y-138474727D01*
X126695363Y-138709759D01*
X126895241Y-138909637D01*
X127130273Y-139066680D01*
X127391426Y-139174853D01*
X127668665Y-139230000D01*
X127951335Y-139230000D01*
X128228574Y-139174853D01*
X128489727Y-139066680D01*
X128724759Y-138909637D01*
X128924637Y-138709759D01*
X129081680Y-138474727D01*
X129189853Y-138213574D01*
X129195000Y-138187699D01*
X129200147Y-138213574D01*
X129308320Y-138474727D01*
X129465363Y-138709759D01*
X129665241Y-138909637D01*
X129900273Y-139066680D01*
X130161426Y-139174853D01*
X130438665Y-139230000D01*
X130721335Y-139230000D01*
X130998574Y-139174853D01*
X131259727Y-139066680D01*
X131494759Y-138909637D01*
X131694637Y-138709759D01*
X131851680Y-138474727D01*
X131911928Y-138329275D01*
X131911928Y-138595000D01*
X131924188Y-138719482D01*
X131960498Y-138839180D01*
X132019463Y-138949494D01*
X132098815Y-139046185D01*
X132195506Y-139125537D01*
X132305820Y-139184502D01*
X132425518Y-139220812D01*
X132550000Y-139233072D01*
X134150000Y-139233072D01*
X134274482Y-139220812D01*
X134394180Y-139184502D01*
X134504494Y-139125537D01*
X134601185Y-139046185D01*
X134680537Y-138949494D01*
X134739502Y-138839180D01*
X134775812Y-138719482D01*
X134788072Y-138595000D01*
X134788072Y-136995000D01*
X134775812Y-136870518D01*
X134739502Y-136750820D01*
X134680537Y-136640506D01*
X134601185Y-136543815D01*
X134504494Y-136464463D01*
X134394180Y-136405498D01*
X134274482Y-136369188D01*
X134150000Y-136356928D01*
X132550000Y-136356928D01*
X132425518Y-136369188D01*
X132305820Y-136405498D01*
X132195506Y-136464463D01*
X132098815Y-136543815D01*
X132019463Y-136640506D01*
X131960498Y-136750820D01*
X131924188Y-136870518D01*
X131911928Y-136995000D01*
X131911928Y-137260725D01*
X131851680Y-137115273D01*
X131694637Y-136880241D01*
X131494759Y-136680363D01*
X131259727Y-136523320D01*
X130998574Y-136415147D01*
X130721335Y-136360000D01*
X130438665Y-136360000D01*
X130161426Y-136415147D01*
X129900273Y-136523320D01*
X129665241Y-136680363D01*
X129465363Y-136880241D01*
X129308320Y-137115273D01*
X129200147Y-137376426D01*
X129195000Y-137402301D01*
X129189853Y-137376426D01*
X129081680Y-137115273D01*
X128924637Y-136880241D01*
X128724759Y-136680363D01*
X128489727Y-136523320D01*
X128228574Y-136415147D01*
X127951335Y-136360000D01*
X127668665Y-136360000D01*
X127391426Y-136415147D01*
X127130273Y-136523320D01*
X126895241Y-136680363D01*
X126695363Y-136880241D01*
X126538320Y-137115273D01*
X126430147Y-137376426D01*
X126425000Y-137402301D01*
X126419853Y-137376426D01*
X126311680Y-137115273D01*
X126154637Y-136880241D01*
X125954759Y-136680363D01*
X125719727Y-136523320D01*
X125458574Y-136415147D01*
X125181335Y-136360000D01*
X124898665Y-136360000D01*
X124621426Y-136415147D01*
X124360273Y-136523320D01*
X124125241Y-136680363D01*
X123925363Y-136880241D01*
X123768320Y-137115273D01*
X123660147Y-137376426D01*
X123654487Y-137404882D01*
X123573603Y-137178708D01*
X123506671Y-137053486D01*
X123262702Y-136981903D01*
X122449605Y-137795000D01*
X122090395Y-137795000D01*
X121277298Y-136981903D01*
X121033329Y-137053486D01*
X120912429Y-137308996D01*
X120843700Y-137583184D01*
X120829783Y-137865512D01*
X117483159Y-137865512D01*
X117645107Y-137623141D01*
X117843739Y-137143601D01*
X117911628Y-136802298D01*
X121456903Y-136802298D01*
X122270000Y-137615395D01*
X123083097Y-136802298D01*
X123011514Y-136558329D01*
X122756004Y-136437429D01*
X122481816Y-136368700D01*
X122199488Y-136354783D01*
X121919870Y-136396213D01*
X121653708Y-136491397D01*
X121528486Y-136558329D01*
X121456903Y-136802298D01*
X117911628Y-136802298D01*
X117945000Y-136634525D01*
X117945000Y-136115475D01*
X117843739Y-135606399D01*
X117645107Y-135126859D01*
X117435838Y-134813665D01*
X122220000Y-134813665D01*
X122220000Y-135096335D01*
X122275147Y-135373574D01*
X122383320Y-135634727D01*
X122540363Y-135869759D01*
X122740241Y-136069637D01*
X122975273Y-136226680D01*
X123236426Y-136334853D01*
X123513665Y-136390000D01*
X123796335Y-136390000D01*
X124073574Y-136334853D01*
X124334727Y-136226680D01*
X124569759Y-136069637D01*
X124769637Y-135869759D01*
X124926680Y-135634727D01*
X125034853Y-135373574D01*
X125040000Y-135347699D01*
X125045147Y-135373574D01*
X125153320Y-135634727D01*
X125310363Y-135869759D01*
X125510241Y-136069637D01*
X125745273Y-136226680D01*
X126006426Y-136334853D01*
X126283665Y-136390000D01*
X126566335Y-136390000D01*
X126843574Y-136334853D01*
X127104727Y-136226680D01*
X127339759Y-136069637D01*
X127539637Y-135869759D01*
X127696680Y-135634727D01*
X127804853Y-135373574D01*
X127810000Y-135347699D01*
X127815147Y-135373574D01*
X127923320Y-135634727D01*
X128080363Y-135869759D01*
X128280241Y-136069637D01*
X128515273Y-136226680D01*
X128776426Y-136334853D01*
X129053665Y-136390000D01*
X129336335Y-136390000D01*
X129613574Y-136334853D01*
X129874727Y-136226680D01*
X130109759Y-136069637D01*
X130309637Y-135869759D01*
X130466680Y-135634727D01*
X130574853Y-135373574D01*
X130580000Y-135347699D01*
X130585147Y-135373574D01*
X130693320Y-135634727D01*
X130850363Y-135869759D01*
X131050241Y-136069637D01*
X131285273Y-136226680D01*
X131546426Y-136334853D01*
X131823665Y-136390000D01*
X132106335Y-136390000D01*
X132383574Y-136334853D01*
X132644727Y-136226680D01*
X132811157Y-136115475D01*
X137675000Y-136115475D01*
X137675000Y-136634525D01*
X137776261Y-137143601D01*
X137974893Y-137623141D01*
X138263262Y-138054715D01*
X138630285Y-138421738D01*
X139061859Y-138710107D01*
X139541399Y-138908739D01*
X140050475Y-139010000D01*
X140569525Y-139010000D01*
X141078601Y-138908739D01*
X141558141Y-138710107D01*
X141989715Y-138421738D01*
X142356738Y-138054715D01*
X142645107Y-137623141D01*
X142843739Y-137143601D01*
X142945000Y-136634525D01*
X142945000Y-136115475D01*
X142843739Y-135606399D01*
X142645107Y-135126859D01*
X142356738Y-134695285D01*
X141989715Y-134328262D01*
X141558141Y-134039893D01*
X141078601Y-133841261D01*
X140569525Y-133740000D01*
X140050475Y-133740000D01*
X139541399Y-133841261D01*
X139061859Y-134039893D01*
X138630285Y-134328262D01*
X138263262Y-134695285D01*
X137974893Y-135126859D01*
X137776261Y-135606399D01*
X137675000Y-136115475D01*
X132811157Y-136115475D01*
X132879759Y-136069637D01*
X133079637Y-135869759D01*
X133236680Y-135634727D01*
X133344853Y-135373574D01*
X133400000Y-135096335D01*
X133400000Y-134813665D01*
X133344853Y-134536426D01*
X133236680Y-134275273D01*
X133079637Y-134040241D01*
X132879759Y-133840363D01*
X132644727Y-133683320D01*
X132383574Y-133575147D01*
X132106335Y-133520000D01*
X131823665Y-133520000D01*
X131546426Y-133575147D01*
X131285273Y-133683320D01*
X131050241Y-133840363D01*
X130850363Y-134040241D01*
X130693320Y-134275273D01*
X130585147Y-134536426D01*
X130580000Y-134562301D01*
X130574853Y-134536426D01*
X130466680Y-134275273D01*
X130309637Y-134040241D01*
X130109759Y-133840363D01*
X129874727Y-133683320D01*
X129613574Y-133575147D01*
X129336335Y-133520000D01*
X129053665Y-133520000D01*
X128776426Y-133575147D01*
X128515273Y-133683320D01*
X128280241Y-133840363D01*
X128080363Y-134040241D01*
X127923320Y-134275273D01*
X127815147Y-134536426D01*
X127810000Y-134562301D01*
X127804853Y-134536426D01*
X127696680Y-134275273D01*
X127539637Y-134040241D01*
X127339759Y-133840363D01*
X127104727Y-133683320D01*
X126843574Y-133575147D01*
X126566335Y-133520000D01*
X126283665Y-133520000D01*
X126006426Y-133575147D01*
X125745273Y-133683320D01*
X125510241Y-133840363D01*
X125310363Y-134040241D01*
X125153320Y-134275273D01*
X125045147Y-134536426D01*
X125040000Y-134562301D01*
X125034853Y-134536426D01*
X124926680Y-134275273D01*
X124769637Y-134040241D01*
X124569759Y-133840363D01*
X124334727Y-133683320D01*
X124073574Y-133575147D01*
X123796335Y-133520000D01*
X123513665Y-133520000D01*
X123236426Y-133575147D01*
X122975273Y-133683320D01*
X122740241Y-133840363D01*
X122540363Y-134040241D01*
X122383320Y-134275273D01*
X122275147Y-134536426D01*
X122220000Y-134813665D01*
X117435838Y-134813665D01*
X117356738Y-134695285D01*
X116989715Y-134328262D01*
X116558141Y-134039893D01*
X116078601Y-133841261D01*
X115569525Y-133740000D01*
X115050475Y-133740000D01*
X114541399Y-133841261D01*
X114061859Y-134039893D01*
X113630285Y-134328262D01*
X113263262Y-134695285D01*
X112974893Y-135126859D01*
X112776261Y-135606399D01*
X112675000Y-136115475D01*
X111175000Y-136115475D01*
X111175000Y-101180000D01*
X111541928Y-101180000D01*
X111554188Y-101304482D01*
X111590498Y-101424180D01*
X111649463Y-101534494D01*
X111728815Y-101631185D01*
X111825506Y-101710537D01*
X111935820Y-101769502D01*
X112055518Y-101805812D01*
X112180000Y-101818072D01*
X112744250Y-101815000D01*
X112903000Y-101656250D01*
X112903000Y-100457000D01*
X113157000Y-100457000D01*
X113157000Y-101656250D01*
X113315750Y-101815000D01*
X113880000Y-101818072D01*
X114004482Y-101805812D01*
X114124180Y-101769502D01*
X114234494Y-101710537D01*
X114331185Y-101631185D01*
X114410537Y-101534494D01*
X114469502Y-101424180D01*
X114505812Y-101304482D01*
X114518072Y-101180000D01*
X114515000Y-100615750D01*
X114356250Y-100457000D01*
X113157000Y-100457000D01*
X112903000Y-100457000D01*
X111703750Y-100457000D01*
X111545000Y-100615750D01*
X111541928Y-101180000D01*
X111175000Y-101180000D01*
X111175000Y-99480000D01*
X111541928Y-99480000D01*
X111545000Y-100044250D01*
X111703750Y-100203000D01*
X112903000Y-100203000D01*
X112903000Y-100183000D01*
X113157000Y-100183000D01*
X113157000Y-100203000D01*
X114356250Y-100203000D01*
X114515000Y-100044250D01*
X114518072Y-99480000D01*
X114505812Y-99355518D01*
X114469502Y-99235820D01*
X114410537Y-99125506D01*
X114331185Y-99028815D01*
X114234494Y-98949463D01*
X114124180Y-98890498D01*
X114051620Y-98868487D01*
X114183475Y-98736632D01*
X114345990Y-98493411D01*
X114457932Y-98223158D01*
X114515000Y-97936260D01*
X114515000Y-97643740D01*
X114457932Y-97356842D01*
X114345990Y-97086589D01*
X114183475Y-96843368D01*
X113976632Y-96636525D01*
X113802240Y-96520000D01*
X113976632Y-96403475D01*
X114183475Y-96196632D01*
X114308178Y-96010000D01*
X117606927Y-96010000D01*
X117606927Y-97235000D01*
X117619187Y-97359482D01*
X117655497Y-97479180D01*
X117714462Y-97589494D01*
X117768221Y-97655000D01*
X117714462Y-97720506D01*
X117655497Y-97830820D01*
X117619187Y-97950518D01*
X117606927Y-98075000D01*
X117606927Y-99775000D01*
X117619187Y-99899482D01*
X117655497Y-100019180D01*
X117714462Y-100129494D01*
X117768221Y-100195000D01*
X117714462Y-100260506D01*
X117655497Y-100370820D01*
X117619187Y-100490518D01*
X117606927Y-100615000D01*
X117606927Y-102315000D01*
X117619187Y-102439482D01*
X117655497Y-102559180D01*
X117714462Y-102669494D01*
X117768221Y-102735000D01*
X117714462Y-102800506D01*
X117655497Y-102910820D01*
X117619187Y-103030518D01*
X117606927Y-103155000D01*
X117606927Y-104855000D01*
X117619187Y-104979482D01*
X117655497Y-105099180D01*
X117714462Y-105209494D01*
X117768221Y-105275000D01*
X117714462Y-105340506D01*
X117655497Y-105450820D01*
X117619187Y-105570518D01*
X117606927Y-105695000D01*
X117606927Y-107395000D01*
X117619187Y-107519482D01*
X117655497Y-107639180D01*
X117714462Y-107749494D01*
X117768221Y-107815000D01*
X117714462Y-107880506D01*
X117655497Y-107990820D01*
X117619187Y-108110518D01*
X117606927Y-108235000D01*
X117606927Y-109935000D01*
X117619187Y-110059482D01*
X117655497Y-110179180D01*
X117714462Y-110289494D01*
X117768221Y-110355000D01*
X117714462Y-110420506D01*
X117655497Y-110530820D01*
X117619187Y-110650518D01*
X117606927Y-110775000D01*
X117606927Y-112475000D01*
X117619187Y-112599482D01*
X117655497Y-112719180D01*
X117714462Y-112829494D01*
X117768221Y-112895000D01*
X117714462Y-112960506D01*
X117655497Y-113070820D01*
X117619187Y-113190518D01*
X117606927Y-113315000D01*
X117606927Y-115015000D01*
X117619187Y-115139482D01*
X117655497Y-115259180D01*
X117714462Y-115369494D01*
X117768221Y-115435000D01*
X117714462Y-115500506D01*
X117655497Y-115610820D01*
X117619187Y-115730518D01*
X117606927Y-115855000D01*
X117606927Y-117555000D01*
X117619187Y-117679482D01*
X117655497Y-117799180D01*
X117714462Y-117909494D01*
X117768221Y-117975000D01*
X117714462Y-118040506D01*
X117655497Y-118150820D01*
X117619187Y-118270518D01*
X117606927Y-118395000D01*
X117606927Y-120095000D01*
X117619187Y-120219482D01*
X117655497Y-120339180D01*
X117714462Y-120449494D01*
X117768221Y-120515000D01*
X117714462Y-120580506D01*
X117655497Y-120690820D01*
X117619187Y-120810518D01*
X117606927Y-120935000D01*
X117606927Y-122635000D01*
X117619187Y-122759482D01*
X117655497Y-122879180D01*
X117714462Y-122989494D01*
X117768221Y-123055000D01*
X117714462Y-123120506D01*
X117655497Y-123230820D01*
X117619187Y-123350518D01*
X117606927Y-123475000D01*
X117606927Y-125175000D01*
X117619187Y-125299482D01*
X117655497Y-125419180D01*
X117714462Y-125529494D01*
X117793814Y-125626185D01*
X117890505Y-125705537D01*
X118000819Y-125764502D01*
X118120517Y-125800812D01*
X118244999Y-125813072D01*
X121744999Y-125813072D01*
X121869481Y-125800812D01*
X121989179Y-125764502D01*
X122099493Y-125705537D01*
X122196184Y-125626185D01*
X122275536Y-125529494D01*
X122334501Y-125419180D01*
X122370811Y-125299482D01*
X122383071Y-125175000D01*
X122383071Y-123475000D01*
X122370811Y-123350518D01*
X122338803Y-123245000D01*
X125756927Y-123245000D01*
X125756927Y-126745000D01*
X125769187Y-126869482D01*
X125805497Y-126989180D01*
X125864462Y-127099494D01*
X125943814Y-127196185D01*
X126040505Y-127275537D01*
X126150819Y-127334502D01*
X126270517Y-127370812D01*
X126394999Y-127383072D01*
X128094999Y-127383072D01*
X128219481Y-127370812D01*
X128339179Y-127334502D01*
X128449493Y-127275537D01*
X128514999Y-127221778D01*
X128580505Y-127275537D01*
X128690819Y-127334502D01*
X128810517Y-127370812D01*
X128934999Y-127383072D01*
X130634999Y-127383072D01*
X130759481Y-127370812D01*
X130879179Y-127334502D01*
X130989493Y-127275537D01*
X131054999Y-127221778D01*
X131120505Y-127275537D01*
X131230819Y-127334502D01*
X131350517Y-127370812D01*
X131474999Y-127383072D01*
X133174999Y-127383072D01*
X133299481Y-127370812D01*
X133419179Y-127334502D01*
X133529493Y-127275537D01*
X133626184Y-127196185D01*
X133705536Y-127099494D01*
X133764501Y-126989180D01*
X133800811Y-126869482D01*
X133813071Y-126745000D01*
X133813071Y-123245000D01*
X133800811Y-123120518D01*
X133764501Y-123000820D01*
X133705536Y-122890506D01*
X133626184Y-122793815D01*
X133529493Y-122714463D01*
X133419179Y-122655498D01*
X133299481Y-122619188D01*
X133174999Y-122606928D01*
X131474999Y-122606928D01*
X131350517Y-122619188D01*
X131230819Y-122655498D01*
X131120505Y-122714463D01*
X131054999Y-122768222D01*
X130989493Y-122714463D01*
X130879179Y-122655498D01*
X130759481Y-122619188D01*
X130634999Y-122606928D01*
X128934999Y-122606928D01*
X128810517Y-122619188D01*
X128690819Y-122655498D01*
X128580505Y-122714463D01*
X128514999Y-122768222D01*
X128449493Y-122714463D01*
X128339179Y-122655498D01*
X128219481Y-122619188D01*
X128094999Y-122606928D01*
X126394999Y-122606928D01*
X126270517Y-122619188D01*
X126150819Y-122655498D01*
X126040505Y-122714463D01*
X125943814Y-122793815D01*
X125864462Y-122890506D01*
X125805497Y-123000820D01*
X125769187Y-123120518D01*
X125756927Y-123245000D01*
X122338803Y-123245000D01*
X122334501Y-123230820D01*
X122275536Y-123120506D01*
X122221777Y-123055000D01*
X122275536Y-122989494D01*
X122334501Y-122879180D01*
X122370811Y-122759482D01*
X122383071Y-122635000D01*
X122383071Y-120935000D01*
X122370811Y-120810518D01*
X122334501Y-120690820D01*
X122275536Y-120580506D01*
X122221777Y-120515000D01*
X122275536Y-120449494D01*
X122334501Y-120339180D01*
X122370811Y-120219482D01*
X122383071Y-120095000D01*
X122383071Y-118395000D01*
X122370811Y-118270518D01*
X122334501Y-118150820D01*
X122275536Y-118040506D01*
X122221777Y-117975000D01*
X122275536Y-117909494D01*
X122334501Y-117799180D01*
X122370811Y-117679482D01*
X122383071Y-117555000D01*
X122383071Y-115855000D01*
X122370811Y-115730518D01*
X122334501Y-115610820D01*
X122275536Y-115500506D01*
X122221777Y-115435000D01*
X122275536Y-115369494D01*
X122334501Y-115259180D01*
X122370811Y-115139482D01*
X122383071Y-115015000D01*
X122383071Y-113315000D01*
X122370811Y-113190518D01*
X122334501Y-113070820D01*
X122275536Y-112960506D01*
X122221777Y-112895000D01*
X122275536Y-112829494D01*
X122334501Y-112719180D01*
X122370811Y-112599482D01*
X122383071Y-112475000D01*
X122383071Y-110775000D01*
X122370811Y-110650518D01*
X122334501Y-110530820D01*
X122275536Y-110420506D01*
X122221777Y-110355000D01*
X122275536Y-110289494D01*
X122334501Y-110179180D01*
X122370811Y-110059482D01*
X122383071Y-109935000D01*
X122383071Y-108235000D01*
X122370811Y-108110518D01*
X122334501Y-107990820D01*
X122275536Y-107880506D01*
X122221777Y-107815000D01*
X122275536Y-107749494D01*
X122334501Y-107639180D01*
X122370811Y-107519482D01*
X122383071Y-107395000D01*
X122383071Y-105695000D01*
X122370811Y-105570518D01*
X122334501Y-105450820D01*
X122275536Y-105340506D01*
X122221777Y-105275000D01*
X122275536Y-105209494D01*
X122334501Y-105099180D01*
X122370811Y-104979482D01*
X122383071Y-104855000D01*
X122383071Y-103155000D01*
X122370811Y-103030518D01*
X122334501Y-102910820D01*
X122275536Y-102800506D01*
X122221777Y-102735000D01*
X122275536Y-102669494D01*
X122334501Y-102559180D01*
X122370811Y-102439482D01*
X122383071Y-102315000D01*
X122383071Y-100615000D01*
X122370811Y-100490518D01*
X122334501Y-100370820D01*
X122275536Y-100260506D01*
X122221777Y-100195000D01*
X122275536Y-100129494D01*
X122334501Y-100019180D01*
X122370811Y-99899482D01*
X122383071Y-99775000D01*
X122383071Y-98075000D01*
X122370811Y-97950518D01*
X122334501Y-97830820D01*
X122275536Y-97720506D01*
X122221777Y-97655000D01*
X122275536Y-97589494D01*
X122334501Y-97479180D01*
X122370811Y-97359482D01*
X122383071Y-97235000D01*
X122383071Y-95969999D01*
X134732678Y-95969999D01*
X134770000Y-95973675D01*
X134807322Y-95969999D01*
X134807333Y-95969999D01*
X134918986Y-95959002D01*
X135062247Y-95915545D01*
X135194276Y-95844973D01*
X135310001Y-95750000D01*
X135333804Y-95720996D01*
X137186927Y-93867873D01*
X137186927Y-94695000D01*
X137199187Y-94819482D01*
X137235497Y-94939180D01*
X137294462Y-95049494D01*
X137348221Y-95115000D01*
X137294462Y-95180506D01*
X137235497Y-95290820D01*
X137199187Y-95410518D01*
X137186927Y-95535000D01*
X137186927Y-96798271D01*
X136385797Y-97599401D01*
X136356793Y-97623204D01*
X136305106Y-97686185D01*
X136261820Y-97738929D01*
X136216080Y-97824502D01*
X136191248Y-97870959D01*
X136147791Y-98014220D01*
X136136794Y-98125873D01*
X136136794Y-98125883D01*
X136133118Y-98163205D01*
X136136794Y-98200528D01*
X136136795Y-99751992D01*
X129029003Y-106859785D01*
X128999999Y-106883588D01*
X128954537Y-106938984D01*
X128905026Y-106999313D01*
X128860698Y-107082245D01*
X128834454Y-107131343D01*
X128790997Y-107274604D01*
X128780000Y-107386257D01*
X128780000Y-107386267D01*
X128776324Y-107423589D01*
X128780000Y-107460912D01*
X128780001Y-109786288D01*
X128736063Y-109830226D01*
X128622795Y-109999744D01*
X128544774Y-110188102D01*
X128505000Y-110388061D01*
X128505000Y-110591939D01*
X128544774Y-110791898D01*
X128622795Y-110980256D01*
X128736063Y-111149774D01*
X128880226Y-111293937D01*
X129049744Y-111407205D01*
X129238102Y-111485226D01*
X129438061Y-111525000D01*
X129641939Y-111525000D01*
X129841898Y-111485226D01*
X130030256Y-111407205D01*
X130175000Y-111310490D01*
X130319744Y-111407205D01*
X130508102Y-111485226D01*
X130708061Y-111525000D01*
X130911939Y-111525000D01*
X131111898Y-111485226D01*
X131300256Y-111407205D01*
X131469774Y-111293937D01*
X131613937Y-111149774D01*
X131727205Y-110980256D01*
X131805226Y-110791898D01*
X131845000Y-110591939D01*
X131845000Y-110388061D01*
X131805226Y-110188102D01*
X131727205Y-109999744D01*
X131613937Y-109830226D01*
X131570000Y-109786289D01*
X131570000Y-107104800D01*
X137186927Y-101487874D01*
X137186927Y-102315000D01*
X137199187Y-102439482D01*
X137235497Y-102559180D01*
X137294462Y-102669494D01*
X137348221Y-102735000D01*
X137294462Y-102800506D01*
X137235497Y-102910820D01*
X137199187Y-103030518D01*
X137186927Y-103155000D01*
X137186927Y-104855000D01*
X137199187Y-104979482D01*
X137235497Y-105099180D01*
X137294462Y-105209494D01*
X137348221Y-105275000D01*
X137294462Y-105340506D01*
X137235497Y-105450820D01*
X137199187Y-105570518D01*
X137186927Y-105695000D01*
X137186927Y-107395000D01*
X137199187Y-107519482D01*
X137235497Y-107639180D01*
X137294462Y-107749494D01*
X137348221Y-107815000D01*
X137294462Y-107880506D01*
X137235497Y-107990820D01*
X137199187Y-108110518D01*
X137186927Y-108235000D01*
X137186927Y-109935000D01*
X137199187Y-110059482D01*
X137235497Y-110179180D01*
X137294462Y-110289494D01*
X137348221Y-110355000D01*
X137294462Y-110420506D01*
X137235497Y-110530820D01*
X137199187Y-110650518D01*
X137186927Y-110775000D01*
X137186927Y-112475000D01*
X137199187Y-112599482D01*
X137235497Y-112719180D01*
X137294462Y-112829494D01*
X137348221Y-112895000D01*
X137294462Y-112960506D01*
X137235497Y-113070820D01*
X137199187Y-113190518D01*
X137186927Y-113315000D01*
X137186927Y-115015000D01*
X137199187Y-115139482D01*
X137235497Y-115259180D01*
X137294462Y-115369494D01*
X137348221Y-115435000D01*
X137294462Y-115500506D01*
X137235497Y-115610820D01*
X137199187Y-115730518D01*
X137186927Y-115855000D01*
X137186927Y-117555000D01*
X137199187Y-117679482D01*
X137235497Y-117799180D01*
X137294462Y-117909494D01*
X137348221Y-117975000D01*
X137294462Y-118040506D01*
X137235497Y-118150820D01*
X137199187Y-118270518D01*
X137186927Y-118395000D01*
X137186927Y-120095000D01*
X137199187Y-120219482D01*
X137235497Y-120339180D01*
X137294462Y-120449494D01*
X137348221Y-120515000D01*
X137294462Y-120580506D01*
X137235497Y-120690820D01*
X137199187Y-120810518D01*
X137186927Y-120935000D01*
X137186927Y-122635000D01*
X137199187Y-122759482D01*
X137235497Y-122879180D01*
X137294462Y-122989494D01*
X137348221Y-123055000D01*
X137294462Y-123120506D01*
X137235497Y-123230820D01*
X137199187Y-123350518D01*
X137186927Y-123475000D01*
X137186927Y-125175000D01*
X137199187Y-125299482D01*
X137235497Y-125419180D01*
X137294462Y-125529494D01*
X137373814Y-125626185D01*
X137470505Y-125705537D01*
X137580819Y-125764502D01*
X137700517Y-125800812D01*
X137824999Y-125813072D01*
X141324999Y-125813072D01*
X141449481Y-125800812D01*
X141569179Y-125764502D01*
X141679493Y-125705537D01*
X141776184Y-125626185D01*
X141855536Y-125529494D01*
X141914501Y-125419180D01*
X141950811Y-125299482D01*
X141963071Y-125175000D01*
X141963071Y-123475000D01*
X141950811Y-123350518D01*
X141914501Y-123230820D01*
X141855536Y-123120506D01*
X141801777Y-123055000D01*
X141855536Y-122989494D01*
X141914501Y-122879180D01*
X141950811Y-122759482D01*
X141963071Y-122635000D01*
X141963071Y-120935000D01*
X141950811Y-120810518D01*
X141914501Y-120690820D01*
X141855536Y-120580506D01*
X141801777Y-120515000D01*
X141855536Y-120449494D01*
X141914501Y-120339180D01*
X141950811Y-120219482D01*
X141963071Y-120095000D01*
X141963071Y-118395000D01*
X141950811Y-118270518D01*
X141914501Y-118150820D01*
X141855536Y-118040506D01*
X141801777Y-117975000D01*
X141855536Y-117909494D01*
X141914501Y-117799180D01*
X141950811Y-117679482D01*
X141963071Y-117555000D01*
X141963071Y-115855000D01*
X141950811Y-115730518D01*
X141914501Y-115610820D01*
X141855536Y-115500506D01*
X141801777Y-115435000D01*
X141855536Y-115369494D01*
X141914501Y-115259180D01*
X141950811Y-115139482D01*
X141963071Y-115015000D01*
X141963071Y-113315000D01*
X141950811Y-113190518D01*
X141914501Y-113070820D01*
X141855536Y-112960506D01*
X141801777Y-112895000D01*
X141855536Y-112829494D01*
X141914501Y-112719180D01*
X141950811Y-112599482D01*
X141963071Y-112475000D01*
X141963071Y-110775000D01*
X141950811Y-110650518D01*
X141914501Y-110530820D01*
X141855536Y-110420506D01*
X141801777Y-110355000D01*
X141855536Y-110289494D01*
X141914501Y-110179180D01*
X141950811Y-110059482D01*
X141963071Y-109935000D01*
X141963071Y-108235000D01*
X141950811Y-108110518D01*
X141914501Y-107990820D01*
X141855536Y-107880506D01*
X141801777Y-107815000D01*
X141855536Y-107749494D01*
X141914501Y-107639180D01*
X141950811Y-107519482D01*
X141963071Y-107395000D01*
X141963071Y-105695000D01*
X141950811Y-105570518D01*
X141914501Y-105450820D01*
X141855536Y-105340506D01*
X141801777Y-105275000D01*
X141855536Y-105209494D01*
X141914501Y-105099180D01*
X141950811Y-104979482D01*
X141963071Y-104855000D01*
X141963071Y-103155000D01*
X141950811Y-103030518D01*
X141914501Y-102910820D01*
X141855536Y-102800506D01*
X141801777Y-102735000D01*
X141855536Y-102669494D01*
X141914501Y-102559180D01*
X141950811Y-102439482D01*
X141963071Y-102315000D01*
X141963071Y-100615000D01*
X141950811Y-100490518D01*
X141914501Y-100370820D01*
X141855536Y-100260506D01*
X141801777Y-100195000D01*
X141855536Y-100129494D01*
X141914501Y-100019180D01*
X141950811Y-99899482D01*
X141963071Y-99775000D01*
X141963071Y-98075000D01*
X141950811Y-97950518D01*
X141914501Y-97830820D01*
X141855536Y-97720506D01*
X141801777Y-97655000D01*
X141855536Y-97589494D01*
X141914501Y-97479180D01*
X141950811Y-97359482D01*
X141963071Y-97235000D01*
X141963071Y-95535000D01*
X141950811Y-95410518D01*
X141914501Y-95290820D01*
X141855536Y-95180506D01*
X141801777Y-95115000D01*
X141855536Y-95049494D01*
X141914501Y-94939180D01*
X141950811Y-94819482D01*
X141963071Y-94695000D01*
X141963071Y-92995000D01*
X141950811Y-92870518D01*
X141914501Y-92750820D01*
X141855536Y-92640506D01*
X141801777Y-92575000D01*
X141855536Y-92509494D01*
X141914501Y-92399180D01*
X141950811Y-92279482D01*
X141963071Y-92155000D01*
X141963071Y-90455000D01*
X141950811Y-90330518D01*
X141914501Y-90210820D01*
X141855536Y-90100506D01*
X141801777Y-90035000D01*
X141855536Y-89969494D01*
X141914501Y-89859180D01*
X141950811Y-89739482D01*
X141963071Y-89615000D01*
X141963071Y-87915000D01*
X141950811Y-87790518D01*
X141914501Y-87670820D01*
X141855536Y-87560506D01*
X141801777Y-87495000D01*
X141855536Y-87429494D01*
X141914501Y-87319180D01*
X141950811Y-87199482D01*
X141963071Y-87075000D01*
X141963071Y-85375000D01*
X141950811Y-85250518D01*
X141914501Y-85130820D01*
X141855536Y-85020506D01*
X141801777Y-84955000D01*
X141855536Y-84889494D01*
X141914501Y-84779180D01*
X141950811Y-84659482D01*
X141963071Y-84535000D01*
X141963071Y-82835000D01*
X141950811Y-82710518D01*
X141914501Y-82590820D01*
X141855536Y-82480506D01*
X141801777Y-82415000D01*
X141855536Y-82349494D01*
X141914501Y-82239180D01*
X141950811Y-82119482D01*
X141963071Y-81995000D01*
X141963071Y-80295000D01*
X141950811Y-80170518D01*
X141914501Y-80050820D01*
X141855536Y-79940506D01*
X141801777Y-79875000D01*
X141855536Y-79809494D01*
X141914501Y-79699180D01*
X141950811Y-79579482D01*
X141963071Y-79455000D01*
X141963071Y-77755000D01*
X141950811Y-77630518D01*
X141914501Y-77510820D01*
X141855536Y-77400506D01*
X141801777Y-77335000D01*
X141855536Y-77269494D01*
X141914501Y-77159180D01*
X141950811Y-77039482D01*
X141963071Y-76915000D01*
X141963071Y-75215000D01*
X141950811Y-75090518D01*
X141914501Y-74970820D01*
X141855536Y-74860506D01*
X141776184Y-74763815D01*
X141679493Y-74684463D01*
X141569179Y-74625498D01*
X141449481Y-74589188D01*
X141324999Y-74576928D01*
X137824999Y-74576928D01*
X137700517Y-74589188D01*
X137580819Y-74625498D01*
X137470505Y-74684463D01*
X137373814Y-74763815D01*
X137294462Y-74860506D01*
X137235497Y-74970820D01*
X137199187Y-75090518D01*
X137186927Y-75215000D01*
X137186927Y-76915000D01*
X137199187Y-77039482D01*
X137235497Y-77159180D01*
X137294462Y-77269494D01*
X137348221Y-77335000D01*
X137294462Y-77400506D01*
X137235497Y-77510820D01*
X137199187Y-77630518D01*
X137186927Y-77755000D01*
X137186927Y-79455000D01*
X137199187Y-79579482D01*
X137235497Y-79699180D01*
X137294462Y-79809494D01*
X137348221Y-79875000D01*
X137294462Y-79940506D01*
X137235497Y-80050820D01*
X137199187Y-80170518D01*
X137186927Y-80295000D01*
X137186927Y-81122126D01*
X133466689Y-77401889D01*
X133488504Y-77387312D01*
X133702311Y-77173505D01*
X133870298Y-76922095D01*
X133986010Y-76642743D01*
X134044999Y-76346184D01*
X134044999Y-76043816D01*
X133986010Y-75747257D01*
X133870298Y-75467905D01*
X133702311Y-75216495D01*
X133488504Y-75002688D01*
X133237094Y-74834701D01*
X132957742Y-74718989D01*
X132661183Y-74660000D01*
X132358815Y-74660000D01*
X132062256Y-74718989D01*
X131782904Y-74834701D01*
X131531494Y-75002688D01*
X131317687Y-75216495D01*
X131149700Y-75467905D01*
X131106647Y-75571845D01*
X125023804Y-69489003D01*
X125000001Y-69459999D01*
X124884276Y-69365026D01*
X124752247Y-69294454D01*
X124608986Y-69250997D01*
X124497333Y-69240000D01*
X124497322Y-69240000D01*
X124460000Y-69236324D01*
X124422678Y-69240000D01*
X123300813Y-69240000D01*
X123292718Y-69220457D01*
X123113787Y-68952668D01*
X122886052Y-68724933D01*
X122618263Y-68546002D01*
X122320712Y-68422752D01*
X122004833Y-68359920D01*
X121682767Y-68359920D01*
X121366888Y-68422752D01*
X121069337Y-68546002D01*
X120801548Y-68724933D01*
X120573813Y-68952668D01*
X120394882Y-69220457D01*
X120271632Y-69518008D01*
X120208800Y-69833887D01*
X120208800Y-70155953D01*
X120271632Y-70471832D01*
X120394882Y-70769383D01*
X120573813Y-71037172D01*
X120801548Y-71264907D01*
X121069337Y-71443838D01*
X121366888Y-71567088D01*
X121682767Y-71629920D01*
X122004833Y-71629920D01*
X122320712Y-71567088D01*
X122618263Y-71443838D01*
X122886052Y-71264907D01*
X123113787Y-71037172D01*
X123292718Y-70769383D01*
X123296605Y-70760000D01*
X124145199Y-70760000D01*
X131316201Y-77931003D01*
X131340000Y-77960002D01*
X131368998Y-77983800D01*
X131455724Y-78054975D01*
X131462617Y-78058660D01*
X131327113Y-78149201D01*
X131134200Y-78342114D01*
X130982628Y-78568957D01*
X130878224Y-78821011D01*
X130824999Y-79088589D01*
X130824999Y-79361411D01*
X130878224Y-79628989D01*
X130982628Y-79881043D01*
X131134200Y-80107886D01*
X131327113Y-80300799D01*
X131553956Y-80452371D01*
X131806010Y-80556775D01*
X132073588Y-80610000D01*
X132346410Y-80610000D01*
X132613988Y-80556775D01*
X132866042Y-80452371D01*
X133092885Y-80300799D01*
X133285798Y-80107886D01*
X133437370Y-79881043D01*
X133541774Y-79628989D01*
X133542174Y-79626977D01*
X137186927Y-83271730D01*
X137186927Y-84535000D01*
X137199187Y-84659482D01*
X137235497Y-84779180D01*
X137294462Y-84889494D01*
X137348221Y-84955000D01*
X137294462Y-85020506D01*
X137235497Y-85130820D01*
X137199187Y-85250518D01*
X137186927Y-85375000D01*
X137186927Y-87075000D01*
X137199187Y-87199482D01*
X137235497Y-87319180D01*
X137294462Y-87429494D01*
X137348221Y-87495000D01*
X137294462Y-87560506D01*
X137235497Y-87670820D01*
X137199187Y-87790518D01*
X137186927Y-87915000D01*
X137186927Y-89178270D01*
X134455199Y-91909999D01*
X122383071Y-91909999D01*
X122383071Y-90455000D01*
X122370811Y-90330518D01*
X122334501Y-90210820D01*
X122275536Y-90100506D01*
X122221777Y-90035000D01*
X122275536Y-89969494D01*
X122334501Y-89859180D01*
X122370811Y-89739482D01*
X122383071Y-89615000D01*
X122383071Y-87915000D01*
X122370811Y-87790518D01*
X122334501Y-87670820D01*
X122275536Y-87560506D01*
X122221777Y-87495000D01*
X122275536Y-87429494D01*
X122334501Y-87319180D01*
X122370811Y-87199482D01*
X122383071Y-87075000D01*
X122383071Y-85375000D01*
X122370811Y-85250518D01*
X122334501Y-85130820D01*
X122275536Y-85020506D01*
X122221777Y-84955000D01*
X122275536Y-84889494D01*
X122334501Y-84779180D01*
X122370811Y-84659482D01*
X122383071Y-84535000D01*
X122383071Y-82835000D01*
X122370811Y-82710518D01*
X122334501Y-82590820D01*
X122275536Y-82480506D01*
X122221777Y-82415000D01*
X122275536Y-82349494D01*
X122334501Y-82239180D01*
X122370811Y-82119482D01*
X122383071Y-81995000D01*
X122383071Y-80295000D01*
X122370811Y-80170518D01*
X122334501Y-80050820D01*
X122275536Y-79940506D01*
X122221777Y-79875000D01*
X122275536Y-79809494D01*
X122334501Y-79699180D01*
X122370811Y-79579482D01*
X122383071Y-79455000D01*
X122381077Y-79088589D01*
X125974999Y-79088589D01*
X125974999Y-79361411D01*
X126028224Y-79628989D01*
X126132628Y-79881043D01*
X126284200Y-80107886D01*
X126477113Y-80300799D01*
X126703956Y-80452371D01*
X126956010Y-80556775D01*
X127223588Y-80610000D01*
X127496410Y-80610000D01*
X127763988Y-80556775D01*
X128016042Y-80452371D01*
X128242885Y-80300799D01*
X128435798Y-80107886D01*
X128587370Y-79881043D01*
X128691774Y-79628989D01*
X128744999Y-79361411D01*
X128744999Y-79088589D01*
X128691774Y-78821011D01*
X128587370Y-78568957D01*
X128435798Y-78342114D01*
X128242885Y-78149201D01*
X128016042Y-77997629D01*
X127763988Y-77893225D01*
X127496410Y-77840000D01*
X127223588Y-77840000D01*
X126956010Y-77893225D01*
X126703956Y-77997629D01*
X126477113Y-78149201D01*
X126284200Y-78342114D01*
X126132628Y-78568957D01*
X126028224Y-78821011D01*
X125974999Y-79088589D01*
X122381077Y-79088589D01*
X122379999Y-78890750D01*
X122221249Y-78732000D01*
X117768749Y-78732000D01*
X117609999Y-78890750D01*
X117606927Y-79455000D01*
X117619187Y-79579482D01*
X117655497Y-79699180D01*
X117714462Y-79809494D01*
X117768221Y-79875000D01*
X117714462Y-79940506D01*
X117655497Y-80050820D01*
X117619187Y-80170518D01*
X117606927Y-80295000D01*
X117606927Y-81995000D01*
X117619187Y-82119482D01*
X117655497Y-82239180D01*
X117714462Y-82349494D01*
X117768221Y-82415000D01*
X117714462Y-82480506D01*
X117655497Y-82590820D01*
X117619187Y-82710518D01*
X117606927Y-82835000D01*
X117606927Y-84535000D01*
X117619187Y-84659482D01*
X117655497Y-84779180D01*
X117714462Y-84889494D01*
X117768221Y-84955000D01*
X117714462Y-85020506D01*
X117655497Y-85130820D01*
X117619187Y-85250518D01*
X117606927Y-85375000D01*
X117606927Y-87075000D01*
X117619187Y-87199482D01*
X117655497Y-87319180D01*
X117714462Y-87429494D01*
X117768221Y-87495000D01*
X117714462Y-87560506D01*
X117655497Y-87670820D01*
X117619187Y-87790518D01*
X117606927Y-87915000D01*
X117606927Y-89615000D01*
X117619187Y-89739482D01*
X117655497Y-89859180D01*
X117714462Y-89969494D01*
X117768221Y-90035000D01*
X117714462Y-90100506D01*
X117655497Y-90210820D01*
X117619187Y-90330518D01*
X117606927Y-90455000D01*
X117606927Y-91950000D01*
X114308178Y-91950000D01*
X114183475Y-91763368D01*
X113976632Y-91556525D01*
X113733411Y-91394010D01*
X113463158Y-91282068D01*
X113176260Y-91225000D01*
X112883740Y-91225000D01*
X112596842Y-91282068D01*
X112326589Y-91394010D01*
X112083368Y-91556525D01*
X111876525Y-91763368D01*
X111714010Y-92006589D01*
X111602068Y-92276842D01*
X111545000Y-92563740D01*
X111545000Y-92856260D01*
X111602068Y-93143158D01*
X111714010Y-93413411D01*
X111876525Y-93656632D01*
X112083368Y-93863475D01*
X112257760Y-93980000D01*
X112083368Y-94096525D01*
X111876525Y-94303368D01*
X111714010Y-94546589D01*
X111602068Y-94816842D01*
X111545000Y-95103740D01*
X111545000Y-95396260D01*
X111602068Y-95683158D01*
X111714010Y-95953411D01*
X111876525Y-96196632D01*
X112083368Y-96403475D01*
X112257760Y-96520000D01*
X112083368Y-96636525D01*
X111876525Y-96843368D01*
X111714010Y-97086589D01*
X111602068Y-97356842D01*
X111545000Y-97643740D01*
X111545000Y-97936260D01*
X111602068Y-98223158D01*
X111714010Y-98493411D01*
X111876525Y-98736632D01*
X112008380Y-98868487D01*
X111935820Y-98890498D01*
X111825506Y-98949463D01*
X111728815Y-99028815D01*
X111649463Y-99125506D01*
X111590498Y-99235820D01*
X111554188Y-99355518D01*
X111541928Y-99480000D01*
X111175000Y-99480000D01*
X111175000Y-75215000D01*
X117606927Y-75215000D01*
X117606927Y-76915000D01*
X117619187Y-77039482D01*
X117655497Y-77159180D01*
X117714462Y-77269494D01*
X117768221Y-77335000D01*
X117714462Y-77400506D01*
X117655497Y-77510820D01*
X117619187Y-77630518D01*
X117606927Y-77755000D01*
X117609999Y-78319250D01*
X117768749Y-78478000D01*
X122221249Y-78478000D01*
X122379999Y-78319250D01*
X122383071Y-77755000D01*
X122370811Y-77630518D01*
X122334501Y-77510820D01*
X122275536Y-77400506D01*
X122221777Y-77335000D01*
X122275536Y-77269494D01*
X122334501Y-77159180D01*
X122370811Y-77039482D01*
X122383071Y-76915000D01*
X122383071Y-76043816D01*
X125524999Y-76043816D01*
X125524999Y-76346184D01*
X125583988Y-76642743D01*
X125699700Y-76922095D01*
X125867687Y-77173505D01*
X126081494Y-77387312D01*
X126332904Y-77555299D01*
X126612256Y-77671011D01*
X126908815Y-77730000D01*
X127211183Y-77730000D01*
X127507742Y-77671011D01*
X127787094Y-77555299D01*
X128038504Y-77387312D01*
X128252311Y-77173505D01*
X128420298Y-76922095D01*
X128536010Y-76642743D01*
X128594999Y-76346184D01*
X128594999Y-76043816D01*
X128536010Y-75747257D01*
X128420298Y-75467905D01*
X128252311Y-75216495D01*
X128038504Y-75002688D01*
X127787094Y-74834701D01*
X127507742Y-74718989D01*
X127211183Y-74660000D01*
X126908815Y-74660000D01*
X126612256Y-74718989D01*
X126332904Y-74834701D01*
X126081494Y-75002688D01*
X125867687Y-75216495D01*
X125699700Y-75467905D01*
X125583988Y-75747257D01*
X125524999Y-76043816D01*
X122383071Y-76043816D01*
X122383071Y-75215000D01*
X122370811Y-75090518D01*
X122334501Y-74970820D01*
X122275536Y-74860506D01*
X122196184Y-74763815D01*
X122099493Y-74684463D01*
X121989179Y-74625498D01*
X121869481Y-74589188D01*
X121744999Y-74576928D01*
X118244999Y-74576928D01*
X118120517Y-74589188D01*
X118000819Y-74625498D01*
X117890505Y-74684463D01*
X117793814Y-74763815D01*
X117714462Y-74860506D01*
X117655497Y-74970820D01*
X117619187Y-75090518D01*
X117606927Y-75215000D01*
X111175000Y-75215000D01*
X111175000Y-69833887D01*
X115708800Y-69833887D01*
X115708800Y-70155953D01*
X115771632Y-70471832D01*
X115894882Y-70769383D01*
X116073813Y-71037172D01*
X116301548Y-71264907D01*
X116569337Y-71443838D01*
X116866888Y-71567088D01*
X117182767Y-71629920D01*
X117504833Y-71629920D01*
X117820712Y-71567088D01*
X118118263Y-71443838D01*
X118386052Y-71264907D01*
X118613787Y-71037172D01*
X118792718Y-70769383D01*
X118915968Y-70471832D01*
X118978800Y-70155953D01*
X118978800Y-69833887D01*
X118915968Y-69518008D01*
X118792718Y-69220457D01*
X118613787Y-68952668D01*
X118386052Y-68724933D01*
X118118263Y-68546002D01*
X117820712Y-68422752D01*
X117504833Y-68359920D01*
X117182767Y-68359920D01*
X116866888Y-68422752D01*
X116569337Y-68546002D01*
X116301548Y-68724933D01*
X116073813Y-68952668D01*
X115894882Y-69220457D01*
X115771632Y-69518008D01*
X115708800Y-69833887D01*
X111175000Y-69833887D01*
X111175000Y-67930200D01*
X138161928Y-67930200D01*
X138161928Y-69229800D01*
X138178996Y-69403093D01*
X138229544Y-69569727D01*
X138311629Y-69723297D01*
X138422097Y-69857903D01*
X138556703Y-69968371D01*
X138710273Y-70050456D01*
X138876907Y-70101004D01*
X139050200Y-70118072D01*
X140349800Y-70118072D01*
X140523093Y-70101004D01*
X140689727Y-70050456D01*
X140843297Y-69968371D01*
X140977903Y-69857903D01*
X141088371Y-69723297D01*
X141170456Y-69569727D01*
X141221004Y-69403093D01*
X141238072Y-69229800D01*
X141238072Y-67930200D01*
X141221004Y-67756907D01*
X141170456Y-67590273D01*
X141088371Y-67436703D01*
X140977903Y-67302097D01*
X140843297Y-67191629D01*
X140762419Y-67148398D01*
X140892312Y-67018505D01*
X141060299Y-66767095D01*
X141176011Y-66487743D01*
X141235000Y-66191184D01*
X141235000Y-65888816D01*
X141176011Y-65592257D01*
X141060299Y-65312905D01*
X140892312Y-65061495D01*
X140678505Y-64847688D01*
X140524895Y-64745049D01*
X140584475Y-64564080D01*
X139700000Y-63679605D01*
X138815525Y-64564080D01*
X138875105Y-64745049D01*
X138721495Y-64847688D01*
X138507688Y-65061495D01*
X138339701Y-65312905D01*
X138223989Y-65592257D01*
X138165000Y-65888816D01*
X138165000Y-66191184D01*
X138223989Y-66487743D01*
X138339701Y-66767095D01*
X138507688Y-67018505D01*
X138637581Y-67148398D01*
X138556703Y-67191629D01*
X138422097Y-67302097D01*
X138311629Y-67436703D01*
X138229544Y-67590273D01*
X138178996Y-67756907D01*
X138161928Y-67930200D01*
X111175000Y-67930200D01*
X111175000Y-63533504D01*
X111194572Y-63333887D01*
X115708800Y-63333887D01*
X115708800Y-63655953D01*
X115771632Y-63971832D01*
X115894882Y-64269383D01*
X116073813Y-64537172D01*
X116301548Y-64764907D01*
X116569337Y-64943838D01*
X116866888Y-65067088D01*
X117182767Y-65129920D01*
X117504833Y-65129920D01*
X117820712Y-65067088D01*
X118118263Y-64943838D01*
X118386052Y-64764907D01*
X118613787Y-64537172D01*
X118792718Y-64269383D01*
X118915968Y-63971832D01*
X118978800Y-63655953D01*
X118978800Y-63333887D01*
X120208800Y-63333887D01*
X120208800Y-63655953D01*
X120271632Y-63971832D01*
X120394882Y-64269383D01*
X120573813Y-64537172D01*
X120801548Y-64764907D01*
X121069337Y-64943838D01*
X121366888Y-65067088D01*
X121682767Y-65129920D01*
X122004833Y-65129920D01*
X122320712Y-65067088D01*
X122618263Y-64943838D01*
X122885766Y-64765098D01*
X125930720Y-64765098D01*
X125930720Y-65234902D01*
X126022374Y-65695679D01*
X126202160Y-66129721D01*
X126463170Y-66520349D01*
X126795371Y-66852550D01*
X127185999Y-67113560D01*
X127620041Y-67293346D01*
X128080818Y-67385000D01*
X128550622Y-67385000D01*
X129011399Y-67293346D01*
X129445441Y-67113560D01*
X129836069Y-66852550D01*
X130168270Y-66520349D01*
X130429280Y-66129721D01*
X130609066Y-65695679D01*
X130700720Y-65234902D01*
X130700720Y-64765098D01*
X130609066Y-64304321D01*
X130429280Y-63870279D01*
X130226337Y-63566553D01*
X138159009Y-63566553D01*
X138201603Y-63865907D01*
X138301778Y-64151199D01*
X138381739Y-64300792D01*
X138635920Y-64384475D01*
X139520395Y-63500000D01*
X139879605Y-63500000D01*
X140764080Y-64384475D01*
X141018261Y-64300792D01*
X141149158Y-64028225D01*
X141224365Y-63735358D01*
X141240991Y-63433447D01*
X141198397Y-63134093D01*
X141098222Y-62848801D01*
X141018261Y-62699208D01*
X140764080Y-62615525D01*
X139879605Y-63500000D01*
X139520395Y-63500000D01*
X138635920Y-62615525D01*
X138381739Y-62699208D01*
X138250842Y-62971775D01*
X138175635Y-63264642D01*
X138159009Y-63566553D01*
X130226337Y-63566553D01*
X130168270Y-63479651D01*
X129836069Y-63147450D01*
X129445441Y-62886440D01*
X129011399Y-62706654D01*
X128550622Y-62615000D01*
X128080818Y-62615000D01*
X127620041Y-62706654D01*
X127185999Y-62886440D01*
X126795371Y-63147450D01*
X126463170Y-63479651D01*
X126202160Y-63870279D01*
X126022374Y-64304321D01*
X125930720Y-64765098D01*
X122885766Y-64765098D01*
X122886052Y-64764907D01*
X123113787Y-64537172D01*
X123292718Y-64269383D01*
X123415968Y-63971832D01*
X123478800Y-63655953D01*
X123478800Y-63333887D01*
X123415968Y-63018008D01*
X123292718Y-62720457D01*
X123113787Y-62452668D01*
X123097039Y-62435920D01*
X138815525Y-62435920D01*
X139700000Y-63320395D01*
X140584475Y-62435920D01*
X140500792Y-62181739D01*
X140228225Y-62050842D01*
X139935358Y-61975635D01*
X139633447Y-61959009D01*
X139334093Y-62001603D01*
X139048801Y-62101778D01*
X138899208Y-62181739D01*
X138815525Y-62435920D01*
X123097039Y-62435920D01*
X122886052Y-62224933D01*
X122618263Y-62046002D01*
X122320712Y-61922752D01*
X122004833Y-61859920D01*
X121682767Y-61859920D01*
X121366888Y-61922752D01*
X121069337Y-62046002D01*
X120801548Y-62224933D01*
X120573813Y-62452668D01*
X120394882Y-62720457D01*
X120271632Y-63018008D01*
X120208800Y-63333887D01*
X118978800Y-63333887D01*
X118915968Y-63018008D01*
X118792718Y-62720457D01*
X118613787Y-62452668D01*
X118386052Y-62224933D01*
X118118263Y-62046002D01*
X117820712Y-61922752D01*
X117504833Y-61859920D01*
X117182767Y-61859920D01*
X116866888Y-61922752D01*
X116569337Y-62046002D01*
X116301548Y-62224933D01*
X116073813Y-62452668D01*
X115894882Y-62720457D01*
X115771632Y-63018008D01*
X115708800Y-63333887D01*
X111194572Y-63333887D01*
X111213551Y-63140332D01*
X111318004Y-62794366D01*
X111487667Y-62475276D01*
X111716076Y-62195219D01*
X111994534Y-61964859D01*
X112312430Y-61792973D01*
X112657658Y-61686107D01*
X113048753Y-61645000D01*
X142206496Y-61645000D01*
X142599668Y-61683551D01*
%TA.AperFunction,Conductor*%
D25*
G36*
X142599668Y-61683551D02*
G01*
X142945634Y-61788004D01*
X143264724Y-61957667D01*
X143544781Y-62186076D01*
X143775141Y-62464534D01*
X143947027Y-62782430D01*
X144053893Y-63127658D01*
X144095000Y-63518753D01*
X144095001Y-140936485D01*
X144056449Y-141329667D01*
X143951996Y-141675635D01*
X143782333Y-141994724D01*
X143553924Y-142274781D01*
X143275466Y-142505141D01*
X142957570Y-142677027D01*
X142612340Y-142783894D01*
X142221238Y-142825000D01*
X113063505Y-142825000D01*
X112670333Y-142786449D01*
X112324365Y-142681996D01*
X112005276Y-142512333D01*
X111725219Y-142283924D01*
X111494859Y-142005466D01*
X111322973Y-141687570D01*
X111216106Y-141342340D01*
X111175000Y-140951238D01*
X111175000Y-136115475D01*
X112675000Y-136115475D01*
X112675000Y-136634525D01*
X112776261Y-137143601D01*
X112974893Y-137623141D01*
X113263262Y-138054715D01*
X113630285Y-138421738D01*
X114061859Y-138710107D01*
X114541399Y-138908739D01*
X115050475Y-139010000D01*
X115569525Y-139010000D01*
X116078601Y-138908739D01*
X116370810Y-138787702D01*
X121456903Y-138787702D01*
X121528486Y-139031671D01*
X121783996Y-139152571D01*
X122058184Y-139221300D01*
X122340512Y-139235217D01*
X122620130Y-139193787D01*
X122886292Y-139098603D01*
X123011514Y-139031671D01*
X123083097Y-138787702D01*
X122270000Y-137974605D01*
X121456903Y-138787702D01*
X116370810Y-138787702D01*
X116558141Y-138710107D01*
X116989715Y-138421738D01*
X117356738Y-138054715D01*
X117483159Y-137865512D01*
X120829783Y-137865512D01*
X120871213Y-138145130D01*
X120966397Y-138411292D01*
X121033329Y-138536514D01*
X121277298Y-138608097D01*
X122090395Y-137795000D01*
X122449605Y-137795000D01*
X123262702Y-138608097D01*
X123506671Y-138536514D01*
X123627571Y-138281004D01*
X123653212Y-138178711D01*
X123660147Y-138213574D01*
X123768320Y-138474727D01*
X123925363Y-138709759D01*
X124125241Y-138909637D01*
X124360273Y-139066680D01*
X124621426Y-139174853D01*
X124898665Y-139230000D01*
X125181335Y-139230000D01*
X125458574Y-139174853D01*
X125719727Y-139066680D01*
X125954759Y-138909637D01*
X126154637Y-138709759D01*
X126311680Y-138474727D01*
X126419853Y-138213574D01*
X126425000Y-138187699D01*
X126430147Y-138213574D01*
X126538320Y-138474727D01*
X126695363Y-138709759D01*
X126895241Y-138909637D01*
X127130273Y-139066680D01*
X127391426Y-139174853D01*
X127668665Y-139230000D01*
X127951335Y-139230000D01*
X128228574Y-139174853D01*
X128489727Y-139066680D01*
X128724759Y-138909637D01*
X128924637Y-138709759D01*
X129081680Y-138474727D01*
X129189853Y-138213574D01*
X129195000Y-138187699D01*
X129200147Y-138213574D01*
X129308320Y-138474727D01*
X129465363Y-138709759D01*
X129665241Y-138909637D01*
X129900273Y-139066680D01*
X130161426Y-139174853D01*
X130438665Y-139230000D01*
X130721335Y-139230000D01*
X130998574Y-139174853D01*
X131259727Y-139066680D01*
X131494759Y-138909637D01*
X131694637Y-138709759D01*
X131851680Y-138474727D01*
X131911928Y-138329275D01*
X131911928Y-138595000D01*
X131924188Y-138719482D01*
X131960498Y-138839180D01*
X132019463Y-138949494D01*
X132098815Y-139046185D01*
X132195506Y-139125537D01*
X132305820Y-139184502D01*
X132425518Y-139220812D01*
X132550000Y-139233072D01*
X134150000Y-139233072D01*
X134274482Y-139220812D01*
X134394180Y-139184502D01*
X134504494Y-139125537D01*
X134601185Y-139046185D01*
X134680537Y-138949494D01*
X134739502Y-138839180D01*
X134775812Y-138719482D01*
X134788072Y-138595000D01*
X134788072Y-136995000D01*
X134775812Y-136870518D01*
X134739502Y-136750820D01*
X134680537Y-136640506D01*
X134601185Y-136543815D01*
X134504494Y-136464463D01*
X134394180Y-136405498D01*
X134274482Y-136369188D01*
X134150000Y-136356928D01*
X132550000Y-136356928D01*
X132425518Y-136369188D01*
X132305820Y-136405498D01*
X132195506Y-136464463D01*
X132098815Y-136543815D01*
X132019463Y-136640506D01*
X131960498Y-136750820D01*
X131924188Y-136870518D01*
X131911928Y-136995000D01*
X131911928Y-137260725D01*
X131851680Y-137115273D01*
X131694637Y-136880241D01*
X131494759Y-136680363D01*
X131259727Y-136523320D01*
X130998574Y-136415147D01*
X130721335Y-136360000D01*
X130438665Y-136360000D01*
X130161426Y-136415147D01*
X129900273Y-136523320D01*
X129665241Y-136680363D01*
X129465363Y-136880241D01*
X129308320Y-137115273D01*
X129200147Y-137376426D01*
X129195000Y-137402301D01*
X129189853Y-137376426D01*
X129081680Y-137115273D01*
X128924637Y-136880241D01*
X128724759Y-136680363D01*
X128489727Y-136523320D01*
X128228574Y-136415147D01*
X127951335Y-136360000D01*
X127668665Y-136360000D01*
X127391426Y-136415147D01*
X127130273Y-136523320D01*
X126895241Y-136680363D01*
X126695363Y-136880241D01*
X126538320Y-137115273D01*
X126430147Y-137376426D01*
X126425000Y-137402301D01*
X126419853Y-137376426D01*
X126311680Y-137115273D01*
X126154637Y-136880241D01*
X125954759Y-136680363D01*
X125719727Y-136523320D01*
X125458574Y-136415147D01*
X125181335Y-136360000D01*
X124898665Y-136360000D01*
X124621426Y-136415147D01*
X124360273Y-136523320D01*
X124125241Y-136680363D01*
X123925363Y-136880241D01*
X123768320Y-137115273D01*
X123660147Y-137376426D01*
X123654487Y-137404882D01*
X123573603Y-137178708D01*
X123506671Y-137053486D01*
X123262702Y-136981903D01*
X122449605Y-137795000D01*
X122090395Y-137795000D01*
X121277298Y-136981903D01*
X121033329Y-137053486D01*
X120912429Y-137308996D01*
X120843700Y-137583184D01*
X120829783Y-137865512D01*
X117483159Y-137865512D01*
X117645107Y-137623141D01*
X117843739Y-137143601D01*
X117911628Y-136802298D01*
X121456903Y-136802298D01*
X122270000Y-137615395D01*
X123083097Y-136802298D01*
X123011514Y-136558329D01*
X122756004Y-136437429D01*
X122481816Y-136368700D01*
X122199488Y-136354783D01*
X121919870Y-136396213D01*
X121653708Y-136491397D01*
X121528486Y-136558329D01*
X121456903Y-136802298D01*
X117911628Y-136802298D01*
X117945000Y-136634525D01*
X117945000Y-136115475D01*
X117843739Y-135606399D01*
X117645107Y-135126859D01*
X117435838Y-134813665D01*
X122220000Y-134813665D01*
X122220000Y-135096335D01*
X122275147Y-135373574D01*
X122383320Y-135634727D01*
X122540363Y-135869759D01*
X122740241Y-136069637D01*
X122975273Y-136226680D01*
X123236426Y-136334853D01*
X123513665Y-136390000D01*
X123796335Y-136390000D01*
X124073574Y-136334853D01*
X124334727Y-136226680D01*
X124569759Y-136069637D01*
X124769637Y-135869759D01*
X124926680Y-135634727D01*
X125034853Y-135373574D01*
X125040000Y-135347699D01*
X125045147Y-135373574D01*
X125153320Y-135634727D01*
X125310363Y-135869759D01*
X125510241Y-136069637D01*
X125745273Y-136226680D01*
X126006426Y-136334853D01*
X126283665Y-136390000D01*
X126566335Y-136390000D01*
X126843574Y-136334853D01*
X127104727Y-136226680D01*
X127339759Y-136069637D01*
X127539637Y-135869759D01*
X127696680Y-135634727D01*
X127804853Y-135373574D01*
X127810000Y-135347699D01*
X127815147Y-135373574D01*
X127923320Y-135634727D01*
X128080363Y-135869759D01*
X128280241Y-136069637D01*
X128515273Y-136226680D01*
X128776426Y-136334853D01*
X129053665Y-136390000D01*
X129336335Y-136390000D01*
X129613574Y-136334853D01*
X129874727Y-136226680D01*
X130109759Y-136069637D01*
X130309637Y-135869759D01*
X130466680Y-135634727D01*
X130574853Y-135373574D01*
X130580000Y-135347699D01*
X130585147Y-135373574D01*
X130693320Y-135634727D01*
X130850363Y-135869759D01*
X131050241Y-136069637D01*
X131285273Y-136226680D01*
X131546426Y-136334853D01*
X131823665Y-136390000D01*
X132106335Y-136390000D01*
X132383574Y-136334853D01*
X132644727Y-136226680D01*
X132811157Y-136115475D01*
X137675000Y-136115475D01*
X137675000Y-136634525D01*
X137776261Y-137143601D01*
X137974893Y-137623141D01*
X138263262Y-138054715D01*
X138630285Y-138421738D01*
X139061859Y-138710107D01*
X139541399Y-138908739D01*
X140050475Y-139010000D01*
X140569525Y-139010000D01*
X141078601Y-138908739D01*
X141558141Y-138710107D01*
X141989715Y-138421738D01*
X142356738Y-138054715D01*
X142645107Y-137623141D01*
X142843739Y-137143601D01*
X142945000Y-136634525D01*
X142945000Y-136115475D01*
X142843739Y-135606399D01*
X142645107Y-135126859D01*
X142356738Y-134695285D01*
X141989715Y-134328262D01*
X141558141Y-134039893D01*
X141078601Y-133841261D01*
X140569525Y-133740000D01*
X140050475Y-133740000D01*
X139541399Y-133841261D01*
X139061859Y-134039893D01*
X138630285Y-134328262D01*
X138263262Y-134695285D01*
X137974893Y-135126859D01*
X137776261Y-135606399D01*
X137675000Y-136115475D01*
X132811157Y-136115475D01*
X132879759Y-136069637D01*
X133079637Y-135869759D01*
X133236680Y-135634727D01*
X133344853Y-135373574D01*
X133400000Y-135096335D01*
X133400000Y-134813665D01*
X133344853Y-134536426D01*
X133236680Y-134275273D01*
X133079637Y-134040241D01*
X132879759Y-133840363D01*
X132644727Y-133683320D01*
X132383574Y-133575147D01*
X132106335Y-133520000D01*
X131823665Y-133520000D01*
X131546426Y-133575147D01*
X131285273Y-133683320D01*
X131050241Y-133840363D01*
X130850363Y-134040241D01*
X130693320Y-134275273D01*
X130585147Y-134536426D01*
X130580000Y-134562301D01*
X130574853Y-134536426D01*
X130466680Y-134275273D01*
X130309637Y-134040241D01*
X130109759Y-133840363D01*
X129874727Y-133683320D01*
X129613574Y-133575147D01*
X129336335Y-133520000D01*
X129053665Y-133520000D01*
X128776426Y-133575147D01*
X128515273Y-133683320D01*
X128280241Y-133840363D01*
X128080363Y-134040241D01*
X127923320Y-134275273D01*
X127815147Y-134536426D01*
X127810000Y-134562301D01*
X127804853Y-134536426D01*
X127696680Y-134275273D01*
X127539637Y-134040241D01*
X127339759Y-133840363D01*
X127104727Y-133683320D01*
X126843574Y-133575147D01*
X126566335Y-133520000D01*
X126283665Y-133520000D01*
X126006426Y-133575147D01*
X125745273Y-133683320D01*
X125510241Y-133840363D01*
X125310363Y-134040241D01*
X125153320Y-134275273D01*
X125045147Y-134536426D01*
X125040000Y-134562301D01*
X125034853Y-134536426D01*
X124926680Y-134275273D01*
X124769637Y-134040241D01*
X124569759Y-133840363D01*
X124334727Y-133683320D01*
X124073574Y-133575147D01*
X123796335Y-133520000D01*
X123513665Y-133520000D01*
X123236426Y-133575147D01*
X122975273Y-133683320D01*
X122740241Y-133840363D01*
X122540363Y-134040241D01*
X122383320Y-134275273D01*
X122275147Y-134536426D01*
X122220000Y-134813665D01*
X117435838Y-134813665D01*
X117356738Y-134695285D01*
X116989715Y-134328262D01*
X116558141Y-134039893D01*
X116078601Y-133841261D01*
X115569525Y-133740000D01*
X115050475Y-133740000D01*
X114541399Y-133841261D01*
X114061859Y-134039893D01*
X113630285Y-134328262D01*
X113263262Y-134695285D01*
X112974893Y-135126859D01*
X112776261Y-135606399D01*
X112675000Y-136115475D01*
X111175000Y-136115475D01*
X111175000Y-101180000D01*
X111541928Y-101180000D01*
X111554188Y-101304482D01*
X111590498Y-101424180D01*
X111649463Y-101534494D01*
X111728815Y-101631185D01*
X111825506Y-101710537D01*
X111935820Y-101769502D01*
X112055518Y-101805812D01*
X112180000Y-101818072D01*
X112744250Y-101815000D01*
X112903000Y-101656250D01*
X112903000Y-100457000D01*
X113157000Y-100457000D01*
X113157000Y-101656250D01*
X113315750Y-101815000D01*
X113880000Y-101818072D01*
X114004482Y-101805812D01*
X114124180Y-101769502D01*
X114234494Y-101710537D01*
X114331185Y-101631185D01*
X114410537Y-101534494D01*
X114469502Y-101424180D01*
X114505812Y-101304482D01*
X114518072Y-101180000D01*
X114515000Y-100615750D01*
X114356250Y-100457000D01*
X113157000Y-100457000D01*
X112903000Y-100457000D01*
X111703750Y-100457000D01*
X111545000Y-100615750D01*
X111541928Y-101180000D01*
X111175000Y-101180000D01*
X111175000Y-99480000D01*
X111541928Y-99480000D01*
X111545000Y-100044250D01*
X111703750Y-100203000D01*
X112903000Y-100203000D01*
X112903000Y-100183000D01*
X113157000Y-100183000D01*
X113157000Y-100203000D01*
X114356250Y-100203000D01*
X114515000Y-100044250D01*
X114518072Y-99480000D01*
X114505812Y-99355518D01*
X114469502Y-99235820D01*
X114410537Y-99125506D01*
X114331185Y-99028815D01*
X114234494Y-98949463D01*
X114124180Y-98890498D01*
X114051620Y-98868487D01*
X114183475Y-98736632D01*
X114345990Y-98493411D01*
X114457932Y-98223158D01*
X114515000Y-97936260D01*
X114515000Y-97643740D01*
X114457932Y-97356842D01*
X114345990Y-97086589D01*
X114183475Y-96843368D01*
X113976632Y-96636525D01*
X113802240Y-96520000D01*
X113976632Y-96403475D01*
X114183475Y-96196632D01*
X114308178Y-96010000D01*
X117606927Y-96010000D01*
X117606927Y-97235000D01*
X117619187Y-97359482D01*
X117655497Y-97479180D01*
X117714462Y-97589494D01*
X117768221Y-97655000D01*
X117714462Y-97720506D01*
X117655497Y-97830820D01*
X117619187Y-97950518D01*
X117606927Y-98075000D01*
X117606927Y-99775000D01*
X117619187Y-99899482D01*
X117655497Y-100019180D01*
X117714462Y-100129494D01*
X117768221Y-100195000D01*
X117714462Y-100260506D01*
X117655497Y-100370820D01*
X117619187Y-100490518D01*
X117606927Y-100615000D01*
X117606927Y-102315000D01*
X117619187Y-102439482D01*
X117655497Y-102559180D01*
X117714462Y-102669494D01*
X117768221Y-102735000D01*
X117714462Y-102800506D01*
X117655497Y-102910820D01*
X117619187Y-103030518D01*
X117606927Y-103155000D01*
X117606927Y-104855000D01*
X117619187Y-104979482D01*
X117655497Y-105099180D01*
X117714462Y-105209494D01*
X117768221Y-105275000D01*
X117714462Y-105340506D01*
X117655497Y-105450820D01*
X117619187Y-105570518D01*
X117606927Y-105695000D01*
X117606927Y-107395000D01*
X117619187Y-107519482D01*
X117655497Y-107639180D01*
X117714462Y-107749494D01*
X117768221Y-107815000D01*
X117714462Y-107880506D01*
X117655497Y-107990820D01*
X117619187Y-108110518D01*
X117606927Y-108235000D01*
X117606927Y-109935000D01*
X117619187Y-110059482D01*
X117655497Y-110179180D01*
X117714462Y-110289494D01*
X117768221Y-110355000D01*
X117714462Y-110420506D01*
X117655497Y-110530820D01*
X117619187Y-110650518D01*
X117606927Y-110775000D01*
X117606927Y-112475000D01*
X117619187Y-112599482D01*
X117655497Y-112719180D01*
X117714462Y-112829494D01*
X117768221Y-112895000D01*
X117714462Y-112960506D01*
X117655497Y-113070820D01*
X117619187Y-113190518D01*
X117606927Y-113315000D01*
X117606927Y-115015000D01*
X117619187Y-115139482D01*
X117655497Y-115259180D01*
X117714462Y-115369494D01*
X117768221Y-115435000D01*
X117714462Y-115500506D01*
X117655497Y-115610820D01*
X117619187Y-115730518D01*
X117606927Y-115855000D01*
X117606927Y-117555000D01*
X117619187Y-117679482D01*
X117655497Y-117799180D01*
X117714462Y-117909494D01*
X117768221Y-117975000D01*
X117714462Y-118040506D01*
X117655497Y-118150820D01*
X117619187Y-118270518D01*
X117606927Y-118395000D01*
X117606927Y-120095000D01*
X117619187Y-120219482D01*
X117655497Y-120339180D01*
X117714462Y-120449494D01*
X117768221Y-120515000D01*
X117714462Y-120580506D01*
X117655497Y-120690820D01*
X117619187Y-120810518D01*
X117606927Y-120935000D01*
X117606927Y-122635000D01*
X117619187Y-122759482D01*
X117655497Y-122879180D01*
X117714462Y-122989494D01*
X117768221Y-123055000D01*
X117714462Y-123120506D01*
X117655497Y-123230820D01*
X117619187Y-123350518D01*
X117606927Y-123475000D01*
X117606927Y-125175000D01*
X117619187Y-125299482D01*
X117655497Y-125419180D01*
X117714462Y-125529494D01*
X117793814Y-125626185D01*
X117890505Y-125705537D01*
X118000819Y-125764502D01*
X118120517Y-125800812D01*
X118244999Y-125813072D01*
X121744999Y-125813072D01*
X121869481Y-125800812D01*
X121989179Y-125764502D01*
X122099493Y-125705537D01*
X122196184Y-125626185D01*
X122275536Y-125529494D01*
X122334501Y-125419180D01*
X122370811Y-125299482D01*
X122383071Y-125175000D01*
X122383071Y-123475000D01*
X122370811Y-123350518D01*
X122338803Y-123245000D01*
X125756927Y-123245000D01*
X125756927Y-126745000D01*
X125769187Y-126869482D01*
X125805497Y-126989180D01*
X125864462Y-127099494D01*
X125943814Y-127196185D01*
X126040505Y-127275537D01*
X126150819Y-127334502D01*
X126270517Y-127370812D01*
X126394999Y-127383072D01*
X128094999Y-127383072D01*
X128219481Y-127370812D01*
X128339179Y-127334502D01*
X128449493Y-127275537D01*
X128514999Y-127221778D01*
X128580505Y-127275537D01*
X128690819Y-127334502D01*
X128810517Y-127370812D01*
X128934999Y-127383072D01*
X130634999Y-127383072D01*
X130759481Y-127370812D01*
X130879179Y-127334502D01*
X130989493Y-127275537D01*
X131054999Y-127221778D01*
X131120505Y-127275537D01*
X131230819Y-127334502D01*
X131350517Y-127370812D01*
X131474999Y-127383072D01*
X133174999Y-127383072D01*
X133299481Y-127370812D01*
X133419179Y-127334502D01*
X133529493Y-127275537D01*
X133626184Y-127196185D01*
X133705536Y-127099494D01*
X133764501Y-126989180D01*
X133800811Y-126869482D01*
X133813071Y-126745000D01*
X133813071Y-123245000D01*
X133800811Y-123120518D01*
X133764501Y-123000820D01*
X133705536Y-122890506D01*
X133626184Y-122793815D01*
X133529493Y-122714463D01*
X133419179Y-122655498D01*
X133299481Y-122619188D01*
X133174999Y-122606928D01*
X131474999Y-122606928D01*
X131350517Y-122619188D01*
X131230819Y-122655498D01*
X131120505Y-122714463D01*
X131054999Y-122768222D01*
X130989493Y-122714463D01*
X130879179Y-122655498D01*
X130759481Y-122619188D01*
X130634999Y-122606928D01*
X128934999Y-122606928D01*
X128810517Y-122619188D01*
X128690819Y-122655498D01*
X128580505Y-122714463D01*
X128514999Y-122768222D01*
X128449493Y-122714463D01*
X128339179Y-122655498D01*
X128219481Y-122619188D01*
X128094999Y-122606928D01*
X126394999Y-122606928D01*
X126270517Y-122619188D01*
X126150819Y-122655498D01*
X126040505Y-122714463D01*
X125943814Y-122793815D01*
X125864462Y-122890506D01*
X125805497Y-123000820D01*
X125769187Y-123120518D01*
X125756927Y-123245000D01*
X122338803Y-123245000D01*
X122334501Y-123230820D01*
X122275536Y-123120506D01*
X122221777Y-123055000D01*
X122275536Y-122989494D01*
X122334501Y-122879180D01*
X122370811Y-122759482D01*
X122383071Y-122635000D01*
X122383071Y-120935000D01*
X122370811Y-120810518D01*
X122334501Y-120690820D01*
X122275536Y-120580506D01*
X122221777Y-120515000D01*
X122275536Y-120449494D01*
X122334501Y-120339180D01*
X122370811Y-120219482D01*
X122383071Y-120095000D01*
X122383071Y-118395000D01*
X122370811Y-118270518D01*
X122334501Y-118150820D01*
X122275536Y-118040506D01*
X122221777Y-117975000D01*
X122275536Y-117909494D01*
X122334501Y-117799180D01*
X122370811Y-117679482D01*
X122383071Y-117555000D01*
X122383071Y-115855000D01*
X122370811Y-115730518D01*
X122334501Y-115610820D01*
X122275536Y-115500506D01*
X122221777Y-115435000D01*
X122275536Y-115369494D01*
X122334501Y-115259180D01*
X122370811Y-115139482D01*
X122383071Y-115015000D01*
X122383071Y-113315000D01*
X122370811Y-113190518D01*
X122334501Y-113070820D01*
X122275536Y-112960506D01*
X122221777Y-112895000D01*
X122275536Y-112829494D01*
X122334501Y-112719180D01*
X122370811Y-112599482D01*
X122383071Y-112475000D01*
X122383071Y-110775000D01*
X122370811Y-110650518D01*
X122334501Y-110530820D01*
X122275536Y-110420506D01*
X122221777Y-110355000D01*
X122275536Y-110289494D01*
X122334501Y-110179180D01*
X122370811Y-110059482D01*
X122383071Y-109935000D01*
X122383071Y-108235000D01*
X122370811Y-108110518D01*
X122334501Y-107990820D01*
X122275536Y-107880506D01*
X122221777Y-107815000D01*
X122275536Y-107749494D01*
X122334501Y-107639180D01*
X122370811Y-107519482D01*
X122383071Y-107395000D01*
X122383071Y-105695000D01*
X122370811Y-105570518D01*
X122334501Y-105450820D01*
X122275536Y-105340506D01*
X122221777Y-105275000D01*
X122275536Y-105209494D01*
X122334501Y-105099180D01*
X122370811Y-104979482D01*
X122383071Y-104855000D01*
X122383071Y-103155000D01*
X122370811Y-103030518D01*
X122334501Y-102910820D01*
X122275536Y-102800506D01*
X122221777Y-102735000D01*
X122275536Y-102669494D01*
X122334501Y-102559180D01*
X122370811Y-102439482D01*
X122383071Y-102315000D01*
X122383071Y-100615000D01*
X122370811Y-100490518D01*
X122334501Y-100370820D01*
X122275536Y-100260506D01*
X122221777Y-100195000D01*
X122275536Y-100129494D01*
X122334501Y-100019180D01*
X122370811Y-99899482D01*
X122383071Y-99775000D01*
X122383071Y-98075000D01*
X122370811Y-97950518D01*
X122334501Y-97830820D01*
X122275536Y-97720506D01*
X122221777Y-97655000D01*
X122275536Y-97589494D01*
X122334501Y-97479180D01*
X122370811Y-97359482D01*
X122383071Y-97235000D01*
X122383071Y-95969999D01*
X134732678Y-95969999D01*
X134770000Y-95973675D01*
X134807322Y-95969999D01*
X134807333Y-95969999D01*
X134918986Y-95959002D01*
X135062247Y-95915545D01*
X135194276Y-95844973D01*
X135310001Y-95750000D01*
X135333804Y-95720996D01*
X137186927Y-93867873D01*
X137186927Y-94695000D01*
X137199187Y-94819482D01*
X137235497Y-94939180D01*
X137294462Y-95049494D01*
X137348221Y-95115000D01*
X137294462Y-95180506D01*
X137235497Y-95290820D01*
X137199187Y-95410518D01*
X137186927Y-95535000D01*
X137186927Y-96798271D01*
X136385797Y-97599401D01*
X136356793Y-97623204D01*
X136305106Y-97686185D01*
X136261820Y-97738929D01*
X136216080Y-97824502D01*
X136191248Y-97870959D01*
X136147791Y-98014220D01*
X136136794Y-98125873D01*
X136136794Y-98125883D01*
X136133118Y-98163205D01*
X136136794Y-98200528D01*
X136136795Y-99751992D01*
X129029003Y-106859785D01*
X128999999Y-106883588D01*
X128954537Y-106938984D01*
X128905026Y-106999313D01*
X128860698Y-107082245D01*
X128834454Y-107131343D01*
X128790997Y-107274604D01*
X128780000Y-107386257D01*
X128780000Y-107386267D01*
X128776324Y-107423589D01*
X128780000Y-107460912D01*
X128780001Y-109786288D01*
X128736063Y-109830226D01*
X128622795Y-109999744D01*
X128544774Y-110188102D01*
X128505000Y-110388061D01*
X128505000Y-110591939D01*
X128544774Y-110791898D01*
X128622795Y-110980256D01*
X128736063Y-111149774D01*
X128880226Y-111293937D01*
X129049744Y-111407205D01*
X129238102Y-111485226D01*
X129438061Y-111525000D01*
X129641939Y-111525000D01*
X129841898Y-111485226D01*
X130030256Y-111407205D01*
X130175000Y-111310490D01*
X130319744Y-111407205D01*
X130508102Y-111485226D01*
X130708061Y-111525000D01*
X130911939Y-111525000D01*
X131111898Y-111485226D01*
X131300256Y-111407205D01*
X131469774Y-111293937D01*
X131613937Y-111149774D01*
X131727205Y-110980256D01*
X131805226Y-110791898D01*
X131845000Y-110591939D01*
X131845000Y-110388061D01*
X131805226Y-110188102D01*
X131727205Y-109999744D01*
X131613937Y-109830226D01*
X131570000Y-109786289D01*
X131570000Y-107104800D01*
X137186927Y-101487874D01*
X137186927Y-102315000D01*
X137199187Y-102439482D01*
X137235497Y-102559180D01*
X137294462Y-102669494D01*
X137348221Y-102735000D01*
X137294462Y-102800506D01*
X137235497Y-102910820D01*
X137199187Y-103030518D01*
X137186927Y-103155000D01*
X137186927Y-104855000D01*
X137199187Y-104979482D01*
X137235497Y-105099180D01*
X137294462Y-105209494D01*
X137348221Y-105275000D01*
X137294462Y-105340506D01*
X137235497Y-105450820D01*
X137199187Y-105570518D01*
X137186927Y-105695000D01*
X137186927Y-107395000D01*
X137199187Y-107519482D01*
X137235497Y-107639180D01*
X137294462Y-107749494D01*
X137348221Y-107815000D01*
X137294462Y-107880506D01*
X137235497Y-107990820D01*
X137199187Y-108110518D01*
X137186927Y-108235000D01*
X137186927Y-109935000D01*
X137199187Y-110059482D01*
X137235497Y-110179180D01*
X137294462Y-110289494D01*
X137348221Y-110355000D01*
X137294462Y-110420506D01*
X137235497Y-110530820D01*
X137199187Y-110650518D01*
X137186927Y-110775000D01*
X137186927Y-112475000D01*
X137199187Y-112599482D01*
X137235497Y-112719180D01*
X137294462Y-112829494D01*
X137348221Y-112895000D01*
X137294462Y-112960506D01*
X137235497Y-113070820D01*
X137199187Y-113190518D01*
X137186927Y-113315000D01*
X137186927Y-115015000D01*
X137199187Y-115139482D01*
X137235497Y-115259180D01*
X137294462Y-115369494D01*
X137348221Y-115435000D01*
X137294462Y-115500506D01*
X137235497Y-115610820D01*
X137199187Y-115730518D01*
X137186927Y-115855000D01*
X137186927Y-117555000D01*
X137199187Y-117679482D01*
X137235497Y-117799180D01*
X137294462Y-117909494D01*
X137348221Y-117975000D01*
X137294462Y-118040506D01*
X137235497Y-118150820D01*
X137199187Y-118270518D01*
X137186927Y-118395000D01*
X137186927Y-120095000D01*
X137199187Y-120219482D01*
X137235497Y-120339180D01*
X137294462Y-120449494D01*
X137348221Y-120515000D01*
X137294462Y-120580506D01*
X137235497Y-120690820D01*
X137199187Y-120810518D01*
X137186927Y-120935000D01*
X137186927Y-122635000D01*
X137199187Y-122759482D01*
X137235497Y-122879180D01*
X137294462Y-122989494D01*
X137348221Y-123055000D01*
X137294462Y-123120506D01*
X137235497Y-123230820D01*
X137199187Y-123350518D01*
X137186927Y-123475000D01*
X137186927Y-125175000D01*
X137199187Y-125299482D01*
X137235497Y-125419180D01*
X137294462Y-125529494D01*
X137373814Y-125626185D01*
X137470505Y-125705537D01*
X137580819Y-125764502D01*
X137700517Y-125800812D01*
X137824999Y-125813072D01*
X141324999Y-125813072D01*
X141449481Y-125800812D01*
X141569179Y-125764502D01*
X141679493Y-125705537D01*
X141776184Y-125626185D01*
X141855536Y-125529494D01*
X141914501Y-125419180D01*
X141950811Y-125299482D01*
X141963071Y-125175000D01*
X141963071Y-123475000D01*
X141950811Y-123350518D01*
X141914501Y-123230820D01*
X141855536Y-123120506D01*
X141801777Y-123055000D01*
X141855536Y-122989494D01*
X141914501Y-122879180D01*
X141950811Y-122759482D01*
X141963071Y-122635000D01*
X141963071Y-120935000D01*
X141950811Y-120810518D01*
X141914501Y-120690820D01*
X141855536Y-120580506D01*
X141801777Y-120515000D01*
X141855536Y-120449494D01*
X141914501Y-120339180D01*
X141950811Y-120219482D01*
X141963071Y-120095000D01*
X141963071Y-118395000D01*
X141950811Y-118270518D01*
X141914501Y-118150820D01*
X141855536Y-118040506D01*
X141801777Y-117975000D01*
X141855536Y-117909494D01*
X141914501Y-117799180D01*
X141950811Y-117679482D01*
X141963071Y-117555000D01*
X141963071Y-115855000D01*
X141950811Y-115730518D01*
X141914501Y-115610820D01*
X141855536Y-115500506D01*
X141801777Y-115435000D01*
X141855536Y-115369494D01*
X141914501Y-115259180D01*
X141950811Y-115139482D01*
X141963071Y-115015000D01*
X141963071Y-113315000D01*
X141950811Y-113190518D01*
X141914501Y-113070820D01*
X141855536Y-112960506D01*
X141801777Y-112895000D01*
X141855536Y-112829494D01*
X141914501Y-112719180D01*
X141950811Y-112599482D01*
X141963071Y-112475000D01*
X141963071Y-110775000D01*
X141950811Y-110650518D01*
X141914501Y-110530820D01*
X141855536Y-110420506D01*
X141801777Y-110355000D01*
X141855536Y-110289494D01*
X141914501Y-110179180D01*
X141950811Y-110059482D01*
X141963071Y-109935000D01*
X141963071Y-108235000D01*
X141950811Y-108110518D01*
X141914501Y-107990820D01*
X141855536Y-107880506D01*
X141801777Y-107815000D01*
X141855536Y-107749494D01*
X141914501Y-107639180D01*
X141950811Y-107519482D01*
X141963071Y-107395000D01*
X141963071Y-105695000D01*
X141950811Y-105570518D01*
X141914501Y-105450820D01*
X141855536Y-105340506D01*
X141801777Y-105275000D01*
X141855536Y-105209494D01*
X141914501Y-105099180D01*
X141950811Y-104979482D01*
X141963071Y-104855000D01*
X141963071Y-103155000D01*
X141950811Y-103030518D01*
X141914501Y-102910820D01*
X141855536Y-102800506D01*
X141801777Y-102735000D01*
X141855536Y-102669494D01*
X141914501Y-102559180D01*
X141950811Y-102439482D01*
X141963071Y-102315000D01*
X141963071Y-100615000D01*
X141950811Y-100490518D01*
X141914501Y-100370820D01*
X141855536Y-100260506D01*
X141801777Y-100195000D01*
X141855536Y-100129494D01*
X141914501Y-100019180D01*
X141950811Y-99899482D01*
X141963071Y-99775000D01*
X141963071Y-98075000D01*
X141950811Y-97950518D01*
X141914501Y-97830820D01*
X141855536Y-97720506D01*
X141801777Y-97655000D01*
X141855536Y-97589494D01*
X141914501Y-97479180D01*
X141950811Y-97359482D01*
X141963071Y-97235000D01*
X141963071Y-95535000D01*
X141950811Y-95410518D01*
X141914501Y-95290820D01*
X141855536Y-95180506D01*
X141801777Y-95115000D01*
X141855536Y-95049494D01*
X141914501Y-94939180D01*
X141950811Y-94819482D01*
X141963071Y-94695000D01*
X141963071Y-92995000D01*
X141950811Y-92870518D01*
X141914501Y-92750820D01*
X141855536Y-92640506D01*
X141801777Y-92575000D01*
X141855536Y-92509494D01*
X141914501Y-92399180D01*
X141950811Y-92279482D01*
X141963071Y-92155000D01*
X141963071Y-90455000D01*
X141950811Y-90330518D01*
X141914501Y-90210820D01*
X141855536Y-90100506D01*
X141801777Y-90035000D01*
X141855536Y-89969494D01*
X141914501Y-89859180D01*
X141950811Y-89739482D01*
X141963071Y-89615000D01*
X141963071Y-87915000D01*
X141950811Y-87790518D01*
X141914501Y-87670820D01*
X141855536Y-87560506D01*
X141801777Y-87495000D01*
X141855536Y-87429494D01*
X141914501Y-87319180D01*
X141950811Y-87199482D01*
X141963071Y-87075000D01*
X141963071Y-85375000D01*
X141950811Y-85250518D01*
X141914501Y-85130820D01*
X141855536Y-85020506D01*
X141801777Y-84955000D01*
X141855536Y-84889494D01*
X141914501Y-84779180D01*
X141950811Y-84659482D01*
X141963071Y-84535000D01*
X141963071Y-82835000D01*
X141950811Y-82710518D01*
X141914501Y-82590820D01*
X141855536Y-82480506D01*
X141801777Y-82415000D01*
X141855536Y-82349494D01*
X141914501Y-82239180D01*
X141950811Y-82119482D01*
X141963071Y-81995000D01*
X141963071Y-80295000D01*
X141950811Y-80170518D01*
X141914501Y-80050820D01*
X141855536Y-79940506D01*
X141801777Y-79875000D01*
X141855536Y-79809494D01*
X141914501Y-79699180D01*
X141950811Y-79579482D01*
X141963071Y-79455000D01*
X141963071Y-77755000D01*
X141950811Y-77630518D01*
X141914501Y-77510820D01*
X141855536Y-77400506D01*
X141801777Y-77335000D01*
X141855536Y-77269494D01*
X141914501Y-77159180D01*
X141950811Y-77039482D01*
X141963071Y-76915000D01*
X141963071Y-75215000D01*
X141950811Y-75090518D01*
X141914501Y-74970820D01*
X141855536Y-74860506D01*
X141776184Y-74763815D01*
X141679493Y-74684463D01*
X141569179Y-74625498D01*
X141449481Y-74589188D01*
X141324999Y-74576928D01*
X137824999Y-74576928D01*
X137700517Y-74589188D01*
X137580819Y-74625498D01*
X137470505Y-74684463D01*
X137373814Y-74763815D01*
X137294462Y-74860506D01*
X137235497Y-74970820D01*
X137199187Y-75090518D01*
X137186927Y-75215000D01*
X137186927Y-76915000D01*
X137199187Y-77039482D01*
X137235497Y-77159180D01*
X137294462Y-77269494D01*
X137348221Y-77335000D01*
X137294462Y-77400506D01*
X137235497Y-77510820D01*
X137199187Y-77630518D01*
X137186927Y-77755000D01*
X137186927Y-79455000D01*
X137199187Y-79579482D01*
X137235497Y-79699180D01*
X137294462Y-79809494D01*
X137348221Y-79875000D01*
X137294462Y-79940506D01*
X137235497Y-80050820D01*
X137199187Y-80170518D01*
X137186927Y-80295000D01*
X137186927Y-81122126D01*
X133466689Y-77401889D01*
X133488504Y-77387312D01*
X133702311Y-77173505D01*
X133870298Y-76922095D01*
X133986010Y-76642743D01*
X134044999Y-76346184D01*
X134044999Y-76043816D01*
X133986010Y-75747257D01*
X133870298Y-75467905D01*
X133702311Y-75216495D01*
X133488504Y-75002688D01*
X133237094Y-74834701D01*
X132957742Y-74718989D01*
X132661183Y-74660000D01*
X132358815Y-74660000D01*
X132062256Y-74718989D01*
X131782904Y-74834701D01*
X131531494Y-75002688D01*
X131317687Y-75216495D01*
X131149700Y-75467905D01*
X131106647Y-75571845D01*
X125023804Y-69489003D01*
X125000001Y-69459999D01*
X124884276Y-69365026D01*
X124752247Y-69294454D01*
X124608986Y-69250997D01*
X124497333Y-69240000D01*
X124497322Y-69240000D01*
X124460000Y-69236324D01*
X124422678Y-69240000D01*
X123300813Y-69240000D01*
X123292718Y-69220457D01*
X123113787Y-68952668D01*
X122886052Y-68724933D01*
X122618263Y-68546002D01*
X122320712Y-68422752D01*
X122004833Y-68359920D01*
X121682767Y-68359920D01*
X121366888Y-68422752D01*
X121069337Y-68546002D01*
X120801548Y-68724933D01*
X120573813Y-68952668D01*
X120394882Y-69220457D01*
X120271632Y-69518008D01*
X120208800Y-69833887D01*
X120208800Y-70155953D01*
X120271632Y-70471832D01*
X120394882Y-70769383D01*
X120573813Y-71037172D01*
X120801548Y-71264907D01*
X121069337Y-71443838D01*
X121366888Y-71567088D01*
X121682767Y-71629920D01*
X122004833Y-71629920D01*
X122320712Y-71567088D01*
X122618263Y-71443838D01*
X122886052Y-71264907D01*
X123113787Y-71037172D01*
X123292718Y-70769383D01*
X123296605Y-70760000D01*
X124145199Y-70760000D01*
X131316201Y-77931003D01*
X131340000Y-77960002D01*
X131368998Y-77983800D01*
X131455724Y-78054975D01*
X131462617Y-78058660D01*
X131327113Y-78149201D01*
X131134200Y-78342114D01*
X130982628Y-78568957D01*
X130878224Y-78821011D01*
X130824999Y-79088589D01*
X130824999Y-79361411D01*
X130878224Y-79628989D01*
X130982628Y-79881043D01*
X131134200Y-80107886D01*
X131327113Y-80300799D01*
X131553956Y-80452371D01*
X131806010Y-80556775D01*
X132073588Y-80610000D01*
X132346410Y-80610000D01*
X132613988Y-80556775D01*
X132866042Y-80452371D01*
X133092885Y-80300799D01*
X133285798Y-80107886D01*
X133437370Y-79881043D01*
X133541774Y-79628989D01*
X133542174Y-79626977D01*
X137186927Y-83271730D01*
X137186927Y-84535000D01*
X137199187Y-84659482D01*
X137235497Y-84779180D01*
X137294462Y-84889494D01*
X137348221Y-84955000D01*
X137294462Y-85020506D01*
X137235497Y-85130820D01*
X137199187Y-85250518D01*
X137186927Y-85375000D01*
X137186927Y-87075000D01*
X137199187Y-87199482D01*
X137235497Y-87319180D01*
X137294462Y-87429494D01*
X137348221Y-87495000D01*
X137294462Y-87560506D01*
X137235497Y-87670820D01*
X137199187Y-87790518D01*
X137186927Y-87915000D01*
X137186927Y-89178270D01*
X134455199Y-91909999D01*
X122383071Y-91909999D01*
X122383071Y-90455000D01*
X122370811Y-90330518D01*
X122334501Y-90210820D01*
X122275536Y-90100506D01*
X122221777Y-90035000D01*
X122275536Y-89969494D01*
X122334501Y-89859180D01*
X122370811Y-89739482D01*
X122383071Y-89615000D01*
X122383071Y-87915000D01*
X122370811Y-87790518D01*
X122334501Y-87670820D01*
X122275536Y-87560506D01*
X122221777Y-87495000D01*
X122275536Y-87429494D01*
X122334501Y-87319180D01*
X122370811Y-87199482D01*
X122383071Y-87075000D01*
X122383071Y-85375000D01*
X122370811Y-85250518D01*
X122334501Y-85130820D01*
X122275536Y-85020506D01*
X122221777Y-84955000D01*
X122275536Y-84889494D01*
X122334501Y-84779180D01*
X122370811Y-84659482D01*
X122383071Y-84535000D01*
X122383071Y-82835000D01*
X122370811Y-82710518D01*
X122334501Y-82590820D01*
X122275536Y-82480506D01*
X122221777Y-82415000D01*
X122275536Y-82349494D01*
X122334501Y-82239180D01*
X122370811Y-82119482D01*
X122383071Y-81995000D01*
X122383071Y-80295000D01*
X122370811Y-80170518D01*
X122334501Y-80050820D01*
X122275536Y-79940506D01*
X122221777Y-79875000D01*
X122275536Y-79809494D01*
X122334501Y-79699180D01*
X122370811Y-79579482D01*
X122383071Y-79455000D01*
X122381077Y-79088589D01*
X125974999Y-79088589D01*
X125974999Y-79361411D01*
X126028224Y-79628989D01*
X126132628Y-79881043D01*
X126284200Y-80107886D01*
X126477113Y-80300799D01*
X126703956Y-80452371D01*
X126956010Y-80556775D01*
X127223588Y-80610000D01*
X127496410Y-80610000D01*
X127763988Y-80556775D01*
X128016042Y-80452371D01*
X128242885Y-80300799D01*
X128435798Y-80107886D01*
X128587370Y-79881043D01*
X128691774Y-79628989D01*
X128744999Y-79361411D01*
X128744999Y-79088589D01*
X128691774Y-78821011D01*
X128587370Y-78568957D01*
X128435798Y-78342114D01*
X128242885Y-78149201D01*
X128016042Y-77997629D01*
X127763988Y-77893225D01*
X127496410Y-77840000D01*
X127223588Y-77840000D01*
X126956010Y-77893225D01*
X126703956Y-77997629D01*
X126477113Y-78149201D01*
X126284200Y-78342114D01*
X126132628Y-78568957D01*
X126028224Y-78821011D01*
X125974999Y-79088589D01*
X122381077Y-79088589D01*
X122379999Y-78890750D01*
X122221249Y-78732000D01*
X117768749Y-78732000D01*
X117609999Y-78890750D01*
X117606927Y-79455000D01*
X117619187Y-79579482D01*
X117655497Y-79699180D01*
X117714462Y-79809494D01*
X117768221Y-79875000D01*
X117714462Y-79940506D01*
X117655497Y-80050820D01*
X117619187Y-80170518D01*
X117606927Y-80295000D01*
X117606927Y-81995000D01*
X117619187Y-82119482D01*
X117655497Y-82239180D01*
X117714462Y-82349494D01*
X117768221Y-82415000D01*
X117714462Y-82480506D01*
X117655497Y-82590820D01*
X117619187Y-82710518D01*
X117606927Y-82835000D01*
X117606927Y-84535000D01*
X117619187Y-84659482D01*
X117655497Y-84779180D01*
X117714462Y-84889494D01*
X117768221Y-84955000D01*
X117714462Y-85020506D01*
X117655497Y-85130820D01*
X117619187Y-85250518D01*
X117606927Y-85375000D01*
X117606927Y-87075000D01*
X117619187Y-87199482D01*
X117655497Y-87319180D01*
X117714462Y-87429494D01*
X117768221Y-87495000D01*
X117714462Y-87560506D01*
X117655497Y-87670820D01*
X117619187Y-87790518D01*
X117606927Y-87915000D01*
X117606927Y-89615000D01*
X117619187Y-89739482D01*
X117655497Y-89859180D01*
X117714462Y-89969494D01*
X117768221Y-90035000D01*
X117714462Y-90100506D01*
X117655497Y-90210820D01*
X117619187Y-90330518D01*
X117606927Y-90455000D01*
X117606927Y-91950000D01*
X114308178Y-91950000D01*
X114183475Y-91763368D01*
X113976632Y-91556525D01*
X113733411Y-91394010D01*
X113463158Y-91282068D01*
X113176260Y-91225000D01*
X112883740Y-91225000D01*
X112596842Y-91282068D01*
X112326589Y-91394010D01*
X112083368Y-91556525D01*
X111876525Y-91763368D01*
X111714010Y-92006589D01*
X111602068Y-92276842D01*
X111545000Y-92563740D01*
X111545000Y-92856260D01*
X111602068Y-93143158D01*
X111714010Y-93413411D01*
X111876525Y-93656632D01*
X112083368Y-93863475D01*
X112257760Y-93980000D01*
X112083368Y-94096525D01*
X111876525Y-94303368D01*
X111714010Y-94546589D01*
X111602068Y-94816842D01*
X111545000Y-95103740D01*
X111545000Y-95396260D01*
X111602068Y-95683158D01*
X111714010Y-95953411D01*
X111876525Y-96196632D01*
X112083368Y-96403475D01*
X112257760Y-96520000D01*
X112083368Y-96636525D01*
X111876525Y-96843368D01*
X111714010Y-97086589D01*
X111602068Y-97356842D01*
X111545000Y-97643740D01*
X111545000Y-97936260D01*
X111602068Y-98223158D01*
X111714010Y-98493411D01*
X111876525Y-98736632D01*
X112008380Y-98868487D01*
X111935820Y-98890498D01*
X111825506Y-98949463D01*
X111728815Y-99028815D01*
X111649463Y-99125506D01*
X111590498Y-99235820D01*
X111554188Y-99355518D01*
X111541928Y-99480000D01*
X111175000Y-99480000D01*
X111175000Y-75215000D01*
X117606927Y-75215000D01*
X117606927Y-76915000D01*
X117619187Y-77039482D01*
X117655497Y-77159180D01*
X117714462Y-77269494D01*
X117768221Y-77335000D01*
X117714462Y-77400506D01*
X117655497Y-77510820D01*
X117619187Y-77630518D01*
X117606927Y-77755000D01*
X117609999Y-78319250D01*
X117768749Y-78478000D01*
X122221249Y-78478000D01*
X122379999Y-78319250D01*
X122383071Y-77755000D01*
X122370811Y-77630518D01*
X122334501Y-77510820D01*
X122275536Y-77400506D01*
X122221777Y-77335000D01*
X122275536Y-77269494D01*
X122334501Y-77159180D01*
X122370811Y-77039482D01*
X122383071Y-76915000D01*
X122383071Y-76043816D01*
X125524999Y-76043816D01*
X125524999Y-76346184D01*
X125583988Y-76642743D01*
X125699700Y-76922095D01*
X125867687Y-77173505D01*
X126081494Y-77387312D01*
X126332904Y-77555299D01*
X126612256Y-77671011D01*
X126908815Y-77730000D01*
X127211183Y-77730000D01*
X127507742Y-77671011D01*
X127787094Y-77555299D01*
X128038504Y-77387312D01*
X128252311Y-77173505D01*
X128420298Y-76922095D01*
X128536010Y-76642743D01*
X128594999Y-76346184D01*
X128594999Y-76043816D01*
X128536010Y-75747257D01*
X128420298Y-75467905D01*
X128252311Y-75216495D01*
X128038504Y-75002688D01*
X127787094Y-74834701D01*
X127507742Y-74718989D01*
X127211183Y-74660000D01*
X126908815Y-74660000D01*
X126612256Y-74718989D01*
X126332904Y-74834701D01*
X126081494Y-75002688D01*
X125867687Y-75216495D01*
X125699700Y-75467905D01*
X125583988Y-75747257D01*
X125524999Y-76043816D01*
X122383071Y-76043816D01*
X122383071Y-75215000D01*
X122370811Y-75090518D01*
X122334501Y-74970820D01*
X122275536Y-74860506D01*
X122196184Y-74763815D01*
X122099493Y-74684463D01*
X121989179Y-74625498D01*
X121869481Y-74589188D01*
X121744999Y-74576928D01*
X118244999Y-74576928D01*
X118120517Y-74589188D01*
X118000819Y-74625498D01*
X117890505Y-74684463D01*
X117793814Y-74763815D01*
X117714462Y-74860506D01*
X117655497Y-74970820D01*
X117619187Y-75090518D01*
X117606927Y-75215000D01*
X111175000Y-75215000D01*
X111175000Y-69833887D01*
X115708800Y-69833887D01*
X115708800Y-70155953D01*
X115771632Y-70471832D01*
X115894882Y-70769383D01*
X116073813Y-71037172D01*
X116301548Y-71264907D01*
X116569337Y-71443838D01*
X116866888Y-71567088D01*
X117182767Y-71629920D01*
X117504833Y-71629920D01*
X117820712Y-71567088D01*
X118118263Y-71443838D01*
X118386052Y-71264907D01*
X118613787Y-71037172D01*
X118792718Y-70769383D01*
X118915968Y-70471832D01*
X118978800Y-70155953D01*
X118978800Y-69833887D01*
X118915968Y-69518008D01*
X118792718Y-69220457D01*
X118613787Y-68952668D01*
X118386052Y-68724933D01*
X118118263Y-68546002D01*
X117820712Y-68422752D01*
X117504833Y-68359920D01*
X117182767Y-68359920D01*
X116866888Y-68422752D01*
X116569337Y-68546002D01*
X116301548Y-68724933D01*
X116073813Y-68952668D01*
X115894882Y-69220457D01*
X115771632Y-69518008D01*
X115708800Y-69833887D01*
X111175000Y-69833887D01*
X111175000Y-67930200D01*
X138161928Y-67930200D01*
X138161928Y-69229800D01*
X138178996Y-69403093D01*
X138229544Y-69569727D01*
X138311629Y-69723297D01*
X138422097Y-69857903D01*
X138556703Y-69968371D01*
X138710273Y-70050456D01*
X138876907Y-70101004D01*
X139050200Y-70118072D01*
X140349800Y-70118072D01*
X140523093Y-70101004D01*
X140689727Y-70050456D01*
X140843297Y-69968371D01*
X140977903Y-69857903D01*
X141088371Y-69723297D01*
X141170456Y-69569727D01*
X141221004Y-69403093D01*
X141238072Y-69229800D01*
X141238072Y-67930200D01*
X141221004Y-67756907D01*
X141170456Y-67590273D01*
X141088371Y-67436703D01*
X140977903Y-67302097D01*
X140843297Y-67191629D01*
X140762419Y-67148398D01*
X140892312Y-67018505D01*
X141060299Y-66767095D01*
X141176011Y-66487743D01*
X141235000Y-66191184D01*
X141235000Y-65888816D01*
X141176011Y-65592257D01*
X141060299Y-65312905D01*
X140892312Y-65061495D01*
X140678505Y-64847688D01*
X140524895Y-64745049D01*
X140584475Y-64564080D01*
X139700000Y-63679605D01*
X138815525Y-64564080D01*
X138875105Y-64745049D01*
X138721495Y-64847688D01*
X138507688Y-65061495D01*
X138339701Y-65312905D01*
X138223989Y-65592257D01*
X138165000Y-65888816D01*
X138165000Y-66191184D01*
X138223989Y-66487743D01*
X138339701Y-66767095D01*
X138507688Y-67018505D01*
X138637581Y-67148398D01*
X138556703Y-67191629D01*
X138422097Y-67302097D01*
X138311629Y-67436703D01*
X138229544Y-67590273D01*
X138178996Y-67756907D01*
X138161928Y-67930200D01*
X111175000Y-67930200D01*
X111175000Y-63533504D01*
X111194572Y-63333887D01*
X115708800Y-63333887D01*
X115708800Y-63655953D01*
X115771632Y-63971832D01*
X115894882Y-64269383D01*
X116073813Y-64537172D01*
X116301548Y-64764907D01*
X116569337Y-64943838D01*
X116866888Y-65067088D01*
X117182767Y-65129920D01*
X117504833Y-65129920D01*
X117820712Y-65067088D01*
X118118263Y-64943838D01*
X118386052Y-64764907D01*
X118613787Y-64537172D01*
X118792718Y-64269383D01*
X118915968Y-63971832D01*
X118978800Y-63655953D01*
X118978800Y-63333887D01*
X120208800Y-63333887D01*
X120208800Y-63655953D01*
X120271632Y-63971832D01*
X120394882Y-64269383D01*
X120573813Y-64537172D01*
X120801548Y-64764907D01*
X121069337Y-64943838D01*
X121366888Y-65067088D01*
X121682767Y-65129920D01*
X122004833Y-65129920D01*
X122320712Y-65067088D01*
X122618263Y-64943838D01*
X122885766Y-64765098D01*
X125930720Y-64765098D01*
X125930720Y-65234902D01*
X126022374Y-65695679D01*
X126202160Y-66129721D01*
X126463170Y-66520349D01*
X126795371Y-66852550D01*
X127185999Y-67113560D01*
X127620041Y-67293346D01*
X128080818Y-67385000D01*
X128550622Y-67385000D01*
X129011399Y-67293346D01*
X129445441Y-67113560D01*
X129836069Y-66852550D01*
X130168270Y-66520349D01*
X130429280Y-66129721D01*
X130609066Y-65695679D01*
X130700720Y-65234902D01*
X130700720Y-64765098D01*
X130609066Y-64304321D01*
X130429280Y-63870279D01*
X130226337Y-63566553D01*
X138159009Y-63566553D01*
X138201603Y-63865907D01*
X138301778Y-64151199D01*
X138381739Y-64300792D01*
X138635920Y-64384475D01*
X139520395Y-63500000D01*
X139879605Y-63500000D01*
X140764080Y-64384475D01*
X141018261Y-64300792D01*
X141149158Y-64028225D01*
X141224365Y-63735358D01*
X141240991Y-63433447D01*
X141198397Y-63134093D01*
X141098222Y-62848801D01*
X141018261Y-62699208D01*
X140764080Y-62615525D01*
X139879605Y-63500000D01*
X139520395Y-63500000D01*
X138635920Y-62615525D01*
X138381739Y-62699208D01*
X138250842Y-62971775D01*
X138175635Y-63264642D01*
X138159009Y-63566553D01*
X130226337Y-63566553D01*
X130168270Y-63479651D01*
X129836069Y-63147450D01*
X129445441Y-62886440D01*
X129011399Y-62706654D01*
X128550622Y-62615000D01*
X128080818Y-62615000D01*
X127620041Y-62706654D01*
X127185999Y-62886440D01*
X126795371Y-63147450D01*
X126463170Y-63479651D01*
X126202160Y-63870279D01*
X126022374Y-64304321D01*
X125930720Y-64765098D01*
X122885766Y-64765098D01*
X122886052Y-64764907D01*
X123113787Y-64537172D01*
X123292718Y-64269383D01*
X123415968Y-63971832D01*
X123478800Y-63655953D01*
X123478800Y-63333887D01*
X123415968Y-63018008D01*
X123292718Y-62720457D01*
X123113787Y-62452668D01*
X123097039Y-62435920D01*
X138815525Y-62435920D01*
X139700000Y-63320395D01*
X140584475Y-62435920D01*
X140500792Y-62181739D01*
X140228225Y-62050842D01*
X139935358Y-61975635D01*
X139633447Y-61959009D01*
X139334093Y-62001603D01*
X139048801Y-62101778D01*
X138899208Y-62181739D01*
X138815525Y-62435920D01*
X123097039Y-62435920D01*
X122886052Y-62224933D01*
X122618263Y-62046002D01*
X122320712Y-61922752D01*
X122004833Y-61859920D01*
X121682767Y-61859920D01*
X121366888Y-61922752D01*
X121069337Y-62046002D01*
X120801548Y-62224933D01*
X120573813Y-62452668D01*
X120394882Y-62720457D01*
X120271632Y-63018008D01*
X120208800Y-63333887D01*
X118978800Y-63333887D01*
X118915968Y-63018008D01*
X118792718Y-62720457D01*
X118613787Y-62452668D01*
X118386052Y-62224933D01*
X118118263Y-62046002D01*
X117820712Y-61922752D01*
X117504833Y-61859920D01*
X117182767Y-61859920D01*
X116866888Y-61922752D01*
X116569337Y-62046002D01*
X116301548Y-62224933D01*
X116073813Y-62452668D01*
X115894882Y-62720457D01*
X115771632Y-63018008D01*
X115708800Y-63333887D01*
X111194572Y-63333887D01*
X111213551Y-63140332D01*
X111318004Y-62794366D01*
X111487667Y-62475276D01*
X111716076Y-62195219D01*
X111994534Y-61964859D01*
X112312430Y-61792973D01*
X112657658Y-61686107D01*
X113048753Y-61645000D01*
X142206496Y-61645000D01*
X142599668Y-61683551D01*
G37*
%TD.AperFunction*%
%TD*%
M02*
