M48
; DRILL file {KiCad (5.1.10)-1} date 12/02/21 15:45:18
; FORMAT={-:-/ absolute / inch / decimal}
; #@! TF.CreationDate,2021-12-02T15:45:18+11:00
; #@! TF.GenerationSoftware,Kicad,Pcbnew,(5.1.10)-1
; #@! TF.FileFunction,Plated,1,2,PTH
FMAT,2
INCH
T1C0.0157
T2C0.0354
T3C0.0394
T4C0.0402
T5C0.0433
T6C0.0866
T7C0.1260
%
G90
G05
T1
X5.1Y-4.35
X5.15Y-4.35
X5.35Y-4.7
T2
X5.5Y-2.5
X5.5Y-2.6
X5.5Y-2.7
T3
X4.45Y-3.65
X4.45Y-3.75
X4.45Y-3.85
X4.45Y-3.95
X4.8138Y-5.425
X4.8683Y-5.3132
X4.9228Y-5.425
X4.9774Y-5.3132
X5.0319Y-5.425
X5.0864Y-5.3132
X5.1409Y-5.425
X5.1955Y-5.3132
X5.25Y-5.425
T4
X4.7596Y-2.9947
X4.7596Y-3.0947
X4.7596Y-3.1947
X4.7596Y-3.2947
X4.7596Y-3.3947
X4.7596Y-3.4947
X4.7596Y-3.5947
X4.7596Y-3.6947
X4.7596Y-3.7947
X4.7596Y-3.8947
X4.7596Y-3.9947
X4.7596Y-4.0947
X4.7596Y-4.1947
X4.7596Y-4.2947
X4.7596Y-4.3947
X4.7596Y-4.4947
X4.7596Y-4.5947
X4.7596Y-4.6947
X4.7596Y-4.7947
X4.7596Y-4.8947
X5.4596Y-2.9947
X5.4596Y-3.0947
X5.4596Y-3.1947
X5.4596Y-3.2947
X5.4596Y-3.3947
X5.4596Y-3.4947
X5.4596Y-3.5947
X5.4596Y-3.6947
X5.4596Y-3.7947
X5.4596Y-3.8947
X5.4596Y-3.9947
X5.4596Y-4.0947
X5.4596Y-4.1947
X5.4596Y-4.2947
X5.4596Y-4.3947
X5.4596Y-4.4947
X5.4596Y-4.5947
X5.4596Y-4.6947
X5.4596Y-4.7947
X5.4596Y-4.8947
T5
X4.6198Y-2.4998
X4.6198Y-2.7557
X4.797Y-2.4998
X4.797Y-2.7557
T6
X5.0518Y-2.5591
T7
X4.5398Y-5.3691
X5.524Y-5.3691
T0
M30
