%TF.GenerationSoftware,KiCad,Pcbnew,(5.1.10)-1*%
%TF.CreationDate,2021-12-02T15:45:15+11:00*%
%TF.ProjectId,BKM-10Rp2040,424b4d2d-3130-4527-9032-3034302e6b69,rev?*%
%TF.SameCoordinates,Original*%
%TF.FileFunction,Soldermask,Bot*%
%TF.FilePolarity,Negative*%
%FSLAX46Y46*%
G04 Gerber Fmt 4.6, Leading zero omitted, Abs format (unit mm)*
G04 Created by KiCad (PCBNEW (5.1.10)-1) date 2021-12-02 15:45:15*
%MOMM*%
%LPD*%
G01*
G04 APERTURE LIST*
%ADD10C,3.500000*%
%ADD11O,1.700000X1.700000*%
%ADD12R,1.700000X3.500000*%
%ADD13R,1.700000X1.700000*%
%ADD14O,1.500000X1.500000*%
%ADD15O,1.800000X1.800000*%
%ADD16R,3.500000X1.700000*%
%ADD17C,1.800000*%
%ADD18C,2.000000*%
%ADD19C,4.000000*%
%ADD20C,1.600000*%
%ADD21R,1.600000X1.600000*%
G04 APERTURE END LIST*
D10*
%TO.C,H1*%
X128315720Y-65000000D03*
%TD*%
D11*
%TO.C,U2*%
X127244999Y-124095000D03*
D12*
X127244999Y-124995000D03*
D13*
X129784999Y-124095000D03*
D12*
X129784999Y-124995000D03*
D11*
X132324999Y-124095000D03*
D12*
X132324999Y-124995000D03*
D14*
X127359999Y-79225000D03*
X132209999Y-79225000D03*
D15*
X127059999Y-76195000D03*
X132509999Y-76195000D03*
D16*
X119994999Y-124325000D03*
X119994999Y-121785000D03*
X119994999Y-119245000D03*
X119994999Y-116705000D03*
X119994999Y-114165000D03*
X119994999Y-111625000D03*
X119994999Y-109085000D03*
X119994999Y-106545000D03*
X119994999Y-104005000D03*
X119994999Y-101465000D03*
X119994999Y-98925000D03*
X119994999Y-96385000D03*
X119994999Y-93845000D03*
X119994999Y-91305000D03*
X119994999Y-88765000D03*
X119994999Y-86225000D03*
X119994999Y-83685000D03*
X119994999Y-81145000D03*
X119994999Y-78605000D03*
X119994999Y-76065000D03*
X139574999Y-124325000D03*
X139574999Y-121785000D03*
X139574999Y-119245000D03*
X139574999Y-116705000D03*
X139574999Y-114165000D03*
X139574999Y-111625000D03*
X139574999Y-109085000D03*
X139574999Y-106545000D03*
X139574999Y-104005000D03*
X139574999Y-101465000D03*
X139574999Y-98925000D03*
X139574999Y-96385000D03*
X139574999Y-93845000D03*
X139574999Y-91305000D03*
X139574999Y-88765000D03*
X139574999Y-86225000D03*
X139574999Y-83685000D03*
X139574999Y-81145000D03*
X139574999Y-78605000D03*
X139574999Y-76065000D03*
D11*
X120894999Y-76065000D03*
X120894999Y-78605000D03*
D13*
X120894999Y-81145000D03*
D11*
X120894999Y-83685000D03*
X120894999Y-86225000D03*
X120894999Y-88765000D03*
X120894999Y-91305000D03*
D13*
X120894999Y-93845000D03*
D11*
X120894999Y-96385000D03*
X120894999Y-98925000D03*
X120894999Y-101465000D03*
X120894999Y-104005000D03*
D13*
X120894999Y-106545000D03*
D11*
X120894999Y-109085000D03*
X120894999Y-111625000D03*
X120894999Y-114165000D03*
X120894999Y-116705000D03*
D13*
X120894999Y-119245000D03*
D11*
X120894999Y-121785000D03*
X120894999Y-124325000D03*
X138674999Y-124325000D03*
X138674999Y-121785000D03*
D13*
X138674999Y-119245000D03*
D11*
X138674999Y-116705000D03*
X138674999Y-114165000D03*
X138674999Y-111625000D03*
X138674999Y-109085000D03*
D13*
X138674999Y-106545000D03*
D11*
X138674999Y-104005000D03*
X138674999Y-101465000D03*
X138674999Y-98925000D03*
X138674999Y-96385000D03*
D13*
X138674999Y-93845000D03*
D11*
X138674999Y-91305000D03*
X138674999Y-88765000D03*
X138674999Y-86225000D03*
X138674999Y-83685000D03*
D13*
X138674999Y-81145000D03*
D11*
X138674999Y-78605000D03*
X138674999Y-76065000D03*
%TD*%
%TO.C,J2*%
X113030000Y-92710000D03*
X113030000Y-95250000D03*
X113030000Y-97790000D03*
D13*
X113030000Y-100330000D03*
%TD*%
D17*
%TO.C,U3*%
X139700000Y-63500000D03*
X139700000Y-66040000D03*
G36*
G01*
X140349800Y-69480000D02*
X139050200Y-69480000D01*
G75*
G02*
X138800000Y-69229800I0J250200D01*
G01*
X138800000Y-67930200D01*
G75*
G02*
X139050200Y-67680000I250200J0D01*
G01*
X140349800Y-67680000D01*
G75*
G02*
X140600000Y-67930200I0J-250200D01*
G01*
X140600000Y-69229800D01*
G75*
G02*
X140349800Y-69480000I-250200J0D01*
G01*
G37*
%TD*%
D18*
%TO.C,SW1*%
X121843800Y-69994920D03*
X117343800Y-69994920D03*
X121843800Y-63494920D03*
X117343800Y-63494920D03*
%TD*%
D19*
%TO.C,J1*%
X140310000Y-136375000D03*
X115310000Y-136375000D03*
D20*
X123655000Y-134955000D03*
X126425000Y-134955000D03*
X129195000Y-134955000D03*
X131965000Y-134955000D03*
X122270000Y-137795000D03*
X125040000Y-137795000D03*
X127810000Y-137795000D03*
X130580000Y-137795000D03*
D21*
X133350000Y-137795000D03*
%TD*%
M02*
