%TF.GenerationSoftware,KiCad,Pcbnew,(5.1.10)-1*%
%TF.CreationDate,2022-01-15T14:59:42+11:00*%
%TF.ProjectId,BKM-10Rp2040 v2,424b4d2d-3130-4527-9032-303430207632,rev?*%
%TF.SameCoordinates,Original*%
%TF.FileFunction,Legend,Bot*%
%TF.FilePolarity,Positive*%
%FSLAX46Y46*%
G04 Gerber Fmt 4.6, Leading zero omitted, Abs format (unit mm)*
G04 Created by KiCad (PCBNEW (5.1.10)-1) date 2022-01-15 14:59:42*
%MOMM*%
%LPD*%
G01*
G04 APERTURE LIST*
%ADD10C,0.120000*%
%ADD11C,0.150000*%
G04 APERTURE END LIST*
D10*
%TO.C,U2*%
X126662000Y-117956000D02*
X126262000Y-117956000D01*
X129262000Y-117956000D02*
X128862000Y-117956000D01*
X117262000Y-117956000D02*
X124062000Y-117956000D01*
X117262000Y-107556000D02*
X117262000Y-107956000D01*
X117262000Y-99856000D02*
X117262000Y-100256000D01*
X117262000Y-74456000D02*
X117262000Y-74856000D01*
X117262000Y-66956000D02*
X117262000Y-67256000D01*
X117262000Y-89756000D02*
X117262000Y-90156000D01*
X117262000Y-104956000D02*
X117262000Y-105356000D01*
X117262000Y-84656000D02*
X117262000Y-85056000D01*
X117262000Y-79556000D02*
X117262000Y-79956000D01*
X117262000Y-92256000D02*
X117262000Y-92656000D01*
X117262000Y-97356000D02*
X117262000Y-97756000D01*
X117262000Y-112556000D02*
X117262000Y-112956000D01*
X117262000Y-115156000D02*
X117262000Y-115556000D01*
X117262000Y-110056000D02*
X117262000Y-110456000D01*
X117262000Y-77056000D02*
X117262000Y-77456000D01*
X117262000Y-69356000D02*
X117262000Y-69756000D01*
X117262000Y-71956000D02*
X117262000Y-72356000D01*
X117262000Y-102456000D02*
X117262000Y-102856000D01*
X117262000Y-94756000D02*
X117262000Y-95156000D01*
X117262000Y-87156000D02*
X117262000Y-87556000D01*
X117262000Y-82056000D02*
X117262000Y-82456000D01*
X138262000Y-115156000D02*
X138262000Y-115556000D01*
X138262000Y-112556000D02*
X138262000Y-112956000D01*
X138262000Y-110056000D02*
X138262000Y-110456000D01*
X138262000Y-107556000D02*
X138262000Y-107956000D01*
X138262000Y-104956000D02*
X138262000Y-105356000D01*
X138262000Y-102456000D02*
X138262000Y-102856000D01*
X138262000Y-99856000D02*
X138262000Y-100256000D01*
X138262000Y-97356000D02*
X138262000Y-97756000D01*
X138262000Y-94756000D02*
X138262000Y-95156000D01*
X138262000Y-92256000D02*
X138262000Y-92656000D01*
X138262000Y-89756000D02*
X138262000Y-90156000D01*
X138262000Y-87156000D02*
X138262000Y-87556000D01*
X138262000Y-84656000D02*
X138262000Y-85056000D01*
X138262000Y-82056000D02*
X138262000Y-82456000D01*
X138262000Y-79556000D02*
X138262000Y-79956000D01*
X138262000Y-77056000D02*
X138262000Y-77456000D01*
X138262000Y-74456000D02*
X138262000Y-74856000D01*
X138262000Y-71956000D02*
X138262000Y-72356000D01*
X138262000Y-69356000D02*
X138262000Y-69756000D01*
X138262000Y-66956000D02*
X138262000Y-67256000D01*
X135255000Y-69623000D02*
X135255000Y-66956000D01*
X138262000Y-69623000D02*
X135255000Y-69623000D01*
X131462000Y-117956000D02*
X138262000Y-117956000D01*
X138262000Y-66956000D02*
X117262000Y-66956000D01*
%TO.C,J1*%
X113385000Y-142685000D02*
X142235000Y-142685000D01*
X143295000Y-141625000D02*
X143295000Y-131125000D01*
X142235000Y-130065000D02*
X113385000Y-130065000D01*
X112325000Y-131125000D02*
X112325000Y-141625000D01*
X133100000Y-143579338D02*
X133600000Y-143579338D01*
X133600000Y-143579338D02*
X133350000Y-143146325D01*
X133350000Y-143146325D02*
X133100000Y-143579338D01*
X121578311Y-140385000D02*
X134041689Y-140385000D01*
X122407048Y-132365000D02*
X133212952Y-132365000D01*
X135676470Y-138436744D02*
X134847733Y-133736744D01*
X119943530Y-138436744D02*
X120772267Y-133736744D01*
X134847733Y-133736744D02*
G75*
G03*
X133212952Y-132365000I-1634781J-288256D01*
G01*
X120772267Y-133736744D02*
G75*
G02*
X122407048Y-132365000I1634781J-288256D01*
G01*
X135676470Y-138436744D02*
G75*
G02*
X134041689Y-140385000I-1634781J-288256D01*
G01*
X119943530Y-138436744D02*
G75*
G03*
X121578311Y-140385000I1634781J-288256D01*
G01*
X142235000Y-130065000D02*
G75*
G02*
X143295000Y-131125000I0J-1060000D01*
G01*
X113385000Y-130065000D02*
G75*
G03*
X112325000Y-131125000I0J-1060000D01*
G01*
X143295000Y-141625000D02*
G75*
G02*
X142235000Y-142685000I-1060000J0D01*
G01*
X113385000Y-142685000D02*
G75*
G02*
X112325000Y-141625000I0J1060000D01*
G01*
%TO.C,U2*%
D11*
X128523904Y-91908380D02*
X128523904Y-92717904D01*
X128476285Y-92813142D01*
X128428666Y-92860761D01*
X128333428Y-92908380D01*
X128142952Y-92908380D01*
X128047714Y-92860761D01*
X128000095Y-92813142D01*
X127952476Y-92717904D01*
X127952476Y-91908380D01*
X127523904Y-92003619D02*
X127476285Y-91956000D01*
X127381047Y-91908380D01*
X127142952Y-91908380D01*
X127047714Y-91956000D01*
X127000095Y-92003619D01*
X126952476Y-92098857D01*
X126952476Y-92194095D01*
X127000095Y-92336952D01*
X127571523Y-92908380D01*
X126952476Y-92908380D01*
X123857238Y-118979809D02*
X123742952Y-119017904D01*
X123552476Y-119017904D01*
X123476285Y-118979809D01*
X123438190Y-118941714D01*
X123400095Y-118865523D01*
X123400095Y-118789333D01*
X123438190Y-118713142D01*
X123476285Y-118675047D01*
X123552476Y-118636952D01*
X123704857Y-118598857D01*
X123781047Y-118560761D01*
X123819142Y-118522666D01*
X123857238Y-118446476D01*
X123857238Y-118370285D01*
X123819142Y-118294095D01*
X123781047Y-118256000D01*
X123704857Y-118217904D01*
X123514380Y-118217904D01*
X123400095Y-118256000D01*
X123133428Y-118217904D02*
X122942952Y-119017904D01*
X122790571Y-118446476D01*
X122638190Y-119017904D01*
X122447714Y-118217904D01*
X122142952Y-119017904D02*
X122142952Y-118217904D01*
X121952476Y-118217904D01*
X121838190Y-118256000D01*
X121762000Y-118332190D01*
X121723904Y-118408380D01*
X121685809Y-118560761D01*
X121685809Y-118675047D01*
X121723904Y-118827428D01*
X121762000Y-118903619D01*
X121838190Y-118979809D01*
X121952476Y-119017904D01*
X122142952Y-119017904D01*
X121342952Y-119017904D02*
X121342952Y-118217904D01*
X120809619Y-118217904D02*
X120657238Y-118217904D01*
X120581047Y-118256000D01*
X120504857Y-118332190D01*
X120466761Y-118484571D01*
X120466761Y-118751238D01*
X120504857Y-118903619D01*
X120581047Y-118979809D01*
X120657238Y-119017904D01*
X120809619Y-119017904D01*
X120885809Y-118979809D01*
X120962000Y-118903619D01*
X121000095Y-118751238D01*
X121000095Y-118484571D01*
X120962000Y-118332190D01*
X120885809Y-118256000D01*
X120809619Y-118217904D01*
X135271523Y-118979809D02*
X135157238Y-119017904D01*
X134966761Y-119017904D01*
X134890571Y-118979809D01*
X134852476Y-118941714D01*
X134814380Y-118865523D01*
X134814380Y-118789333D01*
X134852476Y-118713142D01*
X134890571Y-118675047D01*
X134966761Y-118636952D01*
X135119142Y-118598857D01*
X135195333Y-118560761D01*
X135233428Y-118522666D01*
X135271523Y-118446476D01*
X135271523Y-118370285D01*
X135233428Y-118294095D01*
X135195333Y-118256000D01*
X135119142Y-118217904D01*
X134928666Y-118217904D01*
X134814380Y-118256000D01*
X134547714Y-118217904D02*
X134357238Y-119017904D01*
X134204857Y-118446476D01*
X134052476Y-119017904D01*
X133862000Y-118217904D01*
X133100095Y-118941714D02*
X133138190Y-118979809D01*
X133252476Y-119017904D01*
X133328666Y-119017904D01*
X133442952Y-118979809D01*
X133519142Y-118903619D01*
X133557238Y-118827428D01*
X133595333Y-118675047D01*
X133595333Y-118560761D01*
X133557238Y-118408380D01*
X133519142Y-118332190D01*
X133442952Y-118256000D01*
X133328666Y-118217904D01*
X133252476Y-118217904D01*
X133138190Y-118256000D01*
X133100095Y-118294095D01*
X132376285Y-119017904D02*
X132757238Y-119017904D01*
X132757238Y-118217904D01*
X132109619Y-119017904D02*
X132109619Y-118217904D01*
X131652476Y-119017904D02*
X131995333Y-118560761D01*
X131652476Y-118217904D02*
X132109619Y-118675047D01*
X115610402Y-87196964D02*
X115341028Y-86927590D01*
X115502653Y-87412463D02*
X115879776Y-86658216D01*
X115125529Y-87035340D01*
X115179404Y-86011719D02*
X115260216Y-86038656D01*
X115341028Y-86119468D01*
X115394903Y-86227218D01*
X115394903Y-86334967D01*
X115367966Y-86415780D01*
X115287154Y-86550467D01*
X115206341Y-86631279D01*
X115071654Y-86712091D01*
X114990842Y-86739028D01*
X114883093Y-86739028D01*
X114775343Y-86685154D01*
X114721468Y-86631279D01*
X114667593Y-86523529D01*
X114667593Y-86469654D01*
X114856155Y-86281093D01*
X114963905Y-86388842D01*
X114371282Y-86281093D02*
X114936967Y-85715407D01*
X114048033Y-85957844D01*
X114613719Y-85392158D01*
X113778659Y-85688470D02*
X114344345Y-85122784D01*
X114209658Y-84988097D01*
X114101908Y-84934223D01*
X113994158Y-84934223D01*
X113913346Y-84961160D01*
X113778659Y-85041972D01*
X113697847Y-85122784D01*
X113617035Y-85257471D01*
X113590097Y-85338284D01*
X113590097Y-85446033D01*
X113643972Y-85553783D01*
X113778659Y-85688470D01*
X115675841Y-73554155D02*
X115756653Y-73581093D01*
X115837465Y-73661905D01*
X115891340Y-73769654D01*
X115891340Y-73877404D01*
X115864402Y-73958216D01*
X115783590Y-74092903D01*
X115702778Y-74173715D01*
X115568091Y-74254528D01*
X115487279Y-74281465D01*
X115379529Y-74281465D01*
X115271780Y-74227590D01*
X115217905Y-74173715D01*
X115164030Y-74065966D01*
X115164030Y-74012091D01*
X115352592Y-73823529D01*
X115460341Y-73931279D01*
X114867719Y-73823529D02*
X115433404Y-73257844D01*
X114544470Y-73500280D01*
X115110155Y-72934595D01*
X114275096Y-73230906D02*
X114840781Y-72665221D01*
X114706094Y-72530534D01*
X114598345Y-72476659D01*
X114490595Y-72476659D01*
X114409783Y-72503597D01*
X114275096Y-72584409D01*
X114194284Y-72665221D01*
X114113471Y-72799908D01*
X114086534Y-72880720D01*
X114086534Y-72988470D01*
X114140409Y-73096219D01*
X114275096Y-73230906D01*
X115675841Y-98954155D02*
X115756653Y-98981093D01*
X115837465Y-99061905D01*
X115891340Y-99169654D01*
X115891340Y-99277404D01*
X115864402Y-99358216D01*
X115783590Y-99492903D01*
X115702778Y-99573715D01*
X115568091Y-99654528D01*
X115487279Y-99681465D01*
X115379529Y-99681465D01*
X115271780Y-99627590D01*
X115217905Y-99573715D01*
X115164030Y-99465966D01*
X115164030Y-99412091D01*
X115352592Y-99223529D01*
X115460341Y-99331279D01*
X114867719Y-99223529D02*
X115433404Y-98657844D01*
X114544470Y-98900280D01*
X115110155Y-98334595D01*
X114275096Y-98630906D02*
X114840781Y-98065221D01*
X114706094Y-97930534D01*
X114598345Y-97876659D01*
X114490595Y-97876659D01*
X114409783Y-97903597D01*
X114275096Y-97984409D01*
X114194284Y-98065221D01*
X114113471Y-98199908D01*
X114086534Y-98280720D01*
X114086534Y-98388470D01*
X114140409Y-98496219D01*
X114275096Y-98630906D01*
X115675841Y-111654155D02*
X115756653Y-111681093D01*
X115837465Y-111761905D01*
X115891340Y-111869654D01*
X115891340Y-111977404D01*
X115864402Y-112058216D01*
X115783590Y-112192903D01*
X115702778Y-112273715D01*
X115568091Y-112354528D01*
X115487279Y-112381465D01*
X115379529Y-112381465D01*
X115271780Y-112327590D01*
X115217905Y-112273715D01*
X115164030Y-112165966D01*
X115164030Y-112112091D01*
X115352592Y-111923529D01*
X115460341Y-112031279D01*
X114867719Y-111923529D02*
X115433404Y-111357844D01*
X114544470Y-111600280D01*
X115110155Y-111034595D01*
X114275096Y-111330906D02*
X114840781Y-110765221D01*
X114706094Y-110630534D01*
X114598345Y-110576659D01*
X114490595Y-110576659D01*
X114409783Y-110603597D01*
X114275096Y-110684409D01*
X114194284Y-110765221D01*
X114113471Y-110899908D01*
X114086534Y-110980720D01*
X114086534Y-111088470D01*
X114140409Y-111196219D01*
X114275096Y-111330906D01*
X141275841Y-111654155D02*
X141356653Y-111681093D01*
X141437465Y-111761905D01*
X141491340Y-111869654D01*
X141491340Y-111977404D01*
X141464402Y-112058216D01*
X141383590Y-112192903D01*
X141302778Y-112273715D01*
X141168091Y-112354528D01*
X141087279Y-112381465D01*
X140979529Y-112381465D01*
X140871780Y-112327590D01*
X140817905Y-112273715D01*
X140764030Y-112165966D01*
X140764030Y-112112091D01*
X140952592Y-111923529D01*
X141060341Y-112031279D01*
X140467719Y-111923529D02*
X141033404Y-111357844D01*
X140144470Y-111600280D01*
X140710155Y-111034595D01*
X139875096Y-111330906D02*
X140440781Y-110765221D01*
X140306094Y-110630534D01*
X140198345Y-110576659D01*
X140090595Y-110576659D01*
X140009783Y-110603597D01*
X139875096Y-110684409D01*
X139794284Y-110765221D01*
X139713471Y-110899908D01*
X139686534Y-110980720D01*
X139686534Y-111088470D01*
X139740409Y-111196219D01*
X139875096Y-111330906D01*
X141275841Y-98954155D02*
X141356653Y-98981093D01*
X141437465Y-99061905D01*
X141491340Y-99169654D01*
X141491340Y-99277404D01*
X141464402Y-99358216D01*
X141383590Y-99492903D01*
X141302778Y-99573715D01*
X141168091Y-99654528D01*
X141087279Y-99681465D01*
X140979529Y-99681465D01*
X140871780Y-99627590D01*
X140817905Y-99573715D01*
X140764030Y-99465966D01*
X140764030Y-99412091D01*
X140952592Y-99223529D01*
X141060341Y-99331279D01*
X140467719Y-99223529D02*
X141033404Y-98657844D01*
X140144470Y-98900280D01*
X140710155Y-98334595D01*
X139875096Y-98630906D02*
X140440781Y-98065221D01*
X140306094Y-97930534D01*
X140198345Y-97876659D01*
X140090595Y-97876659D01*
X140009783Y-97903597D01*
X139875096Y-97984409D01*
X139794284Y-98065221D01*
X139713471Y-98199908D01*
X139686534Y-98280720D01*
X139686534Y-98388470D01*
X139740409Y-98496219D01*
X139875096Y-98630906D01*
X141275841Y-86254155D02*
X141356653Y-86281093D01*
X141437465Y-86361905D01*
X141491340Y-86469654D01*
X141491340Y-86577404D01*
X141464402Y-86658216D01*
X141383590Y-86792903D01*
X141302778Y-86873715D01*
X141168091Y-86954528D01*
X141087279Y-86981465D01*
X140979529Y-86981465D01*
X140871780Y-86927590D01*
X140817905Y-86873715D01*
X140764030Y-86765966D01*
X140764030Y-86712091D01*
X140952592Y-86523529D01*
X141060341Y-86631279D01*
X140467719Y-86523529D02*
X141033404Y-85957844D01*
X140144470Y-86200280D01*
X140710155Y-85634595D01*
X139875096Y-85930906D02*
X140440781Y-85365221D01*
X140306094Y-85230534D01*
X140198345Y-85176659D01*
X140090595Y-85176659D01*
X140009783Y-85203597D01*
X139875096Y-85284409D01*
X139794284Y-85365221D01*
X139713471Y-85499908D01*
X139686534Y-85580720D01*
X139686534Y-85688470D01*
X139740409Y-85796219D01*
X139875096Y-85930906D01*
X141275841Y-73554155D02*
X141356653Y-73581093D01*
X141437465Y-73661905D01*
X141491340Y-73769654D01*
X141491340Y-73877404D01*
X141464402Y-73958216D01*
X141383590Y-74092903D01*
X141302778Y-74173715D01*
X141168091Y-74254528D01*
X141087279Y-74281465D01*
X140979529Y-74281465D01*
X140871780Y-74227590D01*
X140817905Y-74173715D01*
X140764030Y-74065966D01*
X140764030Y-74012091D01*
X140952592Y-73823529D01*
X141060341Y-73931279D01*
X140467719Y-73823529D02*
X141033404Y-73257844D01*
X140144470Y-73500280D01*
X140710155Y-72934595D01*
X139875096Y-73230906D02*
X140440781Y-72665221D01*
X140306094Y-72530534D01*
X140198345Y-72476659D01*
X140090595Y-72476659D01*
X140009783Y-72503597D01*
X139875096Y-72584409D01*
X139794284Y-72665221D01*
X139713471Y-72799908D01*
X139686534Y-72880720D01*
X139686534Y-72988470D01*
X139740409Y-73096219D01*
X139875096Y-73230906D01*
X115839868Y-76414308D02*
X115489682Y-76064122D01*
X115462744Y-76468183D01*
X115381932Y-76387370D01*
X115301120Y-76360433D01*
X115247245Y-76360433D01*
X115166433Y-76387370D01*
X115031746Y-76522057D01*
X115004809Y-76602870D01*
X115004809Y-76656744D01*
X115031746Y-76737557D01*
X115193370Y-76899181D01*
X115274183Y-76926118D01*
X115328057Y-76926118D01*
X115328057Y-75902497D02*
X114573810Y-76279621D01*
X114950934Y-75525374D01*
X114816247Y-75390687D02*
X114466061Y-75040500D01*
X114439123Y-75444561D01*
X114358311Y-75363749D01*
X114277499Y-75336812D01*
X114223624Y-75336812D01*
X114142812Y-75363749D01*
X114008125Y-75498436D01*
X113981187Y-75579248D01*
X113981187Y-75633123D01*
X114008125Y-75713935D01*
X114169749Y-75875560D01*
X114250561Y-75902497D01*
X114304436Y-75902497D01*
X113738751Y-75552311D02*
X113307752Y-75121312D01*
X113523251Y-74636439D02*
X113334690Y-74447877D01*
X112957566Y-74663377D02*
X113226940Y-74932751D01*
X113792625Y-74367065D01*
X113523251Y-74097691D01*
X112715129Y-74420940D02*
X113280815Y-73855255D01*
X112391881Y-74097691D01*
X112957566Y-73532006D01*
X115872152Y-78946592D02*
X115521966Y-78596406D01*
X115495028Y-79000467D01*
X115414216Y-78919654D01*
X115333404Y-78892717D01*
X115279529Y-78892717D01*
X115198717Y-78919654D01*
X115064030Y-79054341D01*
X115037093Y-79135154D01*
X115037093Y-79189028D01*
X115064030Y-79269841D01*
X115225654Y-79431465D01*
X115306467Y-79458402D01*
X115360341Y-79458402D01*
X115360341Y-78434781D02*
X114606094Y-78811905D01*
X114983218Y-78057658D01*
X114848531Y-77922971D02*
X114498345Y-77572784D01*
X114471407Y-77976845D01*
X114390595Y-77896033D01*
X114309783Y-77869096D01*
X114255908Y-77869096D01*
X114175096Y-77896033D01*
X114040409Y-78030720D01*
X114013471Y-78111532D01*
X114013471Y-78165407D01*
X114040409Y-78246219D01*
X114202033Y-78407844D01*
X114282845Y-78434781D01*
X114336720Y-78434781D01*
X115607211Y-81989773D02*
X115337837Y-81720399D01*
X115499462Y-82205272D02*
X115876585Y-81451025D01*
X115122338Y-81828149D01*
X114933776Y-81639587D02*
X115499462Y-81073902D01*
X115364775Y-80939215D01*
X115257025Y-80885340D01*
X115149276Y-80885340D01*
X115068463Y-80912277D01*
X114933776Y-80993089D01*
X114852964Y-81073902D01*
X114772152Y-81208589D01*
X114745215Y-81289401D01*
X114745215Y-81397150D01*
X114799089Y-81504900D01*
X114933776Y-81639587D01*
X114098717Y-80696778D02*
X114098717Y-80750653D01*
X114152592Y-80858402D01*
X114206467Y-80912277D01*
X114314216Y-80966152D01*
X114421966Y-80966152D01*
X114502778Y-80939215D01*
X114637465Y-80858402D01*
X114718277Y-80777590D01*
X114799089Y-80642903D01*
X114826027Y-80562091D01*
X114826027Y-80454341D01*
X114772152Y-80346592D01*
X114718277Y-80292717D01*
X114610528Y-80238842D01*
X114556653Y-80238842D01*
X113883218Y-80696778D02*
X113452219Y-80265780D01*
X114017905Y-79592345D02*
X113263658Y-79969468D01*
X113640781Y-79215221D01*
X112563285Y-79269096D02*
X113021221Y-79188284D01*
X112886534Y-79592345D02*
X113452219Y-79026659D01*
X113236720Y-78811160D01*
X113155908Y-78784223D01*
X113102033Y-78784223D01*
X113021221Y-78811160D01*
X112940409Y-78891972D01*
X112913471Y-78972784D01*
X112913471Y-79026659D01*
X112940409Y-79107471D01*
X113155908Y-79322971D01*
X112617160Y-78730348D02*
X112428598Y-78541786D01*
X112051475Y-78757285D02*
X112320849Y-79026659D01*
X112886534Y-78460974D01*
X112617160Y-78191600D01*
X111916788Y-78029975D02*
X112105349Y-78218537D01*
X111809038Y-78514849D02*
X112374723Y-77949163D01*
X112105349Y-77679789D01*
X115664277Y-83702592D02*
X115745089Y-83729529D01*
X115825902Y-83810341D01*
X115879776Y-83918091D01*
X115879776Y-84025841D01*
X115852839Y-84106653D01*
X115772027Y-84241340D01*
X115691215Y-84322152D01*
X115556528Y-84402964D01*
X115475715Y-84429902D01*
X115367966Y-84429902D01*
X115260216Y-84376027D01*
X115206341Y-84322152D01*
X115152467Y-84214402D01*
X115152467Y-84160528D01*
X115341028Y-83971966D01*
X115448778Y-84079715D01*
X114856155Y-83971966D02*
X115421841Y-83406280D01*
X115206341Y-83190781D01*
X115125529Y-83163844D01*
X115071654Y-83163844D01*
X114990842Y-83190781D01*
X114910030Y-83271593D01*
X114883093Y-83352406D01*
X114883093Y-83406280D01*
X114910030Y-83487093D01*
X115125529Y-83702592D01*
X114829218Y-82921407D02*
X114829218Y-82867532D01*
X114802280Y-82786720D01*
X114667593Y-82652033D01*
X114586781Y-82625096D01*
X114532906Y-82625096D01*
X114452094Y-82652033D01*
X114398219Y-82705908D01*
X114344345Y-82813658D01*
X114344345Y-83460155D01*
X113994158Y-83109969D01*
X113994158Y-82463471D02*
X114074971Y-82490409D01*
X114128845Y-82490409D01*
X114209658Y-82463471D01*
X114236595Y-82436534D01*
X114263532Y-82355722D01*
X114263532Y-82301847D01*
X114236595Y-82221035D01*
X114128845Y-82113285D01*
X114048033Y-82086348D01*
X113994158Y-82086348D01*
X113913346Y-82113285D01*
X113886409Y-82140223D01*
X113859471Y-82221035D01*
X113859471Y-82274910D01*
X113886409Y-82355722D01*
X113994158Y-82463471D01*
X114021096Y-82544284D01*
X114021096Y-82598158D01*
X113994158Y-82678971D01*
X113886409Y-82786720D01*
X113805597Y-82813658D01*
X113751722Y-82813658D01*
X113670910Y-82786720D01*
X113563160Y-82678971D01*
X113536223Y-82598158D01*
X113536223Y-82544284D01*
X113563160Y-82463471D01*
X113670910Y-82355722D01*
X113751722Y-82328784D01*
X113805597Y-82328784D01*
X113886409Y-82355722D01*
X115664277Y-89046592D02*
X115745089Y-89073529D01*
X115825902Y-89154341D01*
X115879776Y-89262091D01*
X115879776Y-89369841D01*
X115852839Y-89450653D01*
X115772027Y-89585340D01*
X115691215Y-89666152D01*
X115556528Y-89746964D01*
X115475715Y-89773902D01*
X115367966Y-89773902D01*
X115260216Y-89720027D01*
X115206341Y-89666152D01*
X115152467Y-89558402D01*
X115152467Y-89504528D01*
X115341028Y-89315966D01*
X115448778Y-89423715D01*
X114856155Y-89315966D02*
X115421841Y-88750280D01*
X115206341Y-88534781D01*
X115125529Y-88507844D01*
X115071654Y-88507844D01*
X114990842Y-88534781D01*
X114910030Y-88615593D01*
X114883093Y-88696406D01*
X114883093Y-88750280D01*
X114910030Y-88831093D01*
X115125529Y-89046592D01*
X114829218Y-88265407D02*
X114829218Y-88211532D01*
X114802280Y-88130720D01*
X114667593Y-87996033D01*
X114586781Y-87969096D01*
X114532906Y-87969096D01*
X114452094Y-87996033D01*
X114398219Y-88049908D01*
X114344345Y-88157658D01*
X114344345Y-88804155D01*
X113994158Y-88453969D01*
X114371282Y-87699722D02*
X113994158Y-87322598D01*
X113670910Y-88130720D01*
X115664277Y-91576592D02*
X115745089Y-91603529D01*
X115825902Y-91684341D01*
X115879776Y-91792091D01*
X115879776Y-91899841D01*
X115852839Y-91980653D01*
X115772027Y-92115340D01*
X115691215Y-92196152D01*
X115556528Y-92276964D01*
X115475715Y-92303902D01*
X115367966Y-92303902D01*
X115260216Y-92250027D01*
X115206341Y-92196152D01*
X115152467Y-92088402D01*
X115152467Y-92034528D01*
X115341028Y-91845966D01*
X115448778Y-91953715D01*
X114856155Y-91845966D02*
X115421841Y-91280280D01*
X115206341Y-91064781D01*
X115125529Y-91037844D01*
X115071654Y-91037844D01*
X114990842Y-91064781D01*
X114910030Y-91145593D01*
X114883093Y-91226406D01*
X114883093Y-91280280D01*
X114910030Y-91361093D01*
X115125529Y-91576592D01*
X114829218Y-90795407D02*
X114829218Y-90741532D01*
X114802280Y-90660720D01*
X114667593Y-90526033D01*
X114586781Y-90499096D01*
X114532906Y-90499096D01*
X114452094Y-90526033D01*
X114398219Y-90579908D01*
X114344345Y-90687658D01*
X114344345Y-91334155D01*
X113994158Y-90983969D01*
X114074971Y-89933410D02*
X114182720Y-90041160D01*
X114209658Y-90121972D01*
X114209658Y-90175847D01*
X114182720Y-90310534D01*
X114101908Y-90445221D01*
X113886409Y-90660720D01*
X113805597Y-90687658D01*
X113751722Y-90687658D01*
X113670910Y-90660720D01*
X113563160Y-90552971D01*
X113536223Y-90472158D01*
X113536223Y-90418284D01*
X113563160Y-90337471D01*
X113697847Y-90202784D01*
X113778659Y-90175847D01*
X113832534Y-90175847D01*
X113913346Y-90202784D01*
X114021096Y-90310534D01*
X114048033Y-90391346D01*
X114048033Y-90445221D01*
X114021096Y-90526033D01*
X114923624Y-94399435D02*
X115381560Y-94318622D01*
X115246873Y-94722683D02*
X115812558Y-94156998D01*
X115597059Y-93941499D01*
X115516247Y-93914561D01*
X115462372Y-93914561D01*
X115381560Y-93941499D01*
X115300748Y-94022311D01*
X115273810Y-94103123D01*
X115273810Y-94156998D01*
X115300748Y-94237810D01*
X115516247Y-94453309D01*
X115246873Y-93591312D02*
X114788937Y-94049248D01*
X114708125Y-94076186D01*
X114654250Y-94076186D01*
X114573438Y-94049248D01*
X114465688Y-93941499D01*
X114438751Y-93860687D01*
X114438751Y-93806812D01*
X114465688Y-93726000D01*
X114923624Y-93268064D01*
X114088564Y-93564375D02*
X114654250Y-92998690D01*
X113765316Y-93241126D01*
X114331001Y-92675441D01*
X115664277Y-96656592D02*
X115745089Y-96683529D01*
X115825902Y-96764341D01*
X115879776Y-96872091D01*
X115879776Y-96979841D01*
X115852839Y-97060653D01*
X115772027Y-97195340D01*
X115691215Y-97276152D01*
X115556528Y-97356964D01*
X115475715Y-97383902D01*
X115367966Y-97383902D01*
X115260216Y-97330027D01*
X115206341Y-97276152D01*
X115152467Y-97168402D01*
X115152467Y-97114528D01*
X115341028Y-96925966D01*
X115448778Y-97033715D01*
X114856155Y-96925966D02*
X115421841Y-96360280D01*
X115206341Y-96144781D01*
X115125529Y-96117844D01*
X115071654Y-96117844D01*
X114990842Y-96144781D01*
X114910030Y-96225593D01*
X114883093Y-96306406D01*
X114883093Y-96360280D01*
X114910030Y-96441093D01*
X115125529Y-96656592D01*
X114829218Y-95875407D02*
X114829218Y-95821532D01*
X114802280Y-95740720D01*
X114667593Y-95606033D01*
X114586781Y-95579096D01*
X114532906Y-95579096D01*
X114452094Y-95606033D01*
X114398219Y-95659908D01*
X114344345Y-95767658D01*
X114344345Y-96414155D01*
X113994158Y-96063969D01*
X114290470Y-95336659D02*
X114290470Y-95282784D01*
X114263532Y-95201972D01*
X114128845Y-95067285D01*
X114048033Y-95040348D01*
X113994158Y-95040348D01*
X113913346Y-95067285D01*
X113859471Y-95121160D01*
X113805597Y-95228910D01*
X113805597Y-95875407D01*
X113455410Y-95525221D01*
X115664277Y-101746592D02*
X115745089Y-101773529D01*
X115825902Y-101854341D01*
X115879776Y-101962091D01*
X115879776Y-102069841D01*
X115852839Y-102150653D01*
X115772027Y-102285340D01*
X115691215Y-102366152D01*
X115556528Y-102446964D01*
X115475715Y-102473902D01*
X115367966Y-102473902D01*
X115260216Y-102420027D01*
X115206341Y-102366152D01*
X115152467Y-102258402D01*
X115152467Y-102204528D01*
X115341028Y-102015966D01*
X115448778Y-102123715D01*
X114856155Y-102015966D02*
X115421841Y-101450280D01*
X115206341Y-101234781D01*
X115125529Y-101207844D01*
X115071654Y-101207844D01*
X114990842Y-101234781D01*
X114910030Y-101315593D01*
X114883093Y-101396406D01*
X114883093Y-101450280D01*
X114910030Y-101531093D01*
X115125529Y-101746592D01*
X114829218Y-100965407D02*
X114829218Y-100911532D01*
X114802280Y-100830720D01*
X114667593Y-100696033D01*
X114586781Y-100669096D01*
X114532906Y-100669096D01*
X114452094Y-100696033D01*
X114398219Y-100749908D01*
X114344345Y-100857658D01*
X114344345Y-101504155D01*
X113994158Y-101153969D01*
X113455410Y-100615221D02*
X113778659Y-100938470D01*
X113617035Y-100776845D02*
X114182720Y-100211160D01*
X114155783Y-100345847D01*
X114155783Y-100453597D01*
X114182720Y-100534409D01*
X115664277Y-104276592D02*
X115745089Y-104303529D01*
X115825902Y-104384341D01*
X115879776Y-104492091D01*
X115879776Y-104599841D01*
X115852839Y-104680653D01*
X115772027Y-104815340D01*
X115691215Y-104896152D01*
X115556528Y-104976964D01*
X115475715Y-105003902D01*
X115367966Y-105003902D01*
X115260216Y-104950027D01*
X115206341Y-104896152D01*
X115152467Y-104788402D01*
X115152467Y-104734528D01*
X115341028Y-104545966D01*
X115448778Y-104653715D01*
X114856155Y-104545966D02*
X115421841Y-103980280D01*
X115206341Y-103764781D01*
X115125529Y-103737844D01*
X115071654Y-103737844D01*
X114990842Y-103764781D01*
X114910030Y-103845593D01*
X114883093Y-103926406D01*
X114883093Y-103980280D01*
X114910030Y-104061093D01*
X115125529Y-104276592D01*
X114829218Y-103495407D02*
X114829218Y-103441532D01*
X114802280Y-103360720D01*
X114667593Y-103226033D01*
X114586781Y-103199096D01*
X114532906Y-103199096D01*
X114452094Y-103226033D01*
X114398219Y-103279908D01*
X114344345Y-103387658D01*
X114344345Y-104034155D01*
X113994158Y-103683969D01*
X114209658Y-102768097D02*
X114155783Y-102714223D01*
X114074971Y-102687285D01*
X114021096Y-102687285D01*
X113940284Y-102714223D01*
X113805597Y-102795035D01*
X113670910Y-102929722D01*
X113590097Y-103064409D01*
X113563160Y-103145221D01*
X113563160Y-103199096D01*
X113590097Y-103279908D01*
X113643972Y-103333783D01*
X113724784Y-103360720D01*
X113778659Y-103360720D01*
X113859471Y-103333783D01*
X113994158Y-103252971D01*
X114128845Y-103118284D01*
X114209658Y-102983597D01*
X114236595Y-102902784D01*
X114236595Y-102848910D01*
X114209658Y-102768097D01*
X115664277Y-106816592D02*
X115745089Y-106843529D01*
X115825902Y-106924341D01*
X115879776Y-107032091D01*
X115879776Y-107139841D01*
X115852839Y-107220653D01*
X115772027Y-107355340D01*
X115691215Y-107436152D01*
X115556528Y-107516964D01*
X115475715Y-107543902D01*
X115367966Y-107543902D01*
X115260216Y-107490027D01*
X115206341Y-107436152D01*
X115152467Y-107328402D01*
X115152467Y-107274528D01*
X115341028Y-107085966D01*
X115448778Y-107193715D01*
X114856155Y-107085966D02*
X115421841Y-106520280D01*
X115206341Y-106304781D01*
X115125529Y-106277844D01*
X115071654Y-106277844D01*
X114990842Y-106304781D01*
X114910030Y-106385593D01*
X114883093Y-106466406D01*
X114883093Y-106520280D01*
X114910030Y-106601093D01*
X115125529Y-106816592D01*
X113994158Y-106223969D02*
X114317407Y-106547218D01*
X114155783Y-106385593D02*
X114721468Y-105819908D01*
X114694531Y-105954595D01*
X114694531Y-106062345D01*
X114721468Y-106143157D01*
X113724784Y-105954595D02*
X113617035Y-105846845D01*
X113590097Y-105766033D01*
X113590097Y-105712158D01*
X113617035Y-105577471D01*
X113697847Y-105442784D01*
X113913346Y-105227285D01*
X113994158Y-105200348D01*
X114048033Y-105200348D01*
X114128845Y-105227285D01*
X114236595Y-105335035D01*
X114263532Y-105415847D01*
X114263532Y-105469722D01*
X114236595Y-105550534D01*
X114101908Y-105685221D01*
X114021096Y-105712158D01*
X113967221Y-105712158D01*
X113886409Y-105685221D01*
X113778659Y-105577471D01*
X113751722Y-105496659D01*
X113751722Y-105442784D01*
X113778659Y-105361972D01*
X115664277Y-109356592D02*
X115745089Y-109383529D01*
X115825902Y-109464341D01*
X115879776Y-109572091D01*
X115879776Y-109679841D01*
X115852839Y-109760653D01*
X115772027Y-109895340D01*
X115691215Y-109976152D01*
X115556528Y-110056964D01*
X115475715Y-110083902D01*
X115367966Y-110083902D01*
X115260216Y-110030027D01*
X115206341Y-109976152D01*
X115152467Y-109868402D01*
X115152467Y-109814528D01*
X115341028Y-109625966D01*
X115448778Y-109733715D01*
X114856155Y-109625966D02*
X115421841Y-109060280D01*
X115206341Y-108844781D01*
X115125529Y-108817844D01*
X115071654Y-108817844D01*
X114990842Y-108844781D01*
X114910030Y-108925593D01*
X114883093Y-109006406D01*
X114883093Y-109060280D01*
X114910030Y-109141093D01*
X115125529Y-109356592D01*
X113994158Y-108763969D02*
X114317407Y-109087218D01*
X114155783Y-108925593D02*
X114721468Y-108359908D01*
X114694531Y-108494595D01*
X114694531Y-108602345D01*
X114721468Y-108683157D01*
X113994158Y-108117471D02*
X114074971Y-108144409D01*
X114128845Y-108144409D01*
X114209658Y-108117471D01*
X114236595Y-108090534D01*
X114263532Y-108009722D01*
X114263532Y-107955847D01*
X114236595Y-107875035D01*
X114128845Y-107767285D01*
X114048033Y-107740348D01*
X113994158Y-107740348D01*
X113913346Y-107767285D01*
X113886409Y-107794223D01*
X113859471Y-107875035D01*
X113859471Y-107928910D01*
X113886409Y-108009722D01*
X113994158Y-108117471D01*
X114021096Y-108198284D01*
X114021096Y-108252158D01*
X113994158Y-108332971D01*
X113886409Y-108440720D01*
X113805597Y-108467658D01*
X113751722Y-108467658D01*
X113670910Y-108440720D01*
X113563160Y-108332971D01*
X113536223Y-108252158D01*
X113536223Y-108198284D01*
X113563160Y-108117471D01*
X113670910Y-108009722D01*
X113751722Y-107982784D01*
X113805597Y-107982784D01*
X113886409Y-108009722D01*
X115664277Y-114436592D02*
X115745089Y-114463529D01*
X115825902Y-114544341D01*
X115879776Y-114652091D01*
X115879776Y-114759841D01*
X115852839Y-114840653D01*
X115772027Y-114975340D01*
X115691215Y-115056152D01*
X115556528Y-115136964D01*
X115475715Y-115163902D01*
X115367966Y-115163902D01*
X115260216Y-115110027D01*
X115206341Y-115056152D01*
X115152467Y-114948402D01*
X115152467Y-114894528D01*
X115341028Y-114705966D01*
X115448778Y-114813715D01*
X114856155Y-114705966D02*
X115421841Y-114140280D01*
X115206341Y-113924781D01*
X115125529Y-113897844D01*
X115071654Y-113897844D01*
X114990842Y-113924781D01*
X114910030Y-114005593D01*
X114883093Y-114086406D01*
X114883093Y-114140280D01*
X114910030Y-114221093D01*
X115125529Y-114436592D01*
X113994158Y-113843969D02*
X114317407Y-114167218D01*
X114155783Y-114005593D02*
X114721468Y-113439908D01*
X114694531Y-113574595D01*
X114694531Y-113682345D01*
X114721468Y-113763157D01*
X114371282Y-113089722D02*
X113994158Y-112712598D01*
X113670910Y-113520720D01*
X115664277Y-116976592D02*
X115745089Y-117003529D01*
X115825902Y-117084341D01*
X115879776Y-117192091D01*
X115879776Y-117299841D01*
X115852839Y-117380653D01*
X115772027Y-117515340D01*
X115691215Y-117596152D01*
X115556528Y-117676964D01*
X115475715Y-117703902D01*
X115367966Y-117703902D01*
X115260216Y-117650027D01*
X115206341Y-117596152D01*
X115152467Y-117488402D01*
X115152467Y-117434528D01*
X115341028Y-117245966D01*
X115448778Y-117353715D01*
X114856155Y-117245966D02*
X115421841Y-116680280D01*
X115206341Y-116464781D01*
X115125529Y-116437844D01*
X115071654Y-116437844D01*
X114990842Y-116464781D01*
X114910030Y-116545593D01*
X114883093Y-116626406D01*
X114883093Y-116680280D01*
X114910030Y-116761093D01*
X115125529Y-116976592D01*
X113994158Y-116383969D02*
X114317407Y-116707218D01*
X114155783Y-116545593D02*
X114721468Y-115979908D01*
X114694531Y-116114595D01*
X114694531Y-116222345D01*
X114721468Y-116303157D01*
X114074971Y-115333410D02*
X114182720Y-115441160D01*
X114209658Y-115521972D01*
X114209658Y-115575847D01*
X114182720Y-115710534D01*
X114101908Y-115845221D01*
X113886409Y-116060720D01*
X113805597Y-116087658D01*
X113751722Y-116087658D01*
X113670910Y-116060720D01*
X113563160Y-115952971D01*
X113536223Y-115872158D01*
X113536223Y-115818284D01*
X113563160Y-115737471D01*
X113697847Y-115602784D01*
X113778659Y-115575847D01*
X113832534Y-115575847D01*
X113913346Y-115602784D01*
X114021096Y-115710534D01*
X114048033Y-115791346D01*
X114048033Y-115845221D01*
X114021096Y-115926033D01*
X141772277Y-116976592D02*
X141853089Y-117003529D01*
X141933902Y-117084341D01*
X141987776Y-117192091D01*
X141987776Y-117299841D01*
X141960839Y-117380653D01*
X141880027Y-117515340D01*
X141799215Y-117596152D01*
X141664528Y-117676964D01*
X141583715Y-117703902D01*
X141475966Y-117703902D01*
X141368216Y-117650027D01*
X141314341Y-117596152D01*
X141260467Y-117488402D01*
X141260467Y-117434528D01*
X141449028Y-117245966D01*
X141556778Y-117353715D01*
X140964155Y-117245966D02*
X141529841Y-116680280D01*
X141314341Y-116464781D01*
X141233529Y-116437844D01*
X141179654Y-116437844D01*
X141098842Y-116464781D01*
X141018030Y-116545593D01*
X140991093Y-116626406D01*
X140991093Y-116680280D01*
X141018030Y-116761093D01*
X141233529Y-116976592D01*
X140102158Y-116383969D02*
X140425407Y-116707218D01*
X140263783Y-116545593D02*
X140829468Y-115979908D01*
X140802531Y-116114595D01*
X140802531Y-116222345D01*
X140829468Y-116303157D01*
X140156033Y-115306473D02*
X140425407Y-115575847D01*
X140182971Y-115872158D01*
X140182971Y-115818284D01*
X140156033Y-115737471D01*
X140021346Y-115602784D01*
X139940534Y-115575847D01*
X139886659Y-115575847D01*
X139805847Y-115602784D01*
X139671160Y-115737471D01*
X139644223Y-115818284D01*
X139644223Y-115872158D01*
X139671160Y-115952971D01*
X139805847Y-116087658D01*
X139886659Y-116114595D01*
X139940534Y-116114595D01*
X141818277Y-114436592D02*
X141899089Y-114463529D01*
X141979902Y-114544341D01*
X142033776Y-114652091D01*
X142033776Y-114759841D01*
X142006839Y-114840653D01*
X141926027Y-114975340D01*
X141845215Y-115056152D01*
X141710528Y-115136964D01*
X141629715Y-115163902D01*
X141521966Y-115163902D01*
X141414216Y-115110027D01*
X141360341Y-115056152D01*
X141306467Y-114948402D01*
X141306467Y-114894528D01*
X141495028Y-114705966D01*
X141602778Y-114813715D01*
X141010155Y-114705966D02*
X141575841Y-114140280D01*
X141360341Y-113924781D01*
X141279529Y-113897844D01*
X141225654Y-113897844D01*
X141144842Y-113924781D01*
X141064030Y-114005593D01*
X141037093Y-114086406D01*
X141037093Y-114140280D01*
X141064030Y-114221093D01*
X141279529Y-114436592D01*
X140148158Y-113843969D02*
X140471407Y-114167218D01*
X140309783Y-114005593D02*
X140875468Y-113439908D01*
X140848531Y-113574595D01*
X140848531Y-113682345D01*
X140875468Y-113763157D01*
X140040409Y-112981972D02*
X139663285Y-113359096D01*
X140390595Y-112901160D02*
X140121221Y-113439908D01*
X139771035Y-113089722D01*
X141772277Y-109356592D02*
X141853089Y-109383529D01*
X141933902Y-109464341D01*
X141987776Y-109572091D01*
X141987776Y-109679841D01*
X141960839Y-109760653D01*
X141880027Y-109895340D01*
X141799215Y-109976152D01*
X141664528Y-110056964D01*
X141583715Y-110083902D01*
X141475966Y-110083902D01*
X141368216Y-110030027D01*
X141314341Y-109976152D01*
X141260467Y-109868402D01*
X141260467Y-109814528D01*
X141449028Y-109625966D01*
X141556778Y-109733715D01*
X140964155Y-109625966D02*
X141529841Y-109060280D01*
X141314341Y-108844781D01*
X141233529Y-108817844D01*
X141179654Y-108817844D01*
X141098842Y-108844781D01*
X141018030Y-108925593D01*
X140991093Y-109006406D01*
X140991093Y-109060280D01*
X141018030Y-109141093D01*
X141233529Y-109356592D01*
X140102158Y-108763969D02*
X140425407Y-109087218D01*
X140263783Y-108925593D02*
X140829468Y-108359908D01*
X140802531Y-108494595D01*
X140802531Y-108602345D01*
X140829468Y-108683157D01*
X140479282Y-108009722D02*
X140129096Y-107659536D01*
X140102158Y-108063597D01*
X140021346Y-107982784D01*
X139940534Y-107955847D01*
X139886659Y-107955847D01*
X139805847Y-107982784D01*
X139671160Y-108117471D01*
X139644223Y-108198284D01*
X139644223Y-108252158D01*
X139671160Y-108332971D01*
X139832784Y-108494595D01*
X139913597Y-108521532D01*
X139967471Y-108521532D01*
X141918277Y-106816592D02*
X141999089Y-106843529D01*
X142079902Y-106924341D01*
X142133776Y-107032091D01*
X142133776Y-107139841D01*
X142106839Y-107220653D01*
X142026027Y-107355340D01*
X141945215Y-107436152D01*
X141810528Y-107516964D01*
X141729715Y-107543902D01*
X141621966Y-107543902D01*
X141514216Y-107490027D01*
X141460341Y-107436152D01*
X141406467Y-107328402D01*
X141406467Y-107274528D01*
X141595028Y-107085966D01*
X141702778Y-107193715D01*
X141110155Y-107085966D02*
X141675841Y-106520280D01*
X141460341Y-106304781D01*
X141379529Y-106277844D01*
X141325654Y-106277844D01*
X141244842Y-106304781D01*
X141164030Y-106385593D01*
X141137093Y-106466406D01*
X141137093Y-106520280D01*
X141164030Y-106601093D01*
X141379529Y-106816592D01*
X140248158Y-106223969D02*
X140571407Y-106547218D01*
X140409783Y-106385593D02*
X140975468Y-105819908D01*
X140948531Y-105954595D01*
X140948531Y-106062345D01*
X140975468Y-106143157D01*
X140544470Y-105496659D02*
X140544470Y-105442784D01*
X140517532Y-105361972D01*
X140382845Y-105227285D01*
X140302033Y-105200348D01*
X140248158Y-105200348D01*
X140167346Y-105227285D01*
X140113471Y-105281160D01*
X140059597Y-105388910D01*
X140059597Y-106035407D01*
X139709410Y-105685221D01*
X141918277Y-104276592D02*
X141999089Y-104303529D01*
X142079902Y-104384341D01*
X142133776Y-104492091D01*
X142133776Y-104599841D01*
X142106839Y-104680653D01*
X142026027Y-104815340D01*
X141945215Y-104896152D01*
X141810528Y-104976964D01*
X141729715Y-105003902D01*
X141621966Y-105003902D01*
X141514216Y-104950027D01*
X141460341Y-104896152D01*
X141406467Y-104788402D01*
X141406467Y-104734528D01*
X141595028Y-104545966D01*
X141702778Y-104653715D01*
X141110155Y-104545966D02*
X141675841Y-103980280D01*
X141460341Y-103764781D01*
X141379529Y-103737844D01*
X141325654Y-103737844D01*
X141244842Y-103764781D01*
X141164030Y-103845593D01*
X141137093Y-103926406D01*
X141137093Y-103980280D01*
X141164030Y-104061093D01*
X141379529Y-104276592D01*
X140248158Y-103683969D02*
X140571407Y-104007218D01*
X140409783Y-103845593D02*
X140975468Y-103279908D01*
X140948531Y-103414595D01*
X140948531Y-103522345D01*
X140975468Y-103603157D01*
X139709410Y-103145221D02*
X140032659Y-103468470D01*
X139871035Y-103306845D02*
X140436720Y-102741160D01*
X140409783Y-102875847D01*
X140409783Y-102983597D01*
X140436720Y-103064409D01*
X141772277Y-101736592D02*
X141853089Y-101763529D01*
X141933902Y-101844341D01*
X141987776Y-101952091D01*
X141987776Y-102059841D01*
X141960839Y-102140653D01*
X141880027Y-102275340D01*
X141799215Y-102356152D01*
X141664528Y-102436964D01*
X141583715Y-102463902D01*
X141475966Y-102463902D01*
X141368216Y-102410027D01*
X141314341Y-102356152D01*
X141260467Y-102248402D01*
X141260467Y-102194528D01*
X141449028Y-102005966D01*
X141556778Y-102113715D01*
X140964155Y-102005966D02*
X141529841Y-101440280D01*
X141314341Y-101224781D01*
X141233529Y-101197844D01*
X141179654Y-101197844D01*
X141098842Y-101224781D01*
X141018030Y-101305593D01*
X140991093Y-101386406D01*
X140991093Y-101440280D01*
X141018030Y-101521093D01*
X141233529Y-101736592D01*
X140102158Y-101143969D02*
X140425407Y-101467218D01*
X140263783Y-101305593D02*
X140829468Y-100739908D01*
X140802531Y-100874595D01*
X140802531Y-100982345D01*
X140829468Y-101063157D01*
X140317658Y-100228097D02*
X140263783Y-100174223D01*
X140182971Y-100147285D01*
X140129096Y-100147285D01*
X140048284Y-100174223D01*
X139913597Y-100255035D01*
X139778910Y-100389722D01*
X139698097Y-100524409D01*
X139671160Y-100605221D01*
X139671160Y-100659096D01*
X139698097Y-100739908D01*
X139751972Y-100793783D01*
X139832784Y-100820720D01*
X139886659Y-100820720D01*
X139967471Y-100793783D01*
X140102158Y-100712971D01*
X140236845Y-100578284D01*
X140317658Y-100443597D01*
X140344595Y-100362784D01*
X140344595Y-100308910D01*
X140317658Y-100228097D01*
X141248903Y-96387218D02*
X141329715Y-96414155D01*
X141410528Y-96494967D01*
X141464402Y-96602717D01*
X141464402Y-96710467D01*
X141437465Y-96791279D01*
X141356653Y-96925966D01*
X141275841Y-97006778D01*
X141141154Y-97087590D01*
X141060341Y-97114528D01*
X140952592Y-97114528D01*
X140844842Y-97060653D01*
X140790967Y-97006778D01*
X140737093Y-96899028D01*
X140737093Y-96845154D01*
X140925654Y-96656592D01*
X141033404Y-96764341D01*
X140440781Y-96656592D02*
X141006467Y-96090906D01*
X140790967Y-95875407D01*
X140710155Y-95848470D01*
X140656280Y-95848470D01*
X140575468Y-95875407D01*
X140494656Y-95956219D01*
X140467719Y-96037032D01*
X140467719Y-96090906D01*
X140494656Y-96171719D01*
X140710155Y-96387218D01*
X139848158Y-96063969D02*
X139740409Y-95956219D01*
X139713471Y-95875407D01*
X139713471Y-95821532D01*
X139740409Y-95686845D01*
X139821221Y-95552158D01*
X140036720Y-95336659D01*
X140117532Y-95309722D01*
X140171407Y-95309722D01*
X140252219Y-95336659D01*
X140359969Y-95444409D01*
X140386906Y-95525221D01*
X140386906Y-95579096D01*
X140359969Y-95659908D01*
X140225282Y-95794595D01*
X140144470Y-95821532D01*
X140090595Y-95821532D01*
X140009783Y-95794595D01*
X139902033Y-95686845D01*
X139875096Y-95606033D01*
X139875096Y-95552158D01*
X139902033Y-95471346D01*
X141248903Y-93847218D02*
X141329715Y-93874155D01*
X141410528Y-93954967D01*
X141464402Y-94062717D01*
X141464402Y-94170467D01*
X141437465Y-94251279D01*
X141356653Y-94385966D01*
X141275841Y-94466778D01*
X141141154Y-94547590D01*
X141060341Y-94574528D01*
X140952592Y-94574528D01*
X140844842Y-94520653D01*
X140790967Y-94466778D01*
X140737093Y-94359028D01*
X140737093Y-94305154D01*
X140925654Y-94116592D01*
X141033404Y-94224341D01*
X140440781Y-94116592D02*
X141006467Y-93550906D01*
X140790967Y-93335407D01*
X140710155Y-93308470D01*
X140656280Y-93308470D01*
X140575468Y-93335407D01*
X140494656Y-93416219D01*
X140467719Y-93497032D01*
X140467719Y-93550906D01*
X140494656Y-93631719D01*
X140710155Y-93847218D01*
X140117532Y-93146845D02*
X140198345Y-93173783D01*
X140252219Y-93173783D01*
X140333032Y-93146845D01*
X140359969Y-93119908D01*
X140386906Y-93039096D01*
X140386906Y-92985221D01*
X140359969Y-92904409D01*
X140252219Y-92796659D01*
X140171407Y-92769722D01*
X140117532Y-92769722D01*
X140036720Y-92796659D01*
X140009783Y-92823597D01*
X139982845Y-92904409D01*
X139982845Y-92958284D01*
X140009783Y-93039096D01*
X140117532Y-93146845D01*
X140144470Y-93227658D01*
X140144470Y-93281532D01*
X140117532Y-93362345D01*
X140009783Y-93470094D01*
X139928971Y-93497032D01*
X139875096Y-93497032D01*
X139794284Y-93470094D01*
X139686534Y-93362345D01*
X139659597Y-93281532D01*
X139659597Y-93227658D01*
X139686534Y-93146845D01*
X139794284Y-93039096D01*
X139875096Y-93012158D01*
X139928971Y-93012158D01*
X140009783Y-93039096D01*
X141148903Y-91277218D02*
X141229715Y-91304155D01*
X141310528Y-91384967D01*
X141364402Y-91492717D01*
X141364402Y-91600467D01*
X141337465Y-91681279D01*
X141256653Y-91815966D01*
X141175841Y-91896778D01*
X141041154Y-91977590D01*
X140960341Y-92004528D01*
X140852592Y-92004528D01*
X140744842Y-91950653D01*
X140690967Y-91896778D01*
X140637093Y-91789028D01*
X140637093Y-91735154D01*
X140825654Y-91546592D01*
X140933404Y-91654341D01*
X140340781Y-91546592D02*
X140906467Y-90980906D01*
X140690967Y-90765407D01*
X140610155Y-90738470D01*
X140556280Y-90738470D01*
X140475468Y-90765407D01*
X140394656Y-90846219D01*
X140367719Y-90927032D01*
X140367719Y-90980906D01*
X140394656Y-91061719D01*
X140610155Y-91277218D01*
X140394656Y-90469096D02*
X140017532Y-90091972D01*
X139694284Y-90900094D01*
X141248903Y-88767218D02*
X141329715Y-88794155D01*
X141410528Y-88874967D01*
X141464402Y-88982717D01*
X141464402Y-89090467D01*
X141437465Y-89171279D01*
X141356653Y-89305966D01*
X141275841Y-89386778D01*
X141141154Y-89467590D01*
X141060341Y-89494528D01*
X140952592Y-89494528D01*
X140844842Y-89440653D01*
X140790967Y-89386778D01*
X140737093Y-89279028D01*
X140737093Y-89225154D01*
X140925654Y-89036592D01*
X141033404Y-89144341D01*
X140440781Y-89036592D02*
X141006467Y-88470906D01*
X140790967Y-88255407D01*
X140710155Y-88228470D01*
X140656280Y-88228470D01*
X140575468Y-88255407D01*
X140494656Y-88336219D01*
X140467719Y-88417032D01*
X140467719Y-88470906D01*
X140494656Y-88551719D01*
X140710155Y-88767218D01*
X140198345Y-87662784D02*
X140306094Y-87770534D01*
X140333032Y-87851346D01*
X140333032Y-87905221D01*
X140306094Y-88039908D01*
X140225282Y-88174595D01*
X140009783Y-88390094D01*
X139928971Y-88417032D01*
X139875096Y-88417032D01*
X139794284Y-88390094D01*
X139686534Y-88282345D01*
X139659597Y-88201532D01*
X139659597Y-88147658D01*
X139686534Y-88066845D01*
X139821221Y-87932158D01*
X139902033Y-87905221D01*
X139955908Y-87905221D01*
X140036720Y-87932158D01*
X140144470Y-88039908D01*
X140171407Y-88120720D01*
X140171407Y-88174595D01*
X140144470Y-88255407D01*
X141248903Y-83687218D02*
X141329715Y-83714155D01*
X141410528Y-83794967D01*
X141464402Y-83902717D01*
X141464402Y-84010467D01*
X141437465Y-84091279D01*
X141356653Y-84225966D01*
X141275841Y-84306778D01*
X141141154Y-84387590D01*
X141060341Y-84414528D01*
X140952592Y-84414528D01*
X140844842Y-84360653D01*
X140790967Y-84306778D01*
X140737093Y-84199028D01*
X140737093Y-84145154D01*
X140925654Y-83956592D01*
X141033404Y-84064341D01*
X140440781Y-83956592D02*
X141006467Y-83390906D01*
X140790967Y-83175407D01*
X140710155Y-83148470D01*
X140656280Y-83148470D01*
X140575468Y-83175407D01*
X140494656Y-83256219D01*
X140467719Y-83337032D01*
X140467719Y-83390906D01*
X140494656Y-83471719D01*
X140710155Y-83687218D01*
X140171407Y-82555847D02*
X140440781Y-82825221D01*
X140198345Y-83121532D01*
X140198345Y-83067658D01*
X140171407Y-82986845D01*
X140036720Y-82852158D01*
X139955908Y-82825221D01*
X139902033Y-82825221D01*
X139821221Y-82852158D01*
X139686534Y-82986845D01*
X139659597Y-83067658D01*
X139659597Y-83121532D01*
X139686534Y-83202345D01*
X139821221Y-83337032D01*
X139902033Y-83363969D01*
X139955908Y-83363969D01*
X141248903Y-81147218D02*
X141329715Y-81174155D01*
X141410528Y-81254967D01*
X141464402Y-81362717D01*
X141464402Y-81470467D01*
X141437465Y-81551279D01*
X141356653Y-81685966D01*
X141275841Y-81766778D01*
X141141154Y-81847590D01*
X141060341Y-81874528D01*
X140952592Y-81874528D01*
X140844842Y-81820653D01*
X140790967Y-81766778D01*
X140737093Y-81659028D01*
X140737093Y-81605154D01*
X140925654Y-81416592D01*
X141033404Y-81524341D01*
X140440781Y-81416592D02*
X141006467Y-80850906D01*
X140790967Y-80635407D01*
X140710155Y-80608470D01*
X140656280Y-80608470D01*
X140575468Y-80635407D01*
X140494656Y-80716219D01*
X140467719Y-80797032D01*
X140467719Y-80850906D01*
X140494656Y-80931719D01*
X140710155Y-81147218D01*
X140009783Y-80231346D02*
X139632659Y-80608470D01*
X140359969Y-80150534D02*
X140090595Y-80689282D01*
X139740409Y-80339096D01*
X141248903Y-78607218D02*
X141329715Y-78634155D01*
X141410528Y-78714967D01*
X141464402Y-78822717D01*
X141464402Y-78930467D01*
X141437465Y-79011279D01*
X141356653Y-79145966D01*
X141275841Y-79226778D01*
X141141154Y-79307590D01*
X141060341Y-79334528D01*
X140952592Y-79334528D01*
X140844842Y-79280653D01*
X140790967Y-79226778D01*
X140737093Y-79119028D01*
X140737093Y-79065154D01*
X140925654Y-78876592D01*
X141033404Y-78984341D01*
X140440781Y-78876592D02*
X141006467Y-78310906D01*
X140790967Y-78095407D01*
X140710155Y-78068470D01*
X140656280Y-78068470D01*
X140575468Y-78095407D01*
X140494656Y-78176219D01*
X140467719Y-78257032D01*
X140467719Y-78310906D01*
X140494656Y-78391719D01*
X140710155Y-78607218D01*
X140494656Y-77799096D02*
X140144470Y-77448910D01*
X140117532Y-77852971D01*
X140036720Y-77772158D01*
X139955908Y-77745221D01*
X139902033Y-77745221D01*
X139821221Y-77772158D01*
X139686534Y-77906845D01*
X139659597Y-77987658D01*
X139659597Y-78041532D01*
X139686534Y-78122345D01*
X139848158Y-78283969D01*
X139928971Y-78310906D01*
X139982845Y-78310906D01*
X141348903Y-76067218D02*
X141429715Y-76094155D01*
X141510528Y-76174967D01*
X141564402Y-76282717D01*
X141564402Y-76390467D01*
X141537465Y-76471279D01*
X141456653Y-76605966D01*
X141375841Y-76686778D01*
X141241154Y-76767590D01*
X141160341Y-76794528D01*
X141052592Y-76794528D01*
X140944842Y-76740653D01*
X140890967Y-76686778D01*
X140837093Y-76579028D01*
X140837093Y-76525154D01*
X141025654Y-76336592D01*
X141133404Y-76444341D01*
X140540781Y-76336592D02*
X141106467Y-75770906D01*
X140890967Y-75555407D01*
X140810155Y-75528470D01*
X140756280Y-75528470D01*
X140675468Y-75555407D01*
X140594656Y-75636219D01*
X140567719Y-75717032D01*
X140567719Y-75770906D01*
X140594656Y-75851719D01*
X140810155Y-76067218D01*
X140513844Y-75286033D02*
X140513844Y-75232158D01*
X140486906Y-75151346D01*
X140352219Y-75016659D01*
X140271407Y-74989722D01*
X140217532Y-74989722D01*
X140136720Y-75016659D01*
X140082845Y-75070534D01*
X140028971Y-75178284D01*
X140028971Y-75824781D01*
X139678784Y-75474595D01*
%TO.C,J1*%
X128143333Y-143137380D02*
X128143333Y-143851666D01*
X128190952Y-143994523D01*
X128286190Y-144089761D01*
X128429047Y-144137380D01*
X128524285Y-144137380D01*
X127143333Y-144137380D02*
X127714761Y-144137380D01*
X127429047Y-144137380D02*
X127429047Y-143137380D01*
X127524285Y-143280238D01*
X127619523Y-143375476D01*
X127714761Y-143423095D01*
%TD*%
M02*
