%TF.GenerationSoftware,KiCad,Pcbnew,(5.1.10)-1*%
%TF.CreationDate,2021-12-02T15:45:15+11:00*%
%TF.ProjectId,BKM-10Rp2040,424b4d2d-3130-4527-9032-3034302e6b69,rev?*%
%TF.SameCoordinates,Original*%
%TF.FileFunction,Copper,L1,Top*%
%TF.FilePolarity,Positive*%
%FSLAX46Y46*%
G04 Gerber Fmt 4.6, Leading zero omitted, Abs format (unit mm)*
G04 Created by KiCad (PCBNEW (5.1.10)-1) date 2021-12-02 15:45:15*
%MOMM*%
%LPD*%
G01*
G04 APERTURE LIST*
%TA.AperFunction,ComponentPad*%
%ADD10C,3.500000*%
%TD*%
%TA.AperFunction,ComponentPad*%
%ADD11O,1.700000X1.700000*%
%TD*%
%TA.AperFunction,ComponentPad*%
%ADD12R,1.700000X1.700000*%
%TD*%
%TA.AperFunction,ComponentPad*%
%ADD13C,1.800000*%
%TD*%
%TA.AperFunction,ComponentPad*%
%ADD14C,2.000000*%
%TD*%
%TA.AperFunction,ComponentPad*%
%ADD15C,4.000000*%
%TD*%
%TA.AperFunction,ComponentPad*%
%ADD16C,1.600000*%
%TD*%
%TA.AperFunction,ComponentPad*%
%ADD17R,1.600000X1.600000*%
%TD*%
%TA.AperFunction,ViaPad*%
%ADD18C,0.800000*%
%TD*%
%TA.AperFunction,Conductor*%
%ADD19C,0.250000*%
%TD*%
%TA.AperFunction,Conductor*%
%ADD20C,0.200000*%
%TD*%
%TA.AperFunction,Conductor*%
%ADD21C,0.254000*%
%TD*%
%TA.AperFunction,Conductor*%
%ADD22C,0.100000*%
%TD*%
G04 APERTURE END LIST*
%TO.P,R2,2*%
%TO.N,RXD+*%
%TA.AperFunction,SMDPad,CuDef*%
G36*
G01*
X126100000Y-127645000D02*
X126100000Y-128895000D01*
G75*
G02*
X125850000Y-129145000I-250000J0D01*
G01*
X125050000Y-129145000D01*
G75*
G02*
X124800000Y-128895000I0J250000D01*
G01*
X124800000Y-127645000D01*
G75*
G02*
X125050000Y-127395000I250000J0D01*
G01*
X125850000Y-127395000D01*
G75*
G02*
X126100000Y-127645000I0J-250000D01*
G01*
G37*
%TD.AperFunction*%
%TO.P,R2,1*%
%TO.N,RXD-*%
%TA.AperFunction,SMDPad,CuDef*%
G36*
G01*
X129200000Y-127645000D02*
X129200000Y-128895000D01*
G75*
G02*
X128950000Y-129145000I-250000J0D01*
G01*
X128150000Y-129145000D01*
G75*
G02*
X127900000Y-128895000I0J250000D01*
G01*
X127900000Y-127645000D01*
G75*
G02*
X128150000Y-127395000I250000J0D01*
G01*
X128950000Y-127395000D01*
G75*
G02*
X129200000Y-127645000I0J-250000D01*
G01*
G37*
%TD.AperFunction*%
%TD*%
%TO.P,R1,2*%
%TO.N,TXD-*%
%TA.AperFunction,SMDPad,CuDef*%
G36*
G01*
X134250000Y-128895000D02*
X134250000Y-127645000D01*
G75*
G02*
X134500000Y-127395000I250000J0D01*
G01*
X135300000Y-127395000D01*
G75*
G02*
X135550000Y-127645000I0J-250000D01*
G01*
X135550000Y-128895000D01*
G75*
G02*
X135300000Y-129145000I-250000J0D01*
G01*
X134500000Y-129145000D01*
G75*
G02*
X134250000Y-128895000I0J250000D01*
G01*
G37*
%TD.AperFunction*%
%TO.P,R1,1*%
%TO.N,TXD+*%
%TA.AperFunction,SMDPad,CuDef*%
G36*
G01*
X131150000Y-128895000D02*
X131150000Y-127645000D01*
G75*
G02*
X131400000Y-127395000I250000J0D01*
G01*
X132200000Y-127395000D01*
G75*
G02*
X132450000Y-127645000I0J-250000D01*
G01*
X132450000Y-128895000D01*
G75*
G02*
X132200000Y-129145000I-250000J0D01*
G01*
X131400000Y-129145000D01*
G75*
G02*
X131150000Y-128895000I0J250000D01*
G01*
G37*
%TD.AperFunction*%
%TD*%
D10*
%TO.P,H1,1*%
%TO.N,GND*%
X128315720Y-65000000D03*
%TD*%
D11*
%TO.P,U2,40*%
%TO.N,Net-(U2-Pad40)*%
X120894999Y-76065000D03*
%TO.P,U2,39*%
%TO.N,+5V*%
X120894999Y-78605000D03*
D12*
%TO.P,U2,38*%
%TO.N,GND*%
X120894999Y-81145000D03*
D11*
%TO.P,U2,37*%
%TO.N,Net-(U2-Pad37)*%
X120894999Y-83685000D03*
%TO.P,U2,36*%
%TO.N,Net-(U2-Pad36)*%
X120894999Y-86225000D03*
%TO.P,U2,35*%
%TO.N,Net-(U2-Pad35)*%
X120894999Y-88765000D03*
%TO.P,U2,34*%
%TO.N,Net-(U2-Pad34)*%
X120894999Y-91305000D03*
D12*
%TO.P,U2,33*%
%TO.N,Net-(U2-Pad33)*%
X120894999Y-93845000D03*
D11*
%TO.P,U2,32*%
%TO.N,Net-(U2-Pad32)*%
X120894999Y-96385000D03*
%TO.P,U2,31*%
%TO.N,Net-(U2-Pad31)*%
X120894999Y-98925000D03*
%TO.P,U2,30*%
%TO.N,Net-(U2-Pad30)*%
X120894999Y-101465000D03*
%TO.P,U2,29*%
%TO.N,Net-(U2-Pad29)*%
X120894999Y-104005000D03*
D12*
%TO.P,U2,28*%
%TO.N,GND*%
X120894999Y-106545000D03*
D11*
%TO.P,U2,27*%
%TO.N,Net-(U2-Pad27)*%
X120894999Y-109085000D03*
%TO.P,U2,26*%
%TO.N,Net-(U2-Pad26)*%
X120894999Y-111625000D03*
%TO.P,U2,25*%
%TO.N,Net-(U2-Pad25)*%
X120894999Y-114165000D03*
%TO.P,U2,24*%
%TO.N,Net-(U2-Pad24)*%
X120894999Y-116705000D03*
D12*
%TO.P,U2,23*%
%TO.N,GND*%
X120894999Y-119245000D03*
D11*
%TO.P,U2,22*%
%TO.N,Net-(U2-Pad22)*%
X120894999Y-121785000D03*
%TO.P,U2,21*%
%TO.N,Net-(U2-Pad21)*%
X120894999Y-124325000D03*
%TO.P,U2,20*%
%TO.N,Net-(U2-Pad20)*%
X138674999Y-124325000D03*
%TO.P,U2,19*%
%TO.N,Net-(U2-Pad19)*%
X138674999Y-121785000D03*
D12*
%TO.P,U2,18*%
%TO.N,GND*%
X138674999Y-119245000D03*
D11*
%TO.P,U2,17*%
%TO.N,Net-(U2-Pad17)*%
X138674999Y-116705000D03*
%TO.P,U2,16*%
%TO.N,Net-(U2-Pad16)*%
X138674999Y-114165000D03*
%TO.P,U2,15*%
%TO.N,Net-(U2-Pad15)*%
X138674999Y-111625000D03*
%TO.P,U2,14*%
%TO.N,Net-(U2-Pad14)*%
X138674999Y-109085000D03*
D12*
%TO.P,U2,13*%
%TO.N,GND*%
X138674999Y-106545000D03*
D11*
%TO.P,U2,12*%
%TO.N,Net-(U2-Pad12)*%
X138674999Y-104005000D03*
%TO.P,U2,11*%
%TO.N,Net-(U2-Pad11)*%
X138674999Y-101465000D03*
%TO.P,U2,10*%
%TO.N,~RE~*%
X138674999Y-98925000D03*
%TO.P,U2,9*%
%TO.N,DE*%
X138674999Y-96385000D03*
D12*
%TO.P,U2,8*%
%TO.N,GND*%
X138674999Y-93845000D03*
D11*
%TO.P,U2,7*%
%TO.N,SCL*%
X138674999Y-91305000D03*
%TO.P,U2,6*%
%TO.N,SDA*%
X138674999Y-88765000D03*
%TO.P,U2,5*%
%TO.N,IR*%
X138674999Y-86225000D03*
%TO.P,U2,4*%
%TO.N,LEARN*%
X138674999Y-83685000D03*
D12*
%TO.P,U2,3*%
%TO.N,GND*%
X138674999Y-81145000D03*
D11*
%TO.P,U2,2*%
%TO.N,RX*%
X138674999Y-78605000D03*
%TO.P,U2,1*%
%TO.N,TX*%
X138674999Y-76065000D03*
%TD*%
%TO.P,J2,4*%
%TO.N,SDA*%
X113030000Y-92710000D03*
%TO.P,J2,3*%
%TO.N,SCL*%
X113030000Y-95250000D03*
%TO.P,J2,2*%
%TO.N,GND*%
X113030000Y-97790000D03*
D12*
%TO.P,J2,1*%
%TO.N,+5V*%
X113030000Y-100330000D03*
%TD*%
D13*
%TO.P,U3,3*%
%TO.N,+5V*%
X139700000Y-63500000D03*
%TO.P,U3,2*%
%TO.N,GND*%
X139700000Y-66040000D03*
%TO.P,U3,1*%
%TO.N,IR*%
%TA.AperFunction,ComponentPad*%
G36*
G01*
X140349800Y-69480000D02*
X139050200Y-69480000D01*
G75*
G02*
X138800000Y-69229800I0J250200D01*
G01*
X138800000Y-67930200D01*
G75*
G02*
X139050200Y-67680000I250200J0D01*
G01*
X140349800Y-67680000D01*
G75*
G02*
X140600000Y-67930200I0J-250200D01*
G01*
X140600000Y-69229800D01*
G75*
G02*
X140349800Y-69480000I-250200J0D01*
G01*
G37*
%TD.AperFunction*%
%TD*%
D14*
%TO.P,SW1,1*%
%TO.N,LEARN*%
X121843800Y-69994920D03*
%TO.P,SW1,2*%
%TO.N,GND*%
X117343800Y-69994920D03*
%TO.P,SW1,1*%
%TO.N,LEARN*%
X121843800Y-63494920D03*
%TO.P,SW1,2*%
%TO.N,GND*%
X117343800Y-63494920D03*
%TD*%
D15*
%TO.P,J1,0*%
%TO.N,GND*%
X140310000Y-136375000D03*
X115310000Y-136375000D03*
D16*
%TO.P,J1,9*%
%TO.N,Net-(J1-Pad9)*%
X123655000Y-134955000D03*
%TO.P,J1,8*%
%TO.N,RXD-*%
X126425000Y-134955000D03*
%TO.P,J1,7*%
%TO.N,TXD+*%
X129195000Y-134955000D03*
%TO.P,J1,6*%
%TO.N,Net-(J1-Pad6)*%
X131965000Y-134955000D03*
%TO.P,J1,5*%
%TO.N,+5V*%
X122270000Y-137795000D03*
%TO.P,J1,4*%
%TO.N,Net-(J1-Pad4)*%
X125040000Y-137795000D03*
%TO.P,J1,3*%
%TO.N,RXD+*%
X127810000Y-137795000D03*
%TO.P,J1,2*%
%TO.N,TXD-*%
X130580000Y-137795000D03*
D17*
%TO.P,J1,1*%
%TO.N,GND*%
X133350000Y-137795000D03*
%TD*%
%TO.P,C4,2*%
%TO.N,GND*%
%TA.AperFunction,SMDPad,CuDef*%
G36*
G01*
X133519999Y-65962500D02*
X135720001Y-65962500D01*
G75*
G02*
X135970000Y-66212499I0J-249999D01*
G01*
X135970000Y-67037501D01*
G75*
G02*
X135720001Y-67287500I-249999J0D01*
G01*
X133519999Y-67287500D01*
G75*
G02*
X133270000Y-67037501I0J249999D01*
G01*
X133270000Y-66212499D01*
G75*
G02*
X133519999Y-65962500I249999J0D01*
G01*
G37*
%TD.AperFunction*%
%TO.P,C4,1*%
%TO.N,+5V*%
%TA.AperFunction,SMDPad,CuDef*%
G36*
G01*
X133519999Y-62837500D02*
X135720001Y-62837500D01*
G75*
G02*
X135970000Y-63087499I0J-249999D01*
G01*
X135970000Y-63912501D01*
G75*
G02*
X135720001Y-64162500I-249999J0D01*
G01*
X133519999Y-64162500D01*
G75*
G02*
X133270000Y-63912501I0J249999D01*
G01*
X133270000Y-63087499D01*
G75*
G02*
X133519999Y-62837500I249999J0D01*
G01*
G37*
%TD.AperFunction*%
%TD*%
%TO.P,C3,2*%
%TO.N,GND*%
%TA.AperFunction,SMDPad,CuDef*%
G36*
G01*
X136990001Y-114962500D02*
X134789999Y-114962500D01*
G75*
G02*
X134540000Y-114712501I0J249999D01*
G01*
X134540000Y-113887499D01*
G75*
G02*
X134789999Y-113637500I249999J0D01*
G01*
X136990001Y-113637500D01*
G75*
G02*
X137240000Y-113887499I0J-249999D01*
G01*
X137240000Y-114712501D01*
G75*
G02*
X136990001Y-114962500I-249999J0D01*
G01*
G37*
%TD.AperFunction*%
%TO.P,C3,1*%
%TO.N,+5V*%
%TA.AperFunction,SMDPad,CuDef*%
G36*
G01*
X136990001Y-118087500D02*
X134789999Y-118087500D01*
G75*
G02*
X134540000Y-117837501I0J249999D01*
G01*
X134540000Y-117012499D01*
G75*
G02*
X134789999Y-116762500I249999J0D01*
G01*
X136990001Y-116762500D01*
G75*
G02*
X137240000Y-117012499I0J-249999D01*
G01*
X137240000Y-117837501D01*
G75*
G02*
X136990001Y-118087500I-249999J0D01*
G01*
G37*
%TD.AperFunction*%
%TD*%
%TO.P,C2,2*%
%TO.N,+5V*%
%TA.AperFunction,SMDPad,CuDef*%
G36*
G01*
X116670001Y-77840000D02*
X114469999Y-77840000D01*
G75*
G02*
X114220000Y-77590001I0J249999D01*
G01*
X114220000Y-76764999D01*
G75*
G02*
X114469999Y-76515000I249999J0D01*
G01*
X116670001Y-76515000D01*
G75*
G02*
X116920000Y-76764999I0J-249999D01*
G01*
X116920000Y-77590001D01*
G75*
G02*
X116670001Y-77840000I-249999J0D01*
G01*
G37*
%TD.AperFunction*%
%TO.P,C2,1*%
%TO.N,GND*%
%TA.AperFunction,SMDPad,CuDef*%
G36*
G01*
X116670001Y-80965000D02*
X114469999Y-80965000D01*
G75*
G02*
X114220000Y-80715001I0J249999D01*
G01*
X114220000Y-79889999D01*
G75*
G02*
X114469999Y-79640000I249999J0D01*
G01*
X116670001Y-79640000D01*
G75*
G02*
X116920000Y-79889999I0J-249999D01*
G01*
X116920000Y-80715001D01*
G75*
G02*
X116670001Y-80965000I-249999J0D01*
G01*
G37*
%TD.AperFunction*%
%TD*%
%TO.P,U1,14*%
%TO.N,+5V*%
%TA.AperFunction,SMDPad,CuDef*%
G36*
G01*
X133200000Y-117070000D02*
X133500000Y-117070000D01*
G75*
G02*
X133650000Y-117220000I0J-150000D01*
G01*
X133650000Y-118870000D01*
G75*
G02*
X133500000Y-119020000I-150000J0D01*
G01*
X133200000Y-119020000D01*
G75*
G02*
X133050000Y-118870000I0J150000D01*
G01*
X133050000Y-117220000D01*
G75*
G02*
X133200000Y-117070000I150000J0D01*
G01*
G37*
%TD.AperFunction*%
%TO.P,U1,13*%
%TA.AperFunction,SMDPad,CuDef*%
G36*
G01*
X131930000Y-117070000D02*
X132230000Y-117070000D01*
G75*
G02*
X132380000Y-117220000I0J-150000D01*
G01*
X132380000Y-118870000D01*
G75*
G02*
X132230000Y-119020000I-150000J0D01*
G01*
X131930000Y-119020000D01*
G75*
G02*
X131780000Y-118870000I0J150000D01*
G01*
X131780000Y-117220000D01*
G75*
G02*
X131930000Y-117070000I150000J0D01*
G01*
G37*
%TD.AperFunction*%
%TO.P,U1,12*%
%TO.N,TXD+*%
%TA.AperFunction,SMDPad,CuDef*%
G36*
G01*
X130660000Y-117070000D02*
X130960000Y-117070000D01*
G75*
G02*
X131110000Y-117220000I0J-150000D01*
G01*
X131110000Y-118870000D01*
G75*
G02*
X130960000Y-119020000I-150000J0D01*
G01*
X130660000Y-119020000D01*
G75*
G02*
X130510000Y-118870000I0J150000D01*
G01*
X130510000Y-117220000D01*
G75*
G02*
X130660000Y-117070000I150000J0D01*
G01*
G37*
%TD.AperFunction*%
%TO.P,U1,11*%
%TO.N,TXD-*%
%TA.AperFunction,SMDPad,CuDef*%
G36*
G01*
X129390000Y-117070000D02*
X129690000Y-117070000D01*
G75*
G02*
X129840000Y-117220000I0J-150000D01*
G01*
X129840000Y-118870000D01*
G75*
G02*
X129690000Y-119020000I-150000J0D01*
G01*
X129390000Y-119020000D01*
G75*
G02*
X129240000Y-118870000I0J150000D01*
G01*
X129240000Y-117220000D01*
G75*
G02*
X129390000Y-117070000I150000J0D01*
G01*
G37*
%TD.AperFunction*%
%TO.P,U1,10*%
%TO.N,RXD-*%
%TA.AperFunction,SMDPad,CuDef*%
G36*
G01*
X128120000Y-117070000D02*
X128420000Y-117070000D01*
G75*
G02*
X128570000Y-117220000I0J-150000D01*
G01*
X128570000Y-118870000D01*
G75*
G02*
X128420000Y-119020000I-150000J0D01*
G01*
X128120000Y-119020000D01*
G75*
G02*
X127970000Y-118870000I0J150000D01*
G01*
X127970000Y-117220000D01*
G75*
G02*
X128120000Y-117070000I150000J0D01*
G01*
G37*
%TD.AperFunction*%
%TO.P,U1,9*%
%TO.N,RXD+*%
%TA.AperFunction,SMDPad,CuDef*%
G36*
G01*
X126850000Y-117070000D02*
X127150000Y-117070000D01*
G75*
G02*
X127300000Y-117220000I0J-150000D01*
G01*
X127300000Y-118870000D01*
G75*
G02*
X127150000Y-119020000I-150000J0D01*
G01*
X126850000Y-119020000D01*
G75*
G02*
X126700000Y-118870000I0J150000D01*
G01*
X126700000Y-117220000D01*
G75*
G02*
X126850000Y-117070000I150000J0D01*
G01*
G37*
%TD.AperFunction*%
%TO.P,U1,8*%
%TO.N,Net-(U1-Pad8)*%
%TA.AperFunction,SMDPad,CuDef*%
G36*
G01*
X125580000Y-117070000D02*
X125880000Y-117070000D01*
G75*
G02*
X126030000Y-117220000I0J-150000D01*
G01*
X126030000Y-118870000D01*
G75*
G02*
X125880000Y-119020000I-150000J0D01*
G01*
X125580000Y-119020000D01*
G75*
G02*
X125430000Y-118870000I0J150000D01*
G01*
X125430000Y-117220000D01*
G75*
G02*
X125580000Y-117070000I150000J0D01*
G01*
G37*
%TD.AperFunction*%
%TO.P,U1,7*%
%TO.N,GND*%
%TA.AperFunction,SMDPad,CuDef*%
G36*
G01*
X125580000Y-112120000D02*
X125880000Y-112120000D01*
G75*
G02*
X126030000Y-112270000I0J-150000D01*
G01*
X126030000Y-113920000D01*
G75*
G02*
X125880000Y-114070000I-150000J0D01*
G01*
X125580000Y-114070000D01*
G75*
G02*
X125430000Y-113920000I0J150000D01*
G01*
X125430000Y-112270000D01*
G75*
G02*
X125580000Y-112120000I150000J0D01*
G01*
G37*
%TD.AperFunction*%
%TO.P,U1,6*%
%TA.AperFunction,SMDPad,CuDef*%
G36*
G01*
X126850000Y-112120000D02*
X127150000Y-112120000D01*
G75*
G02*
X127300000Y-112270000I0J-150000D01*
G01*
X127300000Y-113920000D01*
G75*
G02*
X127150000Y-114070000I-150000J0D01*
G01*
X126850000Y-114070000D01*
G75*
G02*
X126700000Y-113920000I0J150000D01*
G01*
X126700000Y-112270000D01*
G75*
G02*
X126850000Y-112120000I150000J0D01*
G01*
G37*
%TD.AperFunction*%
%TO.P,U1,5*%
%TO.N,TX*%
%TA.AperFunction,SMDPad,CuDef*%
G36*
G01*
X128120000Y-112120000D02*
X128420000Y-112120000D01*
G75*
G02*
X128570000Y-112270000I0J-150000D01*
G01*
X128570000Y-113920000D01*
G75*
G02*
X128420000Y-114070000I-150000J0D01*
G01*
X128120000Y-114070000D01*
G75*
G02*
X127970000Y-113920000I0J150000D01*
G01*
X127970000Y-112270000D01*
G75*
G02*
X128120000Y-112120000I150000J0D01*
G01*
G37*
%TD.AperFunction*%
%TO.P,U1,4*%
%TO.N,DE*%
%TA.AperFunction,SMDPad,CuDef*%
G36*
G01*
X129390000Y-112120000D02*
X129690000Y-112120000D01*
G75*
G02*
X129840000Y-112270000I0J-150000D01*
G01*
X129840000Y-113920000D01*
G75*
G02*
X129690000Y-114070000I-150000J0D01*
G01*
X129390000Y-114070000D01*
G75*
G02*
X129240000Y-113920000I0J150000D01*
G01*
X129240000Y-112270000D01*
G75*
G02*
X129390000Y-112120000I150000J0D01*
G01*
G37*
%TD.AperFunction*%
%TO.P,U1,3*%
%TO.N,~RE~*%
%TA.AperFunction,SMDPad,CuDef*%
G36*
G01*
X130660000Y-112120000D02*
X130960000Y-112120000D01*
G75*
G02*
X131110000Y-112270000I0J-150000D01*
G01*
X131110000Y-113920000D01*
G75*
G02*
X130960000Y-114070000I-150000J0D01*
G01*
X130660000Y-114070000D01*
G75*
G02*
X130510000Y-113920000I0J150000D01*
G01*
X130510000Y-112270000D01*
G75*
G02*
X130660000Y-112120000I150000J0D01*
G01*
G37*
%TD.AperFunction*%
%TO.P,U1,2*%
%TO.N,RX*%
%TA.AperFunction,SMDPad,CuDef*%
G36*
G01*
X131930000Y-112120000D02*
X132230000Y-112120000D01*
G75*
G02*
X132380000Y-112270000I0J-150000D01*
G01*
X132380000Y-113920000D01*
G75*
G02*
X132230000Y-114070000I-150000J0D01*
G01*
X131930000Y-114070000D01*
G75*
G02*
X131780000Y-113920000I0J150000D01*
G01*
X131780000Y-112270000D01*
G75*
G02*
X131930000Y-112120000I150000J0D01*
G01*
G37*
%TD.AperFunction*%
%TO.P,U1,1*%
%TO.N,Net-(U1-Pad1)*%
%TA.AperFunction,SMDPad,CuDef*%
G36*
G01*
X133200000Y-112120000D02*
X133500000Y-112120000D01*
G75*
G02*
X133650000Y-112270000I0J-150000D01*
G01*
X133650000Y-113920000D01*
G75*
G02*
X133500000Y-114070000I-150000J0D01*
G01*
X133200000Y-114070000D01*
G75*
G02*
X133050000Y-113920000I0J150000D01*
G01*
X133050000Y-112270000D01*
G75*
G02*
X133200000Y-112120000I150000J0D01*
G01*
G37*
%TD.AperFunction*%
%TD*%
D18*
%TO.N,+5V*%
X135890000Y-119380000D03*
%TO.N,DE*%
X129540000Y-110490000D03*
%TO.N,~RE~*%
X130810000Y-110490000D03*
%TD*%
D19*
%TO.N,+5V*%
X119467499Y-77177500D02*
X120894999Y-78605000D01*
X115570000Y-77177500D02*
X119467499Y-77177500D01*
X134620000Y-63500000D02*
X139700000Y-63500000D01*
X135890000Y-119380000D02*
X135890000Y-117425000D01*
X133970000Y-117425000D02*
X133350000Y-118045000D01*
X135890000Y-117425000D02*
X133970000Y-117425000D01*
X133350000Y-118045000D02*
X132080000Y-118045000D01*
D20*
%TO.N,RXD-*%
X127600010Y-119056402D02*
X127225000Y-119431412D01*
X127600010Y-118714990D02*
X127600010Y-119056402D01*
X127225000Y-119431412D02*
X127225000Y-126270000D01*
X128270000Y-118045000D02*
X127600010Y-118714990D01*
X127225000Y-126270000D02*
X129225000Y-128270000D01*
X125606397Y-134955000D02*
X126425000Y-134955000D01*
X125225000Y-134573603D02*
X125606397Y-134955000D01*
X125225000Y-132270000D02*
X125225000Y-134573603D01*
X129225000Y-128270000D02*
X125225000Y-132270000D01*
D19*
%TO.N,TXD+*%
X130810000Y-127955000D02*
X131125000Y-128270000D01*
X130810000Y-118045000D02*
X130810000Y-127955000D01*
D20*
X130261801Y-134955000D02*
X129195000Y-134955000D01*
X130415008Y-134801794D02*
X130261801Y-134955000D01*
X130415008Y-134240607D02*
X130415008Y-134801794D01*
X133125000Y-131530615D02*
X130415008Y-134240607D01*
X133125000Y-130270000D02*
X133125000Y-131530615D01*
X131125000Y-128270000D02*
X133125000Y-130270000D01*
%TO.N,RXD+*%
X126775000Y-126270000D02*
X124775000Y-128270000D01*
X126775000Y-118903603D02*
X126775000Y-126270000D01*
X127000000Y-118678603D02*
X126775000Y-118903603D01*
X127000000Y-118045000D02*
X127000000Y-118678603D01*
X125896999Y-136055001D02*
X126070001Y-136055001D01*
X125324999Y-135483001D02*
X125896999Y-136055001D01*
X125324999Y-135309999D02*
X125324999Y-135483001D01*
X126070001Y-136055001D02*
X127810000Y-137795000D01*
X124775000Y-134760000D02*
X125324999Y-135309999D01*
X124775000Y-128270000D02*
X124775000Y-134760000D01*
D19*
%TO.N,TXD-*%
X131445000Y-117033232D02*
X131445000Y-121920000D01*
X129865010Y-116744990D02*
X131156758Y-116744990D01*
X131445000Y-121920000D02*
X135575000Y-126050000D01*
X131156758Y-116744990D02*
X131445000Y-117033232D01*
X129540000Y-117070000D02*
X129865010Y-116744990D01*
X129540000Y-118045000D02*
X129540000Y-117070000D01*
X135575000Y-126050000D02*
X135575000Y-128270000D01*
D20*
X130580000Y-135273199D02*
X130580000Y-137795000D01*
X130864999Y-134988200D02*
X130580000Y-135273199D01*
X133575000Y-130270000D02*
X133575000Y-131716998D01*
X135575000Y-128270000D02*
X133575000Y-130270000D01*
X130864999Y-134426999D02*
X130864999Y-134988200D01*
X133575000Y-131716998D02*
X130864999Y-134426999D01*
D19*
%TO.N,LEARN*%
X121843800Y-63410960D02*
X121843800Y-69910960D01*
%TO.N,TX*%
X138674999Y-76065000D02*
X136896794Y-77843205D01*
X136896794Y-79746795D02*
X131739990Y-84903599D01*
X136896794Y-77843205D02*
X136896794Y-79746795D01*
X131739990Y-84903599D02*
X131739990Y-107020010D01*
X128270000Y-110490000D02*
X128270000Y-113095000D01*
X131739990Y-107020010D02*
X128270000Y-110490000D01*
%TO.N,DE*%
X129540000Y-110490000D02*
X129540000Y-113095000D01*
%TO.N,~RE~*%
X130810000Y-110490000D02*
X130810000Y-113095000D01*
%TO.N,RX*%
X138674999Y-78605000D02*
X132189999Y-85090000D01*
X132189999Y-85090000D02*
X132189999Y-112920001D01*
%TO.N,IR*%
X139700000Y-68580000D02*
X140970000Y-69850000D01*
X140970000Y-83929999D02*
X138674999Y-86225000D01*
X140970000Y-69850000D02*
X140970000Y-83929999D01*
%TD*%
D21*
%TO.N,GND*%
X142599668Y-61683551D02*
X142945634Y-61788004D01*
X143264724Y-61957667D01*
X143544781Y-62186076D01*
X143775141Y-62464534D01*
X143947027Y-62782430D01*
X144053893Y-63127658D01*
X144095000Y-63518753D01*
X144095001Y-140936485D01*
X144056449Y-141329667D01*
X143951996Y-141675635D01*
X143782333Y-141994724D01*
X143553924Y-142274781D01*
X143275466Y-142505141D01*
X142957570Y-142677027D01*
X142612340Y-142783894D01*
X142221238Y-142825000D01*
X113063505Y-142825000D01*
X112670333Y-142786449D01*
X112324365Y-142681996D01*
X112005276Y-142512333D01*
X111725219Y-142283924D01*
X111494859Y-142005466D01*
X111322973Y-141687570D01*
X111216106Y-141342340D01*
X111175000Y-140951238D01*
X111175000Y-138222499D01*
X113642106Y-138222499D01*
X113858228Y-138589258D01*
X114318105Y-138829938D01*
X114816098Y-138976275D01*
X115333071Y-139022648D01*
X115849159Y-138967273D01*
X116344526Y-138812279D01*
X116761772Y-138589258D01*
X116977894Y-138222499D01*
X115310000Y-136554605D01*
X113642106Y-138222499D01*
X111175000Y-138222499D01*
X111175000Y-136398071D01*
X112662352Y-136398071D01*
X112717727Y-136914159D01*
X112872721Y-137409526D01*
X113095742Y-137826772D01*
X113462501Y-138042894D01*
X115130395Y-136375000D01*
X115489605Y-136375000D01*
X117157499Y-138042894D01*
X117524258Y-137826772D01*
X117614854Y-137653665D01*
X120835000Y-137653665D01*
X120835000Y-137936335D01*
X120890147Y-138213574D01*
X120998320Y-138474727D01*
X121155363Y-138709759D01*
X121355241Y-138909637D01*
X121590273Y-139066680D01*
X121851426Y-139174853D01*
X122128665Y-139230000D01*
X122411335Y-139230000D01*
X122688574Y-139174853D01*
X122949727Y-139066680D01*
X123184759Y-138909637D01*
X123384637Y-138709759D01*
X123541680Y-138474727D01*
X123649853Y-138213574D01*
X123655000Y-138187699D01*
X123660147Y-138213574D01*
X123768320Y-138474727D01*
X123925363Y-138709759D01*
X124125241Y-138909637D01*
X124360273Y-139066680D01*
X124621426Y-139174853D01*
X124898665Y-139230000D01*
X125181335Y-139230000D01*
X125458574Y-139174853D01*
X125719727Y-139066680D01*
X125954759Y-138909637D01*
X126154637Y-138709759D01*
X126311680Y-138474727D01*
X126419853Y-138213574D01*
X126425000Y-138187699D01*
X126430147Y-138213574D01*
X126538320Y-138474727D01*
X126695363Y-138709759D01*
X126895241Y-138909637D01*
X127130273Y-139066680D01*
X127391426Y-139174853D01*
X127668665Y-139230000D01*
X127951335Y-139230000D01*
X128228574Y-139174853D01*
X128489727Y-139066680D01*
X128724759Y-138909637D01*
X128924637Y-138709759D01*
X129081680Y-138474727D01*
X129189853Y-138213574D01*
X129195000Y-138187699D01*
X129200147Y-138213574D01*
X129308320Y-138474727D01*
X129465363Y-138709759D01*
X129665241Y-138909637D01*
X129900273Y-139066680D01*
X130161426Y-139174853D01*
X130438665Y-139230000D01*
X130721335Y-139230000D01*
X130998574Y-139174853D01*
X131259727Y-139066680D01*
X131494759Y-138909637D01*
X131694637Y-138709759D01*
X131851680Y-138474727D01*
X131913539Y-138325387D01*
X131911928Y-138595000D01*
X131924188Y-138719482D01*
X131960498Y-138839180D01*
X132019463Y-138949494D01*
X132098815Y-139046185D01*
X132195506Y-139125537D01*
X132305820Y-139184502D01*
X132425518Y-139220812D01*
X132550000Y-139233072D01*
X133064250Y-139230000D01*
X133223000Y-139071250D01*
X133223000Y-137922000D01*
X133477000Y-137922000D01*
X133477000Y-139071250D01*
X133635750Y-139230000D01*
X134150000Y-139233072D01*
X134274482Y-139220812D01*
X134394180Y-139184502D01*
X134504494Y-139125537D01*
X134601185Y-139046185D01*
X134680537Y-138949494D01*
X134739502Y-138839180D01*
X134775812Y-138719482D01*
X134788072Y-138595000D01*
X134785847Y-138222499D01*
X138642106Y-138222499D01*
X138858228Y-138589258D01*
X139318105Y-138829938D01*
X139816098Y-138976275D01*
X140333071Y-139022648D01*
X140849159Y-138967273D01*
X141344526Y-138812279D01*
X141761772Y-138589258D01*
X141977894Y-138222499D01*
X140310000Y-136554605D01*
X138642106Y-138222499D01*
X134785847Y-138222499D01*
X134785000Y-138080750D01*
X134626250Y-137922000D01*
X133477000Y-137922000D01*
X133223000Y-137922000D01*
X133203000Y-137922000D01*
X133203000Y-137668000D01*
X133223000Y-137668000D01*
X133223000Y-136518750D01*
X133477000Y-136518750D01*
X133477000Y-137668000D01*
X134626250Y-137668000D01*
X134785000Y-137509250D01*
X134788072Y-136995000D01*
X134775812Y-136870518D01*
X134739502Y-136750820D01*
X134680537Y-136640506D01*
X134601185Y-136543815D01*
X134504494Y-136464463D01*
X134394180Y-136405498D01*
X134369697Y-136398071D01*
X137662352Y-136398071D01*
X137717727Y-136914159D01*
X137872721Y-137409526D01*
X138095742Y-137826772D01*
X138462501Y-138042894D01*
X140130395Y-136375000D01*
X140489605Y-136375000D01*
X142157499Y-138042894D01*
X142524258Y-137826772D01*
X142764938Y-137366895D01*
X142911275Y-136868902D01*
X142957648Y-136351929D01*
X142902273Y-135835841D01*
X142747279Y-135340474D01*
X142524258Y-134923228D01*
X142157499Y-134707106D01*
X140489605Y-136375000D01*
X140130395Y-136375000D01*
X138462501Y-134707106D01*
X138095742Y-134923228D01*
X137855062Y-135383105D01*
X137708725Y-135881098D01*
X137662352Y-136398071D01*
X134369697Y-136398071D01*
X134274482Y-136369188D01*
X134150000Y-136356928D01*
X133635750Y-136360000D01*
X133477000Y-136518750D01*
X133223000Y-136518750D01*
X133064250Y-136360000D01*
X132550000Y-136356928D01*
X132425518Y-136369188D01*
X132305820Y-136405498D01*
X132195506Y-136464463D01*
X132098815Y-136543815D01*
X132019463Y-136640506D01*
X131960498Y-136750820D01*
X131924188Y-136870518D01*
X131911928Y-136995000D01*
X131913539Y-137264613D01*
X131851680Y-137115273D01*
X131694637Y-136880241D01*
X131494759Y-136680363D01*
X131315000Y-136560252D01*
X131315000Y-136238993D01*
X131546426Y-136334853D01*
X131823665Y-136390000D01*
X132106335Y-136390000D01*
X132383574Y-136334853D01*
X132644727Y-136226680D01*
X132879759Y-136069637D01*
X133079637Y-135869759D01*
X133236680Y-135634727D01*
X133344853Y-135373574D01*
X133400000Y-135096335D01*
X133400000Y-134813665D01*
X133344853Y-134536426D01*
X133341157Y-134527501D01*
X138642106Y-134527501D01*
X140310000Y-136195395D01*
X141977894Y-134527501D01*
X141761772Y-134160742D01*
X141301895Y-133920062D01*
X140803902Y-133773725D01*
X140286929Y-133727352D01*
X139770841Y-133782727D01*
X139275474Y-133937721D01*
X138858228Y-134160742D01*
X138642106Y-134527501D01*
X133341157Y-134527501D01*
X133236680Y-134275273D01*
X133079637Y-134040241D01*
X132879759Y-133840363D01*
X132646764Y-133684681D01*
X134069193Y-132262252D01*
X134097238Y-132239236D01*
X134189087Y-132127318D01*
X134257337Y-131999631D01*
X134299365Y-131861083D01*
X134310000Y-131753103D01*
X134310000Y-131753096D01*
X134313555Y-131716999D01*
X134310000Y-131680902D01*
X134310000Y-130574446D01*
X135101375Y-129783072D01*
X135300000Y-129783072D01*
X135473254Y-129766008D01*
X135639850Y-129715472D01*
X135793386Y-129633405D01*
X135927962Y-129522962D01*
X136038405Y-129388386D01*
X136120472Y-129234850D01*
X136171008Y-129068254D01*
X136188072Y-128895000D01*
X136188072Y-128720964D01*
X136209974Y-128694276D01*
X136280546Y-128562247D01*
X136324003Y-128418986D01*
X136335000Y-128307333D01*
X136335000Y-126087322D01*
X136338676Y-126049999D01*
X136335000Y-126012677D01*
X136335000Y-126012667D01*
X136324003Y-125901014D01*
X136280546Y-125757753D01*
X136262904Y-125724747D01*
X136209974Y-125625723D01*
X136138799Y-125538997D01*
X136115001Y-125509999D01*
X136086004Y-125486202D01*
X132205000Y-121605199D01*
X132205000Y-119658072D01*
X132230000Y-119658072D01*
X132383745Y-119642929D01*
X132531582Y-119598084D01*
X132667829Y-119525258D01*
X132715000Y-119486546D01*
X132762171Y-119525258D01*
X132898418Y-119598084D01*
X133046255Y-119642929D01*
X133200000Y-119658072D01*
X133500000Y-119658072D01*
X133653745Y-119642929D01*
X133801582Y-119598084D01*
X133937829Y-119525258D01*
X134057251Y-119427251D01*
X134155258Y-119307829D01*
X134228084Y-119171582D01*
X134272929Y-119023745D01*
X134288072Y-118870000D01*
X134288072Y-118568896D01*
X134296613Y-118575905D01*
X134450149Y-118657972D01*
X134616745Y-118708508D01*
X134789999Y-118725572D01*
X135082491Y-118725572D01*
X134972795Y-118889744D01*
X134894774Y-119078102D01*
X134855000Y-119278061D01*
X134855000Y-119481939D01*
X134894774Y-119681898D01*
X134972795Y-119870256D01*
X135086063Y-120039774D01*
X135230226Y-120183937D01*
X135399744Y-120297205D01*
X135588102Y-120375226D01*
X135788061Y-120415000D01*
X135991939Y-120415000D01*
X136191898Y-120375226D01*
X136380256Y-120297205D01*
X136549774Y-120183937D01*
X136638711Y-120095000D01*
X137186927Y-120095000D01*
X137199187Y-120219482D01*
X137235497Y-120339180D01*
X137294462Y-120449494D01*
X137373814Y-120546185D01*
X137470505Y-120625537D01*
X137580819Y-120684502D01*
X137653379Y-120706513D01*
X137521524Y-120838368D01*
X137359009Y-121081589D01*
X137247067Y-121351842D01*
X137189999Y-121638740D01*
X137189999Y-121931260D01*
X137247067Y-122218158D01*
X137359009Y-122488411D01*
X137521524Y-122731632D01*
X137728367Y-122938475D01*
X137902759Y-123055000D01*
X137728367Y-123171525D01*
X137521524Y-123378368D01*
X137359009Y-123621589D01*
X137247067Y-123891842D01*
X137189999Y-124178740D01*
X137189999Y-124471260D01*
X137247067Y-124758158D01*
X137359009Y-125028411D01*
X137521524Y-125271632D01*
X137728367Y-125478475D01*
X137971588Y-125640990D01*
X138241841Y-125752932D01*
X138528739Y-125810000D01*
X138821259Y-125810000D01*
X139108157Y-125752932D01*
X139378410Y-125640990D01*
X139621631Y-125478475D01*
X139828474Y-125271632D01*
X139990989Y-125028411D01*
X140102931Y-124758158D01*
X140159999Y-124471260D01*
X140159999Y-124178740D01*
X140102931Y-123891842D01*
X139990989Y-123621589D01*
X139828474Y-123378368D01*
X139621631Y-123171525D01*
X139447239Y-123055000D01*
X139621631Y-122938475D01*
X139828474Y-122731632D01*
X139990989Y-122488411D01*
X140102931Y-122218158D01*
X140159999Y-121931260D01*
X140159999Y-121638740D01*
X140102931Y-121351842D01*
X139990989Y-121081589D01*
X139828474Y-120838368D01*
X139696619Y-120706513D01*
X139769179Y-120684502D01*
X139879493Y-120625537D01*
X139976184Y-120546185D01*
X140055536Y-120449494D01*
X140114501Y-120339180D01*
X140150811Y-120219482D01*
X140163071Y-120095000D01*
X140159999Y-119530750D01*
X140001249Y-119372000D01*
X138801999Y-119372000D01*
X138801999Y-119392000D01*
X138547999Y-119392000D01*
X138547999Y-119372000D01*
X137348749Y-119372000D01*
X137189999Y-119530750D01*
X137186927Y-120095000D01*
X136638711Y-120095000D01*
X136693937Y-120039774D01*
X136807205Y-119870256D01*
X136885226Y-119681898D01*
X136925000Y-119481939D01*
X136925000Y-119278061D01*
X136885226Y-119078102D01*
X136807205Y-118889744D01*
X136697509Y-118725572D01*
X136990001Y-118725572D01*
X137163255Y-118708508D01*
X137188592Y-118700822D01*
X137189999Y-118959250D01*
X137348749Y-119118000D01*
X138547999Y-119118000D01*
X138547999Y-119098000D01*
X138801999Y-119098000D01*
X138801999Y-119118000D01*
X140001249Y-119118000D01*
X140159999Y-118959250D01*
X140163071Y-118395000D01*
X140150811Y-118270518D01*
X140114501Y-118150820D01*
X140055536Y-118040506D01*
X139976184Y-117943815D01*
X139879493Y-117864463D01*
X139769179Y-117805498D01*
X139696619Y-117783487D01*
X139828474Y-117651632D01*
X139990989Y-117408411D01*
X140102931Y-117138158D01*
X140159999Y-116851260D01*
X140159999Y-116558740D01*
X140102931Y-116271842D01*
X139990989Y-116001589D01*
X139828474Y-115758368D01*
X139621631Y-115551525D01*
X139447239Y-115435000D01*
X139621631Y-115318475D01*
X139828474Y-115111632D01*
X139990989Y-114868411D01*
X140102931Y-114598158D01*
X140159999Y-114311260D01*
X140159999Y-114018740D01*
X140102931Y-113731842D01*
X139990989Y-113461589D01*
X139828474Y-113218368D01*
X139621631Y-113011525D01*
X139447239Y-112895000D01*
X139621631Y-112778475D01*
X139828474Y-112571632D01*
X139990989Y-112328411D01*
X140102931Y-112058158D01*
X140159999Y-111771260D01*
X140159999Y-111478740D01*
X140102931Y-111191842D01*
X139990989Y-110921589D01*
X139828474Y-110678368D01*
X139621631Y-110471525D01*
X139447239Y-110355000D01*
X139621631Y-110238475D01*
X139828474Y-110031632D01*
X139990989Y-109788411D01*
X140102931Y-109518158D01*
X140159999Y-109231260D01*
X140159999Y-108938740D01*
X140102931Y-108651842D01*
X139990989Y-108381589D01*
X139828474Y-108138368D01*
X139696619Y-108006513D01*
X139769179Y-107984502D01*
X139879493Y-107925537D01*
X139976184Y-107846185D01*
X140055536Y-107749494D01*
X140114501Y-107639180D01*
X140150811Y-107519482D01*
X140163071Y-107395000D01*
X140159999Y-106830750D01*
X140001249Y-106672000D01*
X138801999Y-106672000D01*
X138801999Y-106692000D01*
X138547999Y-106692000D01*
X138547999Y-106672000D01*
X137348749Y-106672000D01*
X137189999Y-106830750D01*
X137186927Y-107395000D01*
X137199187Y-107519482D01*
X137235497Y-107639180D01*
X137294462Y-107749494D01*
X137373814Y-107846185D01*
X137470505Y-107925537D01*
X137580819Y-107984502D01*
X137653379Y-108006513D01*
X137521524Y-108138368D01*
X137359009Y-108381589D01*
X137247067Y-108651842D01*
X137189999Y-108938740D01*
X137189999Y-109231260D01*
X137247067Y-109518158D01*
X137359009Y-109788411D01*
X137521524Y-110031632D01*
X137728367Y-110238475D01*
X137902759Y-110355000D01*
X137728367Y-110471525D01*
X137521524Y-110678368D01*
X137359009Y-110921589D01*
X137247067Y-111191842D01*
X137189999Y-111478740D01*
X137189999Y-111771260D01*
X137247067Y-112058158D01*
X137359009Y-112328411D01*
X137521524Y-112571632D01*
X137728367Y-112778475D01*
X137902759Y-112895000D01*
X137728367Y-113011525D01*
X137615604Y-113124288D01*
X137594494Y-113106963D01*
X137484180Y-113047998D01*
X137364482Y-113011688D01*
X137240000Y-112999428D01*
X136175750Y-113002500D01*
X136017000Y-113161250D01*
X136017000Y-114173000D01*
X136037000Y-114173000D01*
X136037000Y-114427000D01*
X136017000Y-114427000D01*
X136017000Y-115438750D01*
X136175750Y-115597500D01*
X137240000Y-115600572D01*
X137364482Y-115588312D01*
X137484180Y-115552002D01*
X137594494Y-115493037D01*
X137691185Y-115413685D01*
X137754817Y-115336149D01*
X137902759Y-115435000D01*
X137728367Y-115551525D01*
X137521524Y-115758368D01*
X137359009Y-116001589D01*
X137285677Y-116178628D01*
X137163255Y-116141492D01*
X136990001Y-116124428D01*
X134789999Y-116124428D01*
X134616745Y-116141492D01*
X134450149Y-116192028D01*
X134296613Y-116274095D01*
X134162038Y-116384538D01*
X134051595Y-116519113D01*
X133999954Y-116615726D01*
X133937829Y-116564742D01*
X133801582Y-116491916D01*
X133653745Y-116447071D01*
X133500000Y-116431928D01*
X133200000Y-116431928D01*
X133046255Y-116447071D01*
X132898418Y-116491916D01*
X132762171Y-116564742D01*
X132715000Y-116603454D01*
X132667829Y-116564742D01*
X132531582Y-116491916D01*
X132383745Y-116447071D01*
X132230000Y-116431928D01*
X131930000Y-116431928D01*
X131919528Y-116432959D01*
X131720562Y-116233993D01*
X131696759Y-116204989D01*
X131581034Y-116110016D01*
X131449005Y-116039444D01*
X131305744Y-115995987D01*
X131194091Y-115984990D01*
X131194080Y-115984990D01*
X131156758Y-115981314D01*
X131119436Y-115984990D01*
X129902343Y-115984990D01*
X129865010Y-115981313D01*
X129827677Y-115984990D01*
X129716024Y-115995987D01*
X129572763Y-116039444D01*
X129440734Y-116110016D01*
X129325009Y-116204989D01*
X129301206Y-116233993D01*
X129028998Y-116506201D01*
X129000000Y-116529999D01*
X128986582Y-116546349D01*
X128952171Y-116564742D01*
X128905000Y-116603454D01*
X128857829Y-116564742D01*
X128721582Y-116491916D01*
X128573745Y-116447071D01*
X128420000Y-116431928D01*
X128120000Y-116431928D01*
X127966255Y-116447071D01*
X127818418Y-116491916D01*
X127682171Y-116564742D01*
X127635000Y-116603454D01*
X127587829Y-116564742D01*
X127451582Y-116491916D01*
X127303745Y-116447071D01*
X127150000Y-116431928D01*
X126850000Y-116431928D01*
X126696255Y-116447071D01*
X126548418Y-116491916D01*
X126412171Y-116564742D01*
X126365000Y-116603454D01*
X126317829Y-116564742D01*
X126181582Y-116491916D01*
X126033745Y-116447071D01*
X125880000Y-116431928D01*
X125580000Y-116431928D01*
X125426255Y-116447071D01*
X125278418Y-116491916D01*
X125142171Y-116564742D01*
X125022749Y-116662749D01*
X124924742Y-116782171D01*
X124851916Y-116918418D01*
X124807071Y-117066255D01*
X124791928Y-117220000D01*
X124791928Y-118870000D01*
X124807071Y-119023745D01*
X124851916Y-119171582D01*
X124924742Y-119307829D01*
X125022749Y-119427251D01*
X125142171Y-119525258D01*
X125278418Y-119598084D01*
X125426255Y-119642929D01*
X125580000Y-119658072D01*
X125880000Y-119658072D01*
X126033745Y-119642929D01*
X126040000Y-119641032D01*
X126040001Y-125965552D01*
X125248626Y-126756928D01*
X125050000Y-126756928D01*
X124876746Y-126773992D01*
X124710150Y-126824528D01*
X124556614Y-126906595D01*
X124422038Y-127017038D01*
X124311595Y-127151614D01*
X124229528Y-127305150D01*
X124178992Y-127471746D01*
X124161928Y-127645000D01*
X124161928Y-127858444D01*
X124160913Y-127859681D01*
X124092663Y-127987368D01*
X124063384Y-128083887D01*
X124050635Y-128125915D01*
X124036444Y-128270000D01*
X124040000Y-128306105D01*
X124040001Y-133568469D01*
X123796335Y-133520000D01*
X123513665Y-133520000D01*
X123236426Y-133575147D01*
X122975273Y-133683320D01*
X122740241Y-133840363D01*
X122540363Y-134040241D01*
X122383320Y-134275273D01*
X122275147Y-134536426D01*
X122220000Y-134813665D01*
X122220000Y-135096335D01*
X122275147Y-135373574D01*
X122383320Y-135634727D01*
X122540363Y-135869759D01*
X122740241Y-136069637D01*
X122975273Y-136226680D01*
X123236426Y-136334853D01*
X123513665Y-136390000D01*
X123796335Y-136390000D01*
X124073574Y-136334853D01*
X124334727Y-136226680D01*
X124569759Y-136069637D01*
X124726762Y-135912634D01*
X124802762Y-136005239D01*
X124830807Y-136028255D01*
X125162551Y-136360000D01*
X124898665Y-136360000D01*
X124621426Y-136415147D01*
X124360273Y-136523320D01*
X124125241Y-136680363D01*
X123925363Y-136880241D01*
X123768320Y-137115273D01*
X123660147Y-137376426D01*
X123655000Y-137402301D01*
X123649853Y-137376426D01*
X123541680Y-137115273D01*
X123384637Y-136880241D01*
X123184759Y-136680363D01*
X122949727Y-136523320D01*
X122688574Y-136415147D01*
X122411335Y-136360000D01*
X122128665Y-136360000D01*
X121851426Y-136415147D01*
X121590273Y-136523320D01*
X121355241Y-136680363D01*
X121155363Y-136880241D01*
X120998320Y-137115273D01*
X120890147Y-137376426D01*
X120835000Y-137653665D01*
X117614854Y-137653665D01*
X117764938Y-137366895D01*
X117911275Y-136868902D01*
X117957648Y-136351929D01*
X117902273Y-135835841D01*
X117747279Y-135340474D01*
X117524258Y-134923228D01*
X117157499Y-134707106D01*
X115489605Y-136375000D01*
X115130395Y-136375000D01*
X113462501Y-134707106D01*
X113095742Y-134923228D01*
X112855062Y-135383105D01*
X112708725Y-135881098D01*
X112662352Y-136398071D01*
X111175000Y-136398071D01*
X111175000Y-134527501D01*
X113642106Y-134527501D01*
X115310000Y-136195395D01*
X116977894Y-134527501D01*
X116761772Y-134160742D01*
X116301895Y-133920062D01*
X115803902Y-133773725D01*
X115286929Y-133727352D01*
X114770841Y-133782727D01*
X114275474Y-133937721D01*
X113858228Y-134160742D01*
X113642106Y-134527501D01*
X111175000Y-134527501D01*
X111175000Y-120095000D01*
X119406927Y-120095000D01*
X119419187Y-120219482D01*
X119455497Y-120339180D01*
X119514462Y-120449494D01*
X119593814Y-120546185D01*
X119690505Y-120625537D01*
X119800819Y-120684502D01*
X119873379Y-120706513D01*
X119741524Y-120838368D01*
X119579009Y-121081589D01*
X119467067Y-121351842D01*
X119409999Y-121638740D01*
X119409999Y-121931260D01*
X119467067Y-122218158D01*
X119579009Y-122488411D01*
X119741524Y-122731632D01*
X119948367Y-122938475D01*
X120122759Y-123055000D01*
X119948367Y-123171525D01*
X119741524Y-123378368D01*
X119579009Y-123621589D01*
X119467067Y-123891842D01*
X119409999Y-124178740D01*
X119409999Y-124471260D01*
X119467067Y-124758158D01*
X119579009Y-125028411D01*
X119741524Y-125271632D01*
X119948367Y-125478475D01*
X120191588Y-125640990D01*
X120461841Y-125752932D01*
X120748739Y-125810000D01*
X121041259Y-125810000D01*
X121328157Y-125752932D01*
X121598410Y-125640990D01*
X121841631Y-125478475D01*
X122048474Y-125271632D01*
X122210989Y-125028411D01*
X122322931Y-124758158D01*
X122379999Y-124471260D01*
X122379999Y-124178740D01*
X122322931Y-123891842D01*
X122210989Y-123621589D01*
X122048474Y-123378368D01*
X121841631Y-123171525D01*
X121667239Y-123055000D01*
X121841631Y-122938475D01*
X122048474Y-122731632D01*
X122210989Y-122488411D01*
X122322931Y-122218158D01*
X122379999Y-121931260D01*
X122379999Y-121638740D01*
X122322931Y-121351842D01*
X122210989Y-121081589D01*
X122048474Y-120838368D01*
X121916619Y-120706513D01*
X121989179Y-120684502D01*
X122099493Y-120625537D01*
X122196184Y-120546185D01*
X122275536Y-120449494D01*
X122334501Y-120339180D01*
X122370811Y-120219482D01*
X122383071Y-120095000D01*
X122379999Y-119530750D01*
X122221249Y-119372000D01*
X121021999Y-119372000D01*
X121021999Y-119392000D01*
X120767999Y-119392000D01*
X120767999Y-119372000D01*
X119568749Y-119372000D01*
X119409999Y-119530750D01*
X119406927Y-120095000D01*
X111175000Y-120095000D01*
X111175000Y-107395000D01*
X119406927Y-107395000D01*
X119419187Y-107519482D01*
X119455497Y-107639180D01*
X119514462Y-107749494D01*
X119593814Y-107846185D01*
X119690505Y-107925537D01*
X119800819Y-107984502D01*
X119873379Y-108006513D01*
X119741524Y-108138368D01*
X119579009Y-108381589D01*
X119467067Y-108651842D01*
X119409999Y-108938740D01*
X119409999Y-109231260D01*
X119467067Y-109518158D01*
X119579009Y-109788411D01*
X119741524Y-110031632D01*
X119948367Y-110238475D01*
X120122759Y-110355000D01*
X119948367Y-110471525D01*
X119741524Y-110678368D01*
X119579009Y-110921589D01*
X119467067Y-111191842D01*
X119409999Y-111478740D01*
X119409999Y-111771260D01*
X119467067Y-112058158D01*
X119579009Y-112328411D01*
X119741524Y-112571632D01*
X119948367Y-112778475D01*
X120122759Y-112895000D01*
X119948367Y-113011525D01*
X119741524Y-113218368D01*
X119579009Y-113461589D01*
X119467067Y-113731842D01*
X119409999Y-114018740D01*
X119409999Y-114311260D01*
X119467067Y-114598158D01*
X119579009Y-114868411D01*
X119741524Y-115111632D01*
X119948367Y-115318475D01*
X120122759Y-115435000D01*
X119948367Y-115551525D01*
X119741524Y-115758368D01*
X119579009Y-116001589D01*
X119467067Y-116271842D01*
X119409999Y-116558740D01*
X119409999Y-116851260D01*
X119467067Y-117138158D01*
X119579009Y-117408411D01*
X119741524Y-117651632D01*
X119873379Y-117783487D01*
X119800819Y-117805498D01*
X119690505Y-117864463D01*
X119593814Y-117943815D01*
X119514462Y-118040506D01*
X119455497Y-118150820D01*
X119419187Y-118270518D01*
X119406927Y-118395000D01*
X119409999Y-118959250D01*
X119568749Y-119118000D01*
X120767999Y-119118000D01*
X120767999Y-119098000D01*
X121021999Y-119098000D01*
X121021999Y-119118000D01*
X122221249Y-119118000D01*
X122379999Y-118959250D01*
X122383071Y-118395000D01*
X122370811Y-118270518D01*
X122334501Y-118150820D01*
X122275536Y-118040506D01*
X122196184Y-117943815D01*
X122099493Y-117864463D01*
X121989179Y-117805498D01*
X121916619Y-117783487D01*
X122048474Y-117651632D01*
X122210989Y-117408411D01*
X122322931Y-117138158D01*
X122379999Y-116851260D01*
X122379999Y-116558740D01*
X122322931Y-116271842D01*
X122210989Y-116001589D01*
X122048474Y-115758368D01*
X121841631Y-115551525D01*
X121667239Y-115435000D01*
X121841631Y-115318475D01*
X122048474Y-115111632D01*
X122210989Y-114868411D01*
X122322931Y-114598158D01*
X122379999Y-114311260D01*
X122379999Y-114070000D01*
X124791928Y-114070000D01*
X124804188Y-114194482D01*
X124840498Y-114314180D01*
X124899463Y-114424494D01*
X124978815Y-114521185D01*
X125075506Y-114600537D01*
X125185820Y-114659502D01*
X125305518Y-114695812D01*
X125430000Y-114708072D01*
X125444250Y-114705000D01*
X125603000Y-114546250D01*
X125603000Y-113222000D01*
X125857000Y-113222000D01*
X125857000Y-114546250D01*
X126015750Y-114705000D01*
X126030000Y-114708072D01*
X126154482Y-114695812D01*
X126274180Y-114659502D01*
X126365000Y-114610957D01*
X126455820Y-114659502D01*
X126575518Y-114695812D01*
X126700000Y-114708072D01*
X126714250Y-114705000D01*
X126873000Y-114546250D01*
X126873000Y-113222000D01*
X125857000Y-113222000D01*
X125603000Y-113222000D01*
X124953750Y-113222000D01*
X124795000Y-113380750D01*
X124791928Y-114070000D01*
X122379999Y-114070000D01*
X122379999Y-114018740D01*
X122322931Y-113731842D01*
X122210989Y-113461589D01*
X122048474Y-113218368D01*
X121841631Y-113011525D01*
X121667239Y-112895000D01*
X121841631Y-112778475D01*
X122048474Y-112571632D01*
X122210989Y-112328411D01*
X122297315Y-112120000D01*
X124791928Y-112120000D01*
X124795000Y-112809250D01*
X124953750Y-112968000D01*
X125603000Y-112968000D01*
X125603000Y-111643750D01*
X125857000Y-111643750D01*
X125857000Y-112968000D01*
X126873000Y-112968000D01*
X126873000Y-111643750D01*
X127127000Y-111643750D01*
X127127000Y-112968000D01*
X127147000Y-112968000D01*
X127147000Y-113222000D01*
X127127000Y-113222000D01*
X127127000Y-114546250D01*
X127285750Y-114705000D01*
X127300000Y-114708072D01*
X127424482Y-114695812D01*
X127544180Y-114659502D01*
X127654494Y-114600537D01*
X127684064Y-114576270D01*
X127818418Y-114648084D01*
X127966255Y-114692929D01*
X128120000Y-114708072D01*
X128420000Y-114708072D01*
X128573745Y-114692929D01*
X128721582Y-114648084D01*
X128857829Y-114575258D01*
X128905000Y-114536546D01*
X128952171Y-114575258D01*
X129088418Y-114648084D01*
X129236255Y-114692929D01*
X129390000Y-114708072D01*
X129690000Y-114708072D01*
X129843745Y-114692929D01*
X129991582Y-114648084D01*
X130127829Y-114575258D01*
X130175000Y-114536546D01*
X130222171Y-114575258D01*
X130358418Y-114648084D01*
X130506255Y-114692929D01*
X130660000Y-114708072D01*
X130960000Y-114708072D01*
X131113745Y-114692929D01*
X131261582Y-114648084D01*
X131397829Y-114575258D01*
X131445000Y-114536546D01*
X131492171Y-114575258D01*
X131628418Y-114648084D01*
X131776255Y-114692929D01*
X131930000Y-114708072D01*
X132230000Y-114708072D01*
X132383745Y-114692929D01*
X132531582Y-114648084D01*
X132667829Y-114575258D01*
X132715000Y-114536546D01*
X132762171Y-114575258D01*
X132898418Y-114648084D01*
X133046255Y-114692929D01*
X133200000Y-114708072D01*
X133500000Y-114708072D01*
X133653745Y-114692929D01*
X133801582Y-114648084D01*
X133904942Y-114592836D01*
X133901928Y-114962500D01*
X133914188Y-115086982D01*
X133950498Y-115206680D01*
X134009463Y-115316994D01*
X134088815Y-115413685D01*
X134185506Y-115493037D01*
X134295820Y-115552002D01*
X134415518Y-115588312D01*
X134540000Y-115600572D01*
X135604250Y-115597500D01*
X135763000Y-115438750D01*
X135763000Y-114427000D01*
X135743000Y-114427000D01*
X135743000Y-114173000D01*
X135763000Y-114173000D01*
X135763000Y-113161250D01*
X135604250Y-113002500D01*
X134540000Y-112999428D01*
X134415518Y-113011688D01*
X134295820Y-113047998D01*
X134288072Y-113052139D01*
X134288072Y-112270000D01*
X134272929Y-112116255D01*
X134228084Y-111968418D01*
X134155258Y-111832171D01*
X134057251Y-111712749D01*
X133937829Y-111614742D01*
X133801582Y-111541916D01*
X133653745Y-111497071D01*
X133500000Y-111481928D01*
X133200000Y-111481928D01*
X133046255Y-111497071D01*
X132949999Y-111526269D01*
X132949999Y-94695000D01*
X137186927Y-94695000D01*
X137199187Y-94819482D01*
X137235497Y-94939180D01*
X137294462Y-95049494D01*
X137373814Y-95146185D01*
X137470505Y-95225537D01*
X137580819Y-95284502D01*
X137653379Y-95306513D01*
X137521524Y-95438368D01*
X137359009Y-95681589D01*
X137247067Y-95951842D01*
X137189999Y-96238740D01*
X137189999Y-96531260D01*
X137247067Y-96818158D01*
X137359009Y-97088411D01*
X137521524Y-97331632D01*
X137728367Y-97538475D01*
X137902759Y-97655000D01*
X137728367Y-97771525D01*
X137521524Y-97978368D01*
X137359009Y-98221589D01*
X137247067Y-98491842D01*
X137189999Y-98778740D01*
X137189999Y-99071260D01*
X137247067Y-99358158D01*
X137359009Y-99628411D01*
X137521524Y-99871632D01*
X137728367Y-100078475D01*
X137902759Y-100195000D01*
X137728367Y-100311525D01*
X137521524Y-100518368D01*
X137359009Y-100761589D01*
X137247067Y-101031842D01*
X137189999Y-101318740D01*
X137189999Y-101611260D01*
X137247067Y-101898158D01*
X137359009Y-102168411D01*
X137521524Y-102411632D01*
X137728367Y-102618475D01*
X137902759Y-102735000D01*
X137728367Y-102851525D01*
X137521524Y-103058368D01*
X137359009Y-103301589D01*
X137247067Y-103571842D01*
X137189999Y-103858740D01*
X137189999Y-104151260D01*
X137247067Y-104438158D01*
X137359009Y-104708411D01*
X137521524Y-104951632D01*
X137653379Y-105083487D01*
X137580819Y-105105498D01*
X137470505Y-105164463D01*
X137373814Y-105243815D01*
X137294462Y-105340506D01*
X137235497Y-105450820D01*
X137199187Y-105570518D01*
X137186927Y-105695000D01*
X137189999Y-106259250D01*
X137348749Y-106418000D01*
X138547999Y-106418000D01*
X138547999Y-106398000D01*
X138801999Y-106398000D01*
X138801999Y-106418000D01*
X140001249Y-106418000D01*
X140159999Y-106259250D01*
X140163071Y-105695000D01*
X140150811Y-105570518D01*
X140114501Y-105450820D01*
X140055536Y-105340506D01*
X139976184Y-105243815D01*
X139879493Y-105164463D01*
X139769179Y-105105498D01*
X139696619Y-105083487D01*
X139828474Y-104951632D01*
X139990989Y-104708411D01*
X140102931Y-104438158D01*
X140159999Y-104151260D01*
X140159999Y-103858740D01*
X140102931Y-103571842D01*
X139990989Y-103301589D01*
X139828474Y-103058368D01*
X139621631Y-102851525D01*
X139447239Y-102735000D01*
X139621631Y-102618475D01*
X139828474Y-102411632D01*
X139990989Y-102168411D01*
X140102931Y-101898158D01*
X140159999Y-101611260D01*
X140159999Y-101318740D01*
X140102931Y-101031842D01*
X139990989Y-100761589D01*
X139828474Y-100518368D01*
X139621631Y-100311525D01*
X139447239Y-100195000D01*
X139621631Y-100078475D01*
X139828474Y-99871632D01*
X139990989Y-99628411D01*
X140102931Y-99358158D01*
X140159999Y-99071260D01*
X140159999Y-98778740D01*
X140102931Y-98491842D01*
X139990989Y-98221589D01*
X139828474Y-97978368D01*
X139621631Y-97771525D01*
X139447239Y-97655000D01*
X139621631Y-97538475D01*
X139828474Y-97331632D01*
X139990989Y-97088411D01*
X140102931Y-96818158D01*
X140159999Y-96531260D01*
X140159999Y-96238740D01*
X140102931Y-95951842D01*
X139990989Y-95681589D01*
X139828474Y-95438368D01*
X139696619Y-95306513D01*
X139769179Y-95284502D01*
X139879493Y-95225537D01*
X139976184Y-95146185D01*
X140055536Y-95049494D01*
X140114501Y-94939180D01*
X140150811Y-94819482D01*
X140163071Y-94695000D01*
X140159999Y-94130750D01*
X140001249Y-93972000D01*
X138801999Y-93972000D01*
X138801999Y-93992000D01*
X138547999Y-93992000D01*
X138547999Y-93972000D01*
X137348749Y-93972000D01*
X137189999Y-94130750D01*
X137186927Y-94695000D01*
X132949999Y-94695000D01*
X132949999Y-85404801D01*
X137189999Y-81164802D01*
X137189999Y-81272002D01*
X137348747Y-81272002D01*
X137189999Y-81430750D01*
X137186927Y-81995000D01*
X137199187Y-82119482D01*
X137235497Y-82239180D01*
X137294462Y-82349494D01*
X137373814Y-82446185D01*
X137470505Y-82525537D01*
X137580819Y-82584502D01*
X137653379Y-82606513D01*
X137521524Y-82738368D01*
X137359009Y-82981589D01*
X137247067Y-83251842D01*
X137189999Y-83538740D01*
X137189999Y-83831260D01*
X137247067Y-84118158D01*
X137359009Y-84388411D01*
X137521524Y-84631632D01*
X137728367Y-84838475D01*
X137902759Y-84955000D01*
X137728367Y-85071525D01*
X137521524Y-85278368D01*
X137359009Y-85521589D01*
X137247067Y-85791842D01*
X137189999Y-86078740D01*
X137189999Y-86371260D01*
X137247067Y-86658158D01*
X137359009Y-86928411D01*
X137521524Y-87171632D01*
X137728367Y-87378475D01*
X137902759Y-87495000D01*
X137728367Y-87611525D01*
X137521524Y-87818368D01*
X137359009Y-88061589D01*
X137247067Y-88331842D01*
X137189999Y-88618740D01*
X137189999Y-88911260D01*
X137247067Y-89198158D01*
X137359009Y-89468411D01*
X137521524Y-89711632D01*
X137728367Y-89918475D01*
X137902759Y-90035000D01*
X137728367Y-90151525D01*
X137521524Y-90358368D01*
X137359009Y-90601589D01*
X137247067Y-90871842D01*
X137189999Y-91158740D01*
X137189999Y-91451260D01*
X137247067Y-91738158D01*
X137359009Y-92008411D01*
X137521524Y-92251632D01*
X137653379Y-92383487D01*
X137580819Y-92405498D01*
X137470505Y-92464463D01*
X137373814Y-92543815D01*
X137294462Y-92640506D01*
X137235497Y-92750820D01*
X137199187Y-92870518D01*
X137186927Y-92995000D01*
X137189999Y-93559250D01*
X137348749Y-93718000D01*
X138547999Y-93718000D01*
X138547999Y-93698000D01*
X138801999Y-93698000D01*
X138801999Y-93718000D01*
X140001249Y-93718000D01*
X140159999Y-93559250D01*
X140163071Y-92995000D01*
X140150811Y-92870518D01*
X140114501Y-92750820D01*
X140055536Y-92640506D01*
X139976184Y-92543815D01*
X139879493Y-92464463D01*
X139769179Y-92405498D01*
X139696619Y-92383487D01*
X139828474Y-92251632D01*
X139990989Y-92008411D01*
X140102931Y-91738158D01*
X140159999Y-91451260D01*
X140159999Y-91158740D01*
X140102931Y-90871842D01*
X139990989Y-90601589D01*
X139828474Y-90358368D01*
X139621631Y-90151525D01*
X139447239Y-90035000D01*
X139621631Y-89918475D01*
X139828474Y-89711632D01*
X139990989Y-89468411D01*
X140102931Y-89198158D01*
X140159999Y-88911260D01*
X140159999Y-88618740D01*
X140102931Y-88331842D01*
X139990989Y-88061589D01*
X139828474Y-87818368D01*
X139621631Y-87611525D01*
X139447239Y-87495000D01*
X139621631Y-87378475D01*
X139828474Y-87171632D01*
X139990989Y-86928411D01*
X140102931Y-86658158D01*
X140159999Y-86371260D01*
X140159999Y-86078740D01*
X140116208Y-85858592D01*
X141481003Y-84493798D01*
X141510001Y-84470000D01*
X141604974Y-84354275D01*
X141675546Y-84222246D01*
X141719003Y-84078985D01*
X141730000Y-83967332D01*
X141733677Y-83929999D01*
X141730000Y-83892666D01*
X141730000Y-69887322D01*
X141733676Y-69849999D01*
X141730000Y-69812676D01*
X141730000Y-69812667D01*
X141719003Y-69701014D01*
X141675546Y-69557753D01*
X141604974Y-69425724D01*
X141510001Y-69309999D01*
X141481004Y-69286202D01*
X141238072Y-69043270D01*
X141238072Y-67930200D01*
X141221004Y-67756907D01*
X141170456Y-67590273D01*
X141088371Y-67436703D01*
X140977903Y-67302097D01*
X140843297Y-67191629D01*
X140689727Y-67109544D01*
X140546488Y-67066093D01*
X139700000Y-66219605D01*
X138853512Y-67066093D01*
X138710273Y-67109544D01*
X138556703Y-67191629D01*
X138422097Y-67302097D01*
X138311629Y-67436703D01*
X138229544Y-67590273D01*
X138178996Y-67756907D01*
X138161928Y-67930200D01*
X138161928Y-69229800D01*
X138178996Y-69403093D01*
X138229544Y-69569727D01*
X138311629Y-69723297D01*
X138422097Y-69857903D01*
X138556703Y-69968371D01*
X138710273Y-70050456D01*
X138876907Y-70101004D01*
X139050200Y-70118072D01*
X140163270Y-70118072D01*
X140210000Y-70164802D01*
X140210001Y-83615196D01*
X140159999Y-83665198D01*
X140159999Y-83538740D01*
X140102931Y-83251842D01*
X139990989Y-82981589D01*
X139828474Y-82738368D01*
X139696619Y-82606513D01*
X139769179Y-82584502D01*
X139879493Y-82525537D01*
X139976184Y-82446185D01*
X140055536Y-82349494D01*
X140114501Y-82239180D01*
X140150811Y-82119482D01*
X140163071Y-81995000D01*
X140159999Y-81430750D01*
X140001249Y-81272000D01*
X138801999Y-81272000D01*
X138801999Y-81292000D01*
X138547999Y-81292000D01*
X138547999Y-81272000D01*
X138527999Y-81272000D01*
X138527999Y-81018000D01*
X138547999Y-81018000D01*
X138547999Y-80998000D01*
X138801999Y-80998000D01*
X138801999Y-81018000D01*
X140001249Y-81018000D01*
X140159999Y-80859250D01*
X140163071Y-80295000D01*
X140150811Y-80170518D01*
X140114501Y-80050820D01*
X140055536Y-79940506D01*
X139976184Y-79843815D01*
X139879493Y-79764463D01*
X139769179Y-79705498D01*
X139696619Y-79683487D01*
X139828474Y-79551632D01*
X139990989Y-79308411D01*
X140102931Y-79038158D01*
X140159999Y-78751260D01*
X140159999Y-78458740D01*
X140102931Y-78171842D01*
X139990989Y-77901589D01*
X139828474Y-77658368D01*
X139621631Y-77451525D01*
X139447239Y-77335000D01*
X139621631Y-77218475D01*
X139828474Y-77011632D01*
X139990989Y-76768411D01*
X140102931Y-76498158D01*
X140159999Y-76211260D01*
X140159999Y-75918740D01*
X140102931Y-75631842D01*
X139990989Y-75361589D01*
X139828474Y-75118368D01*
X139621631Y-74911525D01*
X139378410Y-74749010D01*
X139108157Y-74637068D01*
X138821259Y-74580000D01*
X138528739Y-74580000D01*
X138241841Y-74637068D01*
X137971588Y-74749010D01*
X137728367Y-74911525D01*
X137521524Y-75118368D01*
X137359009Y-75361589D01*
X137247067Y-75631842D01*
X137189999Y-75918740D01*
X137189999Y-76211260D01*
X137233789Y-76431408D01*
X136385797Y-77279401D01*
X136356793Y-77303204D01*
X136301665Y-77370379D01*
X136261820Y-77418929D01*
X136191761Y-77550000D01*
X136191248Y-77550959D01*
X136147791Y-77694220D01*
X136136794Y-77805873D01*
X136136794Y-77805883D01*
X136133118Y-77843205D01*
X136136794Y-77880528D01*
X136136795Y-79431992D01*
X131228993Y-84339795D01*
X131199989Y-84363598D01*
X131144861Y-84430773D01*
X131105016Y-84479323D01*
X131067239Y-84549999D01*
X131034444Y-84611353D01*
X130990987Y-84754614D01*
X130979990Y-84866267D01*
X130979990Y-84866277D01*
X130976314Y-84903599D01*
X130979990Y-84940921D01*
X130979991Y-106705207D01*
X127759003Y-109926196D01*
X127729999Y-109949999D01*
X127689175Y-109999744D01*
X127635026Y-110065724D01*
X127569613Y-110188102D01*
X127564454Y-110197754D01*
X127520997Y-110341015D01*
X127510000Y-110452668D01*
X127510000Y-110452678D01*
X127506324Y-110490000D01*
X127510000Y-110527323D01*
X127510000Y-111520130D01*
X127424482Y-111494188D01*
X127300000Y-111481928D01*
X127285750Y-111485000D01*
X127127000Y-111643750D01*
X126873000Y-111643750D01*
X126714250Y-111485000D01*
X126700000Y-111481928D01*
X126575518Y-111494188D01*
X126455820Y-111530498D01*
X126365000Y-111579043D01*
X126274180Y-111530498D01*
X126154482Y-111494188D01*
X126030000Y-111481928D01*
X126015750Y-111485000D01*
X125857000Y-111643750D01*
X125603000Y-111643750D01*
X125444250Y-111485000D01*
X125430000Y-111481928D01*
X125305518Y-111494188D01*
X125185820Y-111530498D01*
X125075506Y-111589463D01*
X124978815Y-111668815D01*
X124899463Y-111765506D01*
X124840498Y-111875820D01*
X124804188Y-111995518D01*
X124791928Y-112120000D01*
X122297315Y-112120000D01*
X122322931Y-112058158D01*
X122379999Y-111771260D01*
X122379999Y-111478740D01*
X122322931Y-111191842D01*
X122210989Y-110921589D01*
X122048474Y-110678368D01*
X121841631Y-110471525D01*
X121667239Y-110355000D01*
X121841631Y-110238475D01*
X122048474Y-110031632D01*
X122210989Y-109788411D01*
X122322931Y-109518158D01*
X122379999Y-109231260D01*
X122379999Y-108938740D01*
X122322931Y-108651842D01*
X122210989Y-108381589D01*
X122048474Y-108138368D01*
X121916619Y-108006513D01*
X121989179Y-107984502D01*
X122099493Y-107925537D01*
X122196184Y-107846185D01*
X122275536Y-107749494D01*
X122334501Y-107639180D01*
X122370811Y-107519482D01*
X122383071Y-107395000D01*
X122379999Y-106830750D01*
X122221249Y-106672000D01*
X121021999Y-106672000D01*
X121021999Y-106692000D01*
X120767999Y-106692000D01*
X120767999Y-106672000D01*
X119568749Y-106672000D01*
X119409999Y-106830750D01*
X119406927Y-107395000D01*
X111175000Y-107395000D01*
X111175000Y-99480000D01*
X111541928Y-99480000D01*
X111541928Y-101180000D01*
X111554188Y-101304482D01*
X111590498Y-101424180D01*
X111649463Y-101534494D01*
X111728815Y-101631185D01*
X111825506Y-101710537D01*
X111935820Y-101769502D01*
X112055518Y-101805812D01*
X112180000Y-101818072D01*
X113880000Y-101818072D01*
X114004482Y-101805812D01*
X114124180Y-101769502D01*
X114234494Y-101710537D01*
X114331185Y-101631185D01*
X114410537Y-101534494D01*
X114469502Y-101424180D01*
X114505812Y-101304482D01*
X114518072Y-101180000D01*
X114518072Y-99480000D01*
X114505812Y-99355518D01*
X114469502Y-99235820D01*
X114410537Y-99125506D01*
X114331185Y-99028815D01*
X114234494Y-98949463D01*
X114124180Y-98890498D01*
X114043534Y-98866034D01*
X114127588Y-98790269D01*
X114301641Y-98556920D01*
X114426825Y-98294099D01*
X114471476Y-98146890D01*
X114350155Y-97917000D01*
X113157000Y-97917000D01*
X113157000Y-97937000D01*
X112903000Y-97937000D01*
X112903000Y-97917000D01*
X111709845Y-97917000D01*
X111588524Y-98146890D01*
X111633175Y-98294099D01*
X111758359Y-98556920D01*
X111932412Y-98790269D01*
X112016466Y-98866034D01*
X111935820Y-98890498D01*
X111825506Y-98949463D01*
X111728815Y-99028815D01*
X111649463Y-99125506D01*
X111590498Y-99235820D01*
X111554188Y-99355518D01*
X111541928Y-99480000D01*
X111175000Y-99480000D01*
X111175000Y-92563740D01*
X111545000Y-92563740D01*
X111545000Y-92856260D01*
X111602068Y-93143158D01*
X111714010Y-93413411D01*
X111876525Y-93656632D01*
X112083368Y-93863475D01*
X112257760Y-93980000D01*
X112083368Y-94096525D01*
X111876525Y-94303368D01*
X111714010Y-94546589D01*
X111602068Y-94816842D01*
X111545000Y-95103740D01*
X111545000Y-95396260D01*
X111602068Y-95683158D01*
X111714010Y-95953411D01*
X111876525Y-96196632D01*
X112083368Y-96403475D01*
X112265534Y-96525195D01*
X112148645Y-96594822D01*
X111932412Y-96789731D01*
X111758359Y-97023080D01*
X111633175Y-97285901D01*
X111588524Y-97433110D01*
X111709845Y-97663000D01*
X112903000Y-97663000D01*
X112903000Y-97643000D01*
X113157000Y-97643000D01*
X113157000Y-97663000D01*
X114350155Y-97663000D01*
X114471476Y-97433110D01*
X114426825Y-97285901D01*
X114301641Y-97023080D01*
X114127588Y-96789731D01*
X113911355Y-96594822D01*
X113794466Y-96525195D01*
X113976632Y-96403475D01*
X114183475Y-96196632D01*
X114345990Y-95953411D01*
X114457932Y-95683158D01*
X114515000Y-95396260D01*
X114515000Y-95103740D01*
X114457932Y-94816842D01*
X114345990Y-94546589D01*
X114183475Y-94303368D01*
X113976632Y-94096525D01*
X113802240Y-93980000D01*
X113976632Y-93863475D01*
X114183475Y-93656632D01*
X114345990Y-93413411D01*
X114457932Y-93143158D01*
X114515000Y-92856260D01*
X114515000Y-92563740D01*
X114457932Y-92276842D01*
X114345990Y-92006589D01*
X114183475Y-91763368D01*
X113976632Y-91556525D01*
X113733411Y-91394010D01*
X113463158Y-91282068D01*
X113176260Y-91225000D01*
X112883740Y-91225000D01*
X112596842Y-91282068D01*
X112326589Y-91394010D01*
X112083368Y-91556525D01*
X111876525Y-91763368D01*
X111714010Y-92006589D01*
X111602068Y-92276842D01*
X111545000Y-92563740D01*
X111175000Y-92563740D01*
X111175000Y-81995000D01*
X119406927Y-81995000D01*
X119419187Y-82119482D01*
X119455497Y-82239180D01*
X119514462Y-82349494D01*
X119593814Y-82446185D01*
X119690505Y-82525537D01*
X119800819Y-82584502D01*
X119873379Y-82606513D01*
X119741524Y-82738368D01*
X119579009Y-82981589D01*
X119467067Y-83251842D01*
X119409999Y-83538740D01*
X119409999Y-83831260D01*
X119467067Y-84118158D01*
X119579009Y-84388411D01*
X119741524Y-84631632D01*
X119948367Y-84838475D01*
X120122759Y-84955000D01*
X119948367Y-85071525D01*
X119741524Y-85278368D01*
X119579009Y-85521589D01*
X119467067Y-85791842D01*
X119409999Y-86078740D01*
X119409999Y-86371260D01*
X119467067Y-86658158D01*
X119579009Y-86928411D01*
X119741524Y-87171632D01*
X119948367Y-87378475D01*
X120122759Y-87495000D01*
X119948367Y-87611525D01*
X119741524Y-87818368D01*
X119579009Y-88061589D01*
X119467067Y-88331842D01*
X119409999Y-88618740D01*
X119409999Y-88911260D01*
X119467067Y-89198158D01*
X119579009Y-89468411D01*
X119741524Y-89711632D01*
X119948367Y-89918475D01*
X120122759Y-90035000D01*
X119948367Y-90151525D01*
X119741524Y-90358368D01*
X119579009Y-90601589D01*
X119467067Y-90871842D01*
X119409999Y-91158740D01*
X119409999Y-91451260D01*
X119467067Y-91738158D01*
X119579009Y-92008411D01*
X119741524Y-92251632D01*
X119873379Y-92383487D01*
X119800819Y-92405498D01*
X119690505Y-92464463D01*
X119593814Y-92543815D01*
X119514462Y-92640506D01*
X119455497Y-92750820D01*
X119419187Y-92870518D01*
X119406927Y-92995000D01*
X119406927Y-94695000D01*
X119419187Y-94819482D01*
X119455497Y-94939180D01*
X119514462Y-95049494D01*
X119593814Y-95146185D01*
X119690505Y-95225537D01*
X119800819Y-95284502D01*
X119873379Y-95306513D01*
X119741524Y-95438368D01*
X119579009Y-95681589D01*
X119467067Y-95951842D01*
X119409999Y-96238740D01*
X119409999Y-96531260D01*
X119467067Y-96818158D01*
X119579009Y-97088411D01*
X119741524Y-97331632D01*
X119948367Y-97538475D01*
X120122759Y-97655000D01*
X119948367Y-97771525D01*
X119741524Y-97978368D01*
X119579009Y-98221589D01*
X119467067Y-98491842D01*
X119409999Y-98778740D01*
X119409999Y-99071260D01*
X119467067Y-99358158D01*
X119579009Y-99628411D01*
X119741524Y-99871632D01*
X119948367Y-100078475D01*
X120122759Y-100195000D01*
X119948367Y-100311525D01*
X119741524Y-100518368D01*
X119579009Y-100761589D01*
X119467067Y-101031842D01*
X119409999Y-101318740D01*
X119409999Y-101611260D01*
X119467067Y-101898158D01*
X119579009Y-102168411D01*
X119741524Y-102411632D01*
X119948367Y-102618475D01*
X120122759Y-102735000D01*
X119948367Y-102851525D01*
X119741524Y-103058368D01*
X119579009Y-103301589D01*
X119467067Y-103571842D01*
X119409999Y-103858740D01*
X119409999Y-104151260D01*
X119467067Y-104438158D01*
X119579009Y-104708411D01*
X119741524Y-104951632D01*
X119873379Y-105083487D01*
X119800819Y-105105498D01*
X119690505Y-105164463D01*
X119593814Y-105243815D01*
X119514462Y-105340506D01*
X119455497Y-105450820D01*
X119419187Y-105570518D01*
X119406927Y-105695000D01*
X119409999Y-106259250D01*
X119568749Y-106418000D01*
X120767999Y-106418000D01*
X120767999Y-106398000D01*
X121021999Y-106398000D01*
X121021999Y-106418000D01*
X122221249Y-106418000D01*
X122379999Y-106259250D01*
X122383071Y-105695000D01*
X122370811Y-105570518D01*
X122334501Y-105450820D01*
X122275536Y-105340506D01*
X122196184Y-105243815D01*
X122099493Y-105164463D01*
X121989179Y-105105498D01*
X121916619Y-105083487D01*
X122048474Y-104951632D01*
X122210989Y-104708411D01*
X122322931Y-104438158D01*
X122379999Y-104151260D01*
X122379999Y-103858740D01*
X122322931Y-103571842D01*
X122210989Y-103301589D01*
X122048474Y-103058368D01*
X121841631Y-102851525D01*
X121667239Y-102735000D01*
X121841631Y-102618475D01*
X122048474Y-102411632D01*
X122210989Y-102168411D01*
X122322931Y-101898158D01*
X122379999Y-101611260D01*
X122379999Y-101318740D01*
X122322931Y-101031842D01*
X122210989Y-100761589D01*
X122048474Y-100518368D01*
X121841631Y-100311525D01*
X121667239Y-100195000D01*
X121841631Y-100078475D01*
X122048474Y-99871632D01*
X122210989Y-99628411D01*
X122322931Y-99358158D01*
X122379999Y-99071260D01*
X122379999Y-98778740D01*
X122322931Y-98491842D01*
X122210989Y-98221589D01*
X122048474Y-97978368D01*
X121841631Y-97771525D01*
X121667239Y-97655000D01*
X121841631Y-97538475D01*
X122048474Y-97331632D01*
X122210989Y-97088411D01*
X122322931Y-96818158D01*
X122379999Y-96531260D01*
X122379999Y-96238740D01*
X122322931Y-95951842D01*
X122210989Y-95681589D01*
X122048474Y-95438368D01*
X121916619Y-95306513D01*
X121989179Y-95284502D01*
X122099493Y-95225537D01*
X122196184Y-95146185D01*
X122275536Y-95049494D01*
X122334501Y-94939180D01*
X122370811Y-94819482D01*
X122383071Y-94695000D01*
X122383071Y-92995000D01*
X122370811Y-92870518D01*
X122334501Y-92750820D01*
X122275536Y-92640506D01*
X122196184Y-92543815D01*
X122099493Y-92464463D01*
X121989179Y-92405498D01*
X121916619Y-92383487D01*
X122048474Y-92251632D01*
X122210989Y-92008411D01*
X122322931Y-91738158D01*
X122379999Y-91451260D01*
X122379999Y-91158740D01*
X122322931Y-90871842D01*
X122210989Y-90601589D01*
X122048474Y-90358368D01*
X121841631Y-90151525D01*
X121667239Y-90035000D01*
X121841631Y-89918475D01*
X122048474Y-89711632D01*
X122210989Y-89468411D01*
X122322931Y-89198158D01*
X122379999Y-88911260D01*
X122379999Y-88618740D01*
X122322931Y-88331842D01*
X122210989Y-88061589D01*
X122048474Y-87818368D01*
X121841631Y-87611525D01*
X121667239Y-87495000D01*
X121841631Y-87378475D01*
X122048474Y-87171632D01*
X122210989Y-86928411D01*
X122322931Y-86658158D01*
X122379999Y-86371260D01*
X122379999Y-86078740D01*
X122322931Y-85791842D01*
X122210989Y-85521589D01*
X122048474Y-85278368D01*
X121841631Y-85071525D01*
X121667239Y-84955000D01*
X121841631Y-84838475D01*
X122048474Y-84631632D01*
X122210989Y-84388411D01*
X122322931Y-84118158D01*
X122379999Y-83831260D01*
X122379999Y-83538740D01*
X122322931Y-83251842D01*
X122210989Y-82981589D01*
X122048474Y-82738368D01*
X121916619Y-82606513D01*
X121989179Y-82584502D01*
X122099493Y-82525537D01*
X122196184Y-82446185D01*
X122275536Y-82349494D01*
X122334501Y-82239180D01*
X122370811Y-82119482D01*
X122383071Y-81995000D01*
X122379999Y-81430750D01*
X122221249Y-81272000D01*
X121021999Y-81272000D01*
X121021999Y-81292000D01*
X120767999Y-81292000D01*
X120767999Y-81272000D01*
X119568749Y-81272000D01*
X119409999Y-81430750D01*
X119406927Y-81995000D01*
X111175000Y-81995000D01*
X111175000Y-80965000D01*
X113581928Y-80965000D01*
X113594188Y-81089482D01*
X113630498Y-81209180D01*
X113689463Y-81319494D01*
X113768815Y-81416185D01*
X113865506Y-81495537D01*
X113975820Y-81554502D01*
X114095518Y-81590812D01*
X114220000Y-81603072D01*
X115284250Y-81600000D01*
X115443000Y-81441250D01*
X115443000Y-80429500D01*
X115697000Y-80429500D01*
X115697000Y-81441250D01*
X115855750Y-81600000D01*
X116920000Y-81603072D01*
X117044482Y-81590812D01*
X117164180Y-81554502D01*
X117274494Y-81495537D01*
X117371185Y-81416185D01*
X117450537Y-81319494D01*
X117509502Y-81209180D01*
X117545812Y-81089482D01*
X117558072Y-80965000D01*
X117555000Y-80588250D01*
X117396250Y-80429500D01*
X115697000Y-80429500D01*
X115443000Y-80429500D01*
X113743750Y-80429500D01*
X113585000Y-80588250D01*
X113581928Y-80965000D01*
X111175000Y-80965000D01*
X111175000Y-79640000D01*
X113581928Y-79640000D01*
X113585000Y-80016750D01*
X113743750Y-80175500D01*
X115443000Y-80175500D01*
X115443000Y-79163750D01*
X115697000Y-79163750D01*
X115697000Y-80175500D01*
X117396250Y-80175500D01*
X117555000Y-80016750D01*
X117558072Y-79640000D01*
X117545812Y-79515518D01*
X117509502Y-79395820D01*
X117450537Y-79285506D01*
X117371185Y-79188815D01*
X117274494Y-79109463D01*
X117164180Y-79050498D01*
X117044482Y-79014188D01*
X116920000Y-79001928D01*
X115855750Y-79005000D01*
X115697000Y-79163750D01*
X115443000Y-79163750D01*
X115284250Y-79005000D01*
X114220000Y-79001928D01*
X114095518Y-79014188D01*
X113975820Y-79050498D01*
X113865506Y-79109463D01*
X113768815Y-79188815D01*
X113689463Y-79285506D01*
X113630498Y-79395820D01*
X113594188Y-79515518D01*
X113581928Y-79640000D01*
X111175000Y-79640000D01*
X111175000Y-76764999D01*
X113581928Y-76764999D01*
X113581928Y-77590001D01*
X113598992Y-77763255D01*
X113649528Y-77929851D01*
X113731595Y-78083387D01*
X113842038Y-78217962D01*
X113976613Y-78328405D01*
X114130149Y-78410472D01*
X114296745Y-78461008D01*
X114469999Y-78478072D01*
X116670001Y-78478072D01*
X116843255Y-78461008D01*
X117009851Y-78410472D01*
X117163387Y-78328405D01*
X117297962Y-78217962D01*
X117408405Y-78083387D01*
X117486384Y-77937500D01*
X119152698Y-77937500D01*
X119453790Y-78238592D01*
X119409999Y-78458740D01*
X119409999Y-78751260D01*
X119467067Y-79038158D01*
X119579009Y-79308411D01*
X119741524Y-79551632D01*
X119873379Y-79683487D01*
X119800819Y-79705498D01*
X119690505Y-79764463D01*
X119593814Y-79843815D01*
X119514462Y-79940506D01*
X119455497Y-80050820D01*
X119419187Y-80170518D01*
X119406927Y-80295000D01*
X119409999Y-80859250D01*
X119568749Y-81018000D01*
X120767999Y-81018000D01*
X120767999Y-80998000D01*
X121021999Y-80998000D01*
X121021999Y-81018000D01*
X122221249Y-81018000D01*
X122379999Y-80859250D01*
X122383071Y-80295000D01*
X122370811Y-80170518D01*
X122334501Y-80050820D01*
X122275536Y-79940506D01*
X122196184Y-79843815D01*
X122099493Y-79764463D01*
X121989179Y-79705498D01*
X121916619Y-79683487D01*
X122048474Y-79551632D01*
X122210989Y-79308411D01*
X122302041Y-79088589D01*
X125974999Y-79088589D01*
X125974999Y-79361411D01*
X126028224Y-79628989D01*
X126132628Y-79881043D01*
X126284200Y-80107886D01*
X126477113Y-80300799D01*
X126703956Y-80452371D01*
X126956010Y-80556775D01*
X127223588Y-80610000D01*
X127496410Y-80610000D01*
X127763988Y-80556775D01*
X128016042Y-80452371D01*
X128242885Y-80300799D01*
X128435798Y-80107886D01*
X128587370Y-79881043D01*
X128691774Y-79628989D01*
X128744999Y-79361411D01*
X128744999Y-79088589D01*
X130824999Y-79088589D01*
X130824999Y-79361411D01*
X130878224Y-79628989D01*
X130982628Y-79881043D01*
X131134200Y-80107886D01*
X131327113Y-80300799D01*
X131553956Y-80452371D01*
X131806010Y-80556775D01*
X132073588Y-80610000D01*
X132346410Y-80610000D01*
X132613988Y-80556775D01*
X132866042Y-80452371D01*
X133092885Y-80300799D01*
X133285798Y-80107886D01*
X133437370Y-79881043D01*
X133541774Y-79628989D01*
X133594999Y-79361411D01*
X133594999Y-79088589D01*
X133541774Y-78821011D01*
X133437370Y-78568957D01*
X133285798Y-78342114D01*
X133092885Y-78149201D01*
X132866042Y-77997629D01*
X132613988Y-77893225D01*
X132346410Y-77840000D01*
X132073588Y-77840000D01*
X131806010Y-77893225D01*
X131553956Y-77997629D01*
X131327113Y-78149201D01*
X131134200Y-78342114D01*
X130982628Y-78568957D01*
X130878224Y-78821011D01*
X130824999Y-79088589D01*
X128744999Y-79088589D01*
X128691774Y-78821011D01*
X128587370Y-78568957D01*
X128435798Y-78342114D01*
X128242885Y-78149201D01*
X128016042Y-77997629D01*
X127763988Y-77893225D01*
X127496410Y-77840000D01*
X127223588Y-77840000D01*
X126956010Y-77893225D01*
X126703956Y-77997629D01*
X126477113Y-78149201D01*
X126284200Y-78342114D01*
X126132628Y-78568957D01*
X126028224Y-78821011D01*
X125974999Y-79088589D01*
X122302041Y-79088589D01*
X122322931Y-79038158D01*
X122379999Y-78751260D01*
X122379999Y-78458740D01*
X122322931Y-78171842D01*
X122210989Y-77901589D01*
X122048474Y-77658368D01*
X121841631Y-77451525D01*
X121667239Y-77335000D01*
X121841631Y-77218475D01*
X122048474Y-77011632D01*
X122210989Y-76768411D01*
X122322931Y-76498158D01*
X122379999Y-76211260D01*
X122379999Y-76043816D01*
X125524999Y-76043816D01*
X125524999Y-76346184D01*
X125583988Y-76642743D01*
X125699700Y-76922095D01*
X125867687Y-77173505D01*
X126081494Y-77387312D01*
X126332904Y-77555299D01*
X126612256Y-77671011D01*
X126908815Y-77730000D01*
X127211183Y-77730000D01*
X127507742Y-77671011D01*
X127787094Y-77555299D01*
X128038504Y-77387312D01*
X128252311Y-77173505D01*
X128420298Y-76922095D01*
X128536010Y-76642743D01*
X128594999Y-76346184D01*
X128594999Y-76043816D01*
X130974999Y-76043816D01*
X130974999Y-76346184D01*
X131033988Y-76642743D01*
X131149700Y-76922095D01*
X131317687Y-77173505D01*
X131531494Y-77387312D01*
X131782904Y-77555299D01*
X132062256Y-77671011D01*
X132358815Y-77730000D01*
X132661183Y-77730000D01*
X132957742Y-77671011D01*
X133237094Y-77555299D01*
X133488504Y-77387312D01*
X133702311Y-77173505D01*
X133870298Y-76922095D01*
X133986010Y-76642743D01*
X134044999Y-76346184D01*
X134044999Y-76043816D01*
X133986010Y-75747257D01*
X133870298Y-75467905D01*
X133702311Y-75216495D01*
X133488504Y-75002688D01*
X133237094Y-74834701D01*
X132957742Y-74718989D01*
X132661183Y-74660000D01*
X132358815Y-74660000D01*
X132062256Y-74718989D01*
X131782904Y-74834701D01*
X131531494Y-75002688D01*
X131317687Y-75216495D01*
X131149700Y-75467905D01*
X131033988Y-75747257D01*
X130974999Y-76043816D01*
X128594999Y-76043816D01*
X128536010Y-75747257D01*
X128420298Y-75467905D01*
X128252311Y-75216495D01*
X128038504Y-75002688D01*
X127787094Y-74834701D01*
X127507742Y-74718989D01*
X127211183Y-74660000D01*
X126908815Y-74660000D01*
X126612256Y-74718989D01*
X126332904Y-74834701D01*
X126081494Y-75002688D01*
X125867687Y-75216495D01*
X125699700Y-75467905D01*
X125583988Y-75747257D01*
X125524999Y-76043816D01*
X122379999Y-76043816D01*
X122379999Y-75918740D01*
X122322931Y-75631842D01*
X122210989Y-75361589D01*
X122048474Y-75118368D01*
X121841631Y-74911525D01*
X121598410Y-74749010D01*
X121328157Y-74637068D01*
X121041259Y-74580000D01*
X120748739Y-74580000D01*
X120461841Y-74637068D01*
X120191588Y-74749010D01*
X119948367Y-74911525D01*
X119741524Y-75118368D01*
X119579009Y-75361589D01*
X119467067Y-75631842D01*
X119409999Y-75918740D01*
X119409999Y-76211260D01*
X119450622Y-76415486D01*
X119430177Y-76417500D01*
X117486384Y-76417500D01*
X117408405Y-76271613D01*
X117297962Y-76137038D01*
X117163387Y-76026595D01*
X117009851Y-75944528D01*
X116843255Y-75893992D01*
X116670001Y-75876928D01*
X114469999Y-75876928D01*
X114296745Y-75893992D01*
X114130149Y-75944528D01*
X113976613Y-76026595D01*
X113842038Y-76137038D01*
X113731595Y-76271613D01*
X113649528Y-76425149D01*
X113598992Y-76591745D01*
X113581928Y-76764999D01*
X111175000Y-76764999D01*
X111175000Y-71130333D01*
X116387992Y-71130333D01*
X116483756Y-71394734D01*
X116773371Y-71535624D01*
X117084908Y-71617304D01*
X117406395Y-71636638D01*
X117725475Y-71592881D01*
X118029888Y-71487715D01*
X118203844Y-71394734D01*
X118299608Y-71130333D01*
X117343800Y-70174525D01*
X116387992Y-71130333D01*
X111175000Y-71130333D01*
X111175000Y-70057515D01*
X115702082Y-70057515D01*
X115745839Y-70376595D01*
X115851005Y-70681008D01*
X115943986Y-70854964D01*
X116208387Y-70950728D01*
X117164195Y-69994920D01*
X117523405Y-69994920D01*
X118479213Y-70950728D01*
X118743614Y-70854964D01*
X118884504Y-70565349D01*
X118966184Y-70253812D01*
X118985518Y-69932325D01*
X118941761Y-69613245D01*
X118836595Y-69308832D01*
X118743614Y-69134876D01*
X118479213Y-69039112D01*
X117523405Y-69994920D01*
X117164195Y-69994920D01*
X116208387Y-69039112D01*
X115943986Y-69134876D01*
X115803096Y-69424491D01*
X115721416Y-69736028D01*
X115702082Y-70057515D01*
X111175000Y-70057515D01*
X111175000Y-68859507D01*
X116387992Y-68859507D01*
X117343800Y-69815315D01*
X118299608Y-68859507D01*
X118203844Y-68595106D01*
X117914229Y-68454216D01*
X117602692Y-68372536D01*
X117281205Y-68353202D01*
X116962125Y-68396959D01*
X116657712Y-68502125D01*
X116483756Y-68595106D01*
X116387992Y-68859507D01*
X111175000Y-68859507D01*
X111175000Y-64630333D01*
X116387992Y-64630333D01*
X116483756Y-64894734D01*
X116773371Y-65035624D01*
X117084908Y-65117304D01*
X117406395Y-65136638D01*
X117725475Y-65092881D01*
X118029888Y-64987715D01*
X118203844Y-64894734D01*
X118299608Y-64630333D01*
X117343800Y-63674525D01*
X116387992Y-64630333D01*
X111175000Y-64630333D01*
X111175000Y-63557515D01*
X115702082Y-63557515D01*
X115745839Y-63876595D01*
X115851005Y-64181008D01*
X115943986Y-64354964D01*
X116208387Y-64450728D01*
X117164195Y-63494920D01*
X117523405Y-63494920D01*
X118479213Y-64450728D01*
X118743614Y-64354964D01*
X118884504Y-64065349D01*
X118966184Y-63753812D01*
X118985518Y-63432325D01*
X118972019Y-63333887D01*
X120208800Y-63333887D01*
X120208800Y-63655953D01*
X120271632Y-63971832D01*
X120394882Y-64269383D01*
X120573813Y-64537172D01*
X120801548Y-64764907D01*
X121069337Y-64943838D01*
X121083800Y-64949829D01*
X121083801Y-68540011D01*
X121069337Y-68546002D01*
X120801548Y-68724933D01*
X120573813Y-68952668D01*
X120394882Y-69220457D01*
X120271632Y-69518008D01*
X120208800Y-69833887D01*
X120208800Y-70155953D01*
X120271632Y-70471832D01*
X120394882Y-70769383D01*
X120573813Y-71037172D01*
X120801548Y-71264907D01*
X121069337Y-71443838D01*
X121366888Y-71567088D01*
X121682767Y-71629920D01*
X122004833Y-71629920D01*
X122320712Y-71567088D01*
X122618263Y-71443838D01*
X122886052Y-71264907D01*
X123113787Y-71037172D01*
X123292718Y-70769383D01*
X123415968Y-70471832D01*
X123478800Y-70155953D01*
X123478800Y-69833887D01*
X123415968Y-69518008D01*
X123292718Y-69220457D01*
X123113787Y-68952668D01*
X122886052Y-68724933D01*
X122618263Y-68546002D01*
X122603800Y-68540011D01*
X122603800Y-66669609D01*
X126825717Y-66669609D01*
X127011793Y-67010766D01*
X127429129Y-67226513D01*
X127880535Y-67356696D01*
X128348666Y-67396313D01*
X128815531Y-67343842D01*
X128992470Y-67287500D01*
X132631928Y-67287500D01*
X132644188Y-67411982D01*
X132680498Y-67531680D01*
X132739463Y-67641994D01*
X132818815Y-67738685D01*
X132915506Y-67818037D01*
X133025820Y-67877002D01*
X133145518Y-67913312D01*
X133270000Y-67925572D01*
X134334250Y-67922500D01*
X134493000Y-67763750D01*
X134493000Y-66752000D01*
X134747000Y-66752000D01*
X134747000Y-67763750D01*
X134905750Y-67922500D01*
X135970000Y-67925572D01*
X136094482Y-67913312D01*
X136214180Y-67877002D01*
X136324494Y-67818037D01*
X136421185Y-67738685D01*
X136500537Y-67641994D01*
X136559502Y-67531680D01*
X136595812Y-67411982D01*
X136608072Y-67287500D01*
X136605000Y-66910750D01*
X136446250Y-66752000D01*
X134747000Y-66752000D01*
X134493000Y-66752000D01*
X132793750Y-66752000D01*
X132635000Y-66910750D01*
X132631928Y-67287500D01*
X128992470Y-67287500D01*
X129263188Y-67201297D01*
X129619647Y-67010766D01*
X129805723Y-66669609D01*
X128315720Y-65179605D01*
X126825717Y-66669609D01*
X122603800Y-66669609D01*
X122603800Y-65032946D01*
X125919407Y-65032946D01*
X125971878Y-65499811D01*
X126114423Y-65947468D01*
X126304954Y-66303927D01*
X126646111Y-66490003D01*
X128136115Y-65000000D01*
X128495325Y-65000000D01*
X129985329Y-66490003D01*
X130326486Y-66303927D01*
X130502990Y-65962500D01*
X132631928Y-65962500D01*
X132635000Y-66339250D01*
X132793750Y-66498000D01*
X134493000Y-66498000D01*
X134493000Y-65486250D01*
X134747000Y-65486250D01*
X134747000Y-66498000D01*
X136446250Y-66498000D01*
X136605000Y-66339250D01*
X136606897Y-66106553D01*
X138159009Y-66106553D01*
X138201603Y-66405907D01*
X138301778Y-66691199D01*
X138381739Y-66840792D01*
X138635920Y-66924475D01*
X139520395Y-66040000D01*
X139879605Y-66040000D01*
X140764080Y-66924475D01*
X141018261Y-66840792D01*
X141149158Y-66568225D01*
X141224365Y-66275358D01*
X141240991Y-65973447D01*
X141198397Y-65674093D01*
X141098222Y-65388801D01*
X141018261Y-65239208D01*
X140764080Y-65155525D01*
X139879605Y-66040000D01*
X139520395Y-66040000D01*
X138635920Y-65155525D01*
X138381739Y-65239208D01*
X138250842Y-65511775D01*
X138175635Y-65804642D01*
X138159009Y-66106553D01*
X136606897Y-66106553D01*
X136608072Y-65962500D01*
X136595812Y-65838018D01*
X136559502Y-65718320D01*
X136500537Y-65608006D01*
X136421185Y-65511315D01*
X136324494Y-65431963D01*
X136214180Y-65372998D01*
X136094482Y-65336688D01*
X135970000Y-65324428D01*
X134905750Y-65327500D01*
X134747000Y-65486250D01*
X134493000Y-65486250D01*
X134334250Y-65327500D01*
X133270000Y-65324428D01*
X133145518Y-65336688D01*
X133025820Y-65372998D01*
X132915506Y-65431963D01*
X132818815Y-65511315D01*
X132739463Y-65608006D01*
X132680498Y-65718320D01*
X132644188Y-65838018D01*
X132631928Y-65962500D01*
X130502990Y-65962500D01*
X130542233Y-65886591D01*
X130672416Y-65435185D01*
X130712033Y-64967054D01*
X130659562Y-64500189D01*
X130517017Y-64052532D01*
X130326486Y-63696073D01*
X129985329Y-63509997D01*
X128495325Y-65000000D01*
X128136115Y-65000000D01*
X126646111Y-63509997D01*
X126304954Y-63696073D01*
X126089207Y-64113409D01*
X125959024Y-64564815D01*
X125919407Y-65032946D01*
X122603800Y-65032946D01*
X122603800Y-64949829D01*
X122618263Y-64943838D01*
X122886052Y-64764907D01*
X123113787Y-64537172D01*
X123292718Y-64269383D01*
X123415968Y-63971832D01*
X123478800Y-63655953D01*
X123478800Y-63333887D01*
X123478105Y-63330391D01*
X126825717Y-63330391D01*
X128315720Y-64820395D01*
X129805723Y-63330391D01*
X129673244Y-63087499D01*
X132631928Y-63087499D01*
X132631928Y-63912501D01*
X132648992Y-64085755D01*
X132699528Y-64252351D01*
X132781595Y-64405887D01*
X132892038Y-64540462D01*
X133026613Y-64650905D01*
X133180149Y-64732972D01*
X133346745Y-64783508D01*
X133519999Y-64800572D01*
X135720001Y-64800572D01*
X135893255Y-64783508D01*
X136059851Y-64732972D01*
X136213387Y-64650905D01*
X136347962Y-64540462D01*
X136458405Y-64405887D01*
X136536384Y-64260000D01*
X138361687Y-64260000D01*
X138507688Y-64478505D01*
X138721495Y-64692312D01*
X138875105Y-64794951D01*
X138815525Y-64975920D01*
X139700000Y-65860395D01*
X140584475Y-64975920D01*
X140524895Y-64794951D01*
X140678505Y-64692312D01*
X140892312Y-64478505D01*
X141060299Y-64227095D01*
X141176011Y-63947743D01*
X141235000Y-63651184D01*
X141235000Y-63348816D01*
X141176011Y-63052257D01*
X141060299Y-62772905D01*
X140892312Y-62521495D01*
X140678505Y-62307688D01*
X140427095Y-62139701D01*
X140147743Y-62023989D01*
X139851184Y-61965000D01*
X139548816Y-61965000D01*
X139252257Y-62023989D01*
X138972905Y-62139701D01*
X138721495Y-62307688D01*
X138507688Y-62521495D01*
X138361687Y-62740000D01*
X136536384Y-62740000D01*
X136458405Y-62594113D01*
X136347962Y-62459538D01*
X136213387Y-62349095D01*
X136059851Y-62267028D01*
X135893255Y-62216492D01*
X135720001Y-62199428D01*
X133519999Y-62199428D01*
X133346745Y-62216492D01*
X133180149Y-62267028D01*
X133026613Y-62349095D01*
X132892038Y-62459538D01*
X132781595Y-62594113D01*
X132699528Y-62747649D01*
X132648992Y-62914245D01*
X132631928Y-63087499D01*
X129673244Y-63087499D01*
X129619647Y-62989234D01*
X129202311Y-62773487D01*
X128750905Y-62643304D01*
X128282774Y-62603687D01*
X127815909Y-62656158D01*
X127368252Y-62798703D01*
X127011793Y-62989234D01*
X126825717Y-63330391D01*
X123478105Y-63330391D01*
X123415968Y-63018008D01*
X123292718Y-62720457D01*
X123113787Y-62452668D01*
X122886052Y-62224933D01*
X122618263Y-62046002D01*
X122320712Y-61922752D01*
X122004833Y-61859920D01*
X121682767Y-61859920D01*
X121366888Y-61922752D01*
X121069337Y-62046002D01*
X120801548Y-62224933D01*
X120573813Y-62452668D01*
X120394882Y-62720457D01*
X120271632Y-63018008D01*
X120208800Y-63333887D01*
X118972019Y-63333887D01*
X118941761Y-63113245D01*
X118836595Y-62808832D01*
X118743614Y-62634876D01*
X118479213Y-62539112D01*
X117523405Y-63494920D01*
X117164195Y-63494920D01*
X116208387Y-62539112D01*
X115943986Y-62634876D01*
X115803096Y-62924491D01*
X115721416Y-63236028D01*
X115702082Y-63557515D01*
X111175000Y-63557515D01*
X111175000Y-63533504D01*
X111213551Y-63140332D01*
X111318004Y-62794366D01*
X111487667Y-62475276D01*
X111582085Y-62359507D01*
X116387992Y-62359507D01*
X117343800Y-63315315D01*
X118299608Y-62359507D01*
X118203844Y-62095106D01*
X117914229Y-61954216D01*
X117602692Y-61872536D01*
X117281205Y-61853202D01*
X116962125Y-61896959D01*
X116657712Y-62002125D01*
X116483756Y-62095106D01*
X116387992Y-62359507D01*
X111582085Y-62359507D01*
X111716076Y-62195219D01*
X111994534Y-61964859D01*
X112312430Y-61792973D01*
X112657658Y-61686107D01*
X113048753Y-61645000D01*
X142206496Y-61645000D01*
X142599668Y-61683551D01*
%TA.AperFunction,Conductor*%
D22*
G36*
X142599668Y-61683551D02*
G01*
X142945634Y-61788004D01*
X143264724Y-61957667D01*
X143544781Y-62186076D01*
X143775141Y-62464534D01*
X143947027Y-62782430D01*
X144053893Y-63127658D01*
X144095000Y-63518753D01*
X144095001Y-140936485D01*
X144056449Y-141329667D01*
X143951996Y-141675635D01*
X143782333Y-141994724D01*
X143553924Y-142274781D01*
X143275466Y-142505141D01*
X142957570Y-142677027D01*
X142612340Y-142783894D01*
X142221238Y-142825000D01*
X113063505Y-142825000D01*
X112670333Y-142786449D01*
X112324365Y-142681996D01*
X112005276Y-142512333D01*
X111725219Y-142283924D01*
X111494859Y-142005466D01*
X111322973Y-141687570D01*
X111216106Y-141342340D01*
X111175000Y-140951238D01*
X111175000Y-138222499D01*
X113642106Y-138222499D01*
X113858228Y-138589258D01*
X114318105Y-138829938D01*
X114816098Y-138976275D01*
X115333071Y-139022648D01*
X115849159Y-138967273D01*
X116344526Y-138812279D01*
X116761772Y-138589258D01*
X116977894Y-138222499D01*
X115310000Y-136554605D01*
X113642106Y-138222499D01*
X111175000Y-138222499D01*
X111175000Y-136398071D01*
X112662352Y-136398071D01*
X112717727Y-136914159D01*
X112872721Y-137409526D01*
X113095742Y-137826772D01*
X113462501Y-138042894D01*
X115130395Y-136375000D01*
X115489605Y-136375000D01*
X117157499Y-138042894D01*
X117524258Y-137826772D01*
X117614854Y-137653665D01*
X120835000Y-137653665D01*
X120835000Y-137936335D01*
X120890147Y-138213574D01*
X120998320Y-138474727D01*
X121155363Y-138709759D01*
X121355241Y-138909637D01*
X121590273Y-139066680D01*
X121851426Y-139174853D01*
X122128665Y-139230000D01*
X122411335Y-139230000D01*
X122688574Y-139174853D01*
X122949727Y-139066680D01*
X123184759Y-138909637D01*
X123384637Y-138709759D01*
X123541680Y-138474727D01*
X123649853Y-138213574D01*
X123655000Y-138187699D01*
X123660147Y-138213574D01*
X123768320Y-138474727D01*
X123925363Y-138709759D01*
X124125241Y-138909637D01*
X124360273Y-139066680D01*
X124621426Y-139174853D01*
X124898665Y-139230000D01*
X125181335Y-139230000D01*
X125458574Y-139174853D01*
X125719727Y-139066680D01*
X125954759Y-138909637D01*
X126154637Y-138709759D01*
X126311680Y-138474727D01*
X126419853Y-138213574D01*
X126425000Y-138187699D01*
X126430147Y-138213574D01*
X126538320Y-138474727D01*
X126695363Y-138709759D01*
X126895241Y-138909637D01*
X127130273Y-139066680D01*
X127391426Y-139174853D01*
X127668665Y-139230000D01*
X127951335Y-139230000D01*
X128228574Y-139174853D01*
X128489727Y-139066680D01*
X128724759Y-138909637D01*
X128924637Y-138709759D01*
X129081680Y-138474727D01*
X129189853Y-138213574D01*
X129195000Y-138187699D01*
X129200147Y-138213574D01*
X129308320Y-138474727D01*
X129465363Y-138709759D01*
X129665241Y-138909637D01*
X129900273Y-139066680D01*
X130161426Y-139174853D01*
X130438665Y-139230000D01*
X130721335Y-139230000D01*
X130998574Y-139174853D01*
X131259727Y-139066680D01*
X131494759Y-138909637D01*
X131694637Y-138709759D01*
X131851680Y-138474727D01*
X131913539Y-138325387D01*
X131911928Y-138595000D01*
X131924188Y-138719482D01*
X131960498Y-138839180D01*
X132019463Y-138949494D01*
X132098815Y-139046185D01*
X132195506Y-139125537D01*
X132305820Y-139184502D01*
X132425518Y-139220812D01*
X132550000Y-139233072D01*
X133064250Y-139230000D01*
X133223000Y-139071250D01*
X133223000Y-137922000D01*
X133477000Y-137922000D01*
X133477000Y-139071250D01*
X133635750Y-139230000D01*
X134150000Y-139233072D01*
X134274482Y-139220812D01*
X134394180Y-139184502D01*
X134504494Y-139125537D01*
X134601185Y-139046185D01*
X134680537Y-138949494D01*
X134739502Y-138839180D01*
X134775812Y-138719482D01*
X134788072Y-138595000D01*
X134785847Y-138222499D01*
X138642106Y-138222499D01*
X138858228Y-138589258D01*
X139318105Y-138829938D01*
X139816098Y-138976275D01*
X140333071Y-139022648D01*
X140849159Y-138967273D01*
X141344526Y-138812279D01*
X141761772Y-138589258D01*
X141977894Y-138222499D01*
X140310000Y-136554605D01*
X138642106Y-138222499D01*
X134785847Y-138222499D01*
X134785000Y-138080750D01*
X134626250Y-137922000D01*
X133477000Y-137922000D01*
X133223000Y-137922000D01*
X133203000Y-137922000D01*
X133203000Y-137668000D01*
X133223000Y-137668000D01*
X133223000Y-136518750D01*
X133477000Y-136518750D01*
X133477000Y-137668000D01*
X134626250Y-137668000D01*
X134785000Y-137509250D01*
X134788072Y-136995000D01*
X134775812Y-136870518D01*
X134739502Y-136750820D01*
X134680537Y-136640506D01*
X134601185Y-136543815D01*
X134504494Y-136464463D01*
X134394180Y-136405498D01*
X134369697Y-136398071D01*
X137662352Y-136398071D01*
X137717727Y-136914159D01*
X137872721Y-137409526D01*
X138095742Y-137826772D01*
X138462501Y-138042894D01*
X140130395Y-136375000D01*
X140489605Y-136375000D01*
X142157499Y-138042894D01*
X142524258Y-137826772D01*
X142764938Y-137366895D01*
X142911275Y-136868902D01*
X142957648Y-136351929D01*
X142902273Y-135835841D01*
X142747279Y-135340474D01*
X142524258Y-134923228D01*
X142157499Y-134707106D01*
X140489605Y-136375000D01*
X140130395Y-136375000D01*
X138462501Y-134707106D01*
X138095742Y-134923228D01*
X137855062Y-135383105D01*
X137708725Y-135881098D01*
X137662352Y-136398071D01*
X134369697Y-136398071D01*
X134274482Y-136369188D01*
X134150000Y-136356928D01*
X133635750Y-136360000D01*
X133477000Y-136518750D01*
X133223000Y-136518750D01*
X133064250Y-136360000D01*
X132550000Y-136356928D01*
X132425518Y-136369188D01*
X132305820Y-136405498D01*
X132195506Y-136464463D01*
X132098815Y-136543815D01*
X132019463Y-136640506D01*
X131960498Y-136750820D01*
X131924188Y-136870518D01*
X131911928Y-136995000D01*
X131913539Y-137264613D01*
X131851680Y-137115273D01*
X131694637Y-136880241D01*
X131494759Y-136680363D01*
X131315000Y-136560252D01*
X131315000Y-136238993D01*
X131546426Y-136334853D01*
X131823665Y-136390000D01*
X132106335Y-136390000D01*
X132383574Y-136334853D01*
X132644727Y-136226680D01*
X132879759Y-136069637D01*
X133079637Y-135869759D01*
X133236680Y-135634727D01*
X133344853Y-135373574D01*
X133400000Y-135096335D01*
X133400000Y-134813665D01*
X133344853Y-134536426D01*
X133341157Y-134527501D01*
X138642106Y-134527501D01*
X140310000Y-136195395D01*
X141977894Y-134527501D01*
X141761772Y-134160742D01*
X141301895Y-133920062D01*
X140803902Y-133773725D01*
X140286929Y-133727352D01*
X139770841Y-133782727D01*
X139275474Y-133937721D01*
X138858228Y-134160742D01*
X138642106Y-134527501D01*
X133341157Y-134527501D01*
X133236680Y-134275273D01*
X133079637Y-134040241D01*
X132879759Y-133840363D01*
X132646764Y-133684681D01*
X134069193Y-132262252D01*
X134097238Y-132239236D01*
X134189087Y-132127318D01*
X134257337Y-131999631D01*
X134299365Y-131861083D01*
X134310000Y-131753103D01*
X134310000Y-131753096D01*
X134313555Y-131716999D01*
X134310000Y-131680902D01*
X134310000Y-130574446D01*
X135101375Y-129783072D01*
X135300000Y-129783072D01*
X135473254Y-129766008D01*
X135639850Y-129715472D01*
X135793386Y-129633405D01*
X135927962Y-129522962D01*
X136038405Y-129388386D01*
X136120472Y-129234850D01*
X136171008Y-129068254D01*
X136188072Y-128895000D01*
X136188072Y-128720964D01*
X136209974Y-128694276D01*
X136280546Y-128562247D01*
X136324003Y-128418986D01*
X136335000Y-128307333D01*
X136335000Y-126087322D01*
X136338676Y-126049999D01*
X136335000Y-126012677D01*
X136335000Y-126012667D01*
X136324003Y-125901014D01*
X136280546Y-125757753D01*
X136262904Y-125724747D01*
X136209974Y-125625723D01*
X136138799Y-125538997D01*
X136115001Y-125509999D01*
X136086004Y-125486202D01*
X132205000Y-121605199D01*
X132205000Y-119658072D01*
X132230000Y-119658072D01*
X132383745Y-119642929D01*
X132531582Y-119598084D01*
X132667829Y-119525258D01*
X132715000Y-119486546D01*
X132762171Y-119525258D01*
X132898418Y-119598084D01*
X133046255Y-119642929D01*
X133200000Y-119658072D01*
X133500000Y-119658072D01*
X133653745Y-119642929D01*
X133801582Y-119598084D01*
X133937829Y-119525258D01*
X134057251Y-119427251D01*
X134155258Y-119307829D01*
X134228084Y-119171582D01*
X134272929Y-119023745D01*
X134288072Y-118870000D01*
X134288072Y-118568896D01*
X134296613Y-118575905D01*
X134450149Y-118657972D01*
X134616745Y-118708508D01*
X134789999Y-118725572D01*
X135082491Y-118725572D01*
X134972795Y-118889744D01*
X134894774Y-119078102D01*
X134855000Y-119278061D01*
X134855000Y-119481939D01*
X134894774Y-119681898D01*
X134972795Y-119870256D01*
X135086063Y-120039774D01*
X135230226Y-120183937D01*
X135399744Y-120297205D01*
X135588102Y-120375226D01*
X135788061Y-120415000D01*
X135991939Y-120415000D01*
X136191898Y-120375226D01*
X136380256Y-120297205D01*
X136549774Y-120183937D01*
X136638711Y-120095000D01*
X137186927Y-120095000D01*
X137199187Y-120219482D01*
X137235497Y-120339180D01*
X137294462Y-120449494D01*
X137373814Y-120546185D01*
X137470505Y-120625537D01*
X137580819Y-120684502D01*
X137653379Y-120706513D01*
X137521524Y-120838368D01*
X137359009Y-121081589D01*
X137247067Y-121351842D01*
X137189999Y-121638740D01*
X137189999Y-121931260D01*
X137247067Y-122218158D01*
X137359009Y-122488411D01*
X137521524Y-122731632D01*
X137728367Y-122938475D01*
X137902759Y-123055000D01*
X137728367Y-123171525D01*
X137521524Y-123378368D01*
X137359009Y-123621589D01*
X137247067Y-123891842D01*
X137189999Y-124178740D01*
X137189999Y-124471260D01*
X137247067Y-124758158D01*
X137359009Y-125028411D01*
X137521524Y-125271632D01*
X137728367Y-125478475D01*
X137971588Y-125640990D01*
X138241841Y-125752932D01*
X138528739Y-125810000D01*
X138821259Y-125810000D01*
X139108157Y-125752932D01*
X139378410Y-125640990D01*
X139621631Y-125478475D01*
X139828474Y-125271632D01*
X139990989Y-125028411D01*
X140102931Y-124758158D01*
X140159999Y-124471260D01*
X140159999Y-124178740D01*
X140102931Y-123891842D01*
X139990989Y-123621589D01*
X139828474Y-123378368D01*
X139621631Y-123171525D01*
X139447239Y-123055000D01*
X139621631Y-122938475D01*
X139828474Y-122731632D01*
X139990989Y-122488411D01*
X140102931Y-122218158D01*
X140159999Y-121931260D01*
X140159999Y-121638740D01*
X140102931Y-121351842D01*
X139990989Y-121081589D01*
X139828474Y-120838368D01*
X139696619Y-120706513D01*
X139769179Y-120684502D01*
X139879493Y-120625537D01*
X139976184Y-120546185D01*
X140055536Y-120449494D01*
X140114501Y-120339180D01*
X140150811Y-120219482D01*
X140163071Y-120095000D01*
X140159999Y-119530750D01*
X140001249Y-119372000D01*
X138801999Y-119372000D01*
X138801999Y-119392000D01*
X138547999Y-119392000D01*
X138547999Y-119372000D01*
X137348749Y-119372000D01*
X137189999Y-119530750D01*
X137186927Y-120095000D01*
X136638711Y-120095000D01*
X136693937Y-120039774D01*
X136807205Y-119870256D01*
X136885226Y-119681898D01*
X136925000Y-119481939D01*
X136925000Y-119278061D01*
X136885226Y-119078102D01*
X136807205Y-118889744D01*
X136697509Y-118725572D01*
X136990001Y-118725572D01*
X137163255Y-118708508D01*
X137188592Y-118700822D01*
X137189999Y-118959250D01*
X137348749Y-119118000D01*
X138547999Y-119118000D01*
X138547999Y-119098000D01*
X138801999Y-119098000D01*
X138801999Y-119118000D01*
X140001249Y-119118000D01*
X140159999Y-118959250D01*
X140163071Y-118395000D01*
X140150811Y-118270518D01*
X140114501Y-118150820D01*
X140055536Y-118040506D01*
X139976184Y-117943815D01*
X139879493Y-117864463D01*
X139769179Y-117805498D01*
X139696619Y-117783487D01*
X139828474Y-117651632D01*
X139990989Y-117408411D01*
X140102931Y-117138158D01*
X140159999Y-116851260D01*
X140159999Y-116558740D01*
X140102931Y-116271842D01*
X139990989Y-116001589D01*
X139828474Y-115758368D01*
X139621631Y-115551525D01*
X139447239Y-115435000D01*
X139621631Y-115318475D01*
X139828474Y-115111632D01*
X139990989Y-114868411D01*
X140102931Y-114598158D01*
X140159999Y-114311260D01*
X140159999Y-114018740D01*
X140102931Y-113731842D01*
X139990989Y-113461589D01*
X139828474Y-113218368D01*
X139621631Y-113011525D01*
X139447239Y-112895000D01*
X139621631Y-112778475D01*
X139828474Y-112571632D01*
X139990989Y-112328411D01*
X140102931Y-112058158D01*
X140159999Y-111771260D01*
X140159999Y-111478740D01*
X140102931Y-111191842D01*
X139990989Y-110921589D01*
X139828474Y-110678368D01*
X139621631Y-110471525D01*
X139447239Y-110355000D01*
X139621631Y-110238475D01*
X139828474Y-110031632D01*
X139990989Y-109788411D01*
X140102931Y-109518158D01*
X140159999Y-109231260D01*
X140159999Y-108938740D01*
X140102931Y-108651842D01*
X139990989Y-108381589D01*
X139828474Y-108138368D01*
X139696619Y-108006513D01*
X139769179Y-107984502D01*
X139879493Y-107925537D01*
X139976184Y-107846185D01*
X140055536Y-107749494D01*
X140114501Y-107639180D01*
X140150811Y-107519482D01*
X140163071Y-107395000D01*
X140159999Y-106830750D01*
X140001249Y-106672000D01*
X138801999Y-106672000D01*
X138801999Y-106692000D01*
X138547999Y-106692000D01*
X138547999Y-106672000D01*
X137348749Y-106672000D01*
X137189999Y-106830750D01*
X137186927Y-107395000D01*
X137199187Y-107519482D01*
X137235497Y-107639180D01*
X137294462Y-107749494D01*
X137373814Y-107846185D01*
X137470505Y-107925537D01*
X137580819Y-107984502D01*
X137653379Y-108006513D01*
X137521524Y-108138368D01*
X137359009Y-108381589D01*
X137247067Y-108651842D01*
X137189999Y-108938740D01*
X137189999Y-109231260D01*
X137247067Y-109518158D01*
X137359009Y-109788411D01*
X137521524Y-110031632D01*
X137728367Y-110238475D01*
X137902759Y-110355000D01*
X137728367Y-110471525D01*
X137521524Y-110678368D01*
X137359009Y-110921589D01*
X137247067Y-111191842D01*
X137189999Y-111478740D01*
X137189999Y-111771260D01*
X137247067Y-112058158D01*
X137359009Y-112328411D01*
X137521524Y-112571632D01*
X137728367Y-112778475D01*
X137902759Y-112895000D01*
X137728367Y-113011525D01*
X137615604Y-113124288D01*
X137594494Y-113106963D01*
X137484180Y-113047998D01*
X137364482Y-113011688D01*
X137240000Y-112999428D01*
X136175750Y-113002500D01*
X136017000Y-113161250D01*
X136017000Y-114173000D01*
X136037000Y-114173000D01*
X136037000Y-114427000D01*
X136017000Y-114427000D01*
X136017000Y-115438750D01*
X136175750Y-115597500D01*
X137240000Y-115600572D01*
X137364482Y-115588312D01*
X137484180Y-115552002D01*
X137594494Y-115493037D01*
X137691185Y-115413685D01*
X137754817Y-115336149D01*
X137902759Y-115435000D01*
X137728367Y-115551525D01*
X137521524Y-115758368D01*
X137359009Y-116001589D01*
X137285677Y-116178628D01*
X137163255Y-116141492D01*
X136990001Y-116124428D01*
X134789999Y-116124428D01*
X134616745Y-116141492D01*
X134450149Y-116192028D01*
X134296613Y-116274095D01*
X134162038Y-116384538D01*
X134051595Y-116519113D01*
X133999954Y-116615726D01*
X133937829Y-116564742D01*
X133801582Y-116491916D01*
X133653745Y-116447071D01*
X133500000Y-116431928D01*
X133200000Y-116431928D01*
X133046255Y-116447071D01*
X132898418Y-116491916D01*
X132762171Y-116564742D01*
X132715000Y-116603454D01*
X132667829Y-116564742D01*
X132531582Y-116491916D01*
X132383745Y-116447071D01*
X132230000Y-116431928D01*
X131930000Y-116431928D01*
X131919528Y-116432959D01*
X131720562Y-116233993D01*
X131696759Y-116204989D01*
X131581034Y-116110016D01*
X131449005Y-116039444D01*
X131305744Y-115995987D01*
X131194091Y-115984990D01*
X131194080Y-115984990D01*
X131156758Y-115981314D01*
X131119436Y-115984990D01*
X129902343Y-115984990D01*
X129865010Y-115981313D01*
X129827677Y-115984990D01*
X129716024Y-115995987D01*
X129572763Y-116039444D01*
X129440734Y-116110016D01*
X129325009Y-116204989D01*
X129301206Y-116233993D01*
X129028998Y-116506201D01*
X129000000Y-116529999D01*
X128986582Y-116546349D01*
X128952171Y-116564742D01*
X128905000Y-116603454D01*
X128857829Y-116564742D01*
X128721582Y-116491916D01*
X128573745Y-116447071D01*
X128420000Y-116431928D01*
X128120000Y-116431928D01*
X127966255Y-116447071D01*
X127818418Y-116491916D01*
X127682171Y-116564742D01*
X127635000Y-116603454D01*
X127587829Y-116564742D01*
X127451582Y-116491916D01*
X127303745Y-116447071D01*
X127150000Y-116431928D01*
X126850000Y-116431928D01*
X126696255Y-116447071D01*
X126548418Y-116491916D01*
X126412171Y-116564742D01*
X126365000Y-116603454D01*
X126317829Y-116564742D01*
X126181582Y-116491916D01*
X126033745Y-116447071D01*
X125880000Y-116431928D01*
X125580000Y-116431928D01*
X125426255Y-116447071D01*
X125278418Y-116491916D01*
X125142171Y-116564742D01*
X125022749Y-116662749D01*
X124924742Y-116782171D01*
X124851916Y-116918418D01*
X124807071Y-117066255D01*
X124791928Y-117220000D01*
X124791928Y-118870000D01*
X124807071Y-119023745D01*
X124851916Y-119171582D01*
X124924742Y-119307829D01*
X125022749Y-119427251D01*
X125142171Y-119525258D01*
X125278418Y-119598084D01*
X125426255Y-119642929D01*
X125580000Y-119658072D01*
X125880000Y-119658072D01*
X126033745Y-119642929D01*
X126040000Y-119641032D01*
X126040001Y-125965552D01*
X125248626Y-126756928D01*
X125050000Y-126756928D01*
X124876746Y-126773992D01*
X124710150Y-126824528D01*
X124556614Y-126906595D01*
X124422038Y-127017038D01*
X124311595Y-127151614D01*
X124229528Y-127305150D01*
X124178992Y-127471746D01*
X124161928Y-127645000D01*
X124161928Y-127858444D01*
X124160913Y-127859681D01*
X124092663Y-127987368D01*
X124063384Y-128083887D01*
X124050635Y-128125915D01*
X124036444Y-128270000D01*
X124040000Y-128306105D01*
X124040001Y-133568469D01*
X123796335Y-133520000D01*
X123513665Y-133520000D01*
X123236426Y-133575147D01*
X122975273Y-133683320D01*
X122740241Y-133840363D01*
X122540363Y-134040241D01*
X122383320Y-134275273D01*
X122275147Y-134536426D01*
X122220000Y-134813665D01*
X122220000Y-135096335D01*
X122275147Y-135373574D01*
X122383320Y-135634727D01*
X122540363Y-135869759D01*
X122740241Y-136069637D01*
X122975273Y-136226680D01*
X123236426Y-136334853D01*
X123513665Y-136390000D01*
X123796335Y-136390000D01*
X124073574Y-136334853D01*
X124334727Y-136226680D01*
X124569759Y-136069637D01*
X124726762Y-135912634D01*
X124802762Y-136005239D01*
X124830807Y-136028255D01*
X125162551Y-136360000D01*
X124898665Y-136360000D01*
X124621426Y-136415147D01*
X124360273Y-136523320D01*
X124125241Y-136680363D01*
X123925363Y-136880241D01*
X123768320Y-137115273D01*
X123660147Y-137376426D01*
X123655000Y-137402301D01*
X123649853Y-137376426D01*
X123541680Y-137115273D01*
X123384637Y-136880241D01*
X123184759Y-136680363D01*
X122949727Y-136523320D01*
X122688574Y-136415147D01*
X122411335Y-136360000D01*
X122128665Y-136360000D01*
X121851426Y-136415147D01*
X121590273Y-136523320D01*
X121355241Y-136680363D01*
X121155363Y-136880241D01*
X120998320Y-137115273D01*
X120890147Y-137376426D01*
X120835000Y-137653665D01*
X117614854Y-137653665D01*
X117764938Y-137366895D01*
X117911275Y-136868902D01*
X117957648Y-136351929D01*
X117902273Y-135835841D01*
X117747279Y-135340474D01*
X117524258Y-134923228D01*
X117157499Y-134707106D01*
X115489605Y-136375000D01*
X115130395Y-136375000D01*
X113462501Y-134707106D01*
X113095742Y-134923228D01*
X112855062Y-135383105D01*
X112708725Y-135881098D01*
X112662352Y-136398071D01*
X111175000Y-136398071D01*
X111175000Y-134527501D01*
X113642106Y-134527501D01*
X115310000Y-136195395D01*
X116977894Y-134527501D01*
X116761772Y-134160742D01*
X116301895Y-133920062D01*
X115803902Y-133773725D01*
X115286929Y-133727352D01*
X114770841Y-133782727D01*
X114275474Y-133937721D01*
X113858228Y-134160742D01*
X113642106Y-134527501D01*
X111175000Y-134527501D01*
X111175000Y-120095000D01*
X119406927Y-120095000D01*
X119419187Y-120219482D01*
X119455497Y-120339180D01*
X119514462Y-120449494D01*
X119593814Y-120546185D01*
X119690505Y-120625537D01*
X119800819Y-120684502D01*
X119873379Y-120706513D01*
X119741524Y-120838368D01*
X119579009Y-121081589D01*
X119467067Y-121351842D01*
X119409999Y-121638740D01*
X119409999Y-121931260D01*
X119467067Y-122218158D01*
X119579009Y-122488411D01*
X119741524Y-122731632D01*
X119948367Y-122938475D01*
X120122759Y-123055000D01*
X119948367Y-123171525D01*
X119741524Y-123378368D01*
X119579009Y-123621589D01*
X119467067Y-123891842D01*
X119409999Y-124178740D01*
X119409999Y-124471260D01*
X119467067Y-124758158D01*
X119579009Y-125028411D01*
X119741524Y-125271632D01*
X119948367Y-125478475D01*
X120191588Y-125640990D01*
X120461841Y-125752932D01*
X120748739Y-125810000D01*
X121041259Y-125810000D01*
X121328157Y-125752932D01*
X121598410Y-125640990D01*
X121841631Y-125478475D01*
X122048474Y-125271632D01*
X122210989Y-125028411D01*
X122322931Y-124758158D01*
X122379999Y-124471260D01*
X122379999Y-124178740D01*
X122322931Y-123891842D01*
X122210989Y-123621589D01*
X122048474Y-123378368D01*
X121841631Y-123171525D01*
X121667239Y-123055000D01*
X121841631Y-122938475D01*
X122048474Y-122731632D01*
X122210989Y-122488411D01*
X122322931Y-122218158D01*
X122379999Y-121931260D01*
X122379999Y-121638740D01*
X122322931Y-121351842D01*
X122210989Y-121081589D01*
X122048474Y-120838368D01*
X121916619Y-120706513D01*
X121989179Y-120684502D01*
X122099493Y-120625537D01*
X122196184Y-120546185D01*
X122275536Y-120449494D01*
X122334501Y-120339180D01*
X122370811Y-120219482D01*
X122383071Y-120095000D01*
X122379999Y-119530750D01*
X122221249Y-119372000D01*
X121021999Y-119372000D01*
X121021999Y-119392000D01*
X120767999Y-119392000D01*
X120767999Y-119372000D01*
X119568749Y-119372000D01*
X119409999Y-119530750D01*
X119406927Y-120095000D01*
X111175000Y-120095000D01*
X111175000Y-107395000D01*
X119406927Y-107395000D01*
X119419187Y-107519482D01*
X119455497Y-107639180D01*
X119514462Y-107749494D01*
X119593814Y-107846185D01*
X119690505Y-107925537D01*
X119800819Y-107984502D01*
X119873379Y-108006513D01*
X119741524Y-108138368D01*
X119579009Y-108381589D01*
X119467067Y-108651842D01*
X119409999Y-108938740D01*
X119409999Y-109231260D01*
X119467067Y-109518158D01*
X119579009Y-109788411D01*
X119741524Y-110031632D01*
X119948367Y-110238475D01*
X120122759Y-110355000D01*
X119948367Y-110471525D01*
X119741524Y-110678368D01*
X119579009Y-110921589D01*
X119467067Y-111191842D01*
X119409999Y-111478740D01*
X119409999Y-111771260D01*
X119467067Y-112058158D01*
X119579009Y-112328411D01*
X119741524Y-112571632D01*
X119948367Y-112778475D01*
X120122759Y-112895000D01*
X119948367Y-113011525D01*
X119741524Y-113218368D01*
X119579009Y-113461589D01*
X119467067Y-113731842D01*
X119409999Y-114018740D01*
X119409999Y-114311260D01*
X119467067Y-114598158D01*
X119579009Y-114868411D01*
X119741524Y-115111632D01*
X119948367Y-115318475D01*
X120122759Y-115435000D01*
X119948367Y-115551525D01*
X119741524Y-115758368D01*
X119579009Y-116001589D01*
X119467067Y-116271842D01*
X119409999Y-116558740D01*
X119409999Y-116851260D01*
X119467067Y-117138158D01*
X119579009Y-117408411D01*
X119741524Y-117651632D01*
X119873379Y-117783487D01*
X119800819Y-117805498D01*
X119690505Y-117864463D01*
X119593814Y-117943815D01*
X119514462Y-118040506D01*
X119455497Y-118150820D01*
X119419187Y-118270518D01*
X119406927Y-118395000D01*
X119409999Y-118959250D01*
X119568749Y-119118000D01*
X120767999Y-119118000D01*
X120767999Y-119098000D01*
X121021999Y-119098000D01*
X121021999Y-119118000D01*
X122221249Y-119118000D01*
X122379999Y-118959250D01*
X122383071Y-118395000D01*
X122370811Y-118270518D01*
X122334501Y-118150820D01*
X122275536Y-118040506D01*
X122196184Y-117943815D01*
X122099493Y-117864463D01*
X121989179Y-117805498D01*
X121916619Y-117783487D01*
X122048474Y-117651632D01*
X122210989Y-117408411D01*
X122322931Y-117138158D01*
X122379999Y-116851260D01*
X122379999Y-116558740D01*
X122322931Y-116271842D01*
X122210989Y-116001589D01*
X122048474Y-115758368D01*
X121841631Y-115551525D01*
X121667239Y-115435000D01*
X121841631Y-115318475D01*
X122048474Y-115111632D01*
X122210989Y-114868411D01*
X122322931Y-114598158D01*
X122379999Y-114311260D01*
X122379999Y-114070000D01*
X124791928Y-114070000D01*
X124804188Y-114194482D01*
X124840498Y-114314180D01*
X124899463Y-114424494D01*
X124978815Y-114521185D01*
X125075506Y-114600537D01*
X125185820Y-114659502D01*
X125305518Y-114695812D01*
X125430000Y-114708072D01*
X125444250Y-114705000D01*
X125603000Y-114546250D01*
X125603000Y-113222000D01*
X125857000Y-113222000D01*
X125857000Y-114546250D01*
X126015750Y-114705000D01*
X126030000Y-114708072D01*
X126154482Y-114695812D01*
X126274180Y-114659502D01*
X126365000Y-114610957D01*
X126455820Y-114659502D01*
X126575518Y-114695812D01*
X126700000Y-114708072D01*
X126714250Y-114705000D01*
X126873000Y-114546250D01*
X126873000Y-113222000D01*
X125857000Y-113222000D01*
X125603000Y-113222000D01*
X124953750Y-113222000D01*
X124795000Y-113380750D01*
X124791928Y-114070000D01*
X122379999Y-114070000D01*
X122379999Y-114018740D01*
X122322931Y-113731842D01*
X122210989Y-113461589D01*
X122048474Y-113218368D01*
X121841631Y-113011525D01*
X121667239Y-112895000D01*
X121841631Y-112778475D01*
X122048474Y-112571632D01*
X122210989Y-112328411D01*
X122297315Y-112120000D01*
X124791928Y-112120000D01*
X124795000Y-112809250D01*
X124953750Y-112968000D01*
X125603000Y-112968000D01*
X125603000Y-111643750D01*
X125857000Y-111643750D01*
X125857000Y-112968000D01*
X126873000Y-112968000D01*
X126873000Y-111643750D01*
X127127000Y-111643750D01*
X127127000Y-112968000D01*
X127147000Y-112968000D01*
X127147000Y-113222000D01*
X127127000Y-113222000D01*
X127127000Y-114546250D01*
X127285750Y-114705000D01*
X127300000Y-114708072D01*
X127424482Y-114695812D01*
X127544180Y-114659502D01*
X127654494Y-114600537D01*
X127684064Y-114576270D01*
X127818418Y-114648084D01*
X127966255Y-114692929D01*
X128120000Y-114708072D01*
X128420000Y-114708072D01*
X128573745Y-114692929D01*
X128721582Y-114648084D01*
X128857829Y-114575258D01*
X128905000Y-114536546D01*
X128952171Y-114575258D01*
X129088418Y-114648084D01*
X129236255Y-114692929D01*
X129390000Y-114708072D01*
X129690000Y-114708072D01*
X129843745Y-114692929D01*
X129991582Y-114648084D01*
X130127829Y-114575258D01*
X130175000Y-114536546D01*
X130222171Y-114575258D01*
X130358418Y-114648084D01*
X130506255Y-114692929D01*
X130660000Y-114708072D01*
X130960000Y-114708072D01*
X131113745Y-114692929D01*
X131261582Y-114648084D01*
X131397829Y-114575258D01*
X131445000Y-114536546D01*
X131492171Y-114575258D01*
X131628418Y-114648084D01*
X131776255Y-114692929D01*
X131930000Y-114708072D01*
X132230000Y-114708072D01*
X132383745Y-114692929D01*
X132531582Y-114648084D01*
X132667829Y-114575258D01*
X132715000Y-114536546D01*
X132762171Y-114575258D01*
X132898418Y-114648084D01*
X133046255Y-114692929D01*
X133200000Y-114708072D01*
X133500000Y-114708072D01*
X133653745Y-114692929D01*
X133801582Y-114648084D01*
X133904942Y-114592836D01*
X133901928Y-114962500D01*
X133914188Y-115086982D01*
X133950498Y-115206680D01*
X134009463Y-115316994D01*
X134088815Y-115413685D01*
X134185506Y-115493037D01*
X134295820Y-115552002D01*
X134415518Y-115588312D01*
X134540000Y-115600572D01*
X135604250Y-115597500D01*
X135763000Y-115438750D01*
X135763000Y-114427000D01*
X135743000Y-114427000D01*
X135743000Y-114173000D01*
X135763000Y-114173000D01*
X135763000Y-113161250D01*
X135604250Y-113002500D01*
X134540000Y-112999428D01*
X134415518Y-113011688D01*
X134295820Y-113047998D01*
X134288072Y-113052139D01*
X134288072Y-112270000D01*
X134272929Y-112116255D01*
X134228084Y-111968418D01*
X134155258Y-111832171D01*
X134057251Y-111712749D01*
X133937829Y-111614742D01*
X133801582Y-111541916D01*
X133653745Y-111497071D01*
X133500000Y-111481928D01*
X133200000Y-111481928D01*
X133046255Y-111497071D01*
X132949999Y-111526269D01*
X132949999Y-94695000D01*
X137186927Y-94695000D01*
X137199187Y-94819482D01*
X137235497Y-94939180D01*
X137294462Y-95049494D01*
X137373814Y-95146185D01*
X137470505Y-95225537D01*
X137580819Y-95284502D01*
X137653379Y-95306513D01*
X137521524Y-95438368D01*
X137359009Y-95681589D01*
X137247067Y-95951842D01*
X137189999Y-96238740D01*
X137189999Y-96531260D01*
X137247067Y-96818158D01*
X137359009Y-97088411D01*
X137521524Y-97331632D01*
X137728367Y-97538475D01*
X137902759Y-97655000D01*
X137728367Y-97771525D01*
X137521524Y-97978368D01*
X137359009Y-98221589D01*
X137247067Y-98491842D01*
X137189999Y-98778740D01*
X137189999Y-99071260D01*
X137247067Y-99358158D01*
X137359009Y-99628411D01*
X137521524Y-99871632D01*
X137728367Y-100078475D01*
X137902759Y-100195000D01*
X137728367Y-100311525D01*
X137521524Y-100518368D01*
X137359009Y-100761589D01*
X137247067Y-101031842D01*
X137189999Y-101318740D01*
X137189999Y-101611260D01*
X137247067Y-101898158D01*
X137359009Y-102168411D01*
X137521524Y-102411632D01*
X137728367Y-102618475D01*
X137902759Y-102735000D01*
X137728367Y-102851525D01*
X137521524Y-103058368D01*
X137359009Y-103301589D01*
X137247067Y-103571842D01*
X137189999Y-103858740D01*
X137189999Y-104151260D01*
X137247067Y-104438158D01*
X137359009Y-104708411D01*
X137521524Y-104951632D01*
X137653379Y-105083487D01*
X137580819Y-105105498D01*
X137470505Y-105164463D01*
X137373814Y-105243815D01*
X137294462Y-105340506D01*
X137235497Y-105450820D01*
X137199187Y-105570518D01*
X137186927Y-105695000D01*
X137189999Y-106259250D01*
X137348749Y-106418000D01*
X138547999Y-106418000D01*
X138547999Y-106398000D01*
X138801999Y-106398000D01*
X138801999Y-106418000D01*
X140001249Y-106418000D01*
X140159999Y-106259250D01*
X140163071Y-105695000D01*
X140150811Y-105570518D01*
X140114501Y-105450820D01*
X140055536Y-105340506D01*
X139976184Y-105243815D01*
X139879493Y-105164463D01*
X139769179Y-105105498D01*
X139696619Y-105083487D01*
X139828474Y-104951632D01*
X139990989Y-104708411D01*
X140102931Y-104438158D01*
X140159999Y-104151260D01*
X140159999Y-103858740D01*
X140102931Y-103571842D01*
X139990989Y-103301589D01*
X139828474Y-103058368D01*
X139621631Y-102851525D01*
X139447239Y-102735000D01*
X139621631Y-102618475D01*
X139828474Y-102411632D01*
X139990989Y-102168411D01*
X140102931Y-101898158D01*
X140159999Y-101611260D01*
X140159999Y-101318740D01*
X140102931Y-101031842D01*
X139990989Y-100761589D01*
X139828474Y-100518368D01*
X139621631Y-100311525D01*
X139447239Y-100195000D01*
X139621631Y-100078475D01*
X139828474Y-99871632D01*
X139990989Y-99628411D01*
X140102931Y-99358158D01*
X140159999Y-99071260D01*
X140159999Y-98778740D01*
X140102931Y-98491842D01*
X139990989Y-98221589D01*
X139828474Y-97978368D01*
X139621631Y-97771525D01*
X139447239Y-97655000D01*
X139621631Y-97538475D01*
X139828474Y-97331632D01*
X139990989Y-97088411D01*
X140102931Y-96818158D01*
X140159999Y-96531260D01*
X140159999Y-96238740D01*
X140102931Y-95951842D01*
X139990989Y-95681589D01*
X139828474Y-95438368D01*
X139696619Y-95306513D01*
X139769179Y-95284502D01*
X139879493Y-95225537D01*
X139976184Y-95146185D01*
X140055536Y-95049494D01*
X140114501Y-94939180D01*
X140150811Y-94819482D01*
X140163071Y-94695000D01*
X140159999Y-94130750D01*
X140001249Y-93972000D01*
X138801999Y-93972000D01*
X138801999Y-93992000D01*
X138547999Y-93992000D01*
X138547999Y-93972000D01*
X137348749Y-93972000D01*
X137189999Y-94130750D01*
X137186927Y-94695000D01*
X132949999Y-94695000D01*
X132949999Y-85404801D01*
X137189999Y-81164802D01*
X137189999Y-81272002D01*
X137348747Y-81272002D01*
X137189999Y-81430750D01*
X137186927Y-81995000D01*
X137199187Y-82119482D01*
X137235497Y-82239180D01*
X137294462Y-82349494D01*
X137373814Y-82446185D01*
X137470505Y-82525537D01*
X137580819Y-82584502D01*
X137653379Y-82606513D01*
X137521524Y-82738368D01*
X137359009Y-82981589D01*
X137247067Y-83251842D01*
X137189999Y-83538740D01*
X137189999Y-83831260D01*
X137247067Y-84118158D01*
X137359009Y-84388411D01*
X137521524Y-84631632D01*
X137728367Y-84838475D01*
X137902759Y-84955000D01*
X137728367Y-85071525D01*
X137521524Y-85278368D01*
X137359009Y-85521589D01*
X137247067Y-85791842D01*
X137189999Y-86078740D01*
X137189999Y-86371260D01*
X137247067Y-86658158D01*
X137359009Y-86928411D01*
X137521524Y-87171632D01*
X137728367Y-87378475D01*
X137902759Y-87495000D01*
X137728367Y-87611525D01*
X137521524Y-87818368D01*
X137359009Y-88061589D01*
X137247067Y-88331842D01*
X137189999Y-88618740D01*
X137189999Y-88911260D01*
X137247067Y-89198158D01*
X137359009Y-89468411D01*
X137521524Y-89711632D01*
X137728367Y-89918475D01*
X137902759Y-90035000D01*
X137728367Y-90151525D01*
X137521524Y-90358368D01*
X137359009Y-90601589D01*
X137247067Y-90871842D01*
X137189999Y-91158740D01*
X137189999Y-91451260D01*
X137247067Y-91738158D01*
X137359009Y-92008411D01*
X137521524Y-92251632D01*
X137653379Y-92383487D01*
X137580819Y-92405498D01*
X137470505Y-92464463D01*
X137373814Y-92543815D01*
X137294462Y-92640506D01*
X137235497Y-92750820D01*
X137199187Y-92870518D01*
X137186927Y-92995000D01*
X137189999Y-93559250D01*
X137348749Y-93718000D01*
X138547999Y-93718000D01*
X138547999Y-93698000D01*
X138801999Y-93698000D01*
X138801999Y-93718000D01*
X140001249Y-93718000D01*
X140159999Y-93559250D01*
X140163071Y-92995000D01*
X140150811Y-92870518D01*
X140114501Y-92750820D01*
X140055536Y-92640506D01*
X139976184Y-92543815D01*
X139879493Y-92464463D01*
X139769179Y-92405498D01*
X139696619Y-92383487D01*
X139828474Y-92251632D01*
X139990989Y-92008411D01*
X140102931Y-91738158D01*
X140159999Y-91451260D01*
X140159999Y-91158740D01*
X140102931Y-90871842D01*
X139990989Y-90601589D01*
X139828474Y-90358368D01*
X139621631Y-90151525D01*
X139447239Y-90035000D01*
X139621631Y-89918475D01*
X139828474Y-89711632D01*
X139990989Y-89468411D01*
X140102931Y-89198158D01*
X140159999Y-88911260D01*
X140159999Y-88618740D01*
X140102931Y-88331842D01*
X139990989Y-88061589D01*
X139828474Y-87818368D01*
X139621631Y-87611525D01*
X139447239Y-87495000D01*
X139621631Y-87378475D01*
X139828474Y-87171632D01*
X139990989Y-86928411D01*
X140102931Y-86658158D01*
X140159999Y-86371260D01*
X140159999Y-86078740D01*
X140116208Y-85858592D01*
X141481003Y-84493798D01*
X141510001Y-84470000D01*
X141604974Y-84354275D01*
X141675546Y-84222246D01*
X141719003Y-84078985D01*
X141730000Y-83967332D01*
X141733677Y-83929999D01*
X141730000Y-83892666D01*
X141730000Y-69887322D01*
X141733676Y-69849999D01*
X141730000Y-69812676D01*
X141730000Y-69812667D01*
X141719003Y-69701014D01*
X141675546Y-69557753D01*
X141604974Y-69425724D01*
X141510001Y-69309999D01*
X141481004Y-69286202D01*
X141238072Y-69043270D01*
X141238072Y-67930200D01*
X141221004Y-67756907D01*
X141170456Y-67590273D01*
X141088371Y-67436703D01*
X140977903Y-67302097D01*
X140843297Y-67191629D01*
X140689727Y-67109544D01*
X140546488Y-67066093D01*
X139700000Y-66219605D01*
X138853512Y-67066093D01*
X138710273Y-67109544D01*
X138556703Y-67191629D01*
X138422097Y-67302097D01*
X138311629Y-67436703D01*
X138229544Y-67590273D01*
X138178996Y-67756907D01*
X138161928Y-67930200D01*
X138161928Y-69229800D01*
X138178996Y-69403093D01*
X138229544Y-69569727D01*
X138311629Y-69723297D01*
X138422097Y-69857903D01*
X138556703Y-69968371D01*
X138710273Y-70050456D01*
X138876907Y-70101004D01*
X139050200Y-70118072D01*
X140163270Y-70118072D01*
X140210000Y-70164802D01*
X140210001Y-83615196D01*
X140159999Y-83665198D01*
X140159999Y-83538740D01*
X140102931Y-83251842D01*
X139990989Y-82981589D01*
X139828474Y-82738368D01*
X139696619Y-82606513D01*
X139769179Y-82584502D01*
X139879493Y-82525537D01*
X139976184Y-82446185D01*
X140055536Y-82349494D01*
X140114501Y-82239180D01*
X140150811Y-82119482D01*
X140163071Y-81995000D01*
X140159999Y-81430750D01*
X140001249Y-81272000D01*
X138801999Y-81272000D01*
X138801999Y-81292000D01*
X138547999Y-81292000D01*
X138547999Y-81272000D01*
X138527999Y-81272000D01*
X138527999Y-81018000D01*
X138547999Y-81018000D01*
X138547999Y-80998000D01*
X138801999Y-80998000D01*
X138801999Y-81018000D01*
X140001249Y-81018000D01*
X140159999Y-80859250D01*
X140163071Y-80295000D01*
X140150811Y-80170518D01*
X140114501Y-80050820D01*
X140055536Y-79940506D01*
X139976184Y-79843815D01*
X139879493Y-79764463D01*
X139769179Y-79705498D01*
X139696619Y-79683487D01*
X139828474Y-79551632D01*
X139990989Y-79308411D01*
X140102931Y-79038158D01*
X140159999Y-78751260D01*
X140159999Y-78458740D01*
X140102931Y-78171842D01*
X139990989Y-77901589D01*
X139828474Y-77658368D01*
X139621631Y-77451525D01*
X139447239Y-77335000D01*
X139621631Y-77218475D01*
X139828474Y-77011632D01*
X139990989Y-76768411D01*
X140102931Y-76498158D01*
X140159999Y-76211260D01*
X140159999Y-75918740D01*
X140102931Y-75631842D01*
X139990989Y-75361589D01*
X139828474Y-75118368D01*
X139621631Y-74911525D01*
X139378410Y-74749010D01*
X139108157Y-74637068D01*
X138821259Y-74580000D01*
X138528739Y-74580000D01*
X138241841Y-74637068D01*
X137971588Y-74749010D01*
X137728367Y-74911525D01*
X137521524Y-75118368D01*
X137359009Y-75361589D01*
X137247067Y-75631842D01*
X137189999Y-75918740D01*
X137189999Y-76211260D01*
X137233789Y-76431408D01*
X136385797Y-77279401D01*
X136356793Y-77303204D01*
X136301665Y-77370379D01*
X136261820Y-77418929D01*
X136191761Y-77550000D01*
X136191248Y-77550959D01*
X136147791Y-77694220D01*
X136136794Y-77805873D01*
X136136794Y-77805883D01*
X136133118Y-77843205D01*
X136136794Y-77880528D01*
X136136795Y-79431992D01*
X131228993Y-84339795D01*
X131199989Y-84363598D01*
X131144861Y-84430773D01*
X131105016Y-84479323D01*
X131067239Y-84549999D01*
X131034444Y-84611353D01*
X130990987Y-84754614D01*
X130979990Y-84866267D01*
X130979990Y-84866277D01*
X130976314Y-84903599D01*
X130979990Y-84940921D01*
X130979991Y-106705207D01*
X127759003Y-109926196D01*
X127729999Y-109949999D01*
X127689175Y-109999744D01*
X127635026Y-110065724D01*
X127569613Y-110188102D01*
X127564454Y-110197754D01*
X127520997Y-110341015D01*
X127510000Y-110452668D01*
X127510000Y-110452678D01*
X127506324Y-110490000D01*
X127510000Y-110527323D01*
X127510000Y-111520130D01*
X127424482Y-111494188D01*
X127300000Y-111481928D01*
X127285750Y-111485000D01*
X127127000Y-111643750D01*
X126873000Y-111643750D01*
X126714250Y-111485000D01*
X126700000Y-111481928D01*
X126575518Y-111494188D01*
X126455820Y-111530498D01*
X126365000Y-111579043D01*
X126274180Y-111530498D01*
X126154482Y-111494188D01*
X126030000Y-111481928D01*
X126015750Y-111485000D01*
X125857000Y-111643750D01*
X125603000Y-111643750D01*
X125444250Y-111485000D01*
X125430000Y-111481928D01*
X125305518Y-111494188D01*
X125185820Y-111530498D01*
X125075506Y-111589463D01*
X124978815Y-111668815D01*
X124899463Y-111765506D01*
X124840498Y-111875820D01*
X124804188Y-111995518D01*
X124791928Y-112120000D01*
X122297315Y-112120000D01*
X122322931Y-112058158D01*
X122379999Y-111771260D01*
X122379999Y-111478740D01*
X122322931Y-111191842D01*
X122210989Y-110921589D01*
X122048474Y-110678368D01*
X121841631Y-110471525D01*
X121667239Y-110355000D01*
X121841631Y-110238475D01*
X122048474Y-110031632D01*
X122210989Y-109788411D01*
X122322931Y-109518158D01*
X122379999Y-109231260D01*
X122379999Y-108938740D01*
X122322931Y-108651842D01*
X122210989Y-108381589D01*
X122048474Y-108138368D01*
X121916619Y-108006513D01*
X121989179Y-107984502D01*
X122099493Y-107925537D01*
X122196184Y-107846185D01*
X122275536Y-107749494D01*
X122334501Y-107639180D01*
X122370811Y-107519482D01*
X122383071Y-107395000D01*
X122379999Y-106830750D01*
X122221249Y-106672000D01*
X121021999Y-106672000D01*
X121021999Y-106692000D01*
X120767999Y-106692000D01*
X120767999Y-106672000D01*
X119568749Y-106672000D01*
X119409999Y-106830750D01*
X119406927Y-107395000D01*
X111175000Y-107395000D01*
X111175000Y-99480000D01*
X111541928Y-99480000D01*
X111541928Y-101180000D01*
X111554188Y-101304482D01*
X111590498Y-101424180D01*
X111649463Y-101534494D01*
X111728815Y-101631185D01*
X111825506Y-101710537D01*
X111935820Y-101769502D01*
X112055518Y-101805812D01*
X112180000Y-101818072D01*
X113880000Y-101818072D01*
X114004482Y-101805812D01*
X114124180Y-101769502D01*
X114234494Y-101710537D01*
X114331185Y-101631185D01*
X114410537Y-101534494D01*
X114469502Y-101424180D01*
X114505812Y-101304482D01*
X114518072Y-101180000D01*
X114518072Y-99480000D01*
X114505812Y-99355518D01*
X114469502Y-99235820D01*
X114410537Y-99125506D01*
X114331185Y-99028815D01*
X114234494Y-98949463D01*
X114124180Y-98890498D01*
X114043534Y-98866034D01*
X114127588Y-98790269D01*
X114301641Y-98556920D01*
X114426825Y-98294099D01*
X114471476Y-98146890D01*
X114350155Y-97917000D01*
X113157000Y-97917000D01*
X113157000Y-97937000D01*
X112903000Y-97937000D01*
X112903000Y-97917000D01*
X111709845Y-97917000D01*
X111588524Y-98146890D01*
X111633175Y-98294099D01*
X111758359Y-98556920D01*
X111932412Y-98790269D01*
X112016466Y-98866034D01*
X111935820Y-98890498D01*
X111825506Y-98949463D01*
X111728815Y-99028815D01*
X111649463Y-99125506D01*
X111590498Y-99235820D01*
X111554188Y-99355518D01*
X111541928Y-99480000D01*
X111175000Y-99480000D01*
X111175000Y-92563740D01*
X111545000Y-92563740D01*
X111545000Y-92856260D01*
X111602068Y-93143158D01*
X111714010Y-93413411D01*
X111876525Y-93656632D01*
X112083368Y-93863475D01*
X112257760Y-93980000D01*
X112083368Y-94096525D01*
X111876525Y-94303368D01*
X111714010Y-94546589D01*
X111602068Y-94816842D01*
X111545000Y-95103740D01*
X111545000Y-95396260D01*
X111602068Y-95683158D01*
X111714010Y-95953411D01*
X111876525Y-96196632D01*
X112083368Y-96403475D01*
X112265534Y-96525195D01*
X112148645Y-96594822D01*
X111932412Y-96789731D01*
X111758359Y-97023080D01*
X111633175Y-97285901D01*
X111588524Y-97433110D01*
X111709845Y-97663000D01*
X112903000Y-97663000D01*
X112903000Y-97643000D01*
X113157000Y-97643000D01*
X113157000Y-97663000D01*
X114350155Y-97663000D01*
X114471476Y-97433110D01*
X114426825Y-97285901D01*
X114301641Y-97023080D01*
X114127588Y-96789731D01*
X113911355Y-96594822D01*
X113794466Y-96525195D01*
X113976632Y-96403475D01*
X114183475Y-96196632D01*
X114345990Y-95953411D01*
X114457932Y-95683158D01*
X114515000Y-95396260D01*
X114515000Y-95103740D01*
X114457932Y-94816842D01*
X114345990Y-94546589D01*
X114183475Y-94303368D01*
X113976632Y-94096525D01*
X113802240Y-93980000D01*
X113976632Y-93863475D01*
X114183475Y-93656632D01*
X114345990Y-93413411D01*
X114457932Y-93143158D01*
X114515000Y-92856260D01*
X114515000Y-92563740D01*
X114457932Y-92276842D01*
X114345990Y-92006589D01*
X114183475Y-91763368D01*
X113976632Y-91556525D01*
X113733411Y-91394010D01*
X113463158Y-91282068D01*
X113176260Y-91225000D01*
X112883740Y-91225000D01*
X112596842Y-91282068D01*
X112326589Y-91394010D01*
X112083368Y-91556525D01*
X111876525Y-91763368D01*
X111714010Y-92006589D01*
X111602068Y-92276842D01*
X111545000Y-92563740D01*
X111175000Y-92563740D01*
X111175000Y-81995000D01*
X119406927Y-81995000D01*
X119419187Y-82119482D01*
X119455497Y-82239180D01*
X119514462Y-82349494D01*
X119593814Y-82446185D01*
X119690505Y-82525537D01*
X119800819Y-82584502D01*
X119873379Y-82606513D01*
X119741524Y-82738368D01*
X119579009Y-82981589D01*
X119467067Y-83251842D01*
X119409999Y-83538740D01*
X119409999Y-83831260D01*
X119467067Y-84118158D01*
X119579009Y-84388411D01*
X119741524Y-84631632D01*
X119948367Y-84838475D01*
X120122759Y-84955000D01*
X119948367Y-85071525D01*
X119741524Y-85278368D01*
X119579009Y-85521589D01*
X119467067Y-85791842D01*
X119409999Y-86078740D01*
X119409999Y-86371260D01*
X119467067Y-86658158D01*
X119579009Y-86928411D01*
X119741524Y-87171632D01*
X119948367Y-87378475D01*
X120122759Y-87495000D01*
X119948367Y-87611525D01*
X119741524Y-87818368D01*
X119579009Y-88061589D01*
X119467067Y-88331842D01*
X119409999Y-88618740D01*
X119409999Y-88911260D01*
X119467067Y-89198158D01*
X119579009Y-89468411D01*
X119741524Y-89711632D01*
X119948367Y-89918475D01*
X120122759Y-90035000D01*
X119948367Y-90151525D01*
X119741524Y-90358368D01*
X119579009Y-90601589D01*
X119467067Y-90871842D01*
X119409999Y-91158740D01*
X119409999Y-91451260D01*
X119467067Y-91738158D01*
X119579009Y-92008411D01*
X119741524Y-92251632D01*
X119873379Y-92383487D01*
X119800819Y-92405498D01*
X119690505Y-92464463D01*
X119593814Y-92543815D01*
X119514462Y-92640506D01*
X119455497Y-92750820D01*
X119419187Y-92870518D01*
X119406927Y-92995000D01*
X119406927Y-94695000D01*
X119419187Y-94819482D01*
X119455497Y-94939180D01*
X119514462Y-95049494D01*
X119593814Y-95146185D01*
X119690505Y-95225537D01*
X119800819Y-95284502D01*
X119873379Y-95306513D01*
X119741524Y-95438368D01*
X119579009Y-95681589D01*
X119467067Y-95951842D01*
X119409999Y-96238740D01*
X119409999Y-96531260D01*
X119467067Y-96818158D01*
X119579009Y-97088411D01*
X119741524Y-97331632D01*
X119948367Y-97538475D01*
X120122759Y-97655000D01*
X119948367Y-97771525D01*
X119741524Y-97978368D01*
X119579009Y-98221589D01*
X119467067Y-98491842D01*
X119409999Y-98778740D01*
X119409999Y-99071260D01*
X119467067Y-99358158D01*
X119579009Y-99628411D01*
X119741524Y-99871632D01*
X119948367Y-100078475D01*
X120122759Y-100195000D01*
X119948367Y-100311525D01*
X119741524Y-100518368D01*
X119579009Y-100761589D01*
X119467067Y-101031842D01*
X119409999Y-101318740D01*
X119409999Y-101611260D01*
X119467067Y-101898158D01*
X119579009Y-102168411D01*
X119741524Y-102411632D01*
X119948367Y-102618475D01*
X120122759Y-102735000D01*
X119948367Y-102851525D01*
X119741524Y-103058368D01*
X119579009Y-103301589D01*
X119467067Y-103571842D01*
X119409999Y-103858740D01*
X119409999Y-104151260D01*
X119467067Y-104438158D01*
X119579009Y-104708411D01*
X119741524Y-104951632D01*
X119873379Y-105083487D01*
X119800819Y-105105498D01*
X119690505Y-105164463D01*
X119593814Y-105243815D01*
X119514462Y-105340506D01*
X119455497Y-105450820D01*
X119419187Y-105570518D01*
X119406927Y-105695000D01*
X119409999Y-106259250D01*
X119568749Y-106418000D01*
X120767999Y-106418000D01*
X120767999Y-106398000D01*
X121021999Y-106398000D01*
X121021999Y-106418000D01*
X122221249Y-106418000D01*
X122379999Y-106259250D01*
X122383071Y-105695000D01*
X122370811Y-105570518D01*
X122334501Y-105450820D01*
X122275536Y-105340506D01*
X122196184Y-105243815D01*
X122099493Y-105164463D01*
X121989179Y-105105498D01*
X121916619Y-105083487D01*
X122048474Y-104951632D01*
X122210989Y-104708411D01*
X122322931Y-104438158D01*
X122379999Y-104151260D01*
X122379999Y-103858740D01*
X122322931Y-103571842D01*
X122210989Y-103301589D01*
X122048474Y-103058368D01*
X121841631Y-102851525D01*
X121667239Y-102735000D01*
X121841631Y-102618475D01*
X122048474Y-102411632D01*
X122210989Y-102168411D01*
X122322931Y-101898158D01*
X122379999Y-101611260D01*
X122379999Y-101318740D01*
X122322931Y-101031842D01*
X122210989Y-100761589D01*
X122048474Y-100518368D01*
X121841631Y-100311525D01*
X121667239Y-100195000D01*
X121841631Y-100078475D01*
X122048474Y-99871632D01*
X122210989Y-99628411D01*
X122322931Y-99358158D01*
X122379999Y-99071260D01*
X122379999Y-98778740D01*
X122322931Y-98491842D01*
X122210989Y-98221589D01*
X122048474Y-97978368D01*
X121841631Y-97771525D01*
X121667239Y-97655000D01*
X121841631Y-97538475D01*
X122048474Y-97331632D01*
X122210989Y-97088411D01*
X122322931Y-96818158D01*
X122379999Y-96531260D01*
X122379999Y-96238740D01*
X122322931Y-95951842D01*
X122210989Y-95681589D01*
X122048474Y-95438368D01*
X121916619Y-95306513D01*
X121989179Y-95284502D01*
X122099493Y-95225537D01*
X122196184Y-95146185D01*
X122275536Y-95049494D01*
X122334501Y-94939180D01*
X122370811Y-94819482D01*
X122383071Y-94695000D01*
X122383071Y-92995000D01*
X122370811Y-92870518D01*
X122334501Y-92750820D01*
X122275536Y-92640506D01*
X122196184Y-92543815D01*
X122099493Y-92464463D01*
X121989179Y-92405498D01*
X121916619Y-92383487D01*
X122048474Y-92251632D01*
X122210989Y-92008411D01*
X122322931Y-91738158D01*
X122379999Y-91451260D01*
X122379999Y-91158740D01*
X122322931Y-90871842D01*
X122210989Y-90601589D01*
X122048474Y-90358368D01*
X121841631Y-90151525D01*
X121667239Y-90035000D01*
X121841631Y-89918475D01*
X122048474Y-89711632D01*
X122210989Y-89468411D01*
X122322931Y-89198158D01*
X122379999Y-88911260D01*
X122379999Y-88618740D01*
X122322931Y-88331842D01*
X122210989Y-88061589D01*
X122048474Y-87818368D01*
X121841631Y-87611525D01*
X121667239Y-87495000D01*
X121841631Y-87378475D01*
X122048474Y-87171632D01*
X122210989Y-86928411D01*
X122322931Y-86658158D01*
X122379999Y-86371260D01*
X122379999Y-86078740D01*
X122322931Y-85791842D01*
X122210989Y-85521589D01*
X122048474Y-85278368D01*
X121841631Y-85071525D01*
X121667239Y-84955000D01*
X121841631Y-84838475D01*
X122048474Y-84631632D01*
X122210989Y-84388411D01*
X122322931Y-84118158D01*
X122379999Y-83831260D01*
X122379999Y-83538740D01*
X122322931Y-83251842D01*
X122210989Y-82981589D01*
X122048474Y-82738368D01*
X121916619Y-82606513D01*
X121989179Y-82584502D01*
X122099493Y-82525537D01*
X122196184Y-82446185D01*
X122275536Y-82349494D01*
X122334501Y-82239180D01*
X122370811Y-82119482D01*
X122383071Y-81995000D01*
X122379999Y-81430750D01*
X122221249Y-81272000D01*
X121021999Y-81272000D01*
X121021999Y-81292000D01*
X120767999Y-81292000D01*
X120767999Y-81272000D01*
X119568749Y-81272000D01*
X119409999Y-81430750D01*
X119406927Y-81995000D01*
X111175000Y-81995000D01*
X111175000Y-80965000D01*
X113581928Y-80965000D01*
X113594188Y-81089482D01*
X113630498Y-81209180D01*
X113689463Y-81319494D01*
X113768815Y-81416185D01*
X113865506Y-81495537D01*
X113975820Y-81554502D01*
X114095518Y-81590812D01*
X114220000Y-81603072D01*
X115284250Y-81600000D01*
X115443000Y-81441250D01*
X115443000Y-80429500D01*
X115697000Y-80429500D01*
X115697000Y-81441250D01*
X115855750Y-81600000D01*
X116920000Y-81603072D01*
X117044482Y-81590812D01*
X117164180Y-81554502D01*
X117274494Y-81495537D01*
X117371185Y-81416185D01*
X117450537Y-81319494D01*
X117509502Y-81209180D01*
X117545812Y-81089482D01*
X117558072Y-80965000D01*
X117555000Y-80588250D01*
X117396250Y-80429500D01*
X115697000Y-80429500D01*
X115443000Y-80429500D01*
X113743750Y-80429500D01*
X113585000Y-80588250D01*
X113581928Y-80965000D01*
X111175000Y-80965000D01*
X111175000Y-79640000D01*
X113581928Y-79640000D01*
X113585000Y-80016750D01*
X113743750Y-80175500D01*
X115443000Y-80175500D01*
X115443000Y-79163750D01*
X115697000Y-79163750D01*
X115697000Y-80175500D01*
X117396250Y-80175500D01*
X117555000Y-80016750D01*
X117558072Y-79640000D01*
X117545812Y-79515518D01*
X117509502Y-79395820D01*
X117450537Y-79285506D01*
X117371185Y-79188815D01*
X117274494Y-79109463D01*
X117164180Y-79050498D01*
X117044482Y-79014188D01*
X116920000Y-79001928D01*
X115855750Y-79005000D01*
X115697000Y-79163750D01*
X115443000Y-79163750D01*
X115284250Y-79005000D01*
X114220000Y-79001928D01*
X114095518Y-79014188D01*
X113975820Y-79050498D01*
X113865506Y-79109463D01*
X113768815Y-79188815D01*
X113689463Y-79285506D01*
X113630498Y-79395820D01*
X113594188Y-79515518D01*
X113581928Y-79640000D01*
X111175000Y-79640000D01*
X111175000Y-76764999D01*
X113581928Y-76764999D01*
X113581928Y-77590001D01*
X113598992Y-77763255D01*
X113649528Y-77929851D01*
X113731595Y-78083387D01*
X113842038Y-78217962D01*
X113976613Y-78328405D01*
X114130149Y-78410472D01*
X114296745Y-78461008D01*
X114469999Y-78478072D01*
X116670001Y-78478072D01*
X116843255Y-78461008D01*
X117009851Y-78410472D01*
X117163387Y-78328405D01*
X117297962Y-78217962D01*
X117408405Y-78083387D01*
X117486384Y-77937500D01*
X119152698Y-77937500D01*
X119453790Y-78238592D01*
X119409999Y-78458740D01*
X119409999Y-78751260D01*
X119467067Y-79038158D01*
X119579009Y-79308411D01*
X119741524Y-79551632D01*
X119873379Y-79683487D01*
X119800819Y-79705498D01*
X119690505Y-79764463D01*
X119593814Y-79843815D01*
X119514462Y-79940506D01*
X119455497Y-80050820D01*
X119419187Y-80170518D01*
X119406927Y-80295000D01*
X119409999Y-80859250D01*
X119568749Y-81018000D01*
X120767999Y-81018000D01*
X120767999Y-80998000D01*
X121021999Y-80998000D01*
X121021999Y-81018000D01*
X122221249Y-81018000D01*
X122379999Y-80859250D01*
X122383071Y-80295000D01*
X122370811Y-80170518D01*
X122334501Y-80050820D01*
X122275536Y-79940506D01*
X122196184Y-79843815D01*
X122099493Y-79764463D01*
X121989179Y-79705498D01*
X121916619Y-79683487D01*
X122048474Y-79551632D01*
X122210989Y-79308411D01*
X122302041Y-79088589D01*
X125974999Y-79088589D01*
X125974999Y-79361411D01*
X126028224Y-79628989D01*
X126132628Y-79881043D01*
X126284200Y-80107886D01*
X126477113Y-80300799D01*
X126703956Y-80452371D01*
X126956010Y-80556775D01*
X127223588Y-80610000D01*
X127496410Y-80610000D01*
X127763988Y-80556775D01*
X128016042Y-80452371D01*
X128242885Y-80300799D01*
X128435798Y-80107886D01*
X128587370Y-79881043D01*
X128691774Y-79628989D01*
X128744999Y-79361411D01*
X128744999Y-79088589D01*
X130824999Y-79088589D01*
X130824999Y-79361411D01*
X130878224Y-79628989D01*
X130982628Y-79881043D01*
X131134200Y-80107886D01*
X131327113Y-80300799D01*
X131553956Y-80452371D01*
X131806010Y-80556775D01*
X132073588Y-80610000D01*
X132346410Y-80610000D01*
X132613988Y-80556775D01*
X132866042Y-80452371D01*
X133092885Y-80300799D01*
X133285798Y-80107886D01*
X133437370Y-79881043D01*
X133541774Y-79628989D01*
X133594999Y-79361411D01*
X133594999Y-79088589D01*
X133541774Y-78821011D01*
X133437370Y-78568957D01*
X133285798Y-78342114D01*
X133092885Y-78149201D01*
X132866042Y-77997629D01*
X132613988Y-77893225D01*
X132346410Y-77840000D01*
X132073588Y-77840000D01*
X131806010Y-77893225D01*
X131553956Y-77997629D01*
X131327113Y-78149201D01*
X131134200Y-78342114D01*
X130982628Y-78568957D01*
X130878224Y-78821011D01*
X130824999Y-79088589D01*
X128744999Y-79088589D01*
X128691774Y-78821011D01*
X128587370Y-78568957D01*
X128435798Y-78342114D01*
X128242885Y-78149201D01*
X128016042Y-77997629D01*
X127763988Y-77893225D01*
X127496410Y-77840000D01*
X127223588Y-77840000D01*
X126956010Y-77893225D01*
X126703956Y-77997629D01*
X126477113Y-78149201D01*
X126284200Y-78342114D01*
X126132628Y-78568957D01*
X126028224Y-78821011D01*
X125974999Y-79088589D01*
X122302041Y-79088589D01*
X122322931Y-79038158D01*
X122379999Y-78751260D01*
X122379999Y-78458740D01*
X122322931Y-78171842D01*
X122210989Y-77901589D01*
X122048474Y-77658368D01*
X121841631Y-77451525D01*
X121667239Y-77335000D01*
X121841631Y-77218475D01*
X122048474Y-77011632D01*
X122210989Y-76768411D01*
X122322931Y-76498158D01*
X122379999Y-76211260D01*
X122379999Y-76043816D01*
X125524999Y-76043816D01*
X125524999Y-76346184D01*
X125583988Y-76642743D01*
X125699700Y-76922095D01*
X125867687Y-77173505D01*
X126081494Y-77387312D01*
X126332904Y-77555299D01*
X126612256Y-77671011D01*
X126908815Y-77730000D01*
X127211183Y-77730000D01*
X127507742Y-77671011D01*
X127787094Y-77555299D01*
X128038504Y-77387312D01*
X128252311Y-77173505D01*
X128420298Y-76922095D01*
X128536010Y-76642743D01*
X128594999Y-76346184D01*
X128594999Y-76043816D01*
X130974999Y-76043816D01*
X130974999Y-76346184D01*
X131033988Y-76642743D01*
X131149700Y-76922095D01*
X131317687Y-77173505D01*
X131531494Y-77387312D01*
X131782904Y-77555299D01*
X132062256Y-77671011D01*
X132358815Y-77730000D01*
X132661183Y-77730000D01*
X132957742Y-77671011D01*
X133237094Y-77555299D01*
X133488504Y-77387312D01*
X133702311Y-77173505D01*
X133870298Y-76922095D01*
X133986010Y-76642743D01*
X134044999Y-76346184D01*
X134044999Y-76043816D01*
X133986010Y-75747257D01*
X133870298Y-75467905D01*
X133702311Y-75216495D01*
X133488504Y-75002688D01*
X133237094Y-74834701D01*
X132957742Y-74718989D01*
X132661183Y-74660000D01*
X132358815Y-74660000D01*
X132062256Y-74718989D01*
X131782904Y-74834701D01*
X131531494Y-75002688D01*
X131317687Y-75216495D01*
X131149700Y-75467905D01*
X131033988Y-75747257D01*
X130974999Y-76043816D01*
X128594999Y-76043816D01*
X128536010Y-75747257D01*
X128420298Y-75467905D01*
X128252311Y-75216495D01*
X128038504Y-75002688D01*
X127787094Y-74834701D01*
X127507742Y-74718989D01*
X127211183Y-74660000D01*
X126908815Y-74660000D01*
X126612256Y-74718989D01*
X126332904Y-74834701D01*
X126081494Y-75002688D01*
X125867687Y-75216495D01*
X125699700Y-75467905D01*
X125583988Y-75747257D01*
X125524999Y-76043816D01*
X122379999Y-76043816D01*
X122379999Y-75918740D01*
X122322931Y-75631842D01*
X122210989Y-75361589D01*
X122048474Y-75118368D01*
X121841631Y-74911525D01*
X121598410Y-74749010D01*
X121328157Y-74637068D01*
X121041259Y-74580000D01*
X120748739Y-74580000D01*
X120461841Y-74637068D01*
X120191588Y-74749010D01*
X119948367Y-74911525D01*
X119741524Y-75118368D01*
X119579009Y-75361589D01*
X119467067Y-75631842D01*
X119409999Y-75918740D01*
X119409999Y-76211260D01*
X119450622Y-76415486D01*
X119430177Y-76417500D01*
X117486384Y-76417500D01*
X117408405Y-76271613D01*
X117297962Y-76137038D01*
X117163387Y-76026595D01*
X117009851Y-75944528D01*
X116843255Y-75893992D01*
X116670001Y-75876928D01*
X114469999Y-75876928D01*
X114296745Y-75893992D01*
X114130149Y-75944528D01*
X113976613Y-76026595D01*
X113842038Y-76137038D01*
X113731595Y-76271613D01*
X113649528Y-76425149D01*
X113598992Y-76591745D01*
X113581928Y-76764999D01*
X111175000Y-76764999D01*
X111175000Y-71130333D01*
X116387992Y-71130333D01*
X116483756Y-71394734D01*
X116773371Y-71535624D01*
X117084908Y-71617304D01*
X117406395Y-71636638D01*
X117725475Y-71592881D01*
X118029888Y-71487715D01*
X118203844Y-71394734D01*
X118299608Y-71130333D01*
X117343800Y-70174525D01*
X116387992Y-71130333D01*
X111175000Y-71130333D01*
X111175000Y-70057515D01*
X115702082Y-70057515D01*
X115745839Y-70376595D01*
X115851005Y-70681008D01*
X115943986Y-70854964D01*
X116208387Y-70950728D01*
X117164195Y-69994920D01*
X117523405Y-69994920D01*
X118479213Y-70950728D01*
X118743614Y-70854964D01*
X118884504Y-70565349D01*
X118966184Y-70253812D01*
X118985518Y-69932325D01*
X118941761Y-69613245D01*
X118836595Y-69308832D01*
X118743614Y-69134876D01*
X118479213Y-69039112D01*
X117523405Y-69994920D01*
X117164195Y-69994920D01*
X116208387Y-69039112D01*
X115943986Y-69134876D01*
X115803096Y-69424491D01*
X115721416Y-69736028D01*
X115702082Y-70057515D01*
X111175000Y-70057515D01*
X111175000Y-68859507D01*
X116387992Y-68859507D01*
X117343800Y-69815315D01*
X118299608Y-68859507D01*
X118203844Y-68595106D01*
X117914229Y-68454216D01*
X117602692Y-68372536D01*
X117281205Y-68353202D01*
X116962125Y-68396959D01*
X116657712Y-68502125D01*
X116483756Y-68595106D01*
X116387992Y-68859507D01*
X111175000Y-68859507D01*
X111175000Y-64630333D01*
X116387992Y-64630333D01*
X116483756Y-64894734D01*
X116773371Y-65035624D01*
X117084908Y-65117304D01*
X117406395Y-65136638D01*
X117725475Y-65092881D01*
X118029888Y-64987715D01*
X118203844Y-64894734D01*
X118299608Y-64630333D01*
X117343800Y-63674525D01*
X116387992Y-64630333D01*
X111175000Y-64630333D01*
X111175000Y-63557515D01*
X115702082Y-63557515D01*
X115745839Y-63876595D01*
X115851005Y-64181008D01*
X115943986Y-64354964D01*
X116208387Y-64450728D01*
X117164195Y-63494920D01*
X117523405Y-63494920D01*
X118479213Y-64450728D01*
X118743614Y-64354964D01*
X118884504Y-64065349D01*
X118966184Y-63753812D01*
X118985518Y-63432325D01*
X118972019Y-63333887D01*
X120208800Y-63333887D01*
X120208800Y-63655953D01*
X120271632Y-63971832D01*
X120394882Y-64269383D01*
X120573813Y-64537172D01*
X120801548Y-64764907D01*
X121069337Y-64943838D01*
X121083800Y-64949829D01*
X121083801Y-68540011D01*
X121069337Y-68546002D01*
X120801548Y-68724933D01*
X120573813Y-68952668D01*
X120394882Y-69220457D01*
X120271632Y-69518008D01*
X120208800Y-69833887D01*
X120208800Y-70155953D01*
X120271632Y-70471832D01*
X120394882Y-70769383D01*
X120573813Y-71037172D01*
X120801548Y-71264907D01*
X121069337Y-71443838D01*
X121366888Y-71567088D01*
X121682767Y-71629920D01*
X122004833Y-71629920D01*
X122320712Y-71567088D01*
X122618263Y-71443838D01*
X122886052Y-71264907D01*
X123113787Y-71037172D01*
X123292718Y-70769383D01*
X123415968Y-70471832D01*
X123478800Y-70155953D01*
X123478800Y-69833887D01*
X123415968Y-69518008D01*
X123292718Y-69220457D01*
X123113787Y-68952668D01*
X122886052Y-68724933D01*
X122618263Y-68546002D01*
X122603800Y-68540011D01*
X122603800Y-66669609D01*
X126825717Y-66669609D01*
X127011793Y-67010766D01*
X127429129Y-67226513D01*
X127880535Y-67356696D01*
X128348666Y-67396313D01*
X128815531Y-67343842D01*
X128992470Y-67287500D01*
X132631928Y-67287500D01*
X132644188Y-67411982D01*
X132680498Y-67531680D01*
X132739463Y-67641994D01*
X132818815Y-67738685D01*
X132915506Y-67818037D01*
X133025820Y-67877002D01*
X133145518Y-67913312D01*
X133270000Y-67925572D01*
X134334250Y-67922500D01*
X134493000Y-67763750D01*
X134493000Y-66752000D01*
X134747000Y-66752000D01*
X134747000Y-67763750D01*
X134905750Y-67922500D01*
X135970000Y-67925572D01*
X136094482Y-67913312D01*
X136214180Y-67877002D01*
X136324494Y-67818037D01*
X136421185Y-67738685D01*
X136500537Y-67641994D01*
X136559502Y-67531680D01*
X136595812Y-67411982D01*
X136608072Y-67287500D01*
X136605000Y-66910750D01*
X136446250Y-66752000D01*
X134747000Y-66752000D01*
X134493000Y-66752000D01*
X132793750Y-66752000D01*
X132635000Y-66910750D01*
X132631928Y-67287500D01*
X128992470Y-67287500D01*
X129263188Y-67201297D01*
X129619647Y-67010766D01*
X129805723Y-66669609D01*
X128315720Y-65179605D01*
X126825717Y-66669609D01*
X122603800Y-66669609D01*
X122603800Y-65032946D01*
X125919407Y-65032946D01*
X125971878Y-65499811D01*
X126114423Y-65947468D01*
X126304954Y-66303927D01*
X126646111Y-66490003D01*
X128136115Y-65000000D01*
X128495325Y-65000000D01*
X129985329Y-66490003D01*
X130326486Y-66303927D01*
X130502990Y-65962500D01*
X132631928Y-65962500D01*
X132635000Y-66339250D01*
X132793750Y-66498000D01*
X134493000Y-66498000D01*
X134493000Y-65486250D01*
X134747000Y-65486250D01*
X134747000Y-66498000D01*
X136446250Y-66498000D01*
X136605000Y-66339250D01*
X136606897Y-66106553D01*
X138159009Y-66106553D01*
X138201603Y-66405907D01*
X138301778Y-66691199D01*
X138381739Y-66840792D01*
X138635920Y-66924475D01*
X139520395Y-66040000D01*
X139879605Y-66040000D01*
X140764080Y-66924475D01*
X141018261Y-66840792D01*
X141149158Y-66568225D01*
X141224365Y-66275358D01*
X141240991Y-65973447D01*
X141198397Y-65674093D01*
X141098222Y-65388801D01*
X141018261Y-65239208D01*
X140764080Y-65155525D01*
X139879605Y-66040000D01*
X139520395Y-66040000D01*
X138635920Y-65155525D01*
X138381739Y-65239208D01*
X138250842Y-65511775D01*
X138175635Y-65804642D01*
X138159009Y-66106553D01*
X136606897Y-66106553D01*
X136608072Y-65962500D01*
X136595812Y-65838018D01*
X136559502Y-65718320D01*
X136500537Y-65608006D01*
X136421185Y-65511315D01*
X136324494Y-65431963D01*
X136214180Y-65372998D01*
X136094482Y-65336688D01*
X135970000Y-65324428D01*
X134905750Y-65327500D01*
X134747000Y-65486250D01*
X134493000Y-65486250D01*
X134334250Y-65327500D01*
X133270000Y-65324428D01*
X133145518Y-65336688D01*
X133025820Y-65372998D01*
X132915506Y-65431963D01*
X132818815Y-65511315D01*
X132739463Y-65608006D01*
X132680498Y-65718320D01*
X132644188Y-65838018D01*
X132631928Y-65962500D01*
X130502990Y-65962500D01*
X130542233Y-65886591D01*
X130672416Y-65435185D01*
X130712033Y-64967054D01*
X130659562Y-64500189D01*
X130517017Y-64052532D01*
X130326486Y-63696073D01*
X129985329Y-63509997D01*
X128495325Y-65000000D01*
X128136115Y-65000000D01*
X126646111Y-63509997D01*
X126304954Y-63696073D01*
X126089207Y-64113409D01*
X125959024Y-64564815D01*
X125919407Y-65032946D01*
X122603800Y-65032946D01*
X122603800Y-64949829D01*
X122618263Y-64943838D01*
X122886052Y-64764907D01*
X123113787Y-64537172D01*
X123292718Y-64269383D01*
X123415968Y-63971832D01*
X123478800Y-63655953D01*
X123478800Y-63333887D01*
X123478105Y-63330391D01*
X126825717Y-63330391D01*
X128315720Y-64820395D01*
X129805723Y-63330391D01*
X129673244Y-63087499D01*
X132631928Y-63087499D01*
X132631928Y-63912501D01*
X132648992Y-64085755D01*
X132699528Y-64252351D01*
X132781595Y-64405887D01*
X132892038Y-64540462D01*
X133026613Y-64650905D01*
X133180149Y-64732972D01*
X133346745Y-64783508D01*
X133519999Y-64800572D01*
X135720001Y-64800572D01*
X135893255Y-64783508D01*
X136059851Y-64732972D01*
X136213387Y-64650905D01*
X136347962Y-64540462D01*
X136458405Y-64405887D01*
X136536384Y-64260000D01*
X138361687Y-64260000D01*
X138507688Y-64478505D01*
X138721495Y-64692312D01*
X138875105Y-64794951D01*
X138815525Y-64975920D01*
X139700000Y-65860395D01*
X140584475Y-64975920D01*
X140524895Y-64794951D01*
X140678505Y-64692312D01*
X140892312Y-64478505D01*
X141060299Y-64227095D01*
X141176011Y-63947743D01*
X141235000Y-63651184D01*
X141235000Y-63348816D01*
X141176011Y-63052257D01*
X141060299Y-62772905D01*
X140892312Y-62521495D01*
X140678505Y-62307688D01*
X140427095Y-62139701D01*
X140147743Y-62023989D01*
X139851184Y-61965000D01*
X139548816Y-61965000D01*
X139252257Y-62023989D01*
X138972905Y-62139701D01*
X138721495Y-62307688D01*
X138507688Y-62521495D01*
X138361687Y-62740000D01*
X136536384Y-62740000D01*
X136458405Y-62594113D01*
X136347962Y-62459538D01*
X136213387Y-62349095D01*
X136059851Y-62267028D01*
X135893255Y-62216492D01*
X135720001Y-62199428D01*
X133519999Y-62199428D01*
X133346745Y-62216492D01*
X133180149Y-62267028D01*
X133026613Y-62349095D01*
X132892038Y-62459538D01*
X132781595Y-62594113D01*
X132699528Y-62747649D01*
X132648992Y-62914245D01*
X132631928Y-63087499D01*
X129673244Y-63087499D01*
X129619647Y-62989234D01*
X129202311Y-62773487D01*
X128750905Y-62643304D01*
X128282774Y-62603687D01*
X127815909Y-62656158D01*
X127368252Y-62798703D01*
X127011793Y-62989234D01*
X126825717Y-63330391D01*
X123478105Y-63330391D01*
X123415968Y-63018008D01*
X123292718Y-62720457D01*
X123113787Y-62452668D01*
X122886052Y-62224933D01*
X122618263Y-62046002D01*
X122320712Y-61922752D01*
X122004833Y-61859920D01*
X121682767Y-61859920D01*
X121366888Y-61922752D01*
X121069337Y-62046002D01*
X120801548Y-62224933D01*
X120573813Y-62452668D01*
X120394882Y-62720457D01*
X120271632Y-63018008D01*
X120208800Y-63333887D01*
X118972019Y-63333887D01*
X118941761Y-63113245D01*
X118836595Y-62808832D01*
X118743614Y-62634876D01*
X118479213Y-62539112D01*
X117523405Y-63494920D01*
X117164195Y-63494920D01*
X116208387Y-62539112D01*
X115943986Y-62634876D01*
X115803096Y-62924491D01*
X115721416Y-63236028D01*
X115702082Y-63557515D01*
X111175000Y-63557515D01*
X111175000Y-63533504D01*
X111213551Y-63140332D01*
X111318004Y-62794366D01*
X111487667Y-62475276D01*
X111582085Y-62359507D01*
X116387992Y-62359507D01*
X117343800Y-63315315D01*
X118299608Y-62359507D01*
X118203844Y-62095106D01*
X117914229Y-61954216D01*
X117602692Y-61872536D01*
X117281205Y-61853202D01*
X116962125Y-61896959D01*
X116657712Y-62002125D01*
X116483756Y-62095106D01*
X116387992Y-62359507D01*
X111582085Y-62359507D01*
X111716076Y-62195219D01*
X111994534Y-61964859D01*
X112312430Y-61792973D01*
X112657658Y-61686107D01*
X113048753Y-61645000D01*
X142206496Y-61645000D01*
X142599668Y-61683551D01*
G37*
%TD.AperFunction*%
%TD*%
M02*
