%TF.GenerationSoftware,KiCad,Pcbnew,(5.1.10)-1*%
%TF.CreationDate,2021-12-02T15:45:15+11:00*%
%TF.ProjectId,BKM-10Rp2040,424b4d2d-3130-4527-9032-3034302e6b69,rev?*%
%TF.SameCoordinates,Original*%
%TF.FileFunction,Soldermask,Top*%
%TF.FilePolarity,Negative*%
%FSLAX46Y46*%
G04 Gerber Fmt 4.6, Leading zero omitted, Abs format (unit mm)*
G04 Created by KiCad (PCBNEW (5.1.10)-1) date 2021-12-02 15:45:15*
%MOMM*%
%LPD*%
G01*
G04 APERTURE LIST*
%ADD10C,3.500000*%
%ADD11O,1.500000X1.500000*%
%ADD12O,1.800000X1.800000*%
%ADD13O,1.700000X1.700000*%
%ADD14R,1.700000X1.700000*%
%ADD15C,1.800000*%
%ADD16C,2.000000*%
%ADD17C,4.000000*%
%ADD18C,1.600000*%
%ADD19R,1.600000X1.600000*%
G04 APERTURE END LIST*
%TO.C,R2*%
G36*
G01*
X126100000Y-127645000D02*
X126100000Y-128895000D01*
G75*
G02*
X125850000Y-129145000I-250000J0D01*
G01*
X125050000Y-129145000D01*
G75*
G02*
X124800000Y-128895000I0J250000D01*
G01*
X124800000Y-127645000D01*
G75*
G02*
X125050000Y-127395000I250000J0D01*
G01*
X125850000Y-127395000D01*
G75*
G02*
X126100000Y-127645000I0J-250000D01*
G01*
G37*
G36*
G01*
X129200000Y-127645000D02*
X129200000Y-128895000D01*
G75*
G02*
X128950000Y-129145000I-250000J0D01*
G01*
X128150000Y-129145000D01*
G75*
G02*
X127900000Y-128895000I0J250000D01*
G01*
X127900000Y-127645000D01*
G75*
G02*
X128150000Y-127395000I250000J0D01*
G01*
X128950000Y-127395000D01*
G75*
G02*
X129200000Y-127645000I0J-250000D01*
G01*
G37*
%TD*%
%TO.C,R1*%
G36*
G01*
X134250000Y-128895000D02*
X134250000Y-127645000D01*
G75*
G02*
X134500000Y-127395000I250000J0D01*
G01*
X135300000Y-127395000D01*
G75*
G02*
X135550000Y-127645000I0J-250000D01*
G01*
X135550000Y-128895000D01*
G75*
G02*
X135300000Y-129145000I-250000J0D01*
G01*
X134500000Y-129145000D01*
G75*
G02*
X134250000Y-128895000I0J250000D01*
G01*
G37*
G36*
G01*
X131150000Y-128895000D02*
X131150000Y-127645000D01*
G75*
G02*
X131400000Y-127395000I250000J0D01*
G01*
X132200000Y-127395000D01*
G75*
G02*
X132450000Y-127645000I0J-250000D01*
G01*
X132450000Y-128895000D01*
G75*
G02*
X132200000Y-129145000I-250000J0D01*
G01*
X131400000Y-129145000D01*
G75*
G02*
X131150000Y-128895000I0J250000D01*
G01*
G37*
%TD*%
D10*
%TO.C,H1*%
X128315720Y-65000000D03*
%TD*%
D11*
%TO.C,U2*%
X127359999Y-79225000D03*
X132209999Y-79225000D03*
D12*
X127059999Y-76195000D03*
X132509999Y-76195000D03*
D13*
X120894999Y-76065000D03*
X120894999Y-78605000D03*
D14*
X120894999Y-81145000D03*
D13*
X120894999Y-83685000D03*
X120894999Y-86225000D03*
X120894999Y-88765000D03*
X120894999Y-91305000D03*
D14*
X120894999Y-93845000D03*
D13*
X120894999Y-96385000D03*
X120894999Y-98925000D03*
X120894999Y-101465000D03*
X120894999Y-104005000D03*
D14*
X120894999Y-106545000D03*
D13*
X120894999Y-109085000D03*
X120894999Y-111625000D03*
X120894999Y-114165000D03*
X120894999Y-116705000D03*
D14*
X120894999Y-119245000D03*
D13*
X120894999Y-121785000D03*
X120894999Y-124325000D03*
X138674999Y-124325000D03*
X138674999Y-121785000D03*
D14*
X138674999Y-119245000D03*
D13*
X138674999Y-116705000D03*
X138674999Y-114165000D03*
X138674999Y-111625000D03*
X138674999Y-109085000D03*
D14*
X138674999Y-106545000D03*
D13*
X138674999Y-104005000D03*
X138674999Y-101465000D03*
X138674999Y-98925000D03*
X138674999Y-96385000D03*
D14*
X138674999Y-93845000D03*
D13*
X138674999Y-91305000D03*
X138674999Y-88765000D03*
X138674999Y-86225000D03*
X138674999Y-83685000D03*
D14*
X138674999Y-81145000D03*
D13*
X138674999Y-78605000D03*
X138674999Y-76065000D03*
%TD*%
%TO.C,J2*%
X113030000Y-92710000D03*
X113030000Y-95250000D03*
X113030000Y-97790000D03*
D14*
X113030000Y-100330000D03*
%TD*%
D15*
%TO.C,U3*%
X139700000Y-63500000D03*
X139700000Y-66040000D03*
G36*
G01*
X140349800Y-69480000D02*
X139050200Y-69480000D01*
G75*
G02*
X138800000Y-69229800I0J250200D01*
G01*
X138800000Y-67930200D01*
G75*
G02*
X139050200Y-67680000I250200J0D01*
G01*
X140349800Y-67680000D01*
G75*
G02*
X140600000Y-67930200I0J-250200D01*
G01*
X140600000Y-69229800D01*
G75*
G02*
X140349800Y-69480000I-250200J0D01*
G01*
G37*
%TD*%
D16*
%TO.C,SW1*%
X121843800Y-69994920D03*
X117343800Y-69994920D03*
X121843800Y-63494920D03*
X117343800Y-63494920D03*
%TD*%
D17*
%TO.C,J1*%
X140310000Y-136375000D03*
X115310000Y-136375000D03*
D18*
X123655000Y-134955000D03*
X126425000Y-134955000D03*
X129195000Y-134955000D03*
X131965000Y-134955000D03*
X122270000Y-137795000D03*
X125040000Y-137795000D03*
X127810000Y-137795000D03*
X130580000Y-137795000D03*
D19*
X133350000Y-137795000D03*
%TD*%
%TO.C,C4*%
G36*
G01*
X133519999Y-65962500D02*
X135720001Y-65962500D01*
G75*
G02*
X135970000Y-66212499I0J-249999D01*
G01*
X135970000Y-67037501D01*
G75*
G02*
X135720001Y-67287500I-249999J0D01*
G01*
X133519999Y-67287500D01*
G75*
G02*
X133270000Y-67037501I0J249999D01*
G01*
X133270000Y-66212499D01*
G75*
G02*
X133519999Y-65962500I249999J0D01*
G01*
G37*
G36*
G01*
X133519999Y-62837500D02*
X135720001Y-62837500D01*
G75*
G02*
X135970000Y-63087499I0J-249999D01*
G01*
X135970000Y-63912501D01*
G75*
G02*
X135720001Y-64162500I-249999J0D01*
G01*
X133519999Y-64162500D01*
G75*
G02*
X133270000Y-63912501I0J249999D01*
G01*
X133270000Y-63087499D01*
G75*
G02*
X133519999Y-62837500I249999J0D01*
G01*
G37*
%TD*%
%TO.C,C3*%
G36*
G01*
X136990001Y-114962500D02*
X134789999Y-114962500D01*
G75*
G02*
X134540000Y-114712501I0J249999D01*
G01*
X134540000Y-113887499D01*
G75*
G02*
X134789999Y-113637500I249999J0D01*
G01*
X136990001Y-113637500D01*
G75*
G02*
X137240000Y-113887499I0J-249999D01*
G01*
X137240000Y-114712501D01*
G75*
G02*
X136990001Y-114962500I-249999J0D01*
G01*
G37*
G36*
G01*
X136990001Y-118087500D02*
X134789999Y-118087500D01*
G75*
G02*
X134540000Y-117837501I0J249999D01*
G01*
X134540000Y-117012499D01*
G75*
G02*
X134789999Y-116762500I249999J0D01*
G01*
X136990001Y-116762500D01*
G75*
G02*
X137240000Y-117012499I0J-249999D01*
G01*
X137240000Y-117837501D01*
G75*
G02*
X136990001Y-118087500I-249999J0D01*
G01*
G37*
%TD*%
%TO.C,C2*%
G36*
G01*
X116670001Y-77840000D02*
X114469999Y-77840000D01*
G75*
G02*
X114220000Y-77590001I0J249999D01*
G01*
X114220000Y-76764999D01*
G75*
G02*
X114469999Y-76515000I249999J0D01*
G01*
X116670001Y-76515000D01*
G75*
G02*
X116920000Y-76764999I0J-249999D01*
G01*
X116920000Y-77590001D01*
G75*
G02*
X116670001Y-77840000I-249999J0D01*
G01*
G37*
G36*
G01*
X116670001Y-80965000D02*
X114469999Y-80965000D01*
G75*
G02*
X114220000Y-80715001I0J249999D01*
G01*
X114220000Y-79889999D01*
G75*
G02*
X114469999Y-79640000I249999J0D01*
G01*
X116670001Y-79640000D01*
G75*
G02*
X116920000Y-79889999I0J-249999D01*
G01*
X116920000Y-80715001D01*
G75*
G02*
X116670001Y-80965000I-249999J0D01*
G01*
G37*
%TD*%
%TO.C,U1*%
G36*
G01*
X133200000Y-117070000D02*
X133500000Y-117070000D01*
G75*
G02*
X133650000Y-117220000I0J-150000D01*
G01*
X133650000Y-118870000D01*
G75*
G02*
X133500000Y-119020000I-150000J0D01*
G01*
X133200000Y-119020000D01*
G75*
G02*
X133050000Y-118870000I0J150000D01*
G01*
X133050000Y-117220000D01*
G75*
G02*
X133200000Y-117070000I150000J0D01*
G01*
G37*
G36*
G01*
X131930000Y-117070000D02*
X132230000Y-117070000D01*
G75*
G02*
X132380000Y-117220000I0J-150000D01*
G01*
X132380000Y-118870000D01*
G75*
G02*
X132230000Y-119020000I-150000J0D01*
G01*
X131930000Y-119020000D01*
G75*
G02*
X131780000Y-118870000I0J150000D01*
G01*
X131780000Y-117220000D01*
G75*
G02*
X131930000Y-117070000I150000J0D01*
G01*
G37*
G36*
G01*
X130660000Y-117070000D02*
X130960000Y-117070000D01*
G75*
G02*
X131110000Y-117220000I0J-150000D01*
G01*
X131110000Y-118870000D01*
G75*
G02*
X130960000Y-119020000I-150000J0D01*
G01*
X130660000Y-119020000D01*
G75*
G02*
X130510000Y-118870000I0J150000D01*
G01*
X130510000Y-117220000D01*
G75*
G02*
X130660000Y-117070000I150000J0D01*
G01*
G37*
G36*
G01*
X129390000Y-117070000D02*
X129690000Y-117070000D01*
G75*
G02*
X129840000Y-117220000I0J-150000D01*
G01*
X129840000Y-118870000D01*
G75*
G02*
X129690000Y-119020000I-150000J0D01*
G01*
X129390000Y-119020000D01*
G75*
G02*
X129240000Y-118870000I0J150000D01*
G01*
X129240000Y-117220000D01*
G75*
G02*
X129390000Y-117070000I150000J0D01*
G01*
G37*
G36*
G01*
X128120000Y-117070000D02*
X128420000Y-117070000D01*
G75*
G02*
X128570000Y-117220000I0J-150000D01*
G01*
X128570000Y-118870000D01*
G75*
G02*
X128420000Y-119020000I-150000J0D01*
G01*
X128120000Y-119020000D01*
G75*
G02*
X127970000Y-118870000I0J150000D01*
G01*
X127970000Y-117220000D01*
G75*
G02*
X128120000Y-117070000I150000J0D01*
G01*
G37*
G36*
G01*
X126850000Y-117070000D02*
X127150000Y-117070000D01*
G75*
G02*
X127300000Y-117220000I0J-150000D01*
G01*
X127300000Y-118870000D01*
G75*
G02*
X127150000Y-119020000I-150000J0D01*
G01*
X126850000Y-119020000D01*
G75*
G02*
X126700000Y-118870000I0J150000D01*
G01*
X126700000Y-117220000D01*
G75*
G02*
X126850000Y-117070000I150000J0D01*
G01*
G37*
G36*
G01*
X125580000Y-117070000D02*
X125880000Y-117070000D01*
G75*
G02*
X126030000Y-117220000I0J-150000D01*
G01*
X126030000Y-118870000D01*
G75*
G02*
X125880000Y-119020000I-150000J0D01*
G01*
X125580000Y-119020000D01*
G75*
G02*
X125430000Y-118870000I0J150000D01*
G01*
X125430000Y-117220000D01*
G75*
G02*
X125580000Y-117070000I150000J0D01*
G01*
G37*
G36*
G01*
X125580000Y-112120000D02*
X125880000Y-112120000D01*
G75*
G02*
X126030000Y-112270000I0J-150000D01*
G01*
X126030000Y-113920000D01*
G75*
G02*
X125880000Y-114070000I-150000J0D01*
G01*
X125580000Y-114070000D01*
G75*
G02*
X125430000Y-113920000I0J150000D01*
G01*
X125430000Y-112270000D01*
G75*
G02*
X125580000Y-112120000I150000J0D01*
G01*
G37*
G36*
G01*
X126850000Y-112120000D02*
X127150000Y-112120000D01*
G75*
G02*
X127300000Y-112270000I0J-150000D01*
G01*
X127300000Y-113920000D01*
G75*
G02*
X127150000Y-114070000I-150000J0D01*
G01*
X126850000Y-114070000D01*
G75*
G02*
X126700000Y-113920000I0J150000D01*
G01*
X126700000Y-112270000D01*
G75*
G02*
X126850000Y-112120000I150000J0D01*
G01*
G37*
G36*
G01*
X128120000Y-112120000D02*
X128420000Y-112120000D01*
G75*
G02*
X128570000Y-112270000I0J-150000D01*
G01*
X128570000Y-113920000D01*
G75*
G02*
X128420000Y-114070000I-150000J0D01*
G01*
X128120000Y-114070000D01*
G75*
G02*
X127970000Y-113920000I0J150000D01*
G01*
X127970000Y-112270000D01*
G75*
G02*
X128120000Y-112120000I150000J0D01*
G01*
G37*
G36*
G01*
X129390000Y-112120000D02*
X129690000Y-112120000D01*
G75*
G02*
X129840000Y-112270000I0J-150000D01*
G01*
X129840000Y-113920000D01*
G75*
G02*
X129690000Y-114070000I-150000J0D01*
G01*
X129390000Y-114070000D01*
G75*
G02*
X129240000Y-113920000I0J150000D01*
G01*
X129240000Y-112270000D01*
G75*
G02*
X129390000Y-112120000I150000J0D01*
G01*
G37*
G36*
G01*
X130660000Y-112120000D02*
X130960000Y-112120000D01*
G75*
G02*
X131110000Y-112270000I0J-150000D01*
G01*
X131110000Y-113920000D01*
G75*
G02*
X130960000Y-114070000I-150000J0D01*
G01*
X130660000Y-114070000D01*
G75*
G02*
X130510000Y-113920000I0J150000D01*
G01*
X130510000Y-112270000D01*
G75*
G02*
X130660000Y-112120000I150000J0D01*
G01*
G37*
G36*
G01*
X131930000Y-112120000D02*
X132230000Y-112120000D01*
G75*
G02*
X132380000Y-112270000I0J-150000D01*
G01*
X132380000Y-113920000D01*
G75*
G02*
X132230000Y-114070000I-150000J0D01*
G01*
X131930000Y-114070000D01*
G75*
G02*
X131780000Y-113920000I0J150000D01*
G01*
X131780000Y-112270000D01*
G75*
G02*
X131930000Y-112120000I150000J0D01*
G01*
G37*
G36*
G01*
X133200000Y-112120000D02*
X133500000Y-112120000D01*
G75*
G02*
X133650000Y-112270000I0J-150000D01*
G01*
X133650000Y-113920000D01*
G75*
G02*
X133500000Y-114070000I-150000J0D01*
G01*
X133200000Y-114070000D01*
G75*
G02*
X133050000Y-113920000I0J150000D01*
G01*
X133050000Y-112270000D01*
G75*
G02*
X133200000Y-112120000I150000J0D01*
G01*
G37*
%TD*%
M02*
